<?xml version="1.0"?>
<!DOCTYPE multimedia-project>
<multimedia-project version="1.0" creator="Linux MultiMedia Studio (LMMS)" creatorversion="0.4.13" type="song">
  <head mastervol="100" timesig_denominator="4" masterpitch="0">
    <bpm value="150" id="7317731"/>
    <timesig_numerator value="2" id="5379433"/>
  </head>
  <song>
    <trackcontainer width="600" x="5" y="5" maximized="0" height="300" visible="1" type="song" minimized="0">
      <track muted="0" type="0" name="Default preset">
        <instrumenttrack pan="0" fxch="0" pitch="0" basenote="57" vol="100">
          <instrument name="tripleoscillator">
            <tripleoscillator phoffset2="0" userwavefile0="" finer0="0" userwavefile1="" finer1="0" userwavefile2="" finer2="0" coarse0="0" coarse1="-12" coarse2="-24" finel0="0" finel1="0" modalgo1="2" modalgo2="2" finel2="0" pan0="0" modalgo3="2" pan1="0" stphdetun0="0" pan2="0" stphdetun1="0" wavetype0="0" stphdetun2="0" wavetype1="0" wavetype2="0" vol0="33" vol1="33" phoffset0="0" phoffset1="0" vol2="33"/>
          </instrument>
          <eldata fres="0.5" ftype="0" fcut="14000" fwet="0">
            <elvol lspd_denominator="4" pdel="0" userwavefile="" dec="0.5" lamt="0" syncmode="0" latt="0" rel="0.1" sus="0.5" amt="0" x100="0" att="0" lpdel="0" hold="0.5" lshp="0" lspd="0.1" ctlenvamt="0" lspd_numerator="4"/>
            <elcut lspd_denominator="4" pdel="0" userwavefile="" dec="0.5" lamt="0" syncmode="0" latt="0" rel="0.1" sus="0.5" amt="0" x100="0" att="0" lpdel="0" hold="0.5" lshp="0" lspd="0.1" ctlenvamt="0" lspd_numerator="4"/>
            <elres lspd_denominator="4" pdel="0" userwavefile="" dec="0.5" lamt="0" syncmode="0" latt="0" rel="0.1" sus="0.5" amt="0" x100="0" att="0" lpdel="0" hold="0.5" lshp="0" lspd="0.1" ctlenvamt="0" lspd_numerator="4"/>
          </eldata>
          <chordcreator chord="0" chordrange="1" chord-enabled="0"/>
          <arpeggiator arptime="100" arprange="1" arptime_denominator="4" syncmode="0" arpmode="0" arp-enabled="0" arp="0" arptime_numerator="4" arpdir="0" arpgate="100"/>
          <midiport inputcontroller="0" fixedoutputvelocity="-1" inputchannel="0" outputcontroller="0" writable="0" outputchannel="1" fixedinputvelocity="-1" outputprogram="1" readable="0"/>
          <fxchain numofeffects="0" enabled="0"/>
        </instrumenttrack>
      </track>
      <track muted="0" type="2" name="Sample track">
        <sampletrack vol="100">
          <fxchain numofeffects="0" enabled="0"/>
        </sampletrack>
      </track>
      <track muted="0" type="1" name="Beat/Bassline 0">
        <bbtrack>
          <trackcontainer width="504" x="610" y="5" maximized="0" height="300" visible="1" type="bbtrackcontainer" minimized="0">
            <track muted="0" type="0" name="Default preset">
              <instrumenttrack pan="0" fxch="0" pitch="0" basenote="57" vol="100">
                <instrument name="tripleoscillator">
                  <tripleoscillator phoffset2="0" userwavefile0="" finer0="0" userwavefile1="" finer1="0" userwavefile2="" finer2="0" coarse0="0" coarse1="-12" coarse2="-24" finel0="0" finel1="0" modalgo1="2" modalgo2="2" finel2="0" pan0="0" modalgo3="2" pan1="0" stphdetun0="0" pan2="0" stphdetun1="0" wavetype0="0" stphdetun2="0" wavetype1="0" wavetype2="0" vol0="33" vol1="33" phoffset0="0" phoffset1="0" vol2="33"/>
                </instrument>
                <eldata fres="0.5" ftype="0" fcut="14000" fwet="0">
                  <elvol lspd_denominator="4" pdel="0" userwavefile="" dec="0.5" lamt="0" syncmode="0" latt="0" rel="0.1" sus="0.5" amt="0" x100="0" att="0" lpdel="0" hold="0.5" lshp="0" lspd="0.1" ctlenvamt="0" lspd_numerator="4"/>
                  <elcut lspd_denominator="4" pdel="0" userwavefile="" dec="0.5" lamt="0" syncmode="0" latt="0" rel="0.1" sus="0.5" amt="0" x100="0" att="0" lpdel="0" hold="0.5" lshp="0" lspd="0.1" ctlenvamt="0" lspd_numerator="4"/>
                  <elres lspd_denominator="4" pdel="0" userwavefile="" dec="0.5" lamt="0" syncmode="0" latt="0" rel="0.1" sus="0.5" amt="0" x100="0" att="0" lpdel="0" hold="0.5" lshp="0" lspd="0.1" ctlenvamt="0" lspd_numerator="4"/>
                </eldata>
                <chordcreator chord="0" chordrange="1" chord-enabled="0"/>
                <arpeggiator arptime="100" arprange="1" arptime_denominator="4" syncmode="0" arpmode="0" arp-enabled="0" arp="0" arptime_numerator="4" arpdir="0" arpgate="100"/>
                <midiport inputcontroller="0" fixedoutputvelocity="-1" inputchannel="0" outputcontroller="0" writable="0" outputchannel="1" fixedinputvelocity="-1" outputprogram="1" readable="0"/>
                <fxchain numofeffects="0" enabled="0"/>
              </instrumenttrack>
              <pattern steps="8" muted="0" type="0" name="Default preset" pos="0" len="96" frozen="0"/>
            </track>
          </trackcontainer>
        </bbtrack>
      </track>
      <track muted="0" type="5" name="Automation track">
        <automationtrack/>
      </track>
      <track muted="0" type="0" name="Default preset">
        <instrumenttrack pan="57.5" fxch="0" pitch="0" basenote="57" vol="78.7">
          <instrument name="sf2player">
            <sf2player patch="0" chorusLevel="2" chorusDepth="8" reverbOn="0" reverbRoomSize="0.2" chorusOn="0" chorusSpeed="0.3" reverbDamping="0" chorusNum="3" reverbLevel="0.9" bank="0" reverbWidth="0.5" src="" gain="1"/>
          </instrument>
          <eldata fres="0.5" ftype="0" fcut="14000" fwet="0">
            <elvol lspd_denominator="4" pdel="0" userwavefile="" dec="0.5" lamt="0" syncmode="0" latt="0" rel="0.1" sus="0.5" amt="0" x100="0" att="0" lpdel="0" hold="0.5" lshp="0" lspd="0.1" ctlenvamt="0" lspd_numerator="4"/>
            <elcut lspd_denominator="4" pdel="0" userwavefile="" dec="0.5" lamt="0" syncmode="0" latt="0" rel="0.1" sus="0.5" amt="0" x100="0" att="0" lpdel="0" hold="0.5" lshp="0" lspd="0.1" ctlenvamt="0" lspd_numerator="4"/>
            <elres lspd_denominator="4" pdel="0" userwavefile="" dec="0.5" lamt="0" syncmode="0" latt="0" rel="0.1" sus="0.5" amt="0" x100="0" att="0" lpdel="0" hold="0.5" lshp="0" lspd="0.1" ctlenvamt="0" lspd_numerator="4"/>
          </eldata>
          <chordcreator chord="0" chordrange="1" chord-enabled="0"/>
          <arpeggiator arptime="100" arprange="1" arptime_denominator="4" syncmode="0" arpmode="0" arp-enabled="0" arp="0" arptime_numerator="4" arpdir="0" arpgate="100"/>
          <midiport inputcontroller="0" fixedoutputvelocity="-1" inputchannel="0" outputcontroller="0" writable="0" outputchannel="1" fixedinputvelocity="-1" outputprogram="1" readable="0"/>
          <fxchain numofeffects="0" enabled="0"/>
        </instrumenttrack>
        <pattern steps="8" muted="0" type="1" name="Default preset" pos="0" len="21120" frozen="0">
          <note pan="0" key="46" vol="89" pos="0" len="86"/>
          <note pan="0" key="39" vol="89" pos="0" len="86"/>
          <note pan="0" key="43" vol="89" pos="0" len="86"/>
          <note pan="0" key="51" vol="100" pos="0" len="43"/>
          <note pan="0" key="60" vol="93" pos="48" len="14"/>
          <note pan="0" key="58" vol="87" pos="64" len="14"/>
          <note pan="0" key="56" vol="87" pos="80" len="14"/>
          <note pan="0" key="55" vol="100" pos="96" len="43"/>
          <note pan="0" key="46" vol="89" pos="96" len="86"/>
          <note pan="0" key="38" vol="89" pos="96" len="86"/>
          <note pan="0" key="43" vol="89" pos="96" len="86"/>
          <note pan="0" key="63" vol="93" pos="144" len="14"/>
          <note pan="0" key="62" vol="87" pos="160" len="14"/>
          <note pan="0" key="60" vol="87" pos="176" len="14"/>
          <note pan="0" key="58" vol="100" pos="192" len="43"/>
          <note pan="0" key="34" vol="89" pos="192" len="86"/>
          <note pan="0" key="43" vol="89" pos="192" len="86"/>
          <note pan="0" key="39" vol="89" pos="192" len="86"/>
          <note pan="0" key="63" vol="93" pos="240" len="43"/>
          <note pan="0" key="65" vol="100" pos="288" len="21"/>
          <note pan="0" key="34" vol="89" pos="288" len="43"/>
          <note pan="0" key="41" vol="89" pos="288" len="43"/>
          <note pan="0" key="38" vol="89" pos="288" len="43"/>
          <note pan="0" key="62" vol="90" pos="312" len="21"/>
          <note pan="0" key="58" vol="93" pos="336" len="43"/>
          <note pan="0" key="34" vol="83" pos="336" len="43"/>
          <note pan="0" key="43" vol="83" pos="336" len="43"/>
          <note pan="0" key="39" vol="83" pos="336" len="43"/>
          <note pan="0" key="56" vol="100" pos="384" len="43"/>
          <note pan="0" key="44" vol="89" pos="384" len="86"/>
          <note pan="0" key="36" vol="89" pos="384" len="86"/>
          <note pan="0" key="41" vol="89" pos="384" len="86"/>
          <note pan="0" key="65" vol="93" pos="432" len="14"/>
          <note pan="0" key="63" vol="87" pos="448" len="14"/>
          <note pan="0" key="62" vol="87" pos="464" len="14"/>
          <note pan="0" key="60" vol="100" pos="480" len="43"/>
          <note pan="0" key="36" vol="89" pos="480" len="86"/>
          <note pan="0" key="44" vol="89" pos="480" len="86"/>
          <note pan="0" key="39" vol="89" pos="480" len="86"/>
          <note pan="0" key="68" vol="93" pos="528" len="14"/>
          <note pan="0" key="67" vol="87" pos="544" len="14"/>
          <note pan="0" key="65" vol="87" pos="560" len="14"/>
          <note pan="0" key="63" vol="100" pos="576" len="43"/>
          <note pan="0" key="39" vol="89" pos="576" len="86"/>
          <note pan="0" key="44" vol="89" pos="576" len="86"/>
          <note pan="0" key="48" vol="89" pos="576" len="86"/>
          <note pan="0" key="68" vol="93" pos="624" len="43"/>
          <note pan="0" key="70" vol="100" pos="672" len="21"/>
          <note pan="0" key="41" vol="89" pos="672" len="43"/>
          <note pan="0" key="38" vol="89" pos="672" len="43"/>
          <note pan="0" key="46" vol="89" pos="672" len="43"/>
          <note pan="0" key="67" vol="90" pos="696" len="21"/>
          <note pan="0" key="63" vol="93" pos="720" len="43"/>
          <note pan="0" key="46" vol="83" pos="720" len="43"/>
          <note pan="0" key="43" vol="83" pos="720" len="43"/>
          <note pan="0" key="39" vol="83" pos="720" len="43"/>
          <note pan="0" key="58" vol="100" pos="768" len="14"/>
          <note pan="0" key="39" vol="89" pos="768" len="43"/>
          <note pan="0" key="43" vol="89" pos="768" len="43"/>
          <note pan="0" key="46" vol="89" pos="768" len="43"/>
          <note pan="0" key="55" vol="87" pos="784" len="14"/>
          <note pan="0" key="51" vol="87" pos="800" len="14"/>
          <note pan="0" key="60" vol="93" pos="816" len="14"/>
          <note pan="0" key="36" vol="83" pos="816" len="43"/>
          <note pan="0" key="41" vol="83" pos="816" len="43"/>
          <note pan="0" key="44" vol="83" pos="816" len="43"/>
          <note pan="0" key="56" vol="87" pos="832" len="14"/>
          <note pan="0" key="53" vol="87" pos="848" len="14"/>
          <note pan="0" key="62" vol="100" pos="864" len="14"/>
          <note pan="0" key="34" vol="89" pos="864" len="43"/>
          <note pan="0" key="41" vol="89" pos="864" len="43"/>
          <note pan="0" key="38" vol="89" pos="864" len="43"/>
          <note pan="0" key="58" vol="87" pos="880" len="14"/>
          <note pan="0" key="53" vol="87" pos="896" len="14"/>
          <note pan="0" key="63" vol="93" pos="912" len="14"/>
          <note pan="0" key="39" vol="83" pos="912" len="43"/>
          <note pan="0" key="43" vol="83" pos="912" len="43"/>
          <note pan="0" key="34" vol="83" pos="912" len="43"/>
          <note pan="0" key="62" vol="87" pos="928" len="14"/>
          <note pan="0" key="63" vol="87" pos="944" len="59"/>
          <note pan="0" key="34" vol="89" pos="960" len="43"/>
          <note pan="0" key="39" vol="89" pos="960" len="43"/>
          <note pan="0" key="43" vol="89" pos="960" len="43"/>
          <note pan="0" key="63" vol="93" pos="1008" len="14"/>
          <note pan="0" key="43" vol="83" pos="1008" len="43"/>
          <note pan="0" key="39" vol="83" pos="1008" len="43"/>
          <note pan="0" key="46" vol="83" pos="1008" len="43"/>
          <note pan="0" key="62" vol="87" pos="1024" len="14"/>
          <note pan="0" key="63" vol="87" pos="1040" len="14"/>
          <note pan="0" key="65" vol="100" pos="1056" len="14"/>
          <note pan="0" key="46" vol="89" pos="1056" len="43"/>
          <note pan="0" key="38" vol="89" pos="1056" len="43"/>
          <note pan="0" key="41" vol="89" pos="1056" len="43"/>
          <note pan="0" key="62" vol="87" pos="1072" len="14"/>
          <note pan="0" key="58" vol="87" pos="1088" len="14"/>
          <note pan="0" key="63" vol="93" pos="1104" len="14"/>
          <note pan="0" key="39" vol="83" pos="1104" len="43"/>
          <note pan="0" key="48" vol="83" pos="1104" len="43"/>
          <note pan="0" key="43" vol="83" pos="1104" len="43"/>
          <note pan="0" key="60" vol="87" pos="1120" len="14"/>
          <note pan="0" key="55" vol="87" pos="1136" len="14"/>
          <note pan="0" key="56" vol="100" pos="1152" len="14"/>
          <note pan="0" key="48" vol="89" pos="1152" len="43"/>
          <note pan="0" key="44" vol="89" pos="1152" len="43"/>
          <note pan="0" key="41" vol="89" pos="1152" len="43"/>
          <note pan="0" key="60" vol="87" pos="1168" len="14"/>
          <note pan="0" key="56" vol="87" pos="1184" len="14"/>
          <note pan="0" key="58" vol="93" pos="1200" len="14"/>
          <note pan="0" key="41" vol="83" pos="1200" len="43"/>
          <note pan="0" key="46" vol="83" pos="1200" len="43"/>
          <note pan="0" key="38" vol="83" pos="1200" len="43"/>
          <note pan="0" key="62" vol="87" pos="1216" len="14"/>
          <note pan="0" key="58" vol="87" pos="1232" len="14"/>
          <note pan="0" key="56" vol="100" pos="1248" len="14"/>
          <note pan="0" key="41" vol="89" pos="1248" len="43"/>
          <note pan="0" key="48" vol="89" pos="1248" len="43"/>
          <note pan="0" key="44" vol="89" pos="1248" len="43"/>
          <note pan="0" key="60" vol="87" pos="1264" len="14"/>
          <note pan="0" key="56" vol="87" pos="1280" len="14"/>
          <note pan="0" key="63" vol="93" pos="1296" len="14"/>
          <note pan="0" key="39" vol="83" pos="1296" len="43"/>
          <note pan="0" key="43" vol="83" pos="1296" len="43"/>
          <note pan="0" key="34" vol="83" pos="1296" len="43"/>
          <note pan="0" key="58" vol="87" pos="1312" len="14"/>
          <note pan="0" key="55" vol="87" pos="1328" len="14"/>
          <note pan="0" key="53" vol="100" pos="1344" len="14"/>
          <note pan="0" key="36" vol="89" pos="1344" len="43"/>
          <note pan="0" key="41" vol="89" pos="1344" len="43"/>
          <note pan="0" key="44" vol="89" pos="1344" len="43"/>
          <note pan="0" key="55" vol="87" pos="1360" len="14"/>
          <note pan="0" key="56" vol="87" pos="1376" len="14"/>
          <note pan="0" key="58" vol="93" pos="1392" len="14"/>
          <note pan="0" key="41" vol="83" pos="1392" len="43"/>
          <note pan="0" key="46" vol="83" pos="1392" len="43"/>
          <note pan="0" key="38" vol="83" pos="1392" len="43"/>
          <note pan="0" key="60" vol="87" pos="1408" len="14"/>
          <note pan="0" key="62" vol="87" pos="1424" len="14"/>
          <note pan="0" key="63" vol="127" pos="1440" len="14"/>
          <note pan="0" key="39" vol="127" pos="1440" len="86"/>
          <note pan="0" key="43" vol="127" pos="1440" len="86"/>
          <note pan="0" key="34" vol="127" pos="1440" len="86"/>
          <note pan="0" key="58" vol="113" pos="1456" len="14"/>
          <note pan="0" key="55" vol="113" pos="1472" len="59"/>
          <note pan="0" key="58" vol="67" pos="1536" len="10"/>
          <note pan="0" key="39" vol="67" pos="1536" len="86"/>
          <note pan="0" key="43" vol="67" pos="1536" len="86"/>
          <note pan="0" key="63" vol="58" pos="1548" len="10"/>
          <note pan="0" key="55" vol="61" pos="1560" len="10"/>
          <note pan="0" key="63" vol="60" pos="1572" len="10"/>
          <note pan="0" key="51" vol="65" pos="1584" len="10"/>
          <note pan="0" key="63" vol="62" pos="1596" len="10"/>
          <note pan="0" key="55" vol="64" pos="1608" len="10"/>
          <note pan="0" key="63" vol="63" pos="1620" len="10"/>
          <note pan="0" key="56" vol="73" pos="1632" len="10"/>
          <note pan="0" key="41" vol="73" pos="1632" len="43"/>
          <note pan="0" key="36" vol="73" pos="1632" len="43"/>
          <note pan="0" key="65" vol="65" pos="1644" len="10"/>
          <note pan="0" key="53" vol="68" pos="1656" len="10"/>
          <note pan="0" key="65" vol="66" pos="1668" len="10"/>
          <note pan="0" key="55" vol="71" pos="1680" len="10"/>
          <note pan="0" key="38" vol="71" pos="1680" len="43"/>
          <note pan="0" key="43" vol="71" pos="1680" len="43"/>
          <note pan="0" key="67" vol="68" pos="1692" len="10"/>
          <note pan="0" key="58" vol="71" pos="1704" len="10"/>
          <note pan="0" key="67" vol="70" pos="1716" len="10"/>
          <note pan="0" key="60" vol="80" pos="1728" len="10"/>
          <note pan="0" key="41" vol="80" pos="1728" len="86"/>
          <note pan="0" key="44" vol="80" pos="1728" len="86"/>
          <note pan="0" key="65" vol="71" pos="1740" len="10"/>
          <note pan="0" key="56" vol="74" pos="1752" len="10"/>
          <note pan="0" key="65" vol="72" pos="1764" len="10"/>
          <note pan="0" key="53" vol="79" pos="1776" len="10"/>
          <note pan="0" key="65" vol="73" pos="1788" len="10"/>
          <note pan="0" key="56" vol="77" pos="1800" len="10"/>
          <note pan="0" key="65" vol="75" pos="1812" len="10"/>
          <note pan="0" key="58" vol="88" pos="1824" len="10"/>
          <note pan="0" key="34" vol="88" pos="1824" len="43"/>
          <note pan="0" key="39" vol="88" pos="1824" len="43"/>
          <note pan="0" key="63" vol="77" pos="1836" len="10"/>
          <note pan="0" key="58" vol="80" pos="1848" len="10"/>
          <note pan="0" key="63" vol="78" pos="1860" len="10"/>
          <note pan="0" key="58" vol="85" pos="1872" len="10"/>
          <note pan="0" key="39" vol="85" pos="1872" len="43"/>
          <note pan="0" key="43" vol="85" pos="1872" len="43"/>
          <note pan="0" key="63" vol="80" pos="1884" len="10"/>
          <note pan="0" key="58" vol="84" pos="1896" len="10"/>
          <note pan="0" key="63" vol="81" pos="1908" len="10"/>
          <note pan="0" key="58" vol="95" pos="1920" len="10"/>
          <note pan="0" key="38" vol="95" pos="1920" len="86"/>
          <note pan="0" key="43" vol="95" pos="1920" len="86"/>
          <note pan="0" key="63" vol="83" pos="1932" len="10"/>
          <note pan="0" key="55" vol="87" pos="1944" len="10"/>
          <note pan="0" key="63" vol="85" pos="1956" len="10"/>
          <note pan="0" key="51" vol="91" pos="1968" len="10"/>
          <note pan="0" key="63" vol="86" pos="1980" len="10"/>
          <note pan="0" key="58" vol="90" pos="1992" len="10"/>
          <note pan="0" key="63" vol="88" pos="2004" len="10"/>
          <note pan="0" key="57" vol="103" pos="2016" len="10"/>
          <note pan="0" key="38" vol="103" pos="2016" len="86"/>
          <note pan="0" key="45" vol="103" pos="2016" len="86"/>
          <note pan="0" key="62" vol="89" pos="2028" len="10"/>
          <note pan="0" key="53" vol="93" pos="2040" len="10"/>
          <note pan="0" key="62" vol="91" pos="2052" len="10"/>
          <note pan="0" key="50" vol="98" pos="2064" len="10"/>
          <note pan="0" key="62" vol="93" pos="2076" len="10"/>
          <note pan="0" key="53" vol="96" pos="2088" len="10"/>
          <note pan="0" key="62" vol="94" pos="2100" len="10"/>
          <note pan="0" key="56" vol="109" pos="2112" len="10"/>
          <note pan="0" key="44" vol="109" pos="2112" len="86"/>
          <note pan="0" key="39" vol="109" pos="2112" len="86"/>
          <note pan="0" key="68" vol="96" pos="2124" len="10"/>
          <note pan="0" key="60" vol="100" pos="2136" len="10"/>
          <note pan="0" key="68" vol="96" pos="2148" len="10"/>
          <note pan="0" key="63" vol="105" pos="2160" len="10"/>
          <note pan="0" key="68" vol="98" pos="2172" len="10"/>
          <note pan="0" key="65" vol="103" pos="2184" len="10"/>
          <note pan="0" key="68" vol="100" pos="2196" len="10"/>
          <note pan="0" key="62" vol="117" pos="2208" len="10"/>
          <note pan="0" key="43" vol="117" pos="2208" len="43"/>
          <note pan="0" key="46" vol="117" pos="2208" len="43"/>
          <note pan="0" key="67" vol="101" pos="2220" len="10"/>
          <note pan="0" key="58" vol="105" pos="2232" len="10"/>
          <note pan="0" key="67" vol="101" pos="2244" len="10"/>
          <note pan="0" key="55" vol="127" pos="2256" len="10"/>
          <note pan="0" key="67" vol="127" pos="2256" len="10"/>
          <note pan="0" key="46" vol="127" pos="2256" len="43"/>
          <note pan="0" key="50" vol="127" pos="2256" len="43"/>
          <note pan="0" key="67" vol="117" pos="2304" len="32"/>
          <note pan="0" key="34" vol="89" pos="2304" len="278"/>
          <note pan="0" key="38" vol="89" pos="2304" len="278"/>
          <note pan="0" key="43" vol="89" pos="2304" len="278"/>
          <note pan="0" key="70" vol="101" pos="2340" len="10"/>
          <note pan="0" key="69" vol="109" pos="2352" len="21"/>
          <note pan="0" key="65" vol="105" pos="2376" len="21"/>
          <note pan="0" key="67" vol="117" pos="2400" len="21"/>
          <note pan="0" key="72" vol="105" pos="2424" len="21"/>
          <note pan="0" key="72" vol="109" pos="2448" len="43"/>
          <note pan="0" key="67" vol="117" pos="2496" len="32"/>
          <note pan="0" key="70" vol="101" pos="2532" len="10"/>
          <note pan="0" key="69" vol="109" pos="2544" len="21"/>
          <note pan="0" key="67" vol="105" pos="2568" len="21"/>
          <note pan="0" key="69" vol="117" pos="2592" len="21"/>
          <note pan="0" key="36" vol="89" pos="2592" len="86"/>
          <note pan="0" key="38" vol="89" pos="2592" len="86"/>
          <note pan="0" key="41" vol="89" pos="2592" len="86"/>
          <note pan="0" key="65" vol="105" pos="2616" len="21"/>
          <note pan="0" key="62" vol="109" pos="2640" len="43"/>
          <note pan="0" key="67" vol="117" pos="2688" len="32"/>
          <note pan="0" key="43" vol="89" pos="2688" len="235"/>
          <note pan="0" key="38" vol="89" pos="2688" len="235"/>
          <note pan="0" key="34" vol="89" pos="2688" len="235"/>
          <note pan="0" key="70" vol="101" pos="2724" len="10"/>
          <note pan="0" key="69" vol="109" pos="2736" len="21"/>
          <note pan="0" key="65" vol="105" pos="2760" len="21"/>
          <note pan="0" key="67" vol="117" pos="2784" len="21"/>
          <note pan="0" key="72" vol="105" pos="2808" len="21"/>
          <note pan="0" key="72" vol="109" pos="2832" len="43"/>
          <note pan="0" key="67" vol="117" pos="2880" len="32"/>
          <note pan="0" key="70" vol="101" pos="2916" len="10"/>
          <note pan="0" key="69" vol="109" pos="2928" len="21"/>
          <note pan="0" key="41" vol="83" pos="2928" len="43"/>
          <note pan="0" key="36" vol="83" pos="2928" len="43"/>
          <note pan="0" key="38" vol="83" pos="2928" len="43"/>
          <note pan="0" key="65" vol="105" pos="2952" len="21"/>
          <note pan="0" key="67" vol="117" pos="2976" len="13"/>
          <note pan="0" key="34" vol="89" pos="2976" len="13"/>
          <note pan="0" key="67" vol="105" pos="3000" len="13"/>
          <note pan="0" key="38" vol="80" pos="3000" len="13"/>
          <note pan="0" key="67" vol="109" pos="3024" len="26"/>
          <note pan="0" key="43" vol="83" pos="3024" len="26"/>
          <note pan="0" key="55" vol="117" pos="3072" len="32"/>
          <note pan="0" key="58" vol="101" pos="3108" len="10"/>
          <note pan="0" key="57" vol="109" pos="3120" len="21"/>
          <note pan="0" key="53" vol="105" pos="3144" len="21"/>
          <note pan="0" key="55" vol="117" pos="3168" len="13"/>
          <note pan="0" key="55" vol="105" pos="3192" len="13"/>
          <note pan="0" key="55" vol="109" pos="3216" len="26"/>
          <note pan="0" key="43" vol="89" pos="3264" len="32"/>
          <note pan="0" key="46" vol="77" pos="3300" len="10"/>
          <note pan="0" key="45" vol="83" pos="3312" len="21"/>
          <note pan="0" key="41" vol="80" pos="3336" len="21"/>
          <note pan="0" key="55" vol="117" pos="3360" len="13"/>
          <note pan="0" key="43" vol="89" pos="3360" len="13"/>
          <note pan="0" key="55" vol="105" pos="3384" len="13"/>
          <note pan="0" key="43" vol="80" pos="3384" len="13"/>
          <note pan="0" key="55" vol="109" pos="3408" len="43"/>
          <note pan="0" key="43" vol="83" pos="3408" len="43"/>
          <note pan="0" key="58" vol="67" pos="3456" len="64"/>
          <note pan="0" key="34" vol="67" pos="3456" len="182"/>
          <note pan="0" key="38" vol="67" pos="3456" len="182"/>
          <note pan="0" key="43" vol="67" pos="3456" len="182"/>
          <note pan="0" key="55" vol="61" pos="3528" len="21"/>
          <note pan="0" key="62" vol="68" pos="3552" len="43"/>
          <note pan="0" key="55" vol="64" pos="3600" len="43"/>
          <note pan="0" key="58" vol="70" pos="3648" len="64"/>
          <note pan="0" key="46" vol="70" pos="3648" len="182"/>
          <note pan="0" key="43" vol="70" pos="3648" len="182"/>
          <note pan="0" key="38" vol="70" pos="3648" len="182"/>
          <note pan="0" key="55" vol="64" pos="3720" len="21"/>
          <note pan="0" key="50" vol="72" pos="3744" len="43"/>
          <note pan="0" key="55" vol="67" pos="3792" len="43"/>
          <note pan="0" key="58" vol="73" pos="3840" len="64"/>
          <note pan="0" key="43" vol="73" pos="3840" len="182"/>
          <note pan="0" key="38" vol="73" pos="3840" len="182"/>
          <note pan="0" key="34" vol="73" pos="3840" len="182"/>
          <note pan="0" key="55" vol="67" pos="3912" len="21"/>
          <note pan="0" key="62" vol="76" pos="3936" len="43"/>
          <note pan="0" key="58" vol="71" pos="3984" len="43"/>
          <note pan="0" key="55" vol="78" pos="4032" len="64"/>
          <note pan="0" key="43" vol="78" pos="4032" len="86"/>
          <note pan="0" key="35" vol="78" pos="4032" len="86"/>
          <note pan="0" key="38" vol="78" pos="4032" len="86"/>
          <note pan="0" key="50" vol="71" pos="4104" len="21"/>
          <note pan="0" key="55" vol="79" pos="4128" len="43"/>
          <note pan="0" key="39" vol="79" pos="4128" len="86"/>
          <note pan="0" key="43" vol="79" pos="4128" len="86"/>
          <note pan="0" key="36" vol="79" pos="4128" len="86"/>
          <note pan="0" key="55" vol="74" pos="4176" len="43"/>
          <note pan="0" key="58" vol="81" pos="4224" len="64"/>
          <note pan="0" key="43" vol="81" pos="4224" len="182"/>
          <note pan="0" key="38" vol="81" pos="4224" len="182"/>
          <note pan="0" key="34" vol="81" pos="4224" len="182"/>
          <note pan="0" key="55" vol="74" pos="4296" len="21"/>
          <note pan="0" key="62" vol="84" pos="4320" len="43"/>
          <note pan="0" key="55" vol="78" pos="4368" len="43"/>
          <note pan="0" key="58" vol="85" pos="4416" len="64"/>
          <note pan="0" key="46" vol="85" pos="4416" len="182"/>
          <note pan="0" key="43" vol="85" pos="4416" len="182"/>
          <note pan="0" key="38" vol="85" pos="4416" len="182"/>
          <note pan="0" key="55" vol="77" pos="4488" len="21"/>
          <note pan="0" key="50" vol="87" pos="4512" len="43"/>
          <note pan="0" key="55" vol="82" pos="4560" len="43"/>
          <note pan="0" key="58" vol="89" pos="4608" len="64"/>
          <note pan="0" key="43" vol="89" pos="4608" len="182"/>
          <note pan="0" key="38" vol="89" pos="4608" len="182"/>
          <note pan="0" key="34" vol="89" pos="4608" len="182"/>
          <note pan="0" key="55" vol="81" pos="4680" len="21"/>
          <note pan="0" key="62" vol="90" pos="4704" len="43"/>
          <note pan="0" key="62" vol="85" pos="4752" len="43"/>
          <note pan="0" key="58" vol="92" pos="4800" len="64"/>
          <note pan="0" key="43" vol="127" pos="4800" len="374"/>
          <note pan="0" key="34" vol="127" pos="4800" len="374"/>
          <note pan="0" key="39" vol="127" pos="4800" len="374"/>
          <note pan="0" key="55" vol="84" pos="4872" len="21"/>
          <note pan="0" key="51" vol="95" pos="4896" len="43"/>
          <note pan="0" key="55" vol="88" pos="4944" len="43"/>
          <note pan="0" key="58" vol="96" pos="4992" len="64"/>
          <note pan="0" key="55" vol="87" pos="5064" len="21"/>
          <note pan="0" key="51" vol="98" pos="5088" len="43"/>
          <note pan="0" key="55" vol="92" pos="5136" len="43"/>
          <note pan="0" key="51" vol="100" pos="5184" len="64"/>
          <note pan="0" key="43" vol="100" pos="5184" len="182"/>
          <note pan="0" key="34" vol="100" pos="5184" len="182"/>
          <note pan="0" key="39" vol="100" pos="5184" len="182"/>
          <note pan="0" key="46" vol="91" pos="5256" len="21"/>
          <note pan="0" key="51" vol="101" pos="5280" len="86"/>
          <note pan="0" key="51" vol="104" pos="5376" len="43"/>
          <note pan="0" key="36" vol="104" pos="5376" len="86"/>
          <note pan="0" key="43" vol="104" pos="5376" len="86"/>
          <note pan="0" key="39" vol="104" pos="5376" len="86"/>
          <note pan="0" key="60" vol="97" pos="5424" len="43"/>
          <note pan="0" key="55" vol="106" pos="5472" len="43"/>
          <note pan="0" key="39" vol="106" pos="5472" len="86"/>
          <note pan="0" key="34" vol="106" pos="5472" len="86"/>
          <note pan="0" key="43" vol="106" pos="5472" len="86"/>
          <note pan="0" key="63" vol="98" pos="5520" len="43"/>
          <note pan="0" key="58" vol="107" pos="5568" len="43"/>
          <note pan="0" key="34" vol="107" pos="5568" len="86"/>
          <note pan="0" key="43" vol="107" pos="5568" len="86"/>
          <note pan="0" key="38" vol="107" pos="5568" len="86"/>
          <note pan="0" key="62" vol="100" pos="5616" len="43"/>
          <note pan="0" key="65" vol="109" pos="5664" len="21"/>
          <note pan="0" key="41" vol="109" pos="5664" len="86"/>
          <note pan="0" key="38" vol="109" pos="5664" len="86"/>
          <note pan="0" key="34" vol="109" pos="5664" len="86"/>
          <note pan="0" key="62" vol="98" pos="5688" len="21"/>
          <note pan="0" key="58" vol="102" pos="5712" len="43"/>
          <note pan="0" key="60" vol="112" pos="5760" len="43"/>
          <note pan="0" key="41" vol="112" pos="5760" len="86"/>
          <note pan="0" key="32" vol="112" pos="5760" len="86"/>
          <note pan="0" key="36" vol="112" pos="5760" len="86"/>
          <note pan="0" key="56" vol="104" pos="5808" len="43"/>
          <note pan="0" key="58" vol="113" pos="5856" len="43"/>
          <note pan="0" key="43" vol="113" pos="5856" len="86"/>
          <note pan="0" key="38" vol="113" pos="5856" len="86"/>
          <note pan="0" key="34" vol="113" pos="5856" len="86"/>
          <note pan="0" key="55" vol="106" pos="5904" len="43"/>
          <note pan="0" key="56" vol="115" pos="5952" len="43"/>
          <note pan="0" key="34" vol="115" pos="5952" len="86"/>
          <note pan="0" key="44" vol="115" pos="5952" len="86"/>
          <note pan="0" key="38" vol="115" pos="5952" len="86"/>
          <note pan="0" key="53" vol="108" pos="6000" len="43"/>
          <note pan="0" key="51" vol="117" pos="6048" len="21"/>
          <note pan="0" key="43" vol="117" pos="6048" len="86"/>
          <note pan="0" key="34" vol="117" pos="6048" len="86"/>
          <note pan="0" key="39" vol="117" pos="6048" len="86"/>
          <note pan="0" key="51" vol="105" pos="6072" len="21"/>
          <note pan="0" key="51" vol="109" pos="6096" len="43"/>
          <note pan="0" key="51" vol="100" pos="6144" len="43"/>
          <note pan="0" key="43" vol="89" pos="6144" len="86"/>
          <note pan="0" key="39" vol="89" pos="6144" len="86"/>
          <note pan="0" key="46" vol="89" pos="6144" len="86"/>
          <note pan="0" key="60" vol="93" pos="6192" len="14"/>
          <note pan="0" key="58" vol="87" pos="6208" len="14"/>
          <note pan="0" key="56" vol="87" pos="6224" len="14"/>
          <note pan="0" key="55" vol="100" pos="6240" len="43"/>
          <note pan="0" key="46" vol="89" pos="6240" len="86"/>
          <note pan="0" key="38" vol="89" pos="6240" len="86"/>
          <note pan="0" key="43" vol="89" pos="6240" len="86"/>
          <note pan="0" key="63" vol="93" pos="6288" len="14"/>
          <note pan="0" key="62" vol="87" pos="6304" len="14"/>
          <note pan="0" key="60" vol="87" pos="6320" len="14"/>
          <note pan="0" key="58" vol="100" pos="6336" len="43"/>
          <note pan="0" key="34" vol="89" pos="6336" len="86"/>
          <note pan="0" key="43" vol="89" pos="6336" len="86"/>
          <note pan="0" key="39" vol="89" pos="6336" len="86"/>
          <note pan="0" key="63" vol="93" pos="6384" len="43"/>
          <note pan="0" key="65" vol="100" pos="6432" len="21"/>
          <note pan="0" key="34" vol="89" pos="6432" len="43"/>
          <note pan="0" key="41" vol="89" pos="6432" len="43"/>
          <note pan="0" key="38" vol="89" pos="6432" len="43"/>
          <note pan="0" key="62" vol="90" pos="6456" len="21"/>
          <note pan="0" key="58" vol="93" pos="6480" len="43"/>
          <note pan="0" key="34" vol="83" pos="6480" len="43"/>
          <note pan="0" key="43" vol="83" pos="6480" len="43"/>
          <note pan="0" key="39" vol="83" pos="6480" len="43"/>
          <note pan="0" key="56" vol="100" pos="6528" len="43"/>
          <note pan="0" key="44" vol="89" pos="6528" len="86"/>
          <note pan="0" key="36" vol="89" pos="6528" len="86"/>
          <note pan="0" key="41" vol="89" pos="6528" len="86"/>
          <note pan="0" key="65" vol="93" pos="6576" len="14"/>
          <note pan="0" key="63" vol="87" pos="6592" len="14"/>
          <note pan="0" key="62" vol="87" pos="6608" len="14"/>
          <note pan="0" key="60" vol="100" pos="6624" len="43"/>
          <note pan="0" key="36" vol="89" pos="6624" len="86"/>
          <note pan="0" key="44" vol="89" pos="6624" len="86"/>
          <note pan="0" key="39" vol="89" pos="6624" len="86"/>
          <note pan="0" key="68" vol="93" pos="6672" len="14"/>
          <note pan="0" key="67" vol="87" pos="6688" len="14"/>
          <note pan="0" key="65" vol="87" pos="6704" len="14"/>
          <note pan="0" key="63" vol="100" pos="6720" len="43"/>
          <note pan="0" key="39" vol="89" pos="6720" len="86"/>
          <note pan="0" key="44" vol="89" pos="6720" len="86"/>
          <note pan="0" key="48" vol="89" pos="6720" len="86"/>
          <note pan="0" key="68" vol="93" pos="6768" len="43"/>
          <note pan="0" key="70" vol="100" pos="6816" len="21"/>
          <note pan="0" key="41" vol="89" pos="6816" len="43"/>
          <note pan="0" key="38" vol="89" pos="6816" len="43"/>
          <note pan="0" key="46" vol="89" pos="6816" len="43"/>
          <note pan="0" key="67" vol="90" pos="6840" len="21"/>
          <note pan="0" key="63" vol="93" pos="6864" len="43"/>
          <note pan="0" key="46" vol="83" pos="6864" len="43"/>
          <note pan="0" key="43" vol="83" pos="6864" len="43"/>
          <note pan="0" key="39" vol="83" pos="6864" len="43"/>
          <note pan="0" key="58" vol="100" pos="6912" len="14"/>
          <note pan="0" key="39" vol="89" pos="6912" len="43"/>
          <note pan="0" key="43" vol="89" pos="6912" len="43"/>
          <note pan="0" key="46" vol="89" pos="6912" len="43"/>
          <note pan="0" key="55" vol="87" pos="6928" len="14"/>
          <note pan="0" key="51" vol="87" pos="6944" len="14"/>
          <note pan="0" key="60" vol="93" pos="6960" len="14"/>
          <note pan="0" key="36" vol="83" pos="6960" len="43"/>
          <note pan="0" key="41" vol="83" pos="6960" len="43"/>
          <note pan="0" key="44" vol="83" pos="6960" len="43"/>
          <note pan="0" key="56" vol="87" pos="6976" len="14"/>
          <note pan="0" key="53" vol="87" pos="6992" len="14"/>
          <note pan="0" key="62" vol="100" pos="7008" len="14"/>
          <note pan="0" key="34" vol="89" pos="7008" len="43"/>
          <note pan="0" key="41" vol="89" pos="7008" len="43"/>
          <note pan="0" key="38" vol="89" pos="7008" len="43"/>
          <note pan="0" key="58" vol="87" pos="7024" len="14"/>
          <note pan="0" key="53" vol="87" pos="7040" len="14"/>
          <note pan="0" key="63" vol="93" pos="7056" len="14"/>
          <note pan="0" key="39" vol="83" pos="7056" len="43"/>
          <note pan="0" key="43" vol="83" pos="7056" len="43"/>
          <note pan="0" key="34" vol="83" pos="7056" len="43"/>
          <note pan="0" key="62" vol="87" pos="7072" len="14"/>
          <note pan="0" key="63" vol="87" pos="7088" len="59"/>
          <note pan="0" key="34" vol="89" pos="7104" len="43"/>
          <note pan="0" key="39" vol="89" pos="7104" len="43"/>
          <note pan="0" key="43" vol="89" pos="7104" len="43"/>
          <note pan="0" key="63" vol="93" pos="7152" len="14"/>
          <note pan="0" key="43" vol="83" pos="7152" len="43"/>
          <note pan="0" key="39" vol="83" pos="7152" len="43"/>
          <note pan="0" key="46" vol="83" pos="7152" len="43"/>
          <note pan="0" key="62" vol="87" pos="7168" len="14"/>
          <note pan="0" key="63" vol="87" pos="7184" len="14"/>
          <note pan="0" key="65" vol="100" pos="7200" len="14"/>
          <note pan="0" key="46" vol="89" pos="7200" len="43"/>
          <note pan="0" key="38" vol="89" pos="7200" len="43"/>
          <note pan="0" key="41" vol="89" pos="7200" len="43"/>
          <note pan="0" key="62" vol="87" pos="7216" len="14"/>
          <note pan="0" key="58" vol="87" pos="7232" len="14"/>
          <note pan="0" key="63" vol="93" pos="7248" len="14"/>
          <note pan="0" key="39" vol="83" pos="7248" len="43"/>
          <note pan="0" key="48" vol="83" pos="7248" len="43"/>
          <note pan="0" key="43" vol="83" pos="7248" len="43"/>
          <note pan="0" key="60" vol="87" pos="7264" len="14"/>
          <note pan="0" key="55" vol="87" pos="7280" len="14"/>
          <note pan="0" key="56" vol="100" pos="7296" len="14"/>
          <note pan="0" key="48" vol="89" pos="7296" len="43"/>
          <note pan="0" key="44" vol="89" pos="7296" len="43"/>
          <note pan="0" key="41" vol="89" pos="7296" len="43"/>
          <note pan="0" key="60" vol="87" pos="7312" len="14"/>
          <note pan="0" key="56" vol="87" pos="7328" len="14"/>
          <note pan="0" key="58" vol="93" pos="7344" len="14"/>
          <note pan="0" key="41" vol="83" pos="7344" len="43"/>
          <note pan="0" key="46" vol="83" pos="7344" len="43"/>
          <note pan="0" key="38" vol="83" pos="7344" len="43"/>
          <note pan="0" key="62" vol="87" pos="7360" len="14"/>
          <note pan="0" key="58" vol="87" pos="7376" len="14"/>
          <note pan="0" key="56" vol="100" pos="7392" len="14"/>
          <note pan="0" key="41" vol="89" pos="7392" len="43"/>
          <note pan="0" key="48" vol="89" pos="7392" len="43"/>
          <note pan="0" key="44" vol="89" pos="7392" len="43"/>
          <note pan="0" key="60" vol="87" pos="7408" len="14"/>
          <note pan="0" key="56" vol="87" pos="7424" len="14"/>
          <note pan="0" key="63" vol="93" pos="7440" len="14"/>
          <note pan="0" key="39" vol="83" pos="7440" len="43"/>
          <note pan="0" key="43" vol="83" pos="7440" len="43"/>
          <note pan="0" key="34" vol="83" pos="7440" len="43"/>
          <note pan="0" key="58" vol="87" pos="7456" len="14"/>
          <note pan="0" key="55" vol="87" pos="7472" len="14"/>
          <note pan="0" key="53" vol="100" pos="7488" len="14"/>
          <note pan="0" key="36" vol="89" pos="7488" len="43"/>
          <note pan="0" key="41" vol="89" pos="7488" len="43"/>
          <note pan="0" key="44" vol="89" pos="7488" len="43"/>
          <note pan="0" key="55" vol="87" pos="7504" len="14"/>
          <note pan="0" key="56" vol="87" pos="7520" len="14"/>
          <note pan="0" key="58" vol="93" pos="7536" len="14"/>
          <note pan="0" key="41" vol="83" pos="7536" len="43"/>
          <note pan="0" key="46" vol="83" pos="7536" len="43"/>
          <note pan="0" key="38" vol="83" pos="7536" len="43"/>
          <note pan="0" key="60" vol="87" pos="7552" len="14"/>
          <note pan="0" key="62" vol="87" pos="7568" len="14"/>
          <note pan="0" key="63" vol="127" pos="7584" len="14"/>
          <note pan="0" key="39" vol="127" pos="7584" len="86"/>
          <note pan="0" key="43" vol="127" pos="7584" len="86"/>
          <note pan="0" key="34" vol="127" pos="7584" len="86"/>
          <note pan="0" key="58" vol="113" pos="7600" len="14"/>
          <note pan="0" key="55" vol="113" pos="7616" len="59"/>
          <note pan="0" key="58" vol="67" pos="7680" len="10"/>
          <note pan="0" key="39" vol="67" pos="7680" len="86"/>
          <note pan="0" key="43" vol="67" pos="7680" len="86"/>
          <note pan="0" key="63" vol="58" pos="7692" len="10"/>
          <note pan="0" key="55" vol="61" pos="7704" len="10"/>
          <note pan="0" key="63" vol="60" pos="7716" len="10"/>
          <note pan="0" key="51" vol="65" pos="7728" len="10"/>
          <note pan="0" key="63" vol="62" pos="7740" len="10"/>
          <note pan="0" key="55" vol="64" pos="7752" len="10"/>
          <note pan="0" key="63" vol="63" pos="7764" len="10"/>
          <note pan="0" key="56" vol="73" pos="7776" len="10"/>
          <note pan="0" key="41" vol="73" pos="7776" len="43"/>
          <note pan="0" key="36" vol="73" pos="7776" len="43"/>
          <note pan="0" key="65" vol="65" pos="7788" len="10"/>
          <note pan="0" key="53" vol="68" pos="7800" len="10"/>
          <note pan="0" key="65" vol="66" pos="7812" len="10"/>
          <note pan="0" key="55" vol="71" pos="7824" len="10"/>
          <note pan="0" key="38" vol="71" pos="7824" len="43"/>
          <note pan="0" key="43" vol="71" pos="7824" len="43"/>
          <note pan="0" key="67" vol="68" pos="7836" len="10"/>
          <note pan="0" key="58" vol="71" pos="7848" len="10"/>
          <note pan="0" key="67" vol="70" pos="7860" len="10"/>
          <note pan="0" key="60" vol="80" pos="7872" len="10"/>
          <note pan="0" key="41" vol="80" pos="7872" len="86"/>
          <note pan="0" key="44" vol="80" pos="7872" len="86"/>
          <note pan="0" key="65" vol="71" pos="7884" len="10"/>
          <note pan="0" key="56" vol="74" pos="7896" len="10"/>
          <note pan="0" key="65" vol="72" pos="7908" len="10"/>
          <note pan="0" key="53" vol="79" pos="7920" len="10"/>
          <note pan="0" key="65" vol="73" pos="7932" len="10"/>
          <note pan="0" key="56" vol="77" pos="7944" len="10"/>
          <note pan="0" key="65" vol="75" pos="7956" len="10"/>
          <note pan="0" key="58" vol="88" pos="7968" len="10"/>
          <note pan="0" key="34" vol="88" pos="7968" len="43"/>
          <note pan="0" key="39" vol="88" pos="7968" len="43"/>
          <note pan="0" key="63" vol="77" pos="7980" len="10"/>
          <note pan="0" key="58" vol="80" pos="7992" len="10"/>
          <note pan="0" key="63" vol="78" pos="8004" len="10"/>
          <note pan="0" key="58" vol="85" pos="8016" len="10"/>
          <note pan="0" key="39" vol="85" pos="8016" len="43"/>
          <note pan="0" key="43" vol="85" pos="8016" len="43"/>
          <note pan="0" key="63" vol="80" pos="8028" len="10"/>
          <note pan="0" key="58" vol="84" pos="8040" len="10"/>
          <note pan="0" key="63" vol="81" pos="8052" len="10"/>
          <note pan="0" key="58" vol="95" pos="8064" len="10"/>
          <note pan="0" key="38" vol="95" pos="8064" len="86"/>
          <note pan="0" key="43" vol="95" pos="8064" len="86"/>
          <note pan="0" key="63" vol="83" pos="8076" len="10"/>
          <note pan="0" key="55" vol="87" pos="8088" len="10"/>
          <note pan="0" key="63" vol="85" pos="8100" len="10"/>
          <note pan="0" key="51" vol="91" pos="8112" len="10"/>
          <note pan="0" key="63" vol="86" pos="8124" len="10"/>
          <note pan="0" key="58" vol="90" pos="8136" len="10"/>
          <note pan="0" key="63" vol="88" pos="8148" len="10"/>
          <note pan="0" key="57" vol="103" pos="8160" len="10"/>
          <note pan="0" key="38" vol="103" pos="8160" len="86"/>
          <note pan="0" key="45" vol="103" pos="8160" len="86"/>
          <note pan="0" key="62" vol="89" pos="8172" len="10"/>
          <note pan="0" key="53" vol="93" pos="8184" len="10"/>
          <note pan="0" key="62" vol="91" pos="8196" len="10"/>
          <note pan="0" key="50" vol="98" pos="8208" len="10"/>
          <note pan="0" key="62" vol="93" pos="8220" len="10"/>
          <note pan="0" key="53" vol="96" pos="8232" len="10"/>
          <note pan="0" key="62" vol="94" pos="8244" len="10"/>
          <note pan="0" key="56" vol="109" pos="8256" len="10"/>
          <note pan="0" key="44" vol="109" pos="8256" len="86"/>
          <note pan="0" key="39" vol="109" pos="8256" len="86"/>
          <note pan="0" key="68" vol="96" pos="8268" len="10"/>
          <note pan="0" key="60" vol="100" pos="8280" len="10"/>
          <note pan="0" key="68" vol="96" pos="8292" len="10"/>
          <note pan="0" key="63" vol="105" pos="8304" len="10"/>
          <note pan="0" key="68" vol="98" pos="8316" len="10"/>
          <note pan="0" key="65" vol="103" pos="8328" len="10"/>
          <note pan="0" key="68" vol="100" pos="8340" len="10"/>
          <note pan="0" key="62" vol="117" pos="8352" len="10"/>
          <note pan="0" key="43" vol="117" pos="8352" len="43"/>
          <note pan="0" key="46" vol="117" pos="8352" len="43"/>
          <note pan="0" key="67" vol="101" pos="8364" len="10"/>
          <note pan="0" key="58" vol="105" pos="8376" len="10"/>
          <note pan="0" key="67" vol="101" pos="8388" len="10"/>
          <note pan="0" key="55" vol="127" pos="8400" len="10"/>
          <note pan="0" key="67" vol="127" pos="8400" len="10"/>
          <note pan="0" key="46" vol="127" pos="8400" len="43"/>
          <note pan="0" key="50" vol="127" pos="8400" len="43"/>
          <note pan="0" key="67" vol="117" pos="8448" len="32"/>
          <note pan="0" key="34" vol="89" pos="8448" len="278"/>
          <note pan="0" key="38" vol="89" pos="8448" len="278"/>
          <note pan="0" key="43" vol="89" pos="8448" len="278"/>
          <note pan="0" key="70" vol="101" pos="8484" len="10"/>
          <note pan="0" key="69" vol="109" pos="8496" len="21"/>
          <note pan="0" key="65" vol="105" pos="8520" len="21"/>
          <note pan="0" key="67" vol="117" pos="8544" len="21"/>
          <note pan="0" key="72" vol="105" pos="8568" len="21"/>
          <note pan="0" key="72" vol="109" pos="8592" len="43"/>
          <note pan="0" key="67" vol="117" pos="8640" len="32"/>
          <note pan="0" key="70" vol="101" pos="8676" len="10"/>
          <note pan="0" key="69" vol="109" pos="8688" len="21"/>
          <note pan="0" key="67" vol="105" pos="8712" len="21"/>
          <note pan="0" key="69" vol="117" pos="8736" len="21"/>
          <note pan="0" key="36" vol="89" pos="8736" len="86"/>
          <note pan="0" key="38" vol="89" pos="8736" len="86"/>
          <note pan="0" key="41" vol="89" pos="8736" len="86"/>
          <note pan="0" key="65" vol="105" pos="8760" len="21"/>
          <note pan="0" key="62" vol="109" pos="8784" len="43"/>
          <note pan="0" key="67" vol="117" pos="8832" len="32"/>
          <note pan="0" key="43" vol="89" pos="8832" len="235"/>
          <note pan="0" key="38" vol="89" pos="8832" len="235"/>
          <note pan="0" key="34" vol="89" pos="8832" len="235"/>
          <note pan="0" key="70" vol="101" pos="8868" len="10"/>
          <note pan="0" key="69" vol="109" pos="8880" len="21"/>
          <note pan="0" key="65" vol="105" pos="8904" len="21"/>
          <note pan="0" key="67" vol="117" pos="8928" len="21"/>
          <note pan="0" key="72" vol="105" pos="8952" len="21"/>
          <note pan="0" key="72" vol="109" pos="8976" len="43"/>
          <note pan="0" key="67" vol="117" pos="9024" len="32"/>
          <note pan="0" key="70" vol="101" pos="9060" len="10"/>
          <note pan="0" key="69" vol="109" pos="9072" len="21"/>
          <note pan="0" key="41" vol="83" pos="9072" len="43"/>
          <note pan="0" key="36" vol="83" pos="9072" len="43"/>
          <note pan="0" key="38" vol="83" pos="9072" len="43"/>
          <note pan="0" key="65" vol="105" pos="9096" len="21"/>
          <note pan="0" key="67" vol="117" pos="9120" len="13"/>
          <note pan="0" key="34" vol="89" pos="9120" len="13"/>
          <note pan="0" key="67" vol="105" pos="9144" len="13"/>
          <note pan="0" key="38" vol="80" pos="9144" len="13"/>
          <note pan="0" key="67" vol="109" pos="9168" len="26"/>
          <note pan="0" key="43" vol="83" pos="9168" len="26"/>
          <note pan="0" key="55" vol="117" pos="9216" len="32"/>
          <note pan="0" key="58" vol="101" pos="9252" len="10"/>
          <note pan="0" key="57" vol="109" pos="9264" len="21"/>
          <note pan="0" key="53" vol="105" pos="9288" len="21"/>
          <note pan="0" key="55" vol="117" pos="9312" len="13"/>
          <note pan="0" key="55" vol="105" pos="9336" len="13"/>
          <note pan="0" key="55" vol="109" pos="9360" len="26"/>
          <note pan="0" key="43" vol="89" pos="9408" len="32"/>
          <note pan="0" key="46" vol="77" pos="9444" len="10"/>
          <note pan="0" key="45" vol="83" pos="9456" len="21"/>
          <note pan="0" key="41" vol="80" pos="9480" len="21"/>
          <note pan="0" key="55" vol="117" pos="9504" len="13"/>
          <note pan="0" key="43" vol="89" pos="9504" len="13"/>
          <note pan="0" key="55" vol="105" pos="9528" len="13"/>
          <note pan="0" key="43" vol="80" pos="9528" len="13"/>
          <note pan="0" key="55" vol="109" pos="9552" len="43"/>
          <note pan="0" key="43" vol="83" pos="9552" len="43"/>
          <note pan="0" key="58" vol="67" pos="9600" len="64"/>
          <note pan="0" key="34" vol="67" pos="9600" len="182"/>
          <note pan="0" key="38" vol="67" pos="9600" len="182"/>
          <note pan="0" key="43" vol="67" pos="9600" len="182"/>
          <note pan="0" key="55" vol="61" pos="9672" len="21"/>
          <note pan="0" key="62" vol="68" pos="9696" len="43"/>
          <note pan="0" key="55" vol="64" pos="9744" len="43"/>
          <note pan="0" key="58" vol="70" pos="9792" len="64"/>
          <note pan="0" key="46" vol="70" pos="9792" len="182"/>
          <note pan="0" key="43" vol="70" pos="9792" len="182"/>
          <note pan="0" key="38" vol="70" pos="9792" len="182"/>
          <note pan="0" key="55" vol="64" pos="9864" len="21"/>
          <note pan="0" key="50" vol="72" pos="9888" len="43"/>
          <note pan="0" key="55" vol="67" pos="9936" len="43"/>
          <note pan="0" key="58" vol="73" pos="9984" len="64"/>
          <note pan="0" key="43" vol="73" pos="9984" len="182"/>
          <note pan="0" key="38" vol="73" pos="9984" len="182"/>
          <note pan="0" key="34" vol="73" pos="9984" len="182"/>
          <note pan="0" key="55" vol="67" pos="10056" len="21"/>
          <note pan="0" key="62" vol="76" pos="10080" len="43"/>
          <note pan="0" key="58" vol="71" pos="10128" len="43"/>
          <note pan="0" key="55" vol="78" pos="10176" len="64"/>
          <note pan="0" key="43" vol="78" pos="10176" len="86"/>
          <note pan="0" key="35" vol="78" pos="10176" len="86"/>
          <note pan="0" key="38" vol="78" pos="10176" len="86"/>
          <note pan="0" key="50" vol="71" pos="10248" len="21"/>
          <note pan="0" key="55" vol="79" pos="10272" len="43"/>
          <note pan="0" key="39" vol="79" pos="10272" len="86"/>
          <note pan="0" key="43" vol="79" pos="10272" len="86"/>
          <note pan="0" key="36" vol="79" pos="10272" len="86"/>
          <note pan="0" key="55" vol="74" pos="10320" len="43"/>
          <note pan="0" key="58" vol="81" pos="10368" len="64"/>
          <note pan="0" key="43" vol="81" pos="10368" len="182"/>
          <note pan="0" key="38" vol="81" pos="10368" len="182"/>
          <note pan="0" key="34" vol="81" pos="10368" len="182"/>
          <note pan="0" key="55" vol="74" pos="10440" len="21"/>
          <note pan="0" key="62" vol="84" pos="10464" len="43"/>
          <note pan="0" key="55" vol="78" pos="10512" len="43"/>
          <note pan="0" key="58" vol="85" pos="10560" len="64"/>
          <note pan="0" key="46" vol="85" pos="10560" len="182"/>
          <note pan="0" key="43" vol="85" pos="10560" len="182"/>
          <note pan="0" key="38" vol="85" pos="10560" len="182"/>
          <note pan="0" key="55" vol="77" pos="10632" len="21"/>
          <note pan="0" key="50" vol="87" pos="10656" len="43"/>
          <note pan="0" key="55" vol="82" pos="10704" len="43"/>
          <note pan="0" key="58" vol="89" pos="10752" len="64"/>
          <note pan="0" key="43" vol="89" pos="10752" len="182"/>
          <note pan="0" key="38" vol="89" pos="10752" len="182"/>
          <note pan="0" key="34" vol="89" pos="10752" len="182"/>
          <note pan="0" key="55" vol="81" pos="10824" len="21"/>
          <note pan="0" key="62" vol="90" pos="10848" len="43"/>
          <note pan="0" key="62" vol="85" pos="10896" len="43"/>
          <note pan="0" key="58" vol="92" pos="10944" len="64"/>
          <note pan="0" key="43" vol="127" pos="10944" len="374"/>
          <note pan="0" key="34" vol="127" pos="10944" len="374"/>
          <note pan="0" key="39" vol="127" pos="10944" len="374"/>
          <note pan="0" key="55" vol="84" pos="11016" len="21"/>
          <note pan="0" key="51" vol="95" pos="11040" len="43"/>
          <note pan="0" key="55" vol="88" pos="11088" len="43"/>
          <note pan="0" key="58" vol="96" pos="11136" len="64"/>
          <note pan="0" key="55" vol="87" pos="11208" len="21"/>
          <note pan="0" key="51" vol="98" pos="11232" len="43"/>
          <note pan="0" key="55" vol="92" pos="11280" len="43"/>
          <note pan="0" key="51" vol="100" pos="11328" len="64"/>
          <note pan="0" key="43" vol="100" pos="11328" len="182"/>
          <note pan="0" key="34" vol="100" pos="11328" len="182"/>
          <note pan="0" key="39" vol="100" pos="11328" len="182"/>
          <note pan="0" key="46" vol="91" pos="11400" len="21"/>
          <note pan="0" key="51" vol="101" pos="11424" len="86"/>
          <note pan="0" key="51" vol="104" pos="11520" len="43"/>
          <note pan="0" key="36" vol="104" pos="11520" len="86"/>
          <note pan="0" key="43" vol="104" pos="11520" len="86"/>
          <note pan="0" key="39" vol="104" pos="11520" len="86"/>
          <note pan="0" key="60" vol="97" pos="11568" len="43"/>
          <note pan="0" key="55" vol="106" pos="11616" len="43"/>
          <note pan="0" key="39" vol="106" pos="11616" len="86"/>
          <note pan="0" key="34" vol="106" pos="11616" len="86"/>
          <note pan="0" key="43" vol="106" pos="11616" len="86"/>
          <note pan="0" key="63" vol="98" pos="11664" len="43"/>
          <note pan="0" key="58" vol="107" pos="11712" len="43"/>
          <note pan="0" key="34" vol="107" pos="11712" len="86"/>
          <note pan="0" key="43" vol="107" pos="11712" len="86"/>
          <note pan="0" key="38" vol="107" pos="11712" len="86"/>
          <note pan="0" key="62" vol="100" pos="11760" len="43"/>
          <note pan="0" key="65" vol="109" pos="11808" len="21"/>
          <note pan="0" key="41" vol="109" pos="11808" len="86"/>
          <note pan="0" key="38" vol="109" pos="11808" len="86"/>
          <note pan="0" key="34" vol="109" pos="11808" len="86"/>
          <note pan="0" key="62" vol="98" pos="11832" len="21"/>
          <note pan="0" key="58" vol="102" pos="11856" len="43"/>
          <note pan="0" key="60" vol="112" pos="11904" len="43"/>
          <note pan="0" key="41" vol="112" pos="11904" len="86"/>
          <note pan="0" key="32" vol="112" pos="11904" len="86"/>
          <note pan="0" key="36" vol="112" pos="11904" len="86"/>
          <note pan="0" key="56" vol="104" pos="11952" len="43"/>
          <note pan="0" key="58" vol="113" pos="12000" len="43"/>
          <note pan="0" key="43" vol="113" pos="12000" len="86"/>
          <note pan="0" key="38" vol="113" pos="12000" len="86"/>
          <note pan="0" key="34" vol="113" pos="12000" len="86"/>
          <note pan="0" key="55" vol="106" pos="12048" len="43"/>
          <note pan="0" key="56" vol="115" pos="12096" len="43"/>
          <note pan="0" key="34" vol="115" pos="12096" len="86"/>
          <note pan="0" key="44" vol="115" pos="12096" len="86"/>
          <note pan="0" key="38" vol="115" pos="12096" len="86"/>
          <note pan="0" key="53" vol="108" pos="12144" len="43"/>
          <note pan="0" key="51" vol="117" pos="12192" len="21"/>
          <note pan="0" key="43" vol="117" pos="12192" len="86"/>
          <note pan="0" key="34" vol="117" pos="12192" len="86"/>
          <note pan="0" key="39" vol="117" pos="12192" len="86"/>
          <note pan="0" key="51" vol="105" pos="12216" len="21"/>
          <note pan="0" key="51" vol="109" pos="12240" len="43"/>
          <note pan="0" key="48" vol="67" pos="12288" len="43"/>
          <note pan="0" key="39" vol="67" pos="12288" len="374"/>
          <note pan="0" key="36" vol="67" pos="12288" len="374"/>
          <note pan="0" key="44" vol="67" pos="12288" len="374"/>
          <note pan="0" key="56" vol="65" pos="12336" len="43"/>
          <note pan="0" key="51" vol="73" pos="12384" len="43"/>
          <note pan="0" key="60" vol="71" pos="12432" len="43"/>
          <note pan="0" key="55" vol="80" pos="12480" len="43"/>
          <note pan="0" key="58" vol="79" pos="12528" len="43"/>
          <note pan="0" key="62" vol="88" pos="12576" len="21"/>
          <note pan="0" key="58" vol="80" pos="12600" len="21"/>
          <note pan="0" key="55" vol="85" pos="12624" len="43"/>
          <note pan="0" key="58" vol="95" pos="12672" len="43"/>
          <note pan="0" key="43" vol="95" pos="12672" len="86"/>
          <note pan="0" key="46" vol="95" pos="12672" len="86"/>
          <note pan="0" key="38" vol="95" pos="12672" len="86"/>
          <note pan="0" key="62" vol="91" pos="12720" len="43"/>
          <note pan="0" key="60" vol="103" pos="12768" len="43"/>
          <note pan="0" key="43" vol="103" pos="12768" len="86"/>
          <note pan="0" key="48" vol="103" pos="12768" len="86"/>
          <note pan="0" key="39" vol="103" pos="12768" len="86"/>
          <note pan="0" key="56" vol="98" pos="12816" len="43"/>
          <note pan="0" key="58" vol="109" pos="12864" len="43"/>
          <note pan="0" key="38" vol="109" pos="12864" len="86"/>
          <note pan="0" key="46" vol="109" pos="12864" len="86"/>
          <note pan="0" key="41" vol="109" pos="12864" len="86"/>
          <note pan="0" key="63" vol="105" pos="12912" len="43"/>
          <note pan="0" key="63" vol="117" pos="12960" len="43"/>
          <note pan="0" key="39" vol="117" pos="12960" len="86"/>
          <note pan="0" key="43" vol="117" pos="12960" len="86"/>
          <note pan="0" key="46" vol="117" pos="12960" len="86"/>
          <note pan="0" key="60" vol="101" pos="13032" len="21"/>
          <note pan="0" key="55" vol="112" pos="13056" len="64"/>
          <note pan="0" key="58" vol="112" pos="13056" len="64"/>
          <note pan="0" key="46" vol="112" pos="13056" len="86"/>
          <note pan="0" key="58" vol="97" pos="13128" len="21"/>
          <note pan="0" key="55" vol="97" pos="13128" len="21"/>
          <note pan="0" key="56" vol="107" pos="13152" len="64"/>
          <note pan="0" key="51" vol="107" pos="13152" len="64"/>
          <note pan="0" key="48" vol="107" pos="13152" len="86"/>
          <note pan="0" key="51" vol="92" pos="13224" len="21"/>
          <note pan="0" key="55" vol="92" pos="13224" len="21"/>
          <note pan="0" key="53" vol="101" pos="13248" len="86"/>
          <note pan="0" key="56" vol="101" pos="13248" len="86"/>
          <note pan="0" key="36" vol="101" pos="13248" len="86"/>
          <note pan="0" key="56" vol="83" pos="13416" len="21"/>
          <note pan="0" key="58" vol="91" pos="13440" len="64"/>
          <note pan="0" key="55" vol="91" pos="13440" len="64"/>
          <note pan="0" key="38" vol="91" pos="13440" len="86"/>
          <note pan="0" key="56" vol="79" pos="13512" len="21"/>
          <note pan="0" key="58" vol="79" pos="13512" len="21"/>
          <note pan="0" key="55" vol="87" pos="13536" len="64"/>
          <note pan="0" key="60" vol="87" pos="13536" len="64"/>
          <note pan="0" key="29" vol="87" pos="13536" len="86"/>
          <note pan="0" key="55" vol="74" pos="13608" len="21"/>
          <note pan="0" key="60" vol="74" pos="13608" len="21"/>
          <note pan="0" key="58" vol="81" pos="13632" len="86"/>
          <note pan="0" key="62" vol="81" pos="13632" len="86"/>
          <note pan="0" key="31" vol="81" pos="13632" len="86"/>
          <note pan="0" key="55" vol="65" pos="13800" len="21"/>
          <note pan="0" key="53" vol="71" pos="13824" len="64"/>
          <note pan="0" key="60" vol="71" pos="13824" len="64"/>
          <note pan="0" key="41" vol="71" pos="13824" len="86"/>
          <note pan="0" key="60" vol="61" pos="13896" len="21"/>
          <note pan="0" key="53" vol="61" pos="13896" len="21"/>
          <note pan="0" key="55" vol="67" pos="13920" len="64"/>
          <note pan="0" key="58" vol="67" pos="13920" len="64"/>
          <note pan="0" key="38" vol="67" pos="13920" len="86"/>
          <note pan="0" key="55" vol="60" pos="13992" len="21"/>
          <note pan="0" key="58" vol="60" pos="13992" len="21"/>
          <note pan="0" key="55" vol="117" pos="14016" len="86"/>
          <note pan="0" key="58" vol="117" pos="14016" len="86"/>
          <note pan="0" key="39" vol="117" pos="14016" len="86"/>
          <note pan="0" key="67" vol="117" pos="14112" len="32"/>
          <note pan="0" key="39" vol="117" pos="14112" len="43"/>
          <note pan="0" key="70" vol="101" pos="14148" len="10"/>
          <note pan="0" key="69" vol="109" pos="14160" len="21"/>
          <note pan="0" key="48" vol="109" pos="14160" len="14"/>
          <note pan="0" key="46" vol="101" pos="14176" len="14"/>
          <note pan="0" key="65" vol="105" pos="14184" len="21"/>
          <note pan="0" key="44" vol="101" pos="14192" len="14"/>
          <note pan="0" key="67" vol="117" pos="14208" len="21"/>
          <note pan="0" key="43" vol="117" pos="14208" len="43"/>
          <note pan="0" key="72" vol="105" pos="14232" len="21"/>
          <note pan="0" key="72" vol="109" pos="14256" len="43"/>
          <note pan="0" key="51" vol="109" pos="14256" len="14"/>
          <note pan="0" key="50" vol="101" pos="14272" len="14"/>
          <note pan="0" key="48" vol="101" pos="14288" len="14"/>
          <note pan="0" key="67" vol="117" pos="14304" len="32"/>
          <note pan="0" key="46" vol="117" pos="14304" len="43"/>
          <note pan="0" key="70" vol="101" pos="14340" len="10"/>
          <note pan="0" key="69" vol="109" pos="14352" len="21"/>
          <note pan="0" key="51" vol="109" pos="14352" len="43"/>
          <note pan="0" key="67" vol="105" pos="14376" len="21"/>
          <note pan="0" key="69" vol="117" pos="14400" len="21"/>
          <note pan="0" key="53" vol="117" pos="14400" len="21"/>
          <note pan="0" key="65" vol="105" pos="14424" len="21"/>
          <note pan="0" key="50" vol="105" pos="14424" len="21"/>
          <note pan="0" key="62" vol="109" pos="14448" len="43"/>
          <note pan="0" key="46" vol="109" pos="14448" len="43"/>
          <note pan="0" key="67" vol="117" pos="14496" len="32"/>
          <note pan="0" key="44" vol="117" pos="14496" len="43"/>
          <note pan="0" key="70" vol="101" pos="14532" len="10"/>
          <note pan="0" key="69" vol="109" pos="14544" len="21"/>
          <note pan="0" key="53" vol="109" pos="14544" len="14"/>
          <note pan="0" key="51" vol="101" pos="14560" len="14"/>
          <note pan="0" key="65" vol="105" pos="14568" len="21"/>
          <note pan="0" key="50" vol="101" pos="14576" len="14"/>
          <note pan="0" key="67" vol="117" pos="14592" len="21"/>
          <note pan="0" key="48" vol="117" pos="14592" len="43"/>
          <note pan="0" key="72" vol="105" pos="14616" len="21"/>
          <note pan="0" key="72" vol="109" pos="14640" len="43"/>
          <note pan="0" key="56" vol="109" pos="14640" len="14"/>
          <note pan="0" key="55" vol="101" pos="14656" len="14"/>
          <note pan="0" key="53" vol="101" pos="14672" len="14"/>
          <note pan="0" key="67" vol="117" pos="14688" len="32"/>
          <note pan="0" key="51" vol="117" pos="14688" len="43"/>
          <note pan="0" key="70" vol="101" pos="14724" len="10"/>
          <note pan="0" key="69" vol="109" pos="14736" len="21"/>
          <note pan="0" key="56" vol="109" pos="14736" len="43"/>
          <note pan="0" key="65" vol="105" pos="14760" len="21"/>
          <note pan="0" key="67" vol="117" pos="14784" len="21"/>
          <note pan="0" key="58" vol="117" pos="14784" len="21"/>
          <note pan="0" key="67" vol="105" pos="14808" len="21"/>
          <note pan="0" key="55" vol="105" pos="14808" len="21"/>
          <note pan="0" key="67" vol="109" pos="14832" len="43"/>
          <note pan="0" key="51" vol="109" pos="14832" len="43"/>
          <note pan="0" key="51" vol="100" pos="14880" len="43"/>
          <note pan="0" key="43" vol="89" pos="14880" len="86"/>
          <note pan="0" key="39" vol="89" pos="14880" len="86"/>
          <note pan="0" key="46" vol="89" pos="14880" len="86"/>
          <note pan="0" key="60" vol="93" pos="14928" len="14"/>
          <note pan="0" key="58" vol="87" pos="14944" len="14"/>
          <note pan="0" key="56" vol="87" pos="14960" len="14"/>
          <note pan="0" key="55" vol="100" pos="14976" len="43"/>
          <note pan="0" key="46" vol="89" pos="14976" len="86"/>
          <note pan="0" key="38" vol="89" pos="14976" len="86"/>
          <note pan="0" key="43" vol="89" pos="14976" len="86"/>
          <note pan="0" key="63" vol="93" pos="15024" len="14"/>
          <note pan="0" key="62" vol="87" pos="15040" len="14"/>
          <note pan="0" key="60" vol="87" pos="15056" len="14"/>
          <note pan="0" key="58" vol="100" pos="15072" len="43"/>
          <note pan="0" key="34" vol="89" pos="15072" len="86"/>
          <note pan="0" key="43" vol="89" pos="15072" len="86"/>
          <note pan="0" key="39" vol="89" pos="15072" len="86"/>
          <note pan="0" key="63" vol="93" pos="15120" len="43"/>
          <note pan="0" key="65" vol="100" pos="15168" len="21"/>
          <note pan="0" key="34" vol="89" pos="15168" len="43"/>
          <note pan="0" key="41" vol="89" pos="15168" len="43"/>
          <note pan="0" key="38" vol="89" pos="15168" len="43"/>
          <note pan="0" key="62" vol="90" pos="15192" len="21"/>
          <note pan="0" key="58" vol="93" pos="15216" len="43"/>
          <note pan="0" key="34" vol="83" pos="15216" len="43"/>
          <note pan="0" key="43" vol="83" pos="15216" len="43"/>
          <note pan="0" key="39" vol="83" pos="15216" len="43"/>
          <note pan="0" key="56" vol="100" pos="15264" len="43"/>
          <note pan="0" key="44" vol="89" pos="15264" len="86"/>
          <note pan="0" key="36" vol="89" pos="15264" len="86"/>
          <note pan="0" key="41" vol="89" pos="15264" len="86"/>
          <note pan="0" key="65" vol="93" pos="15312" len="14"/>
          <note pan="0" key="63" vol="87" pos="15328" len="14"/>
          <note pan="0" key="62" vol="87" pos="15344" len="14"/>
          <note pan="0" key="60" vol="100" pos="15360" len="43"/>
          <note pan="0" key="36" vol="89" pos="15360" len="86"/>
          <note pan="0" key="44" vol="89" pos="15360" len="86"/>
          <note pan="0" key="39" vol="89" pos="15360" len="86"/>
          <note pan="0" key="68" vol="93" pos="15408" len="14"/>
          <note pan="0" key="67" vol="87" pos="15424" len="14"/>
          <note pan="0" key="65" vol="87" pos="15440" len="14"/>
          <note pan="0" key="63" vol="100" pos="15456" len="43"/>
          <note pan="0" key="39" vol="89" pos="15456" len="86"/>
          <note pan="0" key="44" vol="89" pos="15456" len="86"/>
          <note pan="0" key="48" vol="89" pos="15456" len="86"/>
          <note pan="0" key="68" vol="93" pos="15504" len="43"/>
          <note pan="0" key="70" vol="100" pos="15552" len="21"/>
          <note pan="0" key="41" vol="89" pos="15552" len="43"/>
          <note pan="0" key="38" vol="89" pos="15552" len="43"/>
          <note pan="0" key="46" vol="89" pos="15552" len="43"/>
          <note pan="0" key="67" vol="90" pos="15576" len="21"/>
          <note pan="0" key="63" vol="93" pos="15600" len="43"/>
          <note pan="0" key="46" vol="83" pos="15600" len="43"/>
          <note pan="0" key="43" vol="83" pos="15600" len="43"/>
          <note pan="0" key="39" vol="83" pos="15600" len="43"/>
          <note pan="0" key="58" vol="100" pos="15648" len="14"/>
          <note pan="0" key="39" vol="89" pos="15648" len="43"/>
          <note pan="0" key="43" vol="89" pos="15648" len="43"/>
          <note pan="0" key="46" vol="89" pos="15648" len="43"/>
          <note pan="0" key="55" vol="87" pos="15664" len="14"/>
          <note pan="0" key="51" vol="87" pos="15680" len="14"/>
          <note pan="0" key="60" vol="93" pos="15696" len="14"/>
          <note pan="0" key="44" vol="83" pos="15696" len="43"/>
          <note pan="0" key="36" vol="83" pos="15696" len="43"/>
          <note pan="0" key="41" vol="83" pos="15696" len="43"/>
          <note pan="0" key="56" vol="87" pos="15712" len="14"/>
          <note pan="0" key="53" vol="87" pos="15728" len="14"/>
          <note pan="0" key="62" vol="100" pos="15744" len="14"/>
          <note pan="0" key="34" vol="89" pos="15744" len="43"/>
          <note pan="0" key="41" vol="89" pos="15744" len="43"/>
          <note pan="0" key="38" vol="89" pos="15744" len="43"/>
          <note pan="0" key="58" vol="87" pos="15760" len="14"/>
          <note pan="0" key="53" vol="87" pos="15776" len="14"/>
          <note pan="0" key="63" vol="93" pos="15792" len="14"/>
          <note pan="0" key="39" vol="83" pos="15792" len="43"/>
          <note pan="0" key="43" vol="83" pos="15792" len="43"/>
          <note pan="0" key="34" vol="83" pos="15792" len="43"/>
          <note pan="0" key="62" vol="87" pos="15808" len="14"/>
          <note pan="0" key="63" vol="87" pos="15824" len="59"/>
          <note pan="0" key="43" vol="89" pos="15840" len="43"/>
          <note pan="0" key="34" vol="89" pos="15840" len="43"/>
          <note pan="0" key="39" vol="89" pos="15840" len="43"/>
          <note pan="0" key="63" vol="93" pos="15888" len="14"/>
          <note pan="0" key="43" vol="83" pos="15888" len="43"/>
          <note pan="0" key="46" vol="83" pos="15888" len="43"/>
          <note pan="0" key="39" vol="83" pos="15888" len="43"/>
          <note pan="0" key="62" vol="87" pos="15904" len="14"/>
          <note pan="0" key="63" vol="87" pos="15920" len="14"/>
          <note pan="0" key="65" vol="100" pos="15936" len="14"/>
          <note pan="0" key="46" vol="89" pos="15936" len="43"/>
          <note pan="0" key="41" vol="89" pos="15936" len="43"/>
          <note pan="0" key="38" vol="89" pos="15936" len="43"/>
          <note pan="0" key="62" vol="87" pos="15952" len="14"/>
          <note pan="0" key="58" vol="87" pos="15968" len="14"/>
          <note pan="0" key="63" vol="93" pos="15984" len="14"/>
          <note pan="0" key="48" vol="83" pos="15984" len="43"/>
          <note pan="0" key="43" vol="83" pos="15984" len="43"/>
          <note pan="0" key="39" vol="83" pos="15984" len="43"/>
          <note pan="0" key="60" vol="87" pos="16000" len="14"/>
          <note pan="0" key="55" vol="87" pos="16016" len="14"/>
          <note pan="0" key="56" vol="100" pos="16032" len="14"/>
          <note pan="0" key="41" vol="89" pos="16032" len="43"/>
          <note pan="0" key="48" vol="89" pos="16032" len="43"/>
          <note pan="0" key="44" vol="89" pos="16032" len="43"/>
          <note pan="0" key="60" vol="87" pos="16048" len="14"/>
          <note pan="0" key="56" vol="87" pos="16064" len="14"/>
          <note pan="0" key="58" vol="93" pos="16080" len="14"/>
          <note pan="0" key="46" vol="83" pos="16080" len="43"/>
          <note pan="0" key="41" vol="83" pos="16080" len="43"/>
          <note pan="0" key="38" vol="83" pos="16080" len="43"/>
          <note pan="0" key="62" vol="87" pos="16096" len="14"/>
          <note pan="0" key="58" vol="87" pos="16112" len="14"/>
          <note pan="0" key="56" vol="100" pos="16128" len="14"/>
          <note pan="0" key="48" vol="89" pos="16128" len="43"/>
          <note pan="0" key="41" vol="89" pos="16128" len="43"/>
          <note pan="0" key="44" vol="89" pos="16128" len="43"/>
          <note pan="0" key="60" vol="87" pos="16144" len="14"/>
          <note pan="0" key="56" vol="87" pos="16160" len="14"/>
          <note pan="0" key="63" vol="93" pos="16176" len="14"/>
          <note pan="0" key="34" vol="83" pos="16176" len="43"/>
          <note pan="0" key="39" vol="83" pos="16176" len="43"/>
          <note pan="0" key="43" vol="83" pos="16176" len="43"/>
          <note pan="0" key="58" vol="87" pos="16192" len="14"/>
          <note pan="0" key="55" vol="87" pos="16208" len="14"/>
          <note pan="0" key="53" vol="100" pos="16224" len="14"/>
          <note pan="0" key="36" vol="89" pos="16224" len="43"/>
          <note pan="0" key="44" vol="89" pos="16224" len="43"/>
          <note pan="0" key="41" vol="89" pos="16224" len="43"/>
          <note pan="0" key="55" vol="87" pos="16240" len="14"/>
          <note pan="0" key="56" vol="87" pos="16256" len="14"/>
          <note pan="0" key="58" vol="93" pos="16272" len="14"/>
          <note pan="0" key="46" vol="83" pos="16272" len="43"/>
          <note pan="0" key="41" vol="83" pos="16272" len="43"/>
          <note pan="0" key="38" vol="83" pos="16272" len="43"/>
          <note pan="0" key="60" vol="87" pos="16288" len="14"/>
          <note pan="0" key="62" vol="87" pos="16304" len="14"/>
          <note pan="0" key="63" vol="127" pos="16320" len="14"/>
          <note pan="0" key="43" vol="127" pos="16320" len="86"/>
          <note pan="0" key="38" vol="127" pos="16320" len="86"/>
          <note pan="0" key="34" vol="127" pos="16320" len="86"/>
          <note pan="0" key="58" vol="113" pos="16336" len="14"/>
          <note pan="0" key="55" vol="113" pos="16352" len="59"/>
          <note pan="0" key="58" vol="67" pos="16416" len="10"/>
          <note pan="0" key="39" vol="67" pos="16416" len="86"/>
          <note pan="0" key="43" vol="67" pos="16416" len="86"/>
          <note pan="0" key="63" vol="58" pos="16428" len="10"/>
          <note pan="0" key="55" vol="61" pos="16440" len="10"/>
          <note pan="0" key="63" vol="60" pos="16452" len="10"/>
          <note pan="0" key="51" vol="65" pos="16464" len="10"/>
          <note pan="0" key="63" vol="62" pos="16476" len="10"/>
          <note pan="0" key="55" vol="64" pos="16488" len="10"/>
          <note pan="0" key="63" vol="63" pos="16500" len="10"/>
          <note pan="0" key="56" vol="73" pos="16512" len="10"/>
          <note pan="0" key="36" vol="73" pos="16512" len="43"/>
          <note pan="0" key="41" vol="73" pos="16512" len="43"/>
          <note pan="0" key="65" vol="65" pos="16524" len="10"/>
          <note pan="0" key="53" vol="68" pos="16536" len="10"/>
          <note pan="0" key="65" vol="66" pos="16548" len="10"/>
          <note pan="0" key="55" vol="71" pos="16560" len="10"/>
          <note pan="0" key="43" vol="71" pos="16560" len="43"/>
          <note pan="0" key="38" vol="71" pos="16560" len="43"/>
          <note pan="0" key="67" vol="68" pos="16572" len="10"/>
          <note pan="0" key="58" vol="71" pos="16584" len="10"/>
          <note pan="0" key="67" vol="70" pos="16596" len="10"/>
          <note pan="0" key="60" vol="80" pos="16608" len="10"/>
          <note pan="0" key="41" vol="80" pos="16608" len="86"/>
          <note pan="0" key="44" vol="80" pos="16608" len="86"/>
          <note pan="0" key="65" vol="71" pos="16620" len="10"/>
          <note pan="0" key="56" vol="74" pos="16632" len="10"/>
          <note pan="0" key="65" vol="72" pos="16644" len="10"/>
          <note pan="0" key="53" vol="79" pos="16656" len="10"/>
          <note pan="0" key="65" vol="73" pos="16668" len="10"/>
          <note pan="0" key="56" vol="77" pos="16680" len="10"/>
          <note pan="0" key="65" vol="75" pos="16692" len="10"/>
          <note pan="0" key="58" vol="88" pos="16704" len="10"/>
          <note pan="0" key="39" vol="88" pos="16704" len="43"/>
          <note pan="0" key="34" vol="88" pos="16704" len="43"/>
          <note pan="0" key="63" vol="77" pos="16716" len="10"/>
          <note pan="0" key="58" vol="80" pos="16728" len="10"/>
          <note pan="0" key="63" vol="78" pos="16740" len="10"/>
          <note pan="0" key="58" vol="85" pos="16752" len="10"/>
          <note pan="0" key="43" vol="85" pos="16752" len="43"/>
          <note pan="0" key="39" vol="85" pos="16752" len="43"/>
          <note pan="0" key="63" vol="80" pos="16764" len="10"/>
          <note pan="0" key="58" vol="84" pos="16776" len="10"/>
          <note pan="0" key="63" vol="81" pos="16788" len="10"/>
          <note pan="0" key="58" vol="95" pos="16800" len="10"/>
          <note pan="0" key="43" vol="95" pos="16800" len="86"/>
          <note pan="0" key="38" vol="95" pos="16800" len="86"/>
          <note pan="0" key="63" vol="83" pos="16812" len="10"/>
          <note pan="0" key="55" vol="87" pos="16824" len="10"/>
          <note pan="0" key="63" vol="85" pos="16836" len="10"/>
          <note pan="0" key="51" vol="91" pos="16848" len="10"/>
          <note pan="0" key="63" vol="86" pos="16860" len="10"/>
          <note pan="0" key="58" vol="90" pos="16872" len="10"/>
          <note pan="0" key="63" vol="88" pos="16884" len="10"/>
          <note pan="0" key="57" vol="103" pos="16896" len="10"/>
          <note pan="0" key="45" vol="103" pos="16896" len="86"/>
          <note pan="0" key="38" vol="103" pos="16896" len="86"/>
          <note pan="0" key="62" vol="89" pos="16908" len="10"/>
          <note pan="0" key="53" vol="93" pos="16920" len="10"/>
          <note pan="0" key="62" vol="91" pos="16932" len="10"/>
          <note pan="0" key="50" vol="98" pos="16944" len="10"/>
          <note pan="0" key="62" vol="93" pos="16956" len="10"/>
          <note pan="0" key="53" vol="96" pos="16968" len="10"/>
          <note pan="0" key="62" vol="94" pos="16980" len="10"/>
          <note pan="0" key="53" vol="109" pos="16992" len="10"/>
          <note pan="0" key="36" vol="109" pos="16992" len="86"/>
          <note pan="0" key="45" vol="109" pos="16992" len="86"/>
          <note pan="0" key="65" vol="96" pos="17004" len="10"/>
          <note pan="0" key="56" vol="100" pos="17016" len="10"/>
          <note pan="0" key="65" vol="96" pos="17028" len="10"/>
          <note pan="0" key="60" vol="105" pos="17040" len="10"/>
          <note pan="0" key="65" vol="98" pos="17052" len="10"/>
          <note pan="0" key="60" vol="103" pos="17064" len="10"/>
          <note pan="0" key="65" vol="100" pos="17076" len="10"/>
          <note pan="0" key="58" vol="117" pos="17088" len="10"/>
          <note pan="0" key="39" vol="117" pos="17088" len="43"/>
          <note pan="0" key="43" vol="117" pos="17088" len="43"/>
          <note pan="0" key="63" vol="101" pos="17100" len="10"/>
          <note pan="0" key="55" vol="105" pos="17112" len="10"/>
          <note pan="0" key="63" vol="101" pos="17124" len="10"/>
          <note pan="0" key="63" vol="127" pos="17136" len="10"/>
          <note pan="0" key="51" vol="127" pos="17136" len="10"/>
          <note pan="0" key="43" vol="127" pos="17136" len="43"/>
          <note pan="0" key="46" vol="127" pos="17136" len="43"/>
          <note pan="0" key="63" vol="117" pos="17184" len="32"/>
          <note pan="0" key="31" vol="89" pos="17184" len="278"/>
          <note pan="0" key="34" vol="89" pos="17184" len="278"/>
          <note pan="0" key="39" vol="89" pos="17184" len="278"/>
          <note pan="0" key="67" vol="101" pos="17220" len="10"/>
          <note pan="0" key="65" vol="109" pos="17232" len="21"/>
          <note pan="0" key="62" vol="105" pos="17256" len="21"/>
          <note pan="0" key="63" vol="117" pos="17280" len="21"/>
          <note pan="0" key="68" vol="105" pos="17304" len="21"/>
          <note pan="0" key="68" vol="109" pos="17328" len="43"/>
          <note pan="0" key="63" vol="117" pos="17376" len="32"/>
          <note pan="0" key="67" vol="101" pos="17412" len="10"/>
          <note pan="0" key="65" vol="109" pos="17424" len="21"/>
          <note pan="0" key="63" vol="105" pos="17448" len="21"/>
          <note pan="0" key="65" vol="117" pos="17472" len="21"/>
          <note pan="0" key="38" vol="89" pos="17472" len="86"/>
          <note pan="0" key="32" vol="89" pos="17472" len="86"/>
          <note pan="0" key="34" vol="89" pos="17472" len="86"/>
          <note pan="0" key="62" vol="105" pos="17496" len="21"/>
          <note pan="0" key="58" vol="109" pos="17520" len="43"/>
          <note pan="0" key="63" vol="117" pos="17568" len="32"/>
          <note pan="0" key="39" vol="89" pos="17568" len="235"/>
          <note pan="0" key="34" vol="89" pos="17568" len="235"/>
          <note pan="0" key="31" vol="89" pos="17568" len="235"/>
          <note pan="0" key="67" vol="101" pos="17604" len="10"/>
          <note pan="0" key="65" vol="109" pos="17616" len="21"/>
          <note pan="0" key="62" vol="105" pos="17640" len="21"/>
          <note pan="0" key="63" vol="117" pos="17664" len="21"/>
          <note pan="0" key="68" vol="105" pos="17688" len="21"/>
          <note pan="0" key="68" vol="109" pos="17712" len="43"/>
          <note pan="0" key="63" vol="117" pos="17760" len="32"/>
          <note pan="0" key="67" vol="101" pos="17796" len="10"/>
          <note pan="0" key="65" vol="109" pos="17808" len="21"/>
          <note pan="0" key="34" vol="83" pos="17808" len="43"/>
          <note pan="0" key="32" vol="83" pos="17808" len="43"/>
          <note pan="0" key="38" vol="83" pos="17808" len="43"/>
          <note pan="0" key="62" vol="105" pos="17832" len="21"/>
          <note pan="0" key="63" vol="117" pos="17856" len="13"/>
          <note pan="0" key="31" vol="89" pos="17856" len="13"/>
          <note pan="0" key="63" vol="105" pos="17880" len="13"/>
          <note pan="0" key="34" vol="80" pos="17880" len="13"/>
          <note pan="0" key="63" vol="109" pos="17904" len="26"/>
          <note pan="0" key="39" vol="83" pos="17904" len="26"/>
          <note pan="0" key="51" vol="117" pos="17952" len="32"/>
          <note pan="0" key="55" vol="101" pos="17988" len="10"/>
          <note pan="0" key="53" vol="109" pos="18000" len="21"/>
          <note pan="0" key="50" vol="105" pos="18024" len="21"/>
          <note pan="0" key="51" vol="117" pos="18048" len="13"/>
          <note pan="0" key="51" vol="105" pos="18072" len="13"/>
          <note pan="0" key="51" vol="109" pos="18096" len="26"/>
          <note pan="0" key="39" vol="89" pos="18144" len="32"/>
          <note pan="0" key="43" vol="77" pos="18180" len="10"/>
          <note pan="0" key="41" vol="83" pos="18192" len="21"/>
          <note pan="0" key="38" vol="80" pos="18216" len="21"/>
          <note pan="0" key="51" vol="117" pos="18240" len="13"/>
          <note pan="0" key="39" vol="89" pos="18240" len="13"/>
          <note pan="0" key="51" vol="105" pos="18264" len="13"/>
          <note pan="0" key="39" vol="80" pos="18264" len="13"/>
          <note pan="0" key="51" vol="109" pos="18288" len="43"/>
          <note pan="0" key="39" vol="83" pos="18288" len="43"/>
          <note pan="0" key="58" vol="67" pos="18336" len="64"/>
          <note pan="0" key="34" vol="67" pos="18336" len="182"/>
          <note pan="0" key="39" vol="67" pos="18336" len="182"/>
          <note pan="0" key="43" vol="67" pos="18336" len="182"/>
          <note pan="0" key="55" vol="61" pos="18408" len="21"/>
          <note pan="0" key="63" vol="68" pos="18432" len="43"/>
          <note pan="0" key="55" vol="64" pos="18480" len="43"/>
          <note pan="0" key="58" vol="70" pos="18528" len="64"/>
          <note pan="0" key="34" vol="70" pos="18528" len="182"/>
          <note pan="0" key="43" vol="70" pos="18528" len="182"/>
          <note pan="0" key="38" vol="70" pos="18528" len="182"/>
          <note pan="0" key="55" vol="64" pos="18600" len="21"/>
          <note pan="0" key="50" vol="72" pos="18624" len="43"/>
          <note pan="0" key="55" vol="67" pos="18672" len="43"/>
          <note pan="0" key="58" vol="73" pos="18720" len="64"/>
          <note pan="0" key="43" vol="73" pos="18720" len="182"/>
          <note pan="0" key="38" vol="73" pos="18720" len="182"/>
          <note pan="0" key="34" vol="73" pos="18720" len="182"/>
          <note pan="0" key="55" vol="67" pos="18792" len="21"/>
          <note pan="0" key="62" vol="76" pos="18816" len="43"/>
          <note pan="0" key="58" vol="71" pos="18864" len="43"/>
          <note pan="0" key="55" vol="78" pos="18912" len="64"/>
          <note pan="0" key="35" vol="78" pos="18912" len="86"/>
          <note pan="0" key="43" vol="78" pos="18912" len="86"/>
          <note pan="0" key="38" vol="78" pos="18912" len="86"/>
          <note pan="0" key="50" vol="71" pos="18984" len="21"/>
          <note pan="0" key="55" vol="79" pos="19008" len="43"/>
          <note pan="0" key="39" vol="79" pos="19008" len="86"/>
          <note pan="0" key="43" vol="79" pos="19008" len="86"/>
          <note pan="0" key="36" vol="79" pos="19008" len="86"/>
          <note pan="0" key="55" vol="74" pos="19056" len="43"/>
          <note pan="0" key="58" vol="81" pos="19104" len="64"/>
          <note pan="0" key="43" vol="81" pos="19104" len="182"/>
          <note pan="0" key="39" vol="81" pos="19104" len="182"/>
          <note pan="0" key="34" vol="81" pos="19104" len="182"/>
          <note pan="0" key="55" vol="74" pos="19176" len="21"/>
          <note pan="0" key="63" vol="84" pos="19200" len="43"/>
          <note pan="0" key="55" vol="78" pos="19248" len="43"/>
          <note pan="0" key="58" vol="85" pos="19296" len="64"/>
          <note pan="0" key="46" vol="85" pos="19296" len="182"/>
          <note pan="0" key="43" vol="85" pos="19296" len="182"/>
          <note pan="0" key="38" vol="85" pos="19296" len="182"/>
          <note pan="0" key="55" vol="77" pos="19368" len="21"/>
          <note pan="0" key="50" vol="87" pos="19392" len="43"/>
          <note pan="0" key="55" vol="82" pos="19440" len="43"/>
          <note pan="0" key="58" vol="89" pos="19488" len="64"/>
          <note pan="0" key="43" vol="89" pos="19488" len="182"/>
          <note pan="0" key="38" vol="89" pos="19488" len="182"/>
          <note pan="0" key="34" vol="89" pos="19488" len="182"/>
          <note pan="0" key="55" vol="81" pos="19560" len="21"/>
          <note pan="0" key="62" vol="90" pos="19584" len="43"/>
          <note pan="0" key="62" vol="85" pos="19632" len="43"/>
          <note pan="0" key="58" vol="92" pos="19680" len="64"/>
          <note pan="0" key="43" vol="127" pos="19680" len="374"/>
          <note pan="0" key="39" vol="127" pos="19680" len="374"/>
          <note pan="0" key="34" vol="127" pos="19680" len="374"/>
          <note pan="0" key="55" vol="84" pos="19752" len="21"/>
          <note pan="0" key="51" vol="95" pos="19776" len="43"/>
          <note pan="0" key="55" vol="88" pos="19824" len="43"/>
          <note pan="0" key="58" vol="96" pos="19872" len="64"/>
          <note pan="0" key="55" vol="87" pos="19944" len="21"/>
          <note pan="0" key="51" vol="98" pos="19968" len="43"/>
          <note pan="0" key="55" vol="92" pos="20016" len="43"/>
          <note pan="0" key="51" vol="100" pos="20064" len="64"/>
          <note pan="0" key="43" vol="100" pos="20064" len="182"/>
          <note pan="0" key="34" vol="100" pos="20064" len="182"/>
          <note pan="0" key="39" vol="100" pos="20064" len="182"/>
          <note pan="0" key="46" vol="91" pos="20136" len="21"/>
          <note pan="0" key="51" vol="101" pos="20160" len="86"/>
          <note pan="0" key="51" vol="104" pos="20256" len="43"/>
          <note pan="0" key="43" vol="104" pos="20256" len="86"/>
          <note pan="0" key="36" vol="104" pos="20256" len="86"/>
          <note pan="0" key="39" vol="104" pos="20256" len="86"/>
          <note pan="0" key="60" vol="97" pos="20304" len="43"/>
          <note pan="0" key="55" vol="106" pos="20352" len="43"/>
          <note pan="0" key="34" vol="106" pos="20352" len="86"/>
          <note pan="0" key="39" vol="106" pos="20352" len="86"/>
          <note pan="0" key="43" vol="106" pos="20352" len="86"/>
          <note pan="0" key="63" vol="98" pos="20400" len="43"/>
          <note pan="0" key="58" vol="107" pos="20448" len="43"/>
          <note pan="0" key="43" vol="107" pos="20448" len="86"/>
          <note pan="0" key="38" vol="107" pos="20448" len="86"/>
          <note pan="0" key="34" vol="107" pos="20448" len="86"/>
          <note pan="0" key="62" vol="100" pos="20496" len="43"/>
          <note pan="0" key="65" vol="109" pos="20544" len="21"/>
          <note pan="0" key="34" vol="109" pos="20544" len="86"/>
          <note pan="0" key="38" vol="109" pos="20544" len="86"/>
          <note pan="0" key="41" vol="109" pos="20544" len="86"/>
          <note pan="0" key="62" vol="98" pos="20568" len="21"/>
          <note pan="0" key="58" vol="102" pos="20592" len="43"/>
          <note pan="0" key="60" vol="112" pos="20640" len="43"/>
          <note pan="0" key="36" vol="112" pos="20640" len="86"/>
          <note pan="0" key="41" vol="112" pos="20640" len="86"/>
          <note pan="0" key="44" vol="112" pos="20640" len="86"/>
          <note pan="0" key="56" vol="104" pos="20688" len="43"/>
          <note pan="0" key="58" vol="113" pos="20736" len="43"/>
          <note pan="0" key="43" vol="113" pos="20736" len="86"/>
          <note pan="0" key="34" vol="113" pos="20736" len="86"/>
          <note pan="0" key="38" vol="113" pos="20736" len="86"/>
          <note pan="0" key="55" vol="106" pos="20784" len="43"/>
          <note pan="0" key="56" vol="115" pos="20832" len="43"/>
          <note pan="0" key="44" vol="115" pos="20832" len="86"/>
          <note pan="0" key="41" vol="115" pos="20832" len="86"/>
          <note pan="0" key="36" vol="115" pos="20832" len="86"/>
          <note pan="0" key="53" vol="108" pos="20880" len="43"/>
          <note pan="0" key="51" vol="117" pos="20928" len="21"/>
          <note pan="0" key="43" vol="117" pos="20928" len="86"/>
          <note pan="0" key="46" vol="117" pos="20928" len="86"/>
          <note pan="0" key="39" vol="117" pos="20928" len="86"/>
          <note pan="0" key="51" vol="105" pos="20952" len="21"/>
          <note pan="0" key="51" vol="109" pos="20976" len="43"/>
          <note pan="0" key="55" vol="127" pos="21024" len="86"/>
          <note pan="0" key="51" vol="127" pos="21024" len="86"/>
          <note pan="0" key="63" vol="127" pos="21024" len="86"/>
          <note pan="0" key="58" vol="127" pos="21024" len="86"/>
          <note pan="0" key="39" vol="127" pos="21024" len="86"/>
          <note pan="0" key="46" vol="127" pos="21024" len="86"/>
          <note pan="0" key="34" vol="127" pos="21024" len="86"/>
          <note pan="0" key="43" vol="127" pos="21024" len="86"/>
        </pattern>
      </track>
    </trackcontainer>
    <track muted="0" type="6" name="Automation track">
      <automationtrack/>
      <automationpattern name="Numerator" pos="0" len="96">
        <time value="2" pos="0"/>
        <object id="5379433"/>
      </automationpattern>
      <automationpattern name="Denominator" pos="0" len="96">
        <time value="4" pos="0"/>
        <object id="6999583"/>
      </automationpattern>
      <automationpattern name="Tempo" pos="0" len="21216">
        <time value="150" pos="0"/>
        <time value="140" pos="5760"/>
        <time value="130" pos="5856"/>
        <time value="120" pos="5952"/>
        <time value="110" pos="6048"/>
        <time value="150" pos="6144"/>
        <time value="140" pos="11904"/>
        <time value="130" pos="12000"/>
        <time value="120" pos="12096"/>
        <time value="110" pos="12192"/>
        <time value="150" pos="12288"/>
        <time value="135" pos="20640"/>
        <time value="120" pos="20736"/>
        <time value="105" pos="20832"/>
        <time value="90" pos="20928"/>
        <time value="150" pos="21120"/>
        <object id="7317731"/>
      </automationpattern>
      <automationpattern name="Master volume" pos="0" len="192">
        <time value="100" pos="0"/>
        <object id="1868044"/>
      </automationpattern>
      <automationpattern name="Master pitch" pos="0" len="192">
        <time value="0" pos="0"/>
        <object id="720945"/>
      </automationpattern>
    </track>
    <fxmixer width="865" x="5" y="310" maximized="0" height="278" visible="1" minimized="0">
      <fxchannel num="0" muted="0" volume="1" name="Master">
        <fxchain numofeffects="0" enabled="0"/>
      </fxchannel>
      <fxchannel num="1" muted="0" volume="1" name="FX 1">
        <fxchain numofeffects="0" enabled="0"/>
      </fxchannel>
      <fxchannel num="2" muted="0" volume="1" name="FX 2">
        <fxchain numofeffects="0" enabled="0"/>
      </fxchannel>
      <fxchannel num="3" muted="0" volume="1" name="FX 3">
        <fxchain numofeffects="0" enabled="0"/>
      </fxchannel>
      <fxchannel num="4" muted="0" volume="1" name="FX 4">
        <fxchain numofeffects="0" enabled="0"/>
      </fxchannel>
      <fxchannel num="5" muted="0" volume="1" name="FX 5">
        <fxchain numofeffects="0" enabled="0"/>
      </fxchannel>
      <fxchannel num="6" muted="0" volume="1" name="FX 6">
        <fxchain numofeffects="0" enabled="0"/>
      </fxchannel>
      <fxchannel num="7" muted="0" volume="1" name="FX 7">
        <fxchain numofeffects="0" enabled="0"/>
      </fxchannel>
      <fxchannel num="8" muted="0" volume="1" name="FX 8">
        <fxchain numofeffects="0" enabled="0"/>
      </fxchannel>
      <fxchannel num="9" muted="0" volume="1" name="FX 9">
        <fxchain numofeffects="0" enabled="0"/>
      </fxchannel>
      <fxchannel num="10" muted="0" volume="1" name="FX 10">
        <fxchain numofeffects="0" enabled="0"/>
      </fxchannel>
      <fxchannel num="11" muted="0" volume="1" name="FX 11">
        <fxchain numofeffects="0" enabled="0"/>
      </fxchannel>
      <fxchannel num="12" muted="0" volume="1" name="FX 12">
        <fxchain numofeffects="0" enabled="0"/>
      </fxchannel>
      <fxchannel num="13" muted="0" volume="1" name="FX 13">
        <fxchain numofeffects="0" enabled="0"/>
      </fxchannel>
      <fxchannel num="14" muted="0" volume="1" name="FX 14">
        <fxchain numofeffects="0" enabled="0"/>
      </fxchannel>
      <fxchannel num="15" muted="0" volume="1" name="FX 15">
        <fxchain numofeffects="0" enabled="0"/>
      </fxchannel>
      <fxchannel num="16" muted="0" volume="1" name="FX 16">
        <fxchain numofeffects="0" enabled="0"/>
      </fxchannel>
      <fxchannel num="17" muted="0" volume="1" name="FX 17">
        <fxchain numofeffects="0" enabled="0"/>
      </fxchannel>
      <fxchannel num="18" muted="0" volume="1" name="FX 18">
        <fxchain numofeffects="0" enabled="0"/>
      </fxchannel>
      <fxchannel num="19" muted="0" volume="1" name="FX 19">
        <fxchain numofeffects="0" enabled="0"/>
      </fxchannel>
      <fxchannel num="20" muted="0" volume="1" name="FX 20">
        <fxchain numofeffects="0" enabled="0"/>
      </fxchannel>
      <fxchannel num="21" muted="0" volume="1" name="FX 21">
        <fxchain numofeffects="0" enabled="0"/>
      </fxchannel>
      <fxchannel num="22" muted="0" volume="1" name="FX 22">
        <fxchain numofeffects="0" enabled="0"/>
      </fxchannel>
      <fxchannel num="23" muted="0" volume="1" name="FX 23">
        <fxchain numofeffects="0" enabled="0"/>
      </fxchannel>
      <fxchannel num="24" muted="0" volume="1" name="FX 24">
        <fxchain numofeffects="0" enabled="0"/>
      </fxchannel>
      <fxchannel num="25" muted="0" volume="1" name="FX 25">
        <fxchain numofeffects="0" enabled="0"/>
      </fxchannel>
      <fxchannel num="26" muted="0" volume="1" name="FX 26">
        <fxchain numofeffects="0" enabled="0"/>
      </fxchannel>
      <fxchannel num="27" muted="0" volume="1" name="FX 27">
        <fxchain numofeffects="0" enabled="0"/>
      </fxchannel>
      <fxchannel num="28" muted="0" volume="1" name="FX 28">
        <fxchain numofeffects="0" enabled="0"/>
      </fxchannel>
      <fxchannel num="29" muted="0" volume="1" name="FX 29">
        <fxchain numofeffects="0" enabled="0"/>
      </fxchannel>
      <fxchannel num="30" muted="0" volume="1" name="FX 30">
        <fxchain numofeffects="0" enabled="0"/>
      </fxchannel>
      <fxchannel num="31" muted="0" volume="1" name="FX 31">
        <fxchain numofeffects="0" enabled="0"/>
      </fxchannel>
      <fxchannel num="32" muted="0" volume="1" name="FX 32">
        <fxchain numofeffects="0" enabled="0"/>
      </fxchannel>
      <fxchannel num="33" muted="0" volume="1" name="FX 33">
        <fxchain numofeffects="0" enabled="0"/>
      </fxchannel>
      <fxchannel num="34" muted="0" volume="1" name="FX 34">
        <fxchain numofeffects="0" enabled="0"/>
      </fxchannel>
      <fxchannel num="35" muted="0" volume="1" name="FX 35">
        <fxchain numofeffects="0" enabled="0"/>
      </fxchannel>
      <fxchannel num="36" muted="0" volume="1" name="FX 36">
        <fxchain numofeffects="0" enabled="0"/>
      </fxchannel>
      <fxchannel num="37" muted="0" volume="1" name="FX 37">
        <fxchain numofeffects="0" enabled="0"/>
      </fxchannel>
      <fxchannel num="38" muted="0" volume="1" name="FX 38">
        <fxchain numofeffects="0" enabled="0"/>
      </fxchannel>
      <fxchannel num="39" muted="0" volume="1" name="FX 39">
        <fxchain numofeffects="0" enabled="0"/>
      </fxchannel>
      <fxchannel num="40" muted="0" volume="1" name="FX 40">
        <fxchain numofeffects="0" enabled="0"/>
      </fxchannel>
      <fxchannel num="41" muted="0" volume="1" name="FX 41">
        <fxchain numofeffects="0" enabled="0"/>
      </fxchannel>
      <fxchannel num="42" muted="0" volume="1" name="FX 42">
        <fxchain numofeffects="0" enabled="0"/>
      </fxchannel>
      <fxchannel num="43" muted="0" volume="1" name="FX 43">
        <fxchain numofeffects="0" enabled="0"/>
      </fxchannel>
      <fxchannel num="44" muted="0" volume="1" name="FX 44">
        <fxchain numofeffects="0" enabled="0"/>
      </fxchannel>
      <fxchannel num="45" muted="0" volume="1" name="FX 45">
        <fxchain numofeffects="0" enabled="0"/>
      </fxchannel>
      <fxchannel num="46" muted="0" volume="1" name="FX 46">
        <fxchain numofeffects="0" enabled="0"/>
      </fxchannel>
      <fxchannel num="47" muted="0" volume="1" name="FX 47">
        <fxchain numofeffects="0" enabled="0"/>
      </fxchannel>
      <fxchannel num="48" muted="0" volume="1" name="FX 48">
        <fxchain numofeffects="0" enabled="0"/>
      </fxchannel>
      <fxchannel num="49" muted="0" volume="1" name="FX 49">
        <fxchain numofeffects="0" enabled="0"/>
      </fxchannel>
      <fxchannel num="50" muted="0" volume="1" name="FX 50">
        <fxchain numofeffects="0" enabled="0"/>
      </fxchannel>
      <fxchannel num="51" muted="0" volume="1" name="FX 51">
        <fxchain numofeffects="0" enabled="0"/>
      </fxchannel>
      <fxchannel num="52" muted="0" volume="1" name="FX 52">
        <fxchain numofeffects="0" enabled="0"/>
      </fxchannel>
      <fxchannel num="53" muted="0" volume="1" name="FX 53">
        <fxchain numofeffects="0" enabled="0"/>
      </fxchannel>
      <fxchannel num="54" muted="0" volume="1" name="FX 54">
        <fxchain numofeffects="0" enabled="0"/>
      </fxchannel>
      <fxchannel num="55" muted="0" volume="1" name="FX 55">
        <fxchain numofeffects="0" enabled="0"/>
      </fxchannel>
      <fxchannel num="56" muted="0" volume="1" name="FX 56">
        <fxchain numofeffects="0" enabled="0"/>
      </fxchannel>
      <fxchannel num="57" muted="0" volume="1" name="FX 57">
        <fxchain numofeffects="0" enabled="0"/>
      </fxchannel>
      <fxchannel num="58" muted="0" volume="1" name="FX 58">
        <fxchain numofeffects="0" enabled="0"/>
      </fxchannel>
      <fxchannel num="59" muted="0" volume="1" name="FX 59">
        <fxchain numofeffects="0" enabled="0"/>
      </fxchannel>
      <fxchannel num="60" muted="0" volume="1" name="FX 60">
        <fxchain numofeffects="0" enabled="0"/>
      </fxchannel>
      <fxchannel num="61" muted="0" volume="1" name="FX 61">
        <fxchain numofeffects="0" enabled="0"/>
      </fxchannel>
      <fxchannel num="62" muted="0" volume="1" name="FX 62">
        <fxchain numofeffects="0" enabled="0"/>
      </fxchannel>
      <fxchannel num="63" muted="0" volume="1" name="FX 63">
        <fxchain numofeffects="0" enabled="0"/>
      </fxchannel>
      <fxchannel num="64" muted="0" volume="1" name="FX 64">
        <fxchain numofeffects="0" enabled="0"/>
      </fxchannel>
    </fxmixer>
    <ControllerRackView width="258" x="880" y="310" maximized="0" height="172" visible="1" minimized="0"/>
    <pianoroll width="1135" x="115" y="152" maximized="0" height="480" visible="0" minimized="0"/>
    <automationeditor width="740" x="510" y="152" maximized="0" height="480" visible="0" minimized="0"/>
    <projectnotes width="400" x="700" y="10" maximized="0" height="300" visible="0" minimized="0"><![CDATA[<!DOCTYPE HTML PUBLIC "-//W3C//DTD HTML 4.0//EN" "http://www.w3.org/TR/REC-html40/strict.dtd">
<html><head><meta name="qrichtext" content="1" /><style type="text/css">
p, li { white-space: pre-wrap; }
</style></head><body style=" font-family:'Sans Serif'; font-size:9pt; font-weight:400; font-style:normal;">
<p style=" margin-top:0px; margin-bottom:0px; margin-left:0px; margin-right:0px; -qt-block-indent:0; text-indent:0px;"><span style=" color:#e0e0e0;">Put down your project notes here.</span></p></body></html>]]></projectnotes>
    <timeline lp1pos="192" lp0pos="0" lpstate="0"/>
    <controllers/>
  </song>
</multimedia-project>
