<?xml version="1.0"?>
<!DOCTYPE multimedia-project>
<multimedia-project version="1.0" creator="Linux MultiMedia Studio (LMMS)" creatorversion="0.4.13" type="song">
  <head timesig_numerator="4" mastervol="100" timesig_denominator="4" masterpitch="0">
    <bpm value="160" id="110616"/>
  </head>
  <song>
    <trackcontainer width="600" x="5" y="5" maximized="0" height="300" visible="1" type="song" minimized="0">
      <track muted="0" type="0" name="Default preset">
        <instrumenttrack pan="0" fxch="0" pitch="0" basenote="57" vol="100">
          <instrument name="tripleoscillator">
            <tripleoscillator phoffset2="0" userwavefile0="" finer0="0" userwavefile1="" finer1="0" userwavefile2="" finer2="0" coarse0="0" coarse1="-12" coarse2="-24" finel0="0" finel1="0" modalgo1="2" modalgo2="2" finel2="0" pan0="0" modalgo3="2" pan1="0" stphdetun0="0" pan2="0" stphdetun1="0" wavetype0="0" stphdetun2="0" wavetype1="0" wavetype2="0" vol0="33" vol1="33" phoffset0="0" phoffset1="0" vol2="33"/>
          </instrument>
          <eldata fres="0.5" ftype="0" fcut="14000" fwet="0">
            <elvol lspd_denominator="4" pdel="0" userwavefile="" dec="0.5" lamt="0" syncmode="0" latt="0" rel="0.1" sus="0.5" amt="0" x100="0" att="0" lpdel="0" hold="0.5" lshp="0" lspd="0.1" ctlenvamt="0" lspd_numerator="4"/>
            <elcut lspd_denominator="4" pdel="0" userwavefile="" dec="0.5" lamt="0" syncmode="0" latt="0" rel="0.1" sus="0.5" amt="0" x100="0" att="0" lpdel="0" hold="0.5" lshp="0" lspd="0.1" ctlenvamt="0" lspd_numerator="4"/>
            <elres lspd_denominator="4" pdel="0" userwavefile="" dec="0.5" lamt="0" syncmode="0" latt="0" rel="0.1" sus="0.5" amt="0" x100="0" att="0" lpdel="0" hold="0.5" lshp="0" lspd="0.1" ctlenvamt="0" lspd_numerator="4"/>
          </eldata>
          <chordcreator chord="0" chordrange="1" chord-enabled="0"/>
          <arpeggiator arptime="100" arprange="1" arptime_denominator="4" syncmode="0" arpmode="0" arp-enabled="0" arp="0" arptime_numerator="4" arpdir="0" arpgate="100"/>
          <midiport inputcontroller="0" fixedoutputvelocity="-1" inputchannel="0" outputcontroller="0" writable="0" outputchannel="1" fixedinputvelocity="-1" outputprogram="1" readable="0"/>
          <fxchain numofeffects="0" enabled="0"/>
        </instrumenttrack>
      </track>
      <track muted="0" type="2" name="Sample track">
        <sampletrack vol="100">
          <fxchain numofeffects="0" enabled="0"/>
        </sampletrack>
      </track>
      <track muted="0" type="1" name="Beat/Bassline 0">
        <bbtrack>
          <trackcontainer width="504" x="610" y="5" maximized="0" height="300" visible="1" type="bbtrackcontainer" minimized="0">
            <track muted="0" type="0" name="Default preset">
              <instrumenttrack pan="0" fxch="0" pitch="0" basenote="57" vol="100">
                <instrument name="tripleoscillator">
                  <tripleoscillator phoffset2="0" userwavefile0="" finer0="0" userwavefile1="" finer1="0" userwavefile2="" finer2="0" coarse0="0" coarse1="-12" coarse2="-24" finel0="0" finel1="0" modalgo1="2" modalgo2="2" finel2="0" pan0="0" modalgo3="2" pan1="0" stphdetun0="0" pan2="0" stphdetun1="0" wavetype0="0" stphdetun2="0" wavetype1="0" wavetype2="0" vol0="33" vol1="33" phoffset0="0" phoffset1="0" vol2="33"/>
                </instrument>
                <eldata fres="0.5" ftype="0" fcut="14000" fwet="0">
                  <elvol lspd_denominator="4" pdel="0" userwavefile="" dec="0.5" lamt="0" syncmode="0" latt="0" rel="0.1" sus="0.5" amt="0" x100="0" att="0" lpdel="0" hold="0.5" lshp="0" lspd="0.1" ctlenvamt="0" lspd_numerator="4"/>
                  <elcut lspd_denominator="4" pdel="0" userwavefile="" dec="0.5" lamt="0" syncmode="0" latt="0" rel="0.1" sus="0.5" amt="0" x100="0" att="0" lpdel="0" hold="0.5" lshp="0" lspd="0.1" ctlenvamt="0" lspd_numerator="4"/>
                  <elres lspd_denominator="4" pdel="0" userwavefile="" dec="0.5" lamt="0" syncmode="0" latt="0" rel="0.1" sus="0.5" amt="0" x100="0" att="0" lpdel="0" hold="0.5" lshp="0" lspd="0.1" ctlenvamt="0" lspd_numerator="4"/>
                </eldata>
                <chordcreator chord="0" chordrange="1" chord-enabled="0"/>
                <arpeggiator arptime="100" arprange="1" arptime_denominator="4" syncmode="0" arpmode="0" arp-enabled="0" arp="0" arptime_numerator="4" arpdir="0" arpgate="100"/>
                <midiport inputcontroller="0" fixedoutputvelocity="-1" inputchannel="0" outputcontroller="0" writable="0" outputchannel="1" fixedinputvelocity="-1" outputprogram="1" readable="0"/>
                <fxchain numofeffects="0" enabled="0"/>
              </instrumenttrack>
              <pattern steps="16" muted="0" type="0" name="Default preset" pos="0" len="192" frozen="0"/>
            </track>
          </trackcontainer>
        </bbtrack>
      </track>
      <track muted="0" type="5" name="Automation track">
        <automationtrack/>
      </track>
      <track muted="0" type="0" name="Default preset">
        <instrumenttrack pan="0.8" fxch="0" pitch="0" basenote="57" vol="78.7">
          <instrument name="sf2player">
            <sf2player patch="0" chorusLevel="2" chorusDepth="8" reverbOn="0" reverbRoomSize="0.2" chorusOn="0" chorusSpeed="0.3" reverbDamping="0" chorusNum="3" reverbLevel="0.9" bank="0" reverbWidth="0.5" src="" gain="1"/>
          </instrument>
          <eldata fres="0.5" ftype="0" fcut="14000" fwet="0">
            <elvol lspd_denominator="4" pdel="0" userwavefile="" dec="0.5" lamt="0" syncmode="0" latt="0" rel="0.1" sus="0.5" amt="0" x100="0" att="0" lpdel="0" hold="0.5" lshp="0" lspd="0.1" ctlenvamt="0" lspd_numerator="4"/>
            <elcut lspd_denominator="4" pdel="0" userwavefile="" dec="0.5" lamt="0" syncmode="0" latt="0" rel="0.1" sus="0.5" amt="0" x100="0" att="0" lpdel="0" hold="0.5" lshp="0" lspd="0.1" ctlenvamt="0" lspd_numerator="4"/>
            <elres lspd_denominator="4" pdel="0" userwavefile="" dec="0.5" lamt="0" syncmode="0" latt="0" rel="0.1" sus="0.5" amt="0" x100="0" att="0" lpdel="0" hold="0.5" lshp="0" lspd="0.1" ctlenvamt="0" lspd_numerator="4"/>
          </eldata>
          <chordcreator chord="0" chordrange="1" chord-enabled="0"/>
          <arpeggiator arptime="100" arprange="1" arptime_denominator="4" syncmode="0" arpmode="0" arp-enabled="0" arp="0" arptime_numerator="4" arpdir="0" arpgate="100"/>
          <midiport inputcontroller="0" fixedoutputvelocity="-1" inputchannel="0" outputcontroller="0" writable="0" outputchannel="1" fixedinputvelocity="-1" outputprogram="1" readable="0"/>
          <fxchain numofeffects="0" enabled="0"/>
        </instrumenttrack>
        <pattern steps="16" muted="0" type="1" name="Default preset" pos="0" len="41856" frozen="0">
          <note pan="0" key="45" vol="93" pos="144" len="43"/>
          <note pan="0" key="48" vol="100" pos="192" len="64"/>
          <note pan="0" key="33" vol="67" pos="192" len="43"/>
          <note pan="0" key="36" vol="67" pos="192" len="43"/>
          <note pan="0" key="40" vol="67" pos="192" len="43"/>
          <note pan="0" key="33" vol="62" pos="240" len="43"/>
          <note pan="0" key="36" vol="62" pos="240" len="43"/>
          <note pan="0" key="50" vol="90" pos="264" len="21"/>
          <note pan="0" key="52" vol="97" pos="288" len="43"/>
          <note pan="0" key="40" vol="64" pos="288" len="43"/>
          <note pan="0" key="33" vol="64" pos="288" len="43"/>
          <note pan="0" key="45" vol="93" pos="336" len="43"/>
          <note pan="0" key="33" vol="62" pos="336" len="43"/>
          <note pan="0" key="36" vol="62" pos="336" len="43"/>
          <note pan="0" key="48" vol="100" pos="384" len="64"/>
          <note pan="0" key="33" vol="67" pos="384" len="43"/>
          <note pan="0" key="40" vol="67" pos="384" len="43"/>
          <note pan="0" key="36" vol="67" pos="384" len="43"/>
          <note pan="0" key="36" vol="62" pos="432" len="43"/>
          <note pan="0" key="33" vol="62" pos="432" len="43"/>
          <note pan="0" key="50" vol="90" pos="456" len="21"/>
          <note pan="0" key="52" vol="97" pos="480" len="43"/>
          <note pan="0" key="33" vol="64" pos="480" len="43"/>
          <note pan="0" key="40" vol="64" pos="480" len="43"/>
          <note pan="0" key="45" vol="93" pos="528" len="43"/>
          <note pan="0" key="36" vol="62" pos="528" len="43"/>
          <note pan="0" key="33" vol="62" pos="528" len="43"/>
          <note pan="0" key="48" vol="100" pos="576" len="64"/>
          <note pan="0" key="40" vol="67" pos="576" len="43"/>
          <note pan="0" key="36" vol="67" pos="576" len="43"/>
          <note pan="0" key="33" vol="67" pos="576" len="43"/>
          <note pan="0" key="33" vol="78" pos="624" len="43"/>
          <note pan="0" key="36" vol="78" pos="624" len="43"/>
          <note pan="0" key="50" vol="90" pos="648" len="21"/>
          <note pan="0" key="52" vol="97" pos="672" len="43"/>
          <note pan="0" key="37" vol="98" pos="672" len="43"/>
          <note pan="0" key="43" vol="98" pos="672" len="43"/>
          <note pan="0" key="33" vol="98" pos="672" len="43"/>
          <note pan="0" key="53" vol="93" pos="720" len="43"/>
          <note pan="0" key="33" vol="109" pos="720" len="43"/>
          <note pan="0" key="41" vol="109" pos="720" len="43"/>
          <note pan="0" key="38" vol="109" pos="720" len="43"/>
          <note pan="0" key="52" vol="100" pos="768" len="43"/>
          <note pan="0" key="35" vol="117" pos="768" len="43"/>
          <note pan="0" key="38" vol="117" pos="768" len="43"/>
          <note pan="0" key="32" vol="117" pos="768" len="43"/>
          <note pan="0" key="50" vol="93" pos="816" len="43"/>
          <note pan="0" key="38" vol="92" pos="816" len="43"/>
          <note pan="0" key="40" vol="92" pos="816" len="43"/>
          <note pan="0" key="35" vol="92" pos="816" len="43"/>
          <note pan="0" key="48" vol="97" pos="864" len="43"/>
          <note pan="0" key="33" vol="78" pos="864" len="43"/>
          <note pan="0" key="36" vol="78" pos="864" len="43"/>
          <note pan="0" key="40" vol="78" pos="864" len="43"/>
          <note pan="0" key="45" vol="93" pos="912" len="43"/>
          <note pan="0" key="33" vol="62" pos="912" len="43"/>
          <note pan="0" key="36" vol="62" pos="912" len="43"/>
          <note pan="0" key="48" vol="100" pos="960" len="64"/>
          <note pan="0" key="33" vol="67" pos="960" len="43"/>
          <note pan="0" key="40" vol="67" pos="960" len="43"/>
          <note pan="0" key="36" vol="67" pos="960" len="43"/>
          <note pan="0" key="33" vol="62" pos="1008" len="43"/>
          <note pan="0" key="36" vol="62" pos="1008" len="43"/>
          <note pan="0" key="50" vol="90" pos="1032" len="21"/>
          <note pan="0" key="52" vol="97" pos="1056" len="43"/>
          <note pan="0" key="33" vol="64" pos="1056" len="43"/>
          <note pan="0" key="40" vol="64" pos="1056" len="43"/>
          <note pan="0" key="45" vol="93" pos="1104" len="43"/>
          <note pan="0" key="33" vol="62" pos="1104" len="43"/>
          <note pan="0" key="36" vol="62" pos="1104" len="43"/>
          <note pan="0" key="48" vol="100" pos="1152" len="64"/>
          <note pan="0" key="33" vol="67" pos="1152" len="43"/>
          <note pan="0" key="36" vol="67" pos="1152" len="43"/>
          <note pan="0" key="40" vol="67" pos="1152" len="43"/>
          <note pan="0" key="33" vol="62" pos="1200" len="43"/>
          <note pan="0" key="36" vol="62" pos="1200" len="43"/>
          <note pan="0" key="50" vol="90" pos="1224" len="21"/>
          <note pan="0" key="52" vol="97" pos="1248" len="43"/>
          <note pan="0" key="33" vol="64" pos="1248" len="43"/>
          <note pan="0" key="40" vol="64" pos="1248" len="43"/>
          <note pan="0" key="45" vol="93" pos="1296" len="43"/>
          <note pan="0" key="36" vol="62" pos="1296" len="43"/>
          <note pan="0" key="33" vol="62" pos="1296" len="43"/>
          <note pan="0" key="48" vol="100" pos="1344" len="64"/>
          <note pan="0" key="33" vol="67" pos="1344" len="43"/>
          <note pan="0" key="36" vol="67" pos="1344" len="43"/>
          <note pan="0" key="40" vol="67" pos="1344" len="43"/>
          <note pan="0" key="36" vol="78" pos="1392" len="43"/>
          <note pan="0" key="33" vol="78" pos="1392" len="43"/>
          <note pan="0" key="50" vol="90" pos="1416" len="21"/>
          <note pan="0" key="52" vol="97" pos="1440" len="43"/>
          <note pan="0" key="37" vol="98" pos="1440" len="43"/>
          <note pan="0" key="33" vol="98" pos="1440" len="43"/>
          <note pan="0" key="43" vol="98" pos="1440" len="43"/>
          <note pan="0" key="50" vol="93" pos="1488" len="43"/>
          <note pan="0" key="41" vol="109" pos="1488" len="43"/>
          <note pan="0" key="38" vol="109" pos="1488" len="43"/>
          <note pan="0" key="33" vol="109" pos="1488" len="43"/>
          <note pan="0" key="48" vol="100" pos="1536" len="43"/>
          <note pan="0" key="45" vol="117" pos="1536" len="43"/>
          <note pan="0" key="40" vol="117" pos="1536" len="43"/>
          <note pan="0" key="36" vol="117" pos="1536" len="43"/>
          <note pan="0" key="47" vol="93" pos="1584" len="43"/>
          <note pan="0" key="40" vol="105" pos="1584" len="43"/>
          <note pan="0" key="32" vol="105" pos="1584" len="43"/>
          <note pan="0" key="35" vol="105" pos="1584" len="43"/>
          <note pan="0" key="45" vol="97" pos="1632" len="182"/>
          <note pan="0" key="33" vol="104" pos="1632" len="182"/>
          <note pan="0" key="36" vol="104" pos="1632" len="182"/>
          <note pan="0" key="40" vol="104" pos="1632" len="182"/>
          <note pan="0" key="53" vol="97" pos="1824" len="43"/>
          <note pan="0" key="33" vol="97" pos="1824" len="43"/>
          <note pan="0" key="41" vol="97" pos="1824" len="43"/>
          <note pan="0" key="38" vol="97" pos="1824" len="43"/>
          <note pan="0" key="52" vol="93" pos="1872" len="43"/>
          <note pan="0" key="38" vol="93" pos="1872" len="43"/>
          <note pan="0" key="33" vol="93" pos="1872" len="43"/>
          <note pan="0" key="50" vol="100" pos="1920" len="43"/>
          <note pan="0" key="40" vol="100" pos="1920" len="43"/>
          <note pan="0" key="36" vol="100" pos="1920" len="43"/>
          <note pan="0" key="33" vol="100" pos="1920" len="43"/>
          <note pan="0" key="48" vol="93" pos="1968" len="43"/>
          <note pan="0" key="40" vol="93" pos="1968" len="43"/>
          <note pan="0" key="36" vol="93" pos="1968" len="43"/>
          <note pan="0" key="38" vol="93" pos="1968" len="43"/>
          <note pan="0" key="33" vol="93" pos="1968" len="43"/>
          <note pan="0" key="47" vol="97" pos="2016" len="172"/>
          <note pan="0" key="40" vol="97" pos="2016" len="172"/>
          <note pan="0" key="32" vol="97" pos="2016" len="172"/>
          <note pan="0" key="38" vol="97" pos="2016" len="172"/>
          <note pan="0" key="55" vol="97" pos="2208" len="43"/>
          <note pan="0" key="40" vol="97" pos="2208" len="43"/>
          <note pan="0" key="37" vol="97" pos="2208" len="43"/>
          <note pan="0" key="33" vol="97" pos="2208" len="43"/>
          <note pan="0" key="53" vol="93" pos="2256" len="43"/>
          <note pan="0" key="37" vol="93" pos="2256" len="43"/>
          <note pan="0" key="33" vol="93" pos="2256" len="43"/>
          <note pan="0" key="52" vol="100" pos="2304" len="43"/>
          <note pan="0" key="40" vol="100" pos="2304" len="43"/>
          <note pan="0" key="44" vol="100" pos="2304" len="43"/>
          <note pan="0" key="35" vol="100" pos="2304" len="43"/>
          <note pan="0" key="50" vol="93" pos="2352" len="43"/>
          <note pan="0" key="40" vol="93" pos="2352" len="43"/>
          <note pan="0" key="35" vol="93" pos="2352" len="43"/>
          <note pan="0" key="48" vol="97" pos="2400" len="43"/>
          <note pan="0" key="33" vol="97" pos="2400" len="43"/>
          <note pan="0" key="40" vol="97" pos="2400" len="43"/>
          <note pan="0" key="50" vol="93" pos="2448" len="43"/>
          <note pan="0" key="38" vol="93" pos="2448" len="43"/>
          <note pan="0" key="33" vol="93" pos="2448" len="43"/>
          <note pan="0" key="41" vol="93" pos="2448" len="43"/>
          <note pan="0" key="52" vol="100" pos="2496" len="43"/>
          <note pan="0" key="33" vol="100" pos="2496" len="43"/>
          <note pan="0" key="40" vol="100" pos="2496" len="43"/>
          <note pan="0" key="36" vol="100" pos="2496" len="43"/>
          <note pan="0" key="53" vol="93" pos="2544" len="43"/>
          <note pan="0" key="33" vol="82" pos="2544" len="43"/>
          <note pan="0" key="38" vol="82" pos="2544" len="43"/>
          <note pan="0" key="52" vol="97" pos="2592" len="43"/>
          <note pan="0" key="37" vol="74" pos="2592" len="43"/>
          <note pan="0" key="33" vol="74" pos="2592" len="43"/>
          <note pan="0" key="40" vol="74" pos="2592" len="43"/>
          <note pan="0" key="50" vol="93" pos="2640" len="43"/>
          <note pan="0" key="33" vol="62" pos="2640" len="43"/>
          <note pan="0" key="38" vol="62" pos="2640" len="43"/>
          <note pan="0" key="41" vol="62" pos="2640" len="43"/>
          <note pan="0" key="53" vol="100" pos="2688" len="64"/>
          <note pan="0" key="45" vol="67" pos="2688" len="43"/>
          <note pan="0" key="38" vol="67" pos="2688" len="43"/>
          <note pan="0" key="41" vol="67" pos="2688" len="43"/>
          <note pan="0" key="38" vol="62" pos="2736" len="43"/>
          <note pan="0" key="41" vol="62" pos="2736" len="43"/>
          <note pan="0" key="55" vol="90" pos="2760" len="21"/>
          <note pan="0" key="57" vol="97" pos="2784" len="43"/>
          <note pan="0" key="38" vol="64" pos="2784" len="43"/>
          <note pan="0" key="45" vol="64" pos="2784" len="43"/>
          <note pan="0" key="50" vol="93" pos="2832" len="43"/>
          <note pan="0" key="41" vol="62" pos="2832" len="43"/>
          <note pan="0" key="38" vol="62" pos="2832" len="43"/>
          <note pan="0" key="53" vol="100" pos="2880" len="64"/>
          <note pan="0" key="38" vol="67" pos="2880" len="43"/>
          <note pan="0" key="41" vol="67" pos="2880" len="43"/>
          <note pan="0" key="45" vol="67" pos="2880" len="43"/>
          <note pan="0" key="41" vol="62" pos="2928" len="43"/>
          <note pan="0" key="38" vol="62" pos="2928" len="43"/>
          <note pan="0" key="55" vol="90" pos="2952" len="21"/>
          <note pan="0" key="57" vol="97" pos="2976" len="43"/>
          <note pan="0" key="38" vol="64" pos="2976" len="43"/>
          <note pan="0" key="45" vol="64" pos="2976" len="43"/>
          <note pan="0" key="50" vol="93" pos="3024" len="43"/>
          <note pan="0" key="38" vol="62" pos="3024" len="43"/>
          <note pan="0" key="41" vol="62" pos="3024" len="43"/>
          <note pan="0" key="53" vol="100" pos="3072" len="64"/>
          <note pan="0" key="41" vol="67" pos="3072" len="43"/>
          <note pan="0" key="45" vol="67" pos="3072" len="43"/>
          <note pan="0" key="38" vol="67" pos="3072" len="43"/>
          <note pan="0" key="38" vol="78" pos="3120" len="43"/>
          <note pan="0" key="41" vol="78" pos="3120" len="43"/>
          <note pan="0" key="55" vol="90" pos="3144" len="21"/>
          <note pan="0" key="57" vol="97" pos="3168" len="43"/>
          <note pan="0" key="38" vol="98" pos="3168" len="43"/>
          <note pan="0" key="42" vol="98" pos="3168" len="43"/>
          <note pan="0" key="48" vol="98" pos="3168" len="43"/>
          <note pan="0" key="58" vol="93" pos="3216" len="43"/>
          <note pan="0" key="46" vol="109" pos="3216" len="43"/>
          <note pan="0" key="38" vol="109" pos="3216" len="43"/>
          <note pan="0" key="43" vol="109" pos="3216" len="43"/>
          <note pan="0" key="57" vol="100" pos="3264" len="43"/>
          <note pan="0" key="43" vol="117" pos="3264" len="43"/>
          <note pan="0" key="40" vol="117" pos="3264" len="43"/>
          <note pan="0" key="37" vol="117" pos="3264" len="43"/>
          <note pan="0" key="55" vol="93" pos="3312" len="43"/>
          <note pan="0" key="45" vol="92" pos="3312" len="43"/>
          <note pan="0" key="43" vol="92" pos="3312" len="43"/>
          <note pan="0" key="40" vol="92" pos="3312" len="43"/>
          <note pan="0" key="53" vol="97" pos="3360" len="43"/>
          <note pan="0" key="45" vol="78" pos="3360" len="43"/>
          <note pan="0" key="41" vol="78" pos="3360" len="43"/>
          <note pan="0" key="38" vol="78" pos="3360" len="43"/>
          <note pan="0" key="50" vol="93" pos="3408" len="43"/>
          <note pan="0" key="38" vol="62" pos="3408" len="43"/>
          <note pan="0" key="41" vol="62" pos="3408" len="43"/>
          <note pan="0" key="53" vol="100" pos="3456" len="64"/>
          <note pan="0" key="45" vol="67" pos="3456" len="43"/>
          <note pan="0" key="38" vol="67" pos="3456" len="43"/>
          <note pan="0" key="41" vol="67" pos="3456" len="43"/>
          <note pan="0" key="38" vol="62" pos="3504" len="43"/>
          <note pan="0" key="41" vol="62" pos="3504" len="43"/>
          <note pan="0" key="55" vol="90" pos="3528" len="21"/>
          <note pan="0" key="57" vol="97" pos="3552" len="43"/>
          <note pan="0" key="45" vol="64" pos="3552" len="43"/>
          <note pan="0" key="38" vol="64" pos="3552" len="43"/>
          <note pan="0" key="50" vol="93" pos="3600" len="43"/>
          <note pan="0" key="41" vol="62" pos="3600" len="43"/>
          <note pan="0" key="38" vol="62" pos="3600" len="43"/>
          <note pan="0" key="53" vol="100" pos="3648" len="64"/>
          <note pan="0" key="45" vol="67" pos="3648" len="43"/>
          <note pan="0" key="41" vol="67" pos="3648" len="43"/>
          <note pan="0" key="38" vol="67" pos="3648" len="43"/>
          <note pan="0" key="41" vol="62" pos="3696" len="43"/>
          <note pan="0" key="38" vol="62" pos="3696" len="43"/>
          <note pan="0" key="55" vol="90" pos="3720" len="21"/>
          <note pan="0" key="57" vol="97" pos="3744" len="43"/>
          <note pan="0" key="38" vol="64" pos="3744" len="43"/>
          <note pan="0" key="45" vol="64" pos="3744" len="43"/>
          <note pan="0" key="50" vol="93" pos="3792" len="43"/>
          <note pan="0" key="41" vol="62" pos="3792" len="43"/>
          <note pan="0" key="38" vol="62" pos="3792" len="43"/>
          <note pan="0" key="53" vol="100" pos="3840" len="64"/>
          <note pan="0" key="41" vol="67" pos="3840" len="43"/>
          <note pan="0" key="45" vol="67" pos="3840" len="43"/>
          <note pan="0" key="38" vol="67" pos="3840" len="43"/>
          <note pan="0" key="41" vol="78" pos="3888" len="43"/>
          <note pan="0" key="38" vol="78" pos="3888" len="43"/>
          <note pan="0" key="55" vol="90" pos="3912" len="21"/>
          <note pan="0" key="57" vol="97" pos="3936" len="43"/>
          <note pan="0" key="48" vol="98" pos="3936" len="43"/>
          <note pan="0" key="38" vol="98" pos="3936" len="43"/>
          <note pan="0" key="42" vol="98" pos="3936" len="43"/>
          <note pan="0" key="55" vol="93" pos="3984" len="43"/>
          <note pan="0" key="46" vol="109" pos="3984" len="43"/>
          <note pan="0" key="43" vol="109" pos="3984" len="43"/>
          <note pan="0" key="38" vol="109" pos="3984" len="43"/>
          <note pan="0" key="53" vol="100" pos="4032" len="43"/>
          <note pan="0" key="45" vol="117" pos="4032" len="172"/>
          <note pan="0" key="41" vol="117" pos="4032" len="172"/>
          <note pan="0" key="38" vol="117" pos="4032" len="172"/>
          <note pan="0" key="52" vol="93" pos="4080" len="43"/>
          <note pan="0" key="50" vol="97" pos="4128" len="43"/>
          <note pan="0" key="44" vol="93" pos="4176" len="43"/>
          <note pan="0" key="47" vol="100" pos="4224" len="86"/>
          <note pan="0" key="48" vol="97" pos="4320" len="43"/>
          <note pan="0" key="57" vol="97" pos="4320" len="43"/>
          <note pan="0" key="45" vol="97" pos="4320" len="43"/>
          <note pan="0" key="45" vol="93" pos="4368" len="43"/>
          <note pan="0" key="48" vol="100" pos="4416" len="64"/>
          <note pan="0" key="33" vol="89" pos="4416" len="187"/>
          <note pan="0" key="40" vol="89" pos="4416" len="187"/>
          <note pan="0" key="45" vol="89" pos="4416" len="144"/>
          <note pan="0" key="50" vol="90" pos="4488" len="21"/>
          <note pan="0" key="52" vol="97" pos="4512" len="43"/>
          <note pan="0" key="45" vol="93" pos="4560" len="43"/>
          <note pan="0" key="48" vol="100" pos="4608" len="64"/>
          <note pan="0" key="33" vol="89" pos="4608" len="187"/>
          <note pan="0" key="40" vol="89" pos="4608" len="187"/>
          <note pan="0" key="45" vol="89" pos="4608" len="144"/>
          <note pan="0" key="50" vol="90" pos="4680" len="21"/>
          <note pan="0" key="52" vol="97" pos="4704" len="43"/>
          <note pan="0" key="45" vol="93" pos="4752" len="43"/>
          <note pan="0" key="50" vol="100" pos="4800" len="64"/>
          <note pan="0" key="38" vol="89" pos="4800" len="187"/>
          <note pan="0" key="41" vol="89" pos="4800" len="187"/>
          <note pan="0" key="45" vol="89" pos="4800" len="144"/>
          <note pan="0" key="52" vol="90" pos="4872" len="21"/>
          <note pan="0" key="53" vol="97" pos="4896" len="43"/>
          <note pan="0" key="45" vol="93" pos="4944" len="43"/>
          <note pan="0" key="50" vol="100" pos="4992" len="64"/>
          <note pan="0" key="41" vol="89" pos="4992" len="86"/>
          <note pan="0" key="38" vol="89" pos="4992" len="86"/>
          <note pan="0" key="45" vol="89" pos="4992" len="86"/>
          <note pan="0" key="52" vol="90" pos="5064" len="21"/>
          <note pan="0" key="53" vol="97" pos="5088" len="43"/>
          <note pan="0" key="41" vol="127" pos="5088" len="86"/>
          <note pan="0" key="35" vol="127" pos="5088" len="86"/>
          <note pan="0" key="39" vol="127" pos="5088" len="86"/>
          <note pan="0" key="44" vol="93" pos="5136" len="43"/>
          <note pan="0" key="47" vol="100" pos="5184" len="64"/>
          <note pan="0" key="35" vol="89" pos="5184" len="187"/>
          <note pan="0" key="44" vol="89" pos="5184" len="144"/>
          <note pan="0" key="40" vol="89" pos="5184" len="187"/>
          <note pan="0" key="48" vol="90" pos="5256" len="21"/>
          <note pan="0" key="50" vol="97" pos="5280" len="43"/>
          <note pan="0" key="44" vol="93" pos="5328" len="43"/>
          <note pan="0" key="47" vol="100" pos="5376" len="64"/>
          <note pan="0" key="40" vol="89" pos="5376" len="187"/>
          <note pan="0" key="44" vol="89" pos="5376" len="144"/>
          <note pan="0" key="35" vol="89" pos="5376" len="187"/>
          <note pan="0" key="48" vol="90" pos="5448" len="21"/>
          <note pan="0" key="50" vol="97" pos="5472" len="43"/>
          <note pan="0" key="45" vol="93" pos="5520" len="43"/>
          <note pan="0" key="48" vol="100" pos="5568" len="64"/>
          <note pan="0" key="33" vol="89" pos="5568" len="187"/>
          <note pan="0" key="45" vol="89" pos="5568" len="144"/>
          <note pan="0" key="40" vol="89" pos="5568" len="187"/>
          <note pan="0" key="50" vol="90" pos="5640" len="21"/>
          <note pan="0" key="52" vol="97" pos="5664" len="43"/>
          <note pan="0" key="45" vol="93" pos="5712" len="43"/>
          <note pan="0" key="48" vol="100" pos="5760" len="64"/>
          <note pan="0" key="40" vol="89" pos="5760" len="187"/>
          <note pan="0" key="45" vol="89" pos="5760" len="144"/>
          <note pan="0" key="33" vol="89" pos="5760" len="187"/>
          <note pan="0" key="50" vol="90" pos="5832" len="21"/>
          <note pan="0" key="52" vol="97" pos="5856" len="43"/>
          <note pan="0" key="47" vol="93" pos="5904" len="43"/>
          <note pan="0" key="51" vol="100" pos="5952" len="64"/>
          <note pan="0" key="35" vol="89" pos="5952" len="172"/>
          <note pan="0" key="42" vol="89" pos="5952" len="172"/>
          <note pan="0" key="39" vol="89" pos="5952" len="172"/>
          <note pan="0" key="52" vol="90" pos="6024" len="21"/>
          <note pan="0" key="54" vol="97" pos="6048" len="43"/>
          <note pan="0" key="47" vol="93" pos="6096" len="43"/>
          <note pan="0" key="51" vol="100" pos="6144" len="64"/>
          <note pan="0" key="30" vol="89" pos="6144" len="172"/>
          <note pan="0" key="39" vol="89" pos="6144" len="172"/>
          <note pan="0" key="35" vol="89" pos="6144" len="172"/>
          <note pan="0" key="52" vol="90" pos="6216" len="21"/>
          <note pan="0" key="54" vol="97" pos="6240" len="43"/>
          <note pan="0" key="47" vol="93" pos="6288" len="43"/>
          <note pan="0" key="52" vol="100" pos="6336" len="64"/>
          <note pan="0" key="44" vol="89" pos="6336" len="172"/>
          <note pan="0" key="35" vol="89" pos="6336" len="172"/>
          <note pan="0" key="40" vol="89" pos="6336" len="172"/>
          <note pan="0" key="54" vol="90" pos="6408" len="21"/>
          <note pan="0" key="56" vol="97" pos="6432" len="43"/>
          <note pan="0" key="47" vol="93" pos="6480" len="43"/>
          <note pan="0" key="52" vol="100" pos="6528" len="64"/>
          <note pan="0" key="40" vol="89" pos="6528" len="172"/>
          <note pan="0" key="35" vol="89" pos="6528" len="172"/>
          <note pan="0" key="32" vol="89" pos="6528" len="172"/>
          <note pan="0" key="54" vol="90" pos="6600" len="21"/>
          <note pan="0" key="56" vol="97" pos="6624" len="43"/>
          <note pan="0" key="47" vol="93" pos="6672" len="43"/>
          <note pan="0" key="51" vol="100" pos="6720" len="64"/>
          <note pan="0" key="42" vol="89" pos="6720" len="172"/>
          <note pan="0" key="39" vol="89" pos="6720" len="172"/>
          <note pan="0" key="35" vol="89" pos="6720" len="172"/>
          <note pan="0" key="52" vol="90" pos="6792" len="21"/>
          <note pan="0" key="54" vol="97" pos="6816" len="43"/>
          <note pan="0" key="47" vol="93" pos="6864" len="43"/>
          <note pan="0" key="51" vol="100" pos="6912" len="64"/>
          <note pan="0" key="30" vol="89" pos="6912" len="172"/>
          <note pan="0" key="35" vol="89" pos="6912" len="172"/>
          <note pan="0" key="39" vol="89" pos="6912" len="172"/>
          <note pan="0" key="52" vol="90" pos="6984" len="21"/>
          <note pan="0" key="54" vol="97" pos="7008" len="43"/>
          <note pan="0" key="47" vol="93" pos="7056" len="43"/>
          <note pan="0" key="52" vol="100" pos="7104" len="64"/>
          <note pan="0" key="35" vol="89" pos="7104" len="172"/>
          <note pan="0" key="44" vol="89" pos="7104" len="172"/>
          <note pan="0" key="40" vol="89" pos="7104" len="172"/>
          <note pan="0" key="54" vol="90" pos="7176" len="21"/>
          <note pan="0" key="56" vol="97" pos="7200" len="43"/>
          <note pan="0" key="47" vol="93" pos="7248" len="43"/>
          <note pan="0" key="52" vol="100" pos="7296" len="64"/>
          <note pan="0" key="32" vol="89" pos="7296" len="172"/>
          <note pan="0" key="35" vol="89" pos="7296" len="172"/>
          <note pan="0" key="40" vol="89" pos="7296" len="172"/>
          <note pan="0" key="54" vol="90" pos="7368" len="21"/>
          <note pan="0" key="56" vol="97" pos="7392" len="43"/>
          <note pan="0" key="54" vol="93" pos="7440" len="43"/>
          <note pan="0" key="52" vol="127" pos="7488" len="43"/>
          <note pan="0" key="40" vol="127" pos="7488" len="43"/>
          <note pan="0" key="44" vol="127" pos="7488" len="43"/>
          <note pan="0" key="35" vol="127" pos="7488" len="43"/>
          <note pan="0" key="51" vol="120" pos="7536" len="43"/>
          <note pan="0" key="35" vol="127" pos="7536" len="43"/>
          <note pan="0" key="42" vol="127" pos="7536" len="43"/>
          <note pan="0" key="47" vol="127" pos="7536" len="43"/>
          <note pan="0" key="52" vol="126" pos="7584" len="86"/>
          <note pan="0" key="47" vol="127" pos="7584" len="86"/>
          <note pan="0" key="44" vol="127" pos="7584" len="86"/>
          <note pan="0" key="40" vol="127" pos="7584" len="86"/>
          <note pan="0" key="52" vol="100" pos="7680" len="21"/>
          <note pan="0" key="40" vol="117" pos="7680" len="172"/>
          <note pan="0" key="52" vol="93" pos="7728" len="21"/>
          <note pan="0" key="52" vol="97" pos="7776" len="43"/>
          <note pan="0" key="54" vol="90" pos="7848" len="21"/>
          <note pan="0" key="56" vol="100" pos="7872" len="21"/>
          <note pan="0" key="40" vol="117" pos="7872" len="172"/>
          <note pan="0" key="52" vol="93" pos="7920" len="21"/>
          <note pan="0" key="52" vol="97" pos="7968" len="43"/>
          <note pan="0" key="52" vol="90" pos="8040" len="21"/>
          <note pan="0" key="54" vol="100" pos="8064" len="21"/>
          <note pan="0" key="35" vol="117" pos="8064" len="172"/>
          <note pan="0" key="54" vol="93" pos="8112" len="21"/>
          <note pan="0" key="54" vol="97" pos="8160" len="21"/>
          <note pan="0" key="56" vol="90" pos="8184" len="21"/>
          <note pan="0" key="57" vol="93" pos="8208" len="21"/>
          <note pan="0" key="54" vol="90" pos="8232" len="21"/>
          <note pan="0" key="56" vol="127" pos="8256" len="21"/>
          <note pan="0" key="40" vol="117" pos="8256" len="172"/>
          <note pan="0" key="52" vol="120" pos="8304" len="21"/>
          <note pan="0" key="52" vol="126" pos="8352" len="64"/>
          <note pan="0" key="52" vol="100" pos="8448" len="21"/>
          <note pan="0" key="40" vol="117" pos="8448" len="172"/>
          <note pan="0" key="52" vol="93" pos="8496" len="21"/>
          <note pan="0" key="52" vol="97" pos="8544" len="43"/>
          <note pan="0" key="54" vol="90" pos="8616" len="21"/>
          <note pan="0" key="56" vol="100" pos="8640" len="21"/>
          <note pan="0" key="40" vol="117" pos="8640" len="172"/>
          <note pan="0" key="52" vol="93" pos="8688" len="21"/>
          <note pan="0" key="52" vol="97" pos="8736" len="43"/>
          <note pan="0" key="52" vol="90" pos="8808" len="21"/>
          <note pan="0" key="54" vol="100" pos="8832" len="21"/>
          <note pan="0" key="35" vol="117" pos="8832" len="172"/>
          <note pan="0" key="54" vol="93" pos="8880" len="21"/>
          <note pan="0" key="54" vol="97" pos="8928" len="21"/>
          <note pan="0" key="56" vol="90" pos="8952" len="21"/>
          <note pan="0" key="57" vol="93" pos="8976" len="21"/>
          <note pan="0" key="51" vol="90" pos="9000" len="21"/>
          <note pan="0" key="52" vol="127" pos="9024" len="21"/>
          <note pan="0" key="40" vol="127" pos="9024" len="43"/>
          <note pan="0" key="47" vol="120" pos="9072" len="21"/>
          <note pan="0" key="39" vol="127" pos="9072" len="43"/>
          <note pan="0" key="52" vol="126" pos="9120" len="64"/>
          <note pan="0" key="40" vol="127" pos="9120" len="43"/>
          <note pan="0" key="52" vol="100" pos="9216" len="21"/>
          <note pan="0" key="47" vol="100" pos="9216" len="21"/>
          <note pan="0" key="44" vol="117" pos="9216" len="172"/>
          <note pan="0" key="40" vol="117" pos="9216" len="172"/>
          <note pan="0" key="52" vol="93" pos="9264" len="21"/>
          <note pan="0" key="47" vol="93" pos="9264" len="21"/>
          <note pan="0" key="47" vol="97" pos="9312" len="43"/>
          <note pan="0" key="52" vol="97" pos="9312" len="43"/>
          <note pan="0" key="51" vol="90" pos="9384" len="21"/>
          <note pan="0" key="54" vol="90" pos="9384" len="21"/>
          <note pan="0" key="52" vol="100" pos="9408" len="21"/>
          <note pan="0" key="56" vol="100" pos="9408" len="21"/>
          <note pan="0" key="40" vol="117" pos="9408" len="177"/>
          <note pan="0" key="47" vol="117" pos="9408" len="48"/>
          <note pan="0" key="47" vol="93" pos="9456" len="21"/>
          <note pan="0" key="52" vol="93" pos="9456" len="21"/>
          <note pan="0" key="52" vol="97" pos="9504" len="43"/>
          <note pan="0" key="47" vol="97" pos="9504" len="43"/>
          <note pan="0" key="47" vol="90" pos="9576" len="21"/>
          <note pan="0" key="52" vol="90" pos="9576" len="21"/>
          <note pan="0" key="54" vol="100" pos="9600" len="21"/>
          <note pan="0" key="51" vol="100" pos="9600" len="21"/>
          <note pan="0" key="35" vol="117" pos="9600" len="172"/>
          <note pan="0" key="39" vol="117" pos="9600" len="172"/>
          <note pan="0" key="54" vol="93" pos="9648" len="21"/>
          <note pan="0" key="51" vol="93" pos="9648" len="21"/>
          <note pan="0" key="51" vol="97" pos="9696" len="43"/>
          <note pan="0" key="54" vol="97" pos="9696" len="21"/>
          <note pan="0" key="56" vol="90" pos="9720" len="21"/>
          <note pan="0" key="57" vol="93" pos="9744" len="21"/>
          <note pan="0" key="51" vol="90" pos="9768" len="21"/>
          <note pan="0" key="54" vol="90" pos="9768" len="21"/>
          <note pan="0" key="56" vol="127" pos="9792" len="21"/>
          <note pan="0" key="52" vol="127" pos="9792" len="21"/>
          <note pan="0" key="35" vol="117" pos="9792" len="172"/>
          <note pan="0" key="40" vol="117" pos="9792" len="172"/>
          <note pan="0" key="47" vol="127" pos="9840" len="21"/>
          <note pan="0" key="52" vol="127" pos="9840" len="21"/>
          <note pan="0" key="52" vol="127" pos="9888" len="64"/>
          <note pan="0" key="47" vol="127" pos="9888" len="64"/>
          <note pan="0" key="52" vol="100" pos="9984" len="21"/>
          <note pan="0" key="47" vol="100" pos="9984" len="21"/>
          <note pan="0" key="40" vol="117" pos="9984" len="172"/>
          <note pan="0" key="44" vol="117" pos="9984" len="172"/>
          <note pan="0" key="47" vol="93" pos="10032" len="21"/>
          <note pan="0" key="52" vol="93" pos="10032" len="21"/>
          <note pan="0" key="47" vol="97" pos="10080" len="43"/>
          <note pan="0" key="52" vol="97" pos="10080" len="43"/>
          <note pan="0" key="51" vol="90" pos="10152" len="21"/>
          <note pan="0" key="54" vol="90" pos="10152" len="21"/>
          <note pan="0" key="56" vol="100" pos="10176" len="21"/>
          <note pan="0" key="52" vol="100" pos="10176" len="21"/>
          <note pan="0" key="40" vol="117" pos="10176" len="177"/>
          <note pan="0" key="47" vol="117" pos="10176" len="48"/>
          <note pan="0" key="52" vol="93" pos="10224" len="21"/>
          <note pan="0" key="47" vol="93" pos="10224" len="21"/>
          <note pan="0" key="47" vol="97" pos="10272" len="43"/>
          <note pan="0" key="52" vol="97" pos="10272" len="43"/>
          <note pan="0" key="52" vol="90" pos="10344" len="21"/>
          <note pan="0" key="47" vol="90" pos="10344" len="21"/>
          <note pan="0" key="51" vol="100" pos="10368" len="21"/>
          <note pan="0" key="54" vol="100" pos="10368" len="21"/>
          <note pan="0" key="39" vol="117" pos="10368" len="172"/>
          <note pan="0" key="35" vol="117" pos="10368" len="172"/>
          <note pan="0" key="54" vol="93" pos="10416" len="21"/>
          <note pan="0" key="51" vol="93" pos="10416" len="21"/>
          <note pan="0" key="54" vol="97" pos="10464" len="21"/>
          <note pan="0" key="51" vol="97" pos="10464" len="43"/>
          <note pan="0" key="56" vol="90" pos="10488" len="21"/>
          <note pan="0" key="57" vol="93" pos="10512" len="21"/>
          <note pan="0" key="51" vol="90" pos="10536" len="21"/>
          <note pan="0" key="47" vol="90" pos="10536" len="21"/>
          <note pan="0" key="47" vol="127" pos="10560" len="21"/>
          <note pan="0" key="52" vol="127" pos="10560" len="21"/>
          <note pan="0" key="35" vol="127" pos="10560" len="43"/>
          <note pan="0" key="40" vol="127" pos="10560" len="43"/>
          <note pan="0" key="47" vol="120" pos="10608" len="21"/>
          <note pan="0" key="39" vol="127" pos="10608" len="43"/>
          <note pan="0" key="42" vol="127" pos="10608" len="43"/>
          <note pan="0" key="52" vol="126" pos="10656" len="64"/>
          <note pan="0" key="47" vol="127" pos="10656" len="43"/>
          <note pan="0" key="40" vol="127" pos="10656" len="43"/>
          <note pan="0" key="52" vol="117" pos="10752" len="21"/>
          <note pan="0" key="47" vol="89" pos="10752" len="86"/>
          <note pan="0" key="44" vol="89" pos="10752" len="86"/>
          <note pan="0" key="40" vol="89" pos="10752" len="86"/>
          <note pan="0" key="54" vol="105" pos="10776" len="21"/>
          <note pan="0" key="56" vol="109" pos="10800" len="21"/>
          <note pan="0" key="52" vol="105" pos="10824" len="21"/>
          <note pan="0" key="54" vol="113" pos="10848" len="21"/>
          <note pan="0" key="39" vol="86" pos="10848" len="86"/>
          <note pan="0" key="42" vol="86" pos="10848" len="86"/>
          <note pan="0" key="47" vol="86" pos="10848" len="86"/>
          <note pan="0" key="56" vol="105" pos="10872" len="21"/>
          <note pan="0" key="57" vol="109" pos="10896" len="21"/>
          <note pan="0" key="54" vol="105" pos="10920" len="21"/>
          <note pan="0" key="56" vol="117" pos="10944" len="21"/>
          <note pan="0" key="44" vol="89" pos="10944" len="86"/>
          <note pan="0" key="40" vol="89" pos="10944" len="86"/>
          <note pan="0" key="35" vol="89" pos="10944" len="86"/>
          <note pan="0" key="57" vol="105" pos="10968" len="21"/>
          <note pan="0" key="59" vol="109" pos="10992" len="21"/>
          <note pan="0" key="56" vol="105" pos="11016" len="21"/>
          <note pan="0" key="57" vol="113" pos="11040" len="21"/>
          <note pan="0" key="40" vol="86" pos="11040" len="86"/>
          <note pan="0" key="37" vol="86" pos="11040" len="86"/>
          <note pan="0" key="45" vol="86" pos="11040" len="86"/>
          <note pan="0" key="59" vol="105" pos="11064" len="21"/>
          <note pan="0" key="61" vol="109" pos="11088" len="43"/>
          <note pan="0" key="52" vol="89" pos="11136" len="86"/>
          <note pan="0" key="56" vol="89" pos="11136" len="86"/>
          <note pan="0" key="59" vol="89" pos="11136" len="86"/>
          <note pan="0" key="28" vol="117" pos="11136" len="21"/>
          <note pan="0" key="30" vol="105" pos="11160" len="21"/>
          <note pan="0" key="32" vol="110" pos="11184" len="21"/>
          <note pan="0" key="28" vol="106" pos="11208" len="21"/>
          <note pan="0" key="54" vol="86" pos="11232" len="86"/>
          <note pan="0" key="51" vol="86" pos="11232" len="86"/>
          <note pan="0" key="59" vol="86" pos="11232" len="86"/>
          <note pan="0" key="30" vol="115" pos="11232" len="21"/>
          <note pan="0" key="32" vol="108" pos="11256" len="21"/>
          <note pan="0" key="33" vol="112" pos="11280" len="21"/>
          <note pan="0" key="30" vol="109" pos="11304" len="21"/>
          <note pan="0" key="56" vol="89" pos="11328" len="86"/>
          <note pan="0" key="52" vol="89" pos="11328" len="86"/>
          <note pan="0" key="47" vol="89" pos="11328" len="86"/>
          <note pan="0" key="32" vol="123" pos="11328" len="21"/>
          <note pan="0" key="33" vol="110" pos="11352" len="21"/>
          <note pan="0" key="35" vol="115" pos="11376" len="21"/>
          <note pan="0" key="32" vol="111" pos="11400" len="21"/>
          <note pan="0" key="49" vol="86" pos="11424" len="86"/>
          <note pan="0" key="52" vol="86" pos="11424" len="86"/>
          <note pan="0" key="57" vol="86" pos="11424" len="86"/>
          <note pan="0" key="33" vol="120" pos="11424" len="21"/>
          <note pan="0" key="35" vol="113" pos="11448" len="21"/>
          <note pan="0" key="37" vol="117" pos="11472" len="43"/>
          <note pan="0" key="61" vol="89" pos="11520" len="86"/>
          <note pan="0" key="52" vol="89" pos="11520" len="86"/>
          <note pan="0" key="57" vol="89" pos="11520" len="86"/>
          <note pan="0" key="37" vol="127" pos="11520" len="21"/>
          <note pan="0" key="35" vol="114" pos="11544" len="21"/>
          <note pan="0" key="33" vol="117" pos="11568" len="21"/>
          <note pan="0" key="37" vol="113" pos="11592" len="21"/>
          <note pan="0" key="59" vol="86" pos="11616" len="86"/>
          <note pan="0" key="64" vol="86" pos="11616" len="86"/>
          <note pan="0" key="56" vol="86" pos="11616" len="86"/>
          <note pan="0" key="35" vol="120" pos="11616" len="21"/>
          <note pan="0" key="33" vol="111" pos="11640" len="21"/>
          <note pan="0" key="32" vol="115" pos="11664" len="21"/>
          <note pan="0" key="35" vol="110" pos="11688" len="21"/>
          <note pan="0" key="59" vol="89" pos="11712" len="86"/>
          <note pan="0" key="54" vol="89" pos="11712" len="86"/>
          <note pan="0" key="63" vol="89" pos="11712" len="86"/>
          <note pan="0" key="33" vol="123" pos="11712" len="21"/>
          <note pan="0" key="32" vol="109" pos="11736" len="21"/>
          <note pan="0" key="30" vol="112" pos="11760" len="21"/>
          <note pan="0" key="33" vol="108" pos="11784" len="21"/>
          <note pan="0" key="59" vol="86" pos="11808" len="86"/>
          <note pan="0" key="64" vol="86" pos="11808" len="86"/>
          <note pan="0" key="56" vol="86" pos="11808" len="86"/>
          <note pan="0" key="32" vol="115" pos="11808" len="21"/>
          <note pan="0" key="30" vol="106" pos="11832" len="21"/>
          <note pan="0" key="28" vol="110" pos="11856" len="43"/>
          <note pan="0" key="60" vol="117" pos="11904" len="21"/>
          <note pan="0" key="33" vol="117" pos="11904" len="86"/>
          <note pan="0" key="28" vol="117" pos="11904" len="86"/>
          <note pan="0" key="36" vol="117" pos="11904" len="86"/>
          <note pan="0" key="59" vol="105" pos="11928" len="21"/>
          <note pan="0" key="57" vol="109" pos="11952" len="21"/>
          <note pan="0" key="60" vol="105" pos="11976" len="21"/>
          <note pan="0" key="59" vol="113" pos="12000" len="21"/>
          <note pan="0" key="32" vol="99" pos="12000" len="86"/>
          <note pan="0" key="40" vol="99" pos="12000" len="86"/>
          <note pan="0" key="35" vol="99" pos="12000" len="86"/>
          <note pan="0" key="57" vol="105" pos="12024" len="21"/>
          <note pan="0" key="55" vol="109" pos="12048" len="21"/>
          <note pan="0" key="59" vol="105" pos="12072" len="21"/>
          <note pan="0" key="57" vol="117" pos="12096" len="21"/>
          <note pan="0" key="28" vol="89" pos="12096" len="86"/>
          <note pan="0" key="33" vol="89" pos="12096" len="86"/>
          <note pan="0" key="36" vol="89" pos="12096" len="86"/>
          <note pan="0" key="55" vol="105" pos="12120" len="21"/>
          <note pan="0" key="53" vol="109" pos="12144" len="21"/>
          <note pan="0" key="57" vol="105" pos="12168" len="21"/>
          <note pan="0" key="55" vol="113" pos="12192" len="21"/>
          <note pan="0" key="35" vol="86" pos="12192" len="86"/>
          <note pan="0" key="40" vol="86" pos="12192" len="86"/>
          <note pan="0" key="32" vol="86" pos="12192" len="86"/>
          <note pan="0" key="53" vol="105" pos="12216" len="21"/>
          <note pan="0" key="56" vol="127" pos="12240" len="43"/>
          <note pan="0" key="57" vol="117" pos="12288" len="129"/>
          <note pan="0" key="40" vol="89" pos="12288" len="129"/>
          <note pan="0" key="36" vol="89" pos="12288" len="129"/>
          <note pan="0" key="33" vol="89" pos="12288" len="129"/>
          <note pan="0" key="45" vol="93" pos="12432" len="43"/>
          <note pan="0" key="48" vol="100" pos="12480" len="64"/>
          <note pan="0" key="33" vol="67" pos="12480" len="43"/>
          <note pan="0" key="36" vol="67" pos="12480" len="43"/>
          <note pan="0" key="40" vol="67" pos="12480" len="43"/>
          <note pan="0" key="33" vol="62" pos="12528" len="43"/>
          <note pan="0" key="36" vol="62" pos="12528" len="43"/>
          <note pan="0" key="50" vol="90" pos="12552" len="21"/>
          <note pan="0" key="52" vol="97" pos="12576" len="43"/>
          <note pan="0" key="40" vol="64" pos="12576" len="43"/>
          <note pan="0" key="33" vol="64" pos="12576" len="43"/>
          <note pan="0" key="45" vol="93" pos="12624" len="43"/>
          <note pan="0" key="33" vol="62" pos="12624" len="43"/>
          <note pan="0" key="36" vol="62" pos="12624" len="43"/>
          <note pan="0" key="48" vol="100" pos="12672" len="64"/>
          <note pan="0" key="33" vol="67" pos="12672" len="43"/>
          <note pan="0" key="40" vol="67" pos="12672" len="43"/>
          <note pan="0" key="36" vol="67" pos="12672" len="43"/>
          <note pan="0" key="36" vol="62" pos="12720" len="43"/>
          <note pan="0" key="33" vol="62" pos="12720" len="43"/>
          <note pan="0" key="50" vol="90" pos="12744" len="21"/>
          <note pan="0" key="52" vol="97" pos="12768" len="43"/>
          <note pan="0" key="33" vol="64" pos="12768" len="43"/>
          <note pan="0" key="40" vol="64" pos="12768" len="43"/>
          <note pan="0" key="45" vol="93" pos="12816" len="43"/>
          <note pan="0" key="36" vol="62" pos="12816" len="43"/>
          <note pan="0" key="33" vol="62" pos="12816" len="43"/>
          <note pan="0" key="48" vol="100" pos="12864" len="64"/>
          <note pan="0" key="40" vol="67" pos="12864" len="43"/>
          <note pan="0" key="36" vol="67" pos="12864" len="43"/>
          <note pan="0" key="33" vol="67" pos="12864" len="43"/>
          <note pan="0" key="33" vol="78" pos="12912" len="43"/>
          <note pan="0" key="36" vol="78" pos="12912" len="43"/>
          <note pan="0" key="50" vol="90" pos="12936" len="21"/>
          <note pan="0" key="52" vol="97" pos="12960" len="43"/>
          <note pan="0" key="37" vol="98" pos="12960" len="43"/>
          <note pan="0" key="43" vol="98" pos="12960" len="43"/>
          <note pan="0" key="33" vol="98" pos="12960" len="43"/>
          <note pan="0" key="53" vol="93" pos="13008" len="43"/>
          <note pan="0" key="33" vol="109" pos="13008" len="43"/>
          <note pan="0" key="41" vol="109" pos="13008" len="43"/>
          <note pan="0" key="38" vol="109" pos="13008" len="43"/>
          <note pan="0" key="52" vol="100" pos="13056" len="43"/>
          <note pan="0" key="35" vol="117" pos="13056" len="43"/>
          <note pan="0" key="38" vol="117" pos="13056" len="43"/>
          <note pan="0" key="32" vol="117" pos="13056" len="43"/>
          <note pan="0" key="50" vol="93" pos="13104" len="43"/>
          <note pan="0" key="38" vol="92" pos="13104" len="43"/>
          <note pan="0" key="40" vol="92" pos="13104" len="43"/>
          <note pan="0" key="35" vol="92" pos="13104" len="43"/>
          <note pan="0" key="48" vol="97" pos="13152" len="43"/>
          <note pan="0" key="33" vol="78" pos="13152" len="43"/>
          <note pan="0" key="36" vol="78" pos="13152" len="43"/>
          <note pan="0" key="40" vol="78" pos="13152" len="43"/>
          <note pan="0" key="45" vol="93" pos="13200" len="43"/>
          <note pan="0" key="33" vol="62" pos="13200" len="43"/>
          <note pan="0" key="36" vol="62" pos="13200" len="43"/>
          <note pan="0" key="48" vol="100" pos="13248" len="64"/>
          <note pan="0" key="33" vol="67" pos="13248" len="43"/>
          <note pan="0" key="40" vol="67" pos="13248" len="43"/>
          <note pan="0" key="36" vol="67" pos="13248" len="43"/>
          <note pan="0" key="33" vol="62" pos="13296" len="43"/>
          <note pan="0" key="36" vol="62" pos="13296" len="43"/>
          <note pan="0" key="50" vol="90" pos="13320" len="21"/>
          <note pan="0" key="52" vol="97" pos="13344" len="43"/>
          <note pan="0" key="33" vol="64" pos="13344" len="43"/>
          <note pan="0" key="40" vol="64" pos="13344" len="43"/>
          <note pan="0" key="45" vol="93" pos="13392" len="43"/>
          <note pan="0" key="33" vol="62" pos="13392" len="43"/>
          <note pan="0" key="36" vol="62" pos="13392" len="43"/>
          <note pan="0" key="48" vol="100" pos="13440" len="64"/>
          <note pan="0" key="33" vol="67" pos="13440" len="43"/>
          <note pan="0" key="36" vol="67" pos="13440" len="43"/>
          <note pan="0" key="40" vol="67" pos="13440" len="43"/>
          <note pan="0" key="33" vol="62" pos="13488" len="43"/>
          <note pan="0" key="36" vol="62" pos="13488" len="43"/>
          <note pan="0" key="50" vol="90" pos="13512" len="21"/>
          <note pan="0" key="52" vol="97" pos="13536" len="43"/>
          <note pan="0" key="33" vol="64" pos="13536" len="43"/>
          <note pan="0" key="40" vol="64" pos="13536" len="43"/>
          <note pan="0" key="45" vol="93" pos="13584" len="43"/>
          <note pan="0" key="36" vol="62" pos="13584" len="43"/>
          <note pan="0" key="33" vol="62" pos="13584" len="43"/>
          <note pan="0" key="48" vol="100" pos="13632" len="64"/>
          <note pan="0" key="33" vol="67" pos="13632" len="43"/>
          <note pan="0" key="36" vol="67" pos="13632" len="43"/>
          <note pan="0" key="40" vol="67" pos="13632" len="43"/>
          <note pan="0" key="36" vol="78" pos="13680" len="43"/>
          <note pan="0" key="33" vol="78" pos="13680" len="43"/>
          <note pan="0" key="50" vol="90" pos="13704" len="21"/>
          <note pan="0" key="52" vol="97" pos="13728" len="43"/>
          <note pan="0" key="37" vol="98" pos="13728" len="43"/>
          <note pan="0" key="33" vol="98" pos="13728" len="43"/>
          <note pan="0" key="43" vol="98" pos="13728" len="43"/>
          <note pan="0" key="50" vol="93" pos="13776" len="43"/>
          <note pan="0" key="41" vol="109" pos="13776" len="43"/>
          <note pan="0" key="38" vol="109" pos="13776" len="43"/>
          <note pan="0" key="33" vol="109" pos="13776" len="43"/>
          <note pan="0" key="48" vol="100" pos="13824" len="43"/>
          <note pan="0" key="45" vol="117" pos="13824" len="43"/>
          <note pan="0" key="40" vol="117" pos="13824" len="43"/>
          <note pan="0" key="36" vol="117" pos="13824" len="43"/>
          <note pan="0" key="47" vol="93" pos="13872" len="43"/>
          <note pan="0" key="40" vol="105" pos="13872" len="43"/>
          <note pan="0" key="32" vol="105" pos="13872" len="43"/>
          <note pan="0" key="35" vol="105" pos="13872" len="43"/>
          <note pan="0" key="45" vol="97" pos="13920" len="182"/>
          <note pan="0" key="33" vol="104" pos="13920" len="182"/>
          <note pan="0" key="36" vol="104" pos="13920" len="182"/>
          <note pan="0" key="40" vol="104" pos="13920" len="182"/>
          <note pan="0" key="53" vol="97" pos="14112" len="43"/>
          <note pan="0" key="33" vol="97" pos="14112" len="43"/>
          <note pan="0" key="41" vol="97" pos="14112" len="43"/>
          <note pan="0" key="38" vol="97" pos="14112" len="43"/>
          <note pan="0" key="52" vol="93" pos="14160" len="43"/>
          <note pan="0" key="38" vol="93" pos="14160" len="43"/>
          <note pan="0" key="33" vol="93" pos="14160" len="43"/>
          <note pan="0" key="50" vol="100" pos="14208" len="43"/>
          <note pan="0" key="40" vol="100" pos="14208" len="43"/>
          <note pan="0" key="36" vol="100" pos="14208" len="43"/>
          <note pan="0" key="33" vol="100" pos="14208" len="43"/>
          <note pan="0" key="48" vol="93" pos="14256" len="43"/>
          <note pan="0" key="40" vol="93" pos="14256" len="43"/>
          <note pan="0" key="36" vol="93" pos="14256" len="43"/>
          <note pan="0" key="38" vol="93" pos="14256" len="43"/>
          <note pan="0" key="33" vol="93" pos="14256" len="43"/>
          <note pan="0" key="47" vol="97" pos="14304" len="172"/>
          <note pan="0" key="40" vol="97" pos="14304" len="172"/>
          <note pan="0" key="32" vol="97" pos="14304" len="172"/>
          <note pan="0" key="38" vol="97" pos="14304" len="172"/>
          <note pan="0" key="55" vol="97" pos="14496" len="43"/>
          <note pan="0" key="40" vol="97" pos="14496" len="43"/>
          <note pan="0" key="37" vol="97" pos="14496" len="43"/>
          <note pan="0" key="33" vol="97" pos="14496" len="43"/>
          <note pan="0" key="53" vol="93" pos="14544" len="43"/>
          <note pan="0" key="37" vol="93" pos="14544" len="43"/>
          <note pan="0" key="33" vol="93" pos="14544" len="43"/>
          <note pan="0" key="52" vol="100" pos="14592" len="43"/>
          <note pan="0" key="40" vol="100" pos="14592" len="43"/>
          <note pan="0" key="44" vol="100" pos="14592" len="43"/>
          <note pan="0" key="35" vol="100" pos="14592" len="43"/>
          <note pan="0" key="50" vol="93" pos="14640" len="43"/>
          <note pan="0" key="40" vol="93" pos="14640" len="43"/>
          <note pan="0" key="35" vol="93" pos="14640" len="43"/>
          <note pan="0" key="48" vol="97" pos="14688" len="43"/>
          <note pan="0" key="33" vol="97" pos="14688" len="43"/>
          <note pan="0" key="40" vol="97" pos="14688" len="43"/>
          <note pan="0" key="50" vol="93" pos="14736" len="43"/>
          <note pan="0" key="38" vol="93" pos="14736" len="43"/>
          <note pan="0" key="33" vol="93" pos="14736" len="43"/>
          <note pan="0" key="41" vol="93" pos="14736" len="43"/>
          <note pan="0" key="52" vol="100" pos="14784" len="43"/>
          <note pan="0" key="33" vol="100" pos="14784" len="43"/>
          <note pan="0" key="40" vol="100" pos="14784" len="43"/>
          <note pan="0" key="36" vol="100" pos="14784" len="43"/>
          <note pan="0" key="53" vol="93" pos="14832" len="43"/>
          <note pan="0" key="33" vol="82" pos="14832" len="43"/>
          <note pan="0" key="38" vol="82" pos="14832" len="43"/>
          <note pan="0" key="52" vol="97" pos="14880" len="43"/>
          <note pan="0" key="37" vol="74" pos="14880" len="43"/>
          <note pan="0" key="33" vol="74" pos="14880" len="43"/>
          <note pan="0" key="40" vol="74" pos="14880" len="43"/>
          <note pan="0" key="50" vol="93" pos="14928" len="43"/>
          <note pan="0" key="33" vol="62" pos="14928" len="43"/>
          <note pan="0" key="38" vol="62" pos="14928" len="43"/>
          <note pan="0" key="41" vol="62" pos="14928" len="43"/>
          <note pan="0" key="53" vol="100" pos="14976" len="64"/>
          <note pan="0" key="45" vol="67" pos="14976" len="43"/>
          <note pan="0" key="38" vol="67" pos="14976" len="43"/>
          <note pan="0" key="41" vol="67" pos="14976" len="43"/>
          <note pan="0" key="38" vol="62" pos="15024" len="43"/>
          <note pan="0" key="41" vol="62" pos="15024" len="43"/>
          <note pan="0" key="55" vol="90" pos="15048" len="21"/>
          <note pan="0" key="57" vol="97" pos="15072" len="43"/>
          <note pan="0" key="38" vol="64" pos="15072" len="43"/>
          <note pan="0" key="45" vol="64" pos="15072" len="43"/>
          <note pan="0" key="50" vol="93" pos="15120" len="43"/>
          <note pan="0" key="41" vol="62" pos="15120" len="43"/>
          <note pan="0" key="38" vol="62" pos="15120" len="43"/>
          <note pan="0" key="53" vol="100" pos="15168" len="64"/>
          <note pan="0" key="38" vol="67" pos="15168" len="43"/>
          <note pan="0" key="41" vol="67" pos="15168" len="43"/>
          <note pan="0" key="45" vol="67" pos="15168" len="43"/>
          <note pan="0" key="41" vol="62" pos="15216" len="43"/>
          <note pan="0" key="38" vol="62" pos="15216" len="43"/>
          <note pan="0" key="55" vol="90" pos="15240" len="21"/>
          <note pan="0" key="57" vol="97" pos="15264" len="43"/>
          <note pan="0" key="38" vol="64" pos="15264" len="43"/>
          <note pan="0" key="45" vol="64" pos="15264" len="43"/>
          <note pan="0" key="50" vol="93" pos="15312" len="43"/>
          <note pan="0" key="38" vol="62" pos="15312" len="43"/>
          <note pan="0" key="41" vol="62" pos="15312" len="43"/>
          <note pan="0" key="53" vol="100" pos="15360" len="64"/>
          <note pan="0" key="41" vol="67" pos="15360" len="43"/>
          <note pan="0" key="45" vol="67" pos="15360" len="43"/>
          <note pan="0" key="38" vol="67" pos="15360" len="43"/>
          <note pan="0" key="38" vol="78" pos="15408" len="43"/>
          <note pan="0" key="41" vol="78" pos="15408" len="43"/>
          <note pan="0" key="55" vol="90" pos="15432" len="21"/>
          <note pan="0" key="57" vol="97" pos="15456" len="43"/>
          <note pan="0" key="38" vol="98" pos="15456" len="43"/>
          <note pan="0" key="42" vol="98" pos="15456" len="43"/>
          <note pan="0" key="48" vol="98" pos="15456" len="43"/>
          <note pan="0" key="58" vol="93" pos="15504" len="43"/>
          <note pan="0" key="46" vol="109" pos="15504" len="43"/>
          <note pan="0" key="38" vol="109" pos="15504" len="43"/>
          <note pan="0" key="43" vol="109" pos="15504" len="43"/>
          <note pan="0" key="57" vol="100" pos="15552" len="43"/>
          <note pan="0" key="43" vol="117" pos="15552" len="43"/>
          <note pan="0" key="40" vol="117" pos="15552" len="43"/>
          <note pan="0" key="37" vol="117" pos="15552" len="43"/>
          <note pan="0" key="55" vol="93" pos="15600" len="43"/>
          <note pan="0" key="45" vol="92" pos="15600" len="43"/>
          <note pan="0" key="43" vol="92" pos="15600" len="43"/>
          <note pan="0" key="40" vol="92" pos="15600" len="43"/>
          <note pan="0" key="53" vol="97" pos="15648" len="43"/>
          <note pan="0" key="45" vol="78" pos="15648" len="43"/>
          <note pan="0" key="41" vol="78" pos="15648" len="43"/>
          <note pan="0" key="38" vol="78" pos="15648" len="43"/>
          <note pan="0" key="50" vol="93" pos="15696" len="43"/>
          <note pan="0" key="38" vol="62" pos="15696" len="43"/>
          <note pan="0" key="41" vol="62" pos="15696" len="43"/>
          <note pan="0" key="53" vol="100" pos="15744" len="64"/>
          <note pan="0" key="45" vol="67" pos="15744" len="43"/>
          <note pan="0" key="38" vol="67" pos="15744" len="43"/>
          <note pan="0" key="41" vol="67" pos="15744" len="43"/>
          <note pan="0" key="38" vol="62" pos="15792" len="43"/>
          <note pan="0" key="41" vol="62" pos="15792" len="43"/>
          <note pan="0" key="55" vol="90" pos="15816" len="21"/>
          <note pan="0" key="57" vol="97" pos="15840" len="43"/>
          <note pan="0" key="45" vol="64" pos="15840" len="43"/>
          <note pan="0" key="38" vol="64" pos="15840" len="43"/>
          <note pan="0" key="50" vol="93" pos="15888" len="43"/>
          <note pan="0" key="41" vol="62" pos="15888" len="43"/>
          <note pan="0" key="38" vol="62" pos="15888" len="43"/>
          <note pan="0" key="53" vol="100" pos="15936" len="64"/>
          <note pan="0" key="45" vol="67" pos="15936" len="43"/>
          <note pan="0" key="41" vol="67" pos="15936" len="43"/>
          <note pan="0" key="38" vol="67" pos="15936" len="43"/>
          <note pan="0" key="41" vol="62" pos="15984" len="43"/>
          <note pan="0" key="38" vol="62" pos="15984" len="43"/>
          <note pan="0" key="55" vol="90" pos="16008" len="21"/>
          <note pan="0" key="57" vol="97" pos="16032" len="43"/>
          <note pan="0" key="38" vol="64" pos="16032" len="43"/>
          <note pan="0" key="45" vol="64" pos="16032" len="43"/>
          <note pan="0" key="50" vol="93" pos="16080" len="43"/>
          <note pan="0" key="41" vol="62" pos="16080" len="43"/>
          <note pan="0" key="38" vol="62" pos="16080" len="43"/>
          <note pan="0" key="53" vol="100" pos="16128" len="64"/>
          <note pan="0" key="41" vol="67" pos="16128" len="43"/>
          <note pan="0" key="45" vol="67" pos="16128" len="43"/>
          <note pan="0" key="38" vol="67" pos="16128" len="43"/>
          <note pan="0" key="41" vol="78" pos="16176" len="43"/>
          <note pan="0" key="38" vol="78" pos="16176" len="43"/>
          <note pan="0" key="55" vol="90" pos="16200" len="21"/>
          <note pan="0" key="57" vol="97" pos="16224" len="43"/>
          <note pan="0" key="48" vol="98" pos="16224" len="43"/>
          <note pan="0" key="38" vol="98" pos="16224" len="43"/>
          <note pan="0" key="42" vol="98" pos="16224" len="43"/>
          <note pan="0" key="55" vol="93" pos="16272" len="43"/>
          <note pan="0" key="46" vol="109" pos="16272" len="43"/>
          <note pan="0" key="43" vol="109" pos="16272" len="43"/>
          <note pan="0" key="38" vol="109" pos="16272" len="43"/>
          <note pan="0" key="53" vol="100" pos="16320" len="43"/>
          <note pan="0" key="45" vol="117" pos="16320" len="172"/>
          <note pan="0" key="41" vol="117" pos="16320" len="172"/>
          <note pan="0" key="38" vol="117" pos="16320" len="172"/>
          <note pan="0" key="52" vol="93" pos="16368" len="43"/>
          <note pan="0" key="50" vol="97" pos="16416" len="43"/>
          <note pan="0" key="44" vol="93" pos="16464" len="43"/>
          <note pan="0" key="47" vol="100" pos="16512" len="86"/>
          <note pan="0" key="48" vol="97" pos="16608" len="43"/>
          <note pan="0" key="57" vol="97" pos="16608" len="43"/>
          <note pan="0" key="45" vol="97" pos="16608" len="43"/>
          <note pan="0" key="45" vol="93" pos="16656" len="43"/>
          <note pan="0" key="48" vol="100" pos="16704" len="64"/>
          <note pan="0" key="33" vol="89" pos="16704" len="187"/>
          <note pan="0" key="40" vol="89" pos="16704" len="187"/>
          <note pan="0" key="45" vol="89" pos="16704" len="144"/>
          <note pan="0" key="50" vol="90" pos="16776" len="21"/>
          <note pan="0" key="52" vol="97" pos="16800" len="43"/>
          <note pan="0" key="45" vol="93" pos="16848" len="43"/>
          <note pan="0" key="48" vol="100" pos="16896" len="64"/>
          <note pan="0" key="33" vol="89" pos="16896" len="187"/>
          <note pan="0" key="40" vol="89" pos="16896" len="187"/>
          <note pan="0" key="45" vol="89" pos="16896" len="144"/>
          <note pan="0" key="50" vol="90" pos="16968" len="21"/>
          <note pan="0" key="52" vol="97" pos="16992" len="43"/>
          <note pan="0" key="45" vol="93" pos="17040" len="43"/>
          <note pan="0" key="50" vol="100" pos="17088" len="64"/>
          <note pan="0" key="38" vol="89" pos="17088" len="187"/>
          <note pan="0" key="41" vol="89" pos="17088" len="187"/>
          <note pan="0" key="45" vol="89" pos="17088" len="144"/>
          <note pan="0" key="52" vol="90" pos="17160" len="21"/>
          <note pan="0" key="53" vol="97" pos="17184" len="43"/>
          <note pan="0" key="45" vol="93" pos="17232" len="43"/>
          <note pan="0" key="50" vol="100" pos="17280" len="64"/>
          <note pan="0" key="41" vol="89" pos="17280" len="86"/>
          <note pan="0" key="38" vol="89" pos="17280" len="86"/>
          <note pan="0" key="45" vol="89" pos="17280" len="86"/>
          <note pan="0" key="52" vol="90" pos="17352" len="21"/>
          <note pan="0" key="53" vol="97" pos="17376" len="43"/>
          <note pan="0" key="41" vol="127" pos="17376" len="86"/>
          <note pan="0" key="35" vol="127" pos="17376" len="86"/>
          <note pan="0" key="39" vol="127" pos="17376" len="86"/>
          <note pan="0" key="44" vol="93" pos="17424" len="43"/>
          <note pan="0" key="47" vol="100" pos="17472" len="64"/>
          <note pan="0" key="35" vol="89" pos="17472" len="187"/>
          <note pan="0" key="44" vol="89" pos="17472" len="144"/>
          <note pan="0" key="40" vol="89" pos="17472" len="187"/>
          <note pan="0" key="48" vol="90" pos="17544" len="21"/>
          <note pan="0" key="50" vol="97" pos="17568" len="43"/>
          <note pan="0" key="44" vol="93" pos="17616" len="43"/>
          <note pan="0" key="47" vol="100" pos="17664" len="64"/>
          <note pan="0" key="40" vol="89" pos="17664" len="187"/>
          <note pan="0" key="44" vol="89" pos="17664" len="144"/>
          <note pan="0" key="35" vol="89" pos="17664" len="187"/>
          <note pan="0" key="48" vol="90" pos="17736" len="21"/>
          <note pan="0" key="50" vol="97" pos="17760" len="43"/>
          <note pan="0" key="45" vol="93" pos="17808" len="43"/>
          <note pan="0" key="48" vol="100" pos="17856" len="64"/>
          <note pan="0" key="33" vol="89" pos="17856" len="187"/>
          <note pan="0" key="45" vol="89" pos="17856" len="144"/>
          <note pan="0" key="40" vol="89" pos="17856" len="187"/>
          <note pan="0" key="50" vol="90" pos="17928" len="21"/>
          <note pan="0" key="52" vol="97" pos="17952" len="43"/>
          <note pan="0" key="45" vol="93" pos="18000" len="43"/>
          <note pan="0" key="48" vol="100" pos="18048" len="64"/>
          <note pan="0" key="40" vol="89" pos="18048" len="187"/>
          <note pan="0" key="45" vol="89" pos="18048" len="144"/>
          <note pan="0" key="33" vol="89" pos="18048" len="187"/>
          <note pan="0" key="50" vol="90" pos="18120" len="21"/>
          <note pan="0" key="52" vol="97" pos="18144" len="43"/>
          <note pan="0" key="47" vol="93" pos="18192" len="43"/>
          <note pan="0" key="51" vol="100" pos="18240" len="64"/>
          <note pan="0" key="35" vol="89" pos="18240" len="172"/>
          <note pan="0" key="42" vol="89" pos="18240" len="172"/>
          <note pan="0" key="39" vol="89" pos="18240" len="172"/>
          <note pan="0" key="52" vol="90" pos="18312" len="21"/>
          <note pan="0" key="54" vol="97" pos="18336" len="43"/>
          <note pan="0" key="47" vol="93" pos="18384" len="43"/>
          <note pan="0" key="51" vol="100" pos="18432" len="64"/>
          <note pan="0" key="30" vol="89" pos="18432" len="172"/>
          <note pan="0" key="39" vol="89" pos="18432" len="172"/>
          <note pan="0" key="35" vol="89" pos="18432" len="172"/>
          <note pan="0" key="52" vol="90" pos="18504" len="21"/>
          <note pan="0" key="54" vol="97" pos="18528" len="43"/>
          <note pan="0" key="47" vol="93" pos="18576" len="43"/>
          <note pan="0" key="52" vol="100" pos="18624" len="64"/>
          <note pan="0" key="44" vol="89" pos="18624" len="172"/>
          <note pan="0" key="35" vol="89" pos="18624" len="172"/>
          <note pan="0" key="40" vol="89" pos="18624" len="172"/>
          <note pan="0" key="54" vol="90" pos="18696" len="21"/>
          <note pan="0" key="56" vol="97" pos="18720" len="43"/>
          <note pan="0" key="47" vol="93" pos="18768" len="43"/>
          <note pan="0" key="52" vol="100" pos="18816" len="64"/>
          <note pan="0" key="40" vol="89" pos="18816" len="172"/>
          <note pan="0" key="35" vol="89" pos="18816" len="172"/>
          <note pan="0" key="32" vol="89" pos="18816" len="172"/>
          <note pan="0" key="54" vol="90" pos="18888" len="21"/>
          <note pan="0" key="56" vol="97" pos="18912" len="43"/>
          <note pan="0" key="47" vol="93" pos="18960" len="43"/>
          <note pan="0" key="51" vol="100" pos="19008" len="64"/>
          <note pan="0" key="42" vol="89" pos="19008" len="172"/>
          <note pan="0" key="39" vol="89" pos="19008" len="172"/>
          <note pan="0" key="35" vol="89" pos="19008" len="172"/>
          <note pan="0" key="52" vol="90" pos="19080" len="21"/>
          <note pan="0" key="54" vol="97" pos="19104" len="43"/>
          <note pan="0" key="47" vol="93" pos="19152" len="43"/>
          <note pan="0" key="51" vol="100" pos="19200" len="64"/>
          <note pan="0" key="30" vol="89" pos="19200" len="172"/>
          <note pan="0" key="35" vol="89" pos="19200" len="172"/>
          <note pan="0" key="39" vol="89" pos="19200" len="172"/>
          <note pan="0" key="52" vol="90" pos="19272" len="21"/>
          <note pan="0" key="54" vol="97" pos="19296" len="43"/>
          <note pan="0" key="47" vol="93" pos="19344" len="43"/>
          <note pan="0" key="52" vol="100" pos="19392" len="64"/>
          <note pan="0" key="35" vol="89" pos="19392" len="172"/>
          <note pan="0" key="44" vol="89" pos="19392" len="172"/>
          <note pan="0" key="40" vol="89" pos="19392" len="172"/>
          <note pan="0" key="54" vol="90" pos="19464" len="21"/>
          <note pan="0" key="56" vol="97" pos="19488" len="43"/>
          <note pan="0" key="47" vol="93" pos="19536" len="43"/>
          <note pan="0" key="52" vol="100" pos="19584" len="64"/>
          <note pan="0" key="32" vol="89" pos="19584" len="172"/>
          <note pan="0" key="35" vol="89" pos="19584" len="172"/>
          <note pan="0" key="40" vol="89" pos="19584" len="172"/>
          <note pan="0" key="54" vol="90" pos="19656" len="21"/>
          <note pan="0" key="56" vol="97" pos="19680" len="43"/>
          <note pan="0" key="54" vol="93" pos="19728" len="43"/>
          <note pan="0" key="52" vol="127" pos="19776" len="43"/>
          <note pan="0" key="40" vol="127" pos="19776" len="43"/>
          <note pan="0" key="44" vol="127" pos="19776" len="43"/>
          <note pan="0" key="35" vol="127" pos="19776" len="43"/>
          <note pan="0" key="51" vol="120" pos="19824" len="43"/>
          <note pan="0" key="35" vol="127" pos="19824" len="43"/>
          <note pan="0" key="42" vol="127" pos="19824" len="43"/>
          <note pan="0" key="47" vol="127" pos="19824" len="43"/>
          <note pan="0" key="52" vol="126" pos="19872" len="86"/>
          <note pan="0" key="47" vol="127" pos="19872" len="86"/>
          <note pan="0" key="44" vol="127" pos="19872" len="86"/>
          <note pan="0" key="40" vol="127" pos="19872" len="86"/>
          <note pan="0" key="52" vol="100" pos="19968" len="21"/>
          <note pan="0" key="40" vol="117" pos="19968" len="172"/>
          <note pan="0" key="52" vol="93" pos="20016" len="21"/>
          <note pan="0" key="52" vol="97" pos="20064" len="43"/>
          <note pan="0" key="54" vol="90" pos="20136" len="21"/>
          <note pan="0" key="56" vol="100" pos="20160" len="21"/>
          <note pan="0" key="40" vol="117" pos="20160" len="172"/>
          <note pan="0" key="52" vol="93" pos="20208" len="21"/>
          <note pan="0" key="52" vol="97" pos="20256" len="43"/>
          <note pan="0" key="52" vol="90" pos="20328" len="21"/>
          <note pan="0" key="54" vol="100" pos="20352" len="21"/>
          <note pan="0" key="35" vol="117" pos="20352" len="172"/>
          <note pan="0" key="54" vol="93" pos="20400" len="21"/>
          <note pan="0" key="54" vol="97" pos="20448" len="21"/>
          <note pan="0" key="56" vol="90" pos="20472" len="21"/>
          <note pan="0" key="57" vol="93" pos="20496" len="21"/>
          <note pan="0" key="54" vol="90" pos="20520" len="21"/>
          <note pan="0" key="56" vol="127" pos="20544" len="21"/>
          <note pan="0" key="40" vol="117" pos="20544" len="172"/>
          <note pan="0" key="52" vol="120" pos="20592" len="21"/>
          <note pan="0" key="52" vol="126" pos="20640" len="64"/>
          <note pan="0" key="52" vol="100" pos="20736" len="21"/>
          <note pan="0" key="40" vol="117" pos="20736" len="172"/>
          <note pan="0" key="52" vol="93" pos="20784" len="21"/>
          <note pan="0" key="52" vol="97" pos="20832" len="43"/>
          <note pan="0" key="54" vol="90" pos="20904" len="21"/>
          <note pan="0" key="56" vol="100" pos="20928" len="21"/>
          <note pan="0" key="40" vol="117" pos="20928" len="172"/>
          <note pan="0" key="52" vol="93" pos="20976" len="21"/>
          <note pan="0" key="52" vol="97" pos="21024" len="43"/>
          <note pan="0" key="52" vol="90" pos="21096" len="21"/>
          <note pan="0" key="54" vol="100" pos="21120" len="21"/>
          <note pan="0" key="35" vol="117" pos="21120" len="172"/>
          <note pan="0" key="54" vol="93" pos="21168" len="21"/>
          <note pan="0" key="54" vol="97" pos="21216" len="21"/>
          <note pan="0" key="56" vol="90" pos="21240" len="21"/>
          <note pan="0" key="57" vol="93" pos="21264" len="21"/>
          <note pan="0" key="51" vol="90" pos="21288" len="21"/>
          <note pan="0" key="52" vol="127" pos="21312" len="21"/>
          <note pan="0" key="40" vol="127" pos="21312" len="43"/>
          <note pan="0" key="47" vol="120" pos="21360" len="21"/>
          <note pan="0" key="39" vol="127" pos="21360" len="43"/>
          <note pan="0" key="52" vol="126" pos="21408" len="64"/>
          <note pan="0" key="40" vol="127" pos="21408" len="43"/>
          <note pan="0" key="52" vol="100" pos="21504" len="21"/>
          <note pan="0" key="47" vol="100" pos="21504" len="21"/>
          <note pan="0" key="44" vol="117" pos="21504" len="172"/>
          <note pan="0" key="40" vol="117" pos="21504" len="172"/>
          <note pan="0" key="52" vol="93" pos="21552" len="21"/>
          <note pan="0" key="47" vol="93" pos="21552" len="21"/>
          <note pan="0" key="47" vol="97" pos="21600" len="43"/>
          <note pan="0" key="52" vol="97" pos="21600" len="43"/>
          <note pan="0" key="51" vol="90" pos="21672" len="21"/>
          <note pan="0" key="54" vol="90" pos="21672" len="21"/>
          <note pan="0" key="52" vol="100" pos="21696" len="21"/>
          <note pan="0" key="56" vol="100" pos="21696" len="21"/>
          <note pan="0" key="40" vol="117" pos="21696" len="177"/>
          <note pan="0" key="47" vol="117" pos="21696" len="48"/>
          <note pan="0" key="47" vol="93" pos="21744" len="21"/>
          <note pan="0" key="52" vol="93" pos="21744" len="21"/>
          <note pan="0" key="52" vol="97" pos="21792" len="43"/>
          <note pan="0" key="47" vol="97" pos="21792" len="43"/>
          <note pan="0" key="47" vol="90" pos="21864" len="21"/>
          <note pan="0" key="52" vol="90" pos="21864" len="21"/>
          <note pan="0" key="54" vol="100" pos="21888" len="21"/>
          <note pan="0" key="51" vol="100" pos="21888" len="21"/>
          <note pan="0" key="35" vol="117" pos="21888" len="172"/>
          <note pan="0" key="39" vol="117" pos="21888" len="172"/>
          <note pan="0" key="54" vol="93" pos="21936" len="21"/>
          <note pan="0" key="51" vol="93" pos="21936" len="21"/>
          <note pan="0" key="51" vol="97" pos="21984" len="43"/>
          <note pan="0" key="54" vol="97" pos="21984" len="21"/>
          <note pan="0" key="56" vol="90" pos="22008" len="21"/>
          <note pan="0" key="57" vol="93" pos="22032" len="21"/>
          <note pan="0" key="51" vol="90" pos="22056" len="21"/>
          <note pan="0" key="54" vol="90" pos="22056" len="21"/>
          <note pan="0" key="56" vol="127" pos="22080" len="21"/>
          <note pan="0" key="52" vol="127" pos="22080" len="21"/>
          <note pan="0" key="35" vol="117" pos="22080" len="172"/>
          <note pan="0" key="40" vol="117" pos="22080" len="172"/>
          <note pan="0" key="47" vol="127" pos="22128" len="21"/>
          <note pan="0" key="52" vol="127" pos="22128" len="21"/>
          <note pan="0" key="52" vol="127" pos="22176" len="64"/>
          <note pan="0" key="47" vol="127" pos="22176" len="64"/>
          <note pan="0" key="52" vol="100" pos="22272" len="21"/>
          <note pan="0" key="47" vol="100" pos="22272" len="21"/>
          <note pan="0" key="40" vol="117" pos="22272" len="172"/>
          <note pan="0" key="44" vol="117" pos="22272" len="172"/>
          <note pan="0" key="47" vol="93" pos="22320" len="21"/>
          <note pan="0" key="52" vol="93" pos="22320" len="21"/>
          <note pan="0" key="47" vol="97" pos="22368" len="43"/>
          <note pan="0" key="52" vol="97" pos="22368" len="43"/>
          <note pan="0" key="51" vol="90" pos="22440" len="21"/>
          <note pan="0" key="54" vol="90" pos="22440" len="21"/>
          <note pan="0" key="56" vol="100" pos="22464" len="21"/>
          <note pan="0" key="52" vol="100" pos="22464" len="21"/>
          <note pan="0" key="40" vol="117" pos="22464" len="177"/>
          <note pan="0" key="47" vol="117" pos="22464" len="48"/>
          <note pan="0" key="52" vol="93" pos="22512" len="21"/>
          <note pan="0" key="47" vol="93" pos="22512" len="21"/>
          <note pan="0" key="47" vol="97" pos="22560" len="43"/>
          <note pan="0" key="52" vol="97" pos="22560" len="43"/>
          <note pan="0" key="52" vol="90" pos="22632" len="21"/>
          <note pan="0" key="47" vol="90" pos="22632" len="21"/>
          <note pan="0" key="51" vol="100" pos="22656" len="21"/>
          <note pan="0" key="54" vol="100" pos="22656" len="21"/>
          <note pan="0" key="39" vol="117" pos="22656" len="172"/>
          <note pan="0" key="35" vol="117" pos="22656" len="172"/>
          <note pan="0" key="54" vol="93" pos="22704" len="21"/>
          <note pan="0" key="51" vol="93" pos="22704" len="21"/>
          <note pan="0" key="54" vol="97" pos="22752" len="21"/>
          <note pan="0" key="51" vol="97" pos="22752" len="43"/>
          <note pan="0" key="56" vol="90" pos="22776" len="21"/>
          <note pan="0" key="57" vol="93" pos="22800" len="21"/>
          <note pan="0" key="51" vol="90" pos="22824" len="21"/>
          <note pan="0" key="47" vol="90" pos="22824" len="21"/>
          <note pan="0" key="47" vol="127" pos="22848" len="21"/>
          <note pan="0" key="52" vol="127" pos="22848" len="21"/>
          <note pan="0" key="35" vol="127" pos="22848" len="43"/>
          <note pan="0" key="40" vol="127" pos="22848" len="43"/>
          <note pan="0" key="47" vol="120" pos="22896" len="21"/>
          <note pan="0" key="39" vol="127" pos="22896" len="43"/>
          <note pan="0" key="42" vol="127" pos="22896" len="43"/>
          <note pan="0" key="52" vol="126" pos="22944" len="64"/>
          <note pan="0" key="47" vol="127" pos="22944" len="43"/>
          <note pan="0" key="40" vol="127" pos="22944" len="43"/>
          <note pan="0" key="52" vol="117" pos="23040" len="21"/>
          <note pan="0" key="47" vol="89" pos="23040" len="86"/>
          <note pan="0" key="44" vol="89" pos="23040" len="86"/>
          <note pan="0" key="40" vol="89" pos="23040" len="86"/>
          <note pan="0" key="54" vol="105" pos="23064" len="21"/>
          <note pan="0" key="56" vol="109" pos="23088" len="21"/>
          <note pan="0" key="52" vol="105" pos="23112" len="21"/>
          <note pan="0" key="54" vol="113" pos="23136" len="21"/>
          <note pan="0" key="39" vol="86" pos="23136" len="86"/>
          <note pan="0" key="42" vol="86" pos="23136" len="86"/>
          <note pan="0" key="47" vol="86" pos="23136" len="86"/>
          <note pan="0" key="56" vol="105" pos="23160" len="21"/>
          <note pan="0" key="57" vol="109" pos="23184" len="21"/>
          <note pan="0" key="54" vol="105" pos="23208" len="21"/>
          <note pan="0" key="56" vol="117" pos="23232" len="21"/>
          <note pan="0" key="44" vol="89" pos="23232" len="86"/>
          <note pan="0" key="40" vol="89" pos="23232" len="86"/>
          <note pan="0" key="35" vol="89" pos="23232" len="86"/>
          <note pan="0" key="57" vol="105" pos="23256" len="21"/>
          <note pan="0" key="59" vol="109" pos="23280" len="21"/>
          <note pan="0" key="56" vol="105" pos="23304" len="21"/>
          <note pan="0" key="57" vol="113" pos="23328" len="21"/>
          <note pan="0" key="40" vol="86" pos="23328" len="86"/>
          <note pan="0" key="37" vol="86" pos="23328" len="86"/>
          <note pan="0" key="45" vol="86" pos="23328" len="86"/>
          <note pan="0" key="59" vol="105" pos="23352" len="21"/>
          <note pan="0" key="61" vol="109" pos="23376" len="43"/>
          <note pan="0" key="52" vol="89" pos="23424" len="86"/>
          <note pan="0" key="56" vol="89" pos="23424" len="86"/>
          <note pan="0" key="59" vol="89" pos="23424" len="86"/>
          <note pan="0" key="28" vol="117" pos="23424" len="21"/>
          <note pan="0" key="30" vol="105" pos="23448" len="21"/>
          <note pan="0" key="32" vol="110" pos="23472" len="21"/>
          <note pan="0" key="28" vol="106" pos="23496" len="21"/>
          <note pan="0" key="54" vol="86" pos="23520" len="86"/>
          <note pan="0" key="51" vol="86" pos="23520" len="86"/>
          <note pan="0" key="59" vol="86" pos="23520" len="86"/>
          <note pan="0" key="30" vol="115" pos="23520" len="21"/>
          <note pan="0" key="32" vol="108" pos="23544" len="21"/>
          <note pan="0" key="33" vol="112" pos="23568" len="21"/>
          <note pan="0" key="30" vol="109" pos="23592" len="21"/>
          <note pan="0" key="56" vol="89" pos="23616" len="86"/>
          <note pan="0" key="52" vol="89" pos="23616" len="86"/>
          <note pan="0" key="47" vol="89" pos="23616" len="86"/>
          <note pan="0" key="32" vol="123" pos="23616" len="21"/>
          <note pan="0" key="33" vol="110" pos="23640" len="21"/>
          <note pan="0" key="35" vol="115" pos="23664" len="21"/>
          <note pan="0" key="32" vol="111" pos="23688" len="21"/>
          <note pan="0" key="49" vol="86" pos="23712" len="86"/>
          <note pan="0" key="52" vol="86" pos="23712" len="86"/>
          <note pan="0" key="57" vol="86" pos="23712" len="86"/>
          <note pan="0" key="33" vol="120" pos="23712" len="21"/>
          <note pan="0" key="35" vol="113" pos="23736" len="21"/>
          <note pan="0" key="37" vol="117" pos="23760" len="43"/>
          <note pan="0" key="61" vol="89" pos="23808" len="86"/>
          <note pan="0" key="52" vol="89" pos="23808" len="86"/>
          <note pan="0" key="57" vol="89" pos="23808" len="86"/>
          <note pan="0" key="37" vol="127" pos="23808" len="21"/>
          <note pan="0" key="35" vol="114" pos="23832" len="21"/>
          <note pan="0" key="33" vol="117" pos="23856" len="21"/>
          <note pan="0" key="37" vol="113" pos="23880" len="21"/>
          <note pan="0" key="59" vol="86" pos="23904" len="86"/>
          <note pan="0" key="64" vol="86" pos="23904" len="86"/>
          <note pan="0" key="56" vol="86" pos="23904" len="86"/>
          <note pan="0" key="35" vol="120" pos="23904" len="21"/>
          <note pan="0" key="33" vol="111" pos="23928" len="21"/>
          <note pan="0" key="32" vol="115" pos="23952" len="21"/>
          <note pan="0" key="35" vol="110" pos="23976" len="21"/>
          <note pan="0" key="59" vol="89" pos="24000" len="86"/>
          <note pan="0" key="54" vol="89" pos="24000" len="86"/>
          <note pan="0" key="63" vol="89" pos="24000" len="86"/>
          <note pan="0" key="33" vol="123" pos="24000" len="21"/>
          <note pan="0" key="32" vol="109" pos="24024" len="21"/>
          <note pan="0" key="30" vol="112" pos="24048" len="21"/>
          <note pan="0" key="33" vol="108" pos="24072" len="21"/>
          <note pan="0" key="59" vol="86" pos="24096" len="86"/>
          <note pan="0" key="64" vol="86" pos="24096" len="86"/>
          <note pan="0" key="56" vol="86" pos="24096" len="86"/>
          <note pan="0" key="32" vol="115" pos="24096" len="21"/>
          <note pan="0" key="30" vol="106" pos="24120" len="21"/>
          <note pan="0" key="28" vol="110" pos="24144" len="43"/>
          <note pan="0" key="60" vol="117" pos="24192" len="21"/>
          <note pan="0" key="33" vol="117" pos="24192" len="86"/>
          <note pan="0" key="28" vol="117" pos="24192" len="86"/>
          <note pan="0" key="36" vol="117" pos="24192" len="86"/>
          <note pan="0" key="59" vol="105" pos="24216" len="21"/>
          <note pan="0" key="57" vol="109" pos="24240" len="21"/>
          <note pan="0" key="60" vol="105" pos="24264" len="21"/>
          <note pan="0" key="59" vol="113" pos="24288" len="21"/>
          <note pan="0" key="32" vol="99" pos="24288" len="86"/>
          <note pan="0" key="40" vol="99" pos="24288" len="86"/>
          <note pan="0" key="35" vol="99" pos="24288" len="86"/>
          <note pan="0" key="57" vol="105" pos="24312" len="21"/>
          <note pan="0" key="55" vol="109" pos="24336" len="21"/>
          <note pan="0" key="59" vol="105" pos="24360" len="21"/>
          <note pan="0" key="57" vol="117" pos="24384" len="21"/>
          <note pan="0" key="28" vol="89" pos="24384" len="86"/>
          <note pan="0" key="33" vol="89" pos="24384" len="86"/>
          <note pan="0" key="36" vol="89" pos="24384" len="86"/>
          <note pan="0" key="55" vol="105" pos="24408" len="21"/>
          <note pan="0" key="53" vol="109" pos="24432" len="21"/>
          <note pan="0" key="57" vol="105" pos="24456" len="21"/>
          <note pan="0" key="55" vol="113" pos="24480" len="21"/>
          <note pan="0" key="35" vol="86" pos="24480" len="86"/>
          <note pan="0" key="40" vol="86" pos="24480" len="86"/>
          <note pan="0" key="32" vol="86" pos="24480" len="86"/>
          <note pan="0" key="53" vol="105" pos="24504" len="21"/>
          <note pan="0" key="56" vol="127" pos="24528" len="43"/>
          <note pan="0" key="57" vol="117" pos="24576" len="129"/>
          <note pan="0" key="40" vol="89" pos="24576" len="129"/>
          <note pan="0" key="36" vol="89" pos="24576" len="129"/>
          <note pan="0" key="33" vol="89" pos="24576" len="129"/>
          <note pan="0" key="48" vol="127" pos="24768" len="21"/>
          <note pan="0" key="36" vol="89" pos="24768" len="21"/>
          <note pan="0" key="40" vol="89" pos="24768" len="21"/>
          <note pan="0" key="45" vol="89" pos="24768" len="21"/>
          <note pan="0" key="48" vol="120" pos="24816" len="21"/>
          <note pan="0" key="40" vol="89" pos="24816" len="21"/>
          <note pan="0" key="44" vol="89" pos="24816" len="21"/>
          <note pan="0" key="35" vol="89" pos="24816" len="21"/>
          <note pan="0" key="48" vol="126" pos="24864" len="64"/>
          <note pan="0" key="33" vol="99" pos="24864" len="64"/>
          <note pan="0" key="40" vol="99" pos="24864" len="64"/>
          <note pan="0" key="45" vol="99" pos="24864" len="64"/>
          <note pan="0" key="31" vol="127" pos="24936" len="21"/>
          <note pan="0" key="35" vol="127" pos="24936" len="21"/>
          <note pan="0" key="38" vol="127" pos="24936" len="21"/>
          <note pan="0" key="48" vol="100" pos="24960" len="64"/>
          <note pan="0" key="31" vol="117" pos="24960" len="172"/>
          <note pan="0" key="36" vol="117" pos="24960" len="172"/>
          <note pan="0" key="43" vol="117" pos="24960" len="172"/>
          <note pan="0" key="50" vol="90" pos="25032" len="21"/>
          <note pan="0" key="52" vol="97" pos="25056" len="64"/>
          <note pan="0" key="50" vol="100" pos="25152" len="43"/>
          <note pan="0" key="31" vol="117" pos="25152" len="172"/>
          <note pan="0" key="38" vol="117" pos="25152" len="172"/>
          <note pan="0" key="47" vol="117" pos="25152" len="172"/>
          <note pan="0" key="50" vol="90" pos="25224" len="21"/>
          <note pan="0" key="50" vol="97" pos="25248" len="43"/>
          <note pan="0" key="48" vol="120" pos="25296" len="21"/>
          <note pan="0" key="50" vol="100" pos="25344" len="64"/>
          <note pan="0" key="31" vol="117" pos="25344" len="172"/>
          <note pan="0" key="38" vol="117" pos="25344" len="172"/>
          <note pan="0" key="41" vol="117" pos="25344" len="172"/>
          <note pan="0" key="52" vol="90" pos="25416" len="21"/>
          <note pan="0" key="53" vol="97" pos="25440" len="64"/>
          <note pan="0" key="48" vol="127" pos="25536" len="21"/>
          <note pan="0" key="43" vol="89" pos="25536" len="21"/>
          <note pan="0" key="40" vol="89" pos="25536" len="21"/>
          <note pan="0" key="36" vol="89" pos="25536" len="21"/>
          <note pan="0" key="48" vol="120" pos="25584" len="21"/>
          <note pan="0" key="45" vol="89" pos="25584" len="21"/>
          <note pan="0" key="41" vol="89" pos="25584" len="21"/>
          <note pan="0" key="36" vol="89" pos="25584" len="21"/>
          <note pan="0" key="48" vol="126" pos="25632" len="64"/>
          <note pan="0" key="43" vol="99" pos="25632" len="64"/>
          <note pan="0" key="40" vol="99" pos="25632" len="64"/>
          <note pan="0" key="36" vol="99" pos="25632" len="64"/>
          <note pan="0" key="44" vol="127" pos="25704" len="21"/>
          <note pan="0" key="35" vol="127" pos="25704" len="21"/>
          <note pan="0" key="40" vol="127" pos="25704" len="21"/>
          <note pan="0" key="48" vol="100" pos="25728" len="64"/>
          <note pan="0" key="36" vol="117" pos="25728" len="172"/>
          <note pan="0" key="40" vol="117" pos="25728" len="172"/>
          <note pan="0" key="45" vol="117" pos="25728" len="172"/>
          <note pan="0" key="50" vol="90" pos="25800" len="21"/>
          <note pan="0" key="52" vol="97" pos="25824" len="64"/>
          <note pan="0" key="50" vol="100" pos="25920" len="64"/>
          <note pan="0" key="33" vol="117" pos="25920" len="86"/>
          <note pan="0" key="41" vol="117" pos="25920" len="86"/>
          <note pan="0" key="45" vol="117" pos="25920" len="86"/>
          <note pan="0" key="52" vol="118" pos="26016" len="43"/>
          <note pan="0" key="50" vol="114" pos="26064" len="43"/>
          <note pan="0" key="47" vol="123" pos="26112" len="43"/>
          <note pan="0" key="44" vol="114" pos="26160" len="43"/>
          <note pan="0" key="45" vol="118" pos="26208" len="43"/>
          <note pan="0" key="48" vol="118" pos="26208" len="43"/>
          <note pan="0" key="52" vol="118" pos="26208" len="43"/>
          <note pan="0" key="48" vol="100" pos="26304" len="21"/>
          <note pan="0" key="36" vol="67" pos="26304" len="129"/>
          <note pan="0" key="40" vol="67" pos="26304" len="129"/>
          <note pan="0" key="45" vol="67" pos="26304" len="129"/>
          <note pan="0" key="48" vol="93" pos="26352" len="21"/>
          <note pan="0" key="48" vol="97" pos="26400" len="43"/>
          <note pan="0" key="45" vol="120" pos="26448" len="43"/>
          <note pan="0" key="38" vol="68" pos="26448" len="43"/>
          <note pan="0" key="41" vol="68" pos="26448" len="43"/>
          <note pan="0" key="45" vol="68" pos="26448" len="43"/>
          <note pan="0" key="48" vol="127" pos="26496" len="64"/>
          <note pan="0" key="36" vol="76" pos="26496" len="64"/>
          <note pan="0" key="40" vol="76" pos="26496" len="64"/>
          <note pan="0" key="45" vol="76" pos="26496" len="64"/>
          <note pan="0" key="50" vol="117" pos="26568" len="21"/>
          <note pan="0" key="35" vol="71" pos="26568" len="21"/>
          <note pan="0" key="40" vol="71" pos="26568" len="21"/>
          <note pan="0" key="44" vol="71" pos="26568" len="21"/>
          <note pan="0" key="52" vol="126" pos="26592" len="43"/>
          <note pan="0" key="33" vol="77" pos="26592" len="86"/>
          <note pan="0" key="36" vol="77" pos="26592" len="86"/>
          <note pan="0" key="45" vol="77" pos="26592" len="86"/>
          <note pan="0" key="50" vol="100" pos="26688" len="43"/>
          <note pan="0" key="33" vol="85" pos="26688" len="129"/>
          <note pan="0" key="38" vol="85" pos="26688" len="129"/>
          <note pan="0" key="41" vol="85" pos="26688" len="129"/>
          <note pan="0" key="50" vol="90" pos="26760" len="21"/>
          <note pan="0" key="50" vol="97" pos="26784" len="43"/>
          <note pan="0" key="48" vol="120" pos="26832" len="43"/>
          <note pan="0" key="36" vol="85" pos="26832" len="43"/>
          <note pan="0" key="40" vol="85" pos="26832" len="43"/>
          <note pan="0" key="45" vol="85" pos="26832" len="43"/>
          <note pan="0" key="50" vol="127" pos="26880" len="64"/>
          <note pan="0" key="35" vol="95" pos="26880" len="64"/>
          <note pan="0" key="40" vol="95" pos="26880" len="64"/>
          <note pan="0" key="44" vol="95" pos="26880" len="64"/>
          <note pan="0" key="52" vol="117" pos="26952" len="21"/>
          <note pan="0" key="36" vol="88" pos="26952" len="21"/>
          <note pan="0" key="40" vol="88" pos="26952" len="21"/>
          <note pan="0" key="45" vol="88" pos="26952" len="21"/>
          <note pan="0" key="53" vol="126" pos="26976" len="64"/>
          <note pan="0" key="33" vol="96" pos="26976" len="64"/>
          <note pan="0" key="36" vol="96" pos="26976" len="64"/>
          <note pan="0" key="45" vol="96" pos="26976" len="64"/>
          <note pan="0" key="48" vol="100" pos="27072" len="21"/>
          <note pan="0" key="31" vol="104" pos="27072" len="129"/>
          <note pan="0" key="36" vol="104" pos="27072" len="129"/>
          <note pan="0" key="40" vol="104" pos="27072" len="129"/>
          <note pan="0" key="48" vol="93" pos="27120" len="21"/>
          <note pan="0" key="48" vol="97" pos="27168" len="43"/>
          <note pan="0" key="45" vol="120" pos="27216" len="43"/>
          <note pan="0" key="33" vol="102" pos="27216" len="43"/>
          <note pan="0" key="36" vol="102" pos="27216" len="43"/>
          <note pan="0" key="41" vol="102" pos="27216" len="43"/>
          <note pan="0" key="48" vol="127" pos="27264" len="64"/>
          <note pan="0" key="36" vol="113" pos="27264" len="64"/>
          <note pan="0" key="40" vol="113" pos="27264" len="64"/>
          <note pan="0" key="31" vol="113" pos="27264" len="64"/>
          <note pan="0" key="50" vol="117" pos="27336" len="21"/>
          <note pan="0" key="31" vol="104" pos="27336" len="21"/>
          <note pan="0" key="35" vol="104" pos="27336" len="21"/>
          <note pan="0" key="38" vol="104" pos="27336" len="21"/>
          <note pan="0" key="52" vol="126" pos="27360" len="64"/>
          <note pan="0" key="36" vol="113" pos="27360" len="64"/>
          <note pan="0" key="40" vol="113" pos="27360" len="64"/>
          <note pan="0" key="44" vol="113" pos="27360" len="64"/>
          <note pan="0" key="36" vol="127" pos="27432" len="21"/>
          <note pan="0" key="40" vol="127" pos="27432" len="21"/>
          <note pan="0" key="45" vol="127" pos="27432" len="21"/>
          <note pan="0" key="50" vol="100" pos="27456" len="64"/>
          <note pan="0" key="38" vol="123" pos="27456" len="64"/>
          <note pan="0" key="41" vol="123" pos="27456" len="64"/>
          <note pan="0" key="45" vol="123" pos="27456" len="64"/>
          <note pan="0" key="52" vol="118" pos="27552" len="43"/>
          <note pan="0" key="50" vol="114" pos="27600" len="43"/>
          <note pan="0" key="47" vol="123" pos="27648" len="43"/>
          <note pan="0" key="44" vol="114" pos="27696" len="43"/>
          <note pan="0" key="45" vol="118" pos="27744" len="43"/>
          <note pan="0" key="52" vol="118" pos="27744" len="43"/>
          <note pan="0" key="48" vol="118" pos="27744" len="43"/>
          <note pan="0" key="45" vol="93" pos="27792" len="43"/>
          <note pan="0" key="48" vol="100" pos="27840" len="64"/>
          <note pan="0" key="33" vol="67" pos="27840" len="43"/>
          <note pan="0" key="36" vol="67" pos="27840" len="43"/>
          <note pan="0" key="40" vol="67" pos="27840" len="43"/>
          <note pan="0" key="33" vol="62" pos="27888" len="43"/>
          <note pan="0" key="36" vol="62" pos="27888" len="43"/>
          <note pan="0" key="50" vol="90" pos="27912" len="21"/>
          <note pan="0" key="52" vol="97" pos="27936" len="43"/>
          <note pan="0" key="40" vol="64" pos="27936" len="43"/>
          <note pan="0" key="33" vol="64" pos="27936" len="43"/>
          <note pan="0" key="45" vol="93" pos="27984" len="43"/>
          <note pan="0" key="33" vol="62" pos="27984" len="43"/>
          <note pan="0" key="36" vol="62" pos="27984" len="43"/>
          <note pan="0" key="48" vol="100" pos="28032" len="64"/>
          <note pan="0" key="33" vol="67" pos="28032" len="43"/>
          <note pan="0" key="40" vol="67" pos="28032" len="43"/>
          <note pan="0" key="36" vol="67" pos="28032" len="43"/>
          <note pan="0" key="36" vol="62" pos="28080" len="43"/>
          <note pan="0" key="33" vol="62" pos="28080" len="43"/>
          <note pan="0" key="50" vol="90" pos="28104" len="21"/>
          <note pan="0" key="52" vol="97" pos="28128" len="43"/>
          <note pan="0" key="33" vol="64" pos="28128" len="43"/>
          <note pan="0" key="40" vol="64" pos="28128" len="43"/>
          <note pan="0" key="45" vol="93" pos="28176" len="43"/>
          <note pan="0" key="36" vol="62" pos="28176" len="43"/>
          <note pan="0" key="33" vol="62" pos="28176" len="43"/>
          <note pan="0" key="48" vol="100" pos="28224" len="64"/>
          <note pan="0" key="40" vol="67" pos="28224" len="43"/>
          <note pan="0" key="36" vol="67" pos="28224" len="43"/>
          <note pan="0" key="33" vol="67" pos="28224" len="43"/>
          <note pan="0" key="33" vol="78" pos="28272" len="43"/>
          <note pan="0" key="36" vol="78" pos="28272" len="43"/>
          <note pan="0" key="50" vol="90" pos="28296" len="21"/>
          <note pan="0" key="52" vol="97" pos="28320" len="43"/>
          <note pan="0" key="37" vol="98" pos="28320" len="43"/>
          <note pan="0" key="43" vol="98" pos="28320" len="43"/>
          <note pan="0" key="33" vol="98" pos="28320" len="43"/>
          <note pan="0" key="53" vol="93" pos="28368" len="43"/>
          <note pan="0" key="33" vol="109" pos="28368" len="43"/>
          <note pan="0" key="41" vol="109" pos="28368" len="43"/>
          <note pan="0" key="38" vol="109" pos="28368" len="43"/>
          <note pan="0" key="52" vol="100" pos="28416" len="43"/>
          <note pan="0" key="35" vol="117" pos="28416" len="43"/>
          <note pan="0" key="38" vol="117" pos="28416" len="43"/>
          <note pan="0" key="32" vol="117" pos="28416" len="43"/>
          <note pan="0" key="50" vol="93" pos="28464" len="43"/>
          <note pan="0" key="38" vol="92" pos="28464" len="43"/>
          <note pan="0" key="40" vol="92" pos="28464" len="43"/>
          <note pan="0" key="35" vol="92" pos="28464" len="43"/>
          <note pan="0" key="48" vol="97" pos="28512" len="43"/>
          <note pan="0" key="33" vol="78" pos="28512" len="43"/>
          <note pan="0" key="36" vol="78" pos="28512" len="43"/>
          <note pan="0" key="40" vol="78" pos="28512" len="43"/>
          <note pan="0" key="45" vol="93" pos="28560" len="43"/>
          <note pan="0" key="33" vol="62" pos="28560" len="43"/>
          <note pan="0" key="36" vol="62" pos="28560" len="43"/>
          <note pan="0" key="48" vol="100" pos="28608" len="64"/>
          <note pan="0" key="33" vol="67" pos="28608" len="43"/>
          <note pan="0" key="40" vol="67" pos="28608" len="43"/>
          <note pan="0" key="36" vol="67" pos="28608" len="43"/>
          <note pan="0" key="33" vol="62" pos="28656" len="43"/>
          <note pan="0" key="36" vol="62" pos="28656" len="43"/>
          <note pan="0" key="50" vol="90" pos="28680" len="21"/>
          <note pan="0" key="52" vol="97" pos="28704" len="43"/>
          <note pan="0" key="33" vol="64" pos="28704" len="43"/>
          <note pan="0" key="40" vol="64" pos="28704" len="43"/>
          <note pan="0" key="45" vol="93" pos="28752" len="43"/>
          <note pan="0" key="33" vol="62" pos="28752" len="43"/>
          <note pan="0" key="36" vol="62" pos="28752" len="43"/>
          <note pan="0" key="48" vol="100" pos="28800" len="64"/>
          <note pan="0" key="33" vol="67" pos="28800" len="43"/>
          <note pan="0" key="36" vol="67" pos="28800" len="43"/>
          <note pan="0" key="40" vol="67" pos="28800" len="43"/>
          <note pan="0" key="33" vol="62" pos="28848" len="43"/>
          <note pan="0" key="36" vol="62" pos="28848" len="43"/>
          <note pan="0" key="50" vol="90" pos="28872" len="21"/>
          <note pan="0" key="52" vol="97" pos="28896" len="43"/>
          <note pan="0" key="33" vol="64" pos="28896" len="43"/>
          <note pan="0" key="40" vol="64" pos="28896" len="43"/>
          <note pan="0" key="45" vol="93" pos="28944" len="43"/>
          <note pan="0" key="36" vol="62" pos="28944" len="43"/>
          <note pan="0" key="33" vol="62" pos="28944" len="43"/>
          <note pan="0" key="48" vol="100" pos="28992" len="64"/>
          <note pan="0" key="33" vol="67" pos="28992" len="43"/>
          <note pan="0" key="36" vol="67" pos="28992" len="43"/>
          <note pan="0" key="40" vol="67" pos="28992" len="43"/>
          <note pan="0" key="36" vol="78" pos="29040" len="43"/>
          <note pan="0" key="33" vol="78" pos="29040" len="43"/>
          <note pan="0" key="50" vol="90" pos="29064" len="21"/>
          <note pan="0" key="52" vol="97" pos="29088" len="43"/>
          <note pan="0" key="37" vol="98" pos="29088" len="43"/>
          <note pan="0" key="33" vol="98" pos="29088" len="43"/>
          <note pan="0" key="43" vol="98" pos="29088" len="43"/>
          <note pan="0" key="50" vol="93" pos="29136" len="43"/>
          <note pan="0" key="41" vol="109" pos="29136" len="43"/>
          <note pan="0" key="38" vol="109" pos="29136" len="43"/>
          <note pan="0" key="33" vol="109" pos="29136" len="43"/>
          <note pan="0" key="48" vol="100" pos="29184" len="43"/>
          <note pan="0" key="45" vol="117" pos="29184" len="43"/>
          <note pan="0" key="40" vol="117" pos="29184" len="43"/>
          <note pan="0" key="36" vol="117" pos="29184" len="43"/>
          <note pan="0" key="47" vol="93" pos="29232" len="43"/>
          <note pan="0" key="40" vol="105" pos="29232" len="43"/>
          <note pan="0" key="32" vol="105" pos="29232" len="43"/>
          <note pan="0" key="35" vol="105" pos="29232" len="43"/>
          <note pan="0" key="45" vol="97" pos="29280" len="182"/>
          <note pan="0" key="33" vol="104" pos="29280" len="182"/>
          <note pan="0" key="36" vol="104" pos="29280" len="182"/>
          <note pan="0" key="40" vol="104" pos="29280" len="182"/>
          <note pan="0" key="53" vol="97" pos="29472" len="43"/>
          <note pan="0" key="33" vol="97" pos="29472" len="43"/>
          <note pan="0" key="41" vol="97" pos="29472" len="43"/>
          <note pan="0" key="38" vol="97" pos="29472" len="43"/>
          <note pan="0" key="52" vol="93" pos="29520" len="43"/>
          <note pan="0" key="38" vol="93" pos="29520" len="43"/>
          <note pan="0" key="33" vol="93" pos="29520" len="43"/>
          <note pan="0" key="50" vol="100" pos="29568" len="43"/>
          <note pan="0" key="40" vol="100" pos="29568" len="43"/>
          <note pan="0" key="36" vol="100" pos="29568" len="43"/>
          <note pan="0" key="33" vol="100" pos="29568" len="43"/>
          <note pan="0" key="48" vol="93" pos="29616" len="43"/>
          <note pan="0" key="40" vol="93" pos="29616" len="43"/>
          <note pan="0" key="36" vol="93" pos="29616" len="43"/>
          <note pan="0" key="38" vol="93" pos="29616" len="43"/>
          <note pan="0" key="33" vol="93" pos="29616" len="43"/>
          <note pan="0" key="47" vol="97" pos="29664" len="172"/>
          <note pan="0" key="40" vol="97" pos="29664" len="172"/>
          <note pan="0" key="32" vol="97" pos="29664" len="172"/>
          <note pan="0" key="38" vol="97" pos="29664" len="172"/>
          <note pan="0" key="55" vol="97" pos="29856" len="43"/>
          <note pan="0" key="40" vol="97" pos="29856" len="43"/>
          <note pan="0" key="37" vol="97" pos="29856" len="43"/>
          <note pan="0" key="33" vol="97" pos="29856" len="43"/>
          <note pan="0" key="53" vol="93" pos="29904" len="43"/>
          <note pan="0" key="37" vol="93" pos="29904" len="43"/>
          <note pan="0" key="33" vol="93" pos="29904" len="43"/>
          <note pan="0" key="52" vol="100" pos="29952" len="43"/>
          <note pan="0" key="40" vol="100" pos="29952" len="43"/>
          <note pan="0" key="44" vol="100" pos="29952" len="43"/>
          <note pan="0" key="35" vol="100" pos="29952" len="43"/>
          <note pan="0" key="50" vol="93" pos="30000" len="43"/>
          <note pan="0" key="40" vol="93" pos="30000" len="43"/>
          <note pan="0" key="35" vol="93" pos="30000" len="43"/>
          <note pan="0" key="48" vol="97" pos="30048" len="43"/>
          <note pan="0" key="33" vol="97" pos="30048" len="43"/>
          <note pan="0" key="40" vol="97" pos="30048" len="43"/>
          <note pan="0" key="50" vol="93" pos="30096" len="43"/>
          <note pan="0" key="38" vol="93" pos="30096" len="43"/>
          <note pan="0" key="33" vol="93" pos="30096" len="43"/>
          <note pan="0" key="41" vol="93" pos="30096" len="43"/>
          <note pan="0" key="52" vol="100" pos="30144" len="43"/>
          <note pan="0" key="33" vol="100" pos="30144" len="43"/>
          <note pan="0" key="40" vol="100" pos="30144" len="43"/>
          <note pan="0" key="36" vol="100" pos="30144" len="43"/>
          <note pan="0" key="53" vol="93" pos="30192" len="43"/>
          <note pan="0" key="33" vol="82" pos="30192" len="43"/>
          <note pan="0" key="38" vol="82" pos="30192" len="43"/>
          <note pan="0" key="52" vol="97" pos="30240" len="43"/>
          <note pan="0" key="37" vol="74" pos="30240" len="43"/>
          <note pan="0" key="33" vol="74" pos="30240" len="43"/>
          <note pan="0" key="40" vol="74" pos="30240" len="43"/>
          <note pan="0" key="50" vol="93" pos="30288" len="43"/>
          <note pan="0" key="33" vol="62" pos="30288" len="43"/>
          <note pan="0" key="38" vol="62" pos="30288" len="43"/>
          <note pan="0" key="41" vol="62" pos="30288" len="43"/>
          <note pan="0" key="53" vol="100" pos="30336" len="64"/>
          <note pan="0" key="45" vol="67" pos="30336" len="43"/>
          <note pan="0" key="38" vol="67" pos="30336" len="43"/>
          <note pan="0" key="41" vol="67" pos="30336" len="43"/>
          <note pan="0" key="38" vol="62" pos="30384" len="43"/>
          <note pan="0" key="41" vol="62" pos="30384" len="43"/>
          <note pan="0" key="55" vol="90" pos="30408" len="21"/>
          <note pan="0" key="57" vol="97" pos="30432" len="43"/>
          <note pan="0" key="38" vol="64" pos="30432" len="43"/>
          <note pan="0" key="45" vol="64" pos="30432" len="43"/>
          <note pan="0" key="50" vol="93" pos="30480" len="43"/>
          <note pan="0" key="41" vol="62" pos="30480" len="43"/>
          <note pan="0" key="38" vol="62" pos="30480" len="43"/>
          <note pan="0" key="53" vol="100" pos="30528" len="64"/>
          <note pan="0" key="38" vol="67" pos="30528" len="43"/>
          <note pan="0" key="41" vol="67" pos="30528" len="43"/>
          <note pan="0" key="45" vol="67" pos="30528" len="43"/>
          <note pan="0" key="41" vol="62" pos="30576" len="43"/>
          <note pan="0" key="38" vol="62" pos="30576" len="43"/>
          <note pan="0" key="55" vol="90" pos="30600" len="21"/>
          <note pan="0" key="57" vol="97" pos="30624" len="43"/>
          <note pan="0" key="38" vol="64" pos="30624" len="43"/>
          <note pan="0" key="45" vol="64" pos="30624" len="43"/>
          <note pan="0" key="50" vol="93" pos="30672" len="43"/>
          <note pan="0" key="38" vol="62" pos="30672" len="43"/>
          <note pan="0" key="41" vol="62" pos="30672" len="43"/>
          <note pan="0" key="53" vol="100" pos="30720" len="64"/>
          <note pan="0" key="41" vol="67" pos="30720" len="43"/>
          <note pan="0" key="45" vol="67" pos="30720" len="43"/>
          <note pan="0" key="38" vol="67" pos="30720" len="43"/>
          <note pan="0" key="38" vol="78" pos="30768" len="43"/>
          <note pan="0" key="41" vol="78" pos="30768" len="43"/>
          <note pan="0" key="55" vol="90" pos="30792" len="21"/>
          <note pan="0" key="57" vol="97" pos="30816" len="43"/>
          <note pan="0" key="38" vol="98" pos="30816" len="43"/>
          <note pan="0" key="42" vol="98" pos="30816" len="43"/>
          <note pan="0" key="48" vol="98" pos="30816" len="43"/>
          <note pan="0" key="58" vol="93" pos="30864" len="43"/>
          <note pan="0" key="46" vol="109" pos="30864" len="43"/>
          <note pan="0" key="38" vol="109" pos="30864" len="43"/>
          <note pan="0" key="43" vol="109" pos="30864" len="43"/>
          <note pan="0" key="57" vol="100" pos="30912" len="43"/>
          <note pan="0" key="43" vol="117" pos="30912" len="43"/>
          <note pan="0" key="40" vol="117" pos="30912" len="43"/>
          <note pan="0" key="37" vol="117" pos="30912" len="43"/>
          <note pan="0" key="55" vol="93" pos="30960" len="43"/>
          <note pan="0" key="45" vol="92" pos="30960" len="43"/>
          <note pan="0" key="43" vol="92" pos="30960" len="43"/>
          <note pan="0" key="40" vol="92" pos="30960" len="43"/>
          <note pan="0" key="53" vol="97" pos="31008" len="43"/>
          <note pan="0" key="45" vol="78" pos="31008" len="43"/>
          <note pan="0" key="41" vol="78" pos="31008" len="43"/>
          <note pan="0" key="38" vol="78" pos="31008" len="43"/>
          <note pan="0" key="50" vol="93" pos="31056" len="43"/>
          <note pan="0" key="38" vol="62" pos="31056" len="43"/>
          <note pan="0" key="41" vol="62" pos="31056" len="43"/>
          <note pan="0" key="53" vol="100" pos="31104" len="64"/>
          <note pan="0" key="45" vol="67" pos="31104" len="43"/>
          <note pan="0" key="38" vol="67" pos="31104" len="43"/>
          <note pan="0" key="41" vol="67" pos="31104" len="43"/>
          <note pan="0" key="38" vol="62" pos="31152" len="43"/>
          <note pan="0" key="41" vol="62" pos="31152" len="43"/>
          <note pan="0" key="55" vol="90" pos="31176" len="21"/>
          <note pan="0" key="57" vol="97" pos="31200" len="43"/>
          <note pan="0" key="45" vol="64" pos="31200" len="43"/>
          <note pan="0" key="38" vol="64" pos="31200" len="43"/>
          <note pan="0" key="50" vol="93" pos="31248" len="43"/>
          <note pan="0" key="41" vol="62" pos="31248" len="43"/>
          <note pan="0" key="38" vol="62" pos="31248" len="43"/>
          <note pan="0" key="53" vol="100" pos="31296" len="64"/>
          <note pan="0" key="45" vol="67" pos="31296" len="43"/>
          <note pan="0" key="41" vol="67" pos="31296" len="43"/>
          <note pan="0" key="38" vol="67" pos="31296" len="43"/>
          <note pan="0" key="41" vol="62" pos="31344" len="43"/>
          <note pan="0" key="38" vol="62" pos="31344" len="43"/>
          <note pan="0" key="55" vol="90" pos="31368" len="21"/>
          <note pan="0" key="57" vol="97" pos="31392" len="43"/>
          <note pan="0" key="38" vol="64" pos="31392" len="43"/>
          <note pan="0" key="45" vol="64" pos="31392" len="43"/>
          <note pan="0" key="50" vol="93" pos="31440" len="43"/>
          <note pan="0" key="41" vol="62" pos="31440" len="43"/>
          <note pan="0" key="38" vol="62" pos="31440" len="43"/>
          <note pan="0" key="53" vol="100" pos="31488" len="64"/>
          <note pan="0" key="41" vol="67" pos="31488" len="43"/>
          <note pan="0" key="45" vol="67" pos="31488" len="43"/>
          <note pan="0" key="38" vol="67" pos="31488" len="43"/>
          <note pan="0" key="41" vol="78" pos="31536" len="43"/>
          <note pan="0" key="38" vol="78" pos="31536" len="43"/>
          <note pan="0" key="55" vol="90" pos="31560" len="21"/>
          <note pan="0" key="57" vol="97" pos="31584" len="43"/>
          <note pan="0" key="48" vol="98" pos="31584" len="43"/>
          <note pan="0" key="38" vol="98" pos="31584" len="43"/>
          <note pan="0" key="42" vol="98" pos="31584" len="43"/>
          <note pan="0" key="55" vol="93" pos="31632" len="43"/>
          <note pan="0" key="46" vol="109" pos="31632" len="43"/>
          <note pan="0" key="43" vol="109" pos="31632" len="43"/>
          <note pan="0" key="38" vol="109" pos="31632" len="43"/>
          <note pan="0" key="53" vol="100" pos="31680" len="43"/>
          <note pan="0" key="45" vol="117" pos="31680" len="172"/>
          <note pan="0" key="41" vol="117" pos="31680" len="172"/>
          <note pan="0" key="38" vol="117" pos="31680" len="172"/>
          <note pan="0" key="52" vol="93" pos="31728" len="43"/>
          <note pan="0" key="50" vol="97" pos="31776" len="43"/>
          <note pan="0" key="44" vol="93" pos="31824" len="43"/>
          <note pan="0" key="47" vol="100" pos="31872" len="86"/>
          <note pan="0" key="48" vol="97" pos="31968" len="43"/>
          <note pan="0" key="57" vol="97" pos="31968" len="43"/>
          <note pan="0" key="45" vol="97" pos="31968" len="43"/>
          <note pan="0" key="45" vol="93" pos="32016" len="43"/>
          <note pan="0" key="48" vol="100" pos="32064" len="64"/>
          <note pan="0" key="33" vol="89" pos="32064" len="187"/>
          <note pan="0" key="40" vol="89" pos="32064" len="187"/>
          <note pan="0" key="45" vol="89" pos="32064" len="144"/>
          <note pan="0" key="50" vol="90" pos="32136" len="21"/>
          <note pan="0" key="52" vol="97" pos="32160" len="43"/>
          <note pan="0" key="45" vol="93" pos="32208" len="43"/>
          <note pan="0" key="48" vol="100" pos="32256" len="64"/>
          <note pan="0" key="33" vol="89" pos="32256" len="187"/>
          <note pan="0" key="40" vol="89" pos="32256" len="187"/>
          <note pan="0" key="45" vol="89" pos="32256" len="144"/>
          <note pan="0" key="50" vol="90" pos="32328" len="21"/>
          <note pan="0" key="52" vol="97" pos="32352" len="43"/>
          <note pan="0" key="45" vol="93" pos="32400" len="43"/>
          <note pan="0" key="50" vol="100" pos="32448" len="64"/>
          <note pan="0" key="38" vol="89" pos="32448" len="187"/>
          <note pan="0" key="41" vol="89" pos="32448" len="187"/>
          <note pan="0" key="45" vol="89" pos="32448" len="144"/>
          <note pan="0" key="52" vol="90" pos="32520" len="21"/>
          <note pan="0" key="53" vol="97" pos="32544" len="43"/>
          <note pan="0" key="45" vol="93" pos="32592" len="43"/>
          <note pan="0" key="50" vol="100" pos="32640" len="64"/>
          <note pan="0" key="41" vol="89" pos="32640" len="86"/>
          <note pan="0" key="38" vol="89" pos="32640" len="86"/>
          <note pan="0" key="45" vol="89" pos="32640" len="86"/>
          <note pan="0" key="52" vol="90" pos="32712" len="21"/>
          <note pan="0" key="53" vol="97" pos="32736" len="43"/>
          <note pan="0" key="41" vol="127" pos="32736" len="86"/>
          <note pan="0" key="35" vol="127" pos="32736" len="86"/>
          <note pan="0" key="39" vol="127" pos="32736" len="86"/>
          <note pan="0" key="44" vol="93" pos="32784" len="43"/>
          <note pan="0" key="47" vol="100" pos="32832" len="64"/>
          <note pan="0" key="35" vol="89" pos="32832" len="187"/>
          <note pan="0" key="44" vol="89" pos="32832" len="144"/>
          <note pan="0" key="40" vol="89" pos="32832" len="187"/>
          <note pan="0" key="48" vol="90" pos="32904" len="21"/>
          <note pan="0" key="50" vol="97" pos="32928" len="43"/>
          <note pan="0" key="44" vol="93" pos="32976" len="43"/>
          <note pan="0" key="47" vol="100" pos="33024" len="64"/>
          <note pan="0" key="40" vol="89" pos="33024" len="187"/>
          <note pan="0" key="44" vol="89" pos="33024" len="144"/>
          <note pan="0" key="35" vol="89" pos="33024" len="187"/>
          <note pan="0" key="48" vol="90" pos="33096" len="21"/>
          <note pan="0" key="50" vol="97" pos="33120" len="43"/>
          <note pan="0" key="45" vol="93" pos="33168" len="43"/>
          <note pan="0" key="48" vol="100" pos="33216" len="64"/>
          <note pan="0" key="33" vol="89" pos="33216" len="187"/>
          <note pan="0" key="45" vol="89" pos="33216" len="144"/>
          <note pan="0" key="40" vol="89" pos="33216" len="187"/>
          <note pan="0" key="50" vol="90" pos="33288" len="21"/>
          <note pan="0" key="52" vol="97" pos="33312" len="43"/>
          <note pan="0" key="45" vol="93" pos="33360" len="43"/>
          <note pan="0" key="48" vol="100" pos="33408" len="64"/>
          <note pan="0" key="40" vol="89" pos="33408" len="187"/>
          <note pan="0" key="45" vol="89" pos="33408" len="144"/>
          <note pan="0" key="33" vol="89" pos="33408" len="187"/>
          <note pan="0" key="50" vol="90" pos="33480" len="21"/>
          <note pan="0" key="52" vol="97" pos="33504" len="43"/>
          <note pan="0" key="48" vol="93" pos="33552" len="43"/>
          <note pan="0" key="50" vol="100" pos="33600" len="64"/>
          <note pan="0" key="45" vol="89" pos="33600" len="172"/>
          <note pan="0" key="33" vol="89" pos="33600" len="172"/>
          <note pan="0" key="41" vol="89" pos="33600" len="172"/>
          <note pan="0" key="52" vol="90" pos="33672" len="21"/>
          <note pan="0" key="53" vol="97" pos="33696" len="43"/>
          <note pan="0" key="50" vol="93" pos="33744" len="43"/>
          <note pan="0" key="52" vol="100" pos="33792" len="64"/>
          <note pan="0" key="43" vol="89" pos="33792" len="172"/>
          <note pan="0" key="47" vol="89" pos="33792" len="172"/>
          <note pan="0" key="40" vol="89" pos="33792" len="172"/>
          <note pan="0" key="53" vol="90" pos="33864" len="21"/>
          <note pan="0" key="55" vol="97" pos="33888" len="43"/>
          <note pan="0" key="52" vol="93" pos="33936" len="43"/>
          <note pan="0" key="53" vol="100" pos="33984" len="64"/>
          <note pan="0" key="41" vol="89" pos="33984" len="172"/>
          <note pan="0" key="45" vol="89" pos="33984" len="172"/>
          <note pan="0" key="38" vol="89" pos="33984" len="172"/>
          <note pan="0" key="55" vol="90" pos="34056" len="21"/>
          <note pan="0" key="57" vol="97" pos="34080" len="43"/>
          <note pan="0" key="53" vol="93" pos="34128" len="43"/>
          <note pan="0" key="56" vol="100" pos="34176" len="64"/>
          <note pan="0" key="44" vol="89" pos="34176" len="172"/>
          <note pan="0" key="35" vol="89" pos="34176" len="172"/>
          <note pan="0" key="40" vol="89" pos="34176" len="172"/>
          <note pan="0" key="57" vol="90" pos="34248" len="21"/>
          <note pan="0" key="59" vol="97" pos="34272" len="43"/>
          <note pan="0" key="52" vol="93" pos="34320" len="43"/>
          <note pan="0" key="56" vol="100" pos="34368" len="64"/>
          <note pan="0" key="44" vol="89" pos="34368" len="172"/>
          <note pan="0" key="38" vol="89" pos="34368" len="172"/>
          <note pan="0" key="35" vol="89" pos="34368" len="172"/>
          <note pan="0" key="57" vol="90" pos="34440" len="21"/>
          <note pan="0" key="59" vol="97" pos="34464" len="43"/>
          <note pan="0" key="52" vol="93" pos="34512" len="43"/>
          <note pan="0" key="57" vol="100" pos="34560" len="64"/>
          <note pan="0" key="48" vol="89" pos="34560" len="172"/>
          <note pan="0" key="40" vol="89" pos="34560" len="172"/>
          <note pan="0" key="45" vol="89" pos="34560" len="172"/>
          <note pan="0" key="59" vol="90" pos="34632" len="21"/>
          <note pan="0" key="60" vol="97" pos="34656" len="43"/>
          <note pan="0" key="52" vol="93" pos="34704" len="43"/>
          <note pan="0" key="57" vol="100" pos="34752" len="64"/>
          <note pan="0" key="45" vol="89" pos="34752" len="172"/>
          <note pan="0" key="41" vol="89" pos="34752" len="172"/>
          <note pan="0" key="48" vol="89" pos="34752" len="172"/>
          <note pan="0" key="59" vol="90" pos="34824" len="21"/>
          <note pan="0" key="60" vol="97" pos="34848" len="43"/>
          <note pan="0" key="52" vol="93" pos="34896" len="43"/>
          <note pan="0" key="57" vol="100" pos="34944" len="64"/>
          <note pan="0" key="48" vol="89" pos="34944" len="172"/>
          <note pan="0" key="40" vol="89" pos="34944" len="172"/>
          <note pan="0" key="45" vol="89" pos="34944" len="172"/>
          <note pan="0" key="59" vol="90" pos="35016" len="21"/>
          <note pan="0" key="60" vol="97" pos="35040" len="43"/>
          <note pan="0" key="59" vol="93" pos="35088" len="43"/>
          <note pan="0" key="57" vol="127" pos="35136" len="43"/>
          <note pan="0" key="45" vol="127" pos="35136" len="43"/>
          <note pan="0" key="48" vol="127" pos="35136" len="43"/>
          <note pan="0" key="40" vol="127" pos="35136" len="43"/>
          <note pan="0" key="56" vol="120" pos="35184" len="43"/>
          <note pan="0" key="40" vol="127" pos="35184" len="43"/>
          <note pan="0" key="47" vol="127" pos="35184" len="43"/>
          <note pan="0" key="35" vol="127" pos="35184" len="43"/>
          <note pan="0" key="57" vol="126" pos="35232" len="86"/>
          <note pan="0" key="40" vol="127" pos="35232" len="86"/>
          <note pan="0" key="48" vol="127" pos="35232" len="86"/>
          <note pan="0" key="45" vol="127" pos="35232" len="86"/>
          <note pan="0" key="57" vol="100" pos="35328" len="21"/>
          <note pan="0" key="45" vol="117" pos="35328" len="172"/>
          <note pan="0" key="57" vol="93" pos="35376" len="21"/>
          <note pan="0" key="57" vol="97" pos="35424" len="43"/>
          <note pan="0" key="59" vol="90" pos="35496" len="21"/>
          <note pan="0" key="60" vol="100" pos="35520" len="21"/>
          <note pan="0" key="45" vol="117" pos="35520" len="172"/>
          <note pan="0" key="57" vol="93" pos="35568" len="21"/>
          <note pan="0" key="57" vol="97" pos="35616" len="43"/>
          <note pan="0" key="57" vol="90" pos="35688" len="21"/>
          <note pan="0" key="59" vol="100" pos="35712" len="21"/>
          <note pan="0" key="40" vol="117" pos="35712" len="172"/>
          <note pan="0" key="59" vol="93" pos="35760" len="21"/>
          <note pan="0" key="59" vol="97" pos="35808" len="21"/>
          <note pan="0" key="60" vol="90" pos="35832" len="21"/>
          <note pan="0" key="62" vol="93" pos="35856" len="21"/>
          <note pan="0" key="59" vol="90" pos="35880" len="21"/>
          <note pan="0" key="60" vol="127" pos="35904" len="21"/>
          <note pan="0" key="45" vol="117" pos="35904" len="172"/>
          <note pan="0" key="57" vol="120" pos="35952" len="21"/>
          <note pan="0" key="57" vol="126" pos="36000" len="64"/>
          <note pan="0" key="57" vol="100" pos="36096" len="21"/>
          <note pan="0" key="45" vol="117" pos="36096" len="172"/>
          <note pan="0" key="57" vol="93" pos="36144" len="21"/>
          <note pan="0" key="57" vol="97" pos="36192" len="43"/>
          <note pan="0" key="59" vol="90" pos="36264" len="21"/>
          <note pan="0" key="60" vol="100" pos="36288" len="21"/>
          <note pan="0" key="45" vol="117" pos="36288" len="172"/>
          <note pan="0" key="57" vol="93" pos="36336" len="21"/>
          <note pan="0" key="57" vol="97" pos="36384" len="43"/>
          <note pan="0" key="57" vol="90" pos="36456" len="21"/>
          <note pan="0" key="59" vol="100" pos="36480" len="21"/>
          <note pan="0" key="40" vol="117" pos="36480" len="172"/>
          <note pan="0" key="59" vol="93" pos="36528" len="21"/>
          <note pan="0" key="59" vol="97" pos="36576" len="21"/>
          <note pan="0" key="60" vol="90" pos="36600" len="21"/>
          <note pan="0" key="62" vol="93" pos="36624" len="21"/>
          <note pan="0" key="56" vol="90" pos="36648" len="21"/>
          <note pan="0" key="57" vol="127" pos="36672" len="21"/>
          <note pan="0" key="45" vol="127" pos="36672" len="43"/>
          <note pan="0" key="52" vol="120" pos="36720" len="21"/>
          <note pan="0" key="44" vol="127" pos="36720" len="43"/>
          <note pan="0" key="57" vol="126" pos="36768" len="64"/>
          <note pan="0" key="45" vol="127" pos="36768" len="43"/>
          <note pan="0" key="57" vol="127" pos="36864" len="21"/>
          <note pan="0" key="52" vol="127" pos="36864" len="21"/>
          <note pan="0" key="48" vol="117" pos="36864" len="172"/>
          <note pan="0" key="45" vol="117" pos="36864" len="172"/>
          <note pan="0" key="57" vol="127" pos="36912" len="21"/>
          <note pan="0" key="52" vol="127" pos="36912" len="21"/>
          <note pan="0" key="52" vol="127" pos="36960" len="43"/>
          <note pan="0" key="57" vol="127" pos="36960" len="43"/>
          <note pan="0" key="56" vol="90" pos="37032" len="21"/>
          <note pan="0" key="59" vol="90" pos="37032" len="21"/>
          <note pan="0" key="57" vol="100" pos="37056" len="21"/>
          <note pan="0" key="60" vol="100" pos="37056" len="21"/>
          <note pan="0" key="45" vol="117" pos="37056" len="177"/>
          <note pan="0" key="52" vol="117" pos="37056" len="48"/>
          <note pan="0" key="52" vol="93" pos="37104" len="21"/>
          <note pan="0" key="57" vol="93" pos="37104" len="21"/>
          <note pan="0" key="57" vol="97" pos="37152" len="43"/>
          <note pan="0" key="52" vol="97" pos="37152" len="43"/>
          <note pan="0" key="52" vol="90" pos="37224" len="21"/>
          <note pan="0" key="57" vol="90" pos="37224" len="21"/>
          <note pan="0" key="59" vol="100" pos="37248" len="21"/>
          <note pan="0" key="56" vol="100" pos="37248" len="21"/>
          <note pan="0" key="40" vol="117" pos="37248" len="172"/>
          <note pan="0" key="44" vol="117" pos="37248" len="172"/>
          <note pan="0" key="59" vol="93" pos="37296" len="21"/>
          <note pan="0" key="56" vol="93" pos="37296" len="21"/>
          <note pan="0" key="56" vol="97" pos="37344" len="43"/>
          <note pan="0" key="59" vol="97" pos="37344" len="21"/>
          <note pan="0" key="60" vol="90" pos="37368" len="21"/>
          <note pan="0" key="62" vol="93" pos="37392" len="21"/>
          <note pan="0" key="56" vol="90" pos="37416" len="21"/>
          <note pan="0" key="59" vol="90" pos="37416" len="21"/>
          <note pan="0" key="60" vol="127" pos="37440" len="21"/>
          <note pan="0" key="57" vol="127" pos="37440" len="21"/>
          <note pan="0" key="40" vol="117" pos="37440" len="172"/>
          <note pan="0" key="45" vol="117" pos="37440" len="172"/>
          <note pan="0" key="52" vol="127" pos="37488" len="21"/>
          <note pan="0" key="57" vol="127" pos="37488" len="21"/>
          <note pan="0" key="57" vol="127" pos="37536" len="64"/>
          <note pan="0" key="52" vol="127" pos="37536" len="64"/>
          <note pan="0" key="57" vol="127" pos="37632" len="21"/>
          <note pan="0" key="52" vol="127" pos="37632" len="21"/>
          <note pan="0" key="45" vol="117" pos="37632" len="172"/>
          <note pan="0" key="48" vol="117" pos="37632" len="172"/>
          <note pan="0" key="52" vol="127" pos="37680" len="21"/>
          <note pan="0" key="57" vol="127" pos="37680" len="21"/>
          <note pan="0" key="52" vol="127" pos="37728" len="43"/>
          <note pan="0" key="57" vol="127" pos="37728" len="43"/>
          <note pan="0" key="56" vol="90" pos="37800" len="21"/>
          <note pan="0" key="59" vol="90" pos="37800" len="21"/>
          <note pan="0" key="60" vol="100" pos="37824" len="21"/>
          <note pan="0" key="57" vol="100" pos="37824" len="21"/>
          <note pan="0" key="45" vol="117" pos="37824" len="177"/>
          <note pan="0" key="52" vol="117" pos="37824" len="48"/>
          <note pan="0" key="57" vol="93" pos="37872" len="21"/>
          <note pan="0" key="52" vol="93" pos="37872" len="21"/>
          <note pan="0" key="52" vol="97" pos="37920" len="43"/>
          <note pan="0" key="57" vol="97" pos="37920" len="43"/>
          <note pan="0" key="57" vol="90" pos="37992" len="21"/>
          <note pan="0" key="52" vol="90" pos="37992" len="21"/>
          <note pan="0" key="56" vol="100" pos="38016" len="21"/>
          <note pan="0" key="59" vol="100" pos="38016" len="21"/>
          <note pan="0" key="44" vol="117" pos="38016" len="172"/>
          <note pan="0" key="40" vol="117" pos="38016" len="172"/>
          <note pan="0" key="59" vol="93" pos="38064" len="21"/>
          <note pan="0" key="56" vol="93" pos="38064" len="21"/>
          <note pan="0" key="59" vol="97" pos="38112" len="21"/>
          <note pan="0" key="56" vol="97" pos="38112" len="43"/>
          <note pan="0" key="60" vol="90" pos="38136" len="21"/>
          <note pan="0" key="62" vol="93" pos="38160" len="21"/>
          <note pan="0" key="56" vol="90" pos="38184" len="21"/>
          <note pan="0" key="52" vol="90" pos="38184" len="21"/>
          <note pan="0" key="52" vol="127" pos="38208" len="21"/>
          <note pan="0" key="57" vol="127" pos="38208" len="21"/>
          <note pan="0" key="40" vol="127" pos="38208" len="43"/>
          <note pan="0" key="45" vol="127" pos="38208" len="43"/>
          <note pan="0" key="52" vol="120" pos="38256" len="21"/>
          <note pan="0" key="44" vol="127" pos="38256" len="43"/>
          <note pan="0" key="47" vol="127" pos="38256" len="43"/>
          <note pan="0" key="57" vol="126" pos="38304" len="64"/>
          <note pan="0" key="52" vol="127" pos="38304" len="43"/>
          <note pan="0" key="45" vol="127" pos="38304" len="43"/>
          <note pan="0" key="57" vol="117" pos="38400" len="21"/>
          <note pan="0" key="52" vol="89" pos="38400" len="86"/>
          <note pan="0" key="48" vol="89" pos="38400" len="86"/>
          <note pan="0" key="45" vol="89" pos="38400" len="86"/>
          <note pan="0" key="59" vol="105" pos="38424" len="21"/>
          <note pan="0" key="60" vol="109" pos="38448" len="21"/>
          <note pan="0" key="57" vol="105" pos="38472" len="21"/>
          <note pan="0" key="59" vol="113" pos="38496" len="21"/>
          <note pan="0" key="44" vol="86" pos="38496" len="86"/>
          <note pan="0" key="47" vol="86" pos="38496" len="86"/>
          <note pan="0" key="52" vol="86" pos="38496" len="86"/>
          <note pan="0" key="60" vol="105" pos="38520" len="21"/>
          <note pan="0" key="62" vol="109" pos="38544" len="21"/>
          <note pan="0" key="59" vol="105" pos="38568" len="21"/>
          <note pan="0" key="60" vol="117" pos="38592" len="21"/>
          <note pan="0" key="48" vol="89" pos="38592" len="86"/>
          <note pan="0" key="45" vol="89" pos="38592" len="86"/>
          <note pan="0" key="40" vol="89" pos="38592" len="86"/>
          <note pan="0" key="62" vol="105" pos="38616" len="21"/>
          <note pan="0" key="64" vol="109" pos="38640" len="21"/>
          <note pan="0" key="60" vol="105" pos="38664" len="21"/>
          <note pan="0" key="62" vol="113" pos="38688" len="21"/>
          <note pan="0" key="45" vol="86" pos="38688" len="86"/>
          <note pan="0" key="41" vol="86" pos="38688" len="86"/>
          <note pan="0" key="50" vol="86" pos="38688" len="86"/>
          <note pan="0" key="64" vol="105" pos="38712" len="21"/>
          <note pan="0" key="65" vol="109" pos="38736" len="43"/>
          <note pan="0" key="57" vol="89" pos="38784" len="86"/>
          <note pan="0" key="60" vol="89" pos="38784" len="86"/>
          <note pan="0" key="64" vol="89" pos="38784" len="86"/>
          <note pan="0" key="33" vol="117" pos="38784" len="21"/>
          <note pan="0" key="35" vol="105" pos="38808" len="21"/>
          <note pan="0" key="36" vol="110" pos="38832" len="21"/>
          <note pan="0" key="33" vol="106" pos="38856" len="21"/>
          <note pan="0" key="59" vol="86" pos="38880" len="86"/>
          <note pan="0" key="56" vol="86" pos="38880" len="86"/>
          <note pan="0" key="64" vol="86" pos="38880" len="86"/>
          <note pan="0" key="35" vol="115" pos="38880" len="21"/>
          <note pan="0" key="36" vol="108" pos="38904" len="21"/>
          <note pan="0" key="38" vol="112" pos="38928" len="21"/>
          <note pan="0" key="35" vol="109" pos="38952" len="21"/>
          <note pan="0" key="60" vol="89" pos="38976" len="86"/>
          <note pan="0" key="57" vol="89" pos="38976" len="86"/>
          <note pan="0" key="52" vol="89" pos="38976" len="86"/>
          <note pan="0" key="36" vol="123" pos="38976" len="21"/>
          <note pan="0" key="38" vol="110" pos="39000" len="21"/>
          <note pan="0" key="40" vol="115" pos="39024" len="21"/>
          <note pan="0" key="36" vol="111" pos="39048" len="21"/>
          <note pan="0" key="53" vol="86" pos="39072" len="86"/>
          <note pan="0" key="57" vol="86" pos="39072" len="86"/>
          <note pan="0" key="62" vol="86" pos="39072" len="86"/>
          <note pan="0" key="38" vol="120" pos="39072" len="21"/>
          <note pan="0" key="40" vol="113" pos="39096" len="21"/>
          <note pan="0" key="41" vol="117" pos="39120" len="43"/>
          <note pan="0" key="65" vol="89" pos="39168" len="86"/>
          <note pan="0" key="57" vol="89" pos="39168" len="86"/>
          <note pan="0" key="62" vol="89" pos="39168" len="86"/>
          <note pan="0" key="41" vol="127" pos="39168" len="21"/>
          <note pan="0" key="40" vol="114" pos="39192" len="21"/>
          <note pan="0" key="38" vol="117" pos="39216" len="21"/>
          <note pan="0" key="41" vol="113" pos="39240" len="21"/>
          <note pan="0" key="64" vol="86" pos="39264" len="86"/>
          <note pan="0" key="69" vol="86" pos="39264" len="86"/>
          <note pan="0" key="60" vol="86" pos="39264" len="86"/>
          <note pan="0" key="40" vol="120" pos="39264" len="21"/>
          <note pan="0" key="38" vol="111" pos="39288" len="21"/>
          <note pan="0" key="36" vol="115" pos="39312" len="21"/>
          <note pan="0" key="40" vol="110" pos="39336" len="21"/>
          <note pan="0" key="64" vol="89" pos="39360" len="86"/>
          <note pan="0" key="59" vol="89" pos="39360" len="86"/>
          <note pan="0" key="68" vol="89" pos="39360" len="86"/>
          <note pan="0" key="38" vol="123" pos="39360" len="21"/>
          <note pan="0" key="36" vol="109" pos="39384" len="21"/>
          <note pan="0" key="35" vol="112" pos="39408" len="21"/>
          <note pan="0" key="38" vol="108" pos="39432" len="21"/>
          <note pan="0" key="64" vol="86" pos="39456" len="86"/>
          <note pan="0" key="69" vol="86" pos="39456" len="86"/>
          <note pan="0" key="60" vol="86" pos="39456" len="86"/>
          <note pan="0" key="36" vol="115" pos="39456" len="21"/>
          <note pan="0" key="35" vol="106" pos="39480" len="21"/>
          <note pan="0" key="33" vol="110" pos="39504" len="43"/>
          <note pan="0" key="60" vol="117" pos="39552" len="21"/>
          <note pan="0" key="33" vol="117" pos="39552" len="86"/>
          <note pan="0" key="28" vol="117" pos="39552" len="86"/>
          <note pan="0" key="36" vol="117" pos="39552" len="86"/>
          <note pan="0" key="59" vol="105" pos="39576" len="21"/>
          <note pan="0" key="57" vol="109" pos="39600" len="21"/>
          <note pan="0" key="60" vol="105" pos="39624" len="21"/>
          <note pan="0" key="59" vol="113" pos="39648" len="21"/>
          <note pan="0" key="32" vol="99" pos="39648" len="86"/>
          <note pan="0" key="40" vol="99" pos="39648" len="86"/>
          <note pan="0" key="35" vol="99" pos="39648" len="86"/>
          <note pan="0" key="57" vol="105" pos="39672" len="21"/>
          <note pan="0" key="55" vol="109" pos="39696" len="21"/>
          <note pan="0" key="59" vol="105" pos="39720" len="21"/>
          <note pan="0" key="57" vol="117" pos="39744" len="21"/>
          <note pan="0" key="28" vol="89" pos="39744" len="86"/>
          <note pan="0" key="33" vol="89" pos="39744" len="86"/>
          <note pan="0" key="36" vol="89" pos="39744" len="86"/>
          <note pan="0" key="55" vol="105" pos="39768" len="21"/>
          <note pan="0" key="53" vol="109" pos="39792" len="21"/>
          <note pan="0" key="57" vol="105" pos="39816" len="21"/>
          <note pan="0" key="55" vol="113" pos="39840" len="21"/>
          <note pan="0" key="35" vol="86" pos="39840" len="86"/>
          <note pan="0" key="40" vol="86" pos="39840" len="86"/>
          <note pan="0" key="32" vol="86" pos="39840" len="86"/>
          <note pan="0" key="53" vol="105" pos="39864" len="21"/>
          <note pan="0" key="56" vol="127" pos="39888" len="43"/>
          <note pan="0" key="57" vol="117" pos="39936" len="129"/>
          <note pan="0" key="40" vol="89" pos="39936" len="129"/>
          <note pan="0" key="36" vol="89" pos="39936" len="129"/>
          <note pan="0" key="33" vol="89" pos="39936" len="129"/>
          <note pan="0" key="45" vol="93" pos="40080" len="43"/>
          <note pan="0" key="48" vol="100" pos="40128" len="64"/>
          <note pan="0" key="33" vol="67" pos="40128" len="43"/>
          <note pan="0" key="36" vol="67" pos="40128" len="43"/>
          <note pan="0" key="40" vol="67" pos="40128" len="43"/>
          <note pan="0" key="33" vol="62" pos="40176" len="43"/>
          <note pan="0" key="36" vol="62" pos="40176" len="43"/>
          <note pan="0" key="50" vol="90" pos="40200" len="21"/>
          <note pan="0" key="52" vol="97" pos="40224" len="43"/>
          <note pan="0" key="40" vol="64" pos="40224" len="43"/>
          <note pan="0" key="33" vol="64" pos="40224" len="43"/>
          <note pan="0" key="45" vol="93" pos="40272" len="43"/>
          <note pan="0" key="33" vol="62" pos="40272" len="43"/>
          <note pan="0" key="36" vol="62" pos="40272" len="43"/>
          <note pan="0" key="48" vol="100" pos="40320" len="64"/>
          <note pan="0" key="33" vol="67" pos="40320" len="43"/>
          <note pan="0" key="40" vol="67" pos="40320" len="43"/>
          <note pan="0" key="36" vol="67" pos="40320" len="43"/>
          <note pan="0" key="36" vol="62" pos="40368" len="43"/>
          <note pan="0" key="33" vol="62" pos="40368" len="43"/>
          <note pan="0" key="50" vol="90" pos="40392" len="21"/>
          <note pan="0" key="52" vol="97" pos="40416" len="43"/>
          <note pan="0" key="33" vol="64" pos="40416" len="43"/>
          <note pan="0" key="40" vol="64" pos="40416" len="43"/>
          <note pan="0" key="45" vol="93" pos="40464" len="43"/>
          <note pan="0" key="36" vol="62" pos="40464" len="43"/>
          <note pan="0" key="33" vol="62" pos="40464" len="43"/>
          <note pan="0" key="48" vol="100" pos="40512" len="64"/>
          <note pan="0" key="40" vol="67" pos="40512" len="43"/>
          <note pan="0" key="36" vol="67" pos="40512" len="43"/>
          <note pan="0" key="33" vol="67" pos="40512" len="43"/>
          <note pan="0" key="33" vol="78" pos="40560" len="43"/>
          <note pan="0" key="36" vol="78" pos="40560" len="43"/>
          <note pan="0" key="50" vol="90" pos="40584" len="21"/>
          <note pan="0" key="52" vol="97" pos="40608" len="43"/>
          <note pan="0" key="37" vol="98" pos="40608" len="43"/>
          <note pan="0" key="43" vol="98" pos="40608" len="43"/>
          <note pan="0" key="33" vol="98" pos="40608" len="43"/>
          <note pan="0" key="53" vol="93" pos="40656" len="43"/>
          <note pan="0" key="33" vol="109" pos="40656" len="43"/>
          <note pan="0" key="41" vol="109" pos="40656" len="43"/>
          <note pan="0" key="38" vol="109" pos="40656" len="43"/>
          <note pan="0" key="52" vol="100" pos="40704" len="43"/>
          <note pan="0" key="35" vol="117" pos="40704" len="43"/>
          <note pan="0" key="38" vol="117" pos="40704" len="43"/>
          <note pan="0" key="32" vol="117" pos="40704" len="43"/>
          <note pan="0" key="50" vol="93" pos="40752" len="43"/>
          <note pan="0" key="38" vol="92" pos="40752" len="43"/>
          <note pan="0" key="40" vol="92" pos="40752" len="43"/>
          <note pan="0" key="35" vol="92" pos="40752" len="43"/>
          <note pan="0" key="48" vol="97" pos="40800" len="43"/>
          <note pan="0" key="33" vol="78" pos="40800" len="43"/>
          <note pan="0" key="36" vol="78" pos="40800" len="43"/>
          <note pan="0" key="40" vol="78" pos="40800" len="43"/>
          <note pan="0" key="45" vol="62" pos="40848" len="43"/>
          <note pan="0" key="33" vol="62" pos="40848" len="43"/>
          <note pan="0" key="36" vol="62" pos="40848" len="43"/>
          <note pan="0" key="48" vol="71" pos="40896" len="64"/>
          <note pan="0" key="33" vol="72" pos="40896" len="43"/>
          <note pan="0" key="40" vol="72" pos="40896" len="43"/>
          <note pan="0" key="36" vol="72" pos="40896" len="43"/>
          <note pan="0" key="33" vol="72" pos="40944" len="43"/>
          <note pan="0" key="36" vol="72" pos="40944" len="43"/>
          <note pan="0" key="50" vol="72" pos="40968" len="21"/>
          <note pan="0" key="52" vol="79" pos="40992" len="43"/>
          <note pan="0" key="33" vol="81" pos="40992" len="43"/>
          <note pan="0" key="40" vol="81" pos="40992" len="43"/>
          <note pan="0" key="45" vol="82" pos="41040" len="43"/>
          <note pan="0" key="33" vol="83" pos="41040" len="43"/>
          <note pan="0" key="36" vol="83" pos="41040" len="43"/>
          <note pan="0" key="48" vol="94" pos="41088" len="64"/>
          <note pan="0" key="33" vol="95" pos="41088" len="43"/>
          <note pan="0" key="36" vol="95" pos="41088" len="43"/>
          <note pan="0" key="40" vol="95" pos="41088" len="43"/>
          <note pan="0" key="33" vol="93" pos="41136" len="43"/>
          <note pan="0" key="36" vol="93" pos="41136" len="43"/>
          <note pan="0" key="50" vol="91" pos="41160" len="21"/>
          <note pan="0" key="52" vol="100" pos="41184" len="43"/>
          <note pan="0" key="33" vol="102" pos="41184" len="43"/>
          <note pan="0" key="40" vol="102" pos="41184" len="43"/>
          <note pan="0" key="45" vol="101" pos="41232" len="43"/>
          <note pan="0" key="36" vol="104" pos="41232" len="43"/>
          <note pan="0" key="33" vol="104" pos="41232" len="43"/>
          <note pan="0" key="48" vol="115" pos="41280" len="64"/>
          <note pan="0" key="33" vol="117" pos="41280" len="43"/>
          <note pan="0" key="36" vol="117" pos="41280" len="43"/>
          <note pan="0" key="40" vol="117" pos="41280" len="43"/>
          <note pan="0" key="36" vol="114" pos="41328" len="43"/>
          <note pan="0" key="33" vol="114" pos="41328" len="43"/>
          <note pan="0" key="50" vol="110" pos="41352" len="21"/>
          <note pan="0" key="52" vol="127" pos="41376" len="43"/>
          <note pan="0" key="38" vol="127" pos="41376" len="43"/>
          <note pan="0" key="50" vol="127" pos="41424" len="43"/>
          <note pan="0" key="32" vol="127" pos="41424" len="43"/>
          <note pan="0" key="47" vol="127" pos="41472" len="43"/>
          <note pan="0" key="35" vol="127" pos="41472" len="43"/>
          <note pan="0" key="44" vol="127" pos="41520" len="43"/>
          <note pan="0" key="40" vol="127" pos="41520" len="43"/>
          <note pan="0" key="45" vol="118" pos="41568" len="43"/>
          <note pan="0" key="33" vol="118" pos="41568" len="43"/>
          <note pan="0" key="33" vol="100" pos="41646" len="6"/>
          <note pan="0" key="36" vol="100" pos="41652" len="6"/>
          <note pan="0" key="40" vol="100" pos="41658" len="6"/>
          <note pan="0" key="45" vol="127" pos="41664" len="172"/>
        </pattern>
      </track>
    </trackcontainer>
    <track muted="0" type="6" name="Automation track">
      <automationtrack/>
      <automationpattern name="Numerator" pos="0" len="192">
        <time value="4" pos="0"/>
        <object id="2867707"/>
      </automationpattern>
      <automationpattern name="Denominator" pos="0" len="192">
        <time value="4" pos="0"/>
        <object id="2064925"/>
      </automationpattern>
      <automationpattern name="Tempo" pos="0" len="41664">
        <time value="160" pos="0"/>
        <time value="160" pos="3936"/>
        <time value="155" pos="3984"/>
        <time value="150" pos="4032"/>
        <time value="145" pos="4080"/>
        <time value="140" pos="4128"/>
        <time value="135" pos="4176"/>
        <time value="130" pos="4224"/>
        <time value="160" pos="4320"/>
        <time value="160" pos="7680"/>
        <time value="163" pos="7872"/>
        <time value="166" pos="8064"/>
        <time value="169" pos="8256"/>
        <time value="172" pos="8448"/>
        <time value="175" pos="8640"/>
        <time value="178" pos="8832"/>
        <time value="181" pos="9024"/>
        <time value="184.001" pos="9216"/>
        <time value="187" pos="9408"/>
        <time value="190" pos="9600"/>
        <time value="193.001" pos="9792"/>
        <time value="196" pos="9984"/>
        <time value="199" pos="10176"/>
        <time value="202" pos="10368"/>
        <time value="205.001" pos="10560"/>
        <time value="208" pos="10752"/>
        <time value="208" pos="11904"/>
        <time value="202" pos="11952"/>
        <time value="196" pos="12000"/>
        <time value="190" pos="12048"/>
        <time value="184.001" pos="12096"/>
        <time value="178" pos="12144"/>
        <time value="172" pos="12192"/>
        <time value="166" pos="12240"/>
        <time value="160" pos="12288"/>
        <time value="160" pos="16224"/>
        <time value="155" pos="16272"/>
        <time value="150" pos="16320"/>
        <time value="145" pos="16368"/>
        <time value="140" pos="16416"/>
        <time value="135" pos="16464"/>
        <time value="130" pos="16512"/>
        <time value="160" pos="16608"/>
        <time value="160" pos="19968"/>
        <time value="163" pos="20160"/>
        <time value="166" pos="20352"/>
        <time value="169" pos="20544"/>
        <time value="172" pos="20736"/>
        <time value="175" pos="20928"/>
        <time value="178" pos="21120"/>
        <time value="181" pos="21312"/>
        <time value="184.001" pos="21504"/>
        <time value="187" pos="21696"/>
        <time value="190" pos="21888"/>
        <time value="193.001" pos="22080"/>
        <time value="196" pos="22272"/>
        <time value="199" pos="22464"/>
        <time value="202" pos="22656"/>
        <time value="205.001" pos="22848"/>
        <time value="208" pos="23040"/>
        <time value="208" pos="24192"/>
        <time value="202" pos="24240"/>
        <time value="196" pos="24288"/>
        <time value="190" pos="24336"/>
        <time value="184.001" pos="24384"/>
        <time value="178" pos="24432"/>
        <time value="172" pos="24480"/>
        <time value="166" pos="24528"/>
        <time value="160" pos="24576"/>
        <time value="160" pos="26016"/>
        <time value="152.5" pos="26064"/>
        <time value="145" pos="26112"/>
        <time value="137.5" pos="26160"/>
        <time value="130" pos="26208"/>
        <time value="160" pos="26304"/>
        <time value="160" pos="27552"/>
        <time value="152.5" pos="27600"/>
        <time value="145" pos="27648"/>
        <time value="137.5" pos="27696"/>
        <time value="130" pos="27744"/>
        <time value="160" pos="27840"/>
        <time value="160" pos="31584"/>
        <time value="155" pos="31632"/>
        <time value="150" pos="31680"/>
        <time value="145" pos="31728"/>
        <time value="140" pos="31776"/>
        <time value="135" pos="31824"/>
        <time value="130" pos="31872"/>
        <time value="160" pos="31968"/>
        <time value="160" pos="35328"/>
        <time value="163" pos="35520"/>
        <time value="166" pos="35712"/>
        <time value="169" pos="35904"/>
        <time value="172" pos="36096"/>
        <time value="175" pos="36288"/>
        <time value="178" pos="36480"/>
        <time value="181" pos="36672"/>
        <time value="184.001" pos="36864"/>
        <time value="187" pos="37056"/>
        <time value="190" pos="37248"/>
        <time value="193.001" pos="37440"/>
        <time value="196" pos="37632"/>
        <time value="199" pos="37824"/>
        <time value="202" pos="38016"/>
        <time value="205.001" pos="38208"/>
        <time value="208" pos="38400"/>
        <time value="208" pos="39552"/>
        <time value="202" pos="39600"/>
        <time value="196" pos="39648"/>
        <time value="190" pos="39696"/>
        <time value="184.001" pos="39744"/>
        <time value="178" pos="39792"/>
        <time value="172" pos="39840"/>
        <time value="166" pos="39888"/>
        <time value="160" pos="39936"/>
        <time value="160" pos="41088"/>
        <time value="155" pos="41136"/>
        <time value="150" pos="41184"/>
        <time value="145" pos="41232"/>
        <time value="140" pos="41280"/>
        <time value="135" pos="41328"/>
        <time value="130" pos="41376"/>
        <time value="125" pos="41424"/>
        <time value="120" pos="41472"/>
        <time value="115" pos="41520"/>
        <time value="110" pos="41568"/>
        <object id="110616"/>
      </automationpattern>
      <automationpattern name="Master volume" pos="0" len="192">
        <time value="100" pos="0"/>
        <object id="43676"/>
      </automationpattern>
      <automationpattern name="Master pitch" pos="0" len="192">
        <time value="0" pos="0"/>
        <object id="4419376"/>
      </automationpattern>
    </track>
    <fxmixer width="865" x="5" y="310" maximized="0" height="278" visible="1" minimized="0">
      <fxchannel num="0" muted="0" volume="1" name="Master">
        <fxchain numofeffects="0" enabled="0"/>
      </fxchannel>
      <fxchannel num="1" muted="0" volume="1" name="FX 1">
        <fxchain numofeffects="0" enabled="0"/>
      </fxchannel>
      <fxchannel num="2" muted="0" volume="1" name="FX 2">
        <fxchain numofeffects="0" enabled="0"/>
      </fxchannel>
      <fxchannel num="3" muted="0" volume="1" name="FX 3">
        <fxchain numofeffects="0" enabled="0"/>
      </fxchannel>
      <fxchannel num="4" muted="0" volume="1" name="FX 4">
        <fxchain numofeffects="0" enabled="0"/>
      </fxchannel>
      <fxchannel num="5" muted="0" volume="1" name="FX 5">
        <fxchain numofeffects="0" enabled="0"/>
      </fxchannel>
      <fxchannel num="6" muted="0" volume="1" name="FX 6">
        <fxchain numofeffects="0" enabled="0"/>
      </fxchannel>
      <fxchannel num="7" muted="0" volume="1" name="FX 7">
        <fxchain numofeffects="0" enabled="0"/>
      </fxchannel>
      <fxchannel num="8" muted="0" volume="1" name="FX 8">
        <fxchain numofeffects="0" enabled="0"/>
      </fxchannel>
      <fxchannel num="9" muted="0" volume="1" name="FX 9">
        <fxchain numofeffects="0" enabled="0"/>
      </fxchannel>
      <fxchannel num="10" muted="0" volume="1" name="FX 10">
        <fxchain numofeffects="0" enabled="0"/>
      </fxchannel>
      <fxchannel num="11" muted="0" volume="1" name="FX 11">
        <fxchain numofeffects="0" enabled="0"/>
      </fxchannel>
      <fxchannel num="12" muted="0" volume="1" name="FX 12">
        <fxchain numofeffects="0" enabled="0"/>
      </fxchannel>
      <fxchannel num="13" muted="0" volume="1" name="FX 13">
        <fxchain numofeffects="0" enabled="0"/>
      </fxchannel>
      <fxchannel num="14" muted="0" volume="1" name="FX 14">
        <fxchain numofeffects="0" enabled="0"/>
      </fxchannel>
      <fxchannel num="15" muted="0" volume="1" name="FX 15">
        <fxchain numofeffects="0" enabled="0"/>
      </fxchannel>
      <fxchannel num="16" muted="0" volume="1" name="FX 16">
        <fxchain numofeffects="0" enabled="0"/>
      </fxchannel>
      <fxchannel num="17" muted="0" volume="1" name="FX 17">
        <fxchain numofeffects="0" enabled="0"/>
      </fxchannel>
      <fxchannel num="18" muted="0" volume="1" name="FX 18">
        <fxchain numofeffects="0" enabled="0"/>
      </fxchannel>
      <fxchannel num="19" muted="0" volume="1" name="FX 19">
        <fxchain numofeffects="0" enabled="0"/>
      </fxchannel>
      <fxchannel num="20" muted="0" volume="1" name="FX 20">
        <fxchain numofeffects="0" enabled="0"/>
      </fxchannel>
      <fxchannel num="21" muted="0" volume="1" name="FX 21">
        <fxchain numofeffects="0" enabled="0"/>
      </fxchannel>
      <fxchannel num="22" muted="0" volume="1" name="FX 22">
        <fxchain numofeffects="0" enabled="0"/>
      </fxchannel>
      <fxchannel num="23" muted="0" volume="1" name="FX 23">
        <fxchain numofeffects="0" enabled="0"/>
      </fxchannel>
      <fxchannel num="24" muted="0" volume="1" name="FX 24">
        <fxchain numofeffects="0" enabled="0"/>
      </fxchannel>
      <fxchannel num="25" muted="0" volume="1" name="FX 25">
        <fxchain numofeffects="0" enabled="0"/>
      </fxchannel>
      <fxchannel num="26" muted="0" volume="1" name="FX 26">
        <fxchain numofeffects="0" enabled="0"/>
      </fxchannel>
      <fxchannel num="27" muted="0" volume="1" name="FX 27">
        <fxchain numofeffects="0" enabled="0"/>
      </fxchannel>
      <fxchannel num="28" muted="0" volume="1" name="FX 28">
        <fxchain numofeffects="0" enabled="0"/>
      </fxchannel>
      <fxchannel num="29" muted="0" volume="1" name="FX 29">
        <fxchain numofeffects="0" enabled="0"/>
      </fxchannel>
      <fxchannel num="30" muted="0" volume="1" name="FX 30">
        <fxchain numofeffects="0" enabled="0"/>
      </fxchannel>
      <fxchannel num="31" muted="0" volume="1" name="FX 31">
        <fxchain numofeffects="0" enabled="0"/>
      </fxchannel>
      <fxchannel num="32" muted="0" volume="1" name="FX 32">
        <fxchain numofeffects="0" enabled="0"/>
      </fxchannel>
      <fxchannel num="33" muted="0" volume="1" name="FX 33">
        <fxchain numofeffects="0" enabled="0"/>
      </fxchannel>
      <fxchannel num="34" muted="0" volume="1" name="FX 34">
        <fxchain numofeffects="0" enabled="0"/>
      </fxchannel>
      <fxchannel num="35" muted="0" volume="1" name="FX 35">
        <fxchain numofeffects="0" enabled="0"/>
      </fxchannel>
      <fxchannel num="36" muted="0" volume="1" name="FX 36">
        <fxchain numofeffects="0" enabled="0"/>
      </fxchannel>
      <fxchannel num="37" muted="0" volume="1" name="FX 37">
        <fxchain numofeffects="0" enabled="0"/>
      </fxchannel>
      <fxchannel num="38" muted="0" volume="1" name="FX 38">
        <fxchain numofeffects="0" enabled="0"/>
      </fxchannel>
      <fxchannel num="39" muted="0" volume="1" name="FX 39">
        <fxchain numofeffects="0" enabled="0"/>
      </fxchannel>
      <fxchannel num="40" muted="0" volume="1" name="FX 40">
        <fxchain numofeffects="0" enabled="0"/>
      </fxchannel>
      <fxchannel num="41" muted="0" volume="1" name="FX 41">
        <fxchain numofeffects="0" enabled="0"/>
      </fxchannel>
      <fxchannel num="42" muted="0" volume="1" name="FX 42">
        <fxchain numofeffects="0" enabled="0"/>
      </fxchannel>
      <fxchannel num="43" muted="0" volume="1" name="FX 43">
        <fxchain numofeffects="0" enabled="0"/>
      </fxchannel>
      <fxchannel num="44" muted="0" volume="1" name="FX 44">
        <fxchain numofeffects="0" enabled="0"/>
      </fxchannel>
      <fxchannel num="45" muted="0" volume="1" name="FX 45">
        <fxchain numofeffects="0" enabled="0"/>
      </fxchannel>
      <fxchannel num="46" muted="0" volume="1" name="FX 46">
        <fxchain numofeffects="0" enabled="0"/>
      </fxchannel>
      <fxchannel num="47" muted="0" volume="1" name="FX 47">
        <fxchain numofeffects="0" enabled="0"/>
      </fxchannel>
      <fxchannel num="48" muted="0" volume="1" name="FX 48">
        <fxchain numofeffects="0" enabled="0"/>
      </fxchannel>
      <fxchannel num="49" muted="0" volume="1" name="FX 49">
        <fxchain numofeffects="0" enabled="0"/>
      </fxchannel>
      <fxchannel num="50" muted="0" volume="1" name="FX 50">
        <fxchain numofeffects="0" enabled="0"/>
      </fxchannel>
      <fxchannel num="51" muted="0" volume="1" name="FX 51">
        <fxchain numofeffects="0" enabled="0"/>
      </fxchannel>
      <fxchannel num="52" muted="0" volume="1" name="FX 52">
        <fxchain numofeffects="0" enabled="0"/>
      </fxchannel>
      <fxchannel num="53" muted="0" volume="1" name="FX 53">
        <fxchain numofeffects="0" enabled="0"/>
      </fxchannel>
      <fxchannel num="54" muted="0" volume="1" name="FX 54">
        <fxchain numofeffects="0" enabled="0"/>
      </fxchannel>
      <fxchannel num="55" muted="0" volume="1" name="FX 55">
        <fxchain numofeffects="0" enabled="0"/>
      </fxchannel>
      <fxchannel num="56" muted="0" volume="1" name="FX 56">
        <fxchain numofeffects="0" enabled="0"/>
      </fxchannel>
      <fxchannel num="57" muted="0" volume="1" name="FX 57">
        <fxchain numofeffects="0" enabled="0"/>
      </fxchannel>
      <fxchannel num="58" muted="0" volume="1" name="FX 58">
        <fxchain numofeffects="0" enabled="0"/>
      </fxchannel>
      <fxchannel num="59" muted="0" volume="1" name="FX 59">
        <fxchain numofeffects="0" enabled="0"/>
      </fxchannel>
      <fxchannel num="60" muted="0" volume="1" name="FX 60">
        <fxchain numofeffects="0" enabled="0"/>
      </fxchannel>
      <fxchannel num="61" muted="0" volume="1" name="FX 61">
        <fxchain numofeffects="0" enabled="0"/>
      </fxchannel>
      <fxchannel num="62" muted="0" volume="1" name="FX 62">
        <fxchain numofeffects="0" enabled="0"/>
      </fxchannel>
      <fxchannel num="63" muted="0" volume="1" name="FX 63">
        <fxchain numofeffects="0" enabled="0"/>
      </fxchannel>
      <fxchannel num="64" muted="0" volume="1" name="FX 64">
        <fxchain numofeffects="0" enabled="0"/>
      </fxchannel>
    </fxmixer>
    <ControllerRackView width="258" x="880" y="310" maximized="0" height="172" visible="1" minimized="0"/>
    <pianoroll width="1135" x="115" y="152" maximized="0" height="480" visible="0" minimized="0"/>
    <automationeditor width="740" x="510" y="152" maximized="0" height="480" visible="0" minimized="0"/>
    <projectnotes width="400" x="700" y="10" maximized="0" height="300" visible="0" minimized="0"><![CDATA[<!DOCTYPE HTML PUBLIC "-//W3C//DTD HTML 4.0//EN" "http://www.w3.org/TR/REC-html40/strict.dtd">
<html><head><meta name="qrichtext" content="1" /><style type="text/css">
p, li { white-space: pre-wrap; }
</style></head><body style=" font-family:'Sans Serif'; font-size:9pt; font-weight:400; font-style:normal;">
<p style=" margin-top:0px; margin-bottom:0px; margin-left:0px; margin-right:0px; -qt-block-indent:0; text-indent:0px;"><span style=" color:#e0e0e0;">Put down your project notes here.</span></p></body></html>]]></projectnotes>
    <timeline lp1pos="192" lp0pos="0" lpstate="0"/>
    <controllers/>
  </song>
</multimedia-project>
