<?xml version="1.0"?>
<!DOCTYPE multimedia-project>
<multimedia-project version="1.0" creator="Linux MultiMedia Studio (LMMS)" creatorversion="0.4.13" type="song">
  <head timesig_numerator="4" mastervol="100" timesig_denominator="4" masterpitch="0">
    <bpm value="150" id="7763457"/>
  </head>
  <song>
    <trackcontainer width="600" x="5" y="5" maximized="0" height="300" visible="1" type="song" minimized="0">
      <track muted="0" type="0" name="Default preset">
        <instrumenttrack pan="0" fxch="0" pitch="0" basenote="57" vol="100">
          <instrument name="tripleoscillator">
            <tripleoscillator phoffset2="0" userwavefile0="" finer0="0" userwavefile1="" finer1="0" userwavefile2="" finer2="0" coarse0="0" coarse1="-12" coarse2="-24" finel0="0" finel1="0" modalgo1="2" modalgo2="2" finel2="0" pan0="0" modalgo3="2" pan1="0" stphdetun0="0" pan2="0" stphdetun1="0" wavetype0="0" stphdetun2="0" wavetype1="0" wavetype2="0" vol0="33" vol1="33" phoffset0="0" phoffset1="0" vol2="33"/>
          </instrument>
          <eldata fres="0.5" ftype="0" fcut="14000" fwet="0">
            <elvol lspd_denominator="4" pdel="0" userwavefile="" dec="0.5" lamt="0" syncmode="0" latt="0" rel="0.1" sus="0.5" amt="0" x100="0" att="0" lpdel="0" hold="0.5" lshp="0" lspd="0.1" ctlenvamt="0" lspd_numerator="4"/>
            <elcut lspd_denominator="4" pdel="0" userwavefile="" dec="0.5" lamt="0" syncmode="0" latt="0" rel="0.1" sus="0.5" amt="0" x100="0" att="0" lpdel="0" hold="0.5" lshp="0" lspd="0.1" ctlenvamt="0" lspd_numerator="4"/>
            <elres lspd_denominator="4" pdel="0" userwavefile="" dec="0.5" lamt="0" syncmode="0" latt="0" rel="0.1" sus="0.5" amt="0" x100="0" att="0" lpdel="0" hold="0.5" lshp="0" lspd="0.1" ctlenvamt="0" lspd_numerator="4"/>
          </eldata>
          <chordcreator chord="0" chordrange="1" chord-enabled="0"/>
          <arpeggiator arptime="100" arprange="1" arptime_denominator="4" syncmode="0" arpmode="0" arp-enabled="0" arp="0" arptime_numerator="4" arpdir="0" arpgate="100"/>
          <midiport inputcontroller="0" fixedoutputvelocity="-1" inputchannel="0" outputcontroller="0" writable="0" outputchannel="1" fixedinputvelocity="-1" outputprogram="1" readable="0"/>
          <fxchain numofeffects="0" enabled="0"/>
        </instrumenttrack>
      </track>
      <track muted="0" type="2" name="Sample track">
        <sampletrack vol="100">
          <fxchain numofeffects="0" enabled="0"/>
        </sampletrack>
      </track>
      <track muted="0" type="1" name="Beat/Bassline 0">
        <bbtrack>
          <trackcontainer width="504" x="610" y="5" maximized="0" height="300" visible="1" type="bbtrackcontainer" minimized="0">
            <track muted="0" type="0" name="Default preset">
              <instrumenttrack pan="0" fxch="0" pitch="0" basenote="57" vol="100">
                <instrument name="tripleoscillator">
                  <tripleoscillator phoffset2="0" userwavefile0="" finer0="0" userwavefile1="" finer1="0" userwavefile2="" finer2="0" coarse0="0" coarse1="-12" coarse2="-24" finel0="0" finel1="0" modalgo1="2" modalgo2="2" finel2="0" pan0="0" modalgo3="2" pan1="0" stphdetun0="0" pan2="0" stphdetun1="0" wavetype0="0" stphdetun2="0" wavetype1="0" wavetype2="0" vol0="33" vol1="33" phoffset0="0" phoffset1="0" vol2="33"/>
                </instrument>
                <eldata fres="0.5" ftype="0" fcut="14000" fwet="0">
                  <elvol lspd_denominator="4" pdel="0" userwavefile="" dec="0.5" lamt="0" syncmode="0" latt="0" rel="0.1" sus="0.5" amt="0" x100="0" att="0" lpdel="0" hold="0.5" lshp="0" lspd="0.1" ctlenvamt="0" lspd_numerator="4"/>
                  <elcut lspd_denominator="4" pdel="0" userwavefile="" dec="0.5" lamt="0" syncmode="0" latt="0" rel="0.1" sus="0.5" amt="0" x100="0" att="0" lpdel="0" hold="0.5" lshp="0" lspd="0.1" ctlenvamt="0" lspd_numerator="4"/>
                  <elres lspd_denominator="4" pdel="0" userwavefile="" dec="0.5" lamt="0" syncmode="0" latt="0" rel="0.1" sus="0.5" amt="0" x100="0" att="0" lpdel="0" hold="0.5" lshp="0" lspd="0.1" ctlenvamt="0" lspd_numerator="4"/>
                </eldata>
                <chordcreator chord="0" chordrange="1" chord-enabled="0"/>
                <arpeggiator arptime="100" arprange="1" arptime_denominator="4" syncmode="0" arpmode="0" arp-enabled="0" arp="0" arptime_numerator="4" arpdir="0" arpgate="100"/>
                <midiport inputcontroller="0" fixedoutputvelocity="-1" inputchannel="0" outputcontroller="0" writable="0" outputchannel="1" fixedinputvelocity="-1" outputprogram="1" readable="0"/>
                <fxchain numofeffects="0" enabled="0"/>
              </instrumenttrack>
              <pattern steps="16" muted="0" type="0" name="Default preset" pos="0" len="192" frozen="0"/>
            </track>
          </trackcontainer>
        </bbtrack>
      </track>
      <track muted="0" type="5" name="Automation track">
        <automationtrack/>
      </track>
      <track muted="0" type="0" name="Default preset">
        <instrumenttrack pan="-49.6" fxch="0" pitch="0" basenote="57" vol="78.7">
          <instrument name="sf2player">
            <sf2player patch="0" chorusLevel="2" chorusDepth="8" reverbOn="0" reverbRoomSize="0.2" chorusOn="0" chorusSpeed="0.3" reverbDamping="0" chorusNum="3" reverbLevel="0.9" bank="0" reverbWidth="0.5" src="" gain="1"/>
          </instrument>
          <eldata fres="0.5" ftype="0" fcut="14000" fwet="0">
            <elvol lspd_denominator="4" pdel="0" userwavefile="" dec="0.5" lamt="0" syncmode="0" latt="0" rel="0.1" sus="0.5" amt="0" x100="0" att="0" lpdel="0" hold="0.5" lshp="0" lspd="0.1" ctlenvamt="0" lspd_numerator="4"/>
            <elcut lspd_denominator="4" pdel="0" userwavefile="" dec="0.5" lamt="0" syncmode="0" latt="0" rel="0.1" sus="0.5" amt="0" x100="0" att="0" lpdel="0" hold="0.5" lshp="0" lspd="0.1" ctlenvamt="0" lspd_numerator="4"/>
            <elres lspd_denominator="4" pdel="0" userwavefile="" dec="0.5" lamt="0" syncmode="0" latt="0" rel="0.1" sus="0.5" amt="0" x100="0" att="0" lpdel="0" hold="0.5" lshp="0" lspd="0.1" ctlenvamt="0" lspd_numerator="4"/>
          </eldata>
          <chordcreator chord="0" chordrange="1" chord-enabled="0"/>
          <arpeggiator arptime="100" arprange="1" arptime_denominator="4" syncmode="0" arpmode="0" arp-enabled="0" arp="0" arptime_numerator="4" arpdir="0" arpgate="100"/>
          <midiport inputcontroller="0" fixedoutputvelocity="-1" inputchannel="0" outputcontroller="0" writable="0" outputchannel="1" fixedinputvelocity="-1" outputprogram="1" readable="0"/>
          <fxchain numofeffects="0" enabled="0"/>
        </instrumenttrack>
        <pattern steps="16" muted="0" type="1" name="Default preset" pos="0" len="43200" frozen="0">
          <note pan="0" key="24" vol="100" pos="0" len="21"/>
          <note pan="0" key="48" vol="100" pos="0" len="43"/>
          <note pan="0" key="31" vol="90" pos="24" len="21"/>
          <note pan="0" key="36" vol="93" pos="48" len="21"/>
          <note pan="0" key="43" vol="93" pos="48" len="43"/>
          <note pan="0" key="31" vol="90" pos="72" len="21"/>
          <note pan="0" key="28" vol="97" pos="96" len="21"/>
          <note pan="0" key="48" vol="97" pos="96" len="43"/>
          <note pan="0" key="31" vol="90" pos="120" len="21"/>
          <note pan="0" key="36" vol="93" pos="144" len="21"/>
          <note pan="0" key="50" vol="93" pos="144" len="43"/>
          <note pan="0" key="31" vol="90" pos="168" len="21"/>
          <note pan="0" key="52" vol="100" pos="192" len="21"/>
          <note pan="0" key="24" vol="100" pos="192" len="21"/>
          <note pan="0" key="50" vol="90" pos="216" len="21"/>
          <note pan="0" key="31" vol="90" pos="216" len="21"/>
          <note pan="0" key="48" vol="93" pos="240" len="21"/>
          <note pan="0" key="36" vol="93" pos="240" len="21"/>
          <note pan="0" key="47" vol="90" pos="264" len="21"/>
          <note pan="0" key="31" vol="90" pos="264" len="21"/>
          <note pan="0" key="48" vol="97" pos="288" len="86"/>
          <note pan="0" key="28" vol="97" pos="288" len="21"/>
          <note pan="0" key="31" vol="90" pos="312" len="21"/>
          <note pan="0" key="36" vol="93" pos="336" len="21"/>
          <note pan="0" key="31" vol="90" pos="360" len="21"/>
          <note pan="0" key="50" vol="100" pos="384" len="43"/>
          <note pan="0" key="19" vol="100" pos="384" len="21"/>
          <note pan="0" key="31" vol="90" pos="408" len="21"/>
          <note pan="0" key="43" vol="93" pos="432" len="43"/>
          <note pan="0" key="35" vol="93" pos="432" len="21"/>
          <note pan="0" key="31" vol="90" pos="456" len="21"/>
          <note pan="0" key="50" vol="97" pos="480" len="43"/>
          <note pan="0" key="26" vol="97" pos="480" len="21"/>
          <note pan="0" key="31" vol="90" pos="504" len="21"/>
          <note pan="0" key="52" vol="93" pos="528" len="43"/>
          <note pan="0" key="35" vol="93" pos="528" len="21"/>
          <note pan="0" key="31" vol="90" pos="552" len="21"/>
          <note pan="0" key="53" vol="100" pos="576" len="21"/>
          <note pan="0" key="26" vol="100" pos="576" len="21"/>
          <note pan="0" key="52" vol="90" pos="600" len="21"/>
          <note pan="0" key="30" vol="90" pos="600" len="21"/>
          <note pan="0" key="50" vol="93" pos="624" len="21"/>
          <note pan="0" key="33" vol="93" pos="624" len="21"/>
          <note pan="0" key="49" vol="90" pos="648" len="21"/>
          <note pan="0" key="30" vol="90" pos="648" len="21"/>
          <note pan="0" key="50" vol="97" pos="672" len="86"/>
          <note pan="0" key="26" vol="97" pos="672" len="21"/>
          <note pan="0" key="30" vol="90" pos="696" len="21"/>
          <note pan="0" key="33" vol="93" pos="720" len="21"/>
          <note pan="0" key="30" vol="90" pos="744" len="21"/>
          <note pan="0" key="55" vol="100" pos="768" len="21"/>
          <note pan="0" key="19" vol="100" pos="768" len="21"/>
          <note pan="0" key="53" vol="90" pos="792" len="21"/>
          <note pan="0" key="31" vol="90" pos="792" len="21"/>
          <note pan="0" key="52" vol="93" pos="816" len="21"/>
          <note pan="0" key="35" vol="93" pos="816" len="21"/>
          <note pan="0" key="50" vol="90" pos="840" len="21"/>
          <note pan="0" key="31" vol="90" pos="840" len="21"/>
          <note pan="0" key="52" vol="97" pos="864" len="86"/>
          <note pan="0" key="26" vol="97" pos="864" len="21"/>
          <note pan="0" key="31" vol="90" pos="888" len="21"/>
          <note pan="0" key="35" vol="93" pos="912" len="21"/>
          <note pan="0" key="31" vol="90" pos="936" len="21"/>
          <note pan="0" key="57" vol="100" pos="960" len="21"/>
          <note pan="0" key="26" vol="100" pos="960" len="21"/>
          <note pan="0" key="55" vol="92" pos="984" len="21"/>
          <note pan="0" key="29" vol="92" pos="984" len="21"/>
          <note pan="0" key="53" vol="98" pos="1008" len="21"/>
          <note pan="0" key="33" vol="98" pos="1008" len="21"/>
          <note pan="0" key="52" vol="97" pos="1032" len="21"/>
          <note pan="0" key="29" vol="97" pos="1032" len="21"/>
          <note pan="0" key="50" vol="108" pos="1056" len="21"/>
          <note pan="0" key="24" vol="108" pos="1056" len="21"/>
          <note pan="0" key="53" vol="102" pos="1080" len="21"/>
          <note pan="0" key="29" vol="102" pos="1080" len="21"/>
          <note pan="0" key="57" vol="109" pos="1104" len="21"/>
          <note pan="0" key="36" vol="109" pos="1104" len="21"/>
          <note pan="0" key="60" vol="107" pos="1128" len="21"/>
          <note pan="0" key="33" vol="107" pos="1128" len="21"/>
          <note pan="0" key="58" vol="123" pos="1152" len="21"/>
          <note pan="0" key="24" vol="123" pos="1152" len="21"/>
          <note pan="0" key="57" vol="107" pos="1176" len="21"/>
          <note pan="0" key="31" vol="107" pos="1176" len="21"/>
          <note pan="0" key="55" vol="109" pos="1200" len="21"/>
          <note pan="0" key="34" vol="109" pos="1200" len="21"/>
          <note pan="0" key="53" vol="102" pos="1224" len="21"/>
          <note pan="0" key="31" vol="102" pos="1224" len="21"/>
          <note pan="0" key="52" vol="108" pos="1248" len="21"/>
          <note pan="0" key="19" vol="108" pos="1248" len="21"/>
          <note pan="0" key="53" vol="97" pos="1272" len="21"/>
          <note pan="0" key="29" vol="97" pos="1272" len="21"/>
          <note pan="0" key="55" vol="98" pos="1296" len="21"/>
          <note pan="0" key="31" vol="98" pos="1296" len="21"/>
          <note pan="0" key="47" vol="92" pos="1320" len="21"/>
          <note pan="0" key="29" vol="92" pos="1320" len="21"/>
          <note pan="0" key="48" vol="100" pos="1344" len="43"/>
          <note pan="0" key="24" vol="100" pos="1344" len="21"/>
          <note pan="0" key="28" vol="90" pos="1368" len="21"/>
          <note pan="0" key="43" vol="93" pos="1392" len="43"/>
          <note pan="0" key="31" vol="93" pos="1392" len="21"/>
          <note pan="0" key="28" vol="90" pos="1416" len="21"/>
          <note pan="0" key="48" vol="97" pos="1440" len="86"/>
          <note pan="0" key="24" vol="97" pos="1440" len="21"/>
          <note pan="0" key="28" vol="90" pos="1464" len="21"/>
          <note pan="0" key="31" vol="93" pos="1488" len="21"/>
          <note pan="0" key="36" vol="90" pos="1512" len="21"/>
          <note pan="0" key="48" vol="89" pos="1536" len="43"/>
          <note pan="0" key="24" vol="89" pos="1536" len="21"/>
          <note pan="0" key="31" vol="80" pos="1560" len="21"/>
          <note pan="0" key="43" vol="83" pos="1584" len="43"/>
          <note pan="0" key="36" vol="83" pos="1584" len="21"/>
          <note pan="0" key="31" vol="80" pos="1608" len="21"/>
          <note pan="0" key="48" vol="86" pos="1632" len="43"/>
          <note pan="0" key="28" vol="86" pos="1632" len="21"/>
          <note pan="0" key="31" vol="80" pos="1656" len="21"/>
          <note pan="0" key="50" vol="83" pos="1680" len="43"/>
          <note pan="0" key="36" vol="83" pos="1680" len="21"/>
          <note pan="0" key="31" vol="80" pos="1704" len="21"/>
          <note pan="0" key="52" vol="89" pos="1728" len="43"/>
          <note pan="0" key="28" vol="89" pos="1728" len="21"/>
          <note pan="0" key="31" vol="80" pos="1752" len="21"/>
          <note pan="0" key="47" vol="83" pos="1776" len="43"/>
          <note pan="0" key="35" vol="83" pos="1776" len="21"/>
          <note pan="0" key="31" vol="80" pos="1800" len="21"/>
          <note pan="0" key="52" vol="86" pos="1824" len="43"/>
          <note pan="0" key="28" vol="86" pos="1824" len="21"/>
          <note pan="0" key="31" vol="80" pos="1848" len="21"/>
          <note pan="0" key="50" vol="83" pos="1872" len="43"/>
          <note pan="0" key="35" vol="83" pos="1872" len="21"/>
          <note pan="0" key="31" vol="80" pos="1896" len="21"/>
          <note pan="0" key="48" vol="89" pos="1920" len="43"/>
          <note pan="0" key="24" vol="89" pos="1920" len="21"/>
          <note pan="0" key="31" vol="80" pos="1944" len="21"/>
          <note pan="0" key="43" vol="83" pos="1968" len="43"/>
          <note pan="0" key="36" vol="83" pos="1968" len="21"/>
          <note pan="0" key="31" vol="80" pos="1992" len="21"/>
          <note pan="0" key="48" vol="86" pos="2016" len="43"/>
          <note pan="0" key="28" vol="86" pos="2016" len="21"/>
          <note pan="0" key="31" vol="80" pos="2040" len="21"/>
          <note pan="0" key="50" vol="83" pos="2064" len="43"/>
          <note pan="0" key="36" vol="83" pos="2064" len="21"/>
          <note pan="0" key="31" vol="80" pos="2088" len="21"/>
          <note pan="0" key="52" vol="89" pos="2112" len="64"/>
          <note pan="0" key="24" vol="89" pos="2112" len="21"/>
          <note pan="0" key="31" vol="80" pos="2136" len="21"/>
          <note pan="0" key="36" vol="83" pos="2160" len="21"/>
          <note pan="0" key="50" vol="80" pos="2184" len="21"/>
          <note pan="0" key="31" vol="80" pos="2184" len="21"/>
          <note pan="0" key="48" vol="86" pos="2208" len="86"/>
          <note pan="0" key="28" vol="86" pos="2208" len="21"/>
          <note pan="0" key="31" vol="80" pos="2232" len="21"/>
          <note pan="0" key="36" vol="83" pos="2256" len="21"/>
          <note pan="0" key="31" vol="80" pos="2280" len="21"/>
          <note pan="0" key="48" vol="89" pos="2304" len="43"/>
          <note pan="0" key="24" vol="89" pos="2304" len="21"/>
          <note pan="0" key="31" vol="80" pos="2328" len="21"/>
          <note pan="0" key="43" vol="83" pos="2352" len="43"/>
          <note pan="0" key="36" vol="83" pos="2352" len="21"/>
          <note pan="0" key="31" vol="80" pos="2376" len="21"/>
          <note pan="0" key="48" vol="86" pos="2400" len="43"/>
          <note pan="0" key="28" vol="86" pos="2400" len="21"/>
          <note pan="0" key="31" vol="80" pos="2424" len="21"/>
          <note pan="0" key="50" vol="83" pos="2448" len="43"/>
          <note pan="0" key="36" vol="83" pos="2448" len="21"/>
          <note pan="0" key="31" vol="80" pos="2472" len="21"/>
          <note pan="0" key="52" vol="89" pos="2496" len="43"/>
          <note pan="0" key="28" vol="89" pos="2496" len="21"/>
          <note pan="0" key="31" vol="80" pos="2520" len="21"/>
          <note pan="0" key="47" vol="83" pos="2544" len="43"/>
          <note pan="0" key="35" vol="83" pos="2544" len="21"/>
          <note pan="0" key="31" vol="80" pos="2568" len="21"/>
          <note pan="0" key="52" vol="86" pos="2592" len="43"/>
          <note pan="0" key="28" vol="86" pos="2592" len="21"/>
          <note pan="0" key="31" vol="80" pos="2616" len="21"/>
          <note pan="0" key="53" vol="83" pos="2640" len="43"/>
          <note pan="0" key="35" vol="83" pos="2640" len="21"/>
          <note pan="0" key="31" vol="80" pos="2664" len="21"/>
          <note pan="0" key="55" vol="89" pos="2688" len="43"/>
          <note pan="0" key="19" vol="89" pos="2688" len="21"/>
          <note pan="0" key="31" vol="80" pos="2712" len="21"/>
          <note pan="0" key="50" vol="83" pos="2736" len="43"/>
          <note pan="0" key="35" vol="83" pos="2736" len="21"/>
          <note pan="0" key="31" vol="80" pos="2760" len="21"/>
          <note pan="0" key="55" vol="86" pos="2784" len="43"/>
          <note pan="0" key="29" vol="86" pos="2784" len="21"/>
          <note pan="0" key="31" vol="80" pos="2808" len="21"/>
          <note pan="0" key="53" vol="83" pos="2832" len="43"/>
          <note pan="0" key="35" vol="83" pos="2832" len="21"/>
          <note pan="0" key="31" vol="80" pos="2856" len="21"/>
          <note pan="0" key="52" vol="89" pos="2880" len="64"/>
          <note pan="0" key="24" vol="89" pos="2880" len="21"/>
          <note pan="0" key="31" vol="80" pos="2904" len="21"/>
          <note pan="0" key="36" vol="83" pos="2928" len="21"/>
          <note pan="0" key="50" vol="80" pos="2952" len="21"/>
          <note pan="0" key="31" vol="80" pos="2952" len="21"/>
          <note pan="0" key="48" vol="86" pos="2976" len="86"/>
          <note pan="0" key="28" vol="86" pos="2976" len="21"/>
          <note pan="0" key="31" vol="80" pos="3000" len="21"/>
          <note pan="0" key="36" vol="83" pos="3024" len="21"/>
          <note pan="0" key="31" vol="80" pos="3048" len="21"/>
          <note pan="0" key="48" vol="89" pos="3072" len="21"/>
          <note pan="0" key="24" vol="89" pos="3072" len="86"/>
          <note pan="0" key="31" vol="89" pos="3072" len="86"/>
          <note pan="0" key="50" vol="80" pos="3096" len="21"/>
          <note pan="0" key="52" vol="83" pos="3120" len="21"/>
          <note pan="0" key="53" vol="80" pos="3144" len="21"/>
          <note pan="0" key="55" vol="86" pos="3168" len="21"/>
          <note pan="0" key="28" vol="86" pos="3168" len="86"/>
          <note pan="0" key="31" vol="86" pos="3168" len="86"/>
          <note pan="0" key="53" vol="80" pos="3192" len="21"/>
          <note pan="0" key="52" vol="83" pos="3216" len="21"/>
          <note pan="0" key="50" vol="80" pos="3240" len="21"/>
          <note pan="0" key="48" vol="89" pos="3264" len="21"/>
          <note pan="0" key="24" vol="89" pos="3264" len="86"/>
          <note pan="0" key="31" vol="89" pos="3264" len="86"/>
          <note pan="0" key="50" vol="80" pos="3288" len="21"/>
          <note pan="0" key="52" vol="83" pos="3312" len="21"/>
          <note pan="0" key="53" vol="80" pos="3336" len="21"/>
          <note pan="0" key="55" vol="111" pos="3360" len="32"/>
          <note pan="0" key="26" vol="86" pos="3360" len="86"/>
          <note pan="0" key="31" vol="86" pos="3360" len="86"/>
          <note pan="0" key="50" vol="100" pos="3396" len="10"/>
          <note pan="0" key="55" vol="107" pos="3408" len="43"/>
          <note pan="0" key="48" vol="89" pos="3456" len="21"/>
          <note pan="0" key="24" vol="89" pos="3456" len="86"/>
          <note pan="0" key="31" vol="89" pos="3456" len="86"/>
          <note pan="0" key="50" vol="80" pos="3480" len="21"/>
          <note pan="0" key="52" vol="83" pos="3504" len="21"/>
          <note pan="0" key="53" vol="80" pos="3528" len="21"/>
          <note pan="0" key="55" vol="86" pos="3552" len="21"/>
          <note pan="0" key="28" vol="86" pos="3552" len="86"/>
          <note pan="0" key="31" vol="86" pos="3552" len="86"/>
          <note pan="0" key="53" vol="80" pos="3576" len="21"/>
          <note pan="0" key="52" vol="83" pos="3600" len="21"/>
          <note pan="0" key="50" vol="80" pos="3624" len="21"/>
          <note pan="0" key="48" vol="89" pos="3648" len="21"/>
          <note pan="0" key="24" vol="89" pos="3648" len="43"/>
          <note pan="0" key="31" vol="89" pos="3648" len="43"/>
          <note pan="0" key="50" vol="80" pos="3672" len="21"/>
          <note pan="0" key="52" vol="83" pos="3696" len="21"/>
          <note pan="0" key="26" vol="83" pos="3696" len="43"/>
          <note pan="0" key="30" vol="83" pos="3696" len="43"/>
          <note pan="0" key="54" vol="80" pos="3720" len="21"/>
          <note pan="0" key="55" vol="111" pos="3744" len="86"/>
          <note pan="0" key="26" vol="86" pos="3744" len="86"/>
          <note pan="0" key="31" vol="86" pos="3744" len="86"/>
          <note pan="0" key="55" vol="89" pos="3840" len="21"/>
          <note pan="0" key="31" vol="89" pos="3840" len="86"/>
          <note pan="0" key="35" vol="89" pos="3840" len="86"/>
          <note pan="0" key="57" vol="80" pos="3864" len="21"/>
          <note pan="0" key="59" vol="83" pos="3888" len="21"/>
          <note pan="0" key="60" vol="80" pos="3912" len="21"/>
          <note pan="0" key="62" vol="86" pos="3936" len="21"/>
          <note pan="0" key="26" vol="86" pos="3936" len="86"/>
          <note pan="0" key="31" vol="86" pos="3936" len="86"/>
          <note pan="0" key="60" vol="80" pos="3960" len="21"/>
          <note pan="0" key="59" vol="83" pos="3984" len="21"/>
          <note pan="0" key="57" vol="80" pos="4008" len="21"/>
          <note pan="0" key="55" vol="89" pos="4032" len="21"/>
          <note pan="0" key="31" vol="89" pos="4032" len="86"/>
          <note pan="0" key="35" vol="89" pos="4032" len="86"/>
          <note pan="0" key="57" vol="80" pos="4056" len="21"/>
          <note pan="0" key="59" vol="83" pos="4080" len="21"/>
          <note pan="0" key="60" vol="80" pos="4104" len="21"/>
          <note pan="0" key="62" vol="111" pos="4128" len="32"/>
          <note pan="0" key="30" vol="86" pos="4128" len="86"/>
          <note pan="0" key="33" vol="86" pos="4128" len="86"/>
          <note pan="0" key="57" vol="100" pos="4164" len="10"/>
          <note pan="0" key="62" vol="107" pos="4176" len="43"/>
          <note pan="0" key="55" vol="89" pos="4224" len="21"/>
          <note pan="0" key="31" vol="89" pos="4224" len="86"/>
          <note pan="0" key="35" vol="89" pos="4224" len="86"/>
          <note pan="0" key="57" vol="80" pos="4248" len="21"/>
          <note pan="0" key="59" vol="83" pos="4272" len="21"/>
          <note pan="0" key="60" vol="80" pos="4296" len="21"/>
          <note pan="0" key="62" vol="86" pos="4320" len="21"/>
          <note pan="0" key="26" vol="86" pos="4320" len="86"/>
          <note pan="0" key="31" vol="86" pos="4320" len="86"/>
          <note pan="0" key="60" vol="80" pos="4344" len="21"/>
          <note pan="0" key="59" vol="83" pos="4368" len="21"/>
          <note pan="0" key="57" vol="80" pos="4392" len="21"/>
          <note pan="0" key="55" vol="89" pos="4416" len="21"/>
          <note pan="0" key="26" vol="89" pos="4416" len="43"/>
          <note pan="0" key="31" vol="89" pos="4416" len="43"/>
          <note pan="0" key="57" vol="80" pos="4440" len="21"/>
          <note pan="0" key="59" vol="83" pos="4464" len="21"/>
          <note pan="0" key="26" vol="83" pos="4464" len="43"/>
          <note pan="0" key="30" vol="83" pos="4464" len="43"/>
          <note pan="0" key="54" vol="80" pos="4488" len="21"/>
          <note pan="0" key="55" vol="111" pos="4512" len="86"/>
          <note pan="0" key="23" vol="86" pos="4512" len="86"/>
          <note pan="0" key="29" vol="86" pos="4512" len="86"/>
          <note pan="0" key="48" vol="89" pos="4608" len="43"/>
          <note pan="0" key="24" vol="89" pos="4608" len="21"/>
          <note pan="0" key="31" vol="80" pos="4632" len="21"/>
          <note pan="0" key="43" vol="83" pos="4656" len="43"/>
          <note pan="0" key="36" vol="83" pos="4656" len="21"/>
          <note pan="0" key="31" vol="80" pos="4680" len="21"/>
          <note pan="0" key="48" vol="86" pos="4704" len="43"/>
          <note pan="0" key="28" vol="86" pos="4704" len="21"/>
          <note pan="0" key="31" vol="80" pos="4728" len="21"/>
          <note pan="0" key="50" vol="83" pos="4752" len="43"/>
          <note pan="0" key="36" vol="83" pos="4752" len="21"/>
          <note pan="0" key="31" vol="80" pos="4776" len="21"/>
          <note pan="0" key="52" vol="89" pos="4800" len="43"/>
          <note pan="0" key="28" vol="89" pos="4800" len="21"/>
          <note pan="0" key="31" vol="80" pos="4824" len="21"/>
          <note pan="0" key="47" vol="83" pos="4848" len="43"/>
          <note pan="0" key="35" vol="83" pos="4848" len="21"/>
          <note pan="0" key="31" vol="80" pos="4872" len="21"/>
          <note pan="0" key="52" vol="86" pos="4896" len="43"/>
          <note pan="0" key="28" vol="86" pos="4896" len="21"/>
          <note pan="0" key="31" vol="80" pos="4920" len="21"/>
          <note pan="0" key="50" vol="83" pos="4944" len="43"/>
          <note pan="0" key="35" vol="83" pos="4944" len="21"/>
          <note pan="0" key="31" vol="80" pos="4968" len="21"/>
          <note pan="0" key="48" vol="89" pos="4992" len="43"/>
          <note pan="0" key="24" vol="89" pos="4992" len="21"/>
          <note pan="0" key="31" vol="80" pos="5016" len="21"/>
          <note pan="0" key="43" vol="83" pos="5040" len="43"/>
          <note pan="0" key="36" vol="83" pos="5040" len="21"/>
          <note pan="0" key="31" vol="80" pos="5064" len="21"/>
          <note pan="0" key="48" vol="86" pos="5088" len="43"/>
          <note pan="0" key="28" vol="86" pos="5088" len="21"/>
          <note pan="0" key="31" vol="80" pos="5112" len="21"/>
          <note pan="0" key="50" vol="83" pos="5136" len="43"/>
          <note pan="0" key="36" vol="83" pos="5136" len="21"/>
          <note pan="0" key="31" vol="80" pos="5160" len="21"/>
          <note pan="0" key="52" vol="89" pos="5184" len="64"/>
          <note pan="0" key="26" vol="89" pos="5184" len="21"/>
          <note pan="0" key="33" vol="80" pos="5208" len="21"/>
          <note pan="0" key="36" vol="83" pos="5232" len="21"/>
          <note pan="0" key="54" vol="80" pos="5256" len="21"/>
          <note pan="0" key="33" vol="80" pos="5256" len="21"/>
          <note pan="0" key="55" vol="86" pos="5280" len="86"/>
          <note pan="0" key="26" vol="86" pos="5280" len="21"/>
          <note pan="0" key="31" vol="80" pos="5304" len="21"/>
          <note pan="0" key="35" vol="83" pos="5328" len="21"/>
          <note pan="0" key="31" vol="80" pos="5352" len="21"/>
          <note pan="0" key="55" vol="89" pos="5376" len="43"/>
          <note pan="0" key="19" vol="89" pos="5376" len="21"/>
          <note pan="0" key="31" vol="80" pos="5400" len="21"/>
          <note pan="0" key="50" vol="83" pos="5424" len="43"/>
          <note pan="0" key="35" vol="83" pos="5424" len="21"/>
          <note pan="0" key="31" vol="80" pos="5448" len="21"/>
          <note pan="0" key="55" vol="86" pos="5472" len="43"/>
          <note pan="0" key="26" vol="86" pos="5472" len="21"/>
          <note pan="0" key="31" vol="80" pos="5496" len="21"/>
          <note pan="0" key="57" vol="83" pos="5520" len="43"/>
          <note pan="0" key="35" vol="83" pos="5520" len="21"/>
          <note pan="0" key="31" vol="80" pos="5544" len="21"/>
          <note pan="0" key="59" vol="89" pos="5568" len="43"/>
          <note pan="0" key="26" vol="89" pos="5568" len="21"/>
          <note pan="0" key="33" vol="80" pos="5592" len="21"/>
          <note pan="0" key="54" vol="83" pos="5616" len="43"/>
          <note pan="0" key="36" vol="83" pos="5616" len="21"/>
          <note pan="0" key="33" vol="80" pos="5640" len="21"/>
          <note pan="0" key="59" vol="86" pos="5664" len="43"/>
          <note pan="0" key="30" vol="86" pos="5664" len="21"/>
          <note pan="0" key="33" vol="80" pos="5688" len="21"/>
          <note pan="0" key="60" vol="83" pos="5712" len="43"/>
          <note pan="0" key="36" vol="83" pos="5712" len="21"/>
          <note pan="0" key="33" vol="80" pos="5736" len="21"/>
          <note pan="0" key="62" vol="89" pos="5760" len="43"/>
          <note pan="0" key="26" vol="89" pos="5760" len="21"/>
          <note pan="0" key="33" vol="80" pos="5784" len="21"/>
          <note pan="0" key="57" vol="83" pos="5808" len="43"/>
          <note pan="0" key="36" vol="83" pos="5808" len="21"/>
          <note pan="0" key="33" vol="80" pos="5832" len="21"/>
          <note pan="0" key="62" vol="86" pos="5856" len="43"/>
          <note pan="0" key="30" vol="86" pos="5856" len="21"/>
          <note pan="0" key="33" vol="80" pos="5880" len="21"/>
          <note pan="0" key="60" vol="83" pos="5904" len="43"/>
          <note pan="0" key="36" vol="83" pos="5904" len="21"/>
          <note pan="0" key="33" vol="80" pos="5928" len="21"/>
          <note pan="0" key="59" vol="89" pos="5952" len="64"/>
          <note pan="0" key="19" vol="89" pos="5952" len="21"/>
          <note pan="0" key="31" vol="80" pos="5976" len="21"/>
          <note pan="0" key="35" vol="83" pos="6000" len="21"/>
          <note pan="0" key="57" vol="80" pos="6024" len="21"/>
          <note pan="0" key="31" vol="80" pos="6024" len="21"/>
          <note pan="0" key="55" vol="86" pos="6048" len="43"/>
          <note pan="0" key="26" vol="86" pos="6048" len="43"/>
          <note pan="0" key="31" vol="86" pos="6048" len="43"/>
          <note pan="0" key="35" vol="86" pos="6048" len="43"/>
          <note pan="0" key="43" vol="109" pos="6096" len="43"/>
          <note pan="0" key="47" vol="117" pos="6144" len="64"/>
          <note pan="0" key="31" vol="117" pos="6144" len="64"/>
          <note pan="0" key="48" vol="105" pos="6216" len="21"/>
          <note pan="0" key="36" vol="105" pos="6216" len="21"/>
          <note pan="0" key="50" vol="113" pos="6240" len="43"/>
          <note pan="0" key="31" vol="113" pos="6240" len="43"/>
          <note pan="0" key="47" vol="109" pos="6288" len="43"/>
          <note pan="0" key="31" vol="109" pos="6288" len="43"/>
          <note pan="0" key="48" vol="117" pos="6336" len="43"/>
          <note pan="0" key="36" vol="117" pos="6336" len="43"/>
          <note pan="0" key="50" vol="109" pos="6384" len="43"/>
          <note pan="0" key="35" vol="109" pos="6384" len="43"/>
          <note pan="0" key="52" vol="113" pos="6432" len="86"/>
          <note pan="0" key="33" vol="113" pos="6432" len="86"/>
          <note pan="0" key="52" vol="117" pos="6528" len="64"/>
          <note pan="0" key="33" vol="117" pos="6528" len="64"/>
          <note pan="0" key="50" vol="105" pos="6600" len="21"/>
          <note pan="0" key="35" vol="105" pos="6600" len="21"/>
          <note pan="0" key="48" vol="113" pos="6624" len="43"/>
          <note pan="0" key="36" vol="113" pos="6624" len="43"/>
          <note pan="0" key="47" vol="109" pos="6672" len="43"/>
          <note pan="0" key="31" vol="109" pos="6672" len="43"/>
          <note pan="0" key="48" vol="117" pos="6720" len="43"/>
          <note pan="0" key="36" vol="117" pos="6720" len="43"/>
          <note pan="0" key="52" vol="109" pos="6768" len="43"/>
          <note pan="0" key="33" vol="109" pos="6768" len="43"/>
          <note pan="0" key="50" vol="113" pos="6816" len="86"/>
          <note pan="0" key="31" vol="113" pos="6816" len="86"/>
          <note pan="0" key="47" vol="117" pos="6912" len="64"/>
          <note pan="0" key="31" vol="117" pos="6912" len="64"/>
          <note pan="0" key="38" vol="117" pos="6912" len="64"/>
          <note pan="0" key="48" vol="105" pos="6984" len="21"/>
          <note pan="0" key="36" vol="105" pos="6984" len="21"/>
          <note pan="0" key="40" vol="105" pos="6984" len="21"/>
          <note pan="0" key="50" vol="113" pos="7008" len="43"/>
          <note pan="0" key="31" vol="113" pos="7008" len="43"/>
          <note pan="0" key="38" vol="113" pos="7008" len="43"/>
          <note pan="0" key="47" vol="109" pos="7056" len="43"/>
          <note pan="0" key="31" vol="109" pos="7056" len="43"/>
          <note pan="0" key="38" vol="109" pos="7056" len="43"/>
          <note pan="0" key="48" vol="117" pos="7104" len="43"/>
          <note pan="0" key="36" vol="117" pos="7104" len="43"/>
          <note pan="0" key="40" vol="117" pos="7104" len="43"/>
          <note pan="0" key="50" vol="109" pos="7152" len="43"/>
          <note pan="0" key="35" vol="109" pos="7152" len="43"/>
          <note pan="0" key="42" vol="109" pos="7152" len="43"/>
          <note pan="0" key="52" vol="113" pos="7200" len="86"/>
          <note pan="0" key="33" vol="113" pos="7200" len="86"/>
          <note pan="0" key="45" vol="113" pos="7200" len="86"/>
          <note pan="0" key="52" vol="117" pos="7296" len="64"/>
          <note pan="0" key="33" vol="117" pos="7296" len="64"/>
          <note pan="0" key="36" vol="117" pos="7296" len="64"/>
          <note pan="0" key="50" vol="105" pos="7368" len="21"/>
          <note pan="0" key="35" vol="105" pos="7368" len="21"/>
          <note pan="0" key="38" vol="105" pos="7368" len="21"/>
          <note pan="0" key="48" vol="113" pos="7392" len="43"/>
          <note pan="0" key="36" vol="113" pos="7392" len="43"/>
          <note pan="0" key="40" vol="113" pos="7392" len="43"/>
          <note pan="0" key="47" vol="109" pos="7440" len="43"/>
          <note pan="0" key="31" vol="109" pos="7440" len="43"/>
          <note pan="0" key="38" vol="109" pos="7440" len="43"/>
          <note pan="0" key="48" vol="117" pos="7488" len="43"/>
          <note pan="0" key="38" vol="117" pos="7488" len="43"/>
          <note pan="0" key="42" vol="117" pos="7488" len="43"/>
          <note pan="0" key="42" vol="109" pos="7536" len="43"/>
          <note pan="0" key="26" vol="109" pos="7536" len="43"/>
          <note pan="0" key="36" vol="109" pos="7536" len="43"/>
          <note pan="0" key="43" vol="113" pos="7584" len="86"/>
          <note pan="0" key="31" vol="113" pos="7584" len="86"/>
          <note pan="0" key="35" vol="113" pos="7584" len="86"/>
          <note pan="0" key="43" vol="117" pos="7680" len="64"/>
          <note pan="0" key="47" vol="117" pos="7680" len="64"/>
          <note pan="0" key="31" vol="117" pos="7680" len="64"/>
          <note pan="0" key="38" vol="117" pos="7680" len="64"/>
          <note pan="0" key="43" vol="105" pos="7752" len="21"/>
          <note pan="0" key="48" vol="105" pos="7752" len="21"/>
          <note pan="0" key="36" vol="105" pos="7752" len="21"/>
          <note pan="0" key="40" vol="105" pos="7752" len="21"/>
          <note pan="0" key="47" vol="113" pos="7776" len="43"/>
          <note pan="0" key="50" vol="113" pos="7776" len="43"/>
          <note pan="0" key="31" vol="113" pos="7776" len="43"/>
          <note pan="0" key="38" vol="113" pos="7776" len="43"/>
          <note pan="0" key="43" vol="109" pos="7824" len="43"/>
          <note pan="0" key="47" vol="109" pos="7824" len="43"/>
          <note pan="0" key="31" vol="109" pos="7824" len="43"/>
          <note pan="0" key="38" vol="109" pos="7824" len="43"/>
          <note pan="0" key="45" vol="117" pos="7872" len="43"/>
          <note pan="0" key="48" vol="117" pos="7872" len="43"/>
          <note pan="0" key="36" vol="117" pos="7872" len="43"/>
          <note pan="0" key="40" vol="117" pos="7872" len="43"/>
          <note pan="0" key="47" vol="109" pos="7920" len="43"/>
          <note pan="0" key="50" vol="109" pos="7920" len="43"/>
          <note pan="0" key="35" vol="109" pos="7920" len="43"/>
          <note pan="0" key="42" vol="109" pos="7920" len="43"/>
          <note pan="0" key="48" vol="113" pos="7968" len="86"/>
          <note pan="0" key="52" vol="113" pos="7968" len="86"/>
          <note pan="0" key="33" vol="113" pos="7968" len="86"/>
          <note pan="0" key="45" vol="113" pos="7968" len="86"/>
          <note pan="0" key="48" vol="117" pos="8064" len="64"/>
          <note pan="0" key="52" vol="117" pos="8064" len="64"/>
          <note pan="0" key="33" vol="117" pos="8064" len="64"/>
          <note pan="0" key="36" vol="117" pos="8064" len="64"/>
          <note pan="0" key="47" vol="105" pos="8136" len="21"/>
          <note pan="0" key="50" vol="105" pos="8136" len="21"/>
          <note pan="0" key="35" vol="105" pos="8136" len="21"/>
          <note pan="0" key="38" vol="105" pos="8136" len="21"/>
          <note pan="0" key="43" vol="113" pos="8160" len="43"/>
          <note pan="0" key="48" vol="113" pos="8160" len="43"/>
          <note pan="0" key="36" vol="113" pos="8160" len="43"/>
          <note pan="0" key="40" vol="113" pos="8160" len="43"/>
          <note pan="0" key="43" vol="109" pos="8208" len="43"/>
          <note pan="0" key="47" vol="109" pos="8208" len="43"/>
          <note pan="0" key="31" vol="109" pos="8208" len="43"/>
          <note pan="0" key="38" vol="109" pos="8208" len="43"/>
          <note pan="0" key="43" vol="117" pos="8256" len="43"/>
          <note pan="0" key="48" vol="117" pos="8256" len="43"/>
          <note pan="0" key="36" vol="117" pos="8256" len="43"/>
          <note pan="0" key="40" vol="117" pos="8256" len="43"/>
          <note pan="0" key="45" vol="109" pos="8304" len="43"/>
          <note pan="0" key="52" vol="109" pos="8304" len="43"/>
          <note pan="0" key="33" vol="109" pos="8304" len="43"/>
          <note pan="0" key="38" vol="109" pos="8304" len="43"/>
          <note pan="0" key="47" vol="113" pos="8352" len="86"/>
          <note pan="0" key="50" vol="113" pos="8352" len="86"/>
          <note pan="0" key="31" vol="113" pos="8352" len="86"/>
          <note pan="0" key="43" vol="113" pos="8352" len="86"/>
          <note pan="0" key="43" vol="117" pos="8448" len="64"/>
          <note pan="0" key="47" vol="117" pos="8448" len="64"/>
          <note pan="0" key="31" vol="117" pos="8448" len="64"/>
          <note pan="0" key="38" vol="117" pos="8448" len="64"/>
          <note pan="0" key="43" vol="105" pos="8520" len="21"/>
          <note pan="0" key="48" vol="105" pos="8520" len="21"/>
          <note pan="0" key="36" vol="105" pos="8520" len="21"/>
          <note pan="0" key="40" vol="105" pos="8520" len="21"/>
          <note pan="0" key="47" vol="113" pos="8544" len="43"/>
          <note pan="0" key="50" vol="113" pos="8544" len="43"/>
          <note pan="0" key="31" vol="113" pos="8544" len="43"/>
          <note pan="0" key="38" vol="113" pos="8544" len="43"/>
          <note pan="0" key="43" vol="109" pos="8592" len="43"/>
          <note pan="0" key="47" vol="109" pos="8592" len="43"/>
          <note pan="0" key="31" vol="109" pos="8592" len="43"/>
          <note pan="0" key="38" vol="109" pos="8592" len="43"/>
          <note pan="0" key="45" vol="117" pos="8640" len="43"/>
          <note pan="0" key="48" vol="117" pos="8640" len="43"/>
          <note pan="0" key="36" vol="117" pos="8640" len="43"/>
          <note pan="0" key="40" vol="117" pos="8640" len="43"/>
          <note pan="0" key="47" vol="109" pos="8688" len="43"/>
          <note pan="0" key="50" vol="109" pos="8688" len="43"/>
          <note pan="0" key="35" vol="109" pos="8688" len="43"/>
          <note pan="0" key="42" vol="109" pos="8688" len="43"/>
          <note pan="0" key="48" vol="113" pos="8736" len="86"/>
          <note pan="0" key="52" vol="113" pos="8736" len="86"/>
          <note pan="0" key="33" vol="113" pos="8736" len="86"/>
          <note pan="0" key="45" vol="113" pos="8736" len="86"/>
          <note pan="0" key="48" vol="117" pos="8832" len="64"/>
          <note pan="0" key="52" vol="117" pos="8832" len="64"/>
          <note pan="0" key="33" vol="117" pos="8832" len="64"/>
          <note pan="0" key="36" vol="117" pos="8832" len="64"/>
          <note pan="0" key="47" vol="105" pos="8904" len="21"/>
          <note pan="0" key="50" vol="105" pos="8904" len="21"/>
          <note pan="0" key="35" vol="105" pos="8904" len="21"/>
          <note pan="0" key="38" vol="105" pos="8904" len="21"/>
          <note pan="0" key="43" vol="113" pos="8928" len="43"/>
          <note pan="0" key="48" vol="113" pos="8928" len="43"/>
          <note pan="0" key="36" vol="113" pos="8928" len="43"/>
          <note pan="0" key="40" vol="113" pos="8928" len="43"/>
          <note pan="0" key="43" vol="109" pos="8976" len="43"/>
          <note pan="0" key="47" vol="109" pos="8976" len="43"/>
          <note pan="0" key="31" vol="109" pos="8976" len="43"/>
          <note pan="0" key="38" vol="109" pos="8976" len="43"/>
          <note pan="0" key="45" vol="117" pos="9024" len="43"/>
          <note pan="0" key="48" vol="117" pos="9024" len="43"/>
          <note pan="0" key="38" vol="117" pos="9024" len="43"/>
          <note pan="0" key="42" vol="117" pos="9024" len="43"/>
          <note pan="0" key="38" vol="109" pos="9072" len="43"/>
          <note pan="0" key="42" vol="109" pos="9072" len="43"/>
          <note pan="0" key="26" vol="109" pos="9072" len="43"/>
          <note pan="0" key="36" vol="109" pos="9072" len="43"/>
          <note pan="0" key="38" vol="113" pos="9120" len="86"/>
          <note pan="0" key="43" vol="113" pos="9120" len="86"/>
          <note pan="0" key="31" vol="113" pos="9120" len="86"/>
          <note pan="0" key="35" vol="113" pos="9120" len="86"/>
          <note pan="0" key="43" vol="89" pos="9216" len="21"/>
          <note pan="0" key="31" vol="89" pos="9216" len="43"/>
          <note pan="0" key="45" vol="80" pos="9240" len="21"/>
          <note pan="0" key="47" vol="83" pos="9264" len="43"/>
          <note pan="0" key="35" vol="83" pos="9264" len="21"/>
          <note pan="0" key="31" vol="80" pos="9288" len="21"/>
          <note pan="0" key="47" vol="86" pos="9312" len="21"/>
          <note pan="0" key="35" vol="86" pos="9312" len="43"/>
          <note pan="0" key="45" vol="80" pos="9336" len="21"/>
          <note pan="0" key="43" vol="83" pos="9360" len="43"/>
          <note pan="0" key="31" vol="83" pos="9360" len="21"/>
          <note pan="0" key="35" vol="80" pos="9384" len="21"/>
          <note pan="0" key="47" vol="89" pos="9408" len="21"/>
          <note pan="0" key="26" vol="89" pos="9408" len="43"/>
          <note pan="0" key="48" vol="80" pos="9432" len="21"/>
          <note pan="0" key="50" vol="83" pos="9456" len="43"/>
          <note pan="0" key="33" vol="83" pos="9456" len="21"/>
          <note pan="0" key="26" vol="80" pos="9480" len="21"/>
          <note pan="0" key="50" vol="86" pos="9504" len="21"/>
          <note pan="0" key="33" vol="86" pos="9504" len="43"/>
          <note pan="0" key="48" vol="80" pos="9528" len="21"/>
          <note pan="0" key="47" vol="83" pos="9552" len="43"/>
          <note pan="0" key="26" vol="83" pos="9552" len="21"/>
          <note pan="0" key="33" vol="80" pos="9576" len="21"/>
          <note pan="0" key="43" vol="89" pos="9600" len="21"/>
          <note pan="0" key="31" vol="89" pos="9600" len="43"/>
          <note pan="0" key="45" vol="80" pos="9624" len="21"/>
          <note pan="0" key="47" vol="83" pos="9648" len="43"/>
          <note pan="0" key="35" vol="83" pos="9648" len="21"/>
          <note pan="0" key="31" vol="80" pos="9672" len="21"/>
          <note pan="0" key="47" vol="86" pos="9696" len="21"/>
          <note pan="0" key="35" vol="86" pos="9696" len="43"/>
          <note pan="0" key="45" vol="80" pos="9720" len="21"/>
          <note pan="0" key="43" vol="83" pos="9744" len="43"/>
          <note pan="0" key="31" vol="83" pos="9744" len="21"/>
          <note pan="0" key="35" vol="80" pos="9768" len="21"/>
          <note pan="0" key="47" vol="89" pos="9792" len="21"/>
          <note pan="0" key="38" vol="89" pos="9792" len="21"/>
          <note pan="0" key="48" vol="80" pos="9816" len="21"/>
          <note pan="0" key="33" vol="80" pos="9816" len="21"/>
          <note pan="0" key="50" vol="83" pos="9840" len="21"/>
          <note pan="0" key="30" vol="83" pos="9840" len="21"/>
          <note pan="0" key="42" vol="80" pos="9864" len="21"/>
          <note pan="0" key="26" vol="80" pos="9864" len="21"/>
          <note pan="0" key="43" vol="86" pos="9888" len="86"/>
          <note pan="0" key="31" vol="86" pos="9888" len="86"/>
          <note pan="0" key="43" vol="89" pos="9984" len="21"/>
          <note pan="0" key="31" vol="89" pos="9984" len="43"/>
          <note pan="0" key="45" vol="80" pos="10008" len="21"/>
          <note pan="0" key="47" vol="83" pos="10032" len="43"/>
          <note pan="0" key="35" vol="83" pos="10032" len="21"/>
          <note pan="0" key="31" vol="80" pos="10056" len="21"/>
          <note pan="0" key="47" vol="86" pos="10080" len="21"/>
          <note pan="0" key="35" vol="86" pos="10080" len="43"/>
          <note pan="0" key="45" vol="80" pos="10104" len="21"/>
          <note pan="0" key="43" vol="83" pos="10128" len="43"/>
          <note pan="0" key="31" vol="83" pos="10128" len="21"/>
          <note pan="0" key="35" vol="80" pos="10152" len="21"/>
          <note pan="0" key="48" vol="89" pos="10176" len="21"/>
          <note pan="0" key="26" vol="89" pos="10176" len="43"/>
          <note pan="0" key="50" vol="80" pos="10200" len="21"/>
          <note pan="0" key="52" vol="83" pos="10224" len="43"/>
          <note pan="0" key="33" vol="83" pos="10224" len="21"/>
          <note pan="0" key="26" vol="80" pos="10248" len="21"/>
          <note pan="0" key="52" vol="86" pos="10272" len="21"/>
          <note pan="0" key="33" vol="86" pos="10272" len="43"/>
          <note pan="0" key="50" vol="80" pos="10296" len="21"/>
          <note pan="0" key="48" vol="83" pos="10320" len="43"/>
          <note pan="0" key="26" vol="83" pos="10320" len="21"/>
          <note pan="0" key="33" vol="80" pos="10344" len="21"/>
          <note pan="0" key="43" vol="89" pos="10368" len="21"/>
          <note pan="0" key="31" vol="89" pos="10368" len="43"/>
          <note pan="0" key="45" vol="80" pos="10392" len="21"/>
          <note pan="0" key="47" vol="83" pos="10416" len="43"/>
          <note pan="0" key="35" vol="83" pos="10416" len="21"/>
          <note pan="0" key="31" vol="80" pos="10440" len="21"/>
          <note pan="0" key="47" vol="86" pos="10464" len="21"/>
          <note pan="0" key="35" vol="86" pos="10464" len="43"/>
          <note pan="0" key="45" vol="80" pos="10488" len="21"/>
          <note pan="0" key="43" vol="83" pos="10512" len="43"/>
          <note pan="0" key="31" vol="83" pos="10512" len="21"/>
          <note pan="0" key="35" vol="80" pos="10536" len="21"/>
          <note pan="0" key="48" vol="89" pos="10560" len="21"/>
          <note pan="0" key="43" vol="89" pos="10560" len="21"/>
          <note pan="0" key="50" vol="80" pos="10584" len="21"/>
          <note pan="0" key="38" vol="80" pos="10584" len="21"/>
          <note pan="0" key="52" vol="83" pos="10608" len="21"/>
          <note pan="0" key="35" vol="83" pos="10608" len="21"/>
          <note pan="0" key="47" vol="80" pos="10632" len="21"/>
          <note pan="0" key="31" vol="80" pos="10632" len="21"/>
          <note pan="0" key="48" vol="86" pos="10656" len="86"/>
          <note pan="0" key="36" vol="86" pos="10656" len="86"/>
          <note pan="0" key="48" vol="67" pos="10752" len="43"/>
          <note pan="0" key="24" vol="67" pos="10752" len="21"/>
          <note pan="0" key="31" vol="60" pos="10776" len="21"/>
          <note pan="0" key="43" vol="62" pos="10800" len="43"/>
          <note pan="0" key="36" vol="62" pos="10800" len="21"/>
          <note pan="0" key="31" vol="60" pos="10824" len="21"/>
          <note pan="0" key="48" vol="64" pos="10848" len="43"/>
          <note pan="0" key="28" vol="64" pos="10848" len="21"/>
          <note pan="0" key="31" vol="60" pos="10872" len="21"/>
          <note pan="0" key="50" vol="62" pos="10896" len="43"/>
          <note pan="0" key="36" vol="62" pos="10896" len="21"/>
          <note pan="0" key="31" vol="60" pos="10920" len="21"/>
          <note pan="0" key="52" vol="67" pos="10944" len="43"/>
          <note pan="0" key="28" vol="67" pos="10944" len="21"/>
          <note pan="0" key="31" vol="60" pos="10968" len="21"/>
          <note pan="0" key="47" vol="62" pos="10992" len="43"/>
          <note pan="0" key="35" vol="62" pos="10992" len="21"/>
          <note pan="0" key="31" vol="60" pos="11016" len="21"/>
          <note pan="0" key="52" vol="64" pos="11040" len="43"/>
          <note pan="0" key="28" vol="64" pos="11040" len="21"/>
          <note pan="0" key="31" vol="60" pos="11064" len="21"/>
          <note pan="0" key="50" vol="62" pos="11088" len="43"/>
          <note pan="0" key="35" vol="62" pos="11088" len="21"/>
          <note pan="0" key="31" vol="60" pos="11112" len="21"/>
          <note pan="0" key="48" vol="67" pos="11136" len="43"/>
          <note pan="0" key="24" vol="67" pos="11136" len="21"/>
          <note pan="0" key="31" vol="60" pos="11160" len="21"/>
          <note pan="0" key="43" vol="62" pos="11184" len="43"/>
          <note pan="0" key="36" vol="62" pos="11184" len="21"/>
          <note pan="0" key="31" vol="60" pos="11208" len="21"/>
          <note pan="0" key="48" vol="64" pos="11232" len="43"/>
          <note pan="0" key="28" vol="64" pos="11232" len="21"/>
          <note pan="0" key="31" vol="60" pos="11256" len="21"/>
          <note pan="0" key="50" vol="62" pos="11280" len="43"/>
          <note pan="0" key="36" vol="62" pos="11280" len="21"/>
          <note pan="0" key="31" vol="60" pos="11304" len="21"/>
          <note pan="0" key="52" vol="67" pos="11328" len="64"/>
          <note pan="0" key="24" vol="67" pos="11328" len="21"/>
          <note pan="0" key="31" vol="60" pos="11352" len="21"/>
          <note pan="0" key="36" vol="62" pos="11376" len="21"/>
          <note pan="0" key="50" vol="60" pos="11400" len="21"/>
          <note pan="0" key="31" vol="60" pos="11400" len="21"/>
          <note pan="0" key="48" vol="64" pos="11424" len="86"/>
          <note pan="0" key="28" vol="64" pos="11424" len="21"/>
          <note pan="0" key="31" vol="60" pos="11448" len="21"/>
          <note pan="0" key="36" vol="62" pos="11472" len="21"/>
          <note pan="0" key="31" vol="60" pos="11496" len="21"/>
          <note pan="0" key="48" vol="67" pos="11520" len="43"/>
          <note pan="0" key="24" vol="67" pos="11520" len="21"/>
          <note pan="0" key="31" vol="61" pos="11544" len="21"/>
          <note pan="0" key="43" vol="65" pos="11568" len="43"/>
          <note pan="0" key="36" vol="65" pos="11568" len="21"/>
          <note pan="0" key="31" vol="64" pos="11592" len="21"/>
          <note pan="0" key="48" vol="71" pos="11616" len="43"/>
          <note pan="0" key="28" vol="71" pos="11616" len="21"/>
          <note pan="0" key="31" vol="68" pos="11640" len="21"/>
          <note pan="0" key="50" vol="71" pos="11664" len="43"/>
          <note pan="0" key="36" vol="71" pos="11664" len="21"/>
          <note pan="0" key="31" vol="71" pos="11688" len="21"/>
          <note pan="0" key="52" vol="80" pos="11712" len="43"/>
          <note pan="0" key="28" vol="80" pos="11712" len="21"/>
          <note pan="0" key="31" vol="74" pos="11736" len="21"/>
          <note pan="0" key="47" vol="79" pos="11760" len="43"/>
          <note pan="0" key="35" vol="79" pos="11760" len="21"/>
          <note pan="0" key="31" vol="77" pos="11784" len="21"/>
          <note pan="0" key="52" vol="85" pos="11808" len="43"/>
          <note pan="0" key="28" vol="85" pos="11808" len="21"/>
          <note pan="0" key="31" vol="80" pos="11832" len="21"/>
          <note pan="0" key="53" vol="85" pos="11856" len="43"/>
          <note pan="0" key="35" vol="85" pos="11856" len="21"/>
          <note pan="0" key="31" vol="84" pos="11880" len="21"/>
          <note pan="0" key="55" vol="95" pos="11904" len="43"/>
          <note pan="0" key="19" vol="95" pos="11904" len="21"/>
          <note pan="0" key="31" vol="87" pos="11928" len="21"/>
          <note pan="0" key="50" vol="91" pos="11952" len="43"/>
          <note pan="0" key="35" vol="91" pos="11952" len="21"/>
          <note pan="0" key="31" vol="90" pos="11976" len="21"/>
          <note pan="0" key="55" vol="99" pos="12000" len="43"/>
          <note pan="0" key="29" vol="99" pos="12000" len="21"/>
          <note pan="0" key="31" vol="93" pos="12024" len="21"/>
          <note pan="0" key="53" vol="98" pos="12048" len="43"/>
          <note pan="0" key="35" vol="98" pos="12048" len="21"/>
          <note pan="0" key="31" vol="96" pos="12072" len="21"/>
          <note pan="0" key="52" vol="109" pos="12096" len="64"/>
          <note pan="0" key="24" vol="109" pos="12096" len="21"/>
          <note pan="0" key="31" vol="100" pos="12120" len="21"/>
          <note pan="0" key="36" vol="105" pos="12144" len="21"/>
          <note pan="0" key="50" vol="103" pos="12168" len="21"/>
          <note pan="0" key="31" vol="103" pos="12168" len="21"/>
          <note pan="0" key="48" vol="113" pos="12192" len="86"/>
          <note pan="0" key="24" vol="113" pos="12192" len="86"/>
          <note pan="0" key="40" vol="113" pos="12192" len="86"/>
          <note pan="0" key="31" vol="113" pos="12192" len="86"/>
          <note pan="0" key="48" vol="100" pos="12288" len="43"/>
          <note pan="0" key="24" vol="100" pos="12288" len="21"/>
          <note pan="0" key="31" vol="90" pos="12312" len="21"/>
          <note pan="0" key="43" vol="93" pos="12336" len="43"/>
          <note pan="0" key="36" vol="93" pos="12336" len="21"/>
          <note pan="0" key="31" vol="90" pos="12360" len="21"/>
          <note pan="0" key="48" vol="97" pos="12384" len="43"/>
          <note pan="0" key="28" vol="97" pos="12384" len="21"/>
          <note pan="0" key="31" vol="90" pos="12408" len="21"/>
          <note pan="0" key="50" vol="93" pos="12432" len="43"/>
          <note pan="0" key="36" vol="93" pos="12432" len="21"/>
          <note pan="0" key="31" vol="90" pos="12456" len="21"/>
          <note pan="0" key="52" vol="100" pos="12480" len="21"/>
          <note pan="0" key="24" vol="100" pos="12480" len="21"/>
          <note pan="0" key="50" vol="90" pos="12504" len="21"/>
          <note pan="0" key="31" vol="90" pos="12504" len="21"/>
          <note pan="0" key="48" vol="93" pos="12528" len="21"/>
          <note pan="0" key="36" vol="93" pos="12528" len="21"/>
          <note pan="0" key="47" vol="90" pos="12552" len="21"/>
          <note pan="0" key="31" vol="90" pos="12552" len="21"/>
          <note pan="0" key="48" vol="97" pos="12576" len="86"/>
          <note pan="0" key="28" vol="97" pos="12576" len="21"/>
          <note pan="0" key="31" vol="90" pos="12600" len="21"/>
          <note pan="0" key="36" vol="93" pos="12624" len="21"/>
          <note pan="0" key="31" vol="90" pos="12648" len="21"/>
          <note pan="0" key="50" vol="100" pos="12672" len="43"/>
          <note pan="0" key="19" vol="100" pos="12672" len="21"/>
          <note pan="0" key="31" vol="90" pos="12696" len="21"/>
          <note pan="0" key="43" vol="93" pos="12720" len="43"/>
          <note pan="0" key="35" vol="93" pos="12720" len="21"/>
          <note pan="0" key="31" vol="90" pos="12744" len="21"/>
          <note pan="0" key="50" vol="97" pos="12768" len="43"/>
          <note pan="0" key="26" vol="97" pos="12768" len="21"/>
          <note pan="0" key="31" vol="90" pos="12792" len="21"/>
          <note pan="0" key="52" vol="93" pos="12816" len="43"/>
          <note pan="0" key="35" vol="93" pos="12816" len="21"/>
          <note pan="0" key="31" vol="90" pos="12840" len="21"/>
          <note pan="0" key="53" vol="100" pos="12864" len="21"/>
          <note pan="0" key="26" vol="100" pos="12864" len="21"/>
          <note pan="0" key="52" vol="90" pos="12888" len="21"/>
          <note pan="0" key="30" vol="90" pos="12888" len="21"/>
          <note pan="0" key="50" vol="93" pos="12912" len="21"/>
          <note pan="0" key="33" vol="93" pos="12912" len="21"/>
          <note pan="0" key="49" vol="90" pos="12936" len="21"/>
          <note pan="0" key="30" vol="90" pos="12936" len="21"/>
          <note pan="0" key="50" vol="97" pos="12960" len="86"/>
          <note pan="0" key="26" vol="97" pos="12960" len="21"/>
          <note pan="0" key="30" vol="90" pos="12984" len="21"/>
          <note pan="0" key="33" vol="93" pos="13008" len="21"/>
          <note pan="0" key="30" vol="90" pos="13032" len="21"/>
          <note pan="0" key="55" vol="100" pos="13056" len="21"/>
          <note pan="0" key="19" vol="100" pos="13056" len="21"/>
          <note pan="0" key="53" vol="90" pos="13080" len="21"/>
          <note pan="0" key="31" vol="90" pos="13080" len="21"/>
          <note pan="0" key="52" vol="93" pos="13104" len="21"/>
          <note pan="0" key="35" vol="93" pos="13104" len="21"/>
          <note pan="0" key="50" vol="90" pos="13128" len="21"/>
          <note pan="0" key="31" vol="90" pos="13128" len="21"/>
          <note pan="0" key="52" vol="97" pos="13152" len="86"/>
          <note pan="0" key="26" vol="97" pos="13152" len="21"/>
          <note pan="0" key="31" vol="90" pos="13176" len="21"/>
          <note pan="0" key="35" vol="93" pos="13200" len="21"/>
          <note pan="0" key="31" vol="90" pos="13224" len="21"/>
          <note pan="0" key="57" vol="100" pos="13248" len="21"/>
          <note pan="0" key="26" vol="100" pos="13248" len="21"/>
          <note pan="0" key="55" vol="92" pos="13272" len="21"/>
          <note pan="0" key="29" vol="92" pos="13272" len="21"/>
          <note pan="0" key="53" vol="98" pos="13296" len="21"/>
          <note pan="0" key="33" vol="98" pos="13296" len="21"/>
          <note pan="0" key="52" vol="97" pos="13320" len="21"/>
          <note pan="0" key="29" vol="97" pos="13320" len="21"/>
          <note pan="0" key="50" vol="108" pos="13344" len="21"/>
          <note pan="0" key="24" vol="108" pos="13344" len="21"/>
          <note pan="0" key="53" vol="102" pos="13368" len="21"/>
          <note pan="0" key="29" vol="102" pos="13368" len="21"/>
          <note pan="0" key="57" vol="109" pos="13392" len="21"/>
          <note pan="0" key="36" vol="109" pos="13392" len="21"/>
          <note pan="0" key="60" vol="107" pos="13416" len="21"/>
          <note pan="0" key="33" vol="107" pos="13416" len="21"/>
          <note pan="0" key="58" vol="123" pos="13440" len="21"/>
          <note pan="0" key="24" vol="123" pos="13440" len="21"/>
          <note pan="0" key="57" vol="107" pos="13464" len="21"/>
          <note pan="0" key="31" vol="107" pos="13464" len="21"/>
          <note pan="0" key="55" vol="109" pos="13488" len="21"/>
          <note pan="0" key="34" vol="109" pos="13488" len="21"/>
          <note pan="0" key="53" vol="102" pos="13512" len="21"/>
          <note pan="0" key="31" vol="102" pos="13512" len="21"/>
          <note pan="0" key="52" vol="108" pos="13536" len="21"/>
          <note pan="0" key="19" vol="108" pos="13536" len="21"/>
          <note pan="0" key="53" vol="97" pos="13560" len="21"/>
          <note pan="0" key="29" vol="97" pos="13560" len="21"/>
          <note pan="0" key="55" vol="98" pos="13584" len="21"/>
          <note pan="0" key="31" vol="98" pos="13584" len="21"/>
          <note pan="0" key="47" vol="92" pos="13608" len="21"/>
          <note pan="0" key="29" vol="92" pos="13608" len="21"/>
          <note pan="0" key="48" vol="100" pos="13632" len="43"/>
          <note pan="0" key="24" vol="100" pos="13632" len="21"/>
          <note pan="0" key="28" vol="90" pos="13656" len="21"/>
          <note pan="0" key="43" vol="93" pos="13680" len="43"/>
          <note pan="0" key="31" vol="93" pos="13680" len="21"/>
          <note pan="0" key="28" vol="90" pos="13704" len="21"/>
          <note pan="0" key="48" vol="97" pos="13728" len="86"/>
          <note pan="0" key="24" vol="97" pos="13728" len="21"/>
          <note pan="0" key="28" vol="90" pos="13752" len="21"/>
          <note pan="0" key="31" vol="93" pos="13776" len="21"/>
          <note pan="0" key="36" vol="90" pos="13800" len="21"/>
          <note pan="0" key="48" vol="89" pos="13824" len="43"/>
          <note pan="0" key="24" vol="89" pos="13824" len="21"/>
          <note pan="0" key="31" vol="80" pos="13848" len="21"/>
          <note pan="0" key="43" vol="83" pos="13872" len="43"/>
          <note pan="0" key="36" vol="83" pos="13872" len="21"/>
          <note pan="0" key="31" vol="80" pos="13896" len="21"/>
          <note pan="0" key="48" vol="86" pos="13920" len="43"/>
          <note pan="0" key="28" vol="86" pos="13920" len="21"/>
          <note pan="0" key="31" vol="80" pos="13944" len="21"/>
          <note pan="0" key="50" vol="83" pos="13968" len="43"/>
          <note pan="0" key="36" vol="83" pos="13968" len="21"/>
          <note pan="0" key="31" vol="80" pos="13992" len="21"/>
          <note pan="0" key="52" vol="89" pos="14016" len="43"/>
          <note pan="0" key="28" vol="89" pos="14016" len="21"/>
          <note pan="0" key="31" vol="80" pos="14040" len="21"/>
          <note pan="0" key="47" vol="83" pos="14064" len="43"/>
          <note pan="0" key="35" vol="83" pos="14064" len="21"/>
          <note pan="0" key="31" vol="80" pos="14088" len="21"/>
          <note pan="0" key="52" vol="86" pos="14112" len="43"/>
          <note pan="0" key="28" vol="86" pos="14112" len="21"/>
          <note pan="0" key="31" vol="80" pos="14136" len="21"/>
          <note pan="0" key="50" vol="83" pos="14160" len="43"/>
          <note pan="0" key="35" vol="83" pos="14160" len="21"/>
          <note pan="0" key="31" vol="80" pos="14184" len="21"/>
          <note pan="0" key="48" vol="89" pos="14208" len="43"/>
          <note pan="0" key="24" vol="89" pos="14208" len="21"/>
          <note pan="0" key="31" vol="80" pos="14232" len="21"/>
          <note pan="0" key="43" vol="83" pos="14256" len="43"/>
          <note pan="0" key="36" vol="83" pos="14256" len="21"/>
          <note pan="0" key="31" vol="80" pos="14280" len="21"/>
          <note pan="0" key="48" vol="86" pos="14304" len="43"/>
          <note pan="0" key="28" vol="86" pos="14304" len="21"/>
          <note pan="0" key="31" vol="80" pos="14328" len="21"/>
          <note pan="0" key="50" vol="83" pos="14352" len="43"/>
          <note pan="0" key="36" vol="83" pos="14352" len="21"/>
          <note pan="0" key="31" vol="80" pos="14376" len="21"/>
          <note pan="0" key="52" vol="89" pos="14400" len="64"/>
          <note pan="0" key="24" vol="89" pos="14400" len="21"/>
          <note pan="0" key="31" vol="80" pos="14424" len="21"/>
          <note pan="0" key="36" vol="83" pos="14448" len="21"/>
          <note pan="0" key="50" vol="80" pos="14472" len="21"/>
          <note pan="0" key="31" vol="80" pos="14472" len="21"/>
          <note pan="0" key="48" vol="86" pos="14496" len="86"/>
          <note pan="0" key="28" vol="86" pos="14496" len="21"/>
          <note pan="0" key="31" vol="80" pos="14520" len="21"/>
          <note pan="0" key="36" vol="83" pos="14544" len="21"/>
          <note pan="0" key="31" vol="80" pos="14568" len="21"/>
          <note pan="0" key="48" vol="89" pos="14592" len="43"/>
          <note pan="0" key="24" vol="89" pos="14592" len="21"/>
          <note pan="0" key="31" vol="80" pos="14616" len="21"/>
          <note pan="0" key="43" vol="83" pos="14640" len="43"/>
          <note pan="0" key="36" vol="83" pos="14640" len="21"/>
          <note pan="0" key="31" vol="80" pos="14664" len="21"/>
          <note pan="0" key="48" vol="86" pos="14688" len="43"/>
          <note pan="0" key="28" vol="86" pos="14688" len="21"/>
          <note pan="0" key="31" vol="80" pos="14712" len="21"/>
          <note pan="0" key="50" vol="83" pos="14736" len="43"/>
          <note pan="0" key="36" vol="83" pos="14736" len="21"/>
          <note pan="0" key="31" vol="80" pos="14760" len="21"/>
          <note pan="0" key="52" vol="89" pos="14784" len="43"/>
          <note pan="0" key="28" vol="89" pos="14784" len="21"/>
          <note pan="0" key="31" vol="80" pos="14808" len="21"/>
          <note pan="0" key="47" vol="83" pos="14832" len="43"/>
          <note pan="0" key="35" vol="83" pos="14832" len="21"/>
          <note pan="0" key="31" vol="80" pos="14856" len="21"/>
          <note pan="0" key="52" vol="86" pos="14880" len="43"/>
          <note pan="0" key="28" vol="86" pos="14880" len="21"/>
          <note pan="0" key="31" vol="80" pos="14904" len="21"/>
          <note pan="0" key="53" vol="83" pos="14928" len="43"/>
          <note pan="0" key="35" vol="83" pos="14928" len="21"/>
          <note pan="0" key="31" vol="80" pos="14952" len="21"/>
          <note pan="0" key="55" vol="89" pos="14976" len="43"/>
          <note pan="0" key="19" vol="89" pos="14976" len="21"/>
          <note pan="0" key="31" vol="80" pos="15000" len="21"/>
          <note pan="0" key="50" vol="83" pos="15024" len="43"/>
          <note pan="0" key="35" vol="83" pos="15024" len="21"/>
          <note pan="0" key="31" vol="80" pos="15048" len="21"/>
          <note pan="0" key="55" vol="86" pos="15072" len="43"/>
          <note pan="0" key="29" vol="86" pos="15072" len="21"/>
          <note pan="0" key="31" vol="80" pos="15096" len="21"/>
          <note pan="0" key="53" vol="83" pos="15120" len="43"/>
          <note pan="0" key="35" vol="83" pos="15120" len="21"/>
          <note pan="0" key="31" vol="80" pos="15144" len="21"/>
          <note pan="0" key="52" vol="89" pos="15168" len="64"/>
          <note pan="0" key="24" vol="89" pos="15168" len="21"/>
          <note pan="0" key="31" vol="80" pos="15192" len="21"/>
          <note pan="0" key="36" vol="83" pos="15216" len="21"/>
          <note pan="0" key="50" vol="80" pos="15240" len="21"/>
          <note pan="0" key="31" vol="80" pos="15240" len="21"/>
          <note pan="0" key="48" vol="86" pos="15264" len="86"/>
          <note pan="0" key="28" vol="86" pos="15264" len="21"/>
          <note pan="0" key="31" vol="80" pos="15288" len="21"/>
          <note pan="0" key="36" vol="83" pos="15312" len="21"/>
          <note pan="0" key="31" vol="80" pos="15336" len="21"/>
          <note pan="0" key="48" vol="89" pos="15360" len="21"/>
          <note pan="0" key="24" vol="89" pos="15360" len="86"/>
          <note pan="0" key="31" vol="89" pos="15360" len="86"/>
          <note pan="0" key="50" vol="80" pos="15384" len="21"/>
          <note pan="0" key="52" vol="83" pos="15408" len="21"/>
          <note pan="0" key="53" vol="80" pos="15432" len="21"/>
          <note pan="0" key="55" vol="86" pos="15456" len="21"/>
          <note pan="0" key="28" vol="86" pos="15456" len="86"/>
          <note pan="0" key="31" vol="86" pos="15456" len="86"/>
          <note pan="0" key="53" vol="80" pos="15480" len="21"/>
          <note pan="0" key="52" vol="83" pos="15504" len="21"/>
          <note pan="0" key="50" vol="80" pos="15528" len="21"/>
          <note pan="0" key="48" vol="89" pos="15552" len="21"/>
          <note pan="0" key="24" vol="89" pos="15552" len="86"/>
          <note pan="0" key="31" vol="89" pos="15552" len="86"/>
          <note pan="0" key="50" vol="80" pos="15576" len="21"/>
          <note pan="0" key="52" vol="83" pos="15600" len="21"/>
          <note pan="0" key="53" vol="80" pos="15624" len="21"/>
          <note pan="0" key="55" vol="111" pos="15648" len="32"/>
          <note pan="0" key="26" vol="86" pos="15648" len="86"/>
          <note pan="0" key="31" vol="86" pos="15648" len="86"/>
          <note pan="0" key="50" vol="100" pos="15684" len="10"/>
          <note pan="0" key="55" vol="107" pos="15696" len="43"/>
          <note pan="0" key="48" vol="89" pos="15744" len="21"/>
          <note pan="0" key="24" vol="89" pos="15744" len="86"/>
          <note pan="0" key="31" vol="89" pos="15744" len="86"/>
          <note pan="0" key="50" vol="80" pos="15768" len="21"/>
          <note pan="0" key="52" vol="83" pos="15792" len="21"/>
          <note pan="0" key="53" vol="80" pos="15816" len="21"/>
          <note pan="0" key="55" vol="86" pos="15840" len="21"/>
          <note pan="0" key="28" vol="86" pos="15840" len="86"/>
          <note pan="0" key="31" vol="86" pos="15840" len="86"/>
          <note pan="0" key="53" vol="80" pos="15864" len="21"/>
          <note pan="0" key="52" vol="83" pos="15888" len="21"/>
          <note pan="0" key="50" vol="80" pos="15912" len="21"/>
          <note pan="0" key="48" vol="89" pos="15936" len="21"/>
          <note pan="0" key="24" vol="89" pos="15936" len="43"/>
          <note pan="0" key="31" vol="89" pos="15936" len="43"/>
          <note pan="0" key="50" vol="80" pos="15960" len="21"/>
          <note pan="0" key="52" vol="83" pos="15984" len="21"/>
          <note pan="0" key="26" vol="83" pos="15984" len="43"/>
          <note pan="0" key="30" vol="83" pos="15984" len="43"/>
          <note pan="0" key="54" vol="80" pos="16008" len="21"/>
          <note pan="0" key="55" vol="111" pos="16032" len="86"/>
          <note pan="0" key="26" vol="86" pos="16032" len="86"/>
          <note pan="0" key="31" vol="86" pos="16032" len="86"/>
          <note pan="0" key="55" vol="89" pos="16128" len="21"/>
          <note pan="0" key="31" vol="89" pos="16128" len="86"/>
          <note pan="0" key="35" vol="89" pos="16128" len="86"/>
          <note pan="0" key="57" vol="80" pos="16152" len="21"/>
          <note pan="0" key="59" vol="83" pos="16176" len="21"/>
          <note pan="0" key="60" vol="80" pos="16200" len="21"/>
          <note pan="0" key="62" vol="86" pos="16224" len="21"/>
          <note pan="0" key="26" vol="86" pos="16224" len="86"/>
          <note pan="0" key="31" vol="86" pos="16224" len="86"/>
          <note pan="0" key="60" vol="80" pos="16248" len="21"/>
          <note pan="0" key="59" vol="83" pos="16272" len="21"/>
          <note pan="0" key="57" vol="80" pos="16296" len="21"/>
          <note pan="0" key="55" vol="89" pos="16320" len="21"/>
          <note pan="0" key="31" vol="89" pos="16320" len="86"/>
          <note pan="0" key="35" vol="89" pos="16320" len="86"/>
          <note pan="0" key="57" vol="80" pos="16344" len="21"/>
          <note pan="0" key="59" vol="83" pos="16368" len="21"/>
          <note pan="0" key="60" vol="80" pos="16392" len="21"/>
          <note pan="0" key="62" vol="111" pos="16416" len="32"/>
          <note pan="0" key="30" vol="86" pos="16416" len="86"/>
          <note pan="0" key="33" vol="86" pos="16416" len="86"/>
          <note pan="0" key="57" vol="100" pos="16452" len="10"/>
          <note pan="0" key="62" vol="107" pos="16464" len="43"/>
          <note pan="0" key="55" vol="89" pos="16512" len="21"/>
          <note pan="0" key="31" vol="89" pos="16512" len="86"/>
          <note pan="0" key="35" vol="89" pos="16512" len="86"/>
          <note pan="0" key="57" vol="80" pos="16536" len="21"/>
          <note pan="0" key="59" vol="83" pos="16560" len="21"/>
          <note pan="0" key="60" vol="80" pos="16584" len="21"/>
          <note pan="0" key="62" vol="86" pos="16608" len="21"/>
          <note pan="0" key="26" vol="86" pos="16608" len="86"/>
          <note pan="0" key="31" vol="86" pos="16608" len="86"/>
          <note pan="0" key="60" vol="80" pos="16632" len="21"/>
          <note pan="0" key="59" vol="83" pos="16656" len="21"/>
          <note pan="0" key="57" vol="80" pos="16680" len="21"/>
          <note pan="0" key="55" vol="89" pos="16704" len="21"/>
          <note pan="0" key="26" vol="89" pos="16704" len="43"/>
          <note pan="0" key="31" vol="89" pos="16704" len="43"/>
          <note pan="0" key="57" vol="80" pos="16728" len="21"/>
          <note pan="0" key="59" vol="83" pos="16752" len="21"/>
          <note pan="0" key="26" vol="83" pos="16752" len="43"/>
          <note pan="0" key="30" vol="83" pos="16752" len="43"/>
          <note pan="0" key="54" vol="80" pos="16776" len="21"/>
          <note pan="0" key="55" vol="111" pos="16800" len="86"/>
          <note pan="0" key="23" vol="86" pos="16800" len="86"/>
          <note pan="0" key="29" vol="86" pos="16800" len="86"/>
          <note pan="0" key="48" vol="89" pos="16896" len="43"/>
          <note pan="0" key="24" vol="89" pos="16896" len="21"/>
          <note pan="0" key="31" vol="80" pos="16920" len="21"/>
          <note pan="0" key="43" vol="83" pos="16944" len="43"/>
          <note pan="0" key="36" vol="83" pos="16944" len="21"/>
          <note pan="0" key="31" vol="80" pos="16968" len="21"/>
          <note pan="0" key="48" vol="86" pos="16992" len="43"/>
          <note pan="0" key="28" vol="86" pos="16992" len="21"/>
          <note pan="0" key="31" vol="80" pos="17016" len="21"/>
          <note pan="0" key="50" vol="83" pos="17040" len="43"/>
          <note pan="0" key="36" vol="83" pos="17040" len="21"/>
          <note pan="0" key="31" vol="80" pos="17064" len="21"/>
          <note pan="0" key="52" vol="89" pos="17088" len="43"/>
          <note pan="0" key="28" vol="89" pos="17088" len="21"/>
          <note pan="0" key="31" vol="80" pos="17112" len="21"/>
          <note pan="0" key="47" vol="83" pos="17136" len="43"/>
          <note pan="0" key="35" vol="83" pos="17136" len="21"/>
          <note pan="0" key="31" vol="80" pos="17160" len="21"/>
          <note pan="0" key="52" vol="86" pos="17184" len="43"/>
          <note pan="0" key="28" vol="86" pos="17184" len="21"/>
          <note pan="0" key="31" vol="80" pos="17208" len="21"/>
          <note pan="0" key="50" vol="83" pos="17232" len="43"/>
          <note pan="0" key="35" vol="83" pos="17232" len="21"/>
          <note pan="0" key="31" vol="80" pos="17256" len="21"/>
          <note pan="0" key="48" vol="89" pos="17280" len="43"/>
          <note pan="0" key="24" vol="89" pos="17280" len="21"/>
          <note pan="0" key="31" vol="80" pos="17304" len="21"/>
          <note pan="0" key="43" vol="83" pos="17328" len="43"/>
          <note pan="0" key="36" vol="83" pos="17328" len="21"/>
          <note pan="0" key="31" vol="80" pos="17352" len="21"/>
          <note pan="0" key="48" vol="86" pos="17376" len="43"/>
          <note pan="0" key="28" vol="86" pos="17376" len="21"/>
          <note pan="0" key="31" vol="80" pos="17400" len="21"/>
          <note pan="0" key="50" vol="83" pos="17424" len="43"/>
          <note pan="0" key="36" vol="83" pos="17424" len="21"/>
          <note pan="0" key="31" vol="80" pos="17448" len="21"/>
          <note pan="0" key="52" vol="89" pos="17472" len="64"/>
          <note pan="0" key="26" vol="89" pos="17472" len="21"/>
          <note pan="0" key="33" vol="80" pos="17496" len="21"/>
          <note pan="0" key="36" vol="83" pos="17520" len="21"/>
          <note pan="0" key="54" vol="80" pos="17544" len="21"/>
          <note pan="0" key="33" vol="80" pos="17544" len="21"/>
          <note pan="0" key="55" vol="86" pos="17568" len="86"/>
          <note pan="0" key="26" vol="86" pos="17568" len="21"/>
          <note pan="0" key="31" vol="80" pos="17592" len="21"/>
          <note pan="0" key="35" vol="83" pos="17616" len="21"/>
          <note pan="0" key="31" vol="80" pos="17640" len="21"/>
          <note pan="0" key="55" vol="89" pos="17664" len="43"/>
          <note pan="0" key="19" vol="89" pos="17664" len="21"/>
          <note pan="0" key="31" vol="80" pos="17688" len="21"/>
          <note pan="0" key="50" vol="83" pos="17712" len="43"/>
          <note pan="0" key="35" vol="83" pos="17712" len="21"/>
          <note pan="0" key="31" vol="80" pos="17736" len="21"/>
          <note pan="0" key="55" vol="86" pos="17760" len="43"/>
          <note pan="0" key="26" vol="86" pos="17760" len="21"/>
          <note pan="0" key="31" vol="80" pos="17784" len="21"/>
          <note pan="0" key="57" vol="83" pos="17808" len="43"/>
          <note pan="0" key="35" vol="83" pos="17808" len="21"/>
          <note pan="0" key="31" vol="80" pos="17832" len="21"/>
          <note pan="0" key="59" vol="89" pos="17856" len="43"/>
          <note pan="0" key="26" vol="89" pos="17856" len="21"/>
          <note pan="0" key="33" vol="80" pos="17880" len="21"/>
          <note pan="0" key="54" vol="83" pos="17904" len="43"/>
          <note pan="0" key="36" vol="83" pos="17904" len="21"/>
          <note pan="0" key="33" vol="80" pos="17928" len="21"/>
          <note pan="0" key="59" vol="86" pos="17952" len="43"/>
          <note pan="0" key="30" vol="86" pos="17952" len="21"/>
          <note pan="0" key="33" vol="80" pos="17976" len="21"/>
          <note pan="0" key="60" vol="83" pos="18000" len="43"/>
          <note pan="0" key="36" vol="83" pos="18000" len="21"/>
          <note pan="0" key="33" vol="80" pos="18024" len="21"/>
          <note pan="0" key="62" vol="89" pos="18048" len="43"/>
          <note pan="0" key="26" vol="89" pos="18048" len="21"/>
          <note pan="0" key="33" vol="80" pos="18072" len="21"/>
          <note pan="0" key="57" vol="83" pos="18096" len="43"/>
          <note pan="0" key="36" vol="83" pos="18096" len="21"/>
          <note pan="0" key="33" vol="80" pos="18120" len="21"/>
          <note pan="0" key="62" vol="86" pos="18144" len="43"/>
          <note pan="0" key="30" vol="86" pos="18144" len="21"/>
          <note pan="0" key="33" vol="80" pos="18168" len="21"/>
          <note pan="0" key="60" vol="83" pos="18192" len="43"/>
          <note pan="0" key="36" vol="83" pos="18192" len="21"/>
          <note pan="0" key="33" vol="80" pos="18216" len="21"/>
          <note pan="0" key="59" vol="89" pos="18240" len="64"/>
          <note pan="0" key="19" vol="89" pos="18240" len="21"/>
          <note pan="0" key="31" vol="80" pos="18264" len="21"/>
          <note pan="0" key="35" vol="83" pos="18288" len="21"/>
          <note pan="0" key="57" vol="80" pos="18312" len="21"/>
          <note pan="0" key="31" vol="80" pos="18312" len="21"/>
          <note pan="0" key="55" vol="86" pos="18336" len="43"/>
          <note pan="0" key="26" vol="86" pos="18336" len="43"/>
          <note pan="0" key="31" vol="86" pos="18336" len="43"/>
          <note pan="0" key="35" vol="86" pos="18336" len="43"/>
          <note pan="0" key="43" vol="109" pos="18384" len="43"/>
          <note pan="0" key="47" vol="117" pos="18432" len="64"/>
          <note pan="0" key="31" vol="117" pos="18432" len="64"/>
          <note pan="0" key="48" vol="105" pos="18504" len="21"/>
          <note pan="0" key="36" vol="105" pos="18504" len="21"/>
          <note pan="0" key="50" vol="113" pos="18528" len="43"/>
          <note pan="0" key="31" vol="113" pos="18528" len="43"/>
          <note pan="0" key="47" vol="109" pos="18576" len="43"/>
          <note pan="0" key="31" vol="109" pos="18576" len="43"/>
          <note pan="0" key="48" vol="117" pos="18624" len="43"/>
          <note pan="0" key="36" vol="117" pos="18624" len="43"/>
          <note pan="0" key="50" vol="109" pos="18672" len="43"/>
          <note pan="0" key="35" vol="109" pos="18672" len="43"/>
          <note pan="0" key="52" vol="113" pos="18720" len="86"/>
          <note pan="0" key="33" vol="113" pos="18720" len="86"/>
          <note pan="0" key="52" vol="117" pos="18816" len="64"/>
          <note pan="0" key="33" vol="117" pos="18816" len="64"/>
          <note pan="0" key="50" vol="105" pos="18888" len="21"/>
          <note pan="0" key="35" vol="105" pos="18888" len="21"/>
          <note pan="0" key="48" vol="113" pos="18912" len="43"/>
          <note pan="0" key="36" vol="113" pos="18912" len="43"/>
          <note pan="0" key="47" vol="109" pos="18960" len="43"/>
          <note pan="0" key="31" vol="109" pos="18960" len="43"/>
          <note pan="0" key="48" vol="117" pos="19008" len="43"/>
          <note pan="0" key="36" vol="117" pos="19008" len="43"/>
          <note pan="0" key="52" vol="109" pos="19056" len="43"/>
          <note pan="0" key="33" vol="109" pos="19056" len="43"/>
          <note pan="0" key="50" vol="113" pos="19104" len="86"/>
          <note pan="0" key="31" vol="113" pos="19104" len="86"/>
          <note pan="0" key="47" vol="117" pos="19200" len="64"/>
          <note pan="0" key="31" vol="117" pos="19200" len="64"/>
          <note pan="0" key="38" vol="117" pos="19200" len="64"/>
          <note pan="0" key="48" vol="105" pos="19272" len="21"/>
          <note pan="0" key="36" vol="105" pos="19272" len="21"/>
          <note pan="0" key="40" vol="105" pos="19272" len="21"/>
          <note pan="0" key="50" vol="113" pos="19296" len="43"/>
          <note pan="0" key="31" vol="113" pos="19296" len="43"/>
          <note pan="0" key="38" vol="113" pos="19296" len="43"/>
          <note pan="0" key="47" vol="109" pos="19344" len="43"/>
          <note pan="0" key="31" vol="109" pos="19344" len="43"/>
          <note pan="0" key="38" vol="109" pos="19344" len="43"/>
          <note pan="0" key="48" vol="117" pos="19392" len="43"/>
          <note pan="0" key="36" vol="117" pos="19392" len="43"/>
          <note pan="0" key="40" vol="117" pos="19392" len="43"/>
          <note pan="0" key="50" vol="109" pos="19440" len="43"/>
          <note pan="0" key="35" vol="109" pos="19440" len="43"/>
          <note pan="0" key="42" vol="109" pos="19440" len="43"/>
          <note pan="0" key="52" vol="113" pos="19488" len="86"/>
          <note pan="0" key="33" vol="113" pos="19488" len="86"/>
          <note pan="0" key="45" vol="113" pos="19488" len="86"/>
          <note pan="0" key="52" vol="117" pos="19584" len="64"/>
          <note pan="0" key="33" vol="117" pos="19584" len="64"/>
          <note pan="0" key="36" vol="117" pos="19584" len="64"/>
          <note pan="0" key="50" vol="105" pos="19656" len="21"/>
          <note pan="0" key="35" vol="105" pos="19656" len="21"/>
          <note pan="0" key="38" vol="105" pos="19656" len="21"/>
          <note pan="0" key="48" vol="113" pos="19680" len="43"/>
          <note pan="0" key="36" vol="113" pos="19680" len="43"/>
          <note pan="0" key="40" vol="113" pos="19680" len="43"/>
          <note pan="0" key="47" vol="109" pos="19728" len="43"/>
          <note pan="0" key="31" vol="109" pos="19728" len="43"/>
          <note pan="0" key="38" vol="109" pos="19728" len="43"/>
          <note pan="0" key="48" vol="117" pos="19776" len="43"/>
          <note pan="0" key="38" vol="117" pos="19776" len="43"/>
          <note pan="0" key="42" vol="117" pos="19776" len="43"/>
          <note pan="0" key="42" vol="109" pos="19824" len="43"/>
          <note pan="0" key="26" vol="109" pos="19824" len="43"/>
          <note pan="0" key="36" vol="109" pos="19824" len="43"/>
          <note pan="0" key="43" vol="113" pos="19872" len="86"/>
          <note pan="0" key="31" vol="113" pos="19872" len="86"/>
          <note pan="0" key="35" vol="113" pos="19872" len="86"/>
          <note pan="0" key="43" vol="117" pos="19968" len="64"/>
          <note pan="0" key="47" vol="117" pos="19968" len="64"/>
          <note pan="0" key="31" vol="117" pos="19968" len="64"/>
          <note pan="0" key="38" vol="117" pos="19968" len="64"/>
          <note pan="0" key="43" vol="105" pos="20040" len="21"/>
          <note pan="0" key="48" vol="105" pos="20040" len="21"/>
          <note pan="0" key="36" vol="105" pos="20040" len="21"/>
          <note pan="0" key="40" vol="105" pos="20040" len="21"/>
          <note pan="0" key="47" vol="113" pos="20064" len="43"/>
          <note pan="0" key="50" vol="113" pos="20064" len="43"/>
          <note pan="0" key="31" vol="113" pos="20064" len="43"/>
          <note pan="0" key="38" vol="113" pos="20064" len="43"/>
          <note pan="0" key="43" vol="109" pos="20112" len="43"/>
          <note pan="0" key="47" vol="109" pos="20112" len="43"/>
          <note pan="0" key="31" vol="109" pos="20112" len="43"/>
          <note pan="0" key="38" vol="109" pos="20112" len="43"/>
          <note pan="0" key="45" vol="117" pos="20160" len="43"/>
          <note pan="0" key="48" vol="117" pos="20160" len="43"/>
          <note pan="0" key="36" vol="117" pos="20160" len="43"/>
          <note pan="0" key="40" vol="117" pos="20160" len="43"/>
          <note pan="0" key="47" vol="109" pos="20208" len="43"/>
          <note pan="0" key="50" vol="109" pos="20208" len="43"/>
          <note pan="0" key="35" vol="109" pos="20208" len="43"/>
          <note pan="0" key="42" vol="109" pos="20208" len="43"/>
          <note pan="0" key="48" vol="113" pos="20256" len="86"/>
          <note pan="0" key="52" vol="113" pos="20256" len="86"/>
          <note pan="0" key="33" vol="113" pos="20256" len="86"/>
          <note pan="0" key="45" vol="113" pos="20256" len="86"/>
          <note pan="0" key="48" vol="117" pos="20352" len="64"/>
          <note pan="0" key="52" vol="117" pos="20352" len="64"/>
          <note pan="0" key="33" vol="117" pos="20352" len="64"/>
          <note pan="0" key="36" vol="117" pos="20352" len="64"/>
          <note pan="0" key="47" vol="105" pos="20424" len="21"/>
          <note pan="0" key="50" vol="105" pos="20424" len="21"/>
          <note pan="0" key="35" vol="105" pos="20424" len="21"/>
          <note pan="0" key="38" vol="105" pos="20424" len="21"/>
          <note pan="0" key="43" vol="113" pos="20448" len="43"/>
          <note pan="0" key="48" vol="113" pos="20448" len="43"/>
          <note pan="0" key="36" vol="113" pos="20448" len="43"/>
          <note pan="0" key="40" vol="113" pos="20448" len="43"/>
          <note pan="0" key="43" vol="109" pos="20496" len="43"/>
          <note pan="0" key="47" vol="109" pos="20496" len="43"/>
          <note pan="0" key="31" vol="109" pos="20496" len="43"/>
          <note pan="0" key="38" vol="109" pos="20496" len="43"/>
          <note pan="0" key="43" vol="117" pos="20544" len="43"/>
          <note pan="0" key="48" vol="117" pos="20544" len="43"/>
          <note pan="0" key="36" vol="117" pos="20544" len="43"/>
          <note pan="0" key="40" vol="117" pos="20544" len="43"/>
          <note pan="0" key="45" vol="109" pos="20592" len="43"/>
          <note pan="0" key="52" vol="109" pos="20592" len="43"/>
          <note pan="0" key="33" vol="109" pos="20592" len="43"/>
          <note pan="0" key="38" vol="109" pos="20592" len="43"/>
          <note pan="0" key="47" vol="113" pos="20640" len="86"/>
          <note pan="0" key="50" vol="113" pos="20640" len="86"/>
          <note pan="0" key="31" vol="113" pos="20640" len="86"/>
          <note pan="0" key="43" vol="113" pos="20640" len="86"/>
          <note pan="0" key="43" vol="117" pos="20736" len="64"/>
          <note pan="0" key="47" vol="117" pos="20736" len="64"/>
          <note pan="0" key="31" vol="117" pos="20736" len="64"/>
          <note pan="0" key="38" vol="117" pos="20736" len="64"/>
          <note pan="0" key="43" vol="105" pos="20808" len="21"/>
          <note pan="0" key="48" vol="105" pos="20808" len="21"/>
          <note pan="0" key="36" vol="105" pos="20808" len="21"/>
          <note pan="0" key="40" vol="105" pos="20808" len="21"/>
          <note pan="0" key="47" vol="113" pos="20832" len="43"/>
          <note pan="0" key="50" vol="113" pos="20832" len="43"/>
          <note pan="0" key="31" vol="113" pos="20832" len="43"/>
          <note pan="0" key="38" vol="113" pos="20832" len="43"/>
          <note pan="0" key="43" vol="109" pos="20880" len="43"/>
          <note pan="0" key="47" vol="109" pos="20880" len="43"/>
          <note pan="0" key="31" vol="109" pos="20880" len="43"/>
          <note pan="0" key="38" vol="109" pos="20880" len="43"/>
          <note pan="0" key="45" vol="117" pos="20928" len="43"/>
          <note pan="0" key="48" vol="117" pos="20928" len="43"/>
          <note pan="0" key="36" vol="117" pos="20928" len="43"/>
          <note pan="0" key="40" vol="117" pos="20928" len="43"/>
          <note pan="0" key="47" vol="109" pos="20976" len="43"/>
          <note pan="0" key="50" vol="109" pos="20976" len="43"/>
          <note pan="0" key="35" vol="109" pos="20976" len="43"/>
          <note pan="0" key="42" vol="109" pos="20976" len="43"/>
          <note pan="0" key="48" vol="113" pos="21024" len="86"/>
          <note pan="0" key="52" vol="113" pos="21024" len="86"/>
          <note pan="0" key="33" vol="113" pos="21024" len="86"/>
          <note pan="0" key="45" vol="113" pos="21024" len="86"/>
          <note pan="0" key="48" vol="117" pos="21120" len="64"/>
          <note pan="0" key="52" vol="117" pos="21120" len="64"/>
          <note pan="0" key="33" vol="117" pos="21120" len="64"/>
          <note pan="0" key="36" vol="117" pos="21120" len="64"/>
          <note pan="0" key="47" vol="105" pos="21192" len="21"/>
          <note pan="0" key="50" vol="105" pos="21192" len="21"/>
          <note pan="0" key="35" vol="105" pos="21192" len="21"/>
          <note pan="0" key="38" vol="105" pos="21192" len="21"/>
          <note pan="0" key="43" vol="113" pos="21216" len="43"/>
          <note pan="0" key="48" vol="113" pos="21216" len="43"/>
          <note pan="0" key="36" vol="113" pos="21216" len="43"/>
          <note pan="0" key="40" vol="113" pos="21216" len="43"/>
          <note pan="0" key="43" vol="109" pos="21264" len="43"/>
          <note pan="0" key="47" vol="109" pos="21264" len="43"/>
          <note pan="0" key="31" vol="109" pos="21264" len="43"/>
          <note pan="0" key="38" vol="109" pos="21264" len="43"/>
          <note pan="0" key="45" vol="117" pos="21312" len="43"/>
          <note pan="0" key="48" vol="117" pos="21312" len="43"/>
          <note pan="0" key="38" vol="117" pos="21312" len="43"/>
          <note pan="0" key="42" vol="117" pos="21312" len="43"/>
          <note pan="0" key="38" vol="109" pos="21360" len="43"/>
          <note pan="0" key="42" vol="109" pos="21360" len="43"/>
          <note pan="0" key="26" vol="109" pos="21360" len="43"/>
          <note pan="0" key="36" vol="109" pos="21360" len="43"/>
          <note pan="0" key="38" vol="113" pos="21408" len="86"/>
          <note pan="0" key="43" vol="113" pos="21408" len="86"/>
          <note pan="0" key="31" vol="113" pos="21408" len="86"/>
          <note pan="0" key="35" vol="113" pos="21408" len="86"/>
          <note pan="0" key="43" vol="89" pos="21504" len="21"/>
          <note pan="0" key="31" vol="89" pos="21504" len="43"/>
          <note pan="0" key="45" vol="80" pos="21528" len="21"/>
          <note pan="0" key="47" vol="83" pos="21552" len="43"/>
          <note pan="0" key="35" vol="83" pos="21552" len="21"/>
          <note pan="0" key="31" vol="80" pos="21576" len="21"/>
          <note pan="0" key="47" vol="86" pos="21600" len="21"/>
          <note pan="0" key="35" vol="86" pos="21600" len="43"/>
          <note pan="0" key="45" vol="80" pos="21624" len="21"/>
          <note pan="0" key="43" vol="83" pos="21648" len="43"/>
          <note pan="0" key="31" vol="83" pos="21648" len="21"/>
          <note pan="0" key="35" vol="80" pos="21672" len="21"/>
          <note pan="0" key="47" vol="89" pos="21696" len="21"/>
          <note pan="0" key="26" vol="89" pos="21696" len="43"/>
          <note pan="0" key="48" vol="80" pos="21720" len="21"/>
          <note pan="0" key="50" vol="83" pos="21744" len="43"/>
          <note pan="0" key="33" vol="83" pos="21744" len="21"/>
          <note pan="0" key="26" vol="80" pos="21768" len="21"/>
          <note pan="0" key="50" vol="86" pos="21792" len="21"/>
          <note pan="0" key="33" vol="86" pos="21792" len="43"/>
          <note pan="0" key="48" vol="80" pos="21816" len="21"/>
          <note pan="0" key="47" vol="83" pos="21840" len="43"/>
          <note pan="0" key="26" vol="83" pos="21840" len="21"/>
          <note pan="0" key="33" vol="80" pos="21864" len="21"/>
          <note pan="0" key="43" vol="89" pos="21888" len="21"/>
          <note pan="0" key="31" vol="89" pos="21888" len="43"/>
          <note pan="0" key="45" vol="80" pos="21912" len="21"/>
          <note pan="0" key="47" vol="83" pos="21936" len="43"/>
          <note pan="0" key="35" vol="83" pos="21936" len="21"/>
          <note pan="0" key="31" vol="80" pos="21960" len="21"/>
          <note pan="0" key="47" vol="86" pos="21984" len="21"/>
          <note pan="0" key="35" vol="86" pos="21984" len="43"/>
          <note pan="0" key="45" vol="80" pos="22008" len="21"/>
          <note pan="0" key="43" vol="83" pos="22032" len="43"/>
          <note pan="0" key="31" vol="83" pos="22032" len="21"/>
          <note pan="0" key="35" vol="80" pos="22056" len="21"/>
          <note pan="0" key="47" vol="89" pos="22080" len="21"/>
          <note pan="0" key="38" vol="89" pos="22080" len="21"/>
          <note pan="0" key="48" vol="80" pos="22104" len="21"/>
          <note pan="0" key="33" vol="80" pos="22104" len="21"/>
          <note pan="0" key="50" vol="83" pos="22128" len="21"/>
          <note pan="0" key="30" vol="83" pos="22128" len="21"/>
          <note pan="0" key="42" vol="80" pos="22152" len="21"/>
          <note pan="0" key="26" vol="80" pos="22152" len="21"/>
          <note pan="0" key="43" vol="86" pos="22176" len="86"/>
          <note pan="0" key="31" vol="86" pos="22176" len="86"/>
          <note pan="0" key="43" vol="89" pos="22272" len="21"/>
          <note pan="0" key="31" vol="89" pos="22272" len="43"/>
          <note pan="0" key="45" vol="80" pos="22296" len="21"/>
          <note pan="0" key="47" vol="83" pos="22320" len="43"/>
          <note pan="0" key="35" vol="83" pos="22320" len="21"/>
          <note pan="0" key="31" vol="80" pos="22344" len="21"/>
          <note pan="0" key="47" vol="86" pos="22368" len="21"/>
          <note pan="0" key="35" vol="86" pos="22368" len="43"/>
          <note pan="0" key="45" vol="80" pos="22392" len="21"/>
          <note pan="0" key="43" vol="83" pos="22416" len="43"/>
          <note pan="0" key="31" vol="83" pos="22416" len="21"/>
          <note pan="0" key="35" vol="80" pos="22440" len="21"/>
          <note pan="0" key="48" vol="89" pos="22464" len="21"/>
          <note pan="0" key="26" vol="89" pos="22464" len="43"/>
          <note pan="0" key="50" vol="80" pos="22488" len="21"/>
          <note pan="0" key="52" vol="83" pos="22512" len="43"/>
          <note pan="0" key="33" vol="83" pos="22512" len="21"/>
          <note pan="0" key="26" vol="80" pos="22536" len="21"/>
          <note pan="0" key="52" vol="86" pos="22560" len="21"/>
          <note pan="0" key="33" vol="86" pos="22560" len="43"/>
          <note pan="0" key="50" vol="80" pos="22584" len="21"/>
          <note pan="0" key="48" vol="83" pos="22608" len="43"/>
          <note pan="0" key="26" vol="83" pos="22608" len="21"/>
          <note pan="0" key="33" vol="80" pos="22632" len="21"/>
          <note pan="0" key="43" vol="89" pos="22656" len="21"/>
          <note pan="0" key="31" vol="89" pos="22656" len="43"/>
          <note pan="0" key="45" vol="80" pos="22680" len="21"/>
          <note pan="0" key="47" vol="83" pos="22704" len="43"/>
          <note pan="0" key="35" vol="83" pos="22704" len="21"/>
          <note pan="0" key="31" vol="80" pos="22728" len="21"/>
          <note pan="0" key="47" vol="86" pos="22752" len="21"/>
          <note pan="0" key="35" vol="86" pos="22752" len="43"/>
          <note pan="0" key="45" vol="80" pos="22776" len="21"/>
          <note pan="0" key="43" vol="83" pos="22800" len="43"/>
          <note pan="0" key="31" vol="83" pos="22800" len="21"/>
          <note pan="0" key="35" vol="80" pos="22824" len="21"/>
          <note pan="0" key="48" vol="89" pos="22848" len="21"/>
          <note pan="0" key="43" vol="89" pos="22848" len="21"/>
          <note pan="0" key="50" vol="80" pos="22872" len="21"/>
          <note pan="0" key="38" vol="80" pos="22872" len="21"/>
          <note pan="0" key="52" vol="83" pos="22896" len="21"/>
          <note pan="0" key="35" vol="83" pos="22896" len="21"/>
          <note pan="0" key="47" vol="80" pos="22920" len="21"/>
          <note pan="0" key="31" vol="80" pos="22920" len="21"/>
          <note pan="0" key="48" vol="86" pos="22944" len="86"/>
          <note pan="0" key="36" vol="86" pos="22944" len="86"/>
          <note pan="0" key="48" vol="67" pos="23040" len="43"/>
          <note pan="0" key="24" vol="67" pos="23040" len="21"/>
          <note pan="0" key="31" vol="60" pos="23064" len="21"/>
          <note pan="0" key="43" vol="62" pos="23088" len="43"/>
          <note pan="0" key="36" vol="62" pos="23088" len="21"/>
          <note pan="0" key="31" vol="60" pos="23112" len="21"/>
          <note pan="0" key="48" vol="64" pos="23136" len="43"/>
          <note pan="0" key="28" vol="64" pos="23136" len="21"/>
          <note pan="0" key="31" vol="60" pos="23160" len="21"/>
          <note pan="0" key="50" vol="62" pos="23184" len="43"/>
          <note pan="0" key="36" vol="62" pos="23184" len="21"/>
          <note pan="0" key="31" vol="60" pos="23208" len="21"/>
          <note pan="0" key="52" vol="67" pos="23232" len="43"/>
          <note pan="0" key="28" vol="67" pos="23232" len="21"/>
          <note pan="0" key="31" vol="60" pos="23256" len="21"/>
          <note pan="0" key="47" vol="62" pos="23280" len="43"/>
          <note pan="0" key="35" vol="62" pos="23280" len="21"/>
          <note pan="0" key="31" vol="60" pos="23304" len="21"/>
          <note pan="0" key="52" vol="64" pos="23328" len="43"/>
          <note pan="0" key="28" vol="64" pos="23328" len="21"/>
          <note pan="0" key="31" vol="60" pos="23352" len="21"/>
          <note pan="0" key="50" vol="62" pos="23376" len="43"/>
          <note pan="0" key="35" vol="62" pos="23376" len="21"/>
          <note pan="0" key="31" vol="60" pos="23400" len="21"/>
          <note pan="0" key="48" vol="67" pos="23424" len="43"/>
          <note pan="0" key="24" vol="67" pos="23424" len="21"/>
          <note pan="0" key="31" vol="60" pos="23448" len="21"/>
          <note pan="0" key="43" vol="62" pos="23472" len="43"/>
          <note pan="0" key="36" vol="62" pos="23472" len="21"/>
          <note pan="0" key="31" vol="60" pos="23496" len="21"/>
          <note pan="0" key="48" vol="64" pos="23520" len="43"/>
          <note pan="0" key="28" vol="64" pos="23520" len="21"/>
          <note pan="0" key="31" vol="60" pos="23544" len="21"/>
          <note pan="0" key="50" vol="62" pos="23568" len="43"/>
          <note pan="0" key="36" vol="62" pos="23568" len="21"/>
          <note pan="0" key="31" vol="60" pos="23592" len="21"/>
          <note pan="0" key="52" vol="67" pos="23616" len="64"/>
          <note pan="0" key="24" vol="67" pos="23616" len="21"/>
          <note pan="0" key="31" vol="60" pos="23640" len="21"/>
          <note pan="0" key="36" vol="62" pos="23664" len="21"/>
          <note pan="0" key="50" vol="60" pos="23688" len="21"/>
          <note pan="0" key="31" vol="60" pos="23688" len="21"/>
          <note pan="0" key="48" vol="64" pos="23712" len="86"/>
          <note pan="0" key="28" vol="64" pos="23712" len="21"/>
          <note pan="0" key="31" vol="60" pos="23736" len="21"/>
          <note pan="0" key="36" vol="62" pos="23760" len="21"/>
          <note pan="0" key="31" vol="60" pos="23784" len="21"/>
          <note pan="0" key="48" vol="67" pos="23808" len="43"/>
          <note pan="0" key="24" vol="67" pos="23808" len="21"/>
          <note pan="0" key="31" vol="61" pos="23832" len="21"/>
          <note pan="0" key="43" vol="65" pos="23856" len="43"/>
          <note pan="0" key="36" vol="65" pos="23856" len="21"/>
          <note pan="0" key="31" vol="64" pos="23880" len="21"/>
          <note pan="0" key="48" vol="71" pos="23904" len="43"/>
          <note pan="0" key="28" vol="71" pos="23904" len="21"/>
          <note pan="0" key="31" vol="68" pos="23928" len="21"/>
          <note pan="0" key="50" vol="71" pos="23952" len="43"/>
          <note pan="0" key="36" vol="71" pos="23952" len="21"/>
          <note pan="0" key="31" vol="71" pos="23976" len="21"/>
          <note pan="0" key="52" vol="80" pos="24000" len="43"/>
          <note pan="0" key="28" vol="80" pos="24000" len="21"/>
          <note pan="0" key="31" vol="74" pos="24024" len="21"/>
          <note pan="0" key="47" vol="79" pos="24048" len="43"/>
          <note pan="0" key="35" vol="79" pos="24048" len="21"/>
          <note pan="0" key="31" vol="77" pos="24072" len="21"/>
          <note pan="0" key="52" vol="85" pos="24096" len="43"/>
          <note pan="0" key="28" vol="85" pos="24096" len="21"/>
          <note pan="0" key="31" vol="80" pos="24120" len="21"/>
          <note pan="0" key="53" vol="85" pos="24144" len="43"/>
          <note pan="0" key="35" vol="85" pos="24144" len="21"/>
          <note pan="0" key="31" vol="84" pos="24168" len="21"/>
          <note pan="0" key="55" vol="95" pos="24192" len="43"/>
          <note pan="0" key="19" vol="95" pos="24192" len="21"/>
          <note pan="0" key="31" vol="87" pos="24216" len="21"/>
          <note pan="0" key="50" vol="91" pos="24240" len="43"/>
          <note pan="0" key="35" vol="91" pos="24240" len="21"/>
          <note pan="0" key="31" vol="90" pos="24264" len="21"/>
          <note pan="0" key="55" vol="99" pos="24288" len="43"/>
          <note pan="0" key="29" vol="99" pos="24288" len="21"/>
          <note pan="0" key="31" vol="93" pos="24312" len="21"/>
          <note pan="0" key="53" vol="98" pos="24336" len="43"/>
          <note pan="0" key="35" vol="98" pos="24336" len="21"/>
          <note pan="0" key="31" vol="96" pos="24360" len="21"/>
          <note pan="0" key="52" vol="109" pos="24384" len="64"/>
          <note pan="0" key="24" vol="109" pos="24384" len="21"/>
          <note pan="0" key="31" vol="100" pos="24408" len="21"/>
          <note pan="0" key="36" vol="105" pos="24432" len="21"/>
          <note pan="0" key="50" vol="103" pos="24456" len="21"/>
          <note pan="0" key="31" vol="103" pos="24456" len="21"/>
          <note pan="0" key="48" vol="113" pos="24480" len="86"/>
          <note pan="0" key="24" vol="113" pos="24480" len="86"/>
          <note pan="0" key="40" vol="113" pos="24480" len="86"/>
          <note pan="0" key="31" vol="113" pos="24480" len="86"/>
          <note pan="0" key="48" vol="117" pos="24576" len="43"/>
          <note pan="0" key="43" vol="109" pos="24624" len="43"/>
          <note pan="0" key="48" vol="113" pos="24672" len="43"/>
          <note pan="0" key="50" vol="109" pos="24720" len="43"/>
          <note pan="0" key="52" vol="89" pos="24768" len="21"/>
          <note pan="0" key="36" vol="117" pos="24768" len="43"/>
          <note pan="0" key="50" vol="80" pos="24792" len="21"/>
          <note pan="0" key="48" vol="83" pos="24816" len="21"/>
          <note pan="0" key="31" vol="109" pos="24816" len="43"/>
          <note pan="0" key="47" vol="80" pos="24840" len="21"/>
          <note pan="0" key="48" vol="86" pos="24864" len="86"/>
          <note pan="0" key="36" vol="113" pos="24864" len="43"/>
          <note pan="0" key="38" vol="109" pos="24912" len="43"/>
          <note pan="0" key="50" vol="117" pos="24960" len="43"/>
          <note pan="0" key="41" vol="89" pos="24960" len="21"/>
          <note pan="0" key="40" vol="80" pos="24984" len="21"/>
          <note pan="0" key="43" vol="109" pos="25008" len="43"/>
          <note pan="0" key="38" vol="83" pos="25008" len="21"/>
          <note pan="0" key="37" vol="80" pos="25032" len="21"/>
          <note pan="0" key="50" vol="113" pos="25056" len="43"/>
          <note pan="0" key="38" vol="86" pos="25056" len="86"/>
          <note pan="0" key="52" vol="109" pos="25104" len="43"/>
          <note pan="0" key="53" vol="100" pos="25152" len="21"/>
          <note pan="0" key="38" vol="117" pos="25152" len="43"/>
          <note pan="0" key="52" vol="90" pos="25176" len="21"/>
          <note pan="0" key="50" vol="93" pos="25200" len="21"/>
          <note pan="0" key="31" vol="109" pos="25200" len="43"/>
          <note pan="0" key="49" vol="90" pos="25224" len="21"/>
          <note pan="0" key="50" vol="97" pos="25248" len="86"/>
          <note pan="0" key="38" vol="113" pos="25248" len="43"/>
          <note pan="0" key="40" vol="109" pos="25296" len="43"/>
          <note pan="0" key="55" vol="100" pos="25344" len="21"/>
          <note pan="0" key="40" vol="100" pos="25344" len="21"/>
          <note pan="0" key="53" vol="90" pos="25368" len="21"/>
          <note pan="0" key="41" vol="90" pos="25368" len="21"/>
          <note pan="0" key="52" vol="93" pos="25392" len="21"/>
          <note pan="0" key="43" vol="93" pos="25392" len="21"/>
          <note pan="0" key="50" vol="90" pos="25416" len="21"/>
          <note pan="0" key="45" vol="90" pos="25416" len="21"/>
          <note pan="0" key="52" vol="97" pos="25440" len="86"/>
          <note pan="0" key="43" vol="97" pos="25440" len="86"/>
          <note pan="0" key="57" vol="100" pos="25536" len="21"/>
          <note pan="0" key="43" vol="100" pos="25536" len="21"/>
          <note pan="0" key="55" vol="90" pos="25560" len="21"/>
          <note pan="0" key="38" vol="90" pos="25560" len="21"/>
          <note pan="0" key="53" vol="94" pos="25584" len="21"/>
          <note pan="0" key="35" vol="94" pos="25584" len="21"/>
          <note pan="0" key="52" vol="92" pos="25608" len="21"/>
          <note pan="0" key="31" vol="92" pos="25608" len="21"/>
          <note pan="0" key="50" vol="100" pos="25632" len="21"/>
          <note pan="0" key="33" vol="100" pos="25632" len="21"/>
          <note pan="0" key="53" vol="94" pos="25656" len="21"/>
          <note pan="0" key="34" vol="94" pos="25656" len="21"/>
          <note pan="0" key="57" vol="98" pos="25680" len="21"/>
          <note pan="0" key="36" vol="98" pos="25680" len="21"/>
          <note pan="0" key="60" vol="96" pos="25704" len="21"/>
          <note pan="0" key="38" vol="96" pos="25704" len="21"/>
          <note pan="0" key="58" vol="108" pos="25728" len="21"/>
          <note pan="0" key="40" vol="108" pos="25728" len="21"/>
          <note pan="0" key="57" vol="98" pos="25752" len="21"/>
          <note pan="0" key="41" vol="98" pos="25752" len="21"/>
          <note pan="0" key="55" vol="102" pos="25776" len="21"/>
          <note pan="0" key="43" vol="102" pos="25776" len="21"/>
          <note pan="0" key="53" vol="100" pos="25800" len="21"/>
          <note pan="0" key="45" vol="100" pos="25800" len="21"/>
          <note pan="0" key="52" vol="109" pos="25824" len="21"/>
          <note pan="0" key="46" vol="109" pos="25824" len="21"/>
          <note pan="0" key="53" vol="102" pos="25848" len="21"/>
          <note pan="0" key="45" vol="102" pos="25848" len="21"/>
          <note pan="0" key="55" vol="107" pos="25872" len="21"/>
          <note pan="0" key="43" vol="107" pos="25872" len="21"/>
          <note pan="0" key="47" vol="104" pos="25896" len="21"/>
          <note pan="0" key="41" vol="104" pos="25896" len="21"/>
          <note pan="0" key="48" vol="117" pos="25920" len="43"/>
          <note pan="0" key="40" vol="117" pos="25920" len="43"/>
          <note pan="0" key="43" vol="109" pos="25968" len="43"/>
          <note pan="0" key="41" vol="109" pos="25968" len="43"/>
          <note pan="0" key="48" vol="113" pos="26016" len="86"/>
          <note pan="0" key="36" vol="113" pos="26016" len="86"/>
          <note pan="0" key="35" vol="117" pos="26112" len="64"/>
          <note pan="0" key="36" vol="105" pos="26184" len="21"/>
          <note pan="0" key="38" vol="113" pos="26208" len="43"/>
          <note pan="0" key="35" vol="109" pos="26256" len="43"/>
          <note pan="0" key="36" vol="117" pos="26304" len="43"/>
          <note pan="0" key="38" vol="109" pos="26352" len="43"/>
          <note pan="0" key="40" vol="113" pos="26400" len="86"/>
          <note pan="0" key="47" vol="117" pos="26496" len="64"/>
          <note pan="0" key="40" vol="89" pos="26496" len="64"/>
          <note pan="0" key="48" vol="105" pos="26568" len="21"/>
          <note pan="0" key="38" vol="82" pos="26568" len="21"/>
          <note pan="0" key="50" vol="113" pos="26592" len="43"/>
          <note pan="0" key="38" vol="89" pos="26592" len="43"/>
          <note pan="0" key="47" vol="109" pos="26640" len="43"/>
          <note pan="0" key="35" vol="87" pos="26640" len="43"/>
          <note pan="0" key="48" vol="117" pos="26688" len="43"/>
          <note pan="0" key="36" vol="96" pos="26688" len="43"/>
          <note pan="0" key="50" vol="109" pos="26736" len="43"/>
          <note pan="0" key="35" vol="90" pos="26736" len="43"/>
          <note pan="0" key="52" vol="113" pos="26784" len="86"/>
          <note pan="0" key="33" vol="96" pos="26784" len="86"/>
          <note pan="0" key="52" vol="117" pos="26880" len="64"/>
          <note pan="0" key="33" vol="103" pos="26880" len="64"/>
          <note pan="0" key="50" vol="105" pos="26952" len="21"/>
          <note pan="0" key="38" vol="94" pos="26952" len="21"/>
          <note pan="0" key="48" vol="113" pos="26976" len="43"/>
          <note pan="0" key="40" vol="102" pos="26976" len="43"/>
          <note pan="0" key="47" vol="109" pos="27024" len="43"/>
          <note pan="0" key="38" vol="100" pos="27024" len="43"/>
          <note pan="0" key="48" vol="117" pos="27072" len="43"/>
          <note pan="0" key="36" vol="109" pos="27072" len="43"/>
          <note pan="0" key="52" vol="109" pos="27120" len="43"/>
          <note pan="0" key="37" vol="104" pos="27120" len="43"/>
          <note pan="0" key="50" vol="113" pos="27168" len="86"/>
          <note pan="0" key="38" vol="109" pos="27168" len="86"/>
          <note pan="0" key="47" vol="117" pos="27264" len="64"/>
          <note pan="0" key="40" vol="117" pos="27264" len="64"/>
          <note pan="0" key="48" vol="101" pos="27336" len="21"/>
          <note pan="0" key="38" vol="101" pos="27336" len="21"/>
          <note pan="0" key="50" vol="108" pos="27360" len="43"/>
          <note pan="0" key="38" vol="108" pos="27360" len="43"/>
          <note pan="0" key="47" vol="101" pos="27408" len="43"/>
          <note pan="0" key="35" vol="101" pos="27408" len="43"/>
          <note pan="0" key="48" vol="107" pos="27456" len="43"/>
          <note pan="0" key="36" vol="107" pos="27456" len="43"/>
          <note pan="0" key="50" vol="97" pos="27504" len="43"/>
          <note pan="0" key="35" vol="97" pos="27504" len="43"/>
          <note pan="0" key="52" vol="99" pos="27552" len="86"/>
          <note pan="0" key="33" vol="99" pos="27552" len="86"/>
          <note pan="0" key="52" vol="98" pos="27648" len="64"/>
          <note pan="0" key="33" vol="98" pos="27648" len="64"/>
          <note pan="0" key="50" vol="85" pos="27720" len="21"/>
          <note pan="0" key="38" vol="85" pos="27720" len="21"/>
          <note pan="0" key="48" vol="90" pos="27744" len="43"/>
          <note pan="0" key="40" vol="90" pos="27744" len="43"/>
          <note pan="0" key="47" vol="85" pos="27792" len="43"/>
          <note pan="0" key="38" vol="85" pos="27792" len="43"/>
          <note pan="0" key="48" vol="89" pos="27840" len="43"/>
          <note pan="0" key="38" vol="89" pos="27840" len="43"/>
          <note pan="0" key="42" vol="83" pos="27888" len="43"/>
          <note pan="0" key="33" vol="83" pos="27888" len="43"/>
          <note pan="0" key="43" vol="86" pos="27936" len="86"/>
          <note pan="0" key="31" vol="86" pos="27936" len="86"/>
          <note pan="0" key="35" vol="86" pos="27936" len="86"/>
          <note pan="0" key="38" vol="86" pos="27936" len="86"/>
          <note pan="0" key="55" vol="100" pos="28032" len="43"/>
          <note pan="0" key="31" vol="100" pos="28032" len="21"/>
          <note pan="0" key="38" vol="90" pos="28056" len="21"/>
          <note pan="0" key="50" vol="93" pos="28080" len="43"/>
          <note pan="0" key="43" vol="93" pos="28080" len="21"/>
          <note pan="0" key="38" vol="90" pos="28104" len="21"/>
          <note pan="0" key="55" vol="97" pos="28128" len="43"/>
          <note pan="0" key="35" vol="97" pos="28128" len="21"/>
          <note pan="0" key="38" vol="90" pos="28152" len="21"/>
          <note pan="0" key="57" vol="93" pos="28176" len="43"/>
          <note pan="0" key="43" vol="93" pos="28176" len="21"/>
          <note pan="0" key="38" vol="90" pos="28200" len="21"/>
          <note pan="0" key="59" vol="100" pos="28224" len="43"/>
          <note pan="0" key="35" vol="100" pos="28224" len="21"/>
          <note pan="0" key="38" vol="90" pos="28248" len="21"/>
          <note pan="0" key="54" vol="93" pos="28272" len="43"/>
          <note pan="0" key="42" vol="93" pos="28272" len="21"/>
          <note pan="0" key="38" vol="90" pos="28296" len="21"/>
          <note pan="0" key="59" vol="97" pos="28320" len="43"/>
          <note pan="0" key="35" vol="97" pos="28320" len="21"/>
          <note pan="0" key="38" vol="90" pos="28344" len="21"/>
          <note pan="0" key="57" vol="93" pos="28368" len="43"/>
          <note pan="0" key="42" vol="93" pos="28368" len="21"/>
          <note pan="0" key="38" vol="90" pos="28392" len="21"/>
          <note pan="0" key="55" vol="100" pos="28416" len="43"/>
          <note pan="0" key="31" vol="100" pos="28416" len="21"/>
          <note pan="0" key="38" vol="90" pos="28440" len="21"/>
          <note pan="0" key="50" vol="93" pos="28464" len="43"/>
          <note pan="0" key="43" vol="93" pos="28464" len="21"/>
          <note pan="0" key="38" vol="90" pos="28488" len="21"/>
          <note pan="0" key="55" vol="97" pos="28512" len="43"/>
          <note pan="0" key="35" vol="97" pos="28512" len="21"/>
          <note pan="0" key="38" vol="90" pos="28536" len="21"/>
          <note pan="0" key="57" vol="93" pos="28560" len="43"/>
          <note pan="0" key="43" vol="93" pos="28560" len="21"/>
          <note pan="0" key="38" vol="90" pos="28584" len="21"/>
          <note pan="0" key="59" vol="100" pos="28608" len="64"/>
          <note pan="0" key="31" vol="100" pos="28608" len="21"/>
          <note pan="0" key="38" vol="90" pos="28632" len="21"/>
          <note pan="0" key="43" vol="93" pos="28656" len="21"/>
          <note pan="0" key="57" vol="90" pos="28680" len="21"/>
          <note pan="0" key="38" vol="90" pos="28680" len="21"/>
          <note pan="0" key="55" vol="97" pos="28704" len="86"/>
          <note pan="0" key="35" vol="97" pos="28704" len="21"/>
          <note pan="0" key="38" vol="90" pos="28728" len="21"/>
          <note pan="0" key="43" vol="93" pos="28752" len="21"/>
          <note pan="0" key="38" vol="90" pos="28776" len="21"/>
          <note pan="0" key="55" vol="100" pos="28800" len="43"/>
          <note pan="0" key="31" vol="100" pos="28800" len="21"/>
          <note pan="0" key="38" vol="90" pos="28824" len="21"/>
          <note pan="0" key="50" vol="94" pos="28848" len="43"/>
          <note pan="0" key="43" vol="94" pos="28848" len="21"/>
          <note pan="0" key="38" vol="92" pos="28872" len="21"/>
          <note pan="0" key="55" vol="100" pos="28896" len="43"/>
          <note pan="0" key="35" vol="100" pos="28896" len="21"/>
          <note pan="0" key="38" vol="94" pos="28920" len="21"/>
          <note pan="0" key="57" vol="98" pos="28944" len="43"/>
          <note pan="0" key="43" vol="98" pos="28944" len="21"/>
          <note pan="0" key="38" vol="95" pos="28968" len="21"/>
          <note pan="0" key="59" vol="107" pos="28992" len="43"/>
          <note pan="0" key="35" vol="107" pos="28992" len="21"/>
          <note pan="0" key="38" vol="97" pos="29016" len="21"/>
          <note pan="0" key="54" vol="101" pos="29040" len="43"/>
          <note pan="0" key="42" vol="101" pos="29040" len="21"/>
          <note pan="0" key="38" vol="99" pos="29064" len="21"/>
          <note pan="0" key="57" vol="108" pos="29088" len="43"/>
          <note pan="0" key="33" vol="108" pos="29088" len="21"/>
          <note pan="0" key="38" vol="100" pos="29112" len="21"/>
          <note pan="0" key="50" vol="105" pos="29136" len="43"/>
          <note pan="0" key="42" vol="105" pos="29136" len="21"/>
          <note pan="0" key="38" vol="102" pos="29160" len="21"/>
          <note pan="0" key="59" vol="115" pos="29184" len="43"/>
          <note pan="0" key="31" vol="115" pos="29184" len="21"/>
          <note pan="0" key="38" vol="104" pos="29208" len="21"/>
          <note pan="0" key="55" vol="109" pos="29232" len="43"/>
          <note pan="0" key="43" vol="109" pos="29232" len="21"/>
          <note pan="0" key="38" vol="105" pos="29256" len="21"/>
          <note pan="0" key="50" vol="114" pos="29280" len="43"/>
          <note pan="0" key="35" vol="114" pos="29280" len="21"/>
          <note pan="0" key="38" vol="107" pos="29304" len="21"/>
          <note pan="0" key="55" vol="112" pos="29328" len="43"/>
          <note pan="0" key="43" vol="112" pos="29328" len="21"/>
          <note pan="0" key="38" vol="109" pos="29352" len="21"/>
          <note pan="0" key="57" vol="123" pos="29376" len="64"/>
          <note pan="0" key="33" vol="123" pos="29376" len="21"/>
          <note pan="0" key="40" vol="110" pos="29400" len="21"/>
          <note pan="0" key="45" vol="114" pos="29424" len="21"/>
          <note pan="0" key="59" vol="110" pos="29448" len="21"/>
          <note pan="0" key="40" vol="110" pos="29448" len="21"/>
          <note pan="0" key="60" vol="118" pos="29472" len="182"/>
          <note pan="0" key="40" vol="118" pos="29472" len="182"/>
          <note pan="0" key="33" vol="118" pos="29472" len="182"/>
          <note pan="0" key="36" vol="118" pos="29472" len="182"/>
          <note pan="0" key="57" vol="97" pos="29664" len="43"/>
          <note pan="0" key="33" vol="97" pos="29664" len="86"/>
          <note pan="0" key="38" vol="97" pos="29664" len="86"/>
          <note pan="0" key="42" vol="97" pos="29664" len="86"/>
          <note pan="0" key="54" vol="93" pos="29712" len="43"/>
          <note pan="0" key="55" vol="100" pos="29760" len="64"/>
          <note pan="0" key="43" vol="100" pos="29760" len="86"/>
          <note pan="0" key="31" vol="100" pos="29760" len="86"/>
          <note pan="0" key="38" vol="100" pos="29760" len="86"/>
          <note pan="0" key="52" vol="88" pos="29832" len="21"/>
          <note pan="0" key="48" vol="93" pos="29856" len="43"/>
          <note pan="0" key="31" vol="93" pos="29856" len="86"/>
          <note pan="0" key="36" vol="93" pos="29856" len="86"/>
          <note pan="0" key="40" vol="93" pos="29856" len="86"/>
          <note pan="0" key="55" vol="89" pos="29904" len="43"/>
          <note pan="0" key="53" vol="95" pos="29952" len="64"/>
          <note pan="0" key="33" vol="95" pos="29952" len="86"/>
          <note pan="0" key="38" vol="95" pos="29952" len="86"/>
          <note pan="0" key="41" vol="95" pos="29952" len="86"/>
          <note pan="0" key="50" vol="83" pos="30024" len="21"/>
          <note pan="0" key="47" vol="88" pos="30048" len="43"/>
          <note pan="0" key="43" vol="88" pos="30048" len="86"/>
          <note pan="0" key="35" vol="88" pos="30048" len="86"/>
          <note pan="0" key="38" vol="88" pos="30048" len="86"/>
          <note pan="0" key="50" vol="84" pos="30096" len="43"/>
          <note pan="0" key="48" vol="89" pos="30144" len="172"/>
          <note pan="0" key="36" vol="89" pos="30144" len="172"/>
          <note pan="0" key="40" vol="89" pos="30144" len="172"/>
          <note pan="0" key="43" vol="89" pos="30144" len="172"/>
          <note pan="0" key="48" vol="100" pos="30336" len="43"/>
          <note pan="0" key="24" vol="100" pos="30336" len="21"/>
          <note pan="0" key="31" vol="90" pos="30360" len="21"/>
          <note pan="0" key="43" vol="93" pos="30384" len="43"/>
          <note pan="0" key="36" vol="93" pos="30384" len="21"/>
          <note pan="0" key="31" vol="90" pos="30408" len="21"/>
          <note pan="0" key="48" vol="97" pos="30432" len="43"/>
          <note pan="0" key="28" vol="97" pos="30432" len="21"/>
          <note pan="0" key="31" vol="90" pos="30456" len="21"/>
          <note pan="0" key="50" vol="93" pos="30480" len="43"/>
          <note pan="0" key="36" vol="93" pos="30480" len="21"/>
          <note pan="0" key="31" vol="90" pos="30504" len="21"/>
          <note pan="0" key="52" vol="100" pos="30528" len="21"/>
          <note pan="0" key="24" vol="100" pos="30528" len="21"/>
          <note pan="0" key="50" vol="90" pos="30552" len="21"/>
          <note pan="0" key="31" vol="90" pos="30552" len="21"/>
          <note pan="0" key="48" vol="93" pos="30576" len="21"/>
          <note pan="0" key="36" vol="93" pos="30576" len="21"/>
          <note pan="0" key="47" vol="90" pos="30600" len="21"/>
          <note pan="0" key="31" vol="90" pos="30600" len="21"/>
          <note pan="0" key="48" vol="97" pos="30624" len="86"/>
          <note pan="0" key="28" vol="97" pos="30624" len="21"/>
          <note pan="0" key="31" vol="90" pos="30648" len="21"/>
          <note pan="0" key="36" vol="93" pos="30672" len="21"/>
          <note pan="0" key="31" vol="90" pos="30696" len="21"/>
          <note pan="0" key="50" vol="100" pos="30720" len="43"/>
          <note pan="0" key="19" vol="100" pos="30720" len="21"/>
          <note pan="0" key="31" vol="90" pos="30744" len="21"/>
          <note pan="0" key="43" vol="93" pos="30768" len="43"/>
          <note pan="0" key="35" vol="93" pos="30768" len="21"/>
          <note pan="0" key="31" vol="90" pos="30792" len="21"/>
          <note pan="0" key="50" vol="97" pos="30816" len="43"/>
          <note pan="0" key="26" vol="97" pos="30816" len="21"/>
          <note pan="0" key="31" vol="90" pos="30840" len="21"/>
          <note pan="0" key="52" vol="93" pos="30864" len="43"/>
          <note pan="0" key="35" vol="93" pos="30864" len="21"/>
          <note pan="0" key="31" vol="90" pos="30888" len="21"/>
          <note pan="0" key="53" vol="100" pos="30912" len="21"/>
          <note pan="0" key="26" vol="100" pos="30912" len="21"/>
          <note pan="0" key="52" vol="90" pos="30936" len="21"/>
          <note pan="0" key="30" vol="90" pos="30936" len="21"/>
          <note pan="0" key="50" vol="93" pos="30960" len="21"/>
          <note pan="0" key="33" vol="93" pos="30960" len="21"/>
          <note pan="0" key="49" vol="90" pos="30984" len="21"/>
          <note pan="0" key="30" vol="90" pos="30984" len="21"/>
          <note pan="0" key="50" vol="97" pos="31008" len="86"/>
          <note pan="0" key="26" vol="97" pos="31008" len="21"/>
          <note pan="0" key="30" vol="90" pos="31032" len="21"/>
          <note pan="0" key="33" vol="93" pos="31056" len="21"/>
          <note pan="0" key="30" vol="90" pos="31080" len="21"/>
          <note pan="0" key="55" vol="100" pos="31104" len="21"/>
          <note pan="0" key="19" vol="100" pos="31104" len="21"/>
          <note pan="0" key="53" vol="90" pos="31128" len="21"/>
          <note pan="0" key="31" vol="90" pos="31128" len="21"/>
          <note pan="0" key="52" vol="93" pos="31152" len="21"/>
          <note pan="0" key="35" vol="93" pos="31152" len="21"/>
          <note pan="0" key="50" vol="90" pos="31176" len="21"/>
          <note pan="0" key="31" vol="90" pos="31176" len="21"/>
          <note pan="0" key="52" vol="97" pos="31200" len="86"/>
          <note pan="0" key="26" vol="97" pos="31200" len="21"/>
          <note pan="0" key="31" vol="90" pos="31224" len="21"/>
          <note pan="0" key="35" vol="93" pos="31248" len="21"/>
          <note pan="0" key="31" vol="90" pos="31272" len="21"/>
          <note pan="0" key="57" vol="100" pos="31296" len="21"/>
          <note pan="0" key="26" vol="100" pos="31296" len="21"/>
          <note pan="0" key="55" vol="92" pos="31320" len="21"/>
          <note pan="0" key="29" vol="92" pos="31320" len="21"/>
          <note pan="0" key="53" vol="98" pos="31344" len="21"/>
          <note pan="0" key="33" vol="98" pos="31344" len="21"/>
          <note pan="0" key="52" vol="97" pos="31368" len="21"/>
          <note pan="0" key="29" vol="97" pos="31368" len="21"/>
          <note pan="0" key="50" vol="108" pos="31392" len="21"/>
          <note pan="0" key="24" vol="108" pos="31392" len="21"/>
          <note pan="0" key="53" vol="102" pos="31416" len="21"/>
          <note pan="0" key="29" vol="102" pos="31416" len="21"/>
          <note pan="0" key="57" vol="109" pos="31440" len="21"/>
          <note pan="0" key="36" vol="109" pos="31440" len="21"/>
          <note pan="0" key="60" vol="107" pos="31464" len="21"/>
          <note pan="0" key="33" vol="107" pos="31464" len="21"/>
          <note pan="0" key="58" vol="123" pos="31488" len="21"/>
          <note pan="0" key="24" vol="123" pos="31488" len="21"/>
          <note pan="0" key="57" vol="107" pos="31512" len="21"/>
          <note pan="0" key="31" vol="107" pos="31512" len="21"/>
          <note pan="0" key="55" vol="109" pos="31536" len="21"/>
          <note pan="0" key="34" vol="109" pos="31536" len="21"/>
          <note pan="0" key="53" vol="102" pos="31560" len="21"/>
          <note pan="0" key="31" vol="102" pos="31560" len="21"/>
          <note pan="0" key="52" vol="108" pos="31584" len="21"/>
          <note pan="0" key="19" vol="108" pos="31584" len="21"/>
          <note pan="0" key="53" vol="97" pos="31608" len="21"/>
          <note pan="0" key="29" vol="97" pos="31608" len="21"/>
          <note pan="0" key="55" vol="98" pos="31632" len="21"/>
          <note pan="0" key="31" vol="98" pos="31632" len="21"/>
          <note pan="0" key="47" vol="92" pos="31656" len="21"/>
          <note pan="0" key="29" vol="92" pos="31656" len="21"/>
          <note pan="0" key="48" vol="100" pos="31680" len="43"/>
          <note pan="0" key="24" vol="100" pos="31680" len="21"/>
          <note pan="0" key="28" vol="90" pos="31704" len="21"/>
          <note pan="0" key="43" vol="93" pos="31728" len="43"/>
          <note pan="0" key="31" vol="93" pos="31728" len="21"/>
          <note pan="0" key="28" vol="90" pos="31752" len="21"/>
          <note pan="0" key="48" vol="97" pos="31776" len="86"/>
          <note pan="0" key="24" vol="97" pos="31776" len="21"/>
          <note pan="0" key="28" vol="90" pos="31800" len="21"/>
          <note pan="0" key="31" vol="93" pos="31824" len="21"/>
          <note pan="0" key="36" vol="90" pos="31848" len="21"/>
          <note pan="0" key="48" vol="89" pos="31872" len="43"/>
          <note pan="0" key="24" vol="89" pos="31872" len="21"/>
          <note pan="0" key="31" vol="80" pos="31896" len="21"/>
          <note pan="0" key="43" vol="83" pos="31920" len="43"/>
          <note pan="0" key="36" vol="83" pos="31920" len="21"/>
          <note pan="0" key="31" vol="80" pos="31944" len="21"/>
          <note pan="0" key="48" vol="86" pos="31968" len="43"/>
          <note pan="0" key="28" vol="86" pos="31968" len="21"/>
          <note pan="0" key="31" vol="80" pos="31992" len="21"/>
          <note pan="0" key="50" vol="83" pos="32016" len="43"/>
          <note pan="0" key="36" vol="83" pos="32016" len="21"/>
          <note pan="0" key="31" vol="80" pos="32040" len="21"/>
          <note pan="0" key="52" vol="89" pos="32064" len="43"/>
          <note pan="0" key="28" vol="89" pos="32064" len="21"/>
          <note pan="0" key="31" vol="80" pos="32088" len="21"/>
          <note pan="0" key="47" vol="83" pos="32112" len="43"/>
          <note pan="0" key="35" vol="83" pos="32112" len="21"/>
          <note pan="0" key="31" vol="80" pos="32136" len="21"/>
          <note pan="0" key="52" vol="86" pos="32160" len="43"/>
          <note pan="0" key="28" vol="86" pos="32160" len="21"/>
          <note pan="0" key="31" vol="80" pos="32184" len="21"/>
          <note pan="0" key="50" vol="83" pos="32208" len="43"/>
          <note pan="0" key="35" vol="83" pos="32208" len="21"/>
          <note pan="0" key="31" vol="80" pos="32232" len="21"/>
          <note pan="0" key="48" vol="89" pos="32256" len="43"/>
          <note pan="0" key="24" vol="89" pos="32256" len="21"/>
          <note pan="0" key="31" vol="80" pos="32280" len="21"/>
          <note pan="0" key="43" vol="83" pos="32304" len="43"/>
          <note pan="0" key="36" vol="83" pos="32304" len="21"/>
          <note pan="0" key="31" vol="80" pos="32328" len="21"/>
          <note pan="0" key="48" vol="86" pos="32352" len="43"/>
          <note pan="0" key="28" vol="86" pos="32352" len="21"/>
          <note pan="0" key="31" vol="80" pos="32376" len="21"/>
          <note pan="0" key="50" vol="83" pos="32400" len="43"/>
          <note pan="0" key="36" vol="83" pos="32400" len="21"/>
          <note pan="0" key="31" vol="80" pos="32424" len="21"/>
          <note pan="0" key="52" vol="89" pos="32448" len="64"/>
          <note pan="0" key="24" vol="89" pos="32448" len="21"/>
          <note pan="0" key="31" vol="80" pos="32472" len="21"/>
          <note pan="0" key="36" vol="83" pos="32496" len="21"/>
          <note pan="0" key="50" vol="80" pos="32520" len="21"/>
          <note pan="0" key="31" vol="80" pos="32520" len="21"/>
          <note pan="0" key="48" vol="86" pos="32544" len="86"/>
          <note pan="0" key="28" vol="86" pos="32544" len="21"/>
          <note pan="0" key="31" vol="80" pos="32568" len="21"/>
          <note pan="0" key="36" vol="83" pos="32592" len="21"/>
          <note pan="0" key="31" vol="80" pos="32616" len="21"/>
          <note pan="0" key="48" vol="89" pos="32640" len="43"/>
          <note pan="0" key="24" vol="89" pos="32640" len="21"/>
          <note pan="0" key="31" vol="80" pos="32664" len="21"/>
          <note pan="0" key="43" vol="83" pos="32688" len="43"/>
          <note pan="0" key="36" vol="83" pos="32688" len="21"/>
          <note pan="0" key="31" vol="80" pos="32712" len="21"/>
          <note pan="0" key="48" vol="86" pos="32736" len="43"/>
          <note pan="0" key="28" vol="86" pos="32736" len="21"/>
          <note pan="0" key="31" vol="80" pos="32760" len="21"/>
          <note pan="0" key="50" vol="83" pos="32784" len="43"/>
          <note pan="0" key="36" vol="83" pos="32784" len="21"/>
          <note pan="0" key="31" vol="80" pos="32808" len="21"/>
          <note pan="0" key="52" vol="89" pos="32832" len="43"/>
          <note pan="0" key="28" vol="89" pos="32832" len="21"/>
          <note pan="0" key="31" vol="80" pos="32856" len="21"/>
          <note pan="0" key="47" vol="83" pos="32880" len="43"/>
          <note pan="0" key="35" vol="83" pos="32880" len="21"/>
          <note pan="0" key="31" vol="80" pos="32904" len="21"/>
          <note pan="0" key="52" vol="86" pos="32928" len="43"/>
          <note pan="0" key="28" vol="86" pos="32928" len="21"/>
          <note pan="0" key="31" vol="80" pos="32952" len="21"/>
          <note pan="0" key="53" vol="83" pos="32976" len="43"/>
          <note pan="0" key="35" vol="83" pos="32976" len="21"/>
          <note pan="0" key="31" vol="80" pos="33000" len="21"/>
          <note pan="0" key="55" vol="89" pos="33024" len="43"/>
          <note pan="0" key="19" vol="89" pos="33024" len="21"/>
          <note pan="0" key="31" vol="80" pos="33048" len="21"/>
          <note pan="0" key="50" vol="83" pos="33072" len="43"/>
          <note pan="0" key="35" vol="83" pos="33072" len="21"/>
          <note pan="0" key="31" vol="80" pos="33096" len="21"/>
          <note pan="0" key="55" vol="86" pos="33120" len="43"/>
          <note pan="0" key="29" vol="86" pos="33120" len="21"/>
          <note pan="0" key="31" vol="80" pos="33144" len="21"/>
          <note pan="0" key="53" vol="83" pos="33168" len="43"/>
          <note pan="0" key="35" vol="83" pos="33168" len="21"/>
          <note pan="0" key="31" vol="80" pos="33192" len="21"/>
          <note pan="0" key="52" vol="89" pos="33216" len="64"/>
          <note pan="0" key="24" vol="89" pos="33216" len="21"/>
          <note pan="0" key="31" vol="80" pos="33240" len="21"/>
          <note pan="0" key="36" vol="83" pos="33264" len="21"/>
          <note pan="0" key="50" vol="80" pos="33288" len="21"/>
          <note pan="0" key="31" vol="80" pos="33288" len="21"/>
          <note pan="0" key="48" vol="86" pos="33312" len="86"/>
          <note pan="0" key="28" vol="86" pos="33312" len="21"/>
          <note pan="0" key="31" vol="80" pos="33336" len="21"/>
          <note pan="0" key="36" vol="83" pos="33360" len="21"/>
          <note pan="0" key="31" vol="80" pos="33384" len="21"/>
          <note pan="0" key="48" vol="89" pos="33408" len="21"/>
          <note pan="0" key="31" vol="89" pos="33408" len="86"/>
          <note pan="0" key="24" vol="89" pos="33408" len="86"/>
          <note pan="0" key="50" vol="80" pos="33432" len="21"/>
          <note pan="0" key="52" vol="83" pos="33456" len="21"/>
          <note pan="0" key="53" vol="80" pos="33480" len="21"/>
          <note pan="0" key="55" vol="86" pos="33504" len="21"/>
          <note pan="0" key="28" vol="86" pos="33504" len="86"/>
          <note pan="0" key="31" vol="86" pos="33504" len="86"/>
          <note pan="0" key="53" vol="80" pos="33528" len="21"/>
          <note pan="0" key="52" vol="83" pos="33552" len="21"/>
          <note pan="0" key="50" vol="80" pos="33576" len="21"/>
          <note pan="0" key="48" vol="89" pos="33600" len="21"/>
          <note pan="0" key="24" vol="89" pos="33600" len="86"/>
          <note pan="0" key="31" vol="89" pos="33600" len="86"/>
          <note pan="0" key="50" vol="80" pos="33624" len="21"/>
          <note pan="0" key="52" vol="83" pos="33648" len="21"/>
          <note pan="0" key="53" vol="80" pos="33672" len="21"/>
          <note pan="0" key="55" vol="111" pos="33696" len="32"/>
          <note pan="0" key="26" vol="86" pos="33696" len="86"/>
          <note pan="0" key="31" vol="86" pos="33696" len="86"/>
          <note pan="0" key="50" vol="100" pos="33732" len="10"/>
          <note pan="0" key="55" vol="107" pos="33744" len="43"/>
          <note pan="0" key="48" vol="89" pos="33792" len="21"/>
          <note pan="0" key="24" vol="89" pos="33792" len="86"/>
          <note pan="0" key="31" vol="89" pos="33792" len="86"/>
          <note pan="0" key="50" vol="80" pos="33816" len="21"/>
          <note pan="0" key="52" vol="83" pos="33840" len="21"/>
          <note pan="0" key="53" vol="80" pos="33864" len="21"/>
          <note pan="0" key="55" vol="86" pos="33888" len="21"/>
          <note pan="0" key="28" vol="86" pos="33888" len="86"/>
          <note pan="0" key="31" vol="86" pos="33888" len="86"/>
          <note pan="0" key="53" vol="80" pos="33912" len="21"/>
          <note pan="0" key="52" vol="83" pos="33936" len="21"/>
          <note pan="0" key="50" vol="80" pos="33960" len="21"/>
          <note pan="0" key="48" vol="89" pos="33984" len="21"/>
          <note pan="0" key="24" vol="89" pos="33984" len="43"/>
          <note pan="0" key="31" vol="89" pos="33984" len="43"/>
          <note pan="0" key="50" vol="80" pos="34008" len="21"/>
          <note pan="0" key="52" vol="83" pos="34032" len="21"/>
          <note pan="0" key="26" vol="83" pos="34032" len="43"/>
          <note pan="0" key="30" vol="83" pos="34032" len="43"/>
          <note pan="0" key="54" vol="80" pos="34056" len="21"/>
          <note pan="0" key="55" vol="111" pos="34080" len="86"/>
          <note pan="0" key="26" vol="86" pos="34080" len="86"/>
          <note pan="0" key="31" vol="86" pos="34080" len="86"/>
          <note pan="0" key="55" vol="89" pos="34176" len="21"/>
          <note pan="0" key="31" vol="89" pos="34176" len="86"/>
          <note pan="0" key="35" vol="89" pos="34176" len="86"/>
          <note pan="0" key="57" vol="80" pos="34200" len="21"/>
          <note pan="0" key="59" vol="83" pos="34224" len="21"/>
          <note pan="0" key="60" vol="80" pos="34248" len="21"/>
          <note pan="0" key="62" vol="86" pos="34272" len="21"/>
          <note pan="0" key="31" vol="86" pos="34272" len="86"/>
          <note pan="0" key="26" vol="86" pos="34272" len="86"/>
          <note pan="0" key="60" vol="80" pos="34296" len="21"/>
          <note pan="0" key="59" vol="83" pos="34320" len="21"/>
          <note pan="0" key="57" vol="80" pos="34344" len="21"/>
          <note pan="0" key="55" vol="89" pos="34368" len="21"/>
          <note pan="0" key="31" vol="89" pos="34368" len="86"/>
          <note pan="0" key="35" vol="89" pos="34368" len="86"/>
          <note pan="0" key="57" vol="80" pos="34392" len="21"/>
          <note pan="0" key="59" vol="83" pos="34416" len="21"/>
          <note pan="0" key="60" vol="80" pos="34440" len="21"/>
          <note pan="0" key="62" vol="111" pos="34464" len="32"/>
          <note pan="0" key="30" vol="86" pos="34464" len="86"/>
          <note pan="0" key="33" vol="86" pos="34464" len="86"/>
          <note pan="0" key="57" vol="100" pos="34500" len="10"/>
          <note pan="0" key="62" vol="107" pos="34512" len="43"/>
          <note pan="0" key="55" vol="89" pos="34560" len="21"/>
          <note pan="0" key="31" vol="89" pos="34560" len="86"/>
          <note pan="0" key="35" vol="89" pos="34560" len="86"/>
          <note pan="0" key="57" vol="80" pos="34584" len="21"/>
          <note pan="0" key="59" vol="83" pos="34608" len="21"/>
          <note pan="0" key="60" vol="80" pos="34632" len="21"/>
          <note pan="0" key="62" vol="86" pos="34656" len="21"/>
          <note pan="0" key="31" vol="86" pos="34656" len="86"/>
          <note pan="0" key="26" vol="86" pos="34656" len="86"/>
          <note pan="0" key="60" vol="80" pos="34680" len="21"/>
          <note pan="0" key="59" vol="83" pos="34704" len="21"/>
          <note pan="0" key="57" vol="80" pos="34728" len="21"/>
          <note pan="0" key="55" vol="89" pos="34752" len="21"/>
          <note pan="0" key="31" vol="89" pos="34752" len="43"/>
          <note pan="0" key="35" vol="89" pos="34752" len="43"/>
          <note pan="0" key="57" vol="80" pos="34776" len="21"/>
          <note pan="0" key="59" vol="83" pos="34800" len="21"/>
          <note pan="0" key="26" vol="83" pos="34800" len="43"/>
          <note pan="0" key="31" vol="83" pos="34800" len="43"/>
          <note pan="0" key="47" vol="80" pos="34824" len="21"/>
          <note pan="0" key="48" vol="111" pos="34848" len="86"/>
          <note pan="0" key="24" vol="86" pos="34848" len="86"/>
          <note pan="0" key="28" vol="86" pos="34848" len="86"/>
          <note pan="0" key="48" vol="89" pos="34944" len="43"/>
          <note pan="0" key="24" vol="89" pos="34944" len="21"/>
          <note pan="0" key="31" vol="80" pos="34968" len="21"/>
          <note pan="0" key="43" vol="83" pos="34992" len="43"/>
          <note pan="0" key="36" vol="83" pos="34992" len="21"/>
          <note pan="0" key="31" vol="80" pos="35016" len="21"/>
          <note pan="0" key="48" vol="86" pos="35040" len="43"/>
          <note pan="0" key="28" vol="86" pos="35040" len="21"/>
          <note pan="0" key="31" vol="80" pos="35064" len="21"/>
          <note pan="0" key="50" vol="83" pos="35088" len="43"/>
          <note pan="0" key="36" vol="83" pos="35088" len="21"/>
          <note pan="0" key="31" vol="80" pos="35112" len="21"/>
          <note pan="0" key="52" vol="89" pos="35136" len="43"/>
          <note pan="0" key="28" vol="89" pos="35136" len="21"/>
          <note pan="0" key="31" vol="80" pos="35160" len="21"/>
          <note pan="0" key="47" vol="83" pos="35184" len="43"/>
          <note pan="0" key="35" vol="83" pos="35184" len="21"/>
          <note pan="0" key="31" vol="80" pos="35208" len="21"/>
          <note pan="0" key="52" vol="86" pos="35232" len="43"/>
          <note pan="0" key="28" vol="86" pos="35232" len="21"/>
          <note pan="0" key="31" vol="80" pos="35256" len="21"/>
          <note pan="0" key="50" vol="83" pos="35280" len="43"/>
          <note pan="0" key="35" vol="83" pos="35280" len="21"/>
          <note pan="0" key="31" vol="80" pos="35304" len="21"/>
          <note pan="0" key="48" vol="89" pos="35328" len="43"/>
          <note pan="0" key="24" vol="89" pos="35328" len="21"/>
          <note pan="0" key="31" vol="80" pos="35352" len="21"/>
          <note pan="0" key="43" vol="83" pos="35376" len="43"/>
          <note pan="0" key="36" vol="83" pos="35376" len="21"/>
          <note pan="0" key="31" vol="80" pos="35400" len="21"/>
          <note pan="0" key="48" vol="86" pos="35424" len="43"/>
          <note pan="0" key="28" vol="86" pos="35424" len="21"/>
          <note pan="0" key="31" vol="80" pos="35448" len="21"/>
          <note pan="0" key="50" vol="83" pos="35472" len="43"/>
          <note pan="0" key="36" vol="83" pos="35472" len="21"/>
          <note pan="0" key="31" vol="80" pos="35496" len="21"/>
          <note pan="0" key="52" vol="89" pos="35520" len="64"/>
          <note pan="0" key="26" vol="89" pos="35520" len="21"/>
          <note pan="0" key="33" vol="80" pos="35544" len="21"/>
          <note pan="0" key="36" vol="83" pos="35568" len="21"/>
          <note pan="0" key="50" vol="80" pos="35592" len="21"/>
          <note pan="0" key="33" vol="80" pos="35592" len="21"/>
          <note pan="0" key="48" vol="86" pos="35616" len="86"/>
          <note pan="0" key="26" vol="86" pos="35616" len="21"/>
          <note pan="0" key="31" vol="80" pos="35640" len="21"/>
          <note pan="0" key="35" vol="83" pos="35664" len="21"/>
          <note pan="0" key="31" vol="80" pos="35688" len="21"/>
          <note pan="0" key="48" vol="89" pos="35712" len="43"/>
          <note pan="0" key="24" vol="89" pos="35712" len="21"/>
          <note pan="0" key="31" vol="80" pos="35736" len="21"/>
          <note pan="0" key="43" vol="83" pos="35760" len="43"/>
          <note pan="0" key="36" vol="83" pos="35760" len="21"/>
          <note pan="0" key="31" vol="80" pos="35784" len="21"/>
          <note pan="0" key="48" vol="86" pos="35808" len="43"/>
          <note pan="0" key="28" vol="86" pos="35808" len="21"/>
          <note pan="0" key="31" vol="80" pos="35832" len="21"/>
          <note pan="0" key="50" vol="83" pos="35856" len="43"/>
          <note pan="0" key="36" vol="83" pos="35856" len="21"/>
          <note pan="0" key="31" vol="80" pos="35880" len="21"/>
          <note pan="0" key="52" vol="89" pos="35904" len="43"/>
          <note pan="0" key="28" vol="89" pos="35904" len="21"/>
          <note pan="0" key="31" vol="80" pos="35928" len="21"/>
          <note pan="0" key="47" vol="83" pos="35952" len="43"/>
          <note pan="0" key="35" vol="83" pos="35952" len="21"/>
          <note pan="0" key="31" vol="80" pos="35976" len="21"/>
          <note pan="0" key="52" vol="86" pos="36000" len="43"/>
          <note pan="0" key="28" vol="86" pos="36000" len="21"/>
          <note pan="0" key="31" vol="80" pos="36024" len="21"/>
          <note pan="0" key="53" vol="83" pos="36048" len="43"/>
          <note pan="0" key="35" vol="83" pos="36048" len="21"/>
          <note pan="0" key="31" vol="80" pos="36072" len="21"/>
          <note pan="0" key="55" vol="89" pos="36096" len="43"/>
          <note pan="0" key="24" vol="89" pos="36096" len="21"/>
          <note pan="0" key="31" vol="80" pos="36120" len="21"/>
          <note pan="0" key="50" vol="83" pos="36144" len="43"/>
          <note pan="0" key="36" vol="83" pos="36144" len="21"/>
          <note pan="0" key="31" vol="80" pos="36168" len="21"/>
          <note pan="0" key="55" vol="86" pos="36192" len="43"/>
          <note pan="0" key="28" vol="86" pos="36192" len="21"/>
          <note pan="0" key="31" vol="80" pos="36216" len="21"/>
          <note pan="0" key="53" vol="83" pos="36240" len="43"/>
          <note pan="0" key="36" vol="83" pos="36240" len="21"/>
          <note pan="0" key="31" vol="80" pos="36264" len="21"/>
          <note pan="0" key="52" vol="89" pos="36288" len="64"/>
          <note pan="0" key="26" vol="89" pos="36288" len="21"/>
          <note pan="0" key="33" vol="80" pos="36312" len="21"/>
          <note pan="0" key="36" vol="83" pos="36336" len="21"/>
          <note pan="0" key="50" vol="80" pos="36360" len="21"/>
          <note pan="0" key="33" vol="80" pos="36360" len="21"/>
          <note pan="0" key="48" vol="86" pos="36384" len="43"/>
          <note pan="0" key="31" vol="86" pos="36384" len="43"/>
          <note pan="0" key="24" vol="86" pos="36384" len="43"/>
          <note pan="0" key="40" vol="86" pos="36384" len="43"/>
          <note pan="0" key="48" vol="109" pos="36432" len="43"/>
          <note pan="0" key="52" vol="117" pos="36480" len="64"/>
          <note pan="0" key="36" vol="117" pos="36480" len="64"/>
          <note pan="0" key="53" vol="105" pos="36552" len="21"/>
          <note pan="0" key="41" vol="105" pos="36552" len="21"/>
          <note pan="0" key="55" vol="113" pos="36576" len="43"/>
          <note pan="0" key="36" vol="113" pos="36576" len="43"/>
          <note pan="0" key="52" vol="109" pos="36624" len="43"/>
          <note pan="0" key="36" vol="109" pos="36624" len="43"/>
          <note pan="0" key="53" vol="117" pos="36672" len="43"/>
          <note pan="0" key="41" vol="117" pos="36672" len="43"/>
          <note pan="0" key="55" vol="109" pos="36720" len="43"/>
          <note pan="0" key="40" vol="109" pos="36720" len="43"/>
          <note pan="0" key="57" vol="113" pos="36768" len="86"/>
          <note pan="0" key="38" vol="113" pos="36768" len="86"/>
          <note pan="0" key="57" vol="117" pos="36864" len="64"/>
          <note pan="0" key="38" vol="117" pos="36864" len="64"/>
          <note pan="0" key="55" vol="105" pos="36936" len="21"/>
          <note pan="0" key="40" vol="105" pos="36936" len="21"/>
          <note pan="0" key="53" vol="113" pos="36960" len="43"/>
          <note pan="0" key="41" vol="113" pos="36960" len="43"/>
          <note pan="0" key="52" vol="109" pos="37008" len="43"/>
          <note pan="0" key="36" vol="109" pos="37008" len="43"/>
          <note pan="0" key="53" vol="117" pos="37056" len="43"/>
          <note pan="0" key="41" vol="117" pos="37056" len="43"/>
          <note pan="0" key="57" vol="109" pos="37104" len="43"/>
          <note pan="0" key="38" vol="109" pos="37104" len="43"/>
          <note pan="0" key="55" vol="113" pos="37152" len="86"/>
          <note pan="0" key="36" vol="113" pos="37152" len="86"/>
          <note pan="0" key="52" vol="117" pos="37248" len="64"/>
          <note pan="0" key="43" vol="117" pos="37248" len="64"/>
          <note pan="0" key="36" vol="117" pos="37248" len="64"/>
          <note pan="0" key="53" vol="105" pos="37320" len="21"/>
          <note pan="0" key="41" vol="105" pos="37320" len="21"/>
          <note pan="0" key="45" vol="105" pos="37320" len="21"/>
          <note pan="0" key="55" vol="113" pos="37344" len="43"/>
          <note pan="0" key="36" vol="113" pos="37344" len="43"/>
          <note pan="0" key="43" vol="113" pos="37344" len="43"/>
          <note pan="0" key="52" vol="109" pos="37392" len="43"/>
          <note pan="0" key="36" vol="109" pos="37392" len="43"/>
          <note pan="0" key="43" vol="109" pos="37392" len="43"/>
          <note pan="0" key="53" vol="117" pos="37440" len="43"/>
          <note pan="0" key="41" vol="117" pos="37440" len="43"/>
          <note pan="0" key="45" vol="117" pos="37440" len="43"/>
          <note pan="0" key="55" vol="109" pos="37488" len="43"/>
          <note pan="0" key="40" vol="109" pos="37488" len="43"/>
          <note pan="0" key="47" vol="109" pos="37488" len="43"/>
          <note pan="0" key="57" vol="113" pos="37536" len="86"/>
          <note pan="0" key="38" vol="113" pos="37536" len="86"/>
          <note pan="0" key="50" vol="113" pos="37536" len="86"/>
          <note pan="0" key="57" vol="117" pos="37632" len="64"/>
          <note pan="0" key="38" vol="117" pos="37632" len="64"/>
          <note pan="0" key="41" vol="117" pos="37632" len="64"/>
          <note pan="0" key="55" vol="105" pos="37704" len="21"/>
          <note pan="0" key="40" vol="105" pos="37704" len="21"/>
          <note pan="0" key="43" vol="105" pos="37704" len="21"/>
          <note pan="0" key="53" vol="113" pos="37728" len="43"/>
          <note pan="0" key="41" vol="113" pos="37728" len="43"/>
          <note pan="0" key="45" vol="113" pos="37728" len="43"/>
          <note pan="0" key="52" vol="109" pos="37776" len="43"/>
          <note pan="0" key="36" vol="109" pos="37776" len="43"/>
          <note pan="0" key="43" vol="109" pos="37776" len="43"/>
          <note pan="0" key="53" vol="117" pos="37824" len="43"/>
          <note pan="0" key="43" vol="117" pos="37824" len="43"/>
          <note pan="0" key="47" vol="117" pos="37824" len="43"/>
          <note pan="0" key="47" vol="109" pos="37872" len="43"/>
          <note pan="0" key="31" vol="109" pos="37872" len="43"/>
          <note pan="0" key="41" vol="109" pos="37872" len="43"/>
          <note pan="0" key="48" vol="113" pos="37920" len="86"/>
          <note pan="0" key="36" vol="113" pos="37920" len="86"/>
          <note pan="0" key="40" vol="113" pos="37920" len="86"/>
          <note pan="0" key="52" vol="117" pos="38016" len="64"/>
          <note pan="0" key="48" vol="117" pos="38016" len="64"/>
          <note pan="0" key="36" vol="117" pos="38016" len="64"/>
          <note pan="0" key="43" vol="117" pos="38016" len="64"/>
          <note pan="0" key="48" vol="105" pos="38088" len="21"/>
          <note pan="0" key="53" vol="105" pos="38088" len="21"/>
          <note pan="0" key="41" vol="105" pos="38088" len="21"/>
          <note pan="0" key="45" vol="105" pos="38088" len="21"/>
          <note pan="0" key="52" vol="113" pos="38112" len="43"/>
          <note pan="0" key="55" vol="113" pos="38112" len="43"/>
          <note pan="0" key="36" vol="113" pos="38112" len="43"/>
          <note pan="0" key="43" vol="113" pos="38112" len="43"/>
          <note pan="0" key="48" vol="109" pos="38160" len="43"/>
          <note pan="0" key="52" vol="109" pos="38160" len="43"/>
          <note pan="0" key="36" vol="109" pos="38160" len="43"/>
          <note pan="0" key="43" vol="109" pos="38160" len="43"/>
          <note pan="0" key="50" vol="117" pos="38208" len="43"/>
          <note pan="0" key="53" vol="117" pos="38208" len="43"/>
          <note pan="0" key="41" vol="117" pos="38208" len="43"/>
          <note pan="0" key="45" vol="117" pos="38208" len="43"/>
          <note pan="0" key="52" vol="109" pos="38256" len="43"/>
          <note pan="0" key="55" vol="109" pos="38256" len="43"/>
          <note pan="0" key="47" vol="109" pos="38256" len="43"/>
          <note pan="0" key="40" vol="109" pos="38256" len="43"/>
          <note pan="0" key="53" vol="113" pos="38304" len="86"/>
          <note pan="0" key="57" vol="113" pos="38304" len="86"/>
          <note pan="0" key="38" vol="113" pos="38304" len="86"/>
          <note pan="0" key="50" vol="113" pos="38304" len="86"/>
          <note pan="0" key="57" vol="117" pos="38400" len="64"/>
          <note pan="0" key="53" vol="117" pos="38400" len="64"/>
          <note pan="0" key="41" vol="117" pos="38400" len="64"/>
          <note pan="0" key="38" vol="117" pos="38400" len="64"/>
          <note pan="0" key="52" vol="105" pos="38472" len="21"/>
          <note pan="0" key="55" vol="105" pos="38472" len="21"/>
          <note pan="0" key="40" vol="105" pos="38472" len="21"/>
          <note pan="0" key="43" vol="105" pos="38472" len="21"/>
          <note pan="0" key="48" vol="113" pos="38496" len="43"/>
          <note pan="0" key="53" vol="113" pos="38496" len="43"/>
          <note pan="0" key="45" vol="113" pos="38496" len="43"/>
          <note pan="0" key="41" vol="113" pos="38496" len="43"/>
          <note pan="0" key="48" vol="109" pos="38544" len="43"/>
          <note pan="0" key="52" vol="109" pos="38544" len="43"/>
          <note pan="0" key="36" vol="109" pos="38544" len="43"/>
          <note pan="0" key="43" vol="109" pos="38544" len="43"/>
          <note pan="0" key="48" vol="117" pos="38592" len="43"/>
          <note pan="0" key="53" vol="117" pos="38592" len="43"/>
          <note pan="0" key="41" vol="117" pos="38592" len="43"/>
          <note pan="0" key="45" vol="117" pos="38592" len="43"/>
          <note pan="0" key="50" vol="109" pos="38640" len="43"/>
          <note pan="0" key="57" vol="109" pos="38640" len="43"/>
          <note pan="0" key="38" vol="109" pos="38640" len="43"/>
          <note pan="0" key="43" vol="109" pos="38640" len="43"/>
          <note pan="0" key="52" vol="113" pos="38688" len="86"/>
          <note pan="0" key="55" vol="113" pos="38688" len="86"/>
          <note pan="0" key="36" vol="113" pos="38688" len="86"/>
          <note pan="0" key="48" vol="113" pos="38688" len="86"/>
          <note pan="0" key="48" vol="117" pos="38784" len="64"/>
          <note pan="0" key="52" vol="117" pos="38784" len="64"/>
          <note pan="0" key="36" vol="117" pos="38784" len="64"/>
          <note pan="0" key="43" vol="117" pos="38784" len="64"/>
          <note pan="0" key="48" vol="105" pos="38856" len="21"/>
          <note pan="0" key="53" vol="105" pos="38856" len="21"/>
          <note pan="0" key="41" vol="105" pos="38856" len="21"/>
          <note pan="0" key="45" vol="105" pos="38856" len="21"/>
          <note pan="0" key="52" vol="113" pos="38880" len="43"/>
          <note pan="0" key="55" vol="113" pos="38880" len="43"/>
          <note pan="0" key="43" vol="113" pos="38880" len="43"/>
          <note pan="0" key="36" vol="113" pos="38880" len="43"/>
          <note pan="0" key="48" vol="109" pos="38928" len="43"/>
          <note pan="0" key="52" vol="109" pos="38928" len="43"/>
          <note pan="0" key="36" vol="109" pos="38928" len="43"/>
          <note pan="0" key="43" vol="109" pos="38928" len="43"/>
          <note pan="0" key="50" vol="117" pos="38976" len="43"/>
          <note pan="0" key="53" vol="117" pos="38976" len="43"/>
          <note pan="0" key="41" vol="117" pos="38976" len="43"/>
          <note pan="0" key="45" vol="117" pos="38976" len="43"/>
          <note pan="0" key="52" vol="109" pos="39024" len="43"/>
          <note pan="0" key="55" vol="109" pos="39024" len="43"/>
          <note pan="0" key="40" vol="109" pos="39024" len="43"/>
          <note pan="0" key="47" vol="109" pos="39024" len="43"/>
          <note pan="0" key="53" vol="113" pos="39072" len="86"/>
          <note pan="0" key="57" vol="113" pos="39072" len="86"/>
          <note pan="0" key="50" vol="113" pos="39072" len="86"/>
          <note pan="0" key="38" vol="113" pos="39072" len="86"/>
          <note pan="0" key="53" vol="117" pos="39168" len="64"/>
          <note pan="0" key="57" vol="117" pos="39168" len="64"/>
          <note pan="0" key="38" vol="117" pos="39168" len="64"/>
          <note pan="0" key="41" vol="117" pos="39168" len="64"/>
          <note pan="0" key="52" vol="105" pos="39240" len="21"/>
          <note pan="0" key="55" vol="105" pos="39240" len="21"/>
          <note pan="0" key="40" vol="105" pos="39240" len="21"/>
          <note pan="0" key="43" vol="105" pos="39240" len="21"/>
          <note pan="0" key="48" vol="113" pos="39264" len="43"/>
          <note pan="0" key="53" vol="113" pos="39264" len="43"/>
          <note pan="0" key="41" vol="113" pos="39264" len="43"/>
          <note pan="0" key="45" vol="113" pos="39264" len="43"/>
          <note pan="0" key="48" vol="109" pos="39312" len="43"/>
          <note pan="0" key="52" vol="109" pos="39312" len="43"/>
          <note pan="0" key="36" vol="109" pos="39312" len="43"/>
          <note pan="0" key="43" vol="109" pos="39312" len="43"/>
          <note pan="0" key="50" vol="117" pos="39360" len="43"/>
          <note pan="0" key="53" vol="117" pos="39360" len="43"/>
          <note pan="0" key="43" vol="117" pos="39360" len="43"/>
          <note pan="0" key="47" vol="117" pos="39360" len="43"/>
          <note pan="0" key="43" vol="109" pos="39408" len="43"/>
          <note pan="0" key="47" vol="109" pos="39408" len="43"/>
          <note pan="0" key="31" vol="109" pos="39408" len="43"/>
          <note pan="0" key="41" vol="109" pos="39408" len="43"/>
          <note pan="0" key="43" vol="113" pos="39456" len="86"/>
          <note pan="0" key="48" vol="113" pos="39456" len="86"/>
          <note pan="0" key="36" vol="113" pos="39456" len="86"/>
          <note pan="0" key="40" vol="113" pos="39456" len="86"/>
          <note pan="0" key="48" vol="89" pos="39552" len="21"/>
          <note pan="0" key="36" vol="89" pos="39552" len="43"/>
          <note pan="0" key="50" vol="80" pos="39576" len="21"/>
          <note pan="0" key="52" vol="83" pos="39600" len="43"/>
          <note pan="0" key="40" vol="83" pos="39600" len="21"/>
          <note pan="0" key="36" vol="80" pos="39624" len="21"/>
          <note pan="0" key="52" vol="86" pos="39648" len="21"/>
          <note pan="0" key="40" vol="86" pos="39648" len="43"/>
          <note pan="0" key="50" vol="80" pos="39672" len="21"/>
          <note pan="0" key="48" vol="83" pos="39696" len="43"/>
          <note pan="0" key="36" vol="83" pos="39696" len="21"/>
          <note pan="0" key="40" vol="80" pos="39720" len="21"/>
          <note pan="0" key="52" vol="89" pos="39744" len="21"/>
          <note pan="0" key="31" vol="89" pos="39744" len="43"/>
          <note pan="0" key="53" vol="80" pos="39768" len="21"/>
          <note pan="0" key="55" vol="83" pos="39792" len="43"/>
          <note pan="0" key="38" vol="83" pos="39792" len="21"/>
          <note pan="0" key="31" vol="80" pos="39816" len="21"/>
          <note pan="0" key="55" vol="86" pos="39840" len="21"/>
          <note pan="0" key="38" vol="86" pos="39840" len="43"/>
          <note pan="0" key="53" vol="80" pos="39864" len="21"/>
          <note pan="0" key="52" vol="83" pos="39888" len="43"/>
          <note pan="0" key="31" vol="83" pos="39888" len="21"/>
          <note pan="0" key="38" vol="80" pos="39912" len="21"/>
          <note pan="0" key="48" vol="89" pos="39936" len="21"/>
          <note pan="0" key="36" vol="89" pos="39936" len="43"/>
          <note pan="0" key="50" vol="80" pos="39960" len="21"/>
          <note pan="0" key="52" vol="83" pos="39984" len="43"/>
          <note pan="0" key="40" vol="83" pos="39984" len="21"/>
          <note pan="0" key="36" vol="80" pos="40008" len="21"/>
          <note pan="0" key="52" vol="86" pos="40032" len="21"/>
          <note pan="0" key="40" vol="86" pos="40032" len="43"/>
          <note pan="0" key="50" vol="80" pos="40056" len="21"/>
          <note pan="0" key="48" vol="83" pos="40080" len="43"/>
          <note pan="0" key="36" vol="83" pos="40080" len="21"/>
          <note pan="0" key="40" vol="80" pos="40104" len="21"/>
          <note pan="0" key="52" vol="89" pos="40128" len="21"/>
          <note pan="0" key="43" vol="89" pos="40128" len="21"/>
          <note pan="0" key="53" vol="80" pos="40152" len="21"/>
          <note pan="0" key="38" vol="80" pos="40152" len="21"/>
          <note pan="0" key="55" vol="83" pos="40176" len="21"/>
          <note pan="0" key="35" vol="83" pos="40176" len="21"/>
          <note pan="0" key="47" vol="80" pos="40200" len="21"/>
          <note pan="0" key="31" vol="80" pos="40200" len="21"/>
          <note pan="0" key="48" vol="86" pos="40224" len="86"/>
          <note pan="0" key="36" vol="86" pos="40224" len="86"/>
          <note pan="0" key="48" vol="89" pos="40320" len="21"/>
          <note pan="0" key="36" vol="89" pos="40320" len="43"/>
          <note pan="0" key="50" vol="80" pos="40344" len="21"/>
          <note pan="0" key="52" vol="83" pos="40368" len="43"/>
          <note pan="0" key="40" vol="83" pos="40368" len="21"/>
          <note pan="0" key="36" vol="80" pos="40392" len="21"/>
          <note pan="0" key="52" vol="86" pos="40416" len="21"/>
          <note pan="0" key="40" vol="86" pos="40416" len="43"/>
          <note pan="0" key="50" vol="80" pos="40440" len="21"/>
          <note pan="0" key="48" vol="83" pos="40464" len="43"/>
          <note pan="0" key="36" vol="83" pos="40464" len="21"/>
          <note pan="0" key="40" vol="80" pos="40488" len="21"/>
          <note pan="0" key="52" vol="89" pos="40512" len="21"/>
          <note pan="0" key="31" vol="89" pos="40512" len="43"/>
          <note pan="0" key="53" vol="80" pos="40536" len="21"/>
          <note pan="0" key="55" vol="83" pos="40560" len="43"/>
          <note pan="0" key="38" vol="83" pos="40560" len="21"/>
          <note pan="0" key="31" vol="80" pos="40584" len="21"/>
          <note pan="0" key="55" vol="86" pos="40608" len="21"/>
          <note pan="0" key="38" vol="86" pos="40608" len="43"/>
          <note pan="0" key="53" vol="80" pos="40632" len="21"/>
          <note pan="0" key="52" vol="83" pos="40656" len="43"/>
          <note pan="0" key="31" vol="83" pos="40656" len="21"/>
          <note pan="0" key="38" vol="80" pos="40680" len="21"/>
          <note pan="0" key="48" vol="89" pos="40704" len="21"/>
          <note pan="0" key="36" vol="89" pos="40704" len="43"/>
          <note pan="0" key="50" vol="80" pos="40728" len="21"/>
          <note pan="0" key="52" vol="83" pos="40752" len="43"/>
          <note pan="0" key="40" vol="83" pos="40752" len="21"/>
          <note pan="0" key="36" vol="80" pos="40776" len="21"/>
          <note pan="0" key="52" vol="86" pos="40800" len="21"/>
          <note pan="0" key="40" vol="86" pos="40800" len="43"/>
          <note pan="0" key="50" vol="80" pos="40824" len="21"/>
          <note pan="0" key="48" vol="83" pos="40848" len="43"/>
          <note pan="0" key="36" vol="83" pos="40848" len="21"/>
          <note pan="0" key="40" vol="80" pos="40872" len="21"/>
          <note pan="0" key="52" vol="89" pos="40896" len="21"/>
          <note pan="0" key="43" vol="89" pos="40896" len="21"/>
          <note pan="0" key="53" vol="80" pos="40920" len="21"/>
          <note pan="0" key="38" vol="80" pos="40920" len="21"/>
          <note pan="0" key="55" vol="83" pos="40944" len="21"/>
          <note pan="0" key="35" vol="83" pos="40944" len="21"/>
          <note pan="0" key="47" vol="80" pos="40968" len="21"/>
          <note pan="0" key="31" vol="80" pos="40968" len="21"/>
          <note pan="0" key="48" vol="86" pos="40992" len="86"/>
          <note pan="0" key="36" vol="86" pos="40992" len="86"/>
          <note pan="0" key="48" vol="67" pos="41088" len="43"/>
          <note pan="0" key="24" vol="67" pos="41088" len="21"/>
          <note pan="0" key="31" vol="60" pos="41112" len="21"/>
          <note pan="0" key="43" vol="62" pos="41136" len="43"/>
          <note pan="0" key="36" vol="62" pos="41136" len="21"/>
          <note pan="0" key="31" vol="60" pos="41160" len="21"/>
          <note pan="0" key="48" vol="64" pos="41184" len="43"/>
          <note pan="0" key="28" vol="64" pos="41184" len="21"/>
          <note pan="0" key="31" vol="60" pos="41208" len="21"/>
          <note pan="0" key="50" vol="62" pos="41232" len="43"/>
          <note pan="0" key="36" vol="62" pos="41232" len="21"/>
          <note pan="0" key="31" vol="60" pos="41256" len="21"/>
          <note pan="0" key="52" vol="67" pos="41280" len="43"/>
          <note pan="0" key="28" vol="67" pos="41280" len="21"/>
          <note pan="0" key="31" vol="60" pos="41304" len="21"/>
          <note pan="0" key="47" vol="62" pos="41328" len="43"/>
          <note pan="0" key="35" vol="62" pos="41328" len="21"/>
          <note pan="0" key="31" vol="60" pos="41352" len="21"/>
          <note pan="0" key="52" vol="64" pos="41376" len="43"/>
          <note pan="0" key="28" vol="64" pos="41376" len="21"/>
          <note pan="0" key="31" vol="60" pos="41400" len="21"/>
          <note pan="0" key="50" vol="62" pos="41424" len="43"/>
          <note pan="0" key="35" vol="62" pos="41424" len="21"/>
          <note pan="0" key="31" vol="60" pos="41448" len="21"/>
          <note pan="0" key="48" vol="67" pos="41472" len="43"/>
          <note pan="0" key="24" vol="67" pos="41472" len="21"/>
          <note pan="0" key="31" vol="60" pos="41496" len="21"/>
          <note pan="0" key="43" vol="62" pos="41520" len="43"/>
          <note pan="0" key="36" vol="62" pos="41520" len="21"/>
          <note pan="0" key="31" vol="60" pos="41544" len="21"/>
          <note pan="0" key="48" vol="64" pos="41568" len="43"/>
          <note pan="0" key="28" vol="64" pos="41568" len="21"/>
          <note pan="0" key="31" vol="60" pos="41592" len="21"/>
          <note pan="0" key="50" vol="62" pos="41616" len="43"/>
          <note pan="0" key="36" vol="62" pos="41616" len="21"/>
          <note pan="0" key="31" vol="60" pos="41640" len="21"/>
          <note pan="0" key="52" vol="67" pos="41664" len="64"/>
          <note pan="0" key="24" vol="67" pos="41664" len="21"/>
          <note pan="0" key="31" vol="60" pos="41688" len="21"/>
          <note pan="0" key="36" vol="62" pos="41712" len="21"/>
          <note pan="0" key="50" vol="60" pos="41736" len="21"/>
          <note pan="0" key="31" vol="60" pos="41736" len="21"/>
          <note pan="0" key="48" vol="64" pos="41760" len="86"/>
          <note pan="0" key="28" vol="64" pos="41760" len="21"/>
          <note pan="0" key="31" vol="60" pos="41784" len="21"/>
          <note pan="0" key="36" vol="62" pos="41808" len="21"/>
          <note pan="0" key="31" vol="60" pos="41832" len="21"/>
          <note pan="0" key="48" vol="67" pos="41856" len="43"/>
          <note pan="0" key="24" vol="67" pos="41856" len="21"/>
          <note pan="0" key="31" vol="61" pos="41880" len="21"/>
          <note pan="0" key="43" vol="65" pos="41904" len="43"/>
          <note pan="0" key="36" vol="65" pos="41904" len="21"/>
          <note pan="0" key="31" vol="64" pos="41928" len="21"/>
          <note pan="0" key="48" vol="71" pos="41952" len="43"/>
          <note pan="0" key="28" vol="71" pos="41952" len="21"/>
          <note pan="0" key="31" vol="68" pos="41976" len="21"/>
          <note pan="0" key="50" vol="71" pos="42000" len="43"/>
          <note pan="0" key="36" vol="71" pos="42000" len="21"/>
          <note pan="0" key="31" vol="71" pos="42024" len="21"/>
          <note pan="0" key="52" vol="80" pos="42048" len="43"/>
          <note pan="0" key="28" vol="80" pos="42048" len="21"/>
          <note pan="0" key="31" vol="74" pos="42072" len="21"/>
          <note pan="0" key="47" vol="79" pos="42096" len="43"/>
          <note pan="0" key="35" vol="79" pos="42096" len="21"/>
          <note pan="0" key="31" vol="77" pos="42120" len="21"/>
          <note pan="0" key="52" vol="85" pos="42144" len="43"/>
          <note pan="0" key="28" vol="85" pos="42144" len="21"/>
          <note pan="0" key="31" vol="80" pos="42168" len="21"/>
          <note pan="0" key="53" vol="85" pos="42192" len="43"/>
          <note pan="0" key="35" vol="85" pos="42192" len="21"/>
          <note pan="0" key="31" vol="84" pos="42216" len="21"/>
          <note pan="0" key="55" vol="95" pos="42240" len="43"/>
          <note pan="0" key="19" vol="95" pos="42240" len="21"/>
          <note pan="0" key="31" vol="87" pos="42264" len="21"/>
          <note pan="0" key="50" vol="91" pos="42288" len="43"/>
          <note pan="0" key="35" vol="91" pos="42288" len="21"/>
          <note pan="0" key="31" vol="90" pos="42312" len="21"/>
          <note pan="0" key="55" vol="99" pos="42336" len="43"/>
          <note pan="0" key="29" vol="99" pos="42336" len="21"/>
          <note pan="0" key="31" vol="93" pos="42360" len="21"/>
          <note pan="0" key="53" vol="98" pos="42384" len="43"/>
          <note pan="0" key="35" vol="98" pos="42384" len="21"/>
          <note pan="0" key="31" vol="96" pos="42408" len="21"/>
          <note pan="0" key="52" vol="109" pos="42432" len="64"/>
          <note pan="0" key="24" vol="109" pos="42432" len="21"/>
          <note pan="0" key="31" vol="100" pos="42456" len="21"/>
          <note pan="0" key="36" vol="105" pos="42480" len="21"/>
          <note pan="0" key="50" vol="103" pos="42504" len="21"/>
          <note pan="0" key="31" vol="103" pos="42504" len="21"/>
          <note pan="0" key="48" vol="113" pos="42528" len="86"/>
          <note pan="0" key="24" vol="113" pos="42528" len="86"/>
          <note pan="0" key="28" vol="113" pos="42528" len="86"/>
          <note pan="0" key="31" vol="113" pos="42528" len="86"/>
          <note pan="0" key="48" vol="117" pos="42624" len="43"/>
          <note pan="0" key="24" vol="117" pos="42624" len="21"/>
          <note pan="0" key="31" vol="105" pos="42648" len="21"/>
          <note pan="0" key="43" vol="110" pos="42672" len="43"/>
          <note pan="0" key="36" vol="110" pos="42672" len="21"/>
          <note pan="0" key="31" vol="106" pos="42696" len="21"/>
          <note pan="0" key="48" vol="115" pos="42720" len="43"/>
          <note pan="0" key="28" vol="115" pos="42720" len="21"/>
          <note pan="0" key="31" vol="108" pos="42744" len="21"/>
          <note pan="0" key="50" vol="112" pos="42768" len="43"/>
          <note pan="0" key="36" vol="112" pos="42768" len="21"/>
          <note pan="0" key="31" vol="109" pos="42792" len="21"/>
          <note pan="0" key="52" vol="123" pos="42816" len="21"/>
          <note pan="0" key="24" vol="123" pos="42816" len="21"/>
          <note pan="0" key="50" vol="110" pos="42840" len="21"/>
          <note pan="0" key="31" vol="110" pos="42840" len="21"/>
          <note pan="0" key="48" vol="115" pos="42864" len="21"/>
          <note pan="0" key="36" vol="115" pos="42864" len="21"/>
          <note pan="0" key="47" vol="111" pos="42888" len="21"/>
          <note pan="0" key="31" vol="111" pos="42888" len="21"/>
          <note pan="0" key="48" vol="120" pos="42912" len="43"/>
          <note pan="0" key="28" vol="120" pos="42912" len="21"/>
          <note pan="0" key="31" vol="113" pos="42936" len="21"/>
          <note pan="0" key="43" vol="117" pos="42960" len="43"/>
          <note pan="0" key="36" vol="117" pos="42960" len="21"/>
          <note pan="0" key="31" vol="114" pos="42984" len="21"/>
          <note pan="0" key="48" vol="127" pos="43008" len="172"/>
          <note pan="0" key="24" vol="127" pos="43008" len="21"/>
          <note pan="0" key="31" vol="115" pos="43032" len="21"/>
          <note pan="0" key="36" vol="119" pos="43056" len="21"/>
          <note pan="0" key="31" vol="115" pos="43080" len="21"/>
          <note pan="0" key="24" vol="124" pos="43104" len="86"/>
          <note pan="0" key="40" vol="124" pos="43104" len="86"/>
          <note pan="0" key="31" vol="124" pos="43104" len="86"/>
        </pattern>
      </track>
    </trackcontainer>
    <track muted="0" type="6" name="Automation track">
      <automationtrack/>
      <automationpattern name="Numerator" pos="0" len="192">
        <time value="4" pos="0"/>
        <object id="3352920"/>
      </automationpattern>
      <automationpattern name="Denominator" pos="0" len="192">
        <time value="4" pos="0"/>
        <object id="233481"/>
      </automationpattern>
      <automationpattern name="Tempo" pos="0" len="43200">
        <time value="150" pos="0"/>
        <time value="150" pos="6144"/>
        <time value="150.55" pos="6192"/>
        <time value="151.05" pos="6240"/>
        <time value="151.6" pos="6288"/>
        <time value="152.15" pos="6336"/>
        <time value="152.7" pos="6384"/>
        <time value="153.2" pos="6432"/>
        <time value="153.75" pos="6480"/>
        <time value="154.3" pos="6528"/>
        <time value="154.8" pos="6576"/>
        <time value="155.35" pos="6624"/>
        <time value="155.9" pos="6672"/>
        <time value="156.45" pos="6720"/>
        <time value="156.95" pos="6768"/>
        <time value="157.5" pos="6816"/>
        <time value="158.05" pos="6864"/>
        <time value="158.55" pos="6912"/>
        <time value="159.1" pos="6960"/>
        <time value="159.65" pos="7008"/>
        <time value="160.2" pos="7056"/>
        <time value="160.7" pos="7104"/>
        <time value="161.25" pos="7152"/>
        <time value="161.8" pos="7200"/>
        <time value="162.3" pos="7248"/>
        <time value="162.85" pos="7296"/>
        <time value="163.4" pos="7344"/>
        <time value="163.95" pos="7392"/>
        <time value="164.45" pos="7440"/>
        <time value="165" pos="7488"/>
        <time value="165.55" pos="7536"/>
        <time value="166.05" pos="7584"/>
        <time value="166.6" pos="7632"/>
        <time value="167.15" pos="7680"/>
        <time value="167.7" pos="7728"/>
        <time value="168.2" pos="7776"/>
        <time value="168.75" pos="7824"/>
        <time value="169.3" pos="7872"/>
        <time value="169.8" pos="7920"/>
        <time value="170.35" pos="7968"/>
        <time value="170.9" pos="8016"/>
        <time value="171.45" pos="8064"/>
        <time value="171.95" pos="8112"/>
        <time value="172.5" pos="8160"/>
        <time value="173.05" pos="8208"/>
        <time value="173.55" pos="8256"/>
        <time value="174.1" pos="8304"/>
        <time value="174.65" pos="8352"/>
        <time value="175.2" pos="8400"/>
        <time value="175.7" pos="8448"/>
        <time value="176.25" pos="8496"/>
        <time value="176.8" pos="8544"/>
        <time value="177.3" pos="8592"/>
        <time value="177.85" pos="8640"/>
        <time value="178.4" pos="8688"/>
        <time value="178.95" pos="8736"/>
        <time value="179.451" pos="8784"/>
        <time value="180" pos="8832"/>
        <time value="172.5" pos="8880"/>
        <time value="165" pos="8928"/>
        <time value="157.5" pos="8976"/>
        <time value="150" pos="9024"/>
        <time value="142.5" pos="9072"/>
        <time value="135" pos="9120"/>
        <time value="150" pos="9216"/>
        <time value="150" pos="11520"/>
        <time value="147.85" pos="11568"/>
        <time value="145.7" pos="11616"/>
        <time value="143.55" pos="11664"/>
        <time value="141.45" pos="11712"/>
        <time value="139.3" pos="11760"/>
        <time value="137.15" pos="11808"/>
        <time value="135" pos="11856"/>
        <time value="132.85" pos="11904"/>
        <time value="130.7" pos="11952"/>
        <time value="128.55" pos="12000"/>
        <time value="126.45" pos="12048"/>
        <time value="124.3" pos="12096"/>
        <time value="122.15" pos="12144"/>
        <time value="120" pos="12192"/>
        <time value="150" pos="12288"/>
        <time value="150" pos="18432"/>
        <time value="150.55" pos="18480"/>
        <time value="151.05" pos="18528"/>
        <time value="151.6" pos="18576"/>
        <time value="152.15" pos="18624"/>
        <time value="152.7" pos="18672"/>
        <time value="153.2" pos="18720"/>
        <time value="153.75" pos="18768"/>
        <time value="154.3" pos="18816"/>
        <time value="154.8" pos="18864"/>
        <time value="155.35" pos="18912"/>
        <time value="155.9" pos="18960"/>
        <time value="156.45" pos="19008"/>
        <time value="156.95" pos="19056"/>
        <time value="157.5" pos="19104"/>
        <time value="158.05" pos="19152"/>
        <time value="158.55" pos="19200"/>
        <time value="159.1" pos="19248"/>
        <time value="159.65" pos="19296"/>
        <time value="160.2" pos="19344"/>
        <time value="160.7" pos="19392"/>
        <time value="161.25" pos="19440"/>
        <time value="161.8" pos="19488"/>
        <time value="162.3" pos="19536"/>
        <time value="162.85" pos="19584"/>
        <time value="163.4" pos="19632"/>
        <time value="163.95" pos="19680"/>
        <time value="164.45" pos="19728"/>
        <time value="165" pos="19776"/>
        <time value="165.55" pos="19824"/>
        <time value="166.05" pos="19872"/>
        <time value="166.6" pos="19920"/>
        <time value="167.15" pos="19968"/>
        <time value="167.7" pos="20016"/>
        <time value="168.2" pos="20064"/>
        <time value="168.75" pos="20112"/>
        <time value="169.3" pos="20160"/>
        <time value="169.8" pos="20208"/>
        <time value="170.35" pos="20256"/>
        <time value="170.9" pos="20304"/>
        <time value="171.45" pos="20352"/>
        <time value="171.95" pos="20400"/>
        <time value="172.5" pos="20448"/>
        <time value="173.05" pos="20496"/>
        <time value="173.55" pos="20544"/>
        <time value="174.1" pos="20592"/>
        <time value="174.65" pos="20640"/>
        <time value="175.2" pos="20688"/>
        <time value="175.7" pos="20736"/>
        <time value="176.25" pos="20784"/>
        <time value="176.8" pos="20832"/>
        <time value="177.3" pos="20880"/>
        <time value="177.85" pos="20928"/>
        <time value="178.4" pos="20976"/>
        <time value="178.95" pos="21024"/>
        <time value="179.451" pos="21072"/>
        <time value="180" pos="21120"/>
        <time value="172.5" pos="21168"/>
        <time value="165" pos="21216"/>
        <time value="157.5" pos="21264"/>
        <time value="150" pos="21312"/>
        <time value="142.5" pos="21360"/>
        <time value="135" pos="21408"/>
        <time value="150" pos="21504"/>
        <time value="150" pos="23808"/>
        <time value="147.85" pos="23856"/>
        <time value="145.7" pos="23904"/>
        <time value="143.55" pos="23952"/>
        <time value="141.45" pos="24000"/>
        <time value="139.3" pos="24048"/>
        <time value="137.15" pos="24096"/>
        <time value="135" pos="24144"/>
        <time value="132.85" pos="24192"/>
        <time value="130.7" pos="24240"/>
        <time value="128.55" pos="24288"/>
        <time value="126.45" pos="24336"/>
        <time value="124.3" pos="24384"/>
        <time value="122.15" pos="24432"/>
        <time value="120" pos="24480"/>
        <time value="150" pos="24576"/>
        <time value="150" pos="29376"/>
        <time value="135" pos="29424"/>
        <time value="120" pos="29472"/>
        <time value="150" pos="29664"/>
        <time value="150" pos="30336"/>
        <time value="150" pos="36480"/>
        <time value="150.55" pos="36528"/>
        <time value="151.05" pos="36576"/>
        <time value="151.6" pos="36624"/>
        <time value="152.15" pos="36672"/>
        <time value="152.7" pos="36720"/>
        <time value="153.2" pos="36768"/>
        <time value="153.75" pos="36816"/>
        <time value="154.3" pos="36864"/>
        <time value="154.8" pos="36912"/>
        <time value="155.35" pos="36960"/>
        <time value="155.9" pos="37008"/>
        <time value="156.45" pos="37056"/>
        <time value="156.95" pos="37104"/>
        <time value="157.5" pos="37152"/>
        <time value="158.05" pos="37200"/>
        <time value="158.55" pos="37248"/>
        <time value="159.1" pos="37296"/>
        <time value="159.65" pos="37344"/>
        <time value="160.2" pos="37392"/>
        <time value="160.7" pos="37440"/>
        <time value="161.25" pos="37488"/>
        <time value="161.8" pos="37536"/>
        <time value="162.3" pos="37584"/>
        <time value="162.85" pos="37632"/>
        <time value="163.4" pos="37680"/>
        <time value="163.95" pos="37728"/>
        <time value="164.45" pos="37776"/>
        <time value="165" pos="37824"/>
        <time value="165.55" pos="37872"/>
        <time value="166.05" pos="37920"/>
        <time value="166.6" pos="37968"/>
        <time value="167.15" pos="38016"/>
        <time value="167.7" pos="38064"/>
        <time value="168.2" pos="38112"/>
        <time value="168.75" pos="38160"/>
        <time value="169.3" pos="38208"/>
        <time value="169.8" pos="38256"/>
        <time value="170.35" pos="38304"/>
        <time value="170.9" pos="38352"/>
        <time value="171.45" pos="38400"/>
        <time value="171.95" pos="38448"/>
        <time value="172.5" pos="38496"/>
        <time value="173.05" pos="38544"/>
        <time value="173.55" pos="38592"/>
        <time value="174.1" pos="38640"/>
        <time value="174.65" pos="38688"/>
        <time value="175.2" pos="38736"/>
        <time value="175.7" pos="38784"/>
        <time value="176.25" pos="38832"/>
        <time value="176.8" pos="38880"/>
        <time value="177.3" pos="38928"/>
        <time value="177.85" pos="38976"/>
        <time value="178.4" pos="39024"/>
        <time value="178.95" pos="39072"/>
        <time value="179.451" pos="39120"/>
        <time value="180" pos="39168"/>
        <time value="172.5" pos="39216"/>
        <time value="165" pos="39264"/>
        <time value="157.5" pos="39312"/>
        <time value="150" pos="39360"/>
        <time value="142.5" pos="39408"/>
        <time value="135" pos="39456"/>
        <time value="150" pos="39552"/>
        <time value="150" pos="41856"/>
        <time value="147.85" pos="41904"/>
        <time value="145.7" pos="41952"/>
        <time value="143.55" pos="42000"/>
        <time value="141.45" pos="42048"/>
        <time value="139.3" pos="42096"/>
        <time value="137.15" pos="42144"/>
        <time value="135" pos="42192"/>
        <time value="132.85" pos="42240"/>
        <time value="130.7" pos="42288"/>
        <time value="128.55" pos="42336"/>
        <time value="126.45" pos="42384"/>
        <time value="124.3" pos="42432"/>
        <time value="122.15" pos="42480"/>
        <time value="120" pos="42528"/>
        <time value="150" pos="42624"/>
        <time value="143.75" pos="42672"/>
        <time value="137.5" pos="42720"/>
        <time value="131.25" pos="42768"/>
        <time value="125" pos="42816"/>
        <time value="118.75" pos="42864"/>
        <time value="112.5" pos="42912"/>
        <time value="106.25" pos="42960"/>
        <time value="100" pos="43008"/>
        <object id="7763457"/>
      </automationpattern>
      <automationpattern name="Master volume" pos="0" len="192">
        <time value="100" pos="0"/>
        <object id="4652844"/>
      </automationpattern>
      <automationpattern name="Master pitch" pos="0" len="192">
        <time value="0" pos="0"/>
        <object id="3266267"/>
      </automationpattern>
    </track>
    <fxmixer width="865" x="5" y="310" maximized="0" height="278" visible="1" minimized="0">
      <fxchannel num="0" muted="0" volume="1" name="Master">
        <fxchain numofeffects="0" enabled="0"/>
      </fxchannel>
      <fxchannel num="1" muted="0" volume="1" name="FX 1">
        <fxchain numofeffects="0" enabled="0"/>
      </fxchannel>
      <fxchannel num="2" muted="0" volume="1" name="FX 2">
        <fxchain numofeffects="0" enabled="0"/>
      </fxchannel>
      <fxchannel num="3" muted="0" volume="1" name="FX 3">
        <fxchain numofeffects="0" enabled="0"/>
      </fxchannel>
      <fxchannel num="4" muted="0" volume="1" name="FX 4">
        <fxchain numofeffects="0" enabled="0"/>
      </fxchannel>
      <fxchannel num="5" muted="0" volume="1" name="FX 5">
        <fxchain numofeffects="0" enabled="0"/>
      </fxchannel>
      <fxchannel num="6" muted="0" volume="1" name="FX 6">
        <fxchain numofeffects="0" enabled="0"/>
      </fxchannel>
      <fxchannel num="7" muted="0" volume="1" name="FX 7">
        <fxchain numofeffects="0" enabled="0"/>
      </fxchannel>
      <fxchannel num="8" muted="0" volume="1" name="FX 8">
        <fxchain numofeffects="0" enabled="0"/>
      </fxchannel>
      <fxchannel num="9" muted="0" volume="1" name="FX 9">
        <fxchain numofeffects="0" enabled="0"/>
      </fxchannel>
      <fxchannel num="10" muted="0" volume="1" name="FX 10">
        <fxchain numofeffects="0" enabled="0"/>
      </fxchannel>
      <fxchannel num="11" muted="0" volume="1" name="FX 11">
        <fxchain numofeffects="0" enabled="0"/>
      </fxchannel>
      <fxchannel num="12" muted="0" volume="1" name="FX 12">
        <fxchain numofeffects="0" enabled="0"/>
      </fxchannel>
      <fxchannel num="13" muted="0" volume="1" name="FX 13">
        <fxchain numofeffects="0" enabled="0"/>
      </fxchannel>
      <fxchannel num="14" muted="0" volume="1" name="FX 14">
        <fxchain numofeffects="0" enabled="0"/>
      </fxchannel>
      <fxchannel num="15" muted="0" volume="1" name="FX 15">
        <fxchain numofeffects="0" enabled="0"/>
      </fxchannel>
      <fxchannel num="16" muted="0" volume="1" name="FX 16">
        <fxchain numofeffects="0" enabled="0"/>
      </fxchannel>
      <fxchannel num="17" muted="0" volume="1" name="FX 17">
        <fxchain numofeffects="0" enabled="0"/>
      </fxchannel>
      <fxchannel num="18" muted="0" volume="1" name="FX 18">
        <fxchain numofeffects="0" enabled="0"/>
      </fxchannel>
      <fxchannel num="19" muted="0" volume="1" name="FX 19">
        <fxchain numofeffects="0" enabled="0"/>
      </fxchannel>
      <fxchannel num="20" muted="0" volume="1" name="FX 20">
        <fxchain numofeffects="0" enabled="0"/>
      </fxchannel>
      <fxchannel num="21" muted="0" volume="1" name="FX 21">
        <fxchain numofeffects="0" enabled="0"/>
      </fxchannel>
      <fxchannel num="22" muted="0" volume="1" name="FX 22">
        <fxchain numofeffects="0" enabled="0"/>
      </fxchannel>
      <fxchannel num="23" muted="0" volume="1" name="FX 23">
        <fxchain numofeffects="0" enabled="0"/>
      </fxchannel>
      <fxchannel num="24" muted="0" volume="1" name="FX 24">
        <fxchain numofeffects="0" enabled="0"/>
      </fxchannel>
      <fxchannel num="25" muted="0" volume="1" name="FX 25">
        <fxchain numofeffects="0" enabled="0"/>
      </fxchannel>
      <fxchannel num="26" muted="0" volume="1" name="FX 26">
        <fxchain numofeffects="0" enabled="0"/>
      </fxchannel>
      <fxchannel num="27" muted="0" volume="1" name="FX 27">
        <fxchain numofeffects="0" enabled="0"/>
      </fxchannel>
      <fxchannel num="28" muted="0" volume="1" name="FX 28">
        <fxchain numofeffects="0" enabled="0"/>
      </fxchannel>
      <fxchannel num="29" muted="0" volume="1" name="FX 29">
        <fxchain numofeffects="0" enabled="0"/>
      </fxchannel>
      <fxchannel num="30" muted="0" volume="1" name="FX 30">
        <fxchain numofeffects="0" enabled="0"/>
      </fxchannel>
      <fxchannel num="31" muted="0" volume="1" name="FX 31">
        <fxchain numofeffects="0" enabled="0"/>
      </fxchannel>
      <fxchannel num="32" muted="0" volume="1" name="FX 32">
        <fxchain numofeffects="0" enabled="0"/>
      </fxchannel>
      <fxchannel num="33" muted="0" volume="1" name="FX 33">
        <fxchain numofeffects="0" enabled="0"/>
      </fxchannel>
      <fxchannel num="34" muted="0" volume="1" name="FX 34">
        <fxchain numofeffects="0" enabled="0"/>
      </fxchannel>
      <fxchannel num="35" muted="0" volume="1" name="FX 35">
        <fxchain numofeffects="0" enabled="0"/>
      </fxchannel>
      <fxchannel num="36" muted="0" volume="1" name="FX 36">
        <fxchain numofeffects="0" enabled="0"/>
      </fxchannel>
      <fxchannel num="37" muted="0" volume="1" name="FX 37">
        <fxchain numofeffects="0" enabled="0"/>
      </fxchannel>
      <fxchannel num="38" muted="0" volume="1" name="FX 38">
        <fxchain numofeffects="0" enabled="0"/>
      </fxchannel>
      <fxchannel num="39" muted="0" volume="1" name="FX 39">
        <fxchain numofeffects="0" enabled="0"/>
      </fxchannel>
      <fxchannel num="40" muted="0" volume="1" name="FX 40">
        <fxchain numofeffects="0" enabled="0"/>
      </fxchannel>
      <fxchannel num="41" muted="0" volume="1" name="FX 41">
        <fxchain numofeffects="0" enabled="0"/>
      </fxchannel>
      <fxchannel num="42" muted="0" volume="1" name="FX 42">
        <fxchain numofeffects="0" enabled="0"/>
      </fxchannel>
      <fxchannel num="43" muted="0" volume="1" name="FX 43">
        <fxchain numofeffects="0" enabled="0"/>
      </fxchannel>
      <fxchannel num="44" muted="0" volume="1" name="FX 44">
        <fxchain numofeffects="0" enabled="0"/>
      </fxchannel>
      <fxchannel num="45" muted="0" volume="1" name="FX 45">
        <fxchain numofeffects="0" enabled="0"/>
      </fxchannel>
      <fxchannel num="46" muted="0" volume="1" name="FX 46">
        <fxchain numofeffects="0" enabled="0"/>
      </fxchannel>
      <fxchannel num="47" muted="0" volume="1" name="FX 47">
        <fxchain numofeffects="0" enabled="0"/>
      </fxchannel>
      <fxchannel num="48" muted="0" volume="1" name="FX 48">
        <fxchain numofeffects="0" enabled="0"/>
      </fxchannel>
      <fxchannel num="49" muted="0" volume="1" name="FX 49">
        <fxchain numofeffects="0" enabled="0"/>
      </fxchannel>
      <fxchannel num="50" muted="0" volume="1" name="FX 50">
        <fxchain numofeffects="0" enabled="0"/>
      </fxchannel>
      <fxchannel num="51" muted="0" volume="1" name="FX 51">
        <fxchain numofeffects="0" enabled="0"/>
      </fxchannel>
      <fxchannel num="52" muted="0" volume="1" name="FX 52">
        <fxchain numofeffects="0" enabled="0"/>
      </fxchannel>
      <fxchannel num="53" muted="0" volume="1" name="FX 53">
        <fxchain numofeffects="0" enabled="0"/>
      </fxchannel>
      <fxchannel num="54" muted="0" volume="1" name="FX 54">
        <fxchain numofeffects="0" enabled="0"/>
      </fxchannel>
      <fxchannel num="55" muted="0" volume="1" name="FX 55">
        <fxchain numofeffects="0" enabled="0"/>
      </fxchannel>
      <fxchannel num="56" muted="0" volume="1" name="FX 56">
        <fxchain numofeffects="0" enabled="0"/>
      </fxchannel>
      <fxchannel num="57" muted="0" volume="1" name="FX 57">
        <fxchain numofeffects="0" enabled="0"/>
      </fxchannel>
      <fxchannel num="58" muted="0" volume="1" name="FX 58">
        <fxchain numofeffects="0" enabled="0"/>
      </fxchannel>
      <fxchannel num="59" muted="0" volume="1" name="FX 59">
        <fxchain numofeffects="0" enabled="0"/>
      </fxchannel>
      <fxchannel num="60" muted="0" volume="1" name="FX 60">
        <fxchain numofeffects="0" enabled="0"/>
      </fxchannel>
      <fxchannel num="61" muted="0" volume="1" name="FX 61">
        <fxchain numofeffects="0" enabled="0"/>
      </fxchannel>
      <fxchannel num="62" muted="0" volume="1" name="FX 62">
        <fxchain numofeffects="0" enabled="0"/>
      </fxchannel>
      <fxchannel num="63" muted="0" volume="1" name="FX 63">
        <fxchain numofeffects="0" enabled="0"/>
      </fxchannel>
      <fxchannel num="64" muted="0" volume="1" name="FX 64">
        <fxchain numofeffects="0" enabled="0"/>
      </fxchannel>
    </fxmixer>
    <ControllerRackView width="258" x="880" y="310" maximized="0" height="172" visible="1" minimized="0"/>
    <pianoroll width="1135" x="115" y="152" maximized="0" height="480" visible="0" minimized="0"/>
    <automationeditor width="740" x="510" y="152" maximized="0" height="480" visible="0" minimized="0"/>
    <projectnotes width="400" x="700" y="10" maximized="0" height="300" visible="0" minimized="0"><![CDATA[<!DOCTYPE HTML PUBLIC "-//W3C//DTD HTML 4.0//EN" "http://www.w3.org/TR/REC-html40/strict.dtd">
<html><head><meta name="qrichtext" content="1" /><style type="text/css">
p, li { white-space: pre-wrap; }
</style></head><body style=" font-family:'Sans Serif'; font-size:9pt; font-weight:400; font-style:normal;">
<p style=" margin-top:0px; margin-bottom:0px; margin-left:0px; margin-right:0px; -qt-block-indent:0; text-indent:0px;"><span style=" color:#e0e0e0;">Put down your project notes here.</span></p></body></html>]]></projectnotes>
    <timeline lp1pos="192" lp0pos="0" lpstate="0"/>
    <controllers/>
  </song>
</multimedia-project>
