<?xml version="1.0"?>
<!DOCTYPE multimedia-project>
<multimedia-project version="1.0" creator="Linux MultiMedia Studio (LMMS)" creatorversion="0.4.13" type="song">
  <head timesig_numerator="4" mastervol="100" timesig_denominator="4" masterpitch="0">
    <bpm value="120" id="7236918"/>
  </head>
  <song>
    <trackcontainer width="600" x="5" y="5" maximized="0" height="300" visible="1" type="song" minimized="0">
      <track muted="0" type="0" name="Default preset">
        <instrumenttrack pan="0" fxch="0" pitch="0" basenote="57" vol="100">
          <instrument name="tripleoscillator">
            <tripleoscillator phoffset2="0" userwavefile0="" finer0="0" userwavefile1="" finer1="0" userwavefile2="" finer2="0" coarse0="0" coarse1="-12" coarse2="-24" finel0="0" finel1="0" modalgo1="2" modalgo2="2" finel2="0" pan0="0" modalgo3="2" pan1="0" stphdetun0="0" pan2="0" stphdetun1="0" wavetype0="0" stphdetun2="0" wavetype1="0" wavetype2="0" vol0="33" vol1="33" phoffset0="0" phoffset1="0" vol2="33"/>
          </instrument>
          <eldata fres="0.5" ftype="0" fcut="14000" fwet="0">
            <elvol lspd_denominator="4" pdel="0" userwavefile="" dec="0.5" lamt="0" syncmode="0" latt="0" rel="0.1" sus="0.5" amt="0" x100="0" att="0" lpdel="0" hold="0.5" lshp="0" lspd="0.1" ctlenvamt="0" lspd_numerator="4"/>
            <elcut lspd_denominator="4" pdel="0" userwavefile="" dec="0.5" lamt="0" syncmode="0" latt="0" rel="0.1" sus="0.5" amt="0" x100="0" att="0" lpdel="0" hold="0.5" lshp="0" lspd="0.1" ctlenvamt="0" lspd_numerator="4"/>
            <elres lspd_denominator="4" pdel="0" userwavefile="" dec="0.5" lamt="0" syncmode="0" latt="0" rel="0.1" sus="0.5" amt="0" x100="0" att="0" lpdel="0" hold="0.5" lshp="0" lspd="0.1" ctlenvamt="0" lspd_numerator="4"/>
          </eldata>
          <chordcreator chord="0" chordrange="1" chord-enabled="0"/>
          <arpeggiator arptime="100" arprange="1" arptime_denominator="4" syncmode="0" arpmode="0" arp-enabled="0" arp="0" arptime_numerator="4" arpdir="0" arpgate="100"/>
          <midiport inputcontroller="0" fixedoutputvelocity="-1" inputchannel="0" outputcontroller="0" writable="0" outputchannel="1" fixedinputvelocity="-1" outputprogram="1" readable="0"/>
          <fxchain numofeffects="0" enabled="0"/>
        </instrumenttrack>
      </track>
      <track muted="0" type="2" name="Sample track">
        <sampletrack vol="100">
          <fxchain numofeffects="0" enabled="0"/>
        </sampletrack>
      </track>
      <track muted="0" type="1" name="Beat/Bassline 0">
        <bbtrack>
          <trackcontainer width="504" x="610" y="5" maximized="0" height="300" visible="1" type="bbtrackcontainer" minimized="0">
            <track muted="0" type="0" name="Default preset">
              <instrumenttrack pan="0" fxch="0" pitch="0" basenote="57" vol="100">
                <instrument name="tripleoscillator">
                  <tripleoscillator phoffset2="0" userwavefile0="" finer0="0" userwavefile1="" finer1="0" userwavefile2="" finer2="0" coarse0="0" coarse1="-12" coarse2="-24" finel0="0" finel1="0" modalgo1="2" modalgo2="2" finel2="0" pan0="0" modalgo3="2" pan1="0" stphdetun0="0" pan2="0" stphdetun1="0" wavetype0="0" stphdetun2="0" wavetype1="0" wavetype2="0" vol0="33" vol1="33" phoffset0="0" phoffset1="0" vol2="33"/>
                </instrument>
                <eldata fres="0.5" ftype="0" fcut="14000" fwet="0">
                  <elvol lspd_denominator="4" pdel="0" userwavefile="" dec="0.5" lamt="0" syncmode="0" latt="0" rel="0.1" sus="0.5" amt="0" x100="0" att="0" lpdel="0" hold="0.5" lshp="0" lspd="0.1" ctlenvamt="0" lspd_numerator="4"/>
                  <elcut lspd_denominator="4" pdel="0" userwavefile="" dec="0.5" lamt="0" syncmode="0" latt="0" rel="0.1" sus="0.5" amt="0" x100="0" att="0" lpdel="0" hold="0.5" lshp="0" lspd="0.1" ctlenvamt="0" lspd_numerator="4"/>
                  <elres lspd_denominator="4" pdel="0" userwavefile="" dec="0.5" lamt="0" syncmode="0" latt="0" rel="0.1" sus="0.5" amt="0" x100="0" att="0" lpdel="0" hold="0.5" lshp="0" lspd="0.1" ctlenvamt="0" lspd_numerator="4"/>
                </eldata>
                <chordcreator chord="0" chordrange="1" chord-enabled="0"/>
                <arpeggiator arptime="100" arprange="1" arptime_denominator="4" syncmode="0" arpmode="0" arp-enabled="0" arp="0" arptime_numerator="4" arpdir="0" arpgate="100"/>
                <midiport inputcontroller="0" fixedoutputvelocity="-1" inputchannel="0" outputcontroller="0" writable="0" outputchannel="1" fixedinputvelocity="-1" outputprogram="1" readable="0"/>
                <fxchain numofeffects="0" enabled="0"/>
              </instrumenttrack>
              <pattern steps="16" muted="0" type="0" name="Default preset" pos="0" len="192" frozen="0"/>
            </track>
          </trackcontainer>
        </bbtrack>
      </track>
      <track muted="0" type="5" name="Automation track">
        <automationtrack/>
      </track>
      <track muted="0" type="0" name="Default preset">
        <instrumenttrack pan="0.8" fxch="0" pitch="0" basenote="57" vol="70.9">
          <instrument name="sf2player">
            <sf2player patch="0" chorusLevel="2" chorusDepth="8" reverbOn="0" reverbRoomSize="0.2" chorusOn="0" chorusSpeed="0.3" reverbDamping="0" chorusNum="3" reverbLevel="0.9" bank="0" reverbWidth="0.5" src="" gain="1"/>
          </instrument>
          <eldata fres="0.5" ftype="0" fcut="14000" fwet="0">
            <elvol lspd_denominator="4" pdel="0" userwavefile="" dec="0.5" lamt="0" syncmode="0" latt="0" rel="0.1" sus="0.5" amt="0" x100="0" att="0" lpdel="0" hold="0.5" lshp="0" lspd="0.1" ctlenvamt="0" lspd_numerator="4"/>
            <elcut lspd_denominator="4" pdel="0" userwavefile="" dec="0.5" lamt="0" syncmode="0" latt="0" rel="0.1" sus="0.5" amt="0" x100="0" att="0" lpdel="0" hold="0.5" lshp="0" lspd="0.1" ctlenvamt="0" lspd_numerator="4"/>
            <elres lspd_denominator="4" pdel="0" userwavefile="" dec="0.5" lamt="0" syncmode="0" latt="0" rel="0.1" sus="0.5" amt="0" x100="0" att="0" lpdel="0" hold="0.5" lshp="0" lspd="0.1" ctlenvamt="0" lspd_numerator="4"/>
          </eldata>
          <chordcreator chord="0" chordrange="1" chord-enabled="0"/>
          <arpeggiator arptime="100" arprange="1" arptime_denominator="4" syncmode="0" arpmode="0" arp-enabled="0" arp="0" arptime_numerator="4" arpdir="0" arpgate="100"/>
          <midiport inputcontroller="0" fixedoutputvelocity="-1" inputchannel="0" outputcontroller="0" writable="0" outputchannel="1" fixedinputvelocity="-1" outputprogram="1" readable="0"/>
          <fxchain numofeffects="0" enabled="0"/>
        </instrumenttrack>
        <pattern steps="16" muted="0" type="1" name="Default preset" pos="0" len="29952" frozen="0">
          <note pan="0" key="53" vol="83" pos="144" len="43"/>
          <note pan="0" key="58" vol="89" pos="192" len="64"/>
          <note pan="0" key="34" vol="67" pos="192" len="21"/>
          <note pan="0" key="41" vol="60" pos="216" len="21"/>
          <note pan="0" key="50" vol="62" pos="240" len="43"/>
          <note pan="0" key="60" vol="80" pos="264" len="21"/>
          <note pan="0" key="62" vol="86" pos="288" len="43"/>
          <note pan="0" key="46" vol="64" pos="288" len="21"/>
          <note pan="0" key="41" vol="60" pos="312" len="21"/>
          <note pan="0" key="63" vol="83" pos="336" len="43"/>
          <note pan="0" key="38" vol="62" pos="336" len="43"/>
          <note pan="0" key="65" vol="89" pos="384" len="43"/>
          <note pan="0" key="36" vol="67" pos="384" len="21"/>
          <note pan="0" key="41" vol="60" pos="408" len="21"/>
          <note pan="0" key="63" vol="83" pos="432" len="21"/>
          <note pan="0" key="45" vol="62" pos="432" len="43"/>
          <note pan="0" key="62" vol="80" pos="456" len="21"/>
          <note pan="0" key="60" vol="86" pos="480" len="43"/>
          <note pan="0" key="41" vol="64" pos="480" len="21"/>
          <note pan="0" key="36" vol="60" pos="504" len="21"/>
          <note pan="0" key="58" vol="83" pos="528" len="43"/>
          <note pan="0" key="34" vol="62" pos="528" len="43"/>
          <note pan="0" key="60" vol="89" pos="576" len="43"/>
          <note pan="0" key="39" vol="67" pos="576" len="21"/>
          <note pan="0" key="43" vol="60" pos="600" len="21"/>
          <note pan="0" key="62" vol="83" pos="624" len="21"/>
          <note pan="0" key="48" vol="62" pos="624" len="43"/>
          <note pan="0" key="63" vol="80" pos="648" len="21"/>
          <note pan="0" key="62" vol="86" pos="672" len="43"/>
          <note pan="0" key="45" vol="64" pos="672" len="21"/>
          <note pan="0" key="41" vol="60" pos="696" len="21"/>
          <note pan="0" key="60" vol="83" pos="720" len="43"/>
          <note pan="0" key="36" vol="62" pos="720" len="43"/>
          <note pan="0" key="62" vol="89" pos="768" len="43"/>
          <note pan="0" key="34" vol="67" pos="768" len="21"/>
          <note pan="0" key="38" vol="60" pos="792" len="21"/>
          <note pan="0" key="58" vol="83" pos="816" len="43"/>
          <note pan="0" key="41" vol="62" pos="816" len="21"/>
          <note pan="0" key="45" vol="60" pos="840" len="21"/>
          <note pan="0" key="53" vol="86" pos="864" len="64"/>
          <note pan="0" key="39" vol="64" pos="864" len="21"/>
          <note pan="0" key="36" vol="60" pos="888" len="21"/>
          <note pan="0" key="34" vol="62" pos="912" len="43"/>
          <note pan="0" key="53" vol="80" pos="936" len="21"/>
          <note pan="0" key="58" vol="89" pos="960" len="64"/>
          <note pan="0" key="34" vol="67" pos="960" len="21"/>
          <note pan="0" key="41" vol="60" pos="984" len="21"/>
          <note pan="0" key="50" vol="62" pos="1008" len="43"/>
          <note pan="0" key="60" vol="80" pos="1032" len="21"/>
          <note pan="0" key="62" vol="86" pos="1056" len="43"/>
          <note pan="0" key="46" vol="64" pos="1056" len="21"/>
          <note pan="0" key="41" vol="60" pos="1080" len="21"/>
          <note pan="0" key="63" vol="83" pos="1104" len="43"/>
          <note pan="0" key="38" vol="62" pos="1104" len="43"/>
          <note pan="0" key="65" vol="89" pos="1152" len="43"/>
          <note pan="0" key="36" vol="67" pos="1152" len="21"/>
          <note pan="0" key="41" vol="60" pos="1176" len="21"/>
          <note pan="0" key="63" vol="83" pos="1200" len="21"/>
          <note pan="0" key="45" vol="62" pos="1200" len="43"/>
          <note pan="0" key="62" vol="80" pos="1224" len="21"/>
          <note pan="0" key="60" vol="86" pos="1248" len="43"/>
          <note pan="0" key="41" vol="64" pos="1248" len="21"/>
          <note pan="0" key="36" vol="60" pos="1272" len="21"/>
          <note pan="0" key="58" vol="83" pos="1296" len="43"/>
          <note pan="0" key="34" vol="62" pos="1296" len="43"/>
          <note pan="0" key="60" vol="89" pos="1344" len="43"/>
          <note pan="0" key="39" vol="67" pos="1344" len="21"/>
          <note pan="0" key="43" vol="60" pos="1368" len="21"/>
          <note pan="0" key="62" vol="83" pos="1392" len="21"/>
          <note pan="0" key="48" vol="62" pos="1392" len="43"/>
          <note pan="0" key="63" vol="80" pos="1416" len="21"/>
          <note pan="0" key="62" vol="86" pos="1440" len="43"/>
          <note pan="0" key="33" vol="64" pos="1440" len="21"/>
          <note pan="0" key="36" vol="60" pos="1464" len="21"/>
          <note pan="0" key="60" vol="83" pos="1488" len="43"/>
          <note pan="0" key="41" vol="62" pos="1488" len="43"/>
          <note pan="0" key="63" vol="89" pos="1536" len="43"/>
          <note pan="0" key="39" vol="67" pos="1536" len="21"/>
          <note pan="0" key="38" vol="60" pos="1560" len="21"/>
          <note pan="0" key="57" vol="83" pos="1584" len="43"/>
          <note pan="0" key="41" vol="62" pos="1584" len="21"/>
          <note pan="0" key="29" vol="60" pos="1608" len="21"/>
          <note pan="0" key="58" vol="86" pos="1632" len="86"/>
          <note pan="0" key="34" vol="64" pos="1632" len="86"/>
          <note pan="0" key="58" vol="67" pos="1728" len="43"/>
          <note pan="0" key="34" vol="67" pos="1728" len="21"/>
          <note pan="0" key="41" vol="60" pos="1752" len="21"/>
          <note pan="0" key="60" vol="62" pos="1776" len="21"/>
          <note pan="0" key="46" vol="62" pos="1776" len="21"/>
          <note pan="0" key="62" vol="60" pos="1800" len="21"/>
          <note pan="0" key="50" vol="60" pos="1800" len="21"/>
          <note pan="0" key="63" vol="64" pos="1824" len="43"/>
          <note pan="0" key="41" vol="64" pos="1824" len="86"/>
          <note pan="0" key="46" vol="64" pos="1824" len="86"/>
          <note pan="0" key="50" vol="64" pos="1824" len="86"/>
          <note pan="0" key="65" vol="62" pos="1872" len="43"/>
          <note pan="0" key="67" vol="67" pos="1920" len="43"/>
          <note pan="0" key="31" vol="67" pos="1920" len="21"/>
          <note pan="0" key="43" vol="60" pos="1944" len="21"/>
          <note pan="0" key="65" vol="62" pos="1968" len="21"/>
          <note pan="0" key="46" vol="62" pos="1968" len="21"/>
          <note pan="0" key="63" vol="60" pos="1992" len="21"/>
          <note pan="0" key="50" vol="60" pos="1992" len="21"/>
          <note pan="0" key="62" vol="64" pos="2016" len="43"/>
          <note pan="0" key="46" vol="64" pos="2016" len="86"/>
          <note pan="0" key="50" vol="64" pos="2016" len="86"/>
          <note pan="0" key="43" vol="64" pos="2016" len="86"/>
          <note pan="0" key="60" vol="62" pos="2064" len="43"/>
          <note pan="0" key="62" vol="67" pos="2112" len="43"/>
          <note pan="0" key="38" vol="67" pos="2112" len="21"/>
          <note pan="0" key="41" vol="60" pos="2136" len="21"/>
          <note pan="0" key="63" vol="62" pos="2160" len="21"/>
          <note pan="0" key="45" vol="62" pos="2160" len="21"/>
          <note pan="0" key="65" vol="60" pos="2184" len="21"/>
          <note pan="0" key="50" vol="60" pos="2184" len="21"/>
          <note pan="0" key="63" vol="64" pos="2208" len="43"/>
          <note pan="0" key="50" vol="64" pos="2208" len="86"/>
          <note pan="0" key="41" vol="64" pos="2208" len="86"/>
          <note pan="0" key="45" vol="64" pos="2208" len="86"/>
          <note pan="0" key="62" vol="62" pos="2256" len="43"/>
          <note pan="0" key="63" vol="67" pos="2304" len="43"/>
          <note pan="0" key="36" vol="67" pos="2304" len="21"/>
          <note pan="0" key="41" vol="60" pos="2328" len="21"/>
          <note pan="0" key="60" vol="62" pos="2352" len="43"/>
          <note pan="0" key="45" vol="62" pos="2352" len="21"/>
          <note pan="0" key="51" vol="60" pos="2376" len="21"/>
          <note pan="0" key="62" vol="64" pos="2400" len="86"/>
          <note pan="0" key="46" vol="64" pos="2400" len="86"/>
          <note pan="0" key="41" vol="64" pos="2400" len="86"/>
          <note pan="0" key="50" vol="64" pos="2400" len="86"/>
          <note pan="0" key="58" vol="67" pos="2496" len="43"/>
          <note pan="0" key="34" vol="67" pos="2496" len="21"/>
          <note pan="0" key="41" vol="60" pos="2520" len="21"/>
          <note pan="0" key="60" vol="62" pos="2544" len="21"/>
          <note pan="0" key="46" vol="62" pos="2544" len="21"/>
          <note pan="0" key="62" vol="60" pos="2568" len="21"/>
          <note pan="0" key="50" vol="60" pos="2568" len="21"/>
          <note pan="0" key="63" vol="64" pos="2592" len="43"/>
          <note pan="0" key="41" vol="64" pos="2592" len="86"/>
          <note pan="0" key="50" vol="64" pos="2592" len="86"/>
          <note pan="0" key="46" vol="64" pos="2592" len="86"/>
          <note pan="0" key="65" vol="62" pos="2640" len="43"/>
          <note pan="0" key="67" vol="67" pos="2688" len="43"/>
          <note pan="0" key="31" vol="67" pos="2688" len="21"/>
          <note pan="0" key="43" vol="60" pos="2712" len="21"/>
          <note pan="0" key="65" vol="62" pos="2736" len="21"/>
          <note pan="0" key="46" vol="62" pos="2736" len="21"/>
          <note pan="0" key="63" vol="60" pos="2760" len="21"/>
          <note pan="0" key="50" vol="60" pos="2760" len="21"/>
          <note pan="0" key="62" vol="64" pos="2784" len="43"/>
          <note pan="0" key="43" vol="64" pos="2784" len="86"/>
          <note pan="0" key="46" vol="64" pos="2784" len="86"/>
          <note pan="0" key="50" vol="64" pos="2784" len="86"/>
          <note pan="0" key="60" vol="62" pos="2832" len="43"/>
          <note pan="0" key="62" vol="67" pos="2880" len="43"/>
          <note pan="0" key="38" vol="67" pos="2880" len="21"/>
          <note pan="0" key="41" vol="60" pos="2904" len="21"/>
          <note pan="0" key="63" vol="62" pos="2928" len="21"/>
          <note pan="0" key="45" vol="62" pos="2928" len="21"/>
          <note pan="0" key="65" vol="60" pos="2952" len="21"/>
          <note pan="0" key="50" vol="60" pos="2952" len="21"/>
          <note pan="0" key="63" vol="64" pos="2976" len="43"/>
          <note pan="0" key="41" vol="64" pos="2976" len="86"/>
          <note pan="0" key="45" vol="64" pos="2976" len="86"/>
          <note pan="0" key="50" vol="64" pos="2976" len="86"/>
          <note pan="0" key="62" vol="62" pos="3024" len="43"/>
          <note pan="0" key="67" vol="87" pos="3072" len="43"/>
          <note pan="0" key="38" vol="67" pos="3072" len="21"/>
          <note pan="0" key="43" vol="60" pos="3096" len="21"/>
          <note pan="0" key="59" vol="80" pos="3120" len="43"/>
          <note pan="0" key="47" vol="62" pos="3120" len="21"/>
          <note pan="0" key="51" vol="60" pos="3144" len="21"/>
          <note pan="0" key="60" vol="83" pos="3168" len="86"/>
          <note pan="0" key="43" vol="64" pos="3168" len="86"/>
          <note pan="0" key="52" vol="64" pos="3168" len="86"/>
          <note pan="0" key="48" vol="64" pos="3168" len="86"/>
          <note pan="0" key="60" vol="67" pos="3264" len="43"/>
          <note pan="0" key="36" vol="67" pos="3264" len="21"/>
          <note pan="0" key="43" vol="60" pos="3288" len="21"/>
          <note pan="0" key="62" vol="62" pos="3312" len="21"/>
          <note pan="0" key="48" vol="62" pos="3312" len="21"/>
          <note pan="0" key="64" vol="60" pos="3336" len="21"/>
          <note pan="0" key="52" vol="60" pos="3336" len="21"/>
          <note pan="0" key="65" vol="64" pos="3360" len="43"/>
          <note pan="0" key="43" vol="64" pos="3360" len="86"/>
          <note pan="0" key="52" vol="64" pos="3360" len="86"/>
          <note pan="0" key="48" vol="64" pos="3360" len="86"/>
          <note pan="0" key="67" vol="62" pos="3408" len="43"/>
          <note pan="0" key="69" vol="67" pos="3456" len="43"/>
          <note pan="0" key="33" vol="67" pos="3456" len="21"/>
          <note pan="0" key="45" vol="60" pos="3480" len="21"/>
          <note pan="0" key="67" vol="62" pos="3504" len="21"/>
          <note pan="0" key="48" vol="62" pos="3504" len="21"/>
          <note pan="0" key="65" vol="60" pos="3528" len="21"/>
          <note pan="0" key="52" vol="60" pos="3528" len="21"/>
          <note pan="0" key="64" vol="64" pos="3552" len="43"/>
          <note pan="0" key="45" vol="64" pos="3552" len="86"/>
          <note pan="0" key="48" vol="64" pos="3552" len="86"/>
          <note pan="0" key="52" vol="64" pos="3552" len="86"/>
          <note pan="0" key="62" vol="62" pos="3600" len="43"/>
          <note pan="0" key="64" vol="67" pos="3648" len="43"/>
          <note pan="0" key="40" vol="67" pos="3648" len="21"/>
          <note pan="0" key="43" vol="60" pos="3672" len="21"/>
          <note pan="0" key="65" vol="62" pos="3696" len="21"/>
          <note pan="0" key="47" vol="62" pos="3696" len="21"/>
          <note pan="0" key="67" vol="60" pos="3720" len="21"/>
          <note pan="0" key="52" vol="60" pos="3720" len="21"/>
          <note pan="0" key="65" vol="64" pos="3744" len="43"/>
          <note pan="0" key="43" vol="64" pos="3744" len="86"/>
          <note pan="0" key="52" vol="64" pos="3744" len="86"/>
          <note pan="0" key="47" vol="64" pos="3744" len="86"/>
          <note pan="0" key="64" vol="62" pos="3792" len="43"/>
          <note pan="0" key="65" vol="67" pos="3840" len="43"/>
          <note pan="0" key="38" vol="67" pos="3840" len="21"/>
          <note pan="0" key="43" vol="60" pos="3864" len="21"/>
          <note pan="0" key="62" vol="62" pos="3888" len="43"/>
          <note pan="0" key="47" vol="62" pos="3888" len="21"/>
          <note pan="0" key="53" vol="60" pos="3912" len="21"/>
          <note pan="0" key="64" vol="64" pos="3936" len="86"/>
          <note pan="0" key="52" vol="64" pos="3936" len="86"/>
          <note pan="0" key="48" vol="64" pos="3936" len="86"/>
          <note pan="0" key="43" vol="64" pos="3936" len="86"/>
          <note pan="0" key="60" vol="67" pos="4032" len="43"/>
          <note pan="0" key="36" vol="67" pos="4032" len="21"/>
          <note pan="0" key="43" vol="60" pos="4056" len="21"/>
          <note pan="0" key="62" vol="62" pos="4080" len="21"/>
          <note pan="0" key="48" vol="62" pos="4080" len="21"/>
          <note pan="0" key="64" vol="60" pos="4104" len="21"/>
          <note pan="0" key="52" vol="60" pos="4104" len="21"/>
          <note pan="0" key="65" vol="64" pos="4128" len="43"/>
          <note pan="0" key="43" vol="64" pos="4128" len="86"/>
          <note pan="0" key="52" vol="64" pos="4128" len="86"/>
          <note pan="0" key="48" vol="64" pos="4128" len="86"/>
          <note pan="0" key="67" vol="62" pos="4176" len="43"/>
          <note pan="0" key="69" vol="67" pos="4224" len="43"/>
          <note pan="0" key="33" vol="67" pos="4224" len="21"/>
          <note pan="0" key="45" vol="60" pos="4248" len="21"/>
          <note pan="0" key="67" vol="62" pos="4272" len="21"/>
          <note pan="0" key="48" vol="62" pos="4272" len="21"/>
          <note pan="0" key="65" vol="60" pos="4296" len="21"/>
          <note pan="0" key="52" vol="60" pos="4296" len="21"/>
          <note pan="0" key="64" vol="64" pos="4320" len="43"/>
          <note pan="0" key="52" vol="64" pos="4320" len="86"/>
          <note pan="0" key="48" vol="64" pos="4320" len="86"/>
          <note pan="0" key="45" vol="64" pos="4320" len="86"/>
          <note pan="0" key="62" vol="62" pos="4368" len="43"/>
          <note pan="0" key="64" vol="67" pos="4416" len="43"/>
          <note pan="0" key="31" vol="67" pos="4416" len="21"/>
          <note pan="0" key="40" vol="60" pos="4440" len="21"/>
          <note pan="0" key="65" vol="62" pos="4464" len="21"/>
          <note pan="0" key="43" vol="62" pos="4464" len="21"/>
          <note pan="0" key="67" vol="60" pos="4488" len="21"/>
          <note pan="0" key="48" vol="60" pos="4488" len="21"/>
          <note pan="0" key="65" vol="64" pos="4512" len="43"/>
          <note pan="0" key="41" vol="64" pos="4512" len="86"/>
          <note pan="0" key="45" vol="64" pos="4512" len="86"/>
          <note pan="0" key="36" vol="64" pos="4512" len="86"/>
          <note pan="0" key="57" vol="62" pos="4560" len="43"/>
          <note pan="0" key="60" vol="67" pos="4608" len="21"/>
          <note pan="0" key="36" vol="67" pos="4608" len="21"/>
          <note pan="0" key="64" vol="60" pos="4632" len="21"/>
          <note pan="0" key="43" vol="60" pos="4632" len="21"/>
          <note pan="0" key="67" vol="62" pos="4656" len="21"/>
          <note pan="0" key="46" vol="62" pos="4656" len="21"/>
          <note pan="0" key="70" vol="60" pos="4680" len="21"/>
          <note pan="0" key="40" vol="60" pos="4680" len="21"/>
          <note pan="0" key="60" vol="64" pos="4704" len="86"/>
          <note pan="0" key="65" vol="64" pos="4704" len="86"/>
          <note pan="0" key="69" vol="64" pos="4704" len="86"/>
          <note pan="0" key="41" vol="64" pos="4704" len="86"/>
          <note pan="0" key="65" vol="100" pos="4800" len="43"/>
          <note pan="0" key="41" vol="67" pos="4800" len="21"/>
          <note pan="0" key="45" vol="60" pos="4824" len="21"/>
          <note pan="0" key="62" vol="93" pos="4848" len="21"/>
          <note pan="0" key="48" vol="62" pos="4848" len="43"/>
          <note pan="0" key="64" vol="90" pos="4872" len="21"/>
          <note pan="0" key="65" vol="97" pos="4896" len="43"/>
          <note pan="0" key="47" vol="64" pos="4896" len="21"/>
          <note pan="0" key="44" vol="60" pos="4920" len="21"/>
          <note pan="0" key="62" vol="93" pos="4944" len="43"/>
          <note pan="0" key="40" vol="62" pos="4944" len="43"/>
          <note pan="0" key="64" vol="100" pos="4992" len="43"/>
          <note pan="0" key="36" vol="67" pos="4992" len="21"/>
          <note pan="0" key="40" vol="60" pos="5016" len="21"/>
          <note pan="0" key="60" vol="93" pos="5040" len="43"/>
          <note pan="0" key="45" vol="62" pos="5040" len="43"/>
          <note pan="0" key="57" vol="97" pos="5088" len="21"/>
          <note pan="0" key="41" vol="64" pos="5088" len="21"/>
          <note pan="0" key="58" vol="90" pos="5112" len="21"/>
          <note pan="0" key="46" vol="60" pos="5112" len="21"/>
          <note pan="0" key="60" vol="93" pos="5136" len="21"/>
          <note pan="0" key="38" vol="62" pos="5136" len="43"/>
          <note pan="0" key="62" vol="90" pos="5160" len="21"/>
          <note pan="0" key="63" vol="100" pos="5184" len="43"/>
          <note pan="0" key="39" vol="67" pos="5184" len="21"/>
          <note pan="0" key="43" vol="60" pos="5208" len="21"/>
          <note pan="0" key="60" vol="93" pos="5232" len="21"/>
          <note pan="0" key="46" vol="62" pos="5232" len="43"/>
          <note pan="0" key="62" vol="90" pos="5256" len="21"/>
          <note pan="0" key="63" vol="97" pos="5280" len="43"/>
          <note pan="0" key="45" vol="64" pos="5280" len="21"/>
          <note pan="0" key="42" vol="60" pos="5304" len="21"/>
          <note pan="0" key="60" vol="93" pos="5328" len="43"/>
          <note pan="0" key="38" vol="62" pos="5328" len="43"/>
          <note pan="0" key="62" vol="100" pos="5376" len="43"/>
          <note pan="0" key="43" vol="67" pos="5376" len="21"/>
          <note pan="0" key="46" vol="60" pos="5400" len="21"/>
          <note pan="0" key="58" vol="93" pos="5424" len="43"/>
          <note pan="0" key="50" vol="62" pos="5424" len="21"/>
          <note pan="0" key="38" vol="60" pos="5448" len="21"/>
          <note pan="0" key="55" vol="97" pos="5472" len="86"/>
          <note pan="0" key="43" vol="64" pos="5472" len="86"/>
          <note pan="0" key="65" vol="100" pos="5568" len="43"/>
          <note pan="0" key="41" vol="67" pos="5568" len="21"/>
          <note pan="0" key="45" vol="60" pos="5592" len="21"/>
          <note pan="0" key="62" vol="93" pos="5616" len="21"/>
          <note pan="0" key="48" vol="62" pos="5616" len="43"/>
          <note pan="0" key="64" vol="90" pos="5640" len="21"/>
          <note pan="0" key="65" vol="97" pos="5664" len="43"/>
          <note pan="0" key="47" vol="64" pos="5664" len="21"/>
          <note pan="0" key="44" vol="60" pos="5688" len="21"/>
          <note pan="0" key="62" vol="93" pos="5712" len="43"/>
          <note pan="0" key="40" vol="62" pos="5712" len="43"/>
          <note pan="0" key="64" vol="100" pos="5760" len="43"/>
          <note pan="0" key="36" vol="67" pos="5760" len="21"/>
          <note pan="0" key="40" vol="60" pos="5784" len="21"/>
          <note pan="0" key="60" vol="93" pos="5808" len="43"/>
          <note pan="0" key="45" vol="62" pos="5808" len="43"/>
          <note pan="0" key="57" vol="97" pos="5856" len="21"/>
          <note pan="0" key="41" vol="64" pos="5856" len="21"/>
          <note pan="0" key="58" vol="90" pos="5880" len="21"/>
          <note pan="0" key="46" vol="60" pos="5880" len="21"/>
          <note pan="0" key="60" vol="93" pos="5904" len="21"/>
          <note pan="0" key="38" vol="62" pos="5904" len="43"/>
          <note pan="0" key="62" vol="90" pos="5928" len="21"/>
          <note pan="0" key="60" vol="100" pos="5952" len="43"/>
          <note pan="0" key="36" vol="67" pos="5952" len="21"/>
          <note pan="0" key="41" vol="60" pos="5976" len="21"/>
          <note pan="0" key="57" vol="93" pos="6000" len="21"/>
          <note pan="0" key="45" vol="62" pos="6000" len="43"/>
          <note pan="0" key="58" vol="90" pos="6024" len="21"/>
          <note pan="0" key="60" vol="97" pos="6048" len="43"/>
          <note pan="0" key="41" vol="64" pos="6048" len="21"/>
          <note pan="0" key="45" vol="60" pos="6072" len="21"/>
          <note pan="0" key="57" vol="93" pos="6096" len="43"/>
          <note pan="0" key="48" vol="62" pos="6096" len="43"/>
          <note pan="0" key="58" vol="100" pos="6144" len="43"/>
          <note pan="0" key="48" vol="67" pos="6144" len="21"/>
          <note pan="0" key="43" vol="60" pos="6168" len="21"/>
          <note pan="0" key="55" vol="93" pos="6192" len="43"/>
          <note pan="0" key="46" vol="62" pos="6192" len="21"/>
          <note pan="0" key="40" vol="60" pos="6216" len="21"/>
          <note pan="0" key="53" vol="97" pos="6240" len="86"/>
          <note pan="0" key="41" vol="64" pos="6240" len="86"/>
          <note pan="0" key="53" vol="67" pos="6336" len="21"/>
          <note pan="0" key="48" vol="67" pos="6336" len="86"/>
          <note pan="0" key="45" vol="67" pos="6336" len="86"/>
          <note pan="0" key="41" vol="67" pos="6336" len="86"/>
          <note pan="0" key="55" vol="60" pos="6360" len="21"/>
          <note pan="0" key="57" vol="64" pos="6384" len="21"/>
          <note pan="0" key="58" vol="64" pos="6408" len="21"/>
          <note pan="0" key="60" vol="72" pos="6432" len="86"/>
          <note pan="0" key="40" vol="64" pos="6432" len="21"/>
          <note pan="0" key="43" vol="60" pos="6456" len="21"/>
          <note pan="0" key="48" vol="62" pos="6480" len="21"/>
          <note pan="0" key="52" vol="60" pos="6504" len="21"/>
          <note pan="0" key="55" vol="85" pos="6528" len="21"/>
          <note pan="0" key="43" vol="67" pos="6528" len="86"/>
          <note pan="0" key="48" vol="67" pos="6528" len="86"/>
          <note pan="0" key="52" vol="67" pos="6528" len="86"/>
          <note pan="0" key="57" vol="78" pos="6552" len="21"/>
          <note pan="0" key="58" vol="84" pos="6576" len="21"/>
          <note pan="0" key="60" vol="83" pos="6600" len="21"/>
          <note pan="0" key="62" vol="92" pos="6624" len="86"/>
          <note pan="0" key="38" vol="64" pos="6624" len="21"/>
          <note pan="0" key="43" vol="60" pos="6648" len="21"/>
          <note pan="0" key="46" vol="62" pos="6672" len="21"/>
          <note pan="0" key="50" vol="60" pos="6696" len="21"/>
          <note pan="0" key="57" vol="106" pos="6720" len="21"/>
          <note pan="0" key="46" vol="67" pos="6720" len="86"/>
          <note pan="0" key="50" vol="67" pos="6720" len="86"/>
          <note pan="0" key="43" vol="67" pos="6720" len="86"/>
          <note pan="0" key="58" vol="97" pos="6744" len="21"/>
          <note pan="0" key="60" vol="104" pos="6768" len="21"/>
          <note pan="0" key="62" vol="102" pos="6792" len="21"/>
          <note pan="0" key="64" vol="127" pos="6816" len="21"/>
          <note pan="0" key="40" vol="64" pos="6816" len="86"/>
          <note pan="0" key="43" vol="64" pos="6816" len="86"/>
          <note pan="0" key="48" vol="64" pos="6816" len="86"/>
          <note pan="0" key="62" vol="105" pos="6840" len="21"/>
          <note pan="0" key="60" vol="104" pos="6864" len="21"/>
          <note pan="0" key="58" vol="95" pos="6888" len="21"/>
          <note pan="0" key="57" vol="100" pos="6912" len="43"/>
          <note pan="0" key="41" vol="67" pos="6912" len="43"/>
          <note pan="0" key="36" vol="67" pos="6912" len="43"/>
          <note pan="0" key="45" vol="67" pos="6912" len="43"/>
          <note pan="0" key="55" vol="93" pos="6960" len="43"/>
          <note pan="0" key="46" vol="62" pos="6960" len="43"/>
          <note pan="0" key="48" vol="62" pos="6960" len="43"/>
          <note pan="0" key="40" vol="62" pos="6960" len="43"/>
          <note pan="0" key="57" vol="97" pos="7008" len="86"/>
          <note pan="0" key="41" vol="64" pos="7008" len="86"/>
          <note pan="0" key="45" vol="64" pos="7008" len="86"/>
          <note pan="0" key="48" vol="64" pos="7008" len="86"/>
          <note pan="0" key="53" vol="89" pos="7104" len="21"/>
          <note pan="0" key="45" vol="67" pos="7104" len="86"/>
          <note pan="0" key="41" vol="67" pos="7104" len="86"/>
          <note pan="0" key="55" vol="80" pos="7128" len="21"/>
          <note pan="0" key="57" vol="84" pos="7152" len="21"/>
          <note pan="0" key="58" vol="83" pos="7176" len="21"/>
          <note pan="0" key="60" vol="90" pos="7200" len="86"/>
          <note pan="0" key="40" vol="64" pos="7200" len="21"/>
          <note pan="0" key="43" vol="60" pos="7224" len="21"/>
          <note pan="0" key="48" vol="62" pos="7248" len="21"/>
          <note pan="0" key="52" vol="60" pos="7272" len="21"/>
          <note pan="0" key="55" vol="101" pos="7296" len="21"/>
          <note pan="0" key="43" vol="67" pos="7296" len="86"/>
          <note pan="0" key="48" vol="67" pos="7296" len="86"/>
          <note pan="0" key="52" vol="67" pos="7296" len="86"/>
          <note pan="0" key="57" vol="92" pos="7320" len="21"/>
          <note pan="0" key="58" vol="97" pos="7344" len="21"/>
          <note pan="0" key="60" vol="95" pos="7368" len="21"/>
          <note pan="0" key="62" vol="104" pos="7392" len="86"/>
          <note pan="0" key="38" vol="64" pos="7392" len="21"/>
          <note pan="0" key="43" vol="60" pos="7416" len="21"/>
          <note pan="0" key="46" vol="62" pos="7440" len="21"/>
          <note pan="0" key="50" vol="60" pos="7464" len="21"/>
          <note pan="0" key="57" vol="115" pos="7488" len="21"/>
          <note pan="0" key="43" vol="67" pos="7488" len="86"/>
          <note pan="0" key="50" vol="67" pos="7488" len="86"/>
          <note pan="0" key="46" vol="67" pos="7488" len="86"/>
          <note pan="0" key="58" vol="105" pos="7512" len="21"/>
          <note pan="0" key="60" vol="110" pos="7536" len="21"/>
          <note pan="0" key="62" vol="108" pos="7560" len="21"/>
          <note pan="0" key="64" vol="127" pos="7584" len="21"/>
          <note pan="0" key="45" vol="64" pos="7584" len="86"/>
          <note pan="0" key="50" vol="64" pos="7584" len="86"/>
          <note pan="0" key="42" vol="64" pos="7584" len="86"/>
          <note pan="0" key="62" vol="110" pos="7608" len="21"/>
          <note pan="0" key="64" vol="112" pos="7632" len="21"/>
          <note pan="0" key="66" vol="106" pos="7656" len="21"/>
          <note pan="0" key="67" vol="127" pos="7680" len="43"/>
          <note pan="0" key="43" vol="67" pos="7680" len="21"/>
          <note pan="0" key="50" vol="60" pos="7704" len="21"/>
          <note pan="0" key="59" vol="127" pos="7728" len="43"/>
          <note pan="0" key="47" vol="62" pos="7728" len="21"/>
          <note pan="0" key="35" vol="60" pos="7752" len="21"/>
          <note pan="0" key="60" vol="127" pos="7776" len="86"/>
          <note pan="0" key="36" vol="64" pos="7776" len="86"/>
          <note pan="0" key="60" vol="67" pos="7872" len="21"/>
          <note pan="0" key="36" vol="67" pos="7872" len="86"/>
          <note pan="0" key="40" vol="67" pos="7872" len="86"/>
          <note pan="0" key="43" vol="67" pos="7872" len="86"/>
          <note pan="0" key="62" vol="60" pos="7896" len="21"/>
          <note pan="0" key="64" vol="64" pos="7920" len="21"/>
          <note pan="0" key="65" vol="64" pos="7944" len="21"/>
          <note pan="0" key="67" vol="72" pos="7968" len="86"/>
          <note pan="0" key="35" vol="64" pos="7968" len="21"/>
          <note pan="0" key="38" vol="60" pos="7992" len="21"/>
          <note pan="0" key="43" vol="62" pos="8016" len="21"/>
          <note pan="0" key="47" vol="60" pos="8040" len="21"/>
          <note pan="0" key="62" vol="85" pos="8064" len="21"/>
          <note pan="0" key="38" vol="67" pos="8064" len="86"/>
          <note pan="0" key="47" vol="67" pos="8064" len="86"/>
          <note pan="0" key="43" vol="67" pos="8064" len="86"/>
          <note pan="0" key="64" vol="78" pos="8088" len="21"/>
          <note pan="0" key="65" vol="84" pos="8112" len="21"/>
          <note pan="0" key="67" vol="83" pos="8136" len="21"/>
          <note pan="0" key="69" vol="92" pos="8160" len="86"/>
          <note pan="0" key="33" vol="64" pos="8160" len="21"/>
          <note pan="0" key="38" vol="60" pos="8184" len="21"/>
          <note pan="0" key="41" vol="62" pos="8208" len="21"/>
          <note pan="0" key="45" vol="60" pos="8232" len="21"/>
          <note pan="0" key="64" vol="106" pos="8256" len="21"/>
          <note pan="0" key="41" vol="67" pos="8256" len="86"/>
          <note pan="0" key="45" vol="67" pos="8256" len="86"/>
          <note pan="0" key="38" vol="67" pos="8256" len="86"/>
          <note pan="0" key="65" vol="97" pos="8280" len="21"/>
          <note pan="0" key="67" vol="104" pos="8304" len="21"/>
          <note pan="0" key="69" vol="102" pos="8328" len="21"/>
          <note pan="0" key="71" vol="127" pos="8352" len="21"/>
          <note pan="0" key="35" vol="64" pos="8352" len="86"/>
          <note pan="0" key="43" vol="64" pos="8352" len="86"/>
          <note pan="0" key="38" vol="64" pos="8352" len="86"/>
          <note pan="0" key="69" vol="105" pos="8376" len="21"/>
          <note pan="0" key="67" vol="104" pos="8400" len="21"/>
          <note pan="0" key="65" vol="95" pos="8424" len="21"/>
          <note pan="0" key="64" vol="100" pos="8448" len="43"/>
          <note pan="0" key="36" vol="67" pos="8448" len="43"/>
          <note pan="0" key="31" vol="67" pos="8448" len="43"/>
          <note pan="0" key="40" vol="67" pos="8448" len="43"/>
          <note pan="0" key="62" vol="93" pos="8496" len="43"/>
          <note pan="0" key="43" vol="62" pos="8496" len="43"/>
          <note pan="0" key="41" vol="62" pos="8496" len="43"/>
          <note pan="0" key="35" vol="62" pos="8496" len="43"/>
          <note pan="0" key="64" vol="97" pos="8544" len="86"/>
          <note pan="0" key="36" vol="64" pos="8544" len="86"/>
          <note pan="0" key="40" vol="64" pos="8544" len="86"/>
          <note pan="0" key="43" vol="64" pos="8544" len="86"/>
          <note pan="0" key="60" vol="89" pos="8640" len="21"/>
          <note pan="0" key="40" vol="67" pos="8640" len="86"/>
          <note pan="0" key="36" vol="67" pos="8640" len="86"/>
          <note pan="0" key="43" vol="67" pos="8640" len="86"/>
          <note pan="0" key="62" vol="80" pos="8664" len="21"/>
          <note pan="0" key="64" vol="84" pos="8688" len="21"/>
          <note pan="0" key="65" vol="83" pos="8712" len="21"/>
          <note pan="0" key="67" vol="90" pos="8736" len="86"/>
          <note pan="0" key="35" vol="64" pos="8736" len="21"/>
          <note pan="0" key="38" vol="60" pos="8760" len="21"/>
          <note pan="0" key="43" vol="62" pos="8784" len="21"/>
          <note pan="0" key="47" vol="60" pos="8808" len="21"/>
          <note pan="0" key="62" vol="101" pos="8832" len="21"/>
          <note pan="0" key="38" vol="67" pos="8832" len="86"/>
          <note pan="0" key="47" vol="67" pos="8832" len="86"/>
          <note pan="0" key="43" vol="67" pos="8832" len="86"/>
          <note pan="0" key="64" vol="92" pos="8856" len="21"/>
          <note pan="0" key="65" vol="97" pos="8880" len="21"/>
          <note pan="0" key="67" vol="95" pos="8904" len="21"/>
          <note pan="0" key="69" vol="104" pos="8928" len="86"/>
          <note pan="0" key="33" vol="64" pos="8928" len="21"/>
          <note pan="0" key="38" vol="60" pos="8952" len="21"/>
          <note pan="0" key="41" vol="62" pos="8976" len="21"/>
          <note pan="0" key="45" vol="60" pos="9000" len="21"/>
          <note pan="0" key="64" vol="115" pos="9024" len="21"/>
          <note pan="0" key="45" vol="67" pos="9024" len="86"/>
          <note pan="0" key="41" vol="67" pos="9024" len="86"/>
          <note pan="0" key="38" vol="67" pos="9024" len="86"/>
          <note pan="0" key="65" vol="105" pos="9048" len="21"/>
          <note pan="0" key="67" vol="110" pos="9072" len="21"/>
          <note pan="0" key="69" vol="108" pos="9096" len="21"/>
          <note pan="0" key="70" vol="127" pos="9120" len="21"/>
          <note pan="0" key="45" vol="64" pos="9120" len="86"/>
          <note pan="0" key="39" vol="64" pos="9120" len="86"/>
          <note pan="0" key="48" vol="64" pos="9120" len="86"/>
          <note pan="0" key="69" vol="110" pos="9144" len="21"/>
          <note pan="0" key="65" vol="112" pos="9168" len="21"/>
          <note pan="0" key="63" vol="106" pos="9192" len="21"/>
          <note pan="0" key="60" vol="127" pos="9216" len="43"/>
          <note pan="0" key="36" vol="67" pos="9216" len="21"/>
          <note pan="0" key="39" vol="60" pos="9240" len="21"/>
          <note pan="0" key="57" vol="127" pos="9264" len="43"/>
          <note pan="0" key="41" vol="62" pos="9264" len="21"/>
          <note pan="0" key="29" vol="60" pos="9288" len="21"/>
          <note pan="0" key="58" vol="127" pos="9312" len="43"/>
          <note pan="0" key="34" vol="64" pos="9312" len="86"/>
          <note pan="0" key="53" vol="62" pos="9360" len="43"/>
          <note pan="0" key="58" vol="89" pos="9408" len="64"/>
          <note pan="0" key="34" vol="67" pos="9408" len="21"/>
          <note pan="0" key="41" vol="60" pos="9432" len="21"/>
          <note pan="0" key="50" vol="62" pos="9456" len="43"/>
          <note pan="0" key="60" vol="80" pos="9480" len="21"/>
          <note pan="0" key="62" vol="86" pos="9504" len="43"/>
          <note pan="0" key="46" vol="64" pos="9504" len="21"/>
          <note pan="0" key="41" vol="60" pos="9528" len="21"/>
          <note pan="0" key="63" vol="83" pos="9552" len="43"/>
          <note pan="0" key="38" vol="62" pos="9552" len="43"/>
          <note pan="0" key="65" vol="89" pos="9600" len="43"/>
          <note pan="0" key="36" vol="67" pos="9600" len="21"/>
          <note pan="0" key="41" vol="60" pos="9624" len="21"/>
          <note pan="0" key="63" vol="83" pos="9648" len="21"/>
          <note pan="0" key="45" vol="62" pos="9648" len="43"/>
          <note pan="0" key="62" vol="80" pos="9672" len="21"/>
          <note pan="0" key="60" vol="86" pos="9696" len="43"/>
          <note pan="0" key="41" vol="64" pos="9696" len="21"/>
          <note pan="0" key="36" vol="60" pos="9720" len="21"/>
          <note pan="0" key="58" vol="83" pos="9744" len="43"/>
          <note pan="0" key="34" vol="62" pos="9744" len="43"/>
          <note pan="0" key="60" vol="89" pos="9792" len="43"/>
          <note pan="0" key="39" vol="67" pos="9792" len="21"/>
          <note pan="0" key="43" vol="60" pos="9816" len="21"/>
          <note pan="0" key="62" vol="83" pos="9840" len="21"/>
          <note pan="0" key="48" vol="62" pos="9840" len="43"/>
          <note pan="0" key="63" vol="80" pos="9864" len="21"/>
          <note pan="0" key="62" vol="86" pos="9888" len="43"/>
          <note pan="0" key="45" vol="64" pos="9888" len="21"/>
          <note pan="0" key="41" vol="60" pos="9912" len="21"/>
          <note pan="0" key="60" vol="83" pos="9936" len="43"/>
          <note pan="0" key="36" vol="62" pos="9936" len="43"/>
          <note pan="0" key="62" vol="89" pos="9984" len="43"/>
          <note pan="0" key="34" vol="67" pos="9984" len="21"/>
          <note pan="0" key="38" vol="60" pos="10008" len="21"/>
          <note pan="0" key="58" vol="83" pos="10032" len="43"/>
          <note pan="0" key="41" vol="62" pos="10032" len="21"/>
          <note pan="0" key="45" vol="60" pos="10056" len="21"/>
          <note pan="0" key="53" vol="86" pos="10080" len="64"/>
          <note pan="0" key="39" vol="64" pos="10080" len="21"/>
          <note pan="0" key="36" vol="60" pos="10104" len="21"/>
          <note pan="0" key="34" vol="62" pos="10128" len="43"/>
          <note pan="0" key="53" vol="80" pos="10152" len="21"/>
          <note pan="0" key="58" vol="89" pos="10176" len="64"/>
          <note pan="0" key="34" vol="67" pos="10176" len="21"/>
          <note pan="0" key="41" vol="60" pos="10200" len="21"/>
          <note pan="0" key="50" vol="62" pos="10224" len="43"/>
          <note pan="0" key="60" vol="80" pos="10248" len="21"/>
          <note pan="0" key="62" vol="86" pos="10272" len="43"/>
          <note pan="0" key="46" vol="64" pos="10272" len="21"/>
          <note pan="0" key="41" vol="60" pos="10296" len="21"/>
          <note pan="0" key="63" vol="83" pos="10320" len="43"/>
          <note pan="0" key="38" vol="62" pos="10320" len="43"/>
          <note pan="0" key="65" vol="89" pos="10368" len="43"/>
          <note pan="0" key="36" vol="67" pos="10368" len="21"/>
          <note pan="0" key="41" vol="60" pos="10392" len="21"/>
          <note pan="0" key="63" vol="83" pos="10416" len="21"/>
          <note pan="0" key="45" vol="62" pos="10416" len="43"/>
          <note pan="0" key="62" vol="80" pos="10440" len="21"/>
          <note pan="0" key="60" vol="86" pos="10464" len="43"/>
          <note pan="0" key="41" vol="64" pos="10464" len="21"/>
          <note pan="0" key="36" vol="60" pos="10488" len="21"/>
          <note pan="0" key="58" vol="83" pos="10512" len="43"/>
          <note pan="0" key="34" vol="62" pos="10512" len="43"/>
          <note pan="0" key="60" vol="89" pos="10560" len="43"/>
          <note pan="0" key="39" vol="67" pos="10560" len="21"/>
          <note pan="0" key="43" vol="60" pos="10584" len="21"/>
          <note pan="0" key="62" vol="83" pos="10608" len="21"/>
          <note pan="0" key="48" vol="62" pos="10608" len="43"/>
          <note pan="0" key="63" vol="80" pos="10632" len="21"/>
          <note pan="0" key="62" vol="86" pos="10656" len="43"/>
          <note pan="0" key="33" vol="64" pos="10656" len="21"/>
          <note pan="0" key="36" vol="60" pos="10680" len="21"/>
          <note pan="0" key="60" vol="83" pos="10704" len="43"/>
          <note pan="0" key="41" vol="62" pos="10704" len="43"/>
          <note pan="0" key="63" vol="89" pos="10752" len="43"/>
          <note pan="0" key="39" vol="67" pos="10752" len="21"/>
          <note pan="0" key="38" vol="60" pos="10776" len="21"/>
          <note pan="0" key="57" vol="83" pos="10800" len="43"/>
          <note pan="0" key="41" vol="62" pos="10800" len="21"/>
          <note pan="0" key="29" vol="60" pos="10824" len="21"/>
          <note pan="0" key="58" vol="86" pos="10848" len="86"/>
          <note pan="0" key="34" vol="64" pos="10848" len="86"/>
          <note pan="0" key="58" vol="67" pos="10944" len="43"/>
          <note pan="0" key="34" vol="67" pos="10944" len="21"/>
          <note pan="0" key="41" vol="60" pos="10968" len="21"/>
          <note pan="0" key="60" vol="62" pos="10992" len="21"/>
          <note pan="0" key="46" vol="62" pos="10992" len="21"/>
          <note pan="0" key="62" vol="60" pos="11016" len="21"/>
          <note pan="0" key="50" vol="60" pos="11016" len="21"/>
          <note pan="0" key="63" vol="64" pos="11040" len="43"/>
          <note pan="0" key="41" vol="64" pos="11040" len="86"/>
          <note pan="0" key="46" vol="64" pos="11040" len="86"/>
          <note pan="0" key="50" vol="64" pos="11040" len="86"/>
          <note pan="0" key="65" vol="62" pos="11088" len="43"/>
          <note pan="0" key="67" vol="67" pos="11136" len="43"/>
          <note pan="0" key="31" vol="67" pos="11136" len="21"/>
          <note pan="0" key="43" vol="60" pos="11160" len="21"/>
          <note pan="0" key="65" vol="62" pos="11184" len="21"/>
          <note pan="0" key="46" vol="62" pos="11184" len="21"/>
          <note pan="0" key="63" vol="60" pos="11208" len="21"/>
          <note pan="0" key="50" vol="60" pos="11208" len="21"/>
          <note pan="0" key="62" vol="64" pos="11232" len="43"/>
          <note pan="0" key="46" vol="64" pos="11232" len="86"/>
          <note pan="0" key="50" vol="64" pos="11232" len="86"/>
          <note pan="0" key="43" vol="64" pos="11232" len="86"/>
          <note pan="0" key="60" vol="62" pos="11280" len="43"/>
          <note pan="0" key="62" vol="67" pos="11328" len="43"/>
          <note pan="0" key="38" vol="67" pos="11328" len="21"/>
          <note pan="0" key="41" vol="60" pos="11352" len="21"/>
          <note pan="0" key="63" vol="62" pos="11376" len="21"/>
          <note pan="0" key="45" vol="62" pos="11376" len="21"/>
          <note pan="0" key="65" vol="60" pos="11400" len="21"/>
          <note pan="0" key="50" vol="60" pos="11400" len="21"/>
          <note pan="0" key="63" vol="64" pos="11424" len="43"/>
          <note pan="0" key="50" vol="64" pos="11424" len="86"/>
          <note pan="0" key="41" vol="64" pos="11424" len="86"/>
          <note pan="0" key="45" vol="64" pos="11424" len="86"/>
          <note pan="0" key="62" vol="62" pos="11472" len="43"/>
          <note pan="0" key="63" vol="67" pos="11520" len="43"/>
          <note pan="0" key="36" vol="67" pos="11520" len="21"/>
          <note pan="0" key="41" vol="60" pos="11544" len="21"/>
          <note pan="0" key="60" vol="62" pos="11568" len="43"/>
          <note pan="0" key="45" vol="62" pos="11568" len="21"/>
          <note pan="0" key="51" vol="60" pos="11592" len="21"/>
          <note pan="0" key="62" vol="64" pos="11616" len="86"/>
          <note pan="0" key="46" vol="64" pos="11616" len="86"/>
          <note pan="0" key="41" vol="64" pos="11616" len="86"/>
          <note pan="0" key="50" vol="64" pos="11616" len="86"/>
          <note pan="0" key="58" vol="67" pos="11712" len="43"/>
          <note pan="0" key="34" vol="67" pos="11712" len="21"/>
          <note pan="0" key="41" vol="60" pos="11736" len="21"/>
          <note pan="0" key="60" vol="62" pos="11760" len="21"/>
          <note pan="0" key="46" vol="62" pos="11760" len="21"/>
          <note pan="0" key="62" vol="60" pos="11784" len="21"/>
          <note pan="0" key="50" vol="60" pos="11784" len="21"/>
          <note pan="0" key="63" vol="64" pos="11808" len="43"/>
          <note pan="0" key="41" vol="64" pos="11808" len="86"/>
          <note pan="0" key="50" vol="64" pos="11808" len="86"/>
          <note pan="0" key="46" vol="64" pos="11808" len="86"/>
          <note pan="0" key="65" vol="62" pos="11856" len="43"/>
          <note pan="0" key="67" vol="67" pos="11904" len="43"/>
          <note pan="0" key="31" vol="67" pos="11904" len="21"/>
          <note pan="0" key="43" vol="60" pos="11928" len="21"/>
          <note pan="0" key="65" vol="62" pos="11952" len="21"/>
          <note pan="0" key="46" vol="62" pos="11952" len="21"/>
          <note pan="0" key="63" vol="60" pos="11976" len="21"/>
          <note pan="0" key="50" vol="60" pos="11976" len="21"/>
          <note pan="0" key="62" vol="64" pos="12000" len="43"/>
          <note pan="0" key="43" vol="64" pos="12000" len="86"/>
          <note pan="0" key="46" vol="64" pos="12000" len="86"/>
          <note pan="0" key="50" vol="64" pos="12000" len="86"/>
          <note pan="0" key="60" vol="62" pos="12048" len="43"/>
          <note pan="0" key="62" vol="67" pos="12096" len="43"/>
          <note pan="0" key="38" vol="67" pos="12096" len="21"/>
          <note pan="0" key="41" vol="60" pos="12120" len="21"/>
          <note pan="0" key="63" vol="62" pos="12144" len="21"/>
          <note pan="0" key="45" vol="62" pos="12144" len="21"/>
          <note pan="0" key="65" vol="60" pos="12168" len="21"/>
          <note pan="0" key="50" vol="60" pos="12168" len="21"/>
          <note pan="0" key="63" vol="64" pos="12192" len="43"/>
          <note pan="0" key="41" vol="64" pos="12192" len="86"/>
          <note pan="0" key="45" vol="64" pos="12192" len="86"/>
          <note pan="0" key="50" vol="64" pos="12192" len="86"/>
          <note pan="0" key="62" vol="62" pos="12240" len="43"/>
          <note pan="0" key="67" vol="87" pos="12288" len="43"/>
          <note pan="0" key="38" vol="67" pos="12288" len="21"/>
          <note pan="0" key="43" vol="60" pos="12312" len="21"/>
          <note pan="0" key="59" vol="80" pos="12336" len="43"/>
          <note pan="0" key="47" vol="62" pos="12336" len="21"/>
          <note pan="0" key="51" vol="60" pos="12360" len="21"/>
          <note pan="0" key="60" vol="83" pos="12384" len="86"/>
          <note pan="0" key="43" vol="64" pos="12384" len="86"/>
          <note pan="0" key="52" vol="64" pos="12384" len="86"/>
          <note pan="0" key="48" vol="64" pos="12384" len="86"/>
          <note pan="0" key="60" vol="67" pos="12480" len="43"/>
          <note pan="0" key="36" vol="67" pos="12480" len="21"/>
          <note pan="0" key="43" vol="60" pos="12504" len="21"/>
          <note pan="0" key="62" vol="62" pos="12528" len="21"/>
          <note pan="0" key="48" vol="62" pos="12528" len="21"/>
          <note pan="0" key="64" vol="60" pos="12552" len="21"/>
          <note pan="0" key="52" vol="60" pos="12552" len="21"/>
          <note pan="0" key="65" vol="64" pos="12576" len="43"/>
          <note pan="0" key="43" vol="64" pos="12576" len="86"/>
          <note pan="0" key="52" vol="64" pos="12576" len="86"/>
          <note pan="0" key="48" vol="64" pos="12576" len="86"/>
          <note pan="0" key="67" vol="62" pos="12624" len="43"/>
          <note pan="0" key="69" vol="67" pos="12672" len="43"/>
          <note pan="0" key="33" vol="67" pos="12672" len="21"/>
          <note pan="0" key="45" vol="60" pos="12696" len="21"/>
          <note pan="0" key="67" vol="62" pos="12720" len="21"/>
          <note pan="0" key="48" vol="62" pos="12720" len="21"/>
          <note pan="0" key="65" vol="60" pos="12744" len="21"/>
          <note pan="0" key="52" vol="60" pos="12744" len="21"/>
          <note pan="0" key="64" vol="64" pos="12768" len="43"/>
          <note pan="0" key="45" vol="64" pos="12768" len="86"/>
          <note pan="0" key="48" vol="64" pos="12768" len="86"/>
          <note pan="0" key="52" vol="64" pos="12768" len="86"/>
          <note pan="0" key="62" vol="62" pos="12816" len="43"/>
          <note pan="0" key="64" vol="67" pos="12864" len="43"/>
          <note pan="0" key="40" vol="67" pos="12864" len="21"/>
          <note pan="0" key="43" vol="60" pos="12888" len="21"/>
          <note pan="0" key="65" vol="62" pos="12912" len="21"/>
          <note pan="0" key="47" vol="62" pos="12912" len="21"/>
          <note pan="0" key="67" vol="60" pos="12936" len="21"/>
          <note pan="0" key="52" vol="60" pos="12936" len="21"/>
          <note pan="0" key="65" vol="64" pos="12960" len="43"/>
          <note pan="0" key="43" vol="64" pos="12960" len="86"/>
          <note pan="0" key="52" vol="64" pos="12960" len="86"/>
          <note pan="0" key="47" vol="64" pos="12960" len="86"/>
          <note pan="0" key="64" vol="62" pos="13008" len="43"/>
          <note pan="0" key="65" vol="67" pos="13056" len="43"/>
          <note pan="0" key="38" vol="67" pos="13056" len="21"/>
          <note pan="0" key="43" vol="60" pos="13080" len="21"/>
          <note pan="0" key="62" vol="62" pos="13104" len="43"/>
          <note pan="0" key="47" vol="62" pos="13104" len="21"/>
          <note pan="0" key="53" vol="60" pos="13128" len="21"/>
          <note pan="0" key="64" vol="64" pos="13152" len="86"/>
          <note pan="0" key="52" vol="64" pos="13152" len="86"/>
          <note pan="0" key="48" vol="64" pos="13152" len="86"/>
          <note pan="0" key="43" vol="64" pos="13152" len="86"/>
          <note pan="0" key="60" vol="67" pos="13248" len="43"/>
          <note pan="0" key="36" vol="67" pos="13248" len="21"/>
          <note pan="0" key="43" vol="60" pos="13272" len="21"/>
          <note pan="0" key="62" vol="62" pos="13296" len="21"/>
          <note pan="0" key="48" vol="62" pos="13296" len="21"/>
          <note pan="0" key="64" vol="60" pos="13320" len="21"/>
          <note pan="0" key="52" vol="60" pos="13320" len="21"/>
          <note pan="0" key="65" vol="64" pos="13344" len="43"/>
          <note pan="0" key="43" vol="64" pos="13344" len="86"/>
          <note pan="0" key="52" vol="64" pos="13344" len="86"/>
          <note pan="0" key="48" vol="64" pos="13344" len="86"/>
          <note pan="0" key="67" vol="62" pos="13392" len="43"/>
          <note pan="0" key="69" vol="67" pos="13440" len="43"/>
          <note pan="0" key="33" vol="67" pos="13440" len="21"/>
          <note pan="0" key="45" vol="60" pos="13464" len="21"/>
          <note pan="0" key="67" vol="62" pos="13488" len="21"/>
          <note pan="0" key="48" vol="62" pos="13488" len="21"/>
          <note pan="0" key="65" vol="60" pos="13512" len="21"/>
          <note pan="0" key="52" vol="60" pos="13512" len="21"/>
          <note pan="0" key="64" vol="64" pos="13536" len="43"/>
          <note pan="0" key="52" vol="64" pos="13536" len="86"/>
          <note pan="0" key="48" vol="64" pos="13536" len="86"/>
          <note pan="0" key="45" vol="64" pos="13536" len="86"/>
          <note pan="0" key="62" vol="62" pos="13584" len="43"/>
          <note pan="0" key="64" vol="67" pos="13632" len="43"/>
          <note pan="0" key="31" vol="67" pos="13632" len="21"/>
          <note pan="0" key="40" vol="60" pos="13656" len="21"/>
          <note pan="0" key="65" vol="62" pos="13680" len="21"/>
          <note pan="0" key="43" vol="62" pos="13680" len="21"/>
          <note pan="0" key="67" vol="60" pos="13704" len="21"/>
          <note pan="0" key="48" vol="60" pos="13704" len="21"/>
          <note pan="0" key="65" vol="64" pos="13728" len="43"/>
          <note pan="0" key="41" vol="64" pos="13728" len="86"/>
          <note pan="0" key="45" vol="64" pos="13728" len="86"/>
          <note pan="0" key="36" vol="64" pos="13728" len="86"/>
          <note pan="0" key="57" vol="62" pos="13776" len="43"/>
          <note pan="0" key="60" vol="67" pos="13824" len="21"/>
          <note pan="0" key="36" vol="67" pos="13824" len="21"/>
          <note pan="0" key="64" vol="60" pos="13848" len="21"/>
          <note pan="0" key="43" vol="60" pos="13848" len="21"/>
          <note pan="0" key="67" vol="62" pos="13872" len="21"/>
          <note pan="0" key="46" vol="62" pos="13872" len="21"/>
          <note pan="0" key="70" vol="60" pos="13896" len="21"/>
          <note pan="0" key="40" vol="60" pos="13896" len="21"/>
          <note pan="0" key="60" vol="64" pos="13920" len="86"/>
          <note pan="0" key="65" vol="64" pos="13920" len="86"/>
          <note pan="0" key="69" vol="64" pos="13920" len="86"/>
          <note pan="0" key="41" vol="64" pos="13920" len="86"/>
          <note pan="0" key="65" vol="100" pos="14016" len="43"/>
          <note pan="0" key="41" vol="67" pos="14016" len="21"/>
          <note pan="0" key="45" vol="60" pos="14040" len="21"/>
          <note pan="0" key="62" vol="93" pos="14064" len="21"/>
          <note pan="0" key="48" vol="62" pos="14064" len="43"/>
          <note pan="0" key="64" vol="90" pos="14088" len="21"/>
          <note pan="0" key="65" vol="97" pos="14112" len="43"/>
          <note pan="0" key="47" vol="64" pos="14112" len="21"/>
          <note pan="0" key="44" vol="60" pos="14136" len="21"/>
          <note pan="0" key="62" vol="93" pos="14160" len="43"/>
          <note pan="0" key="40" vol="62" pos="14160" len="43"/>
          <note pan="0" key="64" vol="100" pos="14208" len="43"/>
          <note pan="0" key="36" vol="67" pos="14208" len="21"/>
          <note pan="0" key="40" vol="60" pos="14232" len="21"/>
          <note pan="0" key="60" vol="93" pos="14256" len="43"/>
          <note pan="0" key="45" vol="62" pos="14256" len="43"/>
          <note pan="0" key="57" vol="97" pos="14304" len="21"/>
          <note pan="0" key="41" vol="64" pos="14304" len="21"/>
          <note pan="0" key="58" vol="90" pos="14328" len="21"/>
          <note pan="0" key="46" vol="60" pos="14328" len="21"/>
          <note pan="0" key="60" vol="93" pos="14352" len="21"/>
          <note pan="0" key="38" vol="62" pos="14352" len="43"/>
          <note pan="0" key="62" vol="90" pos="14376" len="21"/>
          <note pan="0" key="63" vol="100" pos="14400" len="43"/>
          <note pan="0" key="39" vol="67" pos="14400" len="21"/>
          <note pan="0" key="43" vol="60" pos="14424" len="21"/>
          <note pan="0" key="60" vol="93" pos="14448" len="21"/>
          <note pan="0" key="46" vol="62" pos="14448" len="43"/>
          <note pan="0" key="62" vol="90" pos="14472" len="21"/>
          <note pan="0" key="63" vol="97" pos="14496" len="43"/>
          <note pan="0" key="45" vol="64" pos="14496" len="21"/>
          <note pan="0" key="42" vol="60" pos="14520" len="21"/>
          <note pan="0" key="60" vol="93" pos="14544" len="43"/>
          <note pan="0" key="38" vol="62" pos="14544" len="43"/>
          <note pan="0" key="62" vol="100" pos="14592" len="43"/>
          <note pan="0" key="43" vol="67" pos="14592" len="21"/>
          <note pan="0" key="46" vol="60" pos="14616" len="21"/>
          <note pan="0" key="58" vol="93" pos="14640" len="43"/>
          <note pan="0" key="50" vol="62" pos="14640" len="21"/>
          <note pan="0" key="38" vol="60" pos="14664" len="21"/>
          <note pan="0" key="55" vol="97" pos="14688" len="86"/>
          <note pan="0" key="43" vol="64" pos="14688" len="86"/>
          <note pan="0" key="65" vol="100" pos="14784" len="43"/>
          <note pan="0" key="41" vol="67" pos="14784" len="21"/>
          <note pan="0" key="45" vol="60" pos="14808" len="21"/>
          <note pan="0" key="62" vol="93" pos="14832" len="21"/>
          <note pan="0" key="48" vol="62" pos="14832" len="43"/>
          <note pan="0" key="64" vol="90" pos="14856" len="21"/>
          <note pan="0" key="65" vol="97" pos="14880" len="43"/>
          <note pan="0" key="47" vol="64" pos="14880" len="21"/>
          <note pan="0" key="44" vol="60" pos="14904" len="21"/>
          <note pan="0" key="62" vol="93" pos="14928" len="43"/>
          <note pan="0" key="40" vol="62" pos="14928" len="43"/>
          <note pan="0" key="64" vol="100" pos="14976" len="43"/>
          <note pan="0" key="36" vol="67" pos="14976" len="21"/>
          <note pan="0" key="40" vol="60" pos="15000" len="21"/>
          <note pan="0" key="60" vol="93" pos="15024" len="43"/>
          <note pan="0" key="45" vol="62" pos="15024" len="43"/>
          <note pan="0" key="57" vol="97" pos="15072" len="21"/>
          <note pan="0" key="41" vol="64" pos="15072" len="21"/>
          <note pan="0" key="58" vol="90" pos="15096" len="21"/>
          <note pan="0" key="46" vol="60" pos="15096" len="21"/>
          <note pan="0" key="60" vol="93" pos="15120" len="21"/>
          <note pan="0" key="38" vol="62" pos="15120" len="43"/>
          <note pan="0" key="62" vol="90" pos="15144" len="21"/>
          <note pan="0" key="60" vol="100" pos="15168" len="43"/>
          <note pan="0" key="36" vol="67" pos="15168" len="21"/>
          <note pan="0" key="41" vol="60" pos="15192" len="21"/>
          <note pan="0" key="57" vol="93" pos="15216" len="21"/>
          <note pan="0" key="45" vol="62" pos="15216" len="43"/>
          <note pan="0" key="58" vol="90" pos="15240" len="21"/>
          <note pan="0" key="60" vol="97" pos="15264" len="43"/>
          <note pan="0" key="41" vol="64" pos="15264" len="21"/>
          <note pan="0" key="45" vol="60" pos="15288" len="21"/>
          <note pan="0" key="57" vol="93" pos="15312" len="43"/>
          <note pan="0" key="48" vol="62" pos="15312" len="43"/>
          <note pan="0" key="58" vol="100" pos="15360" len="43"/>
          <note pan="0" key="48" vol="67" pos="15360" len="21"/>
          <note pan="0" key="43" vol="60" pos="15384" len="21"/>
          <note pan="0" key="55" vol="93" pos="15408" len="43"/>
          <note pan="0" key="46" vol="62" pos="15408" len="21"/>
          <note pan="0" key="40" vol="60" pos="15432" len="21"/>
          <note pan="0" key="53" vol="97" pos="15456" len="86"/>
          <note pan="0" key="41" vol="64" pos="15456" len="86"/>
          <note pan="0" key="53" vol="67" pos="15552" len="21"/>
          <note pan="0" key="48" vol="67" pos="15552" len="86"/>
          <note pan="0" key="45" vol="67" pos="15552" len="86"/>
          <note pan="0" key="41" vol="67" pos="15552" len="86"/>
          <note pan="0" key="55" vol="60" pos="15576" len="21"/>
          <note pan="0" key="57" vol="64" pos="15600" len="21"/>
          <note pan="0" key="58" vol="64" pos="15624" len="21"/>
          <note pan="0" key="60" vol="72" pos="15648" len="86"/>
          <note pan="0" key="40" vol="64" pos="15648" len="21"/>
          <note pan="0" key="43" vol="60" pos="15672" len="21"/>
          <note pan="0" key="48" vol="62" pos="15696" len="21"/>
          <note pan="0" key="52" vol="60" pos="15720" len="21"/>
          <note pan="0" key="55" vol="85" pos="15744" len="21"/>
          <note pan="0" key="43" vol="67" pos="15744" len="86"/>
          <note pan="0" key="48" vol="67" pos="15744" len="86"/>
          <note pan="0" key="52" vol="67" pos="15744" len="86"/>
          <note pan="0" key="57" vol="78" pos="15768" len="21"/>
          <note pan="0" key="58" vol="84" pos="15792" len="21"/>
          <note pan="0" key="60" vol="83" pos="15816" len="21"/>
          <note pan="0" key="62" vol="92" pos="15840" len="86"/>
          <note pan="0" key="38" vol="64" pos="15840" len="21"/>
          <note pan="0" key="43" vol="60" pos="15864" len="21"/>
          <note pan="0" key="46" vol="62" pos="15888" len="21"/>
          <note pan="0" key="50" vol="60" pos="15912" len="21"/>
          <note pan="0" key="57" vol="106" pos="15936" len="21"/>
          <note pan="0" key="46" vol="67" pos="15936" len="86"/>
          <note pan="0" key="50" vol="67" pos="15936" len="86"/>
          <note pan="0" key="43" vol="67" pos="15936" len="86"/>
          <note pan="0" key="58" vol="97" pos="15960" len="21"/>
          <note pan="0" key="60" vol="104" pos="15984" len="21"/>
          <note pan="0" key="62" vol="102" pos="16008" len="21"/>
          <note pan="0" key="64" vol="127" pos="16032" len="21"/>
          <note pan="0" key="40" vol="64" pos="16032" len="86"/>
          <note pan="0" key="43" vol="64" pos="16032" len="86"/>
          <note pan="0" key="48" vol="64" pos="16032" len="86"/>
          <note pan="0" key="62" vol="105" pos="16056" len="21"/>
          <note pan="0" key="60" vol="104" pos="16080" len="21"/>
          <note pan="0" key="58" vol="95" pos="16104" len="21"/>
          <note pan="0" key="57" vol="100" pos="16128" len="43"/>
          <note pan="0" key="41" vol="67" pos="16128" len="43"/>
          <note pan="0" key="36" vol="67" pos="16128" len="43"/>
          <note pan="0" key="45" vol="67" pos="16128" len="43"/>
          <note pan="0" key="55" vol="93" pos="16176" len="43"/>
          <note pan="0" key="46" vol="62" pos="16176" len="43"/>
          <note pan="0" key="48" vol="62" pos="16176" len="43"/>
          <note pan="0" key="40" vol="62" pos="16176" len="43"/>
          <note pan="0" key="57" vol="97" pos="16224" len="86"/>
          <note pan="0" key="41" vol="64" pos="16224" len="86"/>
          <note pan="0" key="45" vol="64" pos="16224" len="86"/>
          <note pan="0" key="48" vol="64" pos="16224" len="86"/>
          <note pan="0" key="53" vol="89" pos="16320" len="21"/>
          <note pan="0" key="45" vol="67" pos="16320" len="86"/>
          <note pan="0" key="41" vol="67" pos="16320" len="86"/>
          <note pan="0" key="55" vol="80" pos="16344" len="21"/>
          <note pan="0" key="57" vol="84" pos="16368" len="21"/>
          <note pan="0" key="58" vol="83" pos="16392" len="21"/>
          <note pan="0" key="60" vol="90" pos="16416" len="86"/>
          <note pan="0" key="40" vol="64" pos="16416" len="21"/>
          <note pan="0" key="43" vol="60" pos="16440" len="21"/>
          <note pan="0" key="48" vol="62" pos="16464" len="21"/>
          <note pan="0" key="52" vol="60" pos="16488" len="21"/>
          <note pan="0" key="55" vol="101" pos="16512" len="21"/>
          <note pan="0" key="43" vol="67" pos="16512" len="86"/>
          <note pan="0" key="48" vol="67" pos="16512" len="86"/>
          <note pan="0" key="52" vol="67" pos="16512" len="86"/>
          <note pan="0" key="57" vol="92" pos="16536" len="21"/>
          <note pan="0" key="58" vol="97" pos="16560" len="21"/>
          <note pan="0" key="60" vol="95" pos="16584" len="21"/>
          <note pan="0" key="62" vol="104" pos="16608" len="86"/>
          <note pan="0" key="38" vol="64" pos="16608" len="21"/>
          <note pan="0" key="43" vol="60" pos="16632" len="21"/>
          <note pan="0" key="46" vol="62" pos="16656" len="21"/>
          <note pan="0" key="50" vol="60" pos="16680" len="21"/>
          <note pan="0" key="57" vol="115" pos="16704" len="21"/>
          <note pan="0" key="43" vol="67" pos="16704" len="86"/>
          <note pan="0" key="50" vol="67" pos="16704" len="86"/>
          <note pan="0" key="46" vol="67" pos="16704" len="86"/>
          <note pan="0" key="58" vol="105" pos="16728" len="21"/>
          <note pan="0" key="60" vol="110" pos="16752" len="21"/>
          <note pan="0" key="62" vol="108" pos="16776" len="21"/>
          <note pan="0" key="64" vol="127" pos="16800" len="21"/>
          <note pan="0" key="45" vol="64" pos="16800" len="86"/>
          <note pan="0" key="50" vol="64" pos="16800" len="86"/>
          <note pan="0" key="42" vol="64" pos="16800" len="86"/>
          <note pan="0" key="62" vol="110" pos="16824" len="21"/>
          <note pan="0" key="64" vol="112" pos="16848" len="21"/>
          <note pan="0" key="66" vol="106" pos="16872" len="21"/>
          <note pan="0" key="67" vol="127" pos="16896" len="43"/>
          <note pan="0" key="43" vol="67" pos="16896" len="21"/>
          <note pan="0" key="50" vol="60" pos="16920" len="21"/>
          <note pan="0" key="59" vol="127" pos="16944" len="43"/>
          <note pan="0" key="47" vol="62" pos="16944" len="21"/>
          <note pan="0" key="35" vol="60" pos="16968" len="21"/>
          <note pan="0" key="60" vol="127" pos="16992" len="86"/>
          <note pan="0" key="36" vol="64" pos="16992" len="86"/>
          <note pan="0" key="60" vol="67" pos="17088" len="21"/>
          <note pan="0" key="36" vol="67" pos="17088" len="86"/>
          <note pan="0" key="40" vol="67" pos="17088" len="86"/>
          <note pan="0" key="43" vol="67" pos="17088" len="86"/>
          <note pan="0" key="62" vol="60" pos="17112" len="21"/>
          <note pan="0" key="64" vol="64" pos="17136" len="21"/>
          <note pan="0" key="65" vol="64" pos="17160" len="21"/>
          <note pan="0" key="67" vol="72" pos="17184" len="86"/>
          <note pan="0" key="35" vol="64" pos="17184" len="21"/>
          <note pan="0" key="38" vol="60" pos="17208" len="21"/>
          <note pan="0" key="43" vol="62" pos="17232" len="21"/>
          <note pan="0" key="47" vol="60" pos="17256" len="21"/>
          <note pan="0" key="62" vol="85" pos="17280" len="21"/>
          <note pan="0" key="38" vol="67" pos="17280" len="86"/>
          <note pan="0" key="47" vol="67" pos="17280" len="86"/>
          <note pan="0" key="43" vol="67" pos="17280" len="86"/>
          <note pan="0" key="64" vol="78" pos="17304" len="21"/>
          <note pan="0" key="65" vol="84" pos="17328" len="21"/>
          <note pan="0" key="67" vol="83" pos="17352" len="21"/>
          <note pan="0" key="69" vol="92" pos="17376" len="86"/>
          <note pan="0" key="33" vol="64" pos="17376" len="21"/>
          <note pan="0" key="38" vol="60" pos="17400" len="21"/>
          <note pan="0" key="41" vol="62" pos="17424" len="21"/>
          <note pan="0" key="45" vol="60" pos="17448" len="21"/>
          <note pan="0" key="64" vol="106" pos="17472" len="21"/>
          <note pan="0" key="41" vol="67" pos="17472" len="86"/>
          <note pan="0" key="45" vol="67" pos="17472" len="86"/>
          <note pan="0" key="38" vol="67" pos="17472" len="86"/>
          <note pan="0" key="65" vol="97" pos="17496" len="21"/>
          <note pan="0" key="67" vol="104" pos="17520" len="21"/>
          <note pan="0" key="69" vol="102" pos="17544" len="21"/>
          <note pan="0" key="71" vol="127" pos="17568" len="21"/>
          <note pan="0" key="35" vol="64" pos="17568" len="86"/>
          <note pan="0" key="43" vol="64" pos="17568" len="86"/>
          <note pan="0" key="38" vol="64" pos="17568" len="86"/>
          <note pan="0" key="69" vol="105" pos="17592" len="21"/>
          <note pan="0" key="67" vol="104" pos="17616" len="21"/>
          <note pan="0" key="65" vol="95" pos="17640" len="21"/>
          <note pan="0" key="64" vol="100" pos="17664" len="43"/>
          <note pan="0" key="36" vol="67" pos="17664" len="43"/>
          <note pan="0" key="31" vol="67" pos="17664" len="43"/>
          <note pan="0" key="40" vol="67" pos="17664" len="43"/>
          <note pan="0" key="62" vol="93" pos="17712" len="43"/>
          <note pan="0" key="43" vol="62" pos="17712" len="43"/>
          <note pan="0" key="41" vol="62" pos="17712" len="43"/>
          <note pan="0" key="35" vol="62" pos="17712" len="43"/>
          <note pan="0" key="64" vol="97" pos="17760" len="86"/>
          <note pan="0" key="36" vol="64" pos="17760" len="86"/>
          <note pan="0" key="40" vol="64" pos="17760" len="86"/>
          <note pan="0" key="43" vol="64" pos="17760" len="86"/>
          <note pan="0" key="60" vol="89" pos="17856" len="21"/>
          <note pan="0" key="40" vol="67" pos="17856" len="86"/>
          <note pan="0" key="36" vol="67" pos="17856" len="86"/>
          <note pan="0" key="43" vol="67" pos="17856" len="86"/>
          <note pan="0" key="62" vol="80" pos="17880" len="21"/>
          <note pan="0" key="64" vol="84" pos="17904" len="21"/>
          <note pan="0" key="65" vol="83" pos="17928" len="21"/>
          <note pan="0" key="67" vol="90" pos="17952" len="86"/>
          <note pan="0" key="35" vol="64" pos="17952" len="21"/>
          <note pan="0" key="38" vol="60" pos="17976" len="21"/>
          <note pan="0" key="43" vol="62" pos="18000" len="21"/>
          <note pan="0" key="47" vol="60" pos="18024" len="21"/>
          <note pan="0" key="62" vol="101" pos="18048" len="21"/>
          <note pan="0" key="38" vol="67" pos="18048" len="86"/>
          <note pan="0" key="47" vol="67" pos="18048" len="86"/>
          <note pan="0" key="43" vol="67" pos="18048" len="86"/>
          <note pan="0" key="64" vol="92" pos="18072" len="21"/>
          <note pan="0" key="65" vol="97" pos="18096" len="21"/>
          <note pan="0" key="67" vol="95" pos="18120" len="21"/>
          <note pan="0" key="69" vol="104" pos="18144" len="86"/>
          <note pan="0" key="33" vol="64" pos="18144" len="21"/>
          <note pan="0" key="38" vol="60" pos="18168" len="21"/>
          <note pan="0" key="41" vol="62" pos="18192" len="21"/>
          <note pan="0" key="45" vol="60" pos="18216" len="21"/>
          <note pan="0" key="64" vol="115" pos="18240" len="21"/>
          <note pan="0" key="45" vol="67" pos="18240" len="86"/>
          <note pan="0" key="41" vol="67" pos="18240" len="86"/>
          <note pan="0" key="38" vol="67" pos="18240" len="86"/>
          <note pan="0" key="65" vol="105" pos="18264" len="21"/>
          <note pan="0" key="67" vol="110" pos="18288" len="21"/>
          <note pan="0" key="69" vol="108" pos="18312" len="21"/>
          <note pan="0" key="70" vol="127" pos="18336" len="21"/>
          <note pan="0" key="45" vol="64" pos="18336" len="86"/>
          <note pan="0" key="39" vol="64" pos="18336" len="86"/>
          <note pan="0" key="48" vol="64" pos="18336" len="86"/>
          <note pan="0" key="69" vol="110" pos="18360" len="21"/>
          <note pan="0" key="65" vol="112" pos="18384" len="21"/>
          <note pan="0" key="63" vol="106" pos="18408" len="21"/>
          <note pan="0" key="60" vol="127" pos="18432" len="43"/>
          <note pan="0" key="36" vol="67" pos="18432" len="21"/>
          <note pan="0" key="39" vol="60" pos="18456" len="21"/>
          <note pan="0" key="57" vol="127" pos="18480" len="43"/>
          <note pan="0" key="41" vol="62" pos="18480" len="21"/>
          <note pan="0" key="29" vol="60" pos="18504" len="21"/>
          <note pan="0" key="58" vol="127" pos="18528" len="86"/>
          <note pan="0" key="34" vol="64" pos="18528" len="86"/>
          <note pan="0" key="58" vol="89" pos="18624" len="21"/>
          <note pan="0" key="46" vol="89" pos="18624" len="43"/>
          <note pan="0" key="62" vol="80" pos="18648" len="21"/>
          <note pan="0" key="65" vol="83" pos="18672" len="43"/>
          <note pan="0" key="43" vol="83" pos="18672" len="21"/>
          <note pan="0" key="45" vol="80" pos="18696" len="21"/>
          <note pan="0" key="63" vol="86" pos="18720" len="21"/>
          <note pan="0" key="46" vol="86" pos="18720" len="43"/>
          <note pan="0" key="58" vol="80" pos="18744" len="21"/>
          <note pan="0" key="55" vol="83" pos="18768" len="43"/>
          <note pan="0" key="43" vol="83" pos="18768" len="43"/>
          <note pan="0" key="53" vol="89" pos="18816" len="21"/>
          <note pan="0" key="45" vol="89" pos="18816" len="43"/>
          <note pan="0" key="57" vol="80" pos="18840" len="21"/>
          <note pan="0" key="62" vol="83" pos="18864" len="43"/>
          <note pan="0" key="41" vol="83" pos="18864" len="43"/>
          <note pan="0" key="67" vol="86" pos="18912" len="21"/>
          <note pan="0" key="38" vol="86" pos="18912" len="21"/>
          <note pan="0" key="63" vol="80" pos="18936" len="21"/>
          <note pan="0" key="39" vol="80" pos="18936" len="21"/>
          <note pan="0" key="58" vol="83" pos="18960" len="43"/>
          <note pan="0" key="41" vol="83" pos="18960" len="21"/>
          <note pan="0" key="43" vol="80" pos="18984" len="21"/>
          <note pan="0" key="56" vol="89" pos="19008" len="21"/>
          <note pan="0" key="44" vol="89" pos="19008" len="43"/>
          <note pan="0" key="60" vol="80" pos="19032" len="21"/>
          <note pan="0" key="63" vol="83" pos="19056" len="43"/>
          <note pan="0" key="41" vol="83" pos="19056" len="21"/>
          <note pan="0" key="43" vol="80" pos="19080" len="21"/>
          <note pan="0" key="62" vol="86" pos="19104" len="21"/>
          <note pan="0" key="44" vol="86" pos="19104" len="43"/>
          <note pan="0" key="59" vol="80" pos="19128" len="21"/>
          <note pan="0" key="55" vol="83" pos="19152" len="43"/>
          <note pan="0" key="41" vol="83" pos="19152" len="43"/>
          <note pan="0" key="60" vol="89" pos="19200" len="21"/>
          <note pan="0" key="43" vol="89" pos="19200" len="43"/>
          <note pan="0" key="63" vol="80" pos="19224" len="21"/>
          <note pan="0" key="67" vol="83" pos="19248" len="21"/>
          <note pan="0" key="39" vol="83" pos="19248" len="43"/>
          <note pan="0" key="55" vol="80" pos="19272" len="21"/>
          <note pan="0" key="60" vol="86" pos="19296" len="86"/>
          <note pan="0" key="36" vol="86" pos="19296" len="43"/>
          <note pan="0" key="29" vol="83" pos="19344" len="43"/>
          <note pan="0" key="58" vol="89" pos="19392" len="21"/>
          <note pan="0" key="34" vol="89" pos="19392" len="64"/>
          <note pan="0" key="65" vol="80" pos="19416" len="21"/>
          <note pan="0" key="74" vol="83" pos="19440" len="43"/>
          <note pan="0" key="36" vol="80" pos="19464" len="21"/>
          <note pan="0" key="70" vol="86" pos="19488" len="21"/>
          <note pan="0" key="38" vol="86" pos="19488" len="43"/>
          <note pan="0" key="65" vol="80" pos="19512" len="21"/>
          <note pan="0" key="62" vol="83" pos="19536" len="43"/>
          <note pan="0" key="39" vol="83" pos="19536" len="43"/>
          <note pan="0" key="60" vol="89" pos="19584" len="21"/>
          <note pan="0" key="41" vol="89" pos="19584" len="43"/>
          <note pan="0" key="65" vol="80" pos="19608" len="21"/>
          <note pan="0" key="69" vol="83" pos="19632" len="43"/>
          <note pan="0" key="39" vol="83" pos="19632" len="21"/>
          <note pan="0" key="38" vol="80" pos="19656" len="21"/>
          <note pan="0" key="65" vol="86" pos="19680" len="21"/>
          <note pan="0" key="36" vol="86" pos="19680" len="43"/>
          <note pan="0" key="60" vol="80" pos="19704" len="21"/>
          <note pan="0" key="58" vol="83" pos="19728" len="43"/>
          <note pan="0" key="34" vol="83" pos="19728" len="43"/>
          <note pan="0" key="63" vol="89" pos="19776" len="21"/>
          <note pan="0" key="36" vol="89" pos="19776" len="43"/>
          <note pan="0" key="67" vol="80" pos="19800" len="21"/>
          <note pan="0" key="72" vol="83" pos="19824" len="43"/>
          <note pan="0" key="38" vol="83" pos="19824" len="21"/>
          <note pan="0" key="39" vol="80" pos="19848" len="21"/>
          <note pan="0" key="57" vol="86" pos="19872" len="21"/>
          <note pan="0" key="38" vol="86" pos="19872" len="43"/>
          <note pan="0" key="60" vol="80" pos="19896" len="21"/>
          <note pan="0" key="65" vol="83" pos="19920" len="43"/>
          <note pan="0" key="36" vol="83" pos="19920" len="43"/>
          <note pan="0" key="63" vol="89" pos="19968" len="21"/>
          <note pan="0" key="39" vol="89" pos="19968" len="43"/>
          <note pan="0" key="62" vol="80" pos="19992" len="21"/>
          <note pan="0" key="65" vol="83" pos="20016" len="21"/>
          <note pan="0" key="33" vol="83" pos="20016" len="43"/>
          <note pan="0" key="53" vol="80" pos="20040" len="21"/>
          <note pan="0" key="58" vol="86" pos="20064" len="43"/>
          <note pan="0" key="34" vol="86" pos="20064" len="86"/>
          <note pan="0" key="53" vol="83" pos="20112" len="43"/>
          <note pan="0" key="58" vol="89" pos="20160" len="64"/>
          <note pan="0" key="34" vol="67" pos="20160" len="21"/>
          <note pan="0" key="41" vol="60" pos="20184" len="21"/>
          <note pan="0" key="50" vol="62" pos="20208" len="43"/>
          <note pan="0" key="60" vol="80" pos="20232" len="21"/>
          <note pan="0" key="62" vol="86" pos="20256" len="43"/>
          <note pan="0" key="46" vol="64" pos="20256" len="21"/>
          <note pan="0" key="41" vol="60" pos="20280" len="21"/>
          <note pan="0" key="63" vol="83" pos="20304" len="43"/>
          <note pan="0" key="38" vol="62" pos="20304" len="43"/>
          <note pan="0" key="65" vol="89" pos="20352" len="43"/>
          <note pan="0" key="36" vol="67" pos="20352" len="21"/>
          <note pan="0" key="41" vol="60" pos="20376" len="21"/>
          <note pan="0" key="63" vol="83" pos="20400" len="21"/>
          <note pan="0" key="45" vol="62" pos="20400" len="43"/>
          <note pan="0" key="62" vol="80" pos="20424" len="21"/>
          <note pan="0" key="60" vol="86" pos="20448" len="43"/>
          <note pan="0" key="41" vol="64" pos="20448" len="21"/>
          <note pan="0" key="36" vol="60" pos="20472" len="21"/>
          <note pan="0" key="58" vol="83" pos="20496" len="43"/>
          <note pan="0" key="34" vol="62" pos="20496" len="43"/>
          <note pan="0" key="60" vol="89" pos="20544" len="43"/>
          <note pan="0" key="39" vol="67" pos="20544" len="21"/>
          <note pan="0" key="43" vol="60" pos="20568" len="21"/>
          <note pan="0" key="62" vol="83" pos="20592" len="21"/>
          <note pan="0" key="48" vol="62" pos="20592" len="43"/>
          <note pan="0" key="63" vol="80" pos="20616" len="21"/>
          <note pan="0" key="62" vol="86" pos="20640" len="43"/>
          <note pan="0" key="45" vol="64" pos="20640" len="21"/>
          <note pan="0" key="41" vol="60" pos="20664" len="21"/>
          <note pan="0" key="60" vol="83" pos="20688" len="43"/>
          <note pan="0" key="36" vol="62" pos="20688" len="43"/>
          <note pan="0" key="62" vol="89" pos="20736" len="43"/>
          <note pan="0" key="34" vol="67" pos="20736" len="21"/>
          <note pan="0" key="38" vol="60" pos="20760" len="21"/>
          <note pan="0" key="58" vol="83" pos="20784" len="43"/>
          <note pan="0" key="41" vol="62" pos="20784" len="21"/>
          <note pan="0" key="45" vol="60" pos="20808" len="21"/>
          <note pan="0" key="53" vol="86" pos="20832" len="64"/>
          <note pan="0" key="39" vol="64" pos="20832" len="21"/>
          <note pan="0" key="36" vol="60" pos="20856" len="21"/>
          <note pan="0" key="34" vol="62" pos="20880" len="43"/>
          <note pan="0" key="53" vol="80" pos="20904" len="21"/>
          <note pan="0" key="58" vol="89" pos="20928" len="64"/>
          <note pan="0" key="34" vol="67" pos="20928" len="21"/>
          <note pan="0" key="41" vol="60" pos="20952" len="21"/>
          <note pan="0" key="50" vol="62" pos="20976" len="43"/>
          <note pan="0" key="60" vol="80" pos="21000" len="21"/>
          <note pan="0" key="62" vol="86" pos="21024" len="43"/>
          <note pan="0" key="46" vol="64" pos="21024" len="21"/>
          <note pan="0" key="41" vol="60" pos="21048" len="21"/>
          <note pan="0" key="63" vol="83" pos="21072" len="43"/>
          <note pan="0" key="38" vol="62" pos="21072" len="43"/>
          <note pan="0" key="65" vol="89" pos="21120" len="43"/>
          <note pan="0" key="36" vol="67" pos="21120" len="21"/>
          <note pan="0" key="41" vol="60" pos="21144" len="21"/>
          <note pan="0" key="63" vol="83" pos="21168" len="21"/>
          <note pan="0" key="45" vol="62" pos="21168" len="43"/>
          <note pan="0" key="62" vol="80" pos="21192" len="21"/>
          <note pan="0" key="60" vol="86" pos="21216" len="43"/>
          <note pan="0" key="41" vol="64" pos="21216" len="21"/>
          <note pan="0" key="36" vol="60" pos="21240" len="21"/>
          <note pan="0" key="58" vol="83" pos="21264" len="43"/>
          <note pan="0" key="34" vol="62" pos="21264" len="43"/>
          <note pan="0" key="60" vol="89" pos="21312" len="43"/>
          <note pan="0" key="39" vol="67" pos="21312" len="21"/>
          <note pan="0" key="43" vol="60" pos="21336" len="21"/>
          <note pan="0" key="62" vol="83" pos="21360" len="21"/>
          <note pan="0" key="48" vol="62" pos="21360" len="43"/>
          <note pan="0" key="63" vol="80" pos="21384" len="21"/>
          <note pan="0" key="62" vol="86" pos="21408" len="43"/>
          <note pan="0" key="33" vol="64" pos="21408" len="21"/>
          <note pan="0" key="36" vol="60" pos="21432" len="21"/>
          <note pan="0" key="60" vol="83" pos="21456" len="43"/>
          <note pan="0" key="41" vol="62" pos="21456" len="43"/>
          <note pan="0" key="63" vol="89" pos="21504" len="43"/>
          <note pan="0" key="39" vol="67" pos="21504" len="21"/>
          <note pan="0" key="38" vol="60" pos="21528" len="21"/>
          <note pan="0" key="57" vol="83" pos="21552" len="43"/>
          <note pan="0" key="41" vol="62" pos="21552" len="21"/>
          <note pan="0" key="29" vol="60" pos="21576" len="21"/>
          <note pan="0" key="58" vol="86" pos="21600" len="86"/>
          <note pan="0" key="34" vol="64" pos="21600" len="86"/>
          <note pan="0" key="58" vol="67" pos="21696" len="43"/>
          <note pan="0" key="34" vol="67" pos="21696" len="21"/>
          <note pan="0" key="41" vol="60" pos="21720" len="21"/>
          <note pan="0" key="60" vol="62" pos="21744" len="21"/>
          <note pan="0" key="46" vol="62" pos="21744" len="21"/>
          <note pan="0" key="62" vol="60" pos="21768" len="21"/>
          <note pan="0" key="50" vol="60" pos="21768" len="21"/>
          <note pan="0" key="63" vol="64" pos="21792" len="43"/>
          <note pan="0" key="41" vol="64" pos="21792" len="86"/>
          <note pan="0" key="46" vol="64" pos="21792" len="86"/>
          <note pan="0" key="50" vol="64" pos="21792" len="86"/>
          <note pan="0" key="65" vol="62" pos="21840" len="43"/>
          <note pan="0" key="67" vol="67" pos="21888" len="43"/>
          <note pan="0" key="31" vol="67" pos="21888" len="21"/>
          <note pan="0" key="43" vol="60" pos="21912" len="21"/>
          <note pan="0" key="65" vol="62" pos="21936" len="21"/>
          <note pan="0" key="46" vol="62" pos="21936" len="21"/>
          <note pan="0" key="63" vol="60" pos="21960" len="21"/>
          <note pan="0" key="50" vol="60" pos="21960" len="21"/>
          <note pan="0" key="62" vol="64" pos="21984" len="43"/>
          <note pan="0" key="46" vol="64" pos="21984" len="86"/>
          <note pan="0" key="50" vol="64" pos="21984" len="86"/>
          <note pan="0" key="43" vol="64" pos="21984" len="86"/>
          <note pan="0" key="60" vol="62" pos="22032" len="43"/>
          <note pan="0" key="62" vol="67" pos="22080" len="43"/>
          <note pan="0" key="38" vol="67" pos="22080" len="21"/>
          <note pan="0" key="41" vol="60" pos="22104" len="21"/>
          <note pan="0" key="63" vol="62" pos="22128" len="21"/>
          <note pan="0" key="45" vol="62" pos="22128" len="21"/>
          <note pan="0" key="65" vol="60" pos="22152" len="21"/>
          <note pan="0" key="50" vol="60" pos="22152" len="21"/>
          <note pan="0" key="63" vol="64" pos="22176" len="43"/>
          <note pan="0" key="50" vol="64" pos="22176" len="86"/>
          <note pan="0" key="41" vol="64" pos="22176" len="86"/>
          <note pan="0" key="45" vol="64" pos="22176" len="86"/>
          <note pan="0" key="62" vol="62" pos="22224" len="43"/>
          <note pan="0" key="63" vol="67" pos="22272" len="43"/>
          <note pan="0" key="36" vol="67" pos="22272" len="21"/>
          <note pan="0" key="41" vol="60" pos="22296" len="21"/>
          <note pan="0" key="60" vol="62" pos="22320" len="43"/>
          <note pan="0" key="45" vol="62" pos="22320" len="21"/>
          <note pan="0" key="51" vol="60" pos="22344" len="21"/>
          <note pan="0" key="62" vol="64" pos="22368" len="86"/>
          <note pan="0" key="46" vol="64" pos="22368" len="86"/>
          <note pan="0" key="41" vol="64" pos="22368" len="86"/>
          <note pan="0" key="50" vol="64" pos="22368" len="86"/>
          <note pan="0" key="58" vol="67" pos="22464" len="43"/>
          <note pan="0" key="34" vol="67" pos="22464" len="21"/>
          <note pan="0" key="41" vol="60" pos="22488" len="21"/>
          <note pan="0" key="60" vol="62" pos="22512" len="21"/>
          <note pan="0" key="46" vol="62" pos="22512" len="21"/>
          <note pan="0" key="62" vol="60" pos="22536" len="21"/>
          <note pan="0" key="50" vol="60" pos="22536" len="21"/>
          <note pan="0" key="63" vol="64" pos="22560" len="43"/>
          <note pan="0" key="41" vol="64" pos="22560" len="86"/>
          <note pan="0" key="50" vol="64" pos="22560" len="86"/>
          <note pan="0" key="46" vol="64" pos="22560" len="86"/>
          <note pan="0" key="65" vol="62" pos="22608" len="43"/>
          <note pan="0" key="67" vol="67" pos="22656" len="43"/>
          <note pan="0" key="31" vol="67" pos="22656" len="21"/>
          <note pan="0" key="43" vol="60" pos="22680" len="21"/>
          <note pan="0" key="65" vol="62" pos="22704" len="21"/>
          <note pan="0" key="46" vol="62" pos="22704" len="21"/>
          <note pan="0" key="63" vol="60" pos="22728" len="21"/>
          <note pan="0" key="50" vol="60" pos="22728" len="21"/>
          <note pan="0" key="62" vol="64" pos="22752" len="43"/>
          <note pan="0" key="43" vol="64" pos="22752" len="86"/>
          <note pan="0" key="46" vol="64" pos="22752" len="86"/>
          <note pan="0" key="50" vol="64" pos="22752" len="86"/>
          <note pan="0" key="60" vol="62" pos="22800" len="43"/>
          <note pan="0" key="62" vol="67" pos="22848" len="43"/>
          <note pan="0" key="38" vol="67" pos="22848" len="21"/>
          <note pan="0" key="41" vol="60" pos="22872" len="21"/>
          <note pan="0" key="63" vol="62" pos="22896" len="21"/>
          <note pan="0" key="45" vol="62" pos="22896" len="21"/>
          <note pan="0" key="65" vol="60" pos="22920" len="21"/>
          <note pan="0" key="50" vol="60" pos="22920" len="21"/>
          <note pan="0" key="63" vol="64" pos="22944" len="43"/>
          <note pan="0" key="41" vol="64" pos="22944" len="86"/>
          <note pan="0" key="45" vol="64" pos="22944" len="86"/>
          <note pan="0" key="50" vol="64" pos="22944" len="86"/>
          <note pan="0" key="62" vol="62" pos="22992" len="43"/>
          <note pan="0" key="67" vol="87" pos="23040" len="43"/>
          <note pan="0" key="38" vol="67" pos="23040" len="21"/>
          <note pan="0" key="43" vol="60" pos="23064" len="21"/>
          <note pan="0" key="59" vol="80" pos="23088" len="43"/>
          <note pan="0" key="47" vol="62" pos="23088" len="21"/>
          <note pan="0" key="51" vol="60" pos="23112" len="21"/>
          <note pan="0" key="60" vol="83" pos="23136" len="86"/>
          <note pan="0" key="43" vol="64" pos="23136" len="86"/>
          <note pan="0" key="52" vol="64" pos="23136" len="86"/>
          <note pan="0" key="48" vol="64" pos="23136" len="86"/>
          <note pan="0" key="60" vol="67" pos="23232" len="43"/>
          <note pan="0" key="36" vol="67" pos="23232" len="21"/>
          <note pan="0" key="43" vol="60" pos="23256" len="21"/>
          <note pan="0" key="62" vol="62" pos="23280" len="21"/>
          <note pan="0" key="48" vol="62" pos="23280" len="21"/>
          <note pan="0" key="64" vol="60" pos="23304" len="21"/>
          <note pan="0" key="52" vol="60" pos="23304" len="21"/>
          <note pan="0" key="65" vol="64" pos="23328" len="43"/>
          <note pan="0" key="43" vol="64" pos="23328" len="86"/>
          <note pan="0" key="52" vol="64" pos="23328" len="86"/>
          <note pan="0" key="48" vol="64" pos="23328" len="86"/>
          <note pan="0" key="67" vol="62" pos="23376" len="43"/>
          <note pan="0" key="69" vol="67" pos="23424" len="43"/>
          <note pan="0" key="33" vol="67" pos="23424" len="21"/>
          <note pan="0" key="45" vol="60" pos="23448" len="21"/>
          <note pan="0" key="67" vol="62" pos="23472" len="21"/>
          <note pan="0" key="48" vol="62" pos="23472" len="21"/>
          <note pan="0" key="65" vol="60" pos="23496" len="21"/>
          <note pan="0" key="52" vol="60" pos="23496" len="21"/>
          <note pan="0" key="64" vol="64" pos="23520" len="43"/>
          <note pan="0" key="45" vol="64" pos="23520" len="86"/>
          <note pan="0" key="48" vol="64" pos="23520" len="86"/>
          <note pan="0" key="52" vol="64" pos="23520" len="86"/>
          <note pan="0" key="62" vol="62" pos="23568" len="43"/>
          <note pan="0" key="64" vol="67" pos="23616" len="43"/>
          <note pan="0" key="40" vol="67" pos="23616" len="21"/>
          <note pan="0" key="43" vol="60" pos="23640" len="21"/>
          <note pan="0" key="65" vol="62" pos="23664" len="21"/>
          <note pan="0" key="47" vol="62" pos="23664" len="21"/>
          <note pan="0" key="67" vol="60" pos="23688" len="21"/>
          <note pan="0" key="52" vol="60" pos="23688" len="21"/>
          <note pan="0" key="65" vol="64" pos="23712" len="43"/>
          <note pan="0" key="43" vol="64" pos="23712" len="86"/>
          <note pan="0" key="52" vol="64" pos="23712" len="86"/>
          <note pan="0" key="47" vol="64" pos="23712" len="86"/>
          <note pan="0" key="64" vol="62" pos="23760" len="43"/>
          <note pan="0" key="65" vol="67" pos="23808" len="43"/>
          <note pan="0" key="38" vol="67" pos="23808" len="21"/>
          <note pan="0" key="43" vol="60" pos="23832" len="21"/>
          <note pan="0" key="62" vol="62" pos="23856" len="43"/>
          <note pan="0" key="47" vol="62" pos="23856" len="21"/>
          <note pan="0" key="53" vol="60" pos="23880" len="21"/>
          <note pan="0" key="64" vol="64" pos="23904" len="86"/>
          <note pan="0" key="52" vol="64" pos="23904" len="86"/>
          <note pan="0" key="48" vol="64" pos="23904" len="86"/>
          <note pan="0" key="43" vol="64" pos="23904" len="86"/>
          <note pan="0" key="60" vol="67" pos="24000" len="43"/>
          <note pan="0" key="36" vol="67" pos="24000" len="21"/>
          <note pan="0" key="43" vol="60" pos="24024" len="21"/>
          <note pan="0" key="62" vol="62" pos="24048" len="21"/>
          <note pan="0" key="48" vol="62" pos="24048" len="21"/>
          <note pan="0" key="64" vol="60" pos="24072" len="21"/>
          <note pan="0" key="52" vol="60" pos="24072" len="21"/>
          <note pan="0" key="65" vol="64" pos="24096" len="43"/>
          <note pan="0" key="43" vol="64" pos="24096" len="86"/>
          <note pan="0" key="52" vol="64" pos="24096" len="86"/>
          <note pan="0" key="48" vol="64" pos="24096" len="86"/>
          <note pan="0" key="67" vol="62" pos="24144" len="43"/>
          <note pan="0" key="69" vol="67" pos="24192" len="43"/>
          <note pan="0" key="33" vol="67" pos="24192" len="21"/>
          <note pan="0" key="45" vol="60" pos="24216" len="21"/>
          <note pan="0" key="67" vol="62" pos="24240" len="21"/>
          <note pan="0" key="48" vol="62" pos="24240" len="21"/>
          <note pan="0" key="65" vol="60" pos="24264" len="21"/>
          <note pan="0" key="52" vol="60" pos="24264" len="21"/>
          <note pan="0" key="64" vol="64" pos="24288" len="43"/>
          <note pan="0" key="52" vol="64" pos="24288" len="86"/>
          <note pan="0" key="48" vol="64" pos="24288" len="86"/>
          <note pan="0" key="45" vol="64" pos="24288" len="86"/>
          <note pan="0" key="62" vol="62" pos="24336" len="43"/>
          <note pan="0" key="64" vol="67" pos="24384" len="43"/>
          <note pan="0" key="36" vol="67" pos="24384" len="21"/>
          <note pan="0" key="41" vol="60" pos="24408" len="21"/>
          <note pan="0" key="65" vol="62" pos="24432" len="21"/>
          <note pan="0" key="45" vol="62" pos="24432" len="21"/>
          <note pan="0" key="67" vol="60" pos="24456" len="21"/>
          <note pan="0" key="48" vol="60" pos="24456" len="21"/>
          <note pan="0" key="65" vol="64" pos="24480" len="43"/>
          <note pan="0" key="41" vol="64" pos="24480" len="86"/>
          <note pan="0" key="46" vol="64" pos="24480" len="86"/>
          <note pan="0" key="38" vol="64" pos="24480" len="86"/>
          <note pan="0" key="58" vol="62" pos="24528" len="43"/>
          <note pan="0" key="60" vol="67" pos="24576" len="21"/>
          <note pan="0" key="45" vol="67" pos="24576" len="21"/>
          <note pan="0" key="63" vol="60" pos="24600" len="21"/>
          <note pan="0" key="36" vol="60" pos="24600" len="21"/>
          <note pan="0" key="65" vol="62" pos="24624" len="21"/>
          <note pan="0" key="41" vol="62" pos="24624" len="21"/>
          <note pan="0" key="69" vol="60" pos="24648" len="21"/>
          <note pan="0" key="29" vol="60" pos="24648" len="21"/>
          <note pan="0" key="62" vol="64" pos="24672" len="86"/>
          <note pan="0" key="65" vol="64" pos="24672" len="86"/>
          <note pan="0" key="70" vol="64" pos="24672" len="86"/>
          <note pan="0" key="34" vol="64" pos="24672" len="86"/>
          <note pan="0" key="70" vol="100" pos="24768" len="43"/>
          <note pan="0" key="34" vol="67" pos="24768" len="21"/>
          <note pan="0" key="38" vol="60" pos="24792" len="21"/>
          <note pan="0" key="67" vol="93" pos="24816" len="21"/>
          <note pan="0" key="41" vol="62" pos="24816" len="43"/>
          <note pan="0" key="69" vol="90" pos="24840" len="21"/>
          <note pan="0" key="70" vol="97" pos="24864" len="43"/>
          <note pan="0" key="40" vol="64" pos="24864" len="21"/>
          <note pan="0" key="37" vol="60" pos="24888" len="21"/>
          <note pan="0" key="67" vol="93" pos="24912" len="43"/>
          <note pan="0" key="33" vol="62" pos="24912" len="43"/>
          <note pan="0" key="69" vol="100" pos="24960" len="43"/>
          <note pan="0" key="29" vol="67" pos="24960" len="21"/>
          <note pan="0" key="33" vol="60" pos="24984" len="21"/>
          <note pan="0" key="65" vol="93" pos="25008" len="43"/>
          <note pan="0" key="38" vol="62" pos="25008" len="43"/>
          <note pan="0" key="62" vol="97" pos="25056" len="21"/>
          <note pan="0" key="34" vol="64" pos="25056" len="21"/>
          <note pan="0" key="63" vol="90" pos="25080" len="21"/>
          <note pan="0" key="39" vol="60" pos="25080" len="21"/>
          <note pan="0" key="65" vol="93" pos="25104" len="21"/>
          <note pan="0" key="31" vol="62" pos="25104" len="43"/>
          <note pan="0" key="67" vol="90" pos="25128" len="21"/>
          <note pan="0" key="68" vol="100" pos="25152" len="43"/>
          <note pan="0" key="32" vol="67" pos="25152" len="21"/>
          <note pan="0" key="36" vol="60" pos="25176" len="21"/>
          <note pan="0" key="65" vol="93" pos="25200" len="21"/>
          <note pan="0" key="39" vol="62" pos="25200" len="43"/>
          <note pan="0" key="67" vol="90" pos="25224" len="21"/>
          <note pan="0" key="68" vol="97" pos="25248" len="43"/>
          <note pan="0" key="38" vol="64" pos="25248" len="21"/>
          <note pan="0" key="35" vol="60" pos="25272" len="21"/>
          <note pan="0" key="65" vol="93" pos="25296" len="43"/>
          <note pan="0" key="31" vol="62" pos="25296" len="43"/>
          <note pan="0" key="67" vol="100" pos="25344" len="43"/>
          <note pan="0" key="36" vol="67" pos="25344" len="21"/>
          <note pan="0" key="39" vol="60" pos="25368" len="21"/>
          <note pan="0" key="63" vol="93" pos="25392" len="43"/>
          <note pan="0" key="43" vol="62" pos="25392" len="21"/>
          <note pan="0" key="31" vol="60" pos="25416" len="21"/>
          <note pan="0" key="60" vol="97" pos="25440" len="86"/>
          <note pan="0" key="36" vol="64" pos="25440" len="86"/>
          <note pan="0" key="70" vol="100" pos="25536" len="43"/>
          <note pan="0" key="34" vol="67" pos="25536" len="21"/>
          <note pan="0" key="38" vol="60" pos="25560" len="21"/>
          <note pan="0" key="67" vol="93" pos="25584" len="21"/>
          <note pan="0" key="41" vol="62" pos="25584" len="43"/>
          <note pan="0" key="69" vol="90" pos="25608" len="21"/>
          <note pan="0" key="70" vol="97" pos="25632" len="43"/>
          <note pan="0" key="40" vol="64" pos="25632" len="21"/>
          <note pan="0" key="37" vol="60" pos="25656" len="21"/>
          <note pan="0" key="67" vol="93" pos="25680" len="43"/>
          <note pan="0" key="33" vol="62" pos="25680" len="43"/>
          <note pan="0" key="69" vol="100" pos="25728" len="43"/>
          <note pan="0" key="29" vol="67" pos="25728" len="21"/>
          <note pan="0" key="33" vol="60" pos="25752" len="21"/>
          <note pan="0" key="65" vol="93" pos="25776" len="43"/>
          <note pan="0" key="38" vol="62" pos="25776" len="43"/>
          <note pan="0" key="62" vol="97" pos="25824" len="21"/>
          <note pan="0" key="34" vol="64" pos="25824" len="21"/>
          <note pan="0" key="63" vol="90" pos="25848" len="21"/>
          <note pan="0" key="39" vol="60" pos="25848" len="21"/>
          <note pan="0" key="65" vol="93" pos="25872" len="21"/>
          <note pan="0" key="31" vol="62" pos="25872" len="43"/>
          <note pan="0" key="67" vol="90" pos="25896" len="21"/>
          <note pan="0" key="65" vol="100" pos="25920" len="43"/>
          <note pan="0" key="29" vol="67" pos="25920" len="21"/>
          <note pan="0" key="34" vol="60" pos="25944" len="21"/>
          <note pan="0" key="62" vol="93" pos="25968" len="21"/>
          <note pan="0" key="38" vol="62" pos="25968" len="43"/>
          <note pan="0" key="63" vol="90" pos="25992" len="21"/>
          <note pan="0" key="65" vol="97" pos="26016" len="43"/>
          <note pan="0" key="34" vol="64" pos="26016" len="21"/>
          <note pan="0" key="38" vol="60" pos="26040" len="21"/>
          <note pan="0" key="62" vol="93" pos="26064" len="43"/>
          <note pan="0" key="41" vol="62" pos="26064" len="43"/>
          <note pan="0" key="63" vol="100" pos="26112" len="43"/>
          <note pan="0" key="41" vol="67" pos="26112" len="21"/>
          <note pan="0" key="36" vol="60" pos="26136" len="21"/>
          <note pan="0" key="60" vol="93" pos="26160" len="43"/>
          <note pan="0" key="39" vol="62" pos="26160" len="21"/>
          <note pan="0" key="33" vol="60" pos="26184" len="21"/>
          <note pan="0" key="58" vol="97" pos="26208" len="86"/>
          <note pan="0" key="34" vol="64" pos="26208" len="86"/>
          <note pan="0" key="58" vol="67" pos="26304" len="21"/>
          <note pan="0" key="41" vol="67" pos="26304" len="86"/>
          <note pan="0" key="38" vol="67" pos="26304" len="86"/>
          <note pan="0" key="34" vol="67" pos="26304" len="86"/>
          <note pan="0" key="60" vol="60" pos="26328" len="21"/>
          <note pan="0" key="62" vol="64" pos="26352" len="21"/>
          <note pan="0" key="63" vol="64" pos="26376" len="21"/>
          <note pan="0" key="65" vol="72" pos="26400" len="86"/>
          <note pan="0" key="33" vol="64" pos="26400" len="21"/>
          <note pan="0" key="36" vol="60" pos="26424" len="21"/>
          <note pan="0" key="41" vol="62" pos="26448" len="21"/>
          <note pan="0" key="45" vol="60" pos="26472" len="21"/>
          <note pan="0" key="60" vol="85" pos="26496" len="21"/>
          <note pan="0" key="36" vol="67" pos="26496" len="86"/>
          <note pan="0" key="41" vol="67" pos="26496" len="86"/>
          <note pan="0" key="45" vol="67" pos="26496" len="86"/>
          <note pan="0" key="62" vol="78" pos="26520" len="21"/>
          <note pan="0" key="63" vol="84" pos="26544" len="21"/>
          <note pan="0" key="65" vol="83" pos="26568" len="21"/>
          <note pan="0" key="67" vol="92" pos="26592" len="86"/>
          <note pan="0" key="31" vol="64" pos="26592" len="21"/>
          <note pan="0" key="36" vol="60" pos="26616" len="21"/>
          <note pan="0" key="39" vol="62" pos="26640" len="21"/>
          <note pan="0" key="43" vol="60" pos="26664" len="21"/>
          <note pan="0" key="62" vol="106" pos="26688" len="21"/>
          <note pan="0" key="39" vol="67" pos="26688" len="86"/>
          <note pan="0" key="43" vol="67" pos="26688" len="86"/>
          <note pan="0" key="36" vol="67" pos="26688" len="86"/>
          <note pan="0" key="63" vol="97" pos="26712" len="21"/>
          <note pan="0" key="65" vol="104" pos="26736" len="21"/>
          <note pan="0" key="67" vol="102" pos="26760" len="21"/>
          <note pan="0" key="69" vol="127" pos="26784" len="21"/>
          <note pan="0" key="33" vol="64" pos="26784" len="86"/>
          <note pan="0" key="36" vol="64" pos="26784" len="86"/>
          <note pan="0" key="41" vol="64" pos="26784" len="86"/>
          <note pan="0" key="67" vol="105" pos="26808" len="21"/>
          <note pan="0" key="65" vol="104" pos="26832" len="21"/>
          <note pan="0" key="63" vol="95" pos="26856" len="21"/>
          <note pan="0" key="62" vol="100" pos="26880" len="43"/>
          <note pan="0" key="34" vol="67" pos="26880" len="43"/>
          <note pan="0" key="29" vol="67" pos="26880" len="43"/>
          <note pan="0" key="38" vol="67" pos="26880" len="43"/>
          <note pan="0" key="60" vol="93" pos="26928" len="43"/>
          <note pan="0" key="39" vol="62" pos="26928" len="43"/>
          <note pan="0" key="41" vol="62" pos="26928" len="43"/>
          <note pan="0" key="33" vol="62" pos="26928" len="43"/>
          <note pan="0" key="62" vol="97" pos="26976" len="86"/>
          <note pan="0" key="41" vol="64" pos="26976" len="86"/>
          <note pan="0" key="38" vol="64" pos="26976" len="86"/>
          <note pan="0" key="34" vol="64" pos="26976" len="86"/>
          <note pan="0" key="58" vol="89" pos="27072" len="21"/>
          <note pan="0" key="41" vol="67" pos="27072" len="86"/>
          <note pan="0" key="38" vol="67" pos="27072" len="86"/>
          <note pan="0" key="34" vol="67" pos="27072" len="86"/>
          <note pan="0" key="60" vol="80" pos="27096" len="21"/>
          <note pan="0" key="62" vol="84" pos="27120" len="21"/>
          <note pan="0" key="63" vol="83" pos="27144" len="21"/>
          <note pan="0" key="65" vol="90" pos="27168" len="86"/>
          <note pan="0" key="33" vol="64" pos="27168" len="21"/>
          <note pan="0" key="36" vol="60" pos="27192" len="21"/>
          <note pan="0" key="41" vol="62" pos="27216" len="21"/>
          <note pan="0" key="45" vol="60" pos="27240" len="21"/>
          <note pan="0" key="60" vol="101" pos="27264" len="21"/>
          <note pan="0" key="36" vol="67" pos="27264" len="86"/>
          <note pan="0" key="41" vol="67" pos="27264" len="86"/>
          <note pan="0" key="45" vol="67" pos="27264" len="86"/>
          <note pan="0" key="62" vol="92" pos="27288" len="21"/>
          <note pan="0" key="63" vol="97" pos="27312" len="21"/>
          <note pan="0" key="65" vol="95" pos="27336" len="21"/>
          <note pan="0" key="67" vol="104" pos="27360" len="86"/>
          <note pan="0" key="31" vol="64" pos="27360" len="21"/>
          <note pan="0" key="36" vol="60" pos="27384" len="21"/>
          <note pan="0" key="39" vol="62" pos="27408" len="21"/>
          <note pan="0" key="43" vol="60" pos="27432" len="21"/>
          <note pan="0" key="62" vol="115" pos="27456" len="21"/>
          <note pan="0" key="36" vol="67" pos="27456" len="86"/>
          <note pan="0" key="43" vol="67" pos="27456" len="86"/>
          <note pan="0" key="39" vol="67" pos="27456" len="86"/>
          <note pan="0" key="63" vol="105" pos="27480" len="21"/>
          <note pan="0" key="65" vol="110" pos="27504" len="21"/>
          <note pan="0" key="67" vol="108" pos="27528" len="21"/>
          <note pan="0" key="69" vol="127" pos="27552" len="21"/>
          <note pan="0" key="42" vol="64" pos="27552" len="86"/>
          <note pan="0" key="33" vol="64" pos="27552" len="86"/>
          <note pan="0" key="38" vol="64" pos="27552" len="86"/>
          <note pan="0" key="67" vol="110" pos="27576" len="21"/>
          <note pan="0" key="69" vol="112" pos="27600" len="21"/>
          <note pan="0" key="66" vol="106" pos="27624" len="21"/>
          <note pan="0" key="67" vol="127" pos="27648" len="43"/>
          <note pan="0" key="43" vol="67" pos="27648" len="21"/>
          <note pan="0" key="50" vol="60" pos="27672" len="21"/>
          <note pan="0" key="59" vol="127" pos="27696" len="43"/>
          <note pan="0" key="47" vol="62" pos="27696" len="21"/>
          <note pan="0" key="35" vol="60" pos="27720" len="21"/>
          <note pan="0" key="60" vol="127" pos="27744" len="86"/>
          <note pan="0" key="36" vol="64" pos="27744" len="86"/>
          <note pan="0" key="60" vol="67" pos="27840" len="21"/>
          <note pan="0" key="36" vol="67" pos="27840" len="86"/>
          <note pan="0" key="40" vol="67" pos="27840" len="86"/>
          <note pan="0" key="43" vol="67" pos="27840" len="86"/>
          <note pan="0" key="62" vol="60" pos="27864" len="21"/>
          <note pan="0" key="64" vol="64" pos="27888" len="21"/>
          <note pan="0" key="65" vol="64" pos="27912" len="21"/>
          <note pan="0" key="67" vol="72" pos="27936" len="86"/>
          <note pan="0" key="35" vol="64" pos="27936" len="21"/>
          <note pan="0" key="38" vol="60" pos="27960" len="21"/>
          <note pan="0" key="43" vol="62" pos="27984" len="21"/>
          <note pan="0" key="47" vol="60" pos="28008" len="21"/>
          <note pan="0" key="62" vol="85" pos="28032" len="21"/>
          <note pan="0" key="38" vol="67" pos="28032" len="86"/>
          <note pan="0" key="47" vol="67" pos="28032" len="86"/>
          <note pan="0" key="43" vol="67" pos="28032" len="86"/>
          <note pan="0" key="64" vol="78" pos="28056" len="21"/>
          <note pan="0" key="65" vol="84" pos="28080" len="21"/>
          <note pan="0" key="67" vol="83" pos="28104" len="21"/>
          <note pan="0" key="69" vol="92" pos="28128" len="86"/>
          <note pan="0" key="33" vol="64" pos="28128" len="21"/>
          <note pan="0" key="38" vol="60" pos="28152" len="21"/>
          <note pan="0" key="41" vol="62" pos="28176" len="21"/>
          <note pan="0" key="45" vol="60" pos="28200" len="21"/>
          <note pan="0" key="64" vol="106" pos="28224" len="21"/>
          <note pan="0" key="41" vol="67" pos="28224" len="86"/>
          <note pan="0" key="45" vol="67" pos="28224" len="86"/>
          <note pan="0" key="38" vol="67" pos="28224" len="86"/>
          <note pan="0" key="65" vol="97" pos="28248" len="21"/>
          <note pan="0" key="67" vol="104" pos="28272" len="21"/>
          <note pan="0" key="69" vol="102" pos="28296" len="21"/>
          <note pan="0" key="71" vol="127" pos="28320" len="21"/>
          <note pan="0" key="35" vol="64" pos="28320" len="86"/>
          <note pan="0" key="43" vol="64" pos="28320" len="86"/>
          <note pan="0" key="38" vol="64" pos="28320" len="86"/>
          <note pan="0" key="69" vol="105" pos="28344" len="21"/>
          <note pan="0" key="67" vol="104" pos="28368" len="21"/>
          <note pan="0" key="65" vol="95" pos="28392" len="21"/>
          <note pan="0" key="64" vol="100" pos="28416" len="43"/>
          <note pan="0" key="36" vol="67" pos="28416" len="43"/>
          <note pan="0" key="31" vol="67" pos="28416" len="43"/>
          <note pan="0" key="40" vol="67" pos="28416" len="43"/>
          <note pan="0" key="62" vol="93" pos="28464" len="43"/>
          <note pan="0" key="43" vol="62" pos="28464" len="43"/>
          <note pan="0" key="41" vol="62" pos="28464" len="43"/>
          <note pan="0" key="35" vol="62" pos="28464" len="43"/>
          <note pan="0" key="64" vol="97" pos="28512" len="86"/>
          <note pan="0" key="36" vol="64" pos="28512" len="86"/>
          <note pan="0" key="43" vol="64" pos="28512" len="86"/>
          <note pan="0" key="40" vol="64" pos="28512" len="86"/>
          <note pan="0" key="60" vol="89" pos="28608" len="21"/>
          <note pan="0" key="40" vol="67" pos="28608" len="86"/>
          <note pan="0" key="36" vol="67" pos="28608" len="86"/>
          <note pan="0" key="43" vol="67" pos="28608" len="86"/>
          <note pan="0" key="62" vol="80" pos="28632" len="21"/>
          <note pan="0" key="64" vol="84" pos="28656" len="21"/>
          <note pan="0" key="65" vol="83" pos="28680" len="21"/>
          <note pan="0" key="67" vol="90" pos="28704" len="86"/>
          <note pan="0" key="35" vol="64" pos="28704" len="21"/>
          <note pan="0" key="38" vol="60" pos="28728" len="21"/>
          <note pan="0" key="43" vol="62" pos="28752" len="21"/>
          <note pan="0" key="47" vol="60" pos="28776" len="21"/>
          <note pan="0" key="62" vol="101" pos="28800" len="21"/>
          <note pan="0" key="38" vol="67" pos="28800" len="86"/>
          <note pan="0" key="47" vol="67" pos="28800" len="86"/>
          <note pan="0" key="43" vol="67" pos="28800" len="86"/>
          <note pan="0" key="64" vol="92" pos="28824" len="21"/>
          <note pan="0" key="65" vol="97" pos="28848" len="21"/>
          <note pan="0" key="67" vol="95" pos="28872" len="21"/>
          <note pan="0" key="69" vol="104" pos="28896" len="86"/>
          <note pan="0" key="33" vol="64" pos="28896" len="21"/>
          <note pan="0" key="38" vol="60" pos="28920" len="21"/>
          <note pan="0" key="41" vol="62" pos="28944" len="21"/>
          <note pan="0" key="45" vol="60" pos="28968" len="21"/>
          <note pan="0" key="64" vol="115" pos="28992" len="21"/>
          <note pan="0" key="45" vol="67" pos="28992" len="86"/>
          <note pan="0" key="41" vol="67" pos="28992" len="86"/>
          <note pan="0" key="38" vol="67" pos="28992" len="86"/>
          <note pan="0" key="65" vol="105" pos="29016" len="21"/>
          <note pan="0" key="67" vol="110" pos="29040" len="21"/>
          <note pan="0" key="69" vol="108" pos="29064" len="21"/>
          <note pan="0" key="70" vol="127" pos="29088" len="21"/>
          <note pan="0" key="45" vol="64" pos="29088" len="86"/>
          <note pan="0" key="39" vol="64" pos="29088" len="86"/>
          <note pan="0" key="48" vol="64" pos="29088" len="86"/>
          <note pan="0" key="69" vol="110" pos="29112" len="21"/>
          <note pan="0" key="65" vol="112" pos="29136" len="21"/>
          <note pan="0" key="63" vol="106" pos="29160" len="21"/>
          <note pan="0" key="60" vol="127" pos="29184" len="43"/>
          <note pan="0" key="36" vol="67" pos="29184" len="21"/>
          <note pan="0" key="39" vol="60" pos="29208" len="21"/>
          <note pan="0" key="57" vol="127" pos="29232" len="43"/>
          <note pan="0" key="41" vol="62" pos="29232" len="21"/>
          <note pan="0" key="29" vol="60" pos="29256" len="21"/>
          <note pan="0" key="58" vol="127" pos="29280" len="86"/>
          <note pan="0" key="34" vol="64" pos="29280" len="86"/>
          <note pan="0" key="64" vol="123" pos="29376" len="21"/>
          <note pan="0" key="45" vol="67" pos="29376" len="86"/>
          <note pan="0" key="38" vol="67" pos="29376" len="86"/>
          <note pan="0" key="41" vol="67" pos="29376" len="86"/>
          <note pan="0" key="65" vol="110" pos="29400" len="21"/>
          <note pan="0" key="67" vol="112" pos="29424" len="21"/>
          <note pan="0" key="69" vol="106" pos="29448" len="21"/>
          <note pan="0" key="70" vol="112" pos="29472" len="21"/>
          <note pan="0" key="45" vol="64" pos="29472" len="86"/>
          <note pan="0" key="39" vol="64" pos="29472" len="86"/>
          <note pan="0" key="48" vol="64" pos="29472" len="86"/>
          <note pan="0" key="69" vol="102" pos="29496" len="21"/>
          <note pan="0" key="65" vol="104" pos="29520" len="21"/>
          <note pan="0" key="63" vol="98" pos="29544" len="21"/>
          <note pan="0" key="60" vol="107" pos="29568" len="86"/>
          <note pan="0" key="36" vol="67" pos="29568" len="21"/>
          <note pan="0" key="39" vol="60" pos="29592" len="21"/>
          <note pan="0" key="41" vol="62" pos="29616" len="21"/>
          <note pan="0" key="29" vol="60" pos="29640" len="21"/>
          <note pan="0" key="57" vol="95" pos="29664" len="86"/>
          <note pan="0" key="33" vol="64" pos="29664" len="67"/>
          <note pan="0" key="36" vol="64" pos="29664" len="93"/>
          <note pan="0" key="39" vol="64" pos="29664" len="24"/>
          <note pan="0" key="38" vol="60" pos="29688" len="69"/>
          <note pan="0" key="34" vol="60" pos="29736" len="21"/>
          <note pan="0" key="58" vol="89" pos="29760" len="172"/>
          <note pan="0" key="38" vol="67" pos="29760" len="172"/>
          <note pan="0" key="41" vol="67" pos="29760" len="172"/>
          <note pan="0" key="34" vol="67" pos="29760" len="172"/>
        </pattern>
      </track>
    </trackcontainer>
    <track muted="0" type="6" name="Automation track">
      <automationtrack/>
      <automationpattern name="Numerator" pos="0" len="192">
        <time value="4" pos="0"/>
        <object id="6863421"/>
      </automationpattern>
      <automationpattern name="Denominator" pos="0" len="192">
        <time value="4" pos="0"/>
        <object id="7911616"/>
      </automationpattern>
      <automationpattern name="Tempo" pos="0" len="29952">
        <time value="120" pos="0"/>
        <time value="120" pos="29376"/>
        <time value="115" pos="29424"/>
        <time value="110" pos="29472"/>
        <time value="105" pos="29520"/>
        <time value="100" pos="29568"/>
        <time value="95.0001" pos="29616"/>
        <time value="90.0001" pos="29664"/>
        <time value="85" pos="29712"/>
        <time value="80" pos="29760"/>
        <object id="7236918"/>
      </automationpattern>
      <automationpattern name="Master volume" pos="0" len="192">
        <time value="100" pos="0"/>
        <object id="1622523"/>
      </automationpattern>
      <automationpattern name="Master pitch" pos="0" len="192">
        <time value="0" pos="0"/>
        <object id="3668165"/>
      </automationpattern>
    </track>
    <fxmixer width="865" x="5" y="310" maximized="0" height="278" visible="1" minimized="0">
      <fxchannel num="0" muted="0" volume="1" name="Master">
        <fxchain numofeffects="0" enabled="0"/>
      </fxchannel>
      <fxchannel num="1" muted="0" volume="1" name="FX 1">
        <fxchain numofeffects="0" enabled="0"/>
      </fxchannel>
      <fxchannel num="2" muted="0" volume="1" name="FX 2">
        <fxchain numofeffects="0" enabled="0"/>
      </fxchannel>
      <fxchannel num="3" muted="0" volume="1" name="FX 3">
        <fxchain numofeffects="0" enabled="0"/>
      </fxchannel>
      <fxchannel num="4" muted="0" volume="1" name="FX 4">
        <fxchain numofeffects="0" enabled="0"/>
      </fxchannel>
      <fxchannel num="5" muted="0" volume="1" name="FX 5">
        <fxchain numofeffects="0" enabled="0"/>
      </fxchannel>
      <fxchannel num="6" muted="0" volume="1" name="FX 6">
        <fxchain numofeffects="0" enabled="0"/>
      </fxchannel>
      <fxchannel num="7" muted="0" volume="1" name="FX 7">
        <fxchain numofeffects="0" enabled="0"/>
      </fxchannel>
      <fxchannel num="8" muted="0" volume="1" name="FX 8">
        <fxchain numofeffects="0" enabled="0"/>
      </fxchannel>
      <fxchannel num="9" muted="0" volume="1" name="FX 9">
        <fxchain numofeffects="0" enabled="0"/>
      </fxchannel>
      <fxchannel num="10" muted="0" volume="1" name="FX 10">
        <fxchain numofeffects="0" enabled="0"/>
      </fxchannel>
      <fxchannel num="11" muted="0" volume="1" name="FX 11">
        <fxchain numofeffects="0" enabled="0"/>
      </fxchannel>
      <fxchannel num="12" muted="0" volume="1" name="FX 12">
        <fxchain numofeffects="0" enabled="0"/>
      </fxchannel>
      <fxchannel num="13" muted="0" volume="1" name="FX 13">
        <fxchain numofeffects="0" enabled="0"/>
      </fxchannel>
      <fxchannel num="14" muted="0" volume="1" name="FX 14">
        <fxchain numofeffects="0" enabled="0"/>
      </fxchannel>
      <fxchannel num="15" muted="0" volume="1" name="FX 15">
        <fxchain numofeffects="0" enabled="0"/>
      </fxchannel>
      <fxchannel num="16" muted="0" volume="1" name="FX 16">
        <fxchain numofeffects="0" enabled="0"/>
      </fxchannel>
      <fxchannel num="17" muted="0" volume="1" name="FX 17">
        <fxchain numofeffects="0" enabled="0"/>
      </fxchannel>
      <fxchannel num="18" muted="0" volume="1" name="FX 18">
        <fxchain numofeffects="0" enabled="0"/>
      </fxchannel>
      <fxchannel num="19" muted="0" volume="1" name="FX 19">
        <fxchain numofeffects="0" enabled="0"/>
      </fxchannel>
      <fxchannel num="20" muted="0" volume="1" name="FX 20">
        <fxchain numofeffects="0" enabled="0"/>
      </fxchannel>
      <fxchannel num="21" muted="0" volume="1" name="FX 21">
        <fxchain numofeffects="0" enabled="0"/>
      </fxchannel>
      <fxchannel num="22" muted="0" volume="1" name="FX 22">
        <fxchain numofeffects="0" enabled="0"/>
      </fxchannel>
      <fxchannel num="23" muted="0" volume="1" name="FX 23">
        <fxchain numofeffects="0" enabled="0"/>
      </fxchannel>
      <fxchannel num="24" muted="0" volume="1" name="FX 24">
        <fxchain numofeffects="0" enabled="0"/>
      </fxchannel>
      <fxchannel num="25" muted="0" volume="1" name="FX 25">
        <fxchain numofeffects="0" enabled="0"/>
      </fxchannel>
      <fxchannel num="26" muted="0" volume="1" name="FX 26">
        <fxchain numofeffects="0" enabled="0"/>
      </fxchannel>
      <fxchannel num="27" muted="0" volume="1" name="FX 27">
        <fxchain numofeffects="0" enabled="0"/>
      </fxchannel>
      <fxchannel num="28" muted="0" volume="1" name="FX 28">
        <fxchain numofeffects="0" enabled="0"/>
      </fxchannel>
      <fxchannel num="29" muted="0" volume="1" name="FX 29">
        <fxchain numofeffects="0" enabled="0"/>
      </fxchannel>
      <fxchannel num="30" muted="0" volume="1" name="FX 30">
        <fxchain numofeffects="0" enabled="0"/>
      </fxchannel>
      <fxchannel num="31" muted="0" volume="1" name="FX 31">
        <fxchain numofeffects="0" enabled="0"/>
      </fxchannel>
      <fxchannel num="32" muted="0" volume="1" name="FX 32">
        <fxchain numofeffects="0" enabled="0"/>
      </fxchannel>
      <fxchannel num="33" muted="0" volume="1" name="FX 33">
        <fxchain numofeffects="0" enabled="0"/>
      </fxchannel>
      <fxchannel num="34" muted="0" volume="1" name="FX 34">
        <fxchain numofeffects="0" enabled="0"/>
      </fxchannel>
      <fxchannel num="35" muted="0" volume="1" name="FX 35">
        <fxchain numofeffects="0" enabled="0"/>
      </fxchannel>
      <fxchannel num="36" muted="0" volume="1" name="FX 36">
        <fxchain numofeffects="0" enabled="0"/>
      </fxchannel>
      <fxchannel num="37" muted="0" volume="1" name="FX 37">
        <fxchain numofeffects="0" enabled="0"/>
      </fxchannel>
      <fxchannel num="38" muted="0" volume="1" name="FX 38">
        <fxchain numofeffects="0" enabled="0"/>
      </fxchannel>
      <fxchannel num="39" muted="0" volume="1" name="FX 39">
        <fxchain numofeffects="0" enabled="0"/>
      </fxchannel>
      <fxchannel num="40" muted="0" volume="1" name="FX 40">
        <fxchain numofeffects="0" enabled="0"/>
      </fxchannel>
      <fxchannel num="41" muted="0" volume="1" name="FX 41">
        <fxchain numofeffects="0" enabled="0"/>
      </fxchannel>
      <fxchannel num="42" muted="0" volume="1" name="FX 42">
        <fxchain numofeffects="0" enabled="0"/>
      </fxchannel>
      <fxchannel num="43" muted="0" volume="1" name="FX 43">
        <fxchain numofeffects="0" enabled="0"/>
      </fxchannel>
      <fxchannel num="44" muted="0" volume="1" name="FX 44">
        <fxchain numofeffects="0" enabled="0"/>
      </fxchannel>
      <fxchannel num="45" muted="0" volume="1" name="FX 45">
        <fxchain numofeffects="0" enabled="0"/>
      </fxchannel>
      <fxchannel num="46" muted="0" volume="1" name="FX 46">
        <fxchain numofeffects="0" enabled="0"/>
      </fxchannel>
      <fxchannel num="47" muted="0" volume="1" name="FX 47">
        <fxchain numofeffects="0" enabled="0"/>
      </fxchannel>
      <fxchannel num="48" muted="0" volume="1" name="FX 48">
        <fxchain numofeffects="0" enabled="0"/>
      </fxchannel>
      <fxchannel num="49" muted="0" volume="1" name="FX 49">
        <fxchain numofeffects="0" enabled="0"/>
      </fxchannel>
      <fxchannel num="50" muted="0" volume="1" name="FX 50">
        <fxchain numofeffects="0" enabled="0"/>
      </fxchannel>
      <fxchannel num="51" muted="0" volume="1" name="FX 51">
        <fxchain numofeffects="0" enabled="0"/>
      </fxchannel>
      <fxchannel num="52" muted="0" volume="1" name="FX 52">
        <fxchain numofeffects="0" enabled="0"/>
      </fxchannel>
      <fxchannel num="53" muted="0" volume="1" name="FX 53">
        <fxchain numofeffects="0" enabled="0"/>
      </fxchannel>
      <fxchannel num="54" muted="0" volume="1" name="FX 54">
        <fxchain numofeffects="0" enabled="0"/>
      </fxchannel>
      <fxchannel num="55" muted="0" volume="1" name="FX 55">
        <fxchain numofeffects="0" enabled="0"/>
      </fxchannel>
      <fxchannel num="56" muted="0" volume="1" name="FX 56">
        <fxchain numofeffects="0" enabled="0"/>
      </fxchannel>
      <fxchannel num="57" muted="0" volume="1" name="FX 57">
        <fxchain numofeffects="0" enabled="0"/>
      </fxchannel>
      <fxchannel num="58" muted="0" volume="1" name="FX 58">
        <fxchain numofeffects="0" enabled="0"/>
      </fxchannel>
      <fxchannel num="59" muted="0" volume="1" name="FX 59">
        <fxchain numofeffects="0" enabled="0"/>
      </fxchannel>
      <fxchannel num="60" muted="0" volume="1" name="FX 60">
        <fxchain numofeffects="0" enabled="0"/>
      </fxchannel>
      <fxchannel num="61" muted="0" volume="1" name="FX 61">
        <fxchain numofeffects="0" enabled="0"/>
      </fxchannel>
      <fxchannel num="62" muted="0" volume="1" name="FX 62">
        <fxchain numofeffects="0" enabled="0"/>
      </fxchannel>
      <fxchannel num="63" muted="0" volume="1" name="FX 63">
        <fxchain numofeffects="0" enabled="0"/>
      </fxchannel>
      <fxchannel num="64" muted="0" volume="1" name="FX 64">
        <fxchain numofeffects="0" enabled="0"/>
      </fxchannel>
    </fxmixer>
    <ControllerRackView width="258" x="880" y="310" maximized="0" height="172" visible="1" minimized="0"/>
    <pianoroll width="1135" x="115" y="152" maximized="0" height="480" visible="0" minimized="0"/>
    <automationeditor width="740" x="510" y="152" maximized="0" height="480" visible="0" minimized="0"/>
    <projectnotes width="400" x="700" y="10" maximized="0" height="300" visible="0" minimized="0"><![CDATA[<!DOCTYPE HTML PUBLIC "-//W3C//DTD HTML 4.0//EN" "http://www.w3.org/TR/REC-html40/strict.dtd">
<html><head><meta name="qrichtext" content="1" /><style type="text/css">
p, li { white-space: pre-wrap; }
</style></head><body style=" font-family:'Sans Serif'; font-size:9pt; font-weight:400; font-style:normal;">
<p style=" margin-top:0px; margin-bottom:0px; margin-left:0px; margin-right:0px; -qt-block-indent:0; text-indent:0px;"><span style=" color:#e0e0e0;">Put down your project notes here.</span></p></body></html>]]></projectnotes>
    <timeline lp1pos="192" lp0pos="0" lpstate="0"/>
    <controllers/>
  </song>
</multimedia-project>
