<?xml version="1.0"?>
<!DOCTYPE multimedia-project>
<multimedia-project version="1.0" creator="Linux MultiMedia Studio (LMMS)" creatorversion="0.4.13" type="song">
  <head timesig_numerator="4" mastervol="100" timesig_denominator="4" masterpitch="0">
    <bpm value="120" id="2038568"/>
  </head>
  <song>
    <trackcontainer width="600" x="5" y="5" maximized="0" height="300" visible="1" type="song" minimized="0">
      <track muted="0" type="0" name="Default preset">
        <instrumenttrack pan="0" fxch="0" pitch="0" basenote="57" vol="100">
          <instrument name="tripleoscillator">
            <tripleoscillator phoffset2="0" userwavefile0="" finer0="0" userwavefile1="" finer1="0" userwavefile2="" finer2="0" coarse0="0" coarse1="-12" coarse2="-24" finel0="0" finel1="0" modalgo1="2" modalgo2="2" finel2="0" pan0="0" modalgo3="2" pan1="0" stphdetun0="0" pan2="0" stphdetun1="0" wavetype0="0" stphdetun2="0" wavetype1="0" wavetype2="0" vol0="33" vol1="33" phoffset0="0" phoffset1="0" vol2="33"/>
          </instrument>
          <eldata fres="0.5" ftype="0" fcut="14000" fwet="0">
            <elvol lspd_denominator="4" pdel="0" userwavefile="" dec="0.5" lamt="0" syncmode="0" latt="0" rel="0.1" sus="0.5" amt="0" x100="0" att="0" lpdel="0" hold="0.5" lshp="0" lspd="0.1" ctlenvamt="0" lspd_numerator="4"/>
            <elcut lspd_denominator="4" pdel="0" userwavefile="" dec="0.5" lamt="0" syncmode="0" latt="0" rel="0.1" sus="0.5" amt="0" x100="0" att="0" lpdel="0" hold="0.5" lshp="0" lspd="0.1" ctlenvamt="0" lspd_numerator="4"/>
            <elres lspd_denominator="4" pdel="0" userwavefile="" dec="0.5" lamt="0" syncmode="0" latt="0" rel="0.1" sus="0.5" amt="0" x100="0" att="0" lpdel="0" hold="0.5" lshp="0" lspd="0.1" ctlenvamt="0" lspd_numerator="4"/>
          </eldata>
          <chordcreator chord="0" chordrange="1" chord-enabled="0"/>
          <arpeggiator arptime="100" arprange="1" arptime_denominator="4" syncmode="0" arpmode="0" arp-enabled="0" arp="0" arptime_numerator="4" arpdir="0" arpgate="100"/>
          <midiport inputcontroller="0" fixedoutputvelocity="-1" inputchannel="0" outputcontroller="0" writable="0" outputchannel="1" fixedinputvelocity="-1" outputprogram="1" readable="0"/>
          <fxchain numofeffects="0" enabled="0"/>
        </instrumenttrack>
      </track>
      <track muted="0" type="2" name="Sample track">
        <sampletrack vol="100">
          <fxchain numofeffects="0" enabled="0"/>
        </sampletrack>
      </track>
      <track muted="0" type="1" name="Beat/Bassline 0">
        <bbtrack>
          <trackcontainer width="504" x="610" y="5" maximized="0" height="300" visible="1" type="bbtrackcontainer" minimized="0">
            <track muted="0" type="0" name="Default preset">
              <instrumenttrack pan="0" fxch="0" pitch="0" basenote="57" vol="100">
                <instrument name="tripleoscillator">
                  <tripleoscillator phoffset2="0" userwavefile0="" finer0="0" userwavefile1="" finer1="0" userwavefile2="" finer2="0" coarse0="0" coarse1="-12" coarse2="-24" finel0="0" finel1="0" modalgo1="2" modalgo2="2" finel2="0" pan0="0" modalgo3="2" pan1="0" stphdetun0="0" pan2="0" stphdetun1="0" wavetype0="0" stphdetun2="0" wavetype1="0" wavetype2="0" vol0="33" vol1="33" phoffset0="0" phoffset1="0" vol2="33"/>
                </instrument>
                <eldata fres="0.5" ftype="0" fcut="14000" fwet="0">
                  <elvol lspd_denominator="4" pdel="0" userwavefile="" dec="0.5" lamt="0" syncmode="0" latt="0" rel="0.1" sus="0.5" amt="0" x100="0" att="0" lpdel="0" hold="0.5" lshp="0" lspd="0.1" ctlenvamt="0" lspd_numerator="4"/>
                  <elcut lspd_denominator="4" pdel="0" userwavefile="" dec="0.5" lamt="0" syncmode="0" latt="0" rel="0.1" sus="0.5" amt="0" x100="0" att="0" lpdel="0" hold="0.5" lshp="0" lspd="0.1" ctlenvamt="0" lspd_numerator="4"/>
                  <elres lspd_denominator="4" pdel="0" userwavefile="" dec="0.5" lamt="0" syncmode="0" latt="0" rel="0.1" sus="0.5" amt="0" x100="0" att="0" lpdel="0" hold="0.5" lshp="0" lspd="0.1" ctlenvamt="0" lspd_numerator="4"/>
                </eldata>
                <chordcreator chord="0" chordrange="1" chord-enabled="0"/>
                <arpeggiator arptime="100" arprange="1" arptime_denominator="4" syncmode="0" arpmode="0" arp-enabled="0" arp="0" arptime_numerator="4" arpdir="0" arpgate="100"/>
                <midiport inputcontroller="0" fixedoutputvelocity="-1" inputchannel="0" outputcontroller="0" writable="0" outputchannel="1" fixedinputvelocity="-1" outputprogram="1" readable="0"/>
                <fxchain numofeffects="0" enabled="0"/>
              </instrumenttrack>
              <pattern steps="16" muted="0" type="0" name="Default preset" pos="0" len="192" frozen="0"/>
            </track>
          </trackcontainer>
        </bbtrack>
      </track>
      <track muted="0" type="5" name="Automation track">
        <automationtrack/>
      </track>
      <track muted="0" type="0" name="Default preset">
        <instrumenttrack pan="0.8" fxch="0" pitch="0" basenote="57" vol="78.7">
          <instrument name="sf2player">
            <sf2player patch="0" chorusLevel="2" chorusDepth="8" reverbOn="0" reverbRoomSize="0.2" chorusOn="0" chorusSpeed="0.3" reverbDamping="0" chorusNum="3" reverbLevel="0.9" bank="0" reverbWidth="0.5" src="" gain="1"/>
          </instrument>
          <eldata fres="0.5" ftype="0" fcut="14000" fwet="0">
            <elvol lspd_denominator="4" pdel="0" userwavefile="" dec="0.5" lamt="0" syncmode="0" latt="0" rel="0.1" sus="0.5" amt="0" x100="0" att="0" lpdel="0" hold="0.5" lshp="0" lspd="0.1" ctlenvamt="0" lspd_numerator="4"/>
            <elcut lspd_denominator="4" pdel="0" userwavefile="" dec="0.5" lamt="0" syncmode="0" latt="0" rel="0.1" sus="0.5" amt="0" x100="0" att="0" lpdel="0" hold="0.5" lshp="0" lspd="0.1" ctlenvamt="0" lspd_numerator="4"/>
            <elres lspd_denominator="4" pdel="0" userwavefile="" dec="0.5" lamt="0" syncmode="0" latt="0" rel="0.1" sus="0.5" amt="0" x100="0" att="0" lpdel="0" hold="0.5" lshp="0" lspd="0.1" ctlenvamt="0" lspd_numerator="4"/>
          </eldata>
          <chordcreator chord="0" chordrange="1" chord-enabled="0"/>
          <arpeggiator arptime="100" arprange="1" arptime_denominator="4" syncmode="0" arpmode="0" arp-enabled="0" arp="0" arptime_numerator="4" arpdir="0" arpgate="100"/>
          <midiport inputcontroller="0" fixedoutputvelocity="-1" inputchannel="0" outputcontroller="0" writable="0" outputchannel="1" fixedinputvelocity="-1" outputprogram="1" readable="0"/>
          <fxchain numofeffects="0" enabled="0"/>
        </instrumenttrack>
        <pattern steps="16" muted="0" type="1" name="Default preset" pos="0" len="51840" frozen="0">
          <note pan="0" key="55" vol="83" pos="144" len="24"/>
          <note pan="0" key="54" vol="80" pos="168" len="24"/>
          <note pan="0" key="55" vol="89" pos="192" len="48"/>
          <note pan="0" key="28" vol="67" pos="192" len="48"/>
          <note pan="0" key="47" vol="83" pos="240" len="48"/>
          <note pan="0" key="31" vol="62" pos="240" len="48"/>
          <note pan="0" key="52" vol="86" pos="288" len="48"/>
          <note pan="0" key="35" vol="64" pos="288" len="48"/>
          <note pan="0" key="55" vol="83" pos="336" len="24"/>
          <note pan="0" key="40" vol="62" pos="336" len="48"/>
          <note pan="0" key="54" vol="80" pos="360" len="24"/>
          <note pan="0" key="55" vol="89" pos="384" len="48"/>
          <note pan="0" key="28" vol="67" pos="384" len="48"/>
          <note pan="0" key="47" vol="83" pos="432" len="48"/>
          <note pan="0" key="31" vol="62" pos="432" len="48"/>
          <note pan="0" key="52" vol="86" pos="480" len="48"/>
          <note pan="0" key="35" vol="64" pos="480" len="48"/>
          <note pan="0" key="55" vol="83" pos="528" len="24"/>
          <note pan="0" key="40" vol="62" pos="528" len="48"/>
          <note pan="0" key="54" vol="80" pos="552" len="24"/>
          <note pan="0" key="55" vol="89" pos="576" len="48"/>
          <note pan="0" key="28" vol="67" pos="576" len="48"/>
          <note pan="0" key="47" vol="83" pos="624" len="48"/>
          <note pan="0" key="31" vol="62" pos="624" len="48"/>
          <note pan="0" key="52" vol="86" pos="672" len="48"/>
          <note pan="0" key="35" vol="64" pos="672" len="48"/>
          <note pan="0" key="54" vol="95" pos="720" len="24"/>
          <note pan="0" key="31" vol="62" pos="720" len="48"/>
          <note pan="0" key="55" vol="98" pos="744" len="24"/>
          <note pan="0" key="55" vol="117" pos="768" len="6"/>
          <note pan="0" key="33" vol="67" pos="768" len="48"/>
          <note pan="0" key="57" vol="101" pos="774" len="42"/>
          <note pan="0" key="55" vol="109" pos="816" len="24"/>
          <note pan="0" key="36" vol="62" pos="816" len="48"/>
          <note pan="0" key="54" vol="98" pos="840" len="24"/>
          <note pan="0" key="52" vol="99" pos="864" len="48"/>
          <note pan="0" key="40" vol="64" pos="864" len="48"/>
          <note pan="0" key="55" vol="83" pos="912" len="24"/>
          <note pan="0" key="35" vol="62" pos="912" len="48"/>
          <note pan="0" key="54" vol="80" pos="936" len="24"/>
          <note pan="0" key="55" vol="89" pos="960" len="48"/>
          <note pan="0" key="28" vol="67" pos="960" len="48"/>
          <note pan="0" key="47" vol="83" pos="1008" len="48"/>
          <note pan="0" key="31" vol="62" pos="1008" len="48"/>
          <note pan="0" key="52" vol="86" pos="1056" len="48"/>
          <note pan="0" key="35" vol="64" pos="1056" len="48"/>
          <note pan="0" key="55" vol="83" pos="1104" len="24"/>
          <note pan="0" key="40" vol="62" pos="1104" len="48"/>
          <note pan="0" key="54" vol="80" pos="1128" len="24"/>
          <note pan="0" key="55" vol="89" pos="1152" len="48"/>
          <note pan="0" key="28" vol="67" pos="1152" len="48"/>
          <note pan="0" key="47" vol="83" pos="1200" len="48"/>
          <note pan="0" key="31" vol="62" pos="1200" len="48"/>
          <note pan="0" key="52" vol="86" pos="1248" len="48"/>
          <note pan="0" key="35" vol="64" pos="1248" len="48"/>
          <note pan="0" key="55" vol="83" pos="1296" len="24"/>
          <note pan="0" key="40" vol="62" pos="1296" len="48"/>
          <note pan="0" key="54" vol="80" pos="1320" len="24"/>
          <note pan="0" key="55" vol="89" pos="1344" len="48"/>
          <note pan="0" key="28" vol="67" pos="1344" len="48"/>
          <note pan="0" key="47" vol="83" pos="1392" len="48"/>
          <note pan="0" key="31" vol="62" pos="1392" len="48"/>
          <note pan="0" key="52" vol="86" pos="1440" len="48"/>
          <note pan="0" key="35" vol="64" pos="1440" len="48"/>
          <note pan="0" key="54" vol="95" pos="1488" len="24"/>
          <note pan="0" key="34" vol="62" pos="1488" len="48"/>
          <note pan="0" key="55" vol="98" pos="1512" len="24"/>
          <note pan="0" key="54" vol="117" pos="1536" len="6"/>
          <note pan="0" key="35" vol="67" pos="1536" len="48"/>
          <note pan="0" key="57" vol="101" pos="1542" len="42"/>
          <note pan="0" key="54" vol="109" pos="1584" len="24"/>
          <note pan="0" key="27" vol="62" pos="1584" len="48"/>
          <note pan="0" key="51" vol="98" pos="1608" len="24"/>
          <note pan="0" key="52" vol="99" pos="1632" len="48"/>
          <note pan="0" key="28" vol="64" pos="1632" len="48"/>
          <note pan="0" key="55" vol="83" pos="1680" len="24"/>
          <note pan="0" key="23" vol="62" pos="1680" len="48"/>
          <note pan="0" key="54" vol="80" pos="1704" len="24"/>
          <note pan="0" key="55" vol="89" pos="1728" len="48"/>
          <note pan="0" key="28" vol="67" pos="1728" len="24"/>
          <note pan="0" key="30" vol="60" pos="1752" len="24"/>
          <note pan="0" key="47" vol="83" pos="1776" len="48"/>
          <note pan="0" key="31" vol="62" pos="1776" len="24"/>
          <note pan="0" key="33" vol="60" pos="1800" len="24"/>
          <note pan="0" key="52" vol="86" pos="1824" len="48"/>
          <note pan="0" key="35" vol="64" pos="1824" len="24"/>
          <note pan="0" key="36" vol="60" pos="1848" len="24"/>
          <note pan="0" key="55" vol="83" pos="1872" len="24"/>
          <note pan="0" key="38" vol="62" pos="1872" len="24"/>
          <note pan="0" key="54" vol="80" pos="1896" len="24"/>
          <note pan="0" key="40" vol="60" pos="1896" len="24"/>
          <note pan="0" key="55" vol="89" pos="1920" len="48"/>
          <note pan="0" key="28" vol="67" pos="1920" len="24"/>
          <note pan="0" key="30" vol="60" pos="1944" len="24"/>
          <note pan="0" key="47" vol="83" pos="1968" len="48"/>
          <note pan="0" key="31" vol="62" pos="1968" len="24"/>
          <note pan="0" key="33" vol="60" pos="1992" len="24"/>
          <note pan="0" key="52" vol="86" pos="2016" len="48"/>
          <note pan="0" key="31" vol="64" pos="2016" len="24"/>
          <note pan="0" key="30" vol="60" pos="2040" len="24"/>
          <note pan="0" key="55" vol="83" pos="2064" len="24"/>
          <note pan="0" key="28" vol="62" pos="2064" len="24"/>
          <note pan="0" key="54" vol="80" pos="2088" len="24"/>
          <note pan="0" key="26" vol="60" pos="2088" len="24"/>
          <note pan="0" key="55" vol="89" pos="2112" len="48"/>
          <note pan="0" key="28" vol="67" pos="2112" len="24"/>
          <note pan="0" key="30" vol="60" pos="2136" len="24"/>
          <note pan="0" key="47" vol="83" pos="2160" len="48"/>
          <note pan="0" key="31" vol="62" pos="2160" len="24"/>
          <note pan="0" key="33" vol="60" pos="2184" len="24"/>
          <note pan="0" key="52" vol="86" pos="2208" len="48"/>
          <note pan="0" key="35" vol="64" pos="2208" len="24"/>
          <note pan="0" key="36" vol="60" pos="2232" len="24"/>
          <note pan="0" key="54" vol="95" pos="2256" len="24"/>
          <note pan="0" key="38" vol="62" pos="2256" len="24"/>
          <note pan="0" key="55" vol="98" pos="2280" len="24"/>
          <note pan="0" key="40" vol="60" pos="2280" len="24"/>
          <note pan="0" key="55" vol="117" pos="2304" len="6"/>
          <note pan="0" key="33" vol="67" pos="2304" len="24"/>
          <note pan="0" key="57" vol="101" pos="2310" len="42"/>
          <note pan="0" key="35" vol="60" pos="2328" len="24"/>
          <note pan="0" key="55" vol="109" pos="2352" len="24"/>
          <note pan="0" key="36" vol="62" pos="2352" len="24"/>
          <note pan="0" key="54" vol="98" pos="2376" len="24"/>
          <note pan="0" key="38" vol="60" pos="2376" len="24"/>
          <note pan="0" key="52" vol="99" pos="2400" len="48"/>
          <note pan="0" key="40" vol="64" pos="2400" len="24"/>
          <note pan="0" key="38" vol="60" pos="2424" len="24"/>
          <note pan="0" key="55" vol="83" pos="2448" len="24"/>
          <note pan="0" key="36" vol="62" pos="2448" len="24"/>
          <note pan="0" key="54" vol="80" pos="2472" len="24"/>
          <note pan="0" key="26" vol="60" pos="2472" len="24"/>
          <note pan="0" key="55" vol="89" pos="2496" len="48"/>
          <note pan="0" key="28" vol="67" pos="2496" len="24"/>
          <note pan="0" key="30" vol="60" pos="2520" len="24"/>
          <note pan="0" key="47" vol="83" pos="2544" len="48"/>
          <note pan="0" key="31" vol="62" pos="2544" len="24"/>
          <note pan="0" key="33" vol="60" pos="2568" len="24"/>
          <note pan="0" key="52" vol="86" pos="2592" len="48"/>
          <note pan="0" key="35" vol="64" pos="2592" len="24"/>
          <note pan="0" key="36" vol="60" pos="2616" len="24"/>
          <note pan="0" key="55" vol="83" pos="2640" len="24"/>
          <note pan="0" key="38" vol="62" pos="2640" len="24"/>
          <note pan="0" key="54" vol="80" pos="2664" len="24"/>
          <note pan="0" key="40" vol="60" pos="2664" len="24"/>
          <note pan="0" key="55" vol="89" pos="2688" len="48"/>
          <note pan="0" key="28" vol="67" pos="2688" len="24"/>
          <note pan="0" key="30" vol="60" pos="2712" len="24"/>
          <note pan="0" key="47" vol="83" pos="2736" len="48"/>
          <note pan="0" key="31" vol="62" pos="2736" len="24"/>
          <note pan="0" key="33" vol="60" pos="2760" len="24"/>
          <note pan="0" key="52" vol="86" pos="2784" len="48"/>
          <note pan="0" key="31" vol="64" pos="2784" len="24"/>
          <note pan="0" key="30" vol="60" pos="2808" len="24"/>
          <note pan="0" key="55" vol="83" pos="2832" len="24"/>
          <note pan="0" key="28" vol="62" pos="2832" len="24"/>
          <note pan="0" key="54" vol="80" pos="2856" len="24"/>
          <note pan="0" key="26" vol="60" pos="2856" len="24"/>
          <note pan="0" key="55" vol="89" pos="2880" len="48"/>
          <note pan="0" key="28" vol="67" pos="2880" len="24"/>
          <note pan="0" key="30" vol="60" pos="2904" len="24"/>
          <note pan="0" key="47" vol="83" pos="2928" len="48"/>
          <note pan="0" key="31" vol="62" pos="2928" len="24"/>
          <note pan="0" key="33" vol="60" pos="2952" len="24"/>
          <note pan="0" key="52" vol="86" pos="2976" len="48"/>
          <note pan="0" key="35" vol="64" pos="2976" len="24"/>
          <note pan="0" key="33" vol="71" pos="3000" len="24"/>
          <note pan="0" key="54" vol="95" pos="3024" len="24"/>
          <note pan="0" key="31" vol="85" pos="3024" len="24"/>
          <note pan="0" key="55" vol="98" pos="3048" len="24"/>
          <note pan="0" key="34" vol="93" pos="3048" len="24"/>
          <note pan="0" key="54" vol="117" pos="3072" len="6"/>
          <note pan="0" key="35" vol="117" pos="3072" len="24"/>
          <note pan="0" key="57" vol="101" pos="3078" len="42"/>
          <note pan="0" key="30" vol="105" pos="3096" len="24"/>
          <note pan="0" key="54" vol="109" pos="3120" len="24"/>
          <note pan="0" key="33" vol="109" pos="3120" len="24"/>
          <note pan="0" key="51" vol="105" pos="3144" len="24"/>
          <note pan="0" key="27" vol="105" pos="3144" len="24"/>
          <note pan="0" key="52" vol="113" pos="3168" len="48"/>
          <note pan="0" key="28" vol="113" pos="3168" len="48"/>
          <note pan="0" key="23" vol="109" pos="3216" len="48"/>
          <note pan="0" key="55" vol="89" pos="3264" len="48"/>
          <note pan="0" key="28" vol="89" pos="3264" len="24"/>
          <note pan="0" key="31" vol="80" pos="3288" len="24"/>
          <note pan="0" key="52" vol="83" pos="3312" len="24"/>
          <note pan="0" key="35" vol="83" pos="3312" len="48"/>
          <note pan="0" key="47" vol="80" pos="3336" len="24"/>
          <note pan="0" key="55" vol="86" pos="3360" len="48"/>
          <note pan="0" key="28" vol="86" pos="3360" len="24"/>
          <note pan="0" key="31" vol="80" pos="3384" len="24"/>
          <note pan="0" key="52" vol="83" pos="3408" len="24"/>
          <note pan="0" key="35" vol="83" pos="3408" len="48"/>
          <note pan="0" key="47" vol="80" pos="3432" len="24"/>
          <note pan="0" key="57" vol="89" pos="3456" len="48"/>
          <note pan="0" key="30" vol="89" pos="3456" len="24"/>
          <note pan="0" key="35" vol="80" pos="3480" len="24"/>
          <note pan="0" key="54" vol="83" pos="3504" len="24"/>
          <note pan="0" key="39" vol="83" pos="3504" len="48"/>
          <note pan="0" key="51" vol="80" pos="3528" len="24"/>
          <note pan="0" key="57" vol="86" pos="3552" len="48"/>
          <note pan="0" key="30" vol="86" pos="3552" len="24"/>
          <note pan="0" key="35" vol="80" pos="3576" len="24"/>
          <note pan="0" key="54" vol="83" pos="3600" len="24"/>
          <note pan="0" key="39" vol="83" pos="3600" len="24"/>
          <note pan="0" key="51" vol="80" pos="3624" len="24"/>
          <note pan="0" key="27" vol="80" pos="3624" len="24"/>
          <note pan="0" key="55" vol="89" pos="3648" len="48"/>
          <note pan="0" key="28" vol="89" pos="3648" len="24"/>
          <note pan="0" key="31" vol="80" pos="3672" len="24"/>
          <note pan="0" key="52" vol="83" pos="3696" len="24"/>
          <note pan="0" key="35" vol="83" pos="3696" len="48"/>
          <note pan="0" key="47" vol="80" pos="3720" len="24"/>
          <note pan="0" key="55" vol="86" pos="3744" len="48"/>
          <note pan="0" key="28" vol="86" pos="3744" len="24"/>
          <note pan="0" key="31" vol="80" pos="3768" len="24"/>
          <note pan="0" key="52" vol="83" pos="3792" len="24"/>
          <note pan="0" key="35" vol="83" pos="3792" len="48"/>
          <note pan="0" key="47" vol="80" pos="3816" len="24"/>
          <note pan="0" key="47" vol="89" pos="3840" len="24"/>
          <note pan="0" key="30" vol="89" pos="3840" len="24"/>
          <note pan="0" key="57" vol="80" pos="3864" len="24"/>
          <note pan="0" key="35" vol="80" pos="3864" len="24"/>
          <note pan="0" key="54" vol="83" pos="3888" len="24"/>
          <note pan="0" key="39" vol="83" pos="3888" len="48"/>
          <note pan="0" key="51" vol="80" pos="3912" len="24"/>
          <note pan="0" key="52" vol="86" pos="3936" len="48"/>
          <note pan="0" key="40" vol="86" pos="3936" len="48"/>
          <note pan="0" key="47" vol="83" pos="3984" len="48"/>
          <note pan="0" key="52" vol="83" pos="3984" len="48"/>
          <note pan="0" key="55" vol="83" pos="3984" len="48"/>
          <note pan="0" key="55" vol="100" pos="4032" len="48"/>
          <note pan="0" key="28" vol="100" pos="4032" len="24"/>
          <note pan="0" key="31" vol="90" pos="4056" len="24"/>
          <note pan="0" key="52" vol="93" pos="4080" len="24"/>
          <note pan="0" key="35" vol="93" pos="4080" len="48"/>
          <note pan="0" key="47" vol="90" pos="4104" len="24"/>
          <note pan="0" key="55" vol="97" pos="4128" len="48"/>
          <note pan="0" key="28" vol="97" pos="4128" len="24"/>
          <note pan="0" key="31" vol="90" pos="4152" len="24"/>
          <note pan="0" key="52" vol="93" pos="4176" len="24"/>
          <note pan="0" key="35" vol="93" pos="4176" len="48"/>
          <note pan="0" key="47" vol="90" pos="4200" len="24"/>
          <note pan="0" key="57" vol="100" pos="4224" len="48"/>
          <note pan="0" key="30" vol="100" pos="4224" len="24"/>
          <note pan="0" key="35" vol="90" pos="4248" len="24"/>
          <note pan="0" key="54" vol="93" pos="4272" len="24"/>
          <note pan="0" key="39" vol="93" pos="4272" len="48"/>
          <note pan="0" key="51" vol="90" pos="4296" len="24"/>
          <note pan="0" key="57" vol="97" pos="4320" len="48"/>
          <note pan="0" key="30" vol="97" pos="4320" len="24"/>
          <note pan="0" key="35" vol="90" pos="4344" len="24"/>
          <note pan="0" key="54" vol="93" pos="4368" len="24"/>
          <note pan="0" key="39" vol="93" pos="4368" len="24"/>
          <note pan="0" key="51" vol="90" pos="4392" len="24"/>
          <note pan="0" key="27" vol="90" pos="4392" len="24"/>
          <note pan="0" key="55" vol="100" pos="4416" len="48"/>
          <note pan="0" key="28" vol="100" pos="4416" len="24"/>
          <note pan="0" key="31" vol="90" pos="4440" len="24"/>
          <note pan="0" key="52" vol="93" pos="4464" len="24"/>
          <note pan="0" key="35" vol="93" pos="4464" len="48"/>
          <note pan="0" key="47" vol="90" pos="4488" len="24"/>
          <note pan="0" key="55" vol="97" pos="4512" len="48"/>
          <note pan="0" key="28" vol="97" pos="4512" len="24"/>
          <note pan="0" key="31" vol="90" pos="4536" len="24"/>
          <note pan="0" key="52" vol="93" pos="4560" len="24"/>
          <note pan="0" key="35" vol="93" pos="4560" len="48"/>
          <note pan="0" key="47" vol="90" pos="4584" len="24"/>
          <note pan="0" key="47" vol="100" pos="4608" len="24"/>
          <note pan="0" key="40" vol="100" pos="4608" len="24"/>
          <note pan="0" key="62" vol="90" pos="4632" len="24"/>
          <note pan="0" key="35" vol="90" pos="4632" len="24"/>
          <note pan="0" key="59" vol="93" pos="4656" len="24"/>
          <note pan="0" key="32" vol="93" pos="4656" len="48"/>
          <note pan="0" key="56" vol="90" pos="4680" len="24"/>
          <note pan="0" key="57" vol="97" pos="4704" len="48"/>
          <note pan="0" key="33" vol="97" pos="4704" len="48"/>
          <note pan="0" key="57" vol="93" pos="4752" len="48"/>
          <note pan="0" key="49" vol="93" pos="4752" len="48"/>
          <note pan="0" key="52" vol="93" pos="4752" len="48"/>
          <note pan="0" key="57" vol="117" pos="4800" len="48"/>
          <note pan="0" key="30" vol="117" pos="4800" len="24"/>
          <note pan="0" key="33" vol="105" pos="4824" len="24"/>
          <note pan="0" key="54" vol="109" pos="4848" len="24"/>
          <note pan="0" key="37" vol="109" pos="4848" len="48"/>
          <note pan="0" key="49" vol="105" pos="4872" len="24"/>
          <note pan="0" key="57" vol="113" pos="4896" len="48"/>
          <note pan="0" key="30" vol="113" pos="4896" len="24"/>
          <note pan="0" key="33" vol="105" pos="4920" len="24"/>
          <note pan="0" key="54" vol="109" pos="4944" len="24"/>
          <note pan="0" key="37" vol="109" pos="4944" len="48"/>
          <note pan="0" key="49" vol="105" pos="4968" len="24"/>
          <note pan="0" key="59" vol="117" pos="4992" len="48"/>
          <note pan="0" key="32" vol="117" pos="4992" len="24"/>
          <note pan="0" key="37" vol="105" pos="5016" len="24"/>
          <note pan="0" key="56" vol="109" pos="5040" len="24"/>
          <note pan="0" key="41" vol="109" pos="5040" len="48"/>
          <note pan="0" key="53" vol="105" pos="5064" len="24"/>
          <note pan="0" key="59" vol="113" pos="5088" len="48"/>
          <note pan="0" key="32" vol="113" pos="5088" len="24"/>
          <note pan="0" key="37" vol="105" pos="5112" len="24"/>
          <note pan="0" key="56" vol="109" pos="5136" len="24"/>
          <note pan="0" key="41" vol="109" pos="5136" len="24"/>
          <note pan="0" key="53" vol="105" pos="5160" len="24"/>
          <note pan="0" key="29" vol="105" pos="5160" len="24"/>
          <note pan="0" key="57" vol="117" pos="5184" len="48"/>
          <note pan="0" key="30" vol="117" pos="5184" len="24"/>
          <note pan="0" key="33" vol="105" pos="5208" len="24"/>
          <note pan="0" key="54" vol="109" pos="5232" len="24"/>
          <note pan="0" key="37" vol="109" pos="5232" len="48"/>
          <note pan="0" key="49" vol="105" pos="5256" len="24"/>
          <note pan="0" key="57" vol="113" pos="5280" len="48"/>
          <note pan="0" key="30" vol="113" pos="5280" len="24"/>
          <note pan="0" key="33" vol="105" pos="5304" len="24"/>
          <note pan="0" key="54" vol="109" pos="5328" len="24"/>
          <note pan="0" key="37" vol="109" pos="5328" len="48"/>
          <note pan="0" key="49" vol="105" pos="5352" len="24"/>
          <note pan="0" key="49" vol="117" pos="5376" len="24"/>
          <note pan="0" key="32" vol="117" pos="5376" len="24"/>
          <note pan="0" key="59" vol="105" pos="5400" len="24"/>
          <note pan="0" key="37" vol="105" pos="5400" len="24"/>
          <note pan="0" key="56" vol="109" pos="5424" len="24"/>
          <note pan="0" key="41" vol="109" pos="5424" len="48"/>
          <note pan="0" key="53" vol="105" pos="5448" len="24"/>
          <note pan="0" key="54" vol="113" pos="5472" len="48"/>
          <note pan="0" key="42" vol="113" pos="5472" len="48"/>
          <note pan="0" key="49" vol="109" pos="5520" len="48"/>
          <note pan="0" key="54" vol="109" pos="5520" len="48"/>
          <note pan="0" key="57" vol="109" pos="5520" len="48"/>
          <note pan="0" key="57" vol="123" pos="5568" len="48"/>
          <note pan="0" key="30" vol="123" pos="5568" len="24"/>
          <note pan="0" key="33" vol="110" pos="5592" len="24"/>
          <note pan="0" key="54" vol="114" pos="5616" len="24"/>
          <note pan="0" key="37" vol="114" pos="5616" len="48"/>
          <note pan="0" key="49" vol="110" pos="5640" len="24"/>
          <note pan="0" key="57" vol="118" pos="5664" len="48"/>
          <note pan="0" key="30" vol="118" pos="5664" len="24"/>
          <note pan="0" key="33" vol="110" pos="5688" len="24"/>
          <note pan="0" key="54" vol="114" pos="5712" len="24"/>
          <note pan="0" key="37" vol="114" pos="5712" len="48"/>
          <note pan="0" key="49" vol="110" pos="5736" len="24"/>
          <note pan="0" key="59" vol="123" pos="5760" len="48"/>
          <note pan="0" key="32" vol="123" pos="5760" len="24"/>
          <note pan="0" key="37" vol="110" pos="5784" len="24"/>
          <note pan="0" key="56" vol="114" pos="5808" len="24"/>
          <note pan="0" key="41" vol="114" pos="5808" len="48"/>
          <note pan="0" key="53" vol="110" pos="5832" len="24"/>
          <note pan="0" key="59" vol="118" pos="5856" len="48"/>
          <note pan="0" key="32" vol="118" pos="5856" len="24"/>
          <note pan="0" key="37" vol="110" pos="5880" len="24"/>
          <note pan="0" key="56" vol="114" pos="5904" len="24"/>
          <note pan="0" key="41" vol="114" pos="5904" len="24"/>
          <note pan="0" key="53" vol="110" pos="5928" len="24"/>
          <note pan="0" key="29" vol="110" pos="5928" len="24"/>
          <note pan="0" key="57" vol="123" pos="5952" len="48"/>
          <note pan="0" key="30" vol="123" pos="5952" len="24"/>
          <note pan="0" key="33" vol="110" pos="5976" len="24"/>
          <note pan="0" key="54" vol="114" pos="6000" len="24"/>
          <note pan="0" key="37" vol="114" pos="6000" len="48"/>
          <note pan="0" key="49" vol="110" pos="6024" len="24"/>
          <note pan="0" key="57" vol="118" pos="6048" len="48"/>
          <note pan="0" key="30" vol="118" pos="6048" len="24"/>
          <note pan="0" key="33" vol="110" pos="6072" len="24"/>
          <note pan="0" key="54" vol="114" pos="6096" len="24"/>
          <note pan="0" key="37" vol="114" pos="6096" len="48"/>
          <note pan="0" key="49" vol="110" pos="6120" len="24"/>
          <note pan="0" key="49" vol="123" pos="6144" len="24"/>
          <note pan="0" key="42" vol="123" pos="6144" len="24"/>
          <note pan="0" key="64" vol="105" pos="6168" len="24"/>
          <note pan="0" key="37" vol="105" pos="6168" len="24"/>
          <note pan="0" key="61" vol="104" pos="6192" len="24"/>
          <note pan="0" key="34" vol="104" pos="6192" len="48"/>
          <note pan="0" key="58" vol="95" pos="6216" len="24"/>
          <note pan="0" key="59" vol="97" pos="6240" len="48"/>
          <note pan="0" key="35" vol="97" pos="6240" len="48"/>
          <note pan="0" key="59" vol="117" pos="6336" len="72"/>
          <note pan="0" key="35" vol="117" pos="6336" len="192"/>
          <note pan="0" key="59" vol="105" pos="6408" len="24"/>
          <note pan="0" key="59" vol="113" pos="6432" len="48"/>
          <note pan="0" key="54" vol="109" pos="6480" len="48"/>
          <note pan="0" key="61" vol="117" pos="6528" len="72"/>
          <note pan="0" key="30" vol="117" pos="6528" len="192"/>
          <note pan="0" key="61" vol="105" pos="6600" len="24"/>
          <note pan="0" key="61" vol="113" pos="6624" len="48"/>
          <note pan="0" key="54" vol="109" pos="6672" len="48"/>
          <note pan="0" key="63" vol="117" pos="6720" len="24"/>
          <note pan="0" key="35" vol="117" pos="6720" len="192"/>
          <note pan="0" key="61" vol="105" pos="6744" len="24"/>
          <note pan="0" key="63" vol="109" pos="6768" len="24"/>
          <note pan="0" key="64" vol="105" pos="6792" len="24"/>
          <note pan="0" key="63" vol="113" pos="6816" len="48"/>
          <note pan="0" key="61" vol="109" pos="6864" len="48"/>
          <note pan="0" key="64" vol="117" pos="6912" len="72"/>
          <note pan="0" key="28" vol="117" pos="6912" len="192"/>
          <note pan="0" key="61" vol="105" pos="6984" len="24"/>
          <note pan="0" key="59" vol="113" pos="7008" len="96"/>
          <note pan="0" key="59" vol="117" pos="7104" len="72"/>
          <note pan="0" key="35" vol="117" pos="7104" len="192"/>
          <note pan="0" key="59" vol="105" pos="7176" len="24"/>
          <note pan="0" key="59" vol="113" pos="7200" len="48"/>
          <note pan="0" key="54" vol="109" pos="7248" len="48"/>
          <note pan="0" key="61" vol="117" pos="7296" len="72"/>
          <note pan="0" key="30" vol="117" pos="7296" len="192"/>
          <note pan="0" key="61" vol="105" pos="7368" len="24"/>
          <note pan="0" key="61" vol="113" pos="7392" len="48"/>
          <note pan="0" key="54" vol="109" pos="7440" len="48"/>
          <note pan="0" key="63" vol="117" pos="7488" len="24"/>
          <note pan="0" key="35" vol="117" pos="7488" len="192"/>
          <note pan="0" key="61" vol="105" pos="7512" len="24"/>
          <note pan="0" key="63" vol="109" pos="7536" len="24"/>
          <note pan="0" key="64" vol="105" pos="7560" len="24"/>
          <note pan="0" key="63" vol="113" pos="7584" len="48"/>
          <note pan="0" key="61" vol="109" pos="7632" len="48"/>
          <note pan="0" key="63" vol="117" pos="7680" len="72"/>
          <note pan="0" key="30" vol="117" pos="7680" len="192"/>
          <note pan="0" key="65" vol="105" pos="7752" len="24"/>
          <note pan="0" key="66" vol="113" pos="7776" len="96"/>
          <note pan="0" key="59" vol="117" pos="7872" len="72"/>
          <note pan="0" key="35" vol="117" pos="7872" len="192"/>
          <note pan="0" key="59" vol="105" pos="7944" len="24"/>
          <note pan="0" key="59" vol="113" pos="7968" len="48"/>
          <note pan="0" key="54" vol="109" pos="8016" len="48"/>
          <note pan="0" key="61" vol="117" pos="8064" len="72"/>
          <note pan="0" key="30" vol="117" pos="8064" len="192"/>
          <note pan="0" key="61" vol="105" pos="8136" len="24"/>
          <note pan="0" key="61" vol="113" pos="8160" len="48"/>
          <note pan="0" key="54" vol="109" pos="8208" len="48"/>
          <note pan="0" key="63" vol="117" pos="8256" len="24"/>
          <note pan="0" key="35" vol="117" pos="8256" len="192"/>
          <note pan="0" key="61" vol="105" pos="8280" len="24"/>
          <note pan="0" key="63" vol="109" pos="8304" len="24"/>
          <note pan="0" key="64" vol="105" pos="8328" len="24"/>
          <note pan="0" key="63" vol="113" pos="8352" len="48"/>
          <note pan="0" key="61" vol="109" pos="8400" len="48"/>
          <note pan="0" key="64" vol="117" pos="8448" len="72"/>
          <note pan="0" key="28" vol="117" pos="8448" len="192"/>
          <note pan="0" key="61" vol="105" pos="8520" len="24"/>
          <note pan="0" key="59" vol="113" pos="8544" len="96"/>
          <note pan="0" key="59" vol="117" pos="8640" len="72"/>
          <note pan="0" key="35" vol="117" pos="8640" len="192"/>
          <note pan="0" key="59" vol="105" pos="8712" len="24"/>
          <note pan="0" key="59" vol="113" pos="8736" len="48"/>
          <note pan="0" key="54" vol="109" pos="8784" len="48"/>
          <note pan="0" key="61" vol="117" pos="8832" len="72"/>
          <note pan="0" key="30" vol="117" pos="8832" len="192"/>
          <note pan="0" key="61" vol="105" pos="8904" len="24"/>
          <note pan="0" key="61" vol="113" pos="8928" len="48"/>
          <note pan="0" key="54" vol="109" pos="8976" len="48"/>
          <note pan="0" key="63" vol="117" pos="9024" len="24"/>
          <note pan="0" key="35" vol="117" pos="9024" len="192"/>
          <note pan="0" key="61" vol="105" pos="9048" len="24"/>
          <note pan="0" key="63" vol="109" pos="9072" len="24"/>
          <note pan="0" key="64" vol="105" pos="9096" len="24"/>
          <note pan="0" key="63" vol="113" pos="9120" len="48"/>
          <note pan="0" key="61" vol="109" pos="9168" len="48"/>
          <note pan="0" key="66" vol="117" pos="9216" len="48"/>
          <note pan="0" key="30" vol="117" pos="9216" len="96"/>
          <note pan="0" key="58" vol="109" pos="9264" len="48"/>
          <note pan="0" key="59" vol="113" pos="9312" len="48"/>
          <note pan="0" key="35" vol="113" pos="9312" len="48"/>
          <note pan="0" key="59" vol="117" pos="9408" len="72"/>
          <note pan="0" key="54" vol="117" pos="9408" len="144"/>
          <note pan="0" key="51" vol="117" pos="9408" len="144"/>
          <note pan="0" key="35" vol="117" pos="9408" len="192"/>
          <note pan="0" key="59" vol="105" pos="9480" len="24"/>
          <note pan="0" key="59" vol="113" pos="9504" len="48"/>
          <note pan="0" key="54" vol="109" pos="9552" len="48"/>
          <note pan="0" key="47" vol="109" pos="9552" len="48"/>
          <note pan="0" key="51" vol="109" pos="9552" len="48"/>
          <note pan="0" key="61" vol="117" pos="9600" len="72"/>
          <note pan="0" key="49" vol="117" pos="9600" len="144"/>
          <note pan="0" key="54" vol="117" pos="9600" len="144"/>
          <note pan="0" key="30" vol="117" pos="9600" len="192"/>
          <note pan="0" key="61" vol="105" pos="9672" len="24"/>
          <note pan="0" key="61" vol="113" pos="9696" len="48"/>
          <note pan="0" key="54" vol="109" pos="9744" len="48"/>
          <note pan="0" key="46" vol="109" pos="9744" len="48"/>
          <note pan="0" key="49" vol="109" pos="9744" len="48"/>
          <note pan="0" key="63" vol="117" pos="9792" len="24"/>
          <note pan="0" key="51" vol="117" pos="9792" len="144"/>
          <note pan="0" key="47" vol="117" pos="9792" len="144"/>
          <note pan="0" key="35" vol="117" pos="9792" len="192"/>
          <note pan="0" key="61" vol="105" pos="9816" len="24"/>
          <note pan="0" key="63" vol="109" pos="9840" len="24"/>
          <note pan="0" key="64" vol="105" pos="9864" len="24"/>
          <note pan="0" key="63" vol="113" pos="9888" len="48"/>
          <note pan="0" key="61" vol="109" pos="9936" len="48"/>
          <note pan="0" key="51" vol="109" pos="9936" len="48"/>
          <note pan="0" key="54" vol="109" pos="9936" len="48"/>
          <note pan="0" key="64" vol="117" pos="9984" len="72"/>
          <note pan="0" key="52" vol="117" pos="9984" len="192"/>
          <note pan="0" key="47" vol="117" pos="9984" len="192"/>
          <note pan="0" key="28" vol="117" pos="9984" len="192"/>
          <note pan="0" key="61" vol="105" pos="10056" len="24"/>
          <note pan="0" key="59" vol="113" pos="10080" len="96"/>
          <note pan="0" key="59" vol="117" pos="10176" len="72"/>
          <note pan="0" key="54" vol="117" pos="10176" len="144"/>
          <note pan="0" key="51" vol="117" pos="10176" len="144"/>
          <note pan="0" key="35" vol="117" pos="10176" len="192"/>
          <note pan="0" key="59" vol="105" pos="10248" len="24"/>
          <note pan="0" key="59" vol="113" pos="10272" len="48"/>
          <note pan="0" key="54" vol="109" pos="10320" len="48"/>
          <note pan="0" key="47" vol="109" pos="10320" len="48"/>
          <note pan="0" key="51" vol="109" pos="10320" len="48"/>
          <note pan="0" key="61" vol="117" pos="10368" len="72"/>
          <note pan="0" key="49" vol="117" pos="10368" len="144"/>
          <note pan="0" key="54" vol="117" pos="10368" len="144"/>
          <note pan="0" key="30" vol="117" pos="10368" len="192"/>
          <note pan="0" key="61" vol="105" pos="10440" len="24"/>
          <note pan="0" key="61" vol="113" pos="10464" len="48"/>
          <note pan="0" key="54" vol="109" pos="10512" len="48"/>
          <note pan="0" key="46" vol="109" pos="10512" len="48"/>
          <note pan="0" key="49" vol="109" pos="10512" len="48"/>
          <note pan="0" key="63" vol="117" pos="10560" len="24"/>
          <note pan="0" key="51" vol="117" pos="10560" len="144"/>
          <note pan="0" key="47" vol="117" pos="10560" len="144"/>
          <note pan="0" key="35" vol="117" pos="10560" len="192"/>
          <note pan="0" key="61" vol="105" pos="10584" len="24"/>
          <note pan="0" key="63" vol="109" pos="10608" len="24"/>
          <note pan="0" key="64" vol="105" pos="10632" len="24"/>
          <note pan="0" key="63" vol="113" pos="10656" len="48"/>
          <note pan="0" key="61" vol="109" pos="10704" len="48"/>
          <note pan="0" key="51" vol="109" pos="10704" len="48"/>
          <note pan="0" key="54" vol="109" pos="10704" len="48"/>
          <note pan="0" key="63" vol="117" pos="10752" len="72"/>
          <note pan="0" key="30" vol="117" pos="10752" len="192"/>
          <note pan="0" key="54" vol="117" pos="10752" len="192"/>
          <note pan="0" key="49" vol="117" pos="10752" len="192"/>
          <note pan="0" key="65" vol="105" pos="10824" len="24"/>
          <note pan="0" key="66" vol="113" pos="10848" len="96"/>
          <note pan="0" key="59" vol="117" pos="10944" len="72"/>
          <note pan="0" key="54" vol="117" pos="10944" len="144"/>
          <note pan="0" key="51" vol="117" pos="10944" len="144"/>
          <note pan="0" key="35" vol="117" pos="10944" len="192"/>
          <note pan="0" key="59" vol="105" pos="11016" len="24"/>
          <note pan="0" key="59" vol="113" pos="11040" len="48"/>
          <note pan="0" key="54" vol="109" pos="11088" len="48"/>
          <note pan="0" key="47" vol="109" pos="11088" len="48"/>
          <note pan="0" key="51" vol="109" pos="11088" len="48"/>
          <note pan="0" key="61" vol="117" pos="11136" len="72"/>
          <note pan="0" key="49" vol="117" pos="11136" len="144"/>
          <note pan="0" key="54" vol="117" pos="11136" len="144"/>
          <note pan="0" key="30" vol="117" pos="11136" len="192"/>
          <note pan="0" key="61" vol="105" pos="11208" len="24"/>
          <note pan="0" key="61" vol="113" pos="11232" len="48"/>
          <note pan="0" key="54" vol="109" pos="11280" len="48"/>
          <note pan="0" key="46" vol="109" pos="11280" len="48"/>
          <note pan="0" key="49" vol="109" pos="11280" len="48"/>
          <note pan="0" key="63" vol="117" pos="11328" len="24"/>
          <note pan="0" key="47" vol="117" pos="11328" len="144"/>
          <note pan="0" key="51" vol="117" pos="11328" len="144"/>
          <note pan="0" key="35" vol="117" pos="11328" len="192"/>
          <note pan="0" key="61" vol="105" pos="11352" len="24"/>
          <note pan="0" key="63" vol="109" pos="11376" len="24"/>
          <note pan="0" key="64" vol="105" pos="11400" len="24"/>
          <note pan="0" key="63" vol="113" pos="11424" len="48"/>
          <note pan="0" key="61" vol="109" pos="11472" len="48"/>
          <note pan="0" key="51" vol="109" pos="11472" len="48"/>
          <note pan="0" key="54" vol="109" pos="11472" len="48"/>
          <note pan="0" key="64" vol="117" pos="11520" len="72"/>
          <note pan="0" key="47" vol="117" pos="11520" len="192"/>
          <note pan="0" key="52" vol="117" pos="11520" len="192"/>
          <note pan="0" key="28" vol="117" pos="11520" len="192"/>
          <note pan="0" key="61" vol="105" pos="11592" len="24"/>
          <note pan="0" key="59" vol="113" pos="11616" len="96"/>
          <note pan="0" key="59" vol="117" pos="11712" len="72"/>
          <note pan="0" key="54" vol="117" pos="11712" len="144"/>
          <note pan="0" key="51" vol="117" pos="11712" len="144"/>
          <note pan="0" key="35" vol="117" pos="11712" len="192"/>
          <note pan="0" key="59" vol="105" pos="11784" len="24"/>
          <note pan="0" key="59" vol="113" pos="11808" len="48"/>
          <note pan="0" key="54" vol="109" pos="11856" len="48"/>
          <note pan="0" key="51" vol="109" pos="11856" len="48"/>
          <note pan="0" key="47" vol="109" pos="11856" len="48"/>
          <note pan="0" key="61" vol="117" pos="11904" len="72"/>
          <note pan="0" key="54" vol="117" pos="11904" len="144"/>
          <note pan="0" key="49" vol="117" pos="11904" len="144"/>
          <note pan="0" key="30" vol="117" pos="11904" len="192"/>
          <note pan="0" key="61" vol="105" pos="11976" len="24"/>
          <note pan="0" key="61" vol="113" pos="12000" len="48"/>
          <note pan="0" key="54" vol="109" pos="12048" len="48"/>
          <note pan="0" key="49" vol="109" pos="12048" len="48"/>
          <note pan="0" key="46" vol="109" pos="12048" len="48"/>
          <note pan="0" key="63" vol="117" pos="12096" len="24"/>
          <note pan="0" key="51" vol="117" pos="12096" len="144"/>
          <note pan="0" key="47" vol="117" pos="12096" len="144"/>
          <note pan="0" key="35" vol="117" pos="12096" len="192"/>
          <note pan="0" key="61" vol="105" pos="12120" len="24"/>
          <note pan="0" key="63" vol="109" pos="12144" len="24"/>
          <note pan="0" key="64" vol="105" pos="12168" len="24"/>
          <note pan="0" key="63" vol="113" pos="12192" len="48"/>
          <note pan="0" key="61" vol="109" pos="12240" len="48"/>
          <note pan="0" key="54" vol="109" pos="12240" len="48"/>
          <note pan="0" key="51" vol="109" pos="12240" len="48"/>
          <note pan="0" key="66" vol="117" pos="12288" len="48"/>
          <note pan="0" key="49" vol="117" pos="12288" len="48"/>
          <note pan="0" key="46" vol="117" pos="12288" len="48"/>
          <note pan="0" key="30" vol="117" pos="12288" len="96"/>
          <note pan="0" key="58" vol="109" pos="12336" len="48"/>
          <note pan="0" key="52" vol="109" pos="12336" len="48"/>
          <note pan="0" key="42" vol="109" pos="12336" len="48"/>
          <note pan="0" key="59" vol="113" pos="12384" len="48"/>
          <note pan="0" key="35" vol="113" pos="12384" len="48"/>
          <note pan="0" key="51" vol="113" pos="12384" len="48"/>
          <note pan="0" key="47" vol="113" pos="12384" len="48"/>
          <note pan="0" key="63" vol="100" pos="12480" len="72"/>
          <note pan="0" key="47" vol="100" pos="12480" len="192"/>
          <note pan="0" key="35" vol="100" pos="12480" len="192"/>
          <note pan="0" key="54" vol="90" pos="12552" len="24"/>
          <note pan="0" key="54" vol="97" pos="12576" len="48"/>
          <note pan="0" key="63" vol="93" pos="12624" len="48"/>
          <note pan="0" key="59" vol="100" pos="12672" len="72"/>
          <note pan="0" key="44" vol="100" pos="12672" len="192"/>
          <note pan="0" key="40" vol="100" pos="12672" len="192"/>
          <note pan="0" key="56" vol="90" pos="12744" len="24"/>
          <note pan="0" key="56" vol="97" pos="12768" len="48"/>
          <note pan="0" key="59" vol="93" pos="12816" len="48"/>
          <note pan="0" key="61" vol="100" pos="12864" len="72"/>
          <note pan="0" key="46" vol="100" pos="12864" len="192"/>
          <note pan="0" key="40" vol="100" pos="12864" len="192"/>
          <note pan="0" key="54" vol="90" pos="12936" len="24"/>
          <note pan="0" key="54" vol="97" pos="12960" len="48"/>
          <note pan="0" key="61" vol="93" pos="13008" len="48"/>
          <note pan="0" key="63" vol="100" pos="13056" len="48"/>
          <note pan="0" key="35" vol="100" pos="13056" len="192"/>
          <note pan="0" key="47" vol="100" pos="13056" len="192"/>
          <note pan="0" key="63" vol="93" pos="13104" len="48"/>
          <note pan="0" key="54" vol="97" pos="13152" len="96"/>
          <note pan="0" key="61" vol="100" pos="13248" len="72"/>
          <note pan="0" key="40" vol="100" pos="13248" len="192"/>
          <note pan="0" key="46" vol="100" pos="13248" len="192"/>
          <note pan="0" key="54" vol="90" pos="13320" len="24"/>
          <note pan="0" key="55" vol="97" pos="13344" len="48"/>
          <note pan="0" key="61" vol="93" pos="13392" len="48"/>
          <note pan="0" key="60" vol="100" pos="13440" len="72"/>
          <note pan="0" key="41" vol="100" pos="13440" len="192"/>
          <note pan="0" key="45" vol="100" pos="13440" len="192"/>
          <note pan="0" key="57" vol="90" pos="13512" len="24"/>
          <note pan="0" key="57" vol="97" pos="13536" len="48"/>
          <note pan="0" key="60" vol="93" pos="13584" len="48"/>
          <note pan="0" key="58" vol="100" pos="13632" len="72"/>
          <note pan="0" key="41" vol="100" pos="13632" len="192"/>
          <note pan="0" key="46" vol="100" pos="13632" len="192"/>
          <note pan="0" key="50" vol="90" pos="13704" len="24"/>
          <note pan="0" key="50" vol="97" pos="13728" len="48"/>
          <note pan="0" key="58" vol="93" pos="13776" len="48"/>
          <note pan="0" key="60" vol="100" pos="13824" len="72"/>
          <note pan="0" key="46" vol="100" pos="13824" len="192"/>
          <note pan="0" key="40" vol="100" pos="13824" len="192"/>
          <note pan="0" key="55" vol="90" pos="13896" len="24"/>
          <note pan="0" key="55" vol="97" pos="13920" len="48"/>
          <note pan="0" key="60" vol="93" pos="13968" len="48"/>
          <note pan="0" key="60" vol="100" pos="14016" len="48"/>
          <note pan="0" key="45" vol="100" pos="14016" len="192"/>
          <note pan="0" key="41" vol="100" pos="14016" len="192"/>
          <note pan="0" key="60" vol="93" pos="14064" len="48"/>
          <note pan="0" key="57" vol="97" pos="14112" len="96"/>
          <note pan="0" key="60" vol="100" pos="14208" len="72"/>
          <note pan="0" key="46" vol="100" pos="14208" len="192"/>
          <note pan="0" key="40" vol="100" pos="14208" len="192"/>
          <note pan="0" key="55" vol="90" pos="14280" len="24"/>
          <note pan="0" key="55" vol="97" pos="14304" len="48"/>
          <note pan="0" key="60" vol="93" pos="14352" len="48"/>
          <note pan="0" key="59" vol="100" pos="14400" len="72"/>
          <note pan="0" key="40" vol="100" pos="14400" len="192"/>
          <note pan="0" key="43" vol="100" pos="14400" len="192"/>
          <note pan="0" key="55" vol="90" pos="14472" len="24"/>
          <note pan="0" key="55" vol="97" pos="14496" len="48"/>
          <note pan="0" key="59" vol="93" pos="14544" len="48"/>
          <note pan="0" key="60" vol="100" pos="14592" len="72"/>
          <note pan="0" key="45" vol="100" pos="14592" len="192"/>
          <note pan="0" key="40" vol="100" pos="14592" len="192"/>
          <note pan="0" key="57" vol="90" pos="14664" len="24"/>
          <note pan="0" key="57" vol="97" pos="14688" len="48"/>
          <note pan="0" key="60" vol="93" pos="14736" len="48"/>
          <note pan="0" key="59" vol="100" pos="14784" len="72"/>
          <note pan="0" key="39" vol="100" pos="14784" len="192"/>
          <note pan="0" key="47" vol="100" pos="14784" len="192"/>
          <note pan="0" key="54" vol="90" pos="14856" len="24"/>
          <note pan="0" key="54" vol="97" pos="14880" len="48"/>
          <note pan="0" key="59" vol="93" pos="14928" len="48"/>
          <note pan="0" key="52" vol="100" pos="14976" len="192"/>
          <note pan="0" key="59" vol="100" pos="14976" len="192"/>
          <note pan="0" key="40" vol="100" pos="14976" len="192"/>
          <note pan="0" key="43" vol="100" pos="14976" len="192"/>
          <note pan="0" key="59" vol="100" pos="15168" len="96"/>
          <note pan="0" key="67" vol="100" pos="15168" len="96"/>
          <note pan="0" key="40" vol="100" pos="15168" len="96"/>
          <note pan="0" key="35" vol="100" pos="15168" len="96"/>
          <note pan="0" key="59" vol="97" pos="15264" len="96"/>
          <note pan="0" key="66" vol="97" pos="15264" len="96"/>
          <note pan="0" key="39" vol="97" pos="15264" len="96"/>
          <note pan="0" key="23" vol="97" pos="15264" len="96"/>
          <note pan="0" key="67" vol="100" pos="15360" len="144"/>
          <note pan="0" key="59" vol="100" pos="15360" len="144"/>
          <note pan="0" key="40" vol="100" pos="15360" len="144"/>
          <note pan="0" key="28" vol="100" pos="15360" len="144"/>
          <note pan="0" key="55" vol="83" pos="15504" len="24"/>
          <note pan="0" key="54" vol="80" pos="15528" len="24"/>
          <note pan="0" key="55" vol="89" pos="15552" len="48"/>
          <note pan="0" key="28" vol="67" pos="15552" len="48"/>
          <note pan="0" key="47" vol="83" pos="15600" len="48"/>
          <note pan="0" key="31" vol="62" pos="15600" len="48"/>
          <note pan="0" key="52" vol="86" pos="15648" len="48"/>
          <note pan="0" key="35" vol="64" pos="15648" len="48"/>
          <note pan="0" key="55" vol="83" pos="15696" len="24"/>
          <note pan="0" key="40" vol="62" pos="15696" len="48"/>
          <note pan="0" key="54" vol="80" pos="15720" len="24"/>
          <note pan="0" key="55" vol="89" pos="15744" len="48"/>
          <note pan="0" key="28" vol="67" pos="15744" len="48"/>
          <note pan="0" key="47" vol="83" pos="15792" len="48"/>
          <note pan="0" key="31" vol="62" pos="15792" len="48"/>
          <note pan="0" key="52" vol="86" pos="15840" len="48"/>
          <note pan="0" key="35" vol="64" pos="15840" len="48"/>
          <note pan="0" key="55" vol="83" pos="15888" len="24"/>
          <note pan="0" key="40" vol="62" pos="15888" len="48"/>
          <note pan="0" key="54" vol="80" pos="15912" len="24"/>
          <note pan="0" key="55" vol="89" pos="15936" len="48"/>
          <note pan="0" key="28" vol="67" pos="15936" len="48"/>
          <note pan="0" key="47" vol="83" pos="15984" len="48"/>
          <note pan="0" key="31" vol="62" pos="15984" len="48"/>
          <note pan="0" key="52" vol="86" pos="16032" len="48"/>
          <note pan="0" key="35" vol="64" pos="16032" len="48"/>
          <note pan="0" key="54" vol="95" pos="16080" len="24"/>
          <note pan="0" key="31" vol="62" pos="16080" len="48"/>
          <note pan="0" key="55" vol="98" pos="16104" len="24"/>
          <note pan="0" key="55" vol="117" pos="16128" len="6"/>
          <note pan="0" key="33" vol="67" pos="16128" len="48"/>
          <note pan="0" key="57" vol="101" pos="16134" len="42"/>
          <note pan="0" key="55" vol="109" pos="16176" len="24"/>
          <note pan="0" key="36" vol="62" pos="16176" len="48"/>
          <note pan="0" key="54" vol="98" pos="16200" len="24"/>
          <note pan="0" key="52" vol="99" pos="16224" len="48"/>
          <note pan="0" key="40" vol="64" pos="16224" len="48"/>
          <note pan="0" key="55" vol="83" pos="16272" len="24"/>
          <note pan="0" key="35" vol="62" pos="16272" len="48"/>
          <note pan="0" key="54" vol="80" pos="16296" len="24"/>
          <note pan="0" key="55" vol="89" pos="16320" len="48"/>
          <note pan="0" key="28" vol="67" pos="16320" len="48"/>
          <note pan="0" key="47" vol="83" pos="16368" len="48"/>
          <note pan="0" key="31" vol="62" pos="16368" len="48"/>
          <note pan="0" key="52" vol="86" pos="16416" len="48"/>
          <note pan="0" key="35" vol="64" pos="16416" len="48"/>
          <note pan="0" key="55" vol="83" pos="16464" len="24"/>
          <note pan="0" key="40" vol="62" pos="16464" len="48"/>
          <note pan="0" key="54" vol="80" pos="16488" len="24"/>
          <note pan="0" key="55" vol="89" pos="16512" len="48"/>
          <note pan="0" key="28" vol="67" pos="16512" len="48"/>
          <note pan="0" key="47" vol="83" pos="16560" len="48"/>
          <note pan="0" key="31" vol="62" pos="16560" len="48"/>
          <note pan="0" key="52" vol="86" pos="16608" len="48"/>
          <note pan="0" key="35" vol="64" pos="16608" len="48"/>
          <note pan="0" key="55" vol="83" pos="16656" len="24"/>
          <note pan="0" key="40" vol="62" pos="16656" len="48"/>
          <note pan="0" key="54" vol="80" pos="16680" len="24"/>
          <note pan="0" key="55" vol="89" pos="16704" len="48"/>
          <note pan="0" key="28" vol="67" pos="16704" len="48"/>
          <note pan="0" key="47" vol="83" pos="16752" len="48"/>
          <note pan="0" key="31" vol="62" pos="16752" len="48"/>
          <note pan="0" key="52" vol="86" pos="16800" len="48"/>
          <note pan="0" key="35" vol="64" pos="16800" len="48"/>
          <note pan="0" key="54" vol="95" pos="16848" len="24"/>
          <note pan="0" key="34" vol="62" pos="16848" len="48"/>
          <note pan="0" key="55" vol="98" pos="16872" len="24"/>
          <note pan="0" key="54" vol="117" pos="16896" len="6"/>
          <note pan="0" key="35" vol="67" pos="16896" len="48"/>
          <note pan="0" key="57" vol="101" pos="16902" len="42"/>
          <note pan="0" key="54" vol="109" pos="16944" len="24"/>
          <note pan="0" key="27" vol="62" pos="16944" len="48"/>
          <note pan="0" key="51" vol="98" pos="16968" len="24"/>
          <note pan="0" key="52" vol="99" pos="16992" len="48"/>
          <note pan="0" key="28" vol="64" pos="16992" len="48"/>
          <note pan="0" key="55" vol="83" pos="17040" len="24"/>
          <note pan="0" key="23" vol="62" pos="17040" len="48"/>
          <note pan="0" key="54" vol="80" pos="17064" len="24"/>
          <note pan="0" key="55" vol="89" pos="17088" len="48"/>
          <note pan="0" key="28" vol="67" pos="17088" len="24"/>
          <note pan="0" key="30" vol="60" pos="17112" len="24"/>
          <note pan="0" key="47" vol="83" pos="17136" len="48"/>
          <note pan="0" key="31" vol="62" pos="17136" len="24"/>
          <note pan="0" key="33" vol="60" pos="17160" len="24"/>
          <note pan="0" key="52" vol="86" pos="17184" len="48"/>
          <note pan="0" key="35" vol="64" pos="17184" len="24"/>
          <note pan="0" key="36" vol="60" pos="17208" len="24"/>
          <note pan="0" key="55" vol="83" pos="17232" len="24"/>
          <note pan="0" key="38" vol="62" pos="17232" len="24"/>
          <note pan="0" key="54" vol="80" pos="17256" len="24"/>
          <note pan="0" key="40" vol="60" pos="17256" len="24"/>
          <note pan="0" key="55" vol="89" pos="17280" len="48"/>
          <note pan="0" key="28" vol="67" pos="17280" len="24"/>
          <note pan="0" key="30" vol="60" pos="17304" len="24"/>
          <note pan="0" key="47" vol="83" pos="17328" len="48"/>
          <note pan="0" key="31" vol="62" pos="17328" len="24"/>
          <note pan="0" key="33" vol="60" pos="17352" len="24"/>
          <note pan="0" key="52" vol="86" pos="17376" len="48"/>
          <note pan="0" key="31" vol="64" pos="17376" len="24"/>
          <note pan="0" key="30" vol="60" pos="17400" len="24"/>
          <note pan="0" key="55" vol="83" pos="17424" len="24"/>
          <note pan="0" key="28" vol="62" pos="17424" len="24"/>
          <note pan="0" key="54" vol="80" pos="17448" len="24"/>
          <note pan="0" key="26" vol="60" pos="17448" len="24"/>
          <note pan="0" key="55" vol="89" pos="17472" len="48"/>
          <note pan="0" key="28" vol="67" pos="17472" len="24"/>
          <note pan="0" key="30" vol="60" pos="17496" len="24"/>
          <note pan="0" key="47" vol="83" pos="17520" len="48"/>
          <note pan="0" key="31" vol="62" pos="17520" len="24"/>
          <note pan="0" key="33" vol="60" pos="17544" len="24"/>
          <note pan="0" key="52" vol="86" pos="17568" len="48"/>
          <note pan="0" key="35" vol="64" pos="17568" len="24"/>
          <note pan="0" key="36" vol="60" pos="17592" len="24"/>
          <note pan="0" key="54" vol="95" pos="17616" len="24"/>
          <note pan="0" key="38" vol="62" pos="17616" len="24"/>
          <note pan="0" key="55" vol="98" pos="17640" len="24"/>
          <note pan="0" key="40" vol="60" pos="17640" len="24"/>
          <note pan="0" key="55" vol="117" pos="17664" len="6"/>
          <note pan="0" key="33" vol="67" pos="17664" len="24"/>
          <note pan="0" key="57" vol="101" pos="17670" len="42"/>
          <note pan="0" key="35" vol="60" pos="17688" len="24"/>
          <note pan="0" key="55" vol="109" pos="17712" len="24"/>
          <note pan="0" key="36" vol="62" pos="17712" len="24"/>
          <note pan="0" key="54" vol="98" pos="17736" len="24"/>
          <note pan="0" key="38" vol="60" pos="17736" len="24"/>
          <note pan="0" key="52" vol="99" pos="17760" len="48"/>
          <note pan="0" key="40" vol="64" pos="17760" len="24"/>
          <note pan="0" key="38" vol="60" pos="17784" len="24"/>
          <note pan="0" key="55" vol="83" pos="17808" len="24"/>
          <note pan="0" key="36" vol="62" pos="17808" len="24"/>
          <note pan="0" key="54" vol="80" pos="17832" len="24"/>
          <note pan="0" key="26" vol="60" pos="17832" len="24"/>
          <note pan="0" key="55" vol="89" pos="17856" len="48"/>
          <note pan="0" key="28" vol="67" pos="17856" len="24"/>
          <note pan="0" key="30" vol="60" pos="17880" len="24"/>
          <note pan="0" key="47" vol="83" pos="17904" len="48"/>
          <note pan="0" key="31" vol="62" pos="17904" len="24"/>
          <note pan="0" key="33" vol="60" pos="17928" len="24"/>
          <note pan="0" key="52" vol="86" pos="17952" len="48"/>
          <note pan="0" key="35" vol="64" pos="17952" len="24"/>
          <note pan="0" key="36" vol="60" pos="17976" len="24"/>
          <note pan="0" key="55" vol="83" pos="18000" len="24"/>
          <note pan="0" key="38" vol="62" pos="18000" len="24"/>
          <note pan="0" key="54" vol="80" pos="18024" len="24"/>
          <note pan="0" key="40" vol="60" pos="18024" len="24"/>
          <note pan="0" key="55" vol="89" pos="18048" len="48"/>
          <note pan="0" key="28" vol="67" pos="18048" len="24"/>
          <note pan="0" key="30" vol="60" pos="18072" len="24"/>
          <note pan="0" key="47" vol="83" pos="18096" len="48"/>
          <note pan="0" key="31" vol="62" pos="18096" len="24"/>
          <note pan="0" key="33" vol="60" pos="18120" len="24"/>
          <note pan="0" key="52" vol="86" pos="18144" len="48"/>
          <note pan="0" key="31" vol="64" pos="18144" len="24"/>
          <note pan="0" key="30" vol="60" pos="18168" len="24"/>
          <note pan="0" key="55" vol="83" pos="18192" len="24"/>
          <note pan="0" key="28" vol="62" pos="18192" len="24"/>
          <note pan="0" key="54" vol="80" pos="18216" len="24"/>
          <note pan="0" key="26" vol="60" pos="18216" len="24"/>
          <note pan="0" key="55" vol="89" pos="18240" len="48"/>
          <note pan="0" key="28" vol="67" pos="18240" len="24"/>
          <note pan="0" key="30" vol="60" pos="18264" len="24"/>
          <note pan="0" key="47" vol="83" pos="18288" len="48"/>
          <note pan="0" key="31" vol="62" pos="18288" len="24"/>
          <note pan="0" key="33" vol="60" pos="18312" len="24"/>
          <note pan="0" key="52" vol="86" pos="18336" len="48"/>
          <note pan="0" key="35" vol="64" pos="18336" len="24"/>
          <note pan="0" key="33" vol="71" pos="18360" len="24"/>
          <note pan="0" key="54" vol="95" pos="18384" len="24"/>
          <note pan="0" key="31" vol="85" pos="18384" len="24"/>
          <note pan="0" key="55" vol="98" pos="18408" len="24"/>
          <note pan="0" key="34" vol="93" pos="18408" len="24"/>
          <note pan="0" key="54" vol="117" pos="18432" len="6"/>
          <note pan="0" key="35" vol="117" pos="18432" len="24"/>
          <note pan="0" key="57" vol="101" pos="18438" len="42"/>
          <note pan="0" key="30" vol="105" pos="18456" len="24"/>
          <note pan="0" key="54" vol="109" pos="18480" len="24"/>
          <note pan="0" key="33" vol="109" pos="18480" len="24"/>
          <note pan="0" key="51" vol="105" pos="18504" len="24"/>
          <note pan="0" key="27" vol="105" pos="18504" len="24"/>
          <note pan="0" key="52" vol="113" pos="18528" len="48"/>
          <note pan="0" key="28" vol="113" pos="18528" len="48"/>
          <note pan="0" key="23" vol="109" pos="18576" len="48"/>
          <note pan="0" key="55" vol="89" pos="18624" len="48"/>
          <note pan="0" key="28" vol="89" pos="18624" len="24"/>
          <note pan="0" key="31" vol="80" pos="18648" len="24"/>
          <note pan="0" key="52" vol="83" pos="18672" len="24"/>
          <note pan="0" key="35" vol="83" pos="18672" len="48"/>
          <note pan="0" key="47" vol="80" pos="18696" len="24"/>
          <note pan="0" key="55" vol="86" pos="18720" len="48"/>
          <note pan="0" key="28" vol="86" pos="18720" len="24"/>
          <note pan="0" key="31" vol="80" pos="18744" len="24"/>
          <note pan="0" key="52" vol="83" pos="18768" len="24"/>
          <note pan="0" key="35" vol="83" pos="18768" len="48"/>
          <note pan="0" key="47" vol="80" pos="18792" len="24"/>
          <note pan="0" key="57" vol="89" pos="18816" len="48"/>
          <note pan="0" key="30" vol="89" pos="18816" len="24"/>
          <note pan="0" key="35" vol="80" pos="18840" len="24"/>
          <note pan="0" key="54" vol="83" pos="18864" len="24"/>
          <note pan="0" key="39" vol="83" pos="18864" len="48"/>
          <note pan="0" key="51" vol="80" pos="18888" len="24"/>
          <note pan="0" key="57" vol="86" pos="18912" len="48"/>
          <note pan="0" key="30" vol="86" pos="18912" len="24"/>
          <note pan="0" key="35" vol="80" pos="18936" len="24"/>
          <note pan="0" key="54" vol="83" pos="18960" len="24"/>
          <note pan="0" key="39" vol="83" pos="18960" len="24"/>
          <note pan="0" key="51" vol="80" pos="18984" len="24"/>
          <note pan="0" key="27" vol="80" pos="18984" len="24"/>
          <note pan="0" key="55" vol="89" pos="19008" len="48"/>
          <note pan="0" key="28" vol="89" pos="19008" len="24"/>
          <note pan="0" key="31" vol="80" pos="19032" len="24"/>
          <note pan="0" key="52" vol="83" pos="19056" len="24"/>
          <note pan="0" key="35" vol="83" pos="19056" len="48"/>
          <note pan="0" key="47" vol="80" pos="19080" len="24"/>
          <note pan="0" key="55" vol="86" pos="19104" len="48"/>
          <note pan="0" key="28" vol="86" pos="19104" len="24"/>
          <note pan="0" key="31" vol="80" pos="19128" len="24"/>
          <note pan="0" key="52" vol="83" pos="19152" len="24"/>
          <note pan="0" key="35" vol="83" pos="19152" len="48"/>
          <note pan="0" key="47" vol="80" pos="19176" len="24"/>
          <note pan="0" key="47" vol="89" pos="19200" len="24"/>
          <note pan="0" key="30" vol="89" pos="19200" len="24"/>
          <note pan="0" key="57" vol="80" pos="19224" len="24"/>
          <note pan="0" key="35" vol="80" pos="19224" len="24"/>
          <note pan="0" key="54" vol="83" pos="19248" len="24"/>
          <note pan="0" key="39" vol="83" pos="19248" len="48"/>
          <note pan="0" key="51" vol="80" pos="19272" len="24"/>
          <note pan="0" key="52" vol="86" pos="19296" len="48"/>
          <note pan="0" key="40" vol="86" pos="19296" len="48"/>
          <note pan="0" key="47" vol="83" pos="19344" len="48"/>
          <note pan="0" key="52" vol="83" pos="19344" len="48"/>
          <note pan="0" key="55" vol="83" pos="19344" len="48"/>
          <note pan="0" key="55" vol="100" pos="19392" len="48"/>
          <note pan="0" key="28" vol="100" pos="19392" len="24"/>
          <note pan="0" key="31" vol="90" pos="19416" len="24"/>
          <note pan="0" key="52" vol="93" pos="19440" len="24"/>
          <note pan="0" key="35" vol="93" pos="19440" len="48"/>
          <note pan="0" key="47" vol="90" pos="19464" len="24"/>
          <note pan="0" key="55" vol="97" pos="19488" len="48"/>
          <note pan="0" key="28" vol="97" pos="19488" len="24"/>
          <note pan="0" key="31" vol="90" pos="19512" len="24"/>
          <note pan="0" key="52" vol="93" pos="19536" len="24"/>
          <note pan="0" key="35" vol="93" pos="19536" len="48"/>
          <note pan="0" key="47" vol="90" pos="19560" len="24"/>
          <note pan="0" key="57" vol="100" pos="19584" len="48"/>
          <note pan="0" key="30" vol="100" pos="19584" len="24"/>
          <note pan="0" key="35" vol="90" pos="19608" len="24"/>
          <note pan="0" key="54" vol="93" pos="19632" len="24"/>
          <note pan="0" key="39" vol="93" pos="19632" len="48"/>
          <note pan="0" key="51" vol="90" pos="19656" len="24"/>
          <note pan="0" key="57" vol="97" pos="19680" len="48"/>
          <note pan="0" key="30" vol="97" pos="19680" len="24"/>
          <note pan="0" key="35" vol="90" pos="19704" len="24"/>
          <note pan="0" key="54" vol="93" pos="19728" len="24"/>
          <note pan="0" key="39" vol="93" pos="19728" len="24"/>
          <note pan="0" key="51" vol="90" pos="19752" len="24"/>
          <note pan="0" key="27" vol="90" pos="19752" len="24"/>
          <note pan="0" key="55" vol="100" pos="19776" len="48"/>
          <note pan="0" key="28" vol="100" pos="19776" len="24"/>
          <note pan="0" key="31" vol="90" pos="19800" len="24"/>
          <note pan="0" key="52" vol="93" pos="19824" len="24"/>
          <note pan="0" key="35" vol="93" pos="19824" len="48"/>
          <note pan="0" key="47" vol="90" pos="19848" len="24"/>
          <note pan="0" key="55" vol="97" pos="19872" len="48"/>
          <note pan="0" key="28" vol="97" pos="19872" len="24"/>
          <note pan="0" key="31" vol="90" pos="19896" len="24"/>
          <note pan="0" key="52" vol="93" pos="19920" len="24"/>
          <note pan="0" key="35" vol="93" pos="19920" len="48"/>
          <note pan="0" key="47" vol="90" pos="19944" len="24"/>
          <note pan="0" key="47" vol="100" pos="19968" len="24"/>
          <note pan="0" key="40" vol="100" pos="19968" len="24"/>
          <note pan="0" key="62" vol="90" pos="19992" len="24"/>
          <note pan="0" key="35" vol="90" pos="19992" len="24"/>
          <note pan="0" key="59" vol="93" pos="20016" len="24"/>
          <note pan="0" key="32" vol="93" pos="20016" len="48"/>
          <note pan="0" key="56" vol="90" pos="20040" len="24"/>
          <note pan="0" key="57" vol="97" pos="20064" len="48"/>
          <note pan="0" key="33" vol="97" pos="20064" len="48"/>
          <note pan="0" key="57" vol="93" pos="20112" len="48"/>
          <note pan="0" key="49" vol="93" pos="20112" len="48"/>
          <note pan="0" key="52" vol="93" pos="20112" len="48"/>
          <note pan="0" key="57" vol="117" pos="20160" len="48"/>
          <note pan="0" key="30" vol="117" pos="20160" len="24"/>
          <note pan="0" key="33" vol="105" pos="20184" len="24"/>
          <note pan="0" key="54" vol="109" pos="20208" len="24"/>
          <note pan="0" key="37" vol="109" pos="20208" len="48"/>
          <note pan="0" key="49" vol="105" pos="20232" len="24"/>
          <note pan="0" key="57" vol="113" pos="20256" len="48"/>
          <note pan="0" key="30" vol="113" pos="20256" len="24"/>
          <note pan="0" key="33" vol="105" pos="20280" len="24"/>
          <note pan="0" key="54" vol="109" pos="20304" len="24"/>
          <note pan="0" key="37" vol="109" pos="20304" len="48"/>
          <note pan="0" key="49" vol="105" pos="20328" len="24"/>
          <note pan="0" key="59" vol="117" pos="20352" len="48"/>
          <note pan="0" key="32" vol="117" pos="20352" len="24"/>
          <note pan="0" key="37" vol="105" pos="20376" len="24"/>
          <note pan="0" key="56" vol="109" pos="20400" len="24"/>
          <note pan="0" key="41" vol="109" pos="20400" len="48"/>
          <note pan="0" key="53" vol="105" pos="20424" len="24"/>
          <note pan="0" key="59" vol="113" pos="20448" len="48"/>
          <note pan="0" key="32" vol="113" pos="20448" len="24"/>
          <note pan="0" key="37" vol="105" pos="20472" len="24"/>
          <note pan="0" key="56" vol="109" pos="20496" len="24"/>
          <note pan="0" key="41" vol="109" pos="20496" len="24"/>
          <note pan="0" key="53" vol="105" pos="20520" len="24"/>
          <note pan="0" key="29" vol="105" pos="20520" len="24"/>
          <note pan="0" key="57" vol="117" pos="20544" len="48"/>
          <note pan="0" key="30" vol="117" pos="20544" len="24"/>
          <note pan="0" key="33" vol="105" pos="20568" len="24"/>
          <note pan="0" key="54" vol="109" pos="20592" len="24"/>
          <note pan="0" key="37" vol="109" pos="20592" len="48"/>
          <note pan="0" key="49" vol="105" pos="20616" len="24"/>
          <note pan="0" key="57" vol="113" pos="20640" len="48"/>
          <note pan="0" key="30" vol="113" pos="20640" len="24"/>
          <note pan="0" key="33" vol="105" pos="20664" len="24"/>
          <note pan="0" key="54" vol="109" pos="20688" len="24"/>
          <note pan="0" key="37" vol="109" pos="20688" len="48"/>
          <note pan="0" key="49" vol="105" pos="20712" len="24"/>
          <note pan="0" key="49" vol="117" pos="20736" len="24"/>
          <note pan="0" key="32" vol="117" pos="20736" len="24"/>
          <note pan="0" key="59" vol="105" pos="20760" len="24"/>
          <note pan="0" key="37" vol="105" pos="20760" len="24"/>
          <note pan="0" key="56" vol="109" pos="20784" len="24"/>
          <note pan="0" key="41" vol="109" pos="20784" len="48"/>
          <note pan="0" key="53" vol="105" pos="20808" len="24"/>
          <note pan="0" key="54" vol="113" pos="20832" len="48"/>
          <note pan="0" key="42" vol="113" pos="20832" len="48"/>
          <note pan="0" key="49" vol="109" pos="20880" len="48"/>
          <note pan="0" key="54" vol="109" pos="20880" len="48"/>
          <note pan="0" key="57" vol="109" pos="20880" len="48"/>
          <note pan="0" key="57" vol="123" pos="20928" len="48"/>
          <note pan="0" key="30" vol="123" pos="20928" len="24"/>
          <note pan="0" key="33" vol="110" pos="20952" len="24"/>
          <note pan="0" key="54" vol="114" pos="20976" len="24"/>
          <note pan="0" key="37" vol="114" pos="20976" len="48"/>
          <note pan="0" key="49" vol="110" pos="21000" len="24"/>
          <note pan="0" key="57" vol="118" pos="21024" len="48"/>
          <note pan="0" key="30" vol="118" pos="21024" len="24"/>
          <note pan="0" key="33" vol="110" pos="21048" len="24"/>
          <note pan="0" key="54" vol="114" pos="21072" len="24"/>
          <note pan="0" key="37" vol="114" pos="21072" len="48"/>
          <note pan="0" key="49" vol="110" pos="21096" len="24"/>
          <note pan="0" key="59" vol="123" pos="21120" len="48"/>
          <note pan="0" key="32" vol="123" pos="21120" len="24"/>
          <note pan="0" key="37" vol="110" pos="21144" len="24"/>
          <note pan="0" key="56" vol="114" pos="21168" len="24"/>
          <note pan="0" key="41" vol="114" pos="21168" len="48"/>
          <note pan="0" key="53" vol="110" pos="21192" len="24"/>
          <note pan="0" key="59" vol="118" pos="21216" len="48"/>
          <note pan="0" key="32" vol="118" pos="21216" len="24"/>
          <note pan="0" key="37" vol="110" pos="21240" len="24"/>
          <note pan="0" key="56" vol="114" pos="21264" len="24"/>
          <note pan="0" key="41" vol="114" pos="21264" len="24"/>
          <note pan="0" key="53" vol="110" pos="21288" len="24"/>
          <note pan="0" key="29" vol="110" pos="21288" len="24"/>
          <note pan="0" key="57" vol="123" pos="21312" len="48"/>
          <note pan="0" key="30" vol="123" pos="21312" len="24"/>
          <note pan="0" key="33" vol="110" pos="21336" len="24"/>
          <note pan="0" key="54" vol="114" pos="21360" len="24"/>
          <note pan="0" key="37" vol="114" pos="21360" len="48"/>
          <note pan="0" key="49" vol="110" pos="21384" len="24"/>
          <note pan="0" key="57" vol="118" pos="21408" len="48"/>
          <note pan="0" key="30" vol="118" pos="21408" len="24"/>
          <note pan="0" key="33" vol="110" pos="21432" len="24"/>
          <note pan="0" key="54" vol="114" pos="21456" len="24"/>
          <note pan="0" key="37" vol="114" pos="21456" len="48"/>
          <note pan="0" key="49" vol="110" pos="21480" len="24"/>
          <note pan="0" key="49" vol="123" pos="21504" len="24"/>
          <note pan="0" key="42" vol="123" pos="21504" len="24"/>
          <note pan="0" key="64" vol="105" pos="21528" len="24"/>
          <note pan="0" key="37" vol="105" pos="21528" len="24"/>
          <note pan="0" key="61" vol="104" pos="21552" len="24"/>
          <note pan="0" key="34" vol="104" pos="21552" len="48"/>
          <note pan="0" key="58" vol="95" pos="21576" len="24"/>
          <note pan="0" key="59" vol="97" pos="21600" len="48"/>
          <note pan="0" key="35" vol="97" pos="21600" len="48"/>
          <note pan="0" key="59" vol="117" pos="21696" len="72"/>
          <note pan="0" key="35" vol="117" pos="21696" len="192"/>
          <note pan="0" key="59" vol="105" pos="21768" len="24"/>
          <note pan="0" key="59" vol="113" pos="21792" len="48"/>
          <note pan="0" key="54" vol="109" pos="21840" len="48"/>
          <note pan="0" key="61" vol="117" pos="21888" len="72"/>
          <note pan="0" key="30" vol="117" pos="21888" len="192"/>
          <note pan="0" key="61" vol="105" pos="21960" len="24"/>
          <note pan="0" key="61" vol="113" pos="21984" len="48"/>
          <note pan="0" key="54" vol="109" pos="22032" len="48"/>
          <note pan="0" key="63" vol="117" pos="22080" len="24"/>
          <note pan="0" key="35" vol="117" pos="22080" len="192"/>
          <note pan="0" key="61" vol="105" pos="22104" len="24"/>
          <note pan="0" key="63" vol="109" pos="22128" len="24"/>
          <note pan="0" key="64" vol="105" pos="22152" len="24"/>
          <note pan="0" key="63" vol="113" pos="22176" len="48"/>
          <note pan="0" key="61" vol="109" pos="22224" len="48"/>
          <note pan="0" key="64" vol="117" pos="22272" len="72"/>
          <note pan="0" key="28" vol="117" pos="22272" len="192"/>
          <note pan="0" key="61" vol="105" pos="22344" len="24"/>
          <note pan="0" key="59" vol="113" pos="22368" len="96"/>
          <note pan="0" key="59" vol="117" pos="22464" len="72"/>
          <note pan="0" key="35" vol="117" pos="22464" len="192"/>
          <note pan="0" key="59" vol="105" pos="22536" len="24"/>
          <note pan="0" key="59" vol="113" pos="22560" len="48"/>
          <note pan="0" key="54" vol="109" pos="22608" len="48"/>
          <note pan="0" key="61" vol="117" pos="22656" len="72"/>
          <note pan="0" key="30" vol="117" pos="22656" len="192"/>
          <note pan="0" key="61" vol="105" pos="22728" len="24"/>
          <note pan="0" key="61" vol="113" pos="22752" len="48"/>
          <note pan="0" key="54" vol="109" pos="22800" len="48"/>
          <note pan="0" key="63" vol="117" pos="22848" len="24"/>
          <note pan="0" key="35" vol="117" pos="22848" len="192"/>
          <note pan="0" key="61" vol="105" pos="22872" len="24"/>
          <note pan="0" key="63" vol="109" pos="22896" len="24"/>
          <note pan="0" key="64" vol="105" pos="22920" len="24"/>
          <note pan="0" key="63" vol="113" pos="22944" len="48"/>
          <note pan="0" key="61" vol="109" pos="22992" len="48"/>
          <note pan="0" key="63" vol="117" pos="23040" len="72"/>
          <note pan="0" key="30" vol="117" pos="23040" len="192"/>
          <note pan="0" key="65" vol="105" pos="23112" len="24"/>
          <note pan="0" key="66" vol="113" pos="23136" len="96"/>
          <note pan="0" key="59" vol="117" pos="23232" len="72"/>
          <note pan="0" key="35" vol="117" pos="23232" len="192"/>
          <note pan="0" key="59" vol="105" pos="23304" len="24"/>
          <note pan="0" key="59" vol="113" pos="23328" len="48"/>
          <note pan="0" key="54" vol="109" pos="23376" len="48"/>
          <note pan="0" key="61" vol="117" pos="23424" len="72"/>
          <note pan="0" key="30" vol="117" pos="23424" len="192"/>
          <note pan="0" key="61" vol="105" pos="23496" len="24"/>
          <note pan="0" key="61" vol="113" pos="23520" len="48"/>
          <note pan="0" key="54" vol="109" pos="23568" len="48"/>
          <note pan="0" key="63" vol="117" pos="23616" len="24"/>
          <note pan="0" key="35" vol="117" pos="23616" len="192"/>
          <note pan="0" key="61" vol="105" pos="23640" len="24"/>
          <note pan="0" key="63" vol="109" pos="23664" len="24"/>
          <note pan="0" key="64" vol="105" pos="23688" len="24"/>
          <note pan="0" key="63" vol="113" pos="23712" len="48"/>
          <note pan="0" key="61" vol="109" pos="23760" len="48"/>
          <note pan="0" key="64" vol="117" pos="23808" len="72"/>
          <note pan="0" key="28" vol="117" pos="23808" len="192"/>
          <note pan="0" key="61" vol="105" pos="23880" len="24"/>
          <note pan="0" key="59" vol="113" pos="23904" len="96"/>
          <note pan="0" key="59" vol="117" pos="24000" len="72"/>
          <note pan="0" key="35" vol="117" pos="24000" len="192"/>
          <note pan="0" key="59" vol="105" pos="24072" len="24"/>
          <note pan="0" key="59" vol="113" pos="24096" len="48"/>
          <note pan="0" key="54" vol="109" pos="24144" len="48"/>
          <note pan="0" key="61" vol="117" pos="24192" len="72"/>
          <note pan="0" key="30" vol="117" pos="24192" len="192"/>
          <note pan="0" key="61" vol="105" pos="24264" len="24"/>
          <note pan="0" key="61" vol="113" pos="24288" len="48"/>
          <note pan="0" key="54" vol="109" pos="24336" len="48"/>
          <note pan="0" key="63" vol="117" pos="24384" len="24"/>
          <note pan="0" key="35" vol="117" pos="24384" len="192"/>
          <note pan="0" key="61" vol="105" pos="24408" len="24"/>
          <note pan="0" key="63" vol="109" pos="24432" len="24"/>
          <note pan="0" key="64" vol="105" pos="24456" len="24"/>
          <note pan="0" key="63" vol="113" pos="24480" len="48"/>
          <note pan="0" key="61" vol="109" pos="24528" len="48"/>
          <note pan="0" key="66" vol="117" pos="24576" len="48"/>
          <note pan="0" key="30" vol="117" pos="24576" len="96"/>
          <note pan="0" key="58" vol="109" pos="24624" len="48"/>
          <note pan="0" key="59" vol="113" pos="24672" len="48"/>
          <note pan="0" key="35" vol="113" pos="24672" len="48"/>
          <note pan="0" key="59" vol="117" pos="24768" len="72"/>
          <note pan="0" key="54" vol="117" pos="24768" len="144"/>
          <note pan="0" key="51" vol="117" pos="24768" len="144"/>
          <note pan="0" key="35" vol="117" pos="24768" len="192"/>
          <note pan="0" key="59" vol="105" pos="24840" len="24"/>
          <note pan="0" key="59" vol="113" pos="24864" len="48"/>
          <note pan="0" key="54" vol="109" pos="24912" len="48"/>
          <note pan="0" key="47" vol="109" pos="24912" len="48"/>
          <note pan="0" key="51" vol="109" pos="24912" len="48"/>
          <note pan="0" key="61" vol="117" pos="24960" len="72"/>
          <note pan="0" key="49" vol="117" pos="24960" len="144"/>
          <note pan="0" key="54" vol="117" pos="24960" len="144"/>
          <note pan="0" key="30" vol="117" pos="24960" len="192"/>
          <note pan="0" key="61" vol="105" pos="25032" len="24"/>
          <note pan="0" key="61" vol="113" pos="25056" len="48"/>
          <note pan="0" key="54" vol="109" pos="25104" len="48"/>
          <note pan="0" key="46" vol="109" pos="25104" len="48"/>
          <note pan="0" key="49" vol="109" pos="25104" len="48"/>
          <note pan="0" key="63" vol="117" pos="25152" len="24"/>
          <note pan="0" key="51" vol="117" pos="25152" len="144"/>
          <note pan="0" key="47" vol="117" pos="25152" len="144"/>
          <note pan="0" key="35" vol="117" pos="25152" len="192"/>
          <note pan="0" key="61" vol="105" pos="25176" len="24"/>
          <note pan="0" key="63" vol="109" pos="25200" len="24"/>
          <note pan="0" key="64" vol="105" pos="25224" len="24"/>
          <note pan="0" key="63" vol="113" pos="25248" len="48"/>
          <note pan="0" key="61" vol="109" pos="25296" len="48"/>
          <note pan="0" key="51" vol="109" pos="25296" len="48"/>
          <note pan="0" key="54" vol="109" pos="25296" len="48"/>
          <note pan="0" key="64" vol="117" pos="25344" len="72"/>
          <note pan="0" key="52" vol="117" pos="25344" len="192"/>
          <note pan="0" key="47" vol="117" pos="25344" len="192"/>
          <note pan="0" key="28" vol="117" pos="25344" len="192"/>
          <note pan="0" key="61" vol="105" pos="25416" len="24"/>
          <note pan="0" key="59" vol="113" pos="25440" len="96"/>
          <note pan="0" key="59" vol="117" pos="25536" len="72"/>
          <note pan="0" key="54" vol="117" pos="25536" len="144"/>
          <note pan="0" key="51" vol="117" pos="25536" len="144"/>
          <note pan="0" key="35" vol="117" pos="25536" len="192"/>
          <note pan="0" key="59" vol="105" pos="25608" len="24"/>
          <note pan="0" key="59" vol="113" pos="25632" len="48"/>
          <note pan="0" key="54" vol="109" pos="25680" len="48"/>
          <note pan="0" key="47" vol="109" pos="25680" len="48"/>
          <note pan="0" key="51" vol="109" pos="25680" len="48"/>
          <note pan="0" key="61" vol="117" pos="25728" len="72"/>
          <note pan="0" key="49" vol="117" pos="25728" len="144"/>
          <note pan="0" key="54" vol="117" pos="25728" len="144"/>
          <note pan="0" key="30" vol="117" pos="25728" len="192"/>
          <note pan="0" key="61" vol="105" pos="25800" len="24"/>
          <note pan="0" key="61" vol="113" pos="25824" len="48"/>
          <note pan="0" key="54" vol="109" pos="25872" len="48"/>
          <note pan="0" key="46" vol="109" pos="25872" len="48"/>
          <note pan="0" key="49" vol="109" pos="25872" len="48"/>
          <note pan="0" key="63" vol="117" pos="25920" len="24"/>
          <note pan="0" key="51" vol="117" pos="25920" len="144"/>
          <note pan="0" key="47" vol="117" pos="25920" len="144"/>
          <note pan="0" key="35" vol="117" pos="25920" len="192"/>
          <note pan="0" key="61" vol="105" pos="25944" len="24"/>
          <note pan="0" key="63" vol="109" pos="25968" len="24"/>
          <note pan="0" key="64" vol="105" pos="25992" len="24"/>
          <note pan="0" key="63" vol="113" pos="26016" len="48"/>
          <note pan="0" key="61" vol="109" pos="26064" len="48"/>
          <note pan="0" key="51" vol="109" pos="26064" len="48"/>
          <note pan="0" key="54" vol="109" pos="26064" len="48"/>
          <note pan="0" key="63" vol="117" pos="26112" len="72"/>
          <note pan="0" key="30" vol="117" pos="26112" len="192"/>
          <note pan="0" key="54" vol="117" pos="26112" len="192"/>
          <note pan="0" key="49" vol="117" pos="26112" len="192"/>
          <note pan="0" key="65" vol="105" pos="26184" len="24"/>
          <note pan="0" key="66" vol="113" pos="26208" len="96"/>
          <note pan="0" key="59" vol="117" pos="26304" len="72"/>
          <note pan="0" key="54" vol="117" pos="26304" len="144"/>
          <note pan="0" key="51" vol="117" pos="26304" len="144"/>
          <note pan="0" key="35" vol="117" pos="26304" len="192"/>
          <note pan="0" key="59" vol="105" pos="26376" len="24"/>
          <note pan="0" key="59" vol="113" pos="26400" len="48"/>
          <note pan="0" key="54" vol="109" pos="26448" len="48"/>
          <note pan="0" key="47" vol="109" pos="26448" len="48"/>
          <note pan="0" key="51" vol="109" pos="26448" len="48"/>
          <note pan="0" key="61" vol="117" pos="26496" len="72"/>
          <note pan="0" key="49" vol="117" pos="26496" len="144"/>
          <note pan="0" key="54" vol="117" pos="26496" len="144"/>
          <note pan="0" key="30" vol="117" pos="26496" len="192"/>
          <note pan="0" key="61" vol="105" pos="26568" len="24"/>
          <note pan="0" key="61" vol="113" pos="26592" len="48"/>
          <note pan="0" key="54" vol="109" pos="26640" len="48"/>
          <note pan="0" key="46" vol="109" pos="26640" len="48"/>
          <note pan="0" key="49" vol="109" pos="26640" len="48"/>
          <note pan="0" key="63" vol="117" pos="26688" len="24"/>
          <note pan="0" key="47" vol="117" pos="26688" len="144"/>
          <note pan="0" key="51" vol="117" pos="26688" len="144"/>
          <note pan="0" key="35" vol="117" pos="26688" len="192"/>
          <note pan="0" key="61" vol="105" pos="26712" len="24"/>
          <note pan="0" key="63" vol="109" pos="26736" len="24"/>
          <note pan="0" key="64" vol="105" pos="26760" len="24"/>
          <note pan="0" key="63" vol="113" pos="26784" len="48"/>
          <note pan="0" key="61" vol="109" pos="26832" len="48"/>
          <note pan="0" key="51" vol="109" pos="26832" len="48"/>
          <note pan="0" key="54" vol="109" pos="26832" len="48"/>
          <note pan="0" key="64" vol="117" pos="26880" len="72"/>
          <note pan="0" key="47" vol="117" pos="26880" len="192"/>
          <note pan="0" key="52" vol="117" pos="26880" len="192"/>
          <note pan="0" key="28" vol="117" pos="26880" len="192"/>
          <note pan="0" key="61" vol="105" pos="26952" len="24"/>
          <note pan="0" key="59" vol="113" pos="26976" len="96"/>
          <note pan="0" key="59" vol="117" pos="27072" len="72"/>
          <note pan="0" key="54" vol="117" pos="27072" len="144"/>
          <note pan="0" key="51" vol="117" pos="27072" len="144"/>
          <note pan="0" key="35" vol="117" pos="27072" len="192"/>
          <note pan="0" key="59" vol="105" pos="27144" len="24"/>
          <note pan="0" key="59" vol="113" pos="27168" len="48"/>
          <note pan="0" key="54" vol="109" pos="27216" len="48"/>
          <note pan="0" key="51" vol="109" pos="27216" len="48"/>
          <note pan="0" key="47" vol="109" pos="27216" len="48"/>
          <note pan="0" key="61" vol="117" pos="27264" len="72"/>
          <note pan="0" key="54" vol="117" pos="27264" len="144"/>
          <note pan="0" key="49" vol="117" pos="27264" len="144"/>
          <note pan="0" key="30" vol="117" pos="27264" len="192"/>
          <note pan="0" key="61" vol="105" pos="27336" len="24"/>
          <note pan="0" key="61" vol="113" pos="27360" len="48"/>
          <note pan="0" key="54" vol="109" pos="27408" len="48"/>
          <note pan="0" key="49" vol="109" pos="27408" len="48"/>
          <note pan="0" key="46" vol="109" pos="27408" len="48"/>
          <note pan="0" key="63" vol="117" pos="27456" len="24"/>
          <note pan="0" key="51" vol="117" pos="27456" len="144"/>
          <note pan="0" key="47" vol="117" pos="27456" len="144"/>
          <note pan="0" key="35" vol="117" pos="27456" len="192"/>
          <note pan="0" key="61" vol="105" pos="27480" len="24"/>
          <note pan="0" key="63" vol="109" pos="27504" len="24"/>
          <note pan="0" key="64" vol="105" pos="27528" len="24"/>
          <note pan="0" key="63" vol="113" pos="27552" len="48"/>
          <note pan="0" key="61" vol="109" pos="27600" len="48"/>
          <note pan="0" key="54" vol="109" pos="27600" len="48"/>
          <note pan="0" key="51" vol="109" pos="27600" len="48"/>
          <note pan="0" key="66" vol="117" pos="27648" len="48"/>
          <note pan="0" key="49" vol="117" pos="27648" len="48"/>
          <note pan="0" key="46" vol="117" pos="27648" len="48"/>
          <note pan="0" key="30" vol="117" pos="27648" len="96"/>
          <note pan="0" key="58" vol="109" pos="27696" len="48"/>
          <note pan="0" key="52" vol="109" pos="27696" len="48"/>
          <note pan="0" key="42" vol="109" pos="27696" len="48"/>
          <note pan="0" key="59" vol="113" pos="27744" len="48"/>
          <note pan="0" key="35" vol="113" pos="27744" len="48"/>
          <note pan="0" key="51" vol="113" pos="27744" len="48"/>
          <note pan="0" key="47" vol="113" pos="27744" len="48"/>
          <note pan="0" key="63" vol="100" pos="27840" len="72"/>
          <note pan="0" key="47" vol="100" pos="27840" len="192"/>
          <note pan="0" key="35" vol="100" pos="27840" len="192"/>
          <note pan="0" key="54" vol="90" pos="27912" len="24"/>
          <note pan="0" key="54" vol="97" pos="27936" len="48"/>
          <note pan="0" key="63" vol="93" pos="27984" len="48"/>
          <note pan="0" key="59" vol="100" pos="28032" len="72"/>
          <note pan="0" key="44" vol="100" pos="28032" len="192"/>
          <note pan="0" key="40" vol="100" pos="28032" len="192"/>
          <note pan="0" key="56" vol="90" pos="28104" len="24"/>
          <note pan="0" key="56" vol="97" pos="28128" len="48"/>
          <note pan="0" key="59" vol="93" pos="28176" len="48"/>
          <note pan="0" key="61" vol="100" pos="28224" len="72"/>
          <note pan="0" key="46" vol="100" pos="28224" len="192"/>
          <note pan="0" key="40" vol="100" pos="28224" len="192"/>
          <note pan="0" key="54" vol="90" pos="28296" len="24"/>
          <note pan="0" key="54" vol="97" pos="28320" len="48"/>
          <note pan="0" key="61" vol="93" pos="28368" len="48"/>
          <note pan="0" key="63" vol="100" pos="28416" len="48"/>
          <note pan="0" key="35" vol="100" pos="28416" len="192"/>
          <note pan="0" key="47" vol="100" pos="28416" len="192"/>
          <note pan="0" key="63" vol="93" pos="28464" len="48"/>
          <note pan="0" key="54" vol="97" pos="28512" len="96"/>
          <note pan="0" key="61" vol="100" pos="28608" len="72"/>
          <note pan="0" key="40" vol="100" pos="28608" len="192"/>
          <note pan="0" key="46" vol="100" pos="28608" len="192"/>
          <note pan="0" key="54" vol="90" pos="28680" len="24"/>
          <note pan="0" key="55" vol="97" pos="28704" len="48"/>
          <note pan="0" key="61" vol="93" pos="28752" len="48"/>
          <note pan="0" key="60" vol="100" pos="28800" len="72"/>
          <note pan="0" key="41" vol="100" pos="28800" len="192"/>
          <note pan="0" key="45" vol="100" pos="28800" len="192"/>
          <note pan="0" key="57" vol="90" pos="28872" len="24"/>
          <note pan="0" key="57" vol="97" pos="28896" len="48"/>
          <note pan="0" key="60" vol="93" pos="28944" len="48"/>
          <note pan="0" key="58" vol="100" pos="28992" len="72"/>
          <note pan="0" key="41" vol="100" pos="28992" len="192"/>
          <note pan="0" key="46" vol="100" pos="28992" len="192"/>
          <note pan="0" key="50" vol="90" pos="29064" len="24"/>
          <note pan="0" key="50" vol="97" pos="29088" len="48"/>
          <note pan="0" key="58" vol="93" pos="29136" len="48"/>
          <note pan="0" key="60" vol="100" pos="29184" len="72"/>
          <note pan="0" key="46" vol="100" pos="29184" len="192"/>
          <note pan="0" key="40" vol="100" pos="29184" len="192"/>
          <note pan="0" key="55" vol="90" pos="29256" len="24"/>
          <note pan="0" key="55" vol="97" pos="29280" len="48"/>
          <note pan="0" key="60" vol="93" pos="29328" len="48"/>
          <note pan="0" key="60" vol="100" pos="29376" len="48"/>
          <note pan="0" key="45" vol="100" pos="29376" len="192"/>
          <note pan="0" key="41" vol="100" pos="29376" len="192"/>
          <note pan="0" key="60" vol="93" pos="29424" len="48"/>
          <note pan="0" key="57" vol="97" pos="29472" len="96"/>
          <note pan="0" key="60" vol="100" pos="29568" len="72"/>
          <note pan="0" key="46" vol="100" pos="29568" len="192"/>
          <note pan="0" key="40" vol="100" pos="29568" len="192"/>
          <note pan="0" key="55" vol="90" pos="29640" len="24"/>
          <note pan="0" key="55" vol="97" pos="29664" len="48"/>
          <note pan="0" key="60" vol="93" pos="29712" len="48"/>
          <note pan="0" key="59" vol="100" pos="29760" len="72"/>
          <note pan="0" key="40" vol="100" pos="29760" len="192"/>
          <note pan="0" key="43" vol="100" pos="29760" len="192"/>
          <note pan="0" key="55" vol="90" pos="29832" len="24"/>
          <note pan="0" key="55" vol="97" pos="29856" len="48"/>
          <note pan="0" key="59" vol="93" pos="29904" len="48"/>
          <note pan="0" key="60" vol="100" pos="29952" len="72"/>
          <note pan="0" key="45" vol="100" pos="29952" len="192"/>
          <note pan="0" key="40" vol="100" pos="29952" len="192"/>
          <note pan="0" key="57" vol="90" pos="30024" len="24"/>
          <note pan="0" key="57" vol="97" pos="30048" len="48"/>
          <note pan="0" key="60" vol="93" pos="30096" len="48"/>
          <note pan="0" key="59" vol="100" pos="30144" len="72"/>
          <note pan="0" key="39" vol="100" pos="30144" len="192"/>
          <note pan="0" key="47" vol="100" pos="30144" len="192"/>
          <note pan="0" key="54" vol="90" pos="30216" len="24"/>
          <note pan="0" key="54" vol="97" pos="30240" len="48"/>
          <note pan="0" key="59" vol="93" pos="30288" len="48"/>
          <note pan="0" key="52" vol="100" pos="30336" len="192"/>
          <note pan="0" key="59" vol="100" pos="30336" len="192"/>
          <note pan="0" key="40" vol="100" pos="30336" len="192"/>
          <note pan="0" key="43" vol="100" pos="30336" len="192"/>
          <note pan="0" key="59" vol="100" pos="30528" len="96"/>
          <note pan="0" key="67" vol="100" pos="30528" len="96"/>
          <note pan="0" key="40" vol="100" pos="30528" len="96"/>
          <note pan="0" key="35" vol="100" pos="30528" len="96"/>
          <note pan="0" key="59" vol="97" pos="30624" len="96"/>
          <note pan="0" key="66" vol="97" pos="30624" len="96"/>
          <note pan="0" key="39" vol="97" pos="30624" len="96"/>
          <note pan="0" key="23" vol="97" pos="30624" len="96"/>
          <note pan="0" key="67" vol="100" pos="30720" len="144"/>
          <note pan="0" key="59" vol="100" pos="30720" len="144"/>
          <note pan="0" key="40" vol="100" pos="30720" len="144"/>
          <note pan="0" key="28" vol="100" pos="30720" len="144"/>
          <note pan="0" key="55" vol="93" pos="30864" len="24"/>
          <note pan="0" key="54" vol="90" pos="30888" len="24"/>
          <note pan="0" key="55" vol="100" pos="30912" len="48"/>
          <note pan="0" key="40" vol="100" pos="30912" len="96"/>
          <note pan="0" key="47" vol="93" pos="30960" len="48"/>
          <note pan="0" key="52" vol="97" pos="31008" len="48"/>
          <note pan="0" key="35" vol="97" pos="31008" len="96"/>
          <note pan="0" key="55" vol="93" pos="31056" len="24"/>
          <note pan="0" key="54" vol="90" pos="31080" len="24"/>
          <note pan="0" key="55" vol="100" pos="31104" len="48"/>
          <note pan="0" key="38" vol="100" pos="31104" len="48"/>
          <note pan="0" key="47" vol="93" pos="31152" len="48"/>
          <note pan="0" key="38" vol="93" pos="31152" len="24"/>
          <note pan="0" key="37" vol="90" pos="31176" len="24"/>
          <note pan="0" key="52" vol="97" pos="31200" len="48"/>
          <note pan="0" key="38" vol="97" pos="31200" len="48"/>
          <note pan="0" key="55" vol="93" pos="31248" len="24"/>
          <note pan="0" key="30" vol="93" pos="31248" len="48"/>
          <note pan="0" key="54" vol="90" pos="31272" len="24"/>
          <note pan="0" key="55" vol="100" pos="31296" len="48"/>
          <note pan="0" key="35" vol="100" pos="31296" len="48"/>
          <note pan="0" key="47" vol="93" pos="31344" len="48"/>
          <note pan="0" key="38" vol="93" pos="31344" len="24"/>
          <note pan="0" key="37" vol="90" pos="31368" len="24"/>
          <note pan="0" key="52" vol="97" pos="31392" len="48"/>
          <note pan="0" key="38" vol="97" pos="31392" len="48"/>
          <note pan="0" key="54" vol="93" pos="31440" len="24"/>
          <note pan="0" key="30" vol="93" pos="31440" len="48"/>
          <note pan="0" key="55" vol="90" pos="31464" len="24"/>
          <note pan="0" key="55" vol="100" pos="31488" len="6"/>
          <note pan="0" key="35" vol="100" pos="31488" len="48"/>
          <note pan="0" key="57" vol="87" pos="31494" len="42"/>
          <note pan="0" key="55" vol="93" pos="31536" len="24"/>
          <note pan="0" key="38" vol="93" pos="31536" len="24"/>
          <note pan="0" key="54" vol="90" pos="31560" len="24"/>
          <note pan="0" key="37" vol="90" pos="31560" len="24"/>
          <note pan="0" key="52" vol="97" pos="31584" len="48"/>
          <note pan="0" key="38" vol="97" pos="31584" len="48"/>
          <note pan="0" key="62" vol="93" pos="31632" len="24"/>
          <note pan="0" key="30" vol="93" pos="31632" len="48"/>
          <note pan="0" key="61" vol="90" pos="31656" len="24"/>
          <note pan="0" key="62" vol="100" pos="31680" len="48"/>
          <note pan="0" key="35" vol="100" pos="31680" len="48"/>
          <note pan="0" key="66" vol="93" pos="31728" len="48"/>
          <note pan="0" key="37" vol="93" pos="31728" len="24"/>
          <note pan="0" key="43" vol="93" pos="31728" len="24"/>
          <note pan="0" key="38" vol="90" pos="31752" len="24"/>
          <note pan="0" key="42" vol="90" pos="31752" len="24"/>
          <note pan="0" key="59" vol="97" pos="31776" len="48"/>
          <note pan="0" key="38" vol="97" pos="31776" len="6"/>
          <note pan="0" key="43" vol="97" pos="31776" len="48"/>
          <note pan="0" key="40" vol="87" pos="31782" len="42"/>
          <note pan="0" key="62" vol="93" pos="31824" len="24"/>
          <note pan="0" key="28" vol="93" pos="31824" len="24"/>
          <note pan="0" key="61" vol="90" pos="31848" len="24"/>
          <note pan="0" key="35" vol="90" pos="31848" len="24"/>
          <note pan="0" key="62" vol="100" pos="31872" len="48"/>
          <note pan="0" key="40" vol="100" pos="31872" len="48"/>
          <note pan="0" key="66" vol="93" pos="31920" len="48"/>
          <note pan="0" key="43" vol="93" pos="31920" len="24"/>
          <note pan="0" key="42" vol="90" pos="31944" len="24"/>
          <note pan="0" key="59" vol="97" pos="31968" len="48"/>
          <note pan="0" key="43" vol="97" pos="31968" len="48"/>
          <note pan="0" key="62" vol="93" pos="32016" len="24"/>
          <note pan="0" key="35" vol="93" pos="32016" len="48"/>
          <note pan="0" key="61" vol="90" pos="32040" len="24"/>
          <note pan="0" key="62" vol="100" pos="32064" len="48"/>
          <note pan="0" key="40" vol="100" pos="32064" len="48"/>
          <note pan="0" key="66" vol="93" pos="32112" len="48"/>
          <note pan="0" key="43" vol="93" pos="32112" len="24"/>
          <note pan="0" key="42" vol="90" pos="32136" len="24"/>
          <note pan="0" key="59" vol="97" pos="32160" len="48"/>
          <note pan="0" key="43" vol="97" pos="32160" len="48"/>
          <note pan="0" key="61" vol="93" pos="32208" len="24"/>
          <note pan="0" key="35" vol="93" pos="32208" len="48"/>
          <note pan="0" key="62" vol="90" pos="32232" len="24"/>
          <note pan="0" key="62" vol="100" pos="32256" len="6"/>
          <note pan="0" key="40" vol="100" pos="32256" len="48"/>
          <note pan="0" key="64" vol="87" pos="32262" len="42"/>
          <note pan="0" key="62" vol="93" pos="32304" len="24"/>
          <note pan="0" key="42" vol="93" pos="32304" len="24"/>
          <note pan="0" key="61" vol="90" pos="32328" len="24"/>
          <note pan="0" key="43" vol="90" pos="32328" len="24"/>
          <note pan="0" key="59" vol="97" pos="32352" len="48"/>
          <note pan="0" key="43" vol="97" pos="32352" len="6"/>
          <note pan="0" key="45" vol="87" pos="32358" len="42"/>
          <note pan="0" key="59" vol="93" pos="32400" len="24"/>
          <note pan="0" key="43" vol="93" pos="32400" len="24"/>
          <note pan="0" key="57" vol="90" pos="32424" len="24"/>
          <note pan="0" key="42" vol="90" pos="32424" len="24"/>
          <note pan="0" key="57" vol="100" pos="32448" len="6"/>
          <note pan="0" key="40" vol="100" pos="32448" len="48"/>
          <note pan="0" key="55" vol="87" pos="32454" len="42"/>
          <note pan="0" key="55" vol="93" pos="32496" len="24"/>
          <note pan="0" key="43" vol="93" pos="32496" len="24"/>
          <note pan="0" key="54" vol="90" pos="32520" len="24"/>
          <note pan="0" key="39" vol="90" pos="32520" len="24"/>
          <note pan="0" key="52" vol="97" pos="32544" len="48"/>
          <note pan="0" key="40" vol="97" pos="32544" len="48"/>
          <note pan="0" key="52" vol="93" pos="32592" len="48"/>
          <note pan="0" key="59" vol="93" pos="32592" len="48"/>
          <note pan="0" key="67" vol="93" pos="32592" len="48"/>
          <note pan="0" key="28" vol="93" pos="32592" len="48"/>
          <note pan="0" key="52" vol="100" pos="32640" len="72"/>
          <note pan="0" key="43" vol="100" pos="32640" len="48"/>
          <note pan="0" key="35" vol="93" pos="32688" len="48"/>
          <note pan="0" key="52" vol="89" pos="32712" len="24"/>
          <note pan="0" key="52" vol="96" pos="32736" len="48"/>
          <note pan="0" key="40" vol="97" pos="32736" len="48"/>
          <note pan="0" key="47" vol="92" pos="32784" len="48"/>
          <note pan="0" key="43" vol="93" pos="32784" len="24"/>
          <note pan="0" key="42" vol="90" pos="32808" len="24"/>
          <note pan="0" key="54" vol="99" pos="32832" len="72"/>
          <note pan="0" key="42" vol="101" pos="32832" len="48"/>
          <note pan="0" key="35" vol="94" pos="32880" len="48"/>
          <note pan="0" key="54" vol="89" pos="32904" len="24"/>
          <note pan="0" key="54" vol="95" pos="32928" len="48"/>
          <note pan="0" key="39" vol="98" pos="32928" len="48"/>
          <note pan="0" key="47" vol="91" pos="32976" len="48"/>
          <note pan="0" key="43" vol="94" pos="32976" len="24"/>
          <note pan="0" key="42" vol="92" pos="33000" len="24"/>
          <note pan="0" key="55" vol="98" pos="33024" len="24"/>
          <note pan="0" key="43" vol="103" pos="33024" len="48"/>
          <note pan="0" key="54" vol="88" pos="33048" len="24"/>
          <note pan="0" key="55" vol="91" pos="33072" len="24"/>
          <note pan="0" key="35" vol="95" pos="33072" len="48"/>
          <note pan="0" key="57" vol="88" pos="33096" len="24"/>
          <note pan="0" key="55" vol="95" pos="33120" len="48"/>
          <note pan="0" key="40" vol="99" pos="33120" len="48"/>
          <note pan="0" key="54" vol="91" pos="33168" len="48"/>
          <note pan="0" key="42" vol="95" pos="33168" len="24"/>
          <note pan="0" key="43" vol="93" pos="33192" len="24"/>
          <note pan="0" key="57" vol="97" pos="33216" len="72"/>
          <note pan="0" key="43" vol="104" pos="33216" len="6"/>
          <note pan="0" key="45" vol="90" pos="33222" len="42"/>
          <note pan="0" key="40" vol="96" pos="33264" len="24"/>
          <note pan="0" key="54" vol="87" pos="33288" len="24"/>
          <note pan="0" key="36" vol="93" pos="33288" len="24"/>
          <note pan="0" key="52" vol="93" pos="33312" len="96"/>
          <note pan="0" key="33" vol="100" pos="33312" len="48"/>
          <note pan="0" key="43" vol="97" pos="33360" len="24"/>
          <note pan="0" key="42" vol="94" pos="33384" len="24"/>
          <note pan="0" key="52" vol="97" pos="33408" len="72"/>
          <note pan="0" key="43" vol="105" pos="33408" len="48"/>
          <note pan="0" key="35" vol="97" pos="33456" len="48"/>
          <note pan="0" key="52" vol="86" pos="33480" len="24"/>
          <note pan="0" key="52" vol="92" pos="33504" len="48"/>
          <note pan="0" key="40" vol="101" pos="33504" len="48"/>
          <note pan="0" key="47" vol="89" pos="33552" len="48"/>
          <note pan="0" key="43" vol="98" pos="33552" len="24"/>
          <note pan="0" key="42" vol="95" pos="33576" len="24"/>
          <note pan="0" key="54" vol="96" pos="33600" len="72"/>
          <note pan="0" key="42" vol="106" pos="33600" len="48"/>
          <note pan="0" key="35" vol="98" pos="33648" len="48"/>
          <note pan="0" key="54" vol="86" pos="33672" len="24"/>
          <note pan="0" key="54" vol="92" pos="33696" len="48"/>
          <note pan="0" key="39" vol="102" pos="33696" len="48"/>
          <note pan="0" key="47" vol="88" pos="33744" len="48"/>
          <note pan="0" key="43" vol="99" pos="33744" len="24"/>
          <note pan="0" key="42" vol="96" pos="33768" len="24"/>
          <note pan="0" key="55" vol="95" pos="33792" len="24"/>
          <note pan="0" key="43" vol="107" pos="33792" len="48"/>
          <note pan="0" key="54" vol="85" pos="33816" len="24"/>
          <note pan="0" key="55" vol="88" pos="33840" len="24"/>
          <note pan="0" key="35" vol="99" pos="33840" len="48"/>
          <note pan="0" key="57" vol="85" pos="33864" len="24"/>
          <note pan="0" key="55" vol="91" pos="33888" len="48"/>
          <note pan="0" key="40" vol="103" pos="33888" len="48"/>
          <note pan="0" key="54" vol="88" pos="33936" len="48"/>
          <note pan="0" key="42" vol="100" pos="33936" len="24"/>
          <note pan="0" key="43" vol="97" pos="33960" len="24"/>
          <note pan="0" key="55" vol="95" pos="33984" len="72"/>
          <note pan="0" key="43" vol="108" pos="33984" len="6"/>
          <note pan="0" key="47" vol="94" pos="33990" len="42"/>
          <note pan="0" key="42" vol="100" pos="34032" len="24"/>
          <note pan="0" key="58" vol="84" pos="34056" len="24"/>
          <note pan="0" key="39" vol="97" pos="34056" len="24"/>
          <note pan="0" key="59" vol="90" pos="34080" len="96"/>
          <note pan="0" key="35" vol="105" pos="34080" len="48"/>
          <note pan="0" key="43" vol="101" pos="34128" len="24"/>
          <note pan="0" key="42" vol="98" pos="34152" len="24"/>
          <note pan="0" key="52" vol="94" pos="34176" len="72"/>
          <note pan="0" key="43" vol="109" pos="34176" len="48"/>
          <note pan="0" key="35" vol="101" pos="34224" len="48"/>
          <note pan="0" key="52" vol="84" pos="34248" len="24"/>
          <note pan="0" key="52" vol="89" pos="34272" len="48"/>
          <note pan="0" key="40" vol="106" pos="34272" len="48"/>
          <note pan="0" key="47" vol="86" pos="34320" len="48"/>
          <note pan="0" key="43" vol="102" pos="34320" len="24"/>
          <note pan="0" key="42" vol="99" pos="34344" len="24"/>
          <note pan="0" key="54" vol="92" pos="34368" len="72"/>
          <note pan="0" key="42" vol="110" pos="34368" len="48"/>
          <note pan="0" key="35" vol="102" pos="34416" len="48"/>
          <note pan="0" key="54" vol="83" pos="34440" len="24"/>
          <note pan="0" key="54" vol="89" pos="34464" len="48"/>
          <note pan="0" key="39" vol="108" pos="34464" len="48"/>
          <note pan="0" key="47" vol="86" pos="34512" len="48"/>
          <note pan="0" key="43" vol="104" pos="34512" len="24"/>
          <note pan="0" key="42" vol="100" pos="34536" len="24"/>
          <note pan="0" key="55" vol="91" pos="34560" len="24"/>
          <note pan="0" key="43" vol="112" pos="34560" len="48"/>
          <note pan="0" key="54" vol="82" pos="34584" len="24"/>
          <note pan="0" key="55" vol="85" pos="34608" len="24"/>
          <note pan="0" key="35" vol="104" pos="34608" len="48"/>
          <note pan="0" key="57" vol="82" pos="34632" len="24"/>
          <note pan="0" key="55" vol="88" pos="34656" len="48"/>
          <note pan="0" key="40" vol="109" pos="34656" len="48"/>
          <note pan="0" key="54" vol="85" pos="34704" len="48"/>
          <note pan="0" key="42" vol="105" pos="34704" len="24"/>
          <note pan="0" key="43" vol="101" pos="34728" len="24"/>
          <note pan="0" key="57" vol="91" pos="34752" len="72"/>
          <note pan="0" key="43" vol="113" pos="34752" len="6"/>
          <note pan="0" key="45" vol="97" pos="34758" len="42"/>
          <note pan="0" key="40" vol="106" pos="34800" len="24"/>
          <note pan="0" key="54" vol="81" pos="34824" len="24"/>
          <note pan="0" key="36" vol="102" pos="34824" len="24"/>
          <note pan="0" key="52" vol="87" pos="34848" len="96"/>
          <note pan="0" key="33" vol="110" pos="34848" len="48"/>
          <note pan="0" key="43" vol="106" pos="34896" len="24"/>
          <note pan="0" key="42" vol="102" pos="34920" len="24"/>
          <note pan="0" key="52" vol="90" pos="34944" len="72"/>
          <note pan="0" key="43" vol="114" pos="34944" len="48"/>
          <note pan="0" key="35" vol="107" pos="34992" len="48"/>
          <note pan="0" key="52" vol="81" pos="35016" len="24"/>
          <note pan="0" key="52" vol="87" pos="35040" len="48"/>
          <note pan="0" key="40" vol="111" pos="35040" len="48"/>
          <note pan="0" key="47" vol="83" pos="35088" len="48"/>
          <note pan="0" key="43" vol="107" pos="35088" len="24"/>
          <note pan="0" key="42" vol="103" pos="35112" len="24"/>
          <note pan="0" key="54" vol="89" pos="35136" len="72"/>
          <note pan="0" key="42" vol="115" pos="35136" len="48"/>
          <note pan="0" key="35" vol="108" pos="35184" len="48"/>
          <note pan="0" key="54" vol="80" pos="35208" len="24"/>
          <note pan="0" key="54" vol="86" pos="35232" len="48"/>
          <note pan="0" key="39" vol="112" pos="35232" len="48"/>
          <note pan="0" key="47" vol="83" pos="35280" len="48"/>
          <note pan="0" key="43" vol="108" pos="35280" len="24"/>
          <note pan="0" key="42" vol="104" pos="35304" len="24"/>
          <note pan="0" key="55" vol="89" pos="35328" len="24"/>
          <note pan="0" key="43" vol="116" pos="35328" len="48"/>
          <note pan="0" key="54" vol="80" pos="35352" len="24"/>
          <note pan="0" key="55" vol="83" pos="35376" len="24"/>
          <note pan="0" key="35" vol="109" pos="35376" len="48"/>
          <note pan="0" key="57" vol="80" pos="35400" len="24"/>
          <note pan="0" key="55" vol="86" pos="35424" len="48"/>
          <note pan="0" key="40" vol="113" pos="35424" len="48"/>
          <note pan="0" key="54" vol="83" pos="35472" len="48"/>
          <note pan="0" key="42" vol="109" pos="35472" len="24"/>
          <note pan="0" key="43" vol="105" pos="35496" len="24"/>
          <note pan="0" key="59" vol="117" pos="35520" len="48"/>
          <note pan="0" key="43" vol="117" pos="35520" len="6"/>
          <note pan="0" key="42" vol="101" pos="35526" len="42"/>
          <note pan="0" key="51" vol="109" pos="35568" len="48"/>
          <note pan="0" key="30" vol="109" pos="35568" len="24"/>
          <note pan="0" key="35" vol="105" pos="35592" len="24"/>
          <note pan="0" key="52" vol="113" pos="35616" len="48"/>
          <note pan="0" key="40" vol="113" pos="35616" len="48"/>
          <note pan="0" key="55" vol="83" pos="35664" len="24"/>
          <note pan="0" key="54" vol="80" pos="35688" len="24"/>
          <note pan="0" key="55" vol="89" pos="35712" len="48"/>
          <note pan="0" key="28" vol="67" pos="35712" len="48"/>
          <note pan="0" key="47" vol="83" pos="35760" len="48"/>
          <note pan="0" key="31" vol="62" pos="35760" len="48"/>
          <note pan="0" key="52" vol="86" pos="35808" len="48"/>
          <note pan="0" key="35" vol="64" pos="35808" len="48"/>
          <note pan="0" key="55" vol="83" pos="35856" len="24"/>
          <note pan="0" key="40" vol="62" pos="35856" len="48"/>
          <note pan="0" key="54" vol="80" pos="35880" len="24"/>
          <note pan="0" key="55" vol="89" pos="35904" len="48"/>
          <note pan="0" key="28" vol="67" pos="35904" len="48"/>
          <note pan="0" key="47" vol="83" pos="35952" len="48"/>
          <note pan="0" key="31" vol="62" pos="35952" len="48"/>
          <note pan="0" key="52" vol="86" pos="36000" len="48"/>
          <note pan="0" key="35" vol="64" pos="36000" len="48"/>
          <note pan="0" key="55" vol="83" pos="36048" len="24"/>
          <note pan="0" key="40" vol="62" pos="36048" len="48"/>
          <note pan="0" key="54" vol="80" pos="36072" len="24"/>
          <note pan="0" key="55" vol="89" pos="36096" len="48"/>
          <note pan="0" key="28" vol="67" pos="36096" len="48"/>
          <note pan="0" key="47" vol="83" pos="36144" len="48"/>
          <note pan="0" key="31" vol="62" pos="36144" len="48"/>
          <note pan="0" key="52" vol="86" pos="36192" len="48"/>
          <note pan="0" key="35" vol="64" pos="36192" len="48"/>
          <note pan="0" key="54" vol="95" pos="36240" len="24"/>
          <note pan="0" key="31" vol="62" pos="36240" len="48"/>
          <note pan="0" key="55" vol="98" pos="36264" len="24"/>
          <note pan="0" key="55" vol="117" pos="36288" len="6"/>
          <note pan="0" key="33" vol="67" pos="36288" len="48"/>
          <note pan="0" key="57" vol="101" pos="36294" len="42"/>
          <note pan="0" key="55" vol="109" pos="36336" len="24"/>
          <note pan="0" key="36" vol="62" pos="36336" len="48"/>
          <note pan="0" key="54" vol="98" pos="36360" len="24"/>
          <note pan="0" key="52" vol="99" pos="36384" len="48"/>
          <note pan="0" key="40" vol="64" pos="36384" len="48"/>
          <note pan="0" key="55" vol="83" pos="36432" len="24"/>
          <note pan="0" key="35" vol="62" pos="36432" len="48"/>
          <note pan="0" key="54" vol="80" pos="36456" len="24"/>
          <note pan="0" key="55" vol="89" pos="36480" len="48"/>
          <note pan="0" key="28" vol="67" pos="36480" len="48"/>
          <note pan="0" key="47" vol="83" pos="36528" len="48"/>
          <note pan="0" key="31" vol="62" pos="36528" len="48"/>
          <note pan="0" key="52" vol="86" pos="36576" len="48"/>
          <note pan="0" key="35" vol="64" pos="36576" len="48"/>
          <note pan="0" key="55" vol="83" pos="36624" len="24"/>
          <note pan="0" key="40" vol="62" pos="36624" len="48"/>
          <note pan="0" key="54" vol="80" pos="36648" len="24"/>
          <note pan="0" key="55" vol="89" pos="36672" len="48"/>
          <note pan="0" key="28" vol="67" pos="36672" len="48"/>
          <note pan="0" key="47" vol="83" pos="36720" len="48"/>
          <note pan="0" key="31" vol="62" pos="36720" len="48"/>
          <note pan="0" key="52" vol="86" pos="36768" len="48"/>
          <note pan="0" key="35" vol="64" pos="36768" len="48"/>
          <note pan="0" key="55" vol="83" pos="36816" len="24"/>
          <note pan="0" key="40" vol="62" pos="36816" len="48"/>
          <note pan="0" key="54" vol="80" pos="36840" len="24"/>
          <note pan="0" key="55" vol="89" pos="36864" len="48"/>
          <note pan="0" key="28" vol="67" pos="36864" len="48"/>
          <note pan="0" key="47" vol="83" pos="36912" len="48"/>
          <note pan="0" key="31" vol="62" pos="36912" len="48"/>
          <note pan="0" key="52" vol="86" pos="36960" len="48"/>
          <note pan="0" key="35" vol="64" pos="36960" len="48"/>
          <note pan="0" key="54" vol="95" pos="37008" len="24"/>
          <note pan="0" key="34" vol="62" pos="37008" len="48"/>
          <note pan="0" key="55" vol="98" pos="37032" len="24"/>
          <note pan="0" key="54" vol="117" pos="37056" len="6"/>
          <note pan="0" key="35" vol="67" pos="37056" len="48"/>
          <note pan="0" key="57" vol="101" pos="37062" len="42"/>
          <note pan="0" key="54" vol="109" pos="37104" len="24"/>
          <note pan="0" key="27" vol="62" pos="37104" len="48"/>
          <note pan="0" key="51" vol="98" pos="37128" len="24"/>
          <note pan="0" key="52" vol="99" pos="37152" len="48"/>
          <note pan="0" key="28" vol="64" pos="37152" len="48"/>
          <note pan="0" key="55" vol="83" pos="37200" len="24"/>
          <note pan="0" key="23" vol="62" pos="37200" len="48"/>
          <note pan="0" key="54" vol="80" pos="37224" len="24"/>
          <note pan="0" key="55" vol="89" pos="37248" len="48"/>
          <note pan="0" key="28" vol="67" pos="37248" len="24"/>
          <note pan="0" key="30" vol="60" pos="37272" len="24"/>
          <note pan="0" key="47" vol="83" pos="37296" len="48"/>
          <note pan="0" key="31" vol="62" pos="37296" len="24"/>
          <note pan="0" key="33" vol="60" pos="37320" len="24"/>
          <note pan="0" key="52" vol="86" pos="37344" len="48"/>
          <note pan="0" key="35" vol="64" pos="37344" len="24"/>
          <note pan="0" key="36" vol="60" pos="37368" len="24"/>
          <note pan="0" key="55" vol="83" pos="37392" len="24"/>
          <note pan="0" key="38" vol="62" pos="37392" len="24"/>
          <note pan="0" key="54" vol="80" pos="37416" len="24"/>
          <note pan="0" key="40" vol="60" pos="37416" len="24"/>
          <note pan="0" key="55" vol="89" pos="37440" len="48"/>
          <note pan="0" key="28" vol="67" pos="37440" len="24"/>
          <note pan="0" key="30" vol="60" pos="37464" len="24"/>
          <note pan="0" key="47" vol="83" pos="37488" len="48"/>
          <note pan="0" key="31" vol="62" pos="37488" len="24"/>
          <note pan="0" key="33" vol="60" pos="37512" len="24"/>
          <note pan="0" key="52" vol="86" pos="37536" len="48"/>
          <note pan="0" key="31" vol="64" pos="37536" len="24"/>
          <note pan="0" key="30" vol="60" pos="37560" len="24"/>
          <note pan="0" key="55" vol="83" pos="37584" len="24"/>
          <note pan="0" key="28" vol="62" pos="37584" len="24"/>
          <note pan="0" key="54" vol="80" pos="37608" len="24"/>
          <note pan="0" key="26" vol="60" pos="37608" len="24"/>
          <note pan="0" key="55" vol="89" pos="37632" len="48"/>
          <note pan="0" key="28" vol="67" pos="37632" len="24"/>
          <note pan="0" key="30" vol="60" pos="37656" len="24"/>
          <note pan="0" key="47" vol="83" pos="37680" len="48"/>
          <note pan="0" key="31" vol="62" pos="37680" len="24"/>
          <note pan="0" key="33" vol="60" pos="37704" len="24"/>
          <note pan="0" key="52" vol="86" pos="37728" len="48"/>
          <note pan="0" key="35" vol="64" pos="37728" len="24"/>
          <note pan="0" key="36" vol="60" pos="37752" len="24"/>
          <note pan="0" key="54" vol="95" pos="37776" len="24"/>
          <note pan="0" key="38" vol="62" pos="37776" len="24"/>
          <note pan="0" key="55" vol="98" pos="37800" len="24"/>
          <note pan="0" key="40" vol="60" pos="37800" len="24"/>
          <note pan="0" key="55" vol="117" pos="37824" len="6"/>
          <note pan="0" key="33" vol="67" pos="37824" len="24"/>
          <note pan="0" key="57" vol="101" pos="37830" len="42"/>
          <note pan="0" key="35" vol="60" pos="37848" len="24"/>
          <note pan="0" key="55" vol="109" pos="37872" len="24"/>
          <note pan="0" key="36" vol="62" pos="37872" len="24"/>
          <note pan="0" key="54" vol="98" pos="37896" len="24"/>
          <note pan="0" key="38" vol="60" pos="37896" len="24"/>
          <note pan="0" key="52" vol="99" pos="37920" len="48"/>
          <note pan="0" key="40" vol="64" pos="37920" len="24"/>
          <note pan="0" key="38" vol="60" pos="37944" len="24"/>
          <note pan="0" key="55" vol="83" pos="37968" len="24"/>
          <note pan="0" key="36" vol="62" pos="37968" len="24"/>
          <note pan="0" key="54" vol="80" pos="37992" len="24"/>
          <note pan="0" key="26" vol="60" pos="37992" len="24"/>
          <note pan="0" key="55" vol="89" pos="38016" len="48"/>
          <note pan="0" key="28" vol="67" pos="38016" len="24"/>
          <note pan="0" key="30" vol="60" pos="38040" len="24"/>
          <note pan="0" key="47" vol="83" pos="38064" len="48"/>
          <note pan="0" key="31" vol="62" pos="38064" len="24"/>
          <note pan="0" key="33" vol="60" pos="38088" len="24"/>
          <note pan="0" key="52" vol="86" pos="38112" len="48"/>
          <note pan="0" key="35" vol="64" pos="38112" len="24"/>
          <note pan="0" key="36" vol="60" pos="38136" len="24"/>
          <note pan="0" key="55" vol="83" pos="38160" len="24"/>
          <note pan="0" key="38" vol="62" pos="38160" len="24"/>
          <note pan="0" key="54" vol="80" pos="38184" len="24"/>
          <note pan="0" key="40" vol="60" pos="38184" len="24"/>
          <note pan="0" key="55" vol="89" pos="38208" len="48"/>
          <note pan="0" key="28" vol="67" pos="38208" len="24"/>
          <note pan="0" key="30" vol="60" pos="38232" len="24"/>
          <note pan="0" key="47" vol="83" pos="38256" len="48"/>
          <note pan="0" key="31" vol="62" pos="38256" len="24"/>
          <note pan="0" key="33" vol="60" pos="38280" len="24"/>
          <note pan="0" key="52" vol="86" pos="38304" len="48"/>
          <note pan="0" key="31" vol="64" pos="38304" len="24"/>
          <note pan="0" key="30" vol="60" pos="38328" len="24"/>
          <note pan="0" key="55" vol="83" pos="38352" len="24"/>
          <note pan="0" key="28" vol="62" pos="38352" len="24"/>
          <note pan="0" key="54" vol="80" pos="38376" len="24"/>
          <note pan="0" key="26" vol="60" pos="38376" len="24"/>
          <note pan="0" key="55" vol="89" pos="38400" len="48"/>
          <note pan="0" key="28" vol="67" pos="38400" len="24"/>
          <note pan="0" key="30" vol="60" pos="38424" len="24"/>
          <note pan="0" key="47" vol="83" pos="38448" len="48"/>
          <note pan="0" key="31" vol="62" pos="38448" len="24"/>
          <note pan="0" key="33" vol="60" pos="38472" len="24"/>
          <note pan="0" key="52" vol="86" pos="38496" len="48"/>
          <note pan="0" key="35" vol="64" pos="38496" len="24"/>
          <note pan="0" key="33" vol="71" pos="38520" len="24"/>
          <note pan="0" key="54" vol="95" pos="38544" len="24"/>
          <note pan="0" key="31" vol="85" pos="38544" len="24"/>
          <note pan="0" key="55" vol="98" pos="38568" len="24"/>
          <note pan="0" key="34" vol="93" pos="38568" len="24"/>
          <note pan="0" key="54" vol="117" pos="38592" len="6"/>
          <note pan="0" key="35" vol="117" pos="38592" len="24"/>
          <note pan="0" key="57" vol="101" pos="38598" len="42"/>
          <note pan="0" key="30" vol="105" pos="38616" len="24"/>
          <note pan="0" key="54" vol="109" pos="38640" len="24"/>
          <note pan="0" key="33" vol="109" pos="38640" len="24"/>
          <note pan="0" key="51" vol="105" pos="38664" len="24"/>
          <note pan="0" key="27" vol="105" pos="38664" len="24"/>
          <note pan="0" key="52" vol="113" pos="38688" len="48"/>
          <note pan="0" key="28" vol="113" pos="38688" len="48"/>
          <note pan="0" key="23" vol="109" pos="38736" len="48"/>
          <note pan="0" key="55" vol="89" pos="38784" len="48"/>
          <note pan="0" key="28" vol="89" pos="38784" len="24"/>
          <note pan="0" key="31" vol="80" pos="38808" len="24"/>
          <note pan="0" key="52" vol="83" pos="38832" len="24"/>
          <note pan="0" key="35" vol="83" pos="38832" len="48"/>
          <note pan="0" key="47" vol="80" pos="38856" len="24"/>
          <note pan="0" key="55" vol="86" pos="38880" len="48"/>
          <note pan="0" key="28" vol="86" pos="38880" len="24"/>
          <note pan="0" key="31" vol="80" pos="38904" len="24"/>
          <note pan="0" key="52" vol="83" pos="38928" len="24"/>
          <note pan="0" key="35" vol="83" pos="38928" len="48"/>
          <note pan="0" key="47" vol="80" pos="38952" len="24"/>
          <note pan="0" key="57" vol="89" pos="38976" len="48"/>
          <note pan="0" key="30" vol="89" pos="38976" len="24"/>
          <note pan="0" key="35" vol="80" pos="39000" len="24"/>
          <note pan="0" key="54" vol="83" pos="39024" len="24"/>
          <note pan="0" key="39" vol="83" pos="39024" len="48"/>
          <note pan="0" key="51" vol="80" pos="39048" len="24"/>
          <note pan="0" key="57" vol="86" pos="39072" len="48"/>
          <note pan="0" key="30" vol="86" pos="39072" len="24"/>
          <note pan="0" key="35" vol="80" pos="39096" len="24"/>
          <note pan="0" key="54" vol="83" pos="39120" len="24"/>
          <note pan="0" key="39" vol="83" pos="39120" len="24"/>
          <note pan="0" key="51" vol="80" pos="39144" len="24"/>
          <note pan="0" key="27" vol="80" pos="39144" len="24"/>
          <note pan="0" key="55" vol="89" pos="39168" len="48"/>
          <note pan="0" key="28" vol="89" pos="39168" len="24"/>
          <note pan="0" key="31" vol="80" pos="39192" len="24"/>
          <note pan="0" key="52" vol="83" pos="39216" len="24"/>
          <note pan="0" key="35" vol="83" pos="39216" len="48"/>
          <note pan="0" key="47" vol="80" pos="39240" len="24"/>
          <note pan="0" key="55" vol="86" pos="39264" len="48"/>
          <note pan="0" key="28" vol="86" pos="39264" len="24"/>
          <note pan="0" key="31" vol="80" pos="39288" len="24"/>
          <note pan="0" key="52" vol="83" pos="39312" len="24"/>
          <note pan="0" key="35" vol="83" pos="39312" len="48"/>
          <note pan="0" key="47" vol="80" pos="39336" len="24"/>
          <note pan="0" key="47" vol="89" pos="39360" len="24"/>
          <note pan="0" key="30" vol="89" pos="39360" len="24"/>
          <note pan="0" key="57" vol="80" pos="39384" len="24"/>
          <note pan="0" key="35" vol="80" pos="39384" len="24"/>
          <note pan="0" key="54" vol="83" pos="39408" len="24"/>
          <note pan="0" key="39" vol="83" pos="39408" len="48"/>
          <note pan="0" key="51" vol="80" pos="39432" len="24"/>
          <note pan="0" key="52" vol="86" pos="39456" len="48"/>
          <note pan="0" key="40" vol="86" pos="39456" len="48"/>
          <note pan="0" key="47" vol="83" pos="39504" len="48"/>
          <note pan="0" key="52" vol="83" pos="39504" len="48"/>
          <note pan="0" key="55" vol="83" pos="39504" len="48"/>
          <note pan="0" key="55" vol="100" pos="39552" len="48"/>
          <note pan="0" key="28" vol="100" pos="39552" len="24"/>
          <note pan="0" key="31" vol="90" pos="39576" len="24"/>
          <note pan="0" key="52" vol="93" pos="39600" len="24"/>
          <note pan="0" key="35" vol="93" pos="39600" len="48"/>
          <note pan="0" key="47" vol="90" pos="39624" len="24"/>
          <note pan="0" key="55" vol="97" pos="39648" len="48"/>
          <note pan="0" key="28" vol="97" pos="39648" len="24"/>
          <note pan="0" key="31" vol="90" pos="39672" len="24"/>
          <note pan="0" key="52" vol="93" pos="39696" len="24"/>
          <note pan="0" key="35" vol="93" pos="39696" len="48"/>
          <note pan="0" key="47" vol="90" pos="39720" len="24"/>
          <note pan="0" key="57" vol="100" pos="39744" len="48"/>
          <note pan="0" key="30" vol="100" pos="39744" len="24"/>
          <note pan="0" key="35" vol="90" pos="39768" len="24"/>
          <note pan="0" key="54" vol="93" pos="39792" len="24"/>
          <note pan="0" key="39" vol="93" pos="39792" len="48"/>
          <note pan="0" key="51" vol="90" pos="39816" len="24"/>
          <note pan="0" key="57" vol="97" pos="39840" len="48"/>
          <note pan="0" key="30" vol="97" pos="39840" len="24"/>
          <note pan="0" key="35" vol="90" pos="39864" len="24"/>
          <note pan="0" key="54" vol="93" pos="39888" len="24"/>
          <note pan="0" key="39" vol="93" pos="39888" len="24"/>
          <note pan="0" key="51" vol="90" pos="39912" len="24"/>
          <note pan="0" key="27" vol="90" pos="39912" len="24"/>
          <note pan="0" key="55" vol="100" pos="39936" len="48"/>
          <note pan="0" key="28" vol="100" pos="39936" len="24"/>
          <note pan="0" key="31" vol="90" pos="39960" len="24"/>
          <note pan="0" key="52" vol="93" pos="39984" len="24"/>
          <note pan="0" key="35" vol="93" pos="39984" len="48"/>
          <note pan="0" key="47" vol="90" pos="40008" len="24"/>
          <note pan="0" key="55" vol="97" pos="40032" len="48"/>
          <note pan="0" key="28" vol="97" pos="40032" len="24"/>
          <note pan="0" key="31" vol="90" pos="40056" len="24"/>
          <note pan="0" key="52" vol="93" pos="40080" len="24"/>
          <note pan="0" key="35" vol="93" pos="40080" len="48"/>
          <note pan="0" key="47" vol="90" pos="40104" len="24"/>
          <note pan="0" key="45" vol="100" pos="40128" len="24"/>
          <note pan="0" key="38" vol="100" pos="40128" len="24"/>
          <note pan="0" key="60" vol="90" pos="40152" len="24"/>
          <note pan="0" key="33" vol="90" pos="40152" len="24"/>
          <note pan="0" key="57" vol="93" pos="40176" len="24"/>
          <note pan="0" key="30" vol="93" pos="40176" len="48"/>
          <note pan="0" key="54" vol="90" pos="40200" len="24"/>
          <note pan="0" key="55" vol="97" pos="40224" len="48"/>
          <note pan="0" key="31" vol="97" pos="40224" len="48"/>
          <note pan="0" key="55" vol="93" pos="40272" len="48"/>
          <note pan="0" key="47" vol="93" pos="40272" len="48"/>
          <note pan="0" key="50" vol="93" pos="40272" len="48"/>
          <note pan="0" key="55" vol="117" pos="40320" len="48"/>
          <note pan="0" key="28" vol="117" pos="40320" len="24"/>
          <note pan="0" key="31" vol="105" pos="40344" len="24"/>
          <note pan="0" key="52" vol="109" pos="40368" len="24"/>
          <note pan="0" key="35" vol="109" pos="40368" len="48"/>
          <note pan="0" key="47" vol="105" pos="40392" len="24"/>
          <note pan="0" key="55" vol="113" pos="40416" len="48"/>
          <note pan="0" key="28" vol="113" pos="40416" len="24"/>
          <note pan="0" key="31" vol="105" pos="40440" len="24"/>
          <note pan="0" key="52" vol="109" pos="40464" len="24"/>
          <note pan="0" key="35" vol="109" pos="40464" len="48"/>
          <note pan="0" key="47" vol="105" pos="40488" len="24"/>
          <note pan="0" key="57" vol="117" pos="40512" len="48"/>
          <note pan="0" key="30" vol="117" pos="40512" len="24"/>
          <note pan="0" key="35" vol="105" pos="40536" len="24"/>
          <note pan="0" key="54" vol="109" pos="40560" len="24"/>
          <note pan="0" key="39" vol="109" pos="40560" len="48"/>
          <note pan="0" key="51" vol="105" pos="40584" len="24"/>
          <note pan="0" key="57" vol="113" pos="40608" len="48"/>
          <note pan="0" key="30" vol="113" pos="40608" len="24"/>
          <note pan="0" key="35" vol="105" pos="40632" len="24"/>
          <note pan="0" key="54" vol="109" pos="40656" len="24"/>
          <note pan="0" key="39" vol="109" pos="40656" len="24"/>
          <note pan="0" key="51" vol="105" pos="40680" len="24"/>
          <note pan="0" key="27" vol="105" pos="40680" len="24"/>
          <note pan="0" key="55" vol="117" pos="40704" len="48"/>
          <note pan="0" key="28" vol="117" pos="40704" len="24"/>
          <note pan="0" key="31" vol="105" pos="40728" len="24"/>
          <note pan="0" key="52" vol="109" pos="40752" len="24"/>
          <note pan="0" key="35" vol="109" pos="40752" len="48"/>
          <note pan="0" key="47" vol="105" pos="40776" len="24"/>
          <note pan="0" key="55" vol="113" pos="40800" len="48"/>
          <note pan="0" key="28" vol="113" pos="40800" len="24"/>
          <note pan="0" key="31" vol="105" pos="40824" len="24"/>
          <note pan="0" key="52" vol="109" pos="40848" len="24"/>
          <note pan="0" key="35" vol="109" pos="40848" len="48"/>
          <note pan="0" key="47" vol="105" pos="40872" len="24"/>
          <note pan="0" key="47" vol="117" pos="40896" len="24"/>
          <note pan="0" key="30" vol="117" pos="40896" len="24"/>
          <note pan="0" key="57" vol="105" pos="40920" len="24"/>
          <note pan="0" key="35" vol="105" pos="40920" len="24"/>
          <note pan="0" key="54" vol="109" pos="40944" len="24"/>
          <note pan="0" key="39" vol="109" pos="40944" len="48"/>
          <note pan="0" key="51" vol="105" pos="40968" len="24"/>
          <note pan="0" key="52" vol="113" pos="40992" len="48"/>
          <note pan="0" key="40" vol="113" pos="40992" len="48"/>
          <note pan="0" key="47" vol="109" pos="41040" len="48"/>
          <note pan="0" key="52" vol="109" pos="41040" len="48"/>
          <note pan="0" key="55" vol="109" pos="41040" len="48"/>
          <note pan="0" key="55" vol="123" pos="41088" len="48"/>
          <note pan="0" key="28" vol="123" pos="41088" len="24"/>
          <note pan="0" key="31" vol="110" pos="41112" len="24"/>
          <note pan="0" key="52" vol="114" pos="41136" len="24"/>
          <note pan="0" key="35" vol="114" pos="41136" len="48"/>
          <note pan="0" key="47" vol="110" pos="41160" len="24"/>
          <note pan="0" key="55" vol="118" pos="41184" len="48"/>
          <note pan="0" key="28" vol="118" pos="41184" len="24"/>
          <note pan="0" key="31" vol="110" pos="41208" len="24"/>
          <note pan="0" key="52" vol="114" pos="41232" len="24"/>
          <note pan="0" key="35" vol="114" pos="41232" len="48"/>
          <note pan="0" key="47" vol="110" pos="41256" len="24"/>
          <note pan="0" key="57" vol="123" pos="41280" len="48"/>
          <note pan="0" key="30" vol="123" pos="41280" len="24"/>
          <note pan="0" key="35" vol="110" pos="41304" len="24"/>
          <note pan="0" key="54" vol="114" pos="41328" len="24"/>
          <note pan="0" key="39" vol="114" pos="41328" len="48"/>
          <note pan="0" key="51" vol="110" pos="41352" len="24"/>
          <note pan="0" key="57" vol="118" pos="41376" len="48"/>
          <note pan="0" key="30" vol="118" pos="41376" len="24"/>
          <note pan="0" key="35" vol="110" pos="41400" len="24"/>
          <note pan="0" key="54" vol="114" pos="41424" len="24"/>
          <note pan="0" key="39" vol="114" pos="41424" len="24"/>
          <note pan="0" key="51" vol="110" pos="41448" len="24"/>
          <note pan="0" key="27" vol="110" pos="41448" len="24"/>
          <note pan="0" key="55" vol="123" pos="41472" len="48"/>
          <note pan="0" key="28" vol="123" pos="41472" len="24"/>
          <note pan="0" key="31" vol="110" pos="41496" len="24"/>
          <note pan="0" key="52" vol="114" pos="41520" len="24"/>
          <note pan="0" key="35" vol="114" pos="41520" len="48"/>
          <note pan="0" key="47" vol="110" pos="41544" len="24"/>
          <note pan="0" key="55" vol="118" pos="41568" len="48"/>
          <note pan="0" key="28" vol="118" pos="41568" len="24"/>
          <note pan="0" key="31" vol="110" pos="41592" len="24"/>
          <note pan="0" key="52" vol="114" pos="41616" len="24"/>
          <note pan="0" key="35" vol="114" pos="41616" len="48"/>
          <note pan="0" key="47" vol="110" pos="41640" len="24"/>
          <note pan="0" key="45" vol="123" pos="41664" len="24"/>
          <note pan="0" key="38" vol="123" pos="41664" len="24"/>
          <note pan="0" key="60" vol="105" pos="41688" len="24"/>
          <note pan="0" key="33" vol="105" pos="41688" len="24"/>
          <note pan="0" key="57" vol="104" pos="41712" len="24"/>
          <note pan="0" key="30" vol="104" pos="41712" len="48"/>
          <note pan="0" key="54" vol="95" pos="41736" len="24"/>
          <note pan="0" key="55" vol="97" pos="41760" len="48"/>
          <note pan="0" key="31" vol="97" pos="41760" len="48"/>
          <note pan="0" key="55" vol="117" pos="41856" len="72"/>
          <note pan="0" key="43" vol="117" pos="41856" len="192"/>
          <note pan="0" key="55" vol="105" pos="41928" len="24"/>
          <note pan="0" key="55" vol="113" pos="41952" len="48"/>
          <note pan="0" key="50" vol="109" pos="42000" len="48"/>
          <note pan="0" key="57" vol="117" pos="42048" len="72"/>
          <note pan="0" key="38" vol="117" pos="42048" len="192"/>
          <note pan="0" key="57" vol="105" pos="42120" len="24"/>
          <note pan="0" key="57" vol="113" pos="42144" len="48"/>
          <note pan="0" key="50" vol="109" pos="42192" len="48"/>
          <note pan="0" key="59" vol="117" pos="42240" len="24"/>
          <note pan="0" key="43" vol="117" pos="42240" len="192"/>
          <note pan="0" key="57" vol="105" pos="42264" len="24"/>
          <note pan="0" key="59" vol="109" pos="42288" len="24"/>
          <note pan="0" key="60" vol="105" pos="42312" len="24"/>
          <note pan="0" key="59" vol="113" pos="42336" len="48"/>
          <note pan="0" key="57" vol="109" pos="42384" len="48"/>
          <note pan="0" key="60" vol="117" pos="42432" len="72"/>
          <note pan="0" key="36" vol="117" pos="42432" len="192"/>
          <note pan="0" key="57" vol="105" pos="42504" len="24"/>
          <note pan="0" key="55" vol="113" pos="42528" len="96"/>
          <note pan="0" key="55" vol="117" pos="42624" len="72"/>
          <note pan="0" key="43" vol="117" pos="42624" len="192"/>
          <note pan="0" key="55" vol="105" pos="42696" len="24"/>
          <note pan="0" key="55" vol="113" pos="42720" len="48"/>
          <note pan="0" key="50" vol="109" pos="42768" len="48"/>
          <note pan="0" key="57" vol="117" pos="42816" len="72"/>
          <note pan="0" key="38" vol="117" pos="42816" len="192"/>
          <note pan="0" key="57" vol="105" pos="42888" len="24"/>
          <note pan="0" key="57" vol="113" pos="42912" len="48"/>
          <note pan="0" key="50" vol="109" pos="42960" len="48"/>
          <note pan="0" key="59" vol="117" pos="43008" len="24"/>
          <note pan="0" key="43" vol="117" pos="43008" len="192"/>
          <note pan="0" key="57" vol="105" pos="43032" len="24"/>
          <note pan="0" key="59" vol="109" pos="43056" len="24"/>
          <note pan="0" key="60" vol="105" pos="43080" len="24"/>
          <note pan="0" key="59" vol="113" pos="43104" len="48"/>
          <note pan="0" key="57" vol="109" pos="43152" len="48"/>
          <note pan="0" key="59" vol="117" pos="43200" len="72"/>
          <note pan="0" key="38" vol="117" pos="43200" len="192"/>
          <note pan="0" key="61" vol="105" pos="43272" len="24"/>
          <note pan="0" key="62" vol="113" pos="43296" len="96"/>
          <note pan="0" key="55" vol="117" pos="43392" len="72"/>
          <note pan="0" key="43" vol="117" pos="43392" len="192"/>
          <note pan="0" key="55" vol="105" pos="43464" len="24"/>
          <note pan="0" key="55" vol="113" pos="43488" len="48"/>
          <note pan="0" key="50" vol="109" pos="43536" len="48"/>
          <note pan="0" key="57" vol="117" pos="43584" len="72"/>
          <note pan="0" key="38" vol="117" pos="43584" len="192"/>
          <note pan="0" key="57" vol="105" pos="43656" len="24"/>
          <note pan="0" key="57" vol="113" pos="43680" len="48"/>
          <note pan="0" key="50" vol="109" pos="43728" len="48"/>
          <note pan="0" key="59" vol="117" pos="43776" len="24"/>
          <note pan="0" key="43" vol="117" pos="43776" len="192"/>
          <note pan="0" key="57" vol="105" pos="43800" len="24"/>
          <note pan="0" key="59" vol="109" pos="43824" len="24"/>
          <note pan="0" key="60" vol="105" pos="43848" len="24"/>
          <note pan="0" key="59" vol="113" pos="43872" len="48"/>
          <note pan="0" key="57" vol="109" pos="43920" len="48"/>
          <note pan="0" key="60" vol="117" pos="43968" len="72"/>
          <note pan="0" key="36" vol="117" pos="43968" len="192"/>
          <note pan="0" key="57" vol="105" pos="44040" len="24"/>
          <note pan="0" key="55" vol="113" pos="44064" len="96"/>
          <note pan="0" key="55" vol="117" pos="44160" len="72"/>
          <note pan="0" key="43" vol="117" pos="44160" len="192"/>
          <note pan="0" key="55" vol="105" pos="44232" len="24"/>
          <note pan="0" key="55" vol="113" pos="44256" len="48"/>
          <note pan="0" key="50" vol="109" pos="44304" len="48"/>
          <note pan="0" key="57" vol="117" pos="44352" len="72"/>
          <note pan="0" key="38" vol="117" pos="44352" len="192"/>
          <note pan="0" key="57" vol="105" pos="44424" len="24"/>
          <note pan="0" key="57" vol="113" pos="44448" len="48"/>
          <note pan="0" key="50" vol="109" pos="44496" len="48"/>
          <note pan="0" key="59" vol="117" pos="44544" len="24"/>
          <note pan="0" key="43" vol="117" pos="44544" len="192"/>
          <note pan="0" key="57" vol="105" pos="44568" len="24"/>
          <note pan="0" key="59" vol="109" pos="44592" len="24"/>
          <note pan="0" key="60" vol="105" pos="44616" len="24"/>
          <note pan="0" key="59" vol="113" pos="44640" len="48"/>
          <note pan="0" key="57" vol="109" pos="44688" len="48"/>
          <note pan="0" key="62" vol="117" pos="44736" len="48"/>
          <note pan="0" key="38" vol="117" pos="44736" len="96"/>
          <note pan="0" key="54" vol="109" pos="44784" len="48"/>
          <note pan="0" key="55" vol="113" pos="44832" len="48"/>
          <note pan="0" key="43" vol="113" pos="44832" len="48"/>
          <note pan="0" key="55" vol="117" pos="44928" len="72"/>
          <note pan="0" key="47" vol="117" pos="44928" len="144"/>
          <note pan="0" key="43" vol="117" pos="44928" len="192"/>
          <note pan="0" key="55" vol="105" pos="45000" len="24"/>
          <note pan="0" key="55" vol="113" pos="45024" len="48"/>
          <note pan="0" key="50" vol="109" pos="45072" len="48"/>
          <note pan="0" key="47" vol="109" pos="45072" len="48"/>
          <note pan="0" key="57" vol="117" pos="45120" len="72"/>
          <note pan="0" key="45" vol="117" pos="45120" len="144"/>
          <note pan="0" key="38" vol="117" pos="45120" len="192"/>
          <note pan="0" key="57" vol="105" pos="45192" len="24"/>
          <note pan="0" key="57" vol="113" pos="45216" len="48"/>
          <note pan="0" key="50" vol="109" pos="45264" len="48"/>
          <note pan="0" key="42" vol="109" pos="45264" len="48"/>
          <note pan="0" key="59" vol="117" pos="45312" len="24"/>
          <note pan="0" key="47" vol="117" pos="45312" len="144"/>
          <note pan="0" key="43" vol="117" pos="45312" len="192"/>
          <note pan="0" key="57" vol="105" pos="45336" len="24"/>
          <note pan="0" key="59" vol="109" pos="45360" len="24"/>
          <note pan="0" key="60" vol="105" pos="45384" len="24"/>
          <note pan="0" key="59" vol="113" pos="45408" len="48"/>
          <note pan="0" key="57" vol="109" pos="45456" len="48"/>
          <note pan="0" key="47" vol="109" pos="45456" len="48"/>
          <note pan="0" key="60" vol="117" pos="45504" len="72"/>
          <note pan="0" key="43" vol="117" pos="45504" len="192"/>
          <note pan="0" key="36" vol="117" pos="45504" len="192"/>
          <note pan="0" key="57" vol="105" pos="45576" len="24"/>
          <note pan="0" key="55" vol="113" pos="45600" len="96"/>
          <note pan="0" key="55" vol="117" pos="45696" len="72"/>
          <note pan="0" key="47" vol="117" pos="45696" len="144"/>
          <note pan="0" key="43" vol="117" pos="45696" len="192"/>
          <note pan="0" key="55" vol="105" pos="45768" len="24"/>
          <note pan="0" key="55" vol="113" pos="45792" len="48"/>
          <note pan="0" key="50" vol="109" pos="45840" len="48"/>
          <note pan="0" key="47" vol="109" pos="45840" len="48"/>
          <note pan="0" key="57" vol="117" pos="45888" len="72"/>
          <note pan="0" key="45" vol="117" pos="45888" len="144"/>
          <note pan="0" key="38" vol="117" pos="45888" len="192"/>
          <note pan="0" key="57" vol="105" pos="45960" len="24"/>
          <note pan="0" key="57" vol="113" pos="45984" len="48"/>
          <note pan="0" key="50" vol="109" pos="46032" len="48"/>
          <note pan="0" key="42" vol="109" pos="46032" len="48"/>
          <note pan="0" key="59" vol="117" pos="46080" len="24"/>
          <note pan="0" key="47" vol="117" pos="46080" len="144"/>
          <note pan="0" key="43" vol="117" pos="46080" len="192"/>
          <note pan="0" key="57" vol="105" pos="46104" len="24"/>
          <note pan="0" key="59" vol="109" pos="46128" len="24"/>
          <note pan="0" key="60" vol="105" pos="46152" len="24"/>
          <note pan="0" key="59" vol="113" pos="46176" len="48"/>
          <note pan="0" key="57" vol="109" pos="46224" len="48"/>
          <note pan="0" key="47" vol="109" pos="46224" len="48"/>
          <note pan="0" key="59" vol="117" pos="46272" len="72"/>
          <note pan="0" key="38" vol="117" pos="46272" len="192"/>
          <note pan="0" key="45" vol="117" pos="46272" len="192"/>
          <note pan="0" key="61" vol="105" pos="46344" len="24"/>
          <note pan="0" key="62" vol="113" pos="46368" len="96"/>
          <note pan="0" key="55" vol="117" pos="46464" len="72"/>
          <note pan="0" key="47" vol="117" pos="46464" len="144"/>
          <note pan="0" key="43" vol="117" pos="46464" len="192"/>
          <note pan="0" key="55" vol="105" pos="46536" len="24"/>
          <note pan="0" key="55" vol="113" pos="46560" len="48"/>
          <note pan="0" key="50" vol="109" pos="46608" len="48"/>
          <note pan="0" key="47" vol="109" pos="46608" len="48"/>
          <note pan="0" key="57" vol="117" pos="46656" len="72"/>
          <note pan="0" key="45" vol="117" pos="46656" len="144"/>
          <note pan="0" key="38" vol="117" pos="46656" len="192"/>
          <note pan="0" key="57" vol="105" pos="46728" len="24"/>
          <note pan="0" key="57" vol="113" pos="46752" len="48"/>
          <note pan="0" key="50" vol="109" pos="46800" len="48"/>
          <note pan="0" key="42" vol="109" pos="46800" len="48"/>
          <note pan="0" key="45" vol="109" pos="46800" len="48"/>
          <note pan="0" key="59" vol="117" pos="46848" len="24"/>
          <note pan="0" key="47" vol="117" pos="46848" len="144"/>
          <note pan="0" key="43" vol="117" pos="46848" len="192"/>
          <note pan="0" key="57" vol="105" pos="46872" len="24"/>
          <note pan="0" key="59" vol="109" pos="46896" len="24"/>
          <note pan="0" key="60" vol="105" pos="46920" len="24"/>
          <note pan="0" key="59" vol="113" pos="46944" len="48"/>
          <note pan="0" key="57" vol="109" pos="46992" len="48"/>
          <note pan="0" key="47" vol="109" pos="46992" len="48"/>
          <note pan="0" key="60" vol="117" pos="47040" len="72"/>
          <note pan="0" key="43" vol="117" pos="47040" len="192"/>
          <note pan="0" key="36" vol="117" pos="47040" len="192"/>
          <note pan="0" key="57" vol="105" pos="47112" len="24"/>
          <note pan="0" key="55" vol="113" pos="47136" len="96"/>
          <note pan="0" key="55" vol="117" pos="47232" len="72"/>
          <note pan="0" key="47" vol="117" pos="47232" len="144"/>
          <note pan="0" key="43" vol="117" pos="47232" len="192"/>
          <note pan="0" key="55" vol="105" pos="47304" len="24"/>
          <note pan="0" key="55" vol="113" pos="47328" len="48"/>
          <note pan="0" key="50" vol="109" pos="47376" len="48"/>
          <note pan="0" key="47" vol="109" pos="47376" len="48"/>
          <note pan="0" key="57" vol="117" pos="47424" len="72"/>
          <note pan="0" key="45" vol="117" pos="47424" len="144"/>
          <note pan="0" key="38" vol="117" pos="47424" len="192"/>
          <note pan="0" key="57" vol="105" pos="47496" len="24"/>
          <note pan="0" key="57" vol="113" pos="47520" len="48"/>
          <note pan="0" key="50" vol="109" pos="47568" len="48"/>
          <note pan="0" key="42" vol="109" pos="47568" len="48"/>
          <note pan="0" key="59" vol="117" pos="47616" len="24"/>
          <note pan="0" key="47" vol="117" pos="47616" len="144"/>
          <note pan="0" key="43" vol="117" pos="47616" len="192"/>
          <note pan="0" key="57" vol="105" pos="47640" len="24"/>
          <note pan="0" key="59" vol="109" pos="47664" len="24"/>
          <note pan="0" key="60" vol="105" pos="47688" len="24"/>
          <note pan="0" key="59" vol="113" pos="47712" len="48"/>
          <note pan="0" key="57" vol="109" pos="47760" len="48"/>
          <note pan="0" key="47" vol="109" pos="47760" len="48"/>
          <note pan="0" key="62" vol="117" pos="47808" len="48"/>
          <note pan="0" key="42" vol="117" pos="47808" len="48"/>
          <note pan="0" key="38" vol="117" pos="47808" len="96"/>
          <note pan="0" key="54" vol="109" pos="47856" len="48"/>
          <note pan="0" key="48" vol="109" pos="47856" len="48"/>
          <note pan="0" key="55" vol="113" pos="47904" len="48"/>
          <note pan="0" key="43" vol="113" pos="47904" len="48"/>
          <note pan="0" key="47" vol="113" pos="47904" len="48"/>
          <note pan="0" key="59" vol="100" pos="48000" len="72"/>
          <note pan="0" key="43" vol="100" pos="48000" len="192"/>
          <note pan="0" key="31" vol="100" pos="48000" len="192"/>
          <note pan="0" key="50" vol="90" pos="48072" len="24"/>
          <note pan="0" key="50" vol="97" pos="48096" len="48"/>
          <note pan="0" key="59" vol="93" pos="48144" len="48"/>
          <note pan="0" key="55" vol="100" pos="48192" len="72"/>
          <note pan="0" key="40" vol="100" pos="48192" len="192"/>
          <note pan="0" key="36" vol="100" pos="48192" len="192"/>
          <note pan="0" key="52" vol="90" pos="48264" len="24"/>
          <note pan="0" key="52" vol="97" pos="48288" len="48"/>
          <note pan="0" key="55" vol="93" pos="48336" len="48"/>
          <note pan="0" key="57" vol="100" pos="48384" len="72"/>
          <note pan="0" key="42" vol="100" pos="48384" len="192"/>
          <note pan="0" key="36" vol="100" pos="48384" len="192"/>
          <note pan="0" key="50" vol="90" pos="48456" len="24"/>
          <note pan="0" key="50" vol="97" pos="48480" len="48"/>
          <note pan="0" key="57" vol="93" pos="48528" len="48"/>
          <note pan="0" key="59" vol="100" pos="48576" len="48"/>
          <note pan="0" key="31" vol="100" pos="48576" len="192"/>
          <note pan="0" key="43" vol="100" pos="48576" len="192"/>
          <note pan="0" key="59" vol="93" pos="48624" len="48"/>
          <note pan="0" key="50" vol="97" pos="48672" len="96"/>
          <note pan="0" key="57" vol="100" pos="48768" len="72"/>
          <note pan="0" key="36" vol="100" pos="48768" len="192"/>
          <note pan="0" key="42" vol="100" pos="48768" len="192"/>
          <note pan="0" key="50" vol="90" pos="48840" len="24"/>
          <note pan="0" key="50" vol="97" pos="48864" len="48"/>
          <note pan="0" key="57" vol="93" pos="48912" len="48"/>
          <note pan="0" key="55" vol="100" pos="48960" len="72"/>
          <note pan="0" key="35" vol="100" pos="48960" len="192"/>
          <note pan="0" key="43" vol="100" pos="48960" len="192"/>
          <note pan="0" key="52" vol="90" pos="49032" len="24"/>
          <note pan="0" key="52" vol="97" pos="49056" len="48"/>
          <note pan="0" key="55" vol="93" pos="49104" len="48"/>
          <note pan="0" key="59" vol="100" pos="49152" len="72"/>
          <note pan="0" key="42" vol="100" pos="49152" len="192"/>
          <note pan="0" key="35" vol="100" pos="49152" len="192"/>
          <note pan="0" key="51" vol="90" pos="49224" len="24"/>
          <note pan="0" key="51" vol="97" pos="49248" len="48"/>
          <note pan="0" key="59" vol="93" pos="49296" len="48"/>
          <note pan="0" key="57" vol="100" pos="49344" len="72"/>
          <note pan="0" key="42" vol="100" pos="49344" len="192"/>
          <note pan="0" key="35" vol="100" pos="49344" len="192"/>
          <note pan="0" key="51" vol="90" pos="49416" len="24"/>
          <note pan="0" key="51" vol="97" pos="49440" len="48"/>
          <note pan="0" key="57" vol="93" pos="49488" len="48"/>
          <note pan="0" key="55" vol="100" pos="49536" len="48"/>
          <note pan="0" key="35" vol="100" pos="49536" len="192"/>
          <note pan="0" key="40" vol="100" pos="49536" len="192"/>
          <note pan="0" key="55" vol="93" pos="49584" len="48"/>
          <note pan="0" key="52" vol="97" pos="49632" len="96"/>
          <note pan="0" key="59" vol="100" pos="49728" len="72"/>
          <note pan="0" key="45" vol="100" pos="49728" len="192"/>
          <note pan="0" key="39" vol="100" pos="49728" len="192"/>
          <note pan="0" key="54" vol="90" pos="49800" len="24"/>
          <note pan="0" key="54" vol="97" pos="49824" len="48"/>
          <note pan="0" key="59" vol="93" pos="49872" len="48"/>
          <note pan="0" key="59" vol="100" pos="49920" len="72"/>
          <note pan="0" key="40" vol="100" pos="49920" len="192"/>
          <note pan="0" key="43" vol="100" pos="49920" len="192"/>
          <note pan="0" key="55" vol="90" pos="49992" len="24"/>
          <note pan="0" key="55" vol="97" pos="50016" len="48"/>
          <note pan="0" key="59" vol="93" pos="50064" len="48"/>
          <note pan="0" key="60" vol="100" pos="50112" len="72"/>
          <note pan="0" key="45" vol="100" pos="50112" len="192"/>
          <note pan="0" key="40" vol="100" pos="50112" len="192"/>
          <note pan="0" key="57" vol="90" pos="50184" len="24"/>
          <note pan="0" key="57" vol="97" pos="50208" len="48"/>
          <note pan="0" key="60" vol="93" pos="50256" len="48"/>
          <note pan="0" key="59" vol="100" pos="50304" len="72"/>
          <note pan="0" key="39" vol="100" pos="50304" len="192"/>
          <note pan="0" key="47" vol="100" pos="50304" len="192"/>
          <note pan="0" key="54" vol="90" pos="50376" len="24"/>
          <note pan="0" key="54" vol="97" pos="50400" len="48"/>
          <note pan="0" key="59" vol="93" pos="50448" len="48"/>
          <note pan="0" key="52" vol="100" pos="50496" len="192"/>
          <note pan="0" key="59" vol="100" pos="50496" len="192"/>
          <note pan="0" key="40" vol="100" pos="50496" len="192"/>
          <note pan="0" key="43" vol="100" pos="50496" len="192"/>
          <note pan="0" key="59" vol="100" pos="50688" len="96"/>
          <note pan="0" key="67" vol="100" pos="50688" len="96"/>
          <note pan="0" key="40" vol="100" pos="50688" len="96"/>
          <note pan="0" key="35" vol="100" pos="50688" len="96"/>
          <note pan="0" key="59" vol="97" pos="50784" len="96"/>
          <note pan="0" key="66" vol="97" pos="50784" len="96"/>
          <note pan="0" key="39" vol="97" pos="50784" len="96"/>
          <note pan="0" key="23" vol="97" pos="50784" len="96"/>
          <note pan="0" key="67" vol="100" pos="50880" len="144"/>
          <note pan="0" key="59" vol="100" pos="50880" len="144"/>
          <note pan="0" key="40" vol="100" pos="50880" len="144"/>
          <note pan="0" key="28" vol="100" pos="50880" len="144"/>
          <note pan="0" key="64" vol="114" pos="51024" len="24"/>
          <note pan="0" key="63" vol="110" pos="51048" len="24"/>
          <note pan="0" key="64" vol="123" pos="51072" len="48"/>
          <note pan="0" key="40" vol="123" pos="51072" len="768"/>
          <note pan="0" key="28" vol="123" pos="51072" len="768"/>
          <note pan="0" key="59" vol="114" pos="51120" len="48"/>
          <note pan="0" key="56" vol="114" pos="51120" len="48"/>
          <note pan="0" key="60" vol="118" pos="51168" len="48"/>
          <note pan="0" key="57" vol="118" pos="51168" len="96"/>
          <note pan="0" key="64" vol="114" pos="51216" len="24"/>
          <note pan="0" key="63" vol="110" pos="51240" len="24"/>
          <note pan="0" key="64" vol="123" pos="51264" len="48"/>
          <note pan="0" key="66" vol="114" pos="51312" len="48"/>
          <note pan="0" key="63" vol="114" pos="51312" len="48"/>
          <note pan="0" key="60" vol="114" pos="51312" len="48"/>
          <note pan="0" key="57" vol="114" pos="51312" len="48"/>
          <note pan="0" key="59" vol="118" pos="51360" len="48"/>
          <note pan="0" key="64" vol="114" pos="51408" len="24"/>
          <note pan="0" key="63" vol="110" pos="51432" len="24"/>
          <note pan="0" key="64" vol="123" pos="51456" len="48"/>
          <note pan="0" key="55" vol="123" pos="51456" len="48"/>
          <note pan="0" key="66" vol="114" pos="51504" len="48"/>
          <note pan="0" key="57" vol="114" pos="51504" len="48"/>
          <note pan="0" key="60" vol="114" pos="51504" len="48"/>
          <note pan="0" key="57" vol="118" pos="51552" len="24"/>
          <note pan="0" key="51" vol="118" pos="51552" len="48"/>
          <note pan="0" key="54" vol="118" pos="51552" len="48"/>
          <note pan="0" key="59" vol="110" pos="51576" len="24"/>
          <note pan="0" key="60" vol="114" pos="51600" len="96"/>
          <note pan="0" key="54" vol="123" pos="51648" len="48"/>
          <note pan="0" key="51" vol="123" pos="51648" len="48"/>
          <note pan="0" key="59" vol="114" pos="51696" len="24"/>
          <note pan="0" key="57" vol="110" pos="51720" len="24"/>
          <note pan="0" key="56" vol="118" pos="51744" len="96"/>
          <note pan="0" key="52" vol="118" pos="51744" len="96"/>
          <note pan="0" key="47" vol="118" pos="51744" len="96"/>
        </pattern>
      </track>
    </trackcontainer>
    <track muted="0" type="6" name="Automation track">
      <automationtrack/>
      <automationpattern name="Numerator" pos="0" len="192">
        <time value="4" pos="0"/>
        <object id="970905"/>
      </automationpattern>
      <automationpattern name="Denominator" pos="0" len="192">
        <time value="4" pos="0"/>
        <object id="7768734"/>
      </automationpattern>
      <automationpattern name="Tempo" pos="0" len="51840">
        <time value="120" pos="0"/>
        <time value="121" pos="6528"/>
        <time value="122" pos="6720"/>
        <time value="123" pos="6912"/>
        <time value="124" pos="7104"/>
        <time value="125" pos="7296"/>
        <time value="126" pos="7488"/>
        <time value="127" pos="7680"/>
        <time value="128" pos="7872"/>
        <time value="129" pos="8064"/>
        <time value="130" pos="8256"/>
        <time value="131" pos="8448"/>
        <time value="132" pos="8640"/>
        <time value="133" pos="8832"/>
        <time value="134" pos="9024"/>
        <time value="135" pos="9216"/>
        <time value="136" pos="9408"/>
        <time value="137" pos="9600"/>
        <time value="138" pos="9792"/>
        <time value="139" pos="9984"/>
        <time value="140" pos="10176"/>
        <time value="141" pos="10368"/>
        <time value="142" pos="10560"/>
        <time value="143" pos="10752"/>
        <time value="144" pos="10944"/>
        <time value="145" pos="11136"/>
        <time value="146" pos="11328"/>
        <time value="147" pos="11520"/>
        <time value="148" pos="11712"/>
        <time value="149" pos="11904"/>
        <time value="150" pos="12096"/>
        <time value="140" pos="12288"/>
        <time value="130" pos="12336"/>
        <time value="120" pos="12384"/>
        <time value="110" pos="12432"/>
        <time value="140" pos="12480"/>
        <time value="135" pos="14832"/>
        <time value="130" pos="14880"/>
        <time value="125" pos="14928"/>
        <time value="120" pos="14976"/>
        <time value="121" pos="21888"/>
        <time value="122" pos="22080"/>
        <time value="123" pos="22272"/>
        <time value="124" pos="22464"/>
        <time value="125" pos="22656"/>
        <time value="126" pos="22848"/>
        <time value="127" pos="23040"/>
        <time value="128" pos="23232"/>
        <time value="129" pos="23424"/>
        <time value="130" pos="23616"/>
        <time value="131" pos="23808"/>
        <time value="132" pos="24000"/>
        <time value="133" pos="24192"/>
        <time value="134" pos="24384"/>
        <time value="135" pos="24576"/>
        <time value="136" pos="24768"/>
        <time value="137" pos="24960"/>
        <time value="138" pos="25152"/>
        <time value="139" pos="25344"/>
        <time value="140" pos="25536"/>
        <time value="141" pos="25728"/>
        <time value="142" pos="25920"/>
        <time value="143" pos="26112"/>
        <time value="144" pos="26304"/>
        <time value="145" pos="26496"/>
        <time value="146" pos="26688"/>
        <time value="147" pos="26880"/>
        <time value="148" pos="27072"/>
        <time value="149" pos="27264"/>
        <time value="150" pos="27456"/>
        <time value="140" pos="27648"/>
        <time value="130" pos="27696"/>
        <time value="120" pos="27744"/>
        <time value="110" pos="27792"/>
        <time value="140" pos="27840"/>
        <time value="135" pos="30192"/>
        <time value="130" pos="30240"/>
        <time value="125" pos="30288"/>
        <time value="120" pos="30336"/>
        <time value="40" pos="35616"/>
        <time value="120" pos="35664"/>
        <time value="121" pos="42048"/>
        <time value="122" pos="42240"/>
        <time value="123" pos="42432"/>
        <time value="124" pos="42624"/>
        <time value="125" pos="42816"/>
        <time value="126" pos="43008"/>
        <time value="127" pos="43200"/>
        <time value="128" pos="43392"/>
        <time value="129" pos="43584"/>
        <time value="130" pos="43776"/>
        <time value="131" pos="43968"/>
        <time value="132" pos="44160"/>
        <time value="133" pos="44352"/>
        <time value="134" pos="44544"/>
        <time value="135" pos="44736"/>
        <time value="136" pos="44928"/>
        <time value="137" pos="45120"/>
        <time value="138" pos="45312"/>
        <time value="139" pos="45504"/>
        <time value="140" pos="45696"/>
        <time value="141" pos="45888"/>
        <time value="142" pos="46080"/>
        <time value="143" pos="46272"/>
        <time value="144" pos="46464"/>
        <time value="145" pos="46656"/>
        <time value="146" pos="46848"/>
        <time value="147" pos="47040"/>
        <time value="148" pos="47232"/>
        <time value="149" pos="47424"/>
        <time value="150" pos="47616"/>
        <time value="140" pos="47808"/>
        <time value="130" pos="47856"/>
        <time value="120" pos="47904"/>
        <time value="110" pos="47952"/>
        <time value="140" pos="48000"/>
        <time value="135" pos="50352"/>
        <time value="130" pos="50400"/>
        <time value="125" pos="50448"/>
        <time value="120" pos="50496"/>
        <time value="117" pos="51072"/>
        <time value="114" pos="51120"/>
        <time value="111" pos="51168"/>
        <time value="108" pos="51216"/>
        <time value="105" pos="51264"/>
        <time value="102" pos="51312"/>
        <time value="99.0001" pos="51360"/>
        <time value="96" pos="51408"/>
        <time value="93" pos="51456"/>
        <time value="90.0001" pos="51504"/>
        <time value="87" pos="51552"/>
        <time value="84.0001" pos="51600"/>
        <time value="81.0001" pos="51648"/>
        <time value="78.0001" pos="51696"/>
        <time value="75" pos="51744"/>
        <object id="2038568"/>
      </automationpattern>
      <automationpattern name="Master volume" pos="0" len="192">
        <time value="100" pos="0"/>
        <object id="5091228"/>
      </automationpattern>
      <automationpattern name="Master pitch" pos="0" len="192">
        <time value="0" pos="0"/>
        <object id="6559212"/>
      </automationpattern>
    </track>
    <fxmixer width="865" x="5" y="310" maximized="0" height="278" visible="1" minimized="0">
      <fxchannel num="0" muted="0" volume="1" name="Master">
        <fxchain numofeffects="0" enabled="0"/>
      </fxchannel>
      <fxchannel num="1" muted="0" volume="1" name="FX 1">
        <fxchain numofeffects="0" enabled="0"/>
      </fxchannel>
      <fxchannel num="2" muted="0" volume="1" name="FX 2">
        <fxchain numofeffects="0" enabled="0"/>
      </fxchannel>
      <fxchannel num="3" muted="0" volume="1" name="FX 3">
        <fxchain numofeffects="0" enabled="0"/>
      </fxchannel>
      <fxchannel num="4" muted="0" volume="1" name="FX 4">
        <fxchain numofeffects="0" enabled="0"/>
      </fxchannel>
      <fxchannel num="5" muted="0" volume="1" name="FX 5">
        <fxchain numofeffects="0" enabled="0"/>
      </fxchannel>
      <fxchannel num="6" muted="0" volume="1" name="FX 6">
        <fxchain numofeffects="0" enabled="0"/>
      </fxchannel>
      <fxchannel num="7" muted="0" volume="1" name="FX 7">
        <fxchain numofeffects="0" enabled="0"/>
      </fxchannel>
      <fxchannel num="8" muted="0" volume="1" name="FX 8">
        <fxchain numofeffects="0" enabled="0"/>
      </fxchannel>
      <fxchannel num="9" muted="0" volume="1" name="FX 9">
        <fxchain numofeffects="0" enabled="0"/>
      </fxchannel>
      <fxchannel num="10" muted="0" volume="1" name="FX 10">
        <fxchain numofeffects="0" enabled="0"/>
      </fxchannel>
      <fxchannel num="11" muted="0" volume="1" name="FX 11">
        <fxchain numofeffects="0" enabled="0"/>
      </fxchannel>
      <fxchannel num="12" muted="0" volume="1" name="FX 12">
        <fxchain numofeffects="0" enabled="0"/>
      </fxchannel>
      <fxchannel num="13" muted="0" volume="1" name="FX 13">
        <fxchain numofeffects="0" enabled="0"/>
      </fxchannel>
      <fxchannel num="14" muted="0" volume="1" name="FX 14">
        <fxchain numofeffects="0" enabled="0"/>
      </fxchannel>
      <fxchannel num="15" muted="0" volume="1" name="FX 15">
        <fxchain numofeffects="0" enabled="0"/>
      </fxchannel>
      <fxchannel num="16" muted="0" volume="1" name="FX 16">
        <fxchain numofeffects="0" enabled="0"/>
      </fxchannel>
      <fxchannel num="17" muted="0" volume="1" name="FX 17">
        <fxchain numofeffects="0" enabled="0"/>
      </fxchannel>
      <fxchannel num="18" muted="0" volume="1" name="FX 18">
        <fxchain numofeffects="0" enabled="0"/>
      </fxchannel>
      <fxchannel num="19" muted="0" volume="1" name="FX 19">
        <fxchain numofeffects="0" enabled="0"/>
      </fxchannel>
      <fxchannel num="20" muted="0" volume="1" name="FX 20">
        <fxchain numofeffects="0" enabled="0"/>
      </fxchannel>
      <fxchannel num="21" muted="0" volume="1" name="FX 21">
        <fxchain numofeffects="0" enabled="0"/>
      </fxchannel>
      <fxchannel num="22" muted="0" volume="1" name="FX 22">
        <fxchain numofeffects="0" enabled="0"/>
      </fxchannel>
      <fxchannel num="23" muted="0" volume="1" name="FX 23">
        <fxchain numofeffects="0" enabled="0"/>
      </fxchannel>
      <fxchannel num="24" muted="0" volume="1" name="FX 24">
        <fxchain numofeffects="0" enabled="0"/>
      </fxchannel>
      <fxchannel num="25" muted="0" volume="1" name="FX 25">
        <fxchain numofeffects="0" enabled="0"/>
      </fxchannel>
      <fxchannel num="26" muted="0" volume="1" name="FX 26">
        <fxchain numofeffects="0" enabled="0"/>
      </fxchannel>
      <fxchannel num="27" muted="0" volume="1" name="FX 27">
        <fxchain numofeffects="0" enabled="0"/>
      </fxchannel>
      <fxchannel num="28" muted="0" volume="1" name="FX 28">
        <fxchain numofeffects="0" enabled="0"/>
      </fxchannel>
      <fxchannel num="29" muted="0" volume="1" name="FX 29">
        <fxchain numofeffects="0" enabled="0"/>
      </fxchannel>
      <fxchannel num="30" muted="0" volume="1" name="FX 30">
        <fxchain numofeffects="0" enabled="0"/>
      </fxchannel>
      <fxchannel num="31" muted="0" volume="1" name="FX 31">
        <fxchain numofeffects="0" enabled="0"/>
      </fxchannel>
      <fxchannel num="32" muted="0" volume="1" name="FX 32">
        <fxchain numofeffects="0" enabled="0"/>
      </fxchannel>
      <fxchannel num="33" muted="0" volume="1" name="FX 33">
        <fxchain numofeffects="0" enabled="0"/>
      </fxchannel>
      <fxchannel num="34" muted="0" volume="1" name="FX 34">
        <fxchain numofeffects="0" enabled="0"/>
      </fxchannel>
      <fxchannel num="35" muted="0" volume="1" name="FX 35">
        <fxchain numofeffects="0" enabled="0"/>
      </fxchannel>
      <fxchannel num="36" muted="0" volume="1" name="FX 36">
        <fxchain numofeffects="0" enabled="0"/>
      </fxchannel>
      <fxchannel num="37" muted="0" volume="1" name="FX 37">
        <fxchain numofeffects="0" enabled="0"/>
      </fxchannel>
      <fxchannel num="38" muted="0" volume="1" name="FX 38">
        <fxchain numofeffects="0" enabled="0"/>
      </fxchannel>
      <fxchannel num="39" muted="0" volume="1" name="FX 39">
        <fxchain numofeffects="0" enabled="0"/>
      </fxchannel>
      <fxchannel num="40" muted="0" volume="1" name="FX 40">
        <fxchain numofeffects="0" enabled="0"/>
      </fxchannel>
      <fxchannel num="41" muted="0" volume="1" name="FX 41">
        <fxchain numofeffects="0" enabled="0"/>
      </fxchannel>
      <fxchannel num="42" muted="0" volume="1" name="FX 42">
        <fxchain numofeffects="0" enabled="0"/>
      </fxchannel>
      <fxchannel num="43" muted="0" volume="1" name="FX 43">
        <fxchain numofeffects="0" enabled="0"/>
      </fxchannel>
      <fxchannel num="44" muted="0" volume="1" name="FX 44">
        <fxchain numofeffects="0" enabled="0"/>
      </fxchannel>
      <fxchannel num="45" muted="0" volume="1" name="FX 45">
        <fxchain numofeffects="0" enabled="0"/>
      </fxchannel>
      <fxchannel num="46" muted="0" volume="1" name="FX 46">
        <fxchain numofeffects="0" enabled="0"/>
      </fxchannel>
      <fxchannel num="47" muted="0" volume="1" name="FX 47">
        <fxchain numofeffects="0" enabled="0"/>
      </fxchannel>
      <fxchannel num="48" muted="0" volume="1" name="FX 48">
        <fxchain numofeffects="0" enabled="0"/>
      </fxchannel>
      <fxchannel num="49" muted="0" volume="1" name="FX 49">
        <fxchain numofeffects="0" enabled="0"/>
      </fxchannel>
      <fxchannel num="50" muted="0" volume="1" name="FX 50">
        <fxchain numofeffects="0" enabled="0"/>
      </fxchannel>
      <fxchannel num="51" muted="0" volume="1" name="FX 51">
        <fxchain numofeffects="0" enabled="0"/>
      </fxchannel>
      <fxchannel num="52" muted="0" volume="1" name="FX 52">
        <fxchain numofeffects="0" enabled="0"/>
      </fxchannel>
      <fxchannel num="53" muted="0" volume="1" name="FX 53">
        <fxchain numofeffects="0" enabled="0"/>
      </fxchannel>
      <fxchannel num="54" muted="0" volume="1" name="FX 54">
        <fxchain numofeffects="0" enabled="0"/>
      </fxchannel>
      <fxchannel num="55" muted="0" volume="1" name="FX 55">
        <fxchain numofeffects="0" enabled="0"/>
      </fxchannel>
      <fxchannel num="56" muted="0" volume="1" name="FX 56">
        <fxchain numofeffects="0" enabled="0"/>
      </fxchannel>
      <fxchannel num="57" muted="0" volume="1" name="FX 57">
        <fxchain numofeffects="0" enabled="0"/>
      </fxchannel>
      <fxchannel num="58" muted="0" volume="1" name="FX 58">
        <fxchain numofeffects="0" enabled="0"/>
      </fxchannel>
      <fxchannel num="59" muted="0" volume="1" name="FX 59">
        <fxchain numofeffects="0" enabled="0"/>
      </fxchannel>
      <fxchannel num="60" muted="0" volume="1" name="FX 60">
        <fxchain numofeffects="0" enabled="0"/>
      </fxchannel>
      <fxchannel num="61" muted="0" volume="1" name="FX 61">
        <fxchain numofeffects="0" enabled="0"/>
      </fxchannel>
      <fxchannel num="62" muted="0" volume="1" name="FX 62">
        <fxchain numofeffects="0" enabled="0"/>
      </fxchannel>
      <fxchannel num="63" muted="0" volume="1" name="FX 63">
        <fxchain numofeffects="0" enabled="0"/>
      </fxchannel>
      <fxchannel num="64" muted="0" volume="1" name="FX 64">
        <fxchain numofeffects="0" enabled="0"/>
      </fxchannel>
    </fxmixer>
    <ControllerRackView width="258" x="880" y="310" maximized="0" height="172" visible="1" minimized="0"/>
    <pianoroll width="1135" x="115" y="152" maximized="0" height="480" visible="0" minimized="0"/>
    <automationeditor width="740" x="510" y="152" maximized="0" height="480" visible="0" minimized="0"/>
    <projectnotes width="400" x="700" y="10" maximized="0" height="300" visible="0" minimized="0"><![CDATA[<!DOCTYPE HTML PUBLIC "-//W3C//DTD HTML 4.0//EN" "http://www.w3.org/TR/REC-html40/strict.dtd">
<html><head><meta name="qrichtext" content="1" /><style type="text/css">
p, li { white-space: pre-wrap; }
</style></head><body style=" font-family:'Sans Serif'; font-size:9pt; font-weight:400; font-style:normal;">
<p style=" margin-top:0px; margin-bottom:0px; margin-left:0px; margin-right:0px; -qt-block-indent:0; text-indent:0px;"><span style=" color:#e0e0e0;">Put down your project notes here.</span></p></body></html>]]></projectnotes>
    <timeline lp1pos="192" lp0pos="0" lpstate="0"/>
    <controllers/>
  </song>
</multimedia-project>
